<?xml version="1.0" encoding="UTF-8" standalone="no"?>
<!-- Created with Inkscape (http://www.inkscape.org/) -->

<svg
   xmlns:dc="http://purl.org/dc/elements/1.1/"
   xmlns:cc="http://creativecommons.org/ns#"
   xmlns:rdf="http://www.w3.org/1999/02/22-rdf-syntax-ns#"
   xmlns:svg="http://www.w3.org/2000/svg"
   xmlns="http://www.w3.org/2000/svg"
   xmlns:sodipodi="http://sodipodi.sourceforge.net/DTD/sodipodi-0.dtd"
   xmlns:inkscape="http://www.inkscape.org/namespaces/inkscape"
   version="1.1"
   id="svg815"
   width="1305.6"
   height="983.03998"
   viewBox="0 0 1305.6 983.03998"
   sodipodi:docname="side.svg"
   inkscape:version="0.92.3 (2405546, 2018-03-11)">
  <metadata
     id="metadata821">
    <rdf:RDF>
      <cc:Work
         rdf:about="">
        <dc:format>image/svg+xml</dc:format>
        <dc:type
           rdf:resource="http://purl.org/dc/dcmitype/StillImage" />
        <dc:title />
      </cc:Work>
    </rdf:RDF>
  </metadata>
  <defs
     id="defs819" />
  <sodipodi:namedview
     pagecolor="#ffffff"
     bordercolor="#666666"
     borderopacity="1"
     objecttolerance="10"
     gridtolerance="10"
     guidetolerance="10"
     inkscape:pageopacity="0"
     inkscape:pageshadow="2"
     inkscape:window-width="3840"
     inkscape:window-height="2066"
     id="namedview817"
     showgrid="false"
     inkscape:zoom="1.3343131"
     inkscape:cx="1429.7308"
     inkscape:cy="333.69076"
     inkscape:window-x="3829"
     inkscape:window-y="-11"
     inkscape:window-maximized="1"
     inkscape:current-layer="svg815" />
  <path
     style="opacity:1;fill:#00ffff;fill-opacity:1;fill-rule:nonzero;stroke:none;stroke-width:1.21010959;stroke-miterlimit:4;stroke-dasharray:none;stroke-opacity:1"
     d="m 843.59422,132.64013 c -5.59621,0.0128 -10.90876,0.0511 -15.68253,0.11329 -5.21639,0.0679 -13.37245,0.15907 -18.12438,0.20507 -4.75196,0.0458 -12.05861,0.17436 -16.23732,0.28516 -4.17869,0.1105 -8.5732,0.18792 -9.76543,0.16992 -5.72586,-0.0854 -25.13559,0.23438 -25.83085,0.42578 -0.95843,0.2639 -0.88729,0.26086 -8.45271,0.41016 -3.51202,0.0693 -6.89331,0.17442 -7.51308,0.23242 -0.61976,0.0581 -2.90009,0.18049 -5.06927,0.27149 -9.14531,0.3826 -13.161,0.56546 -16.52839,0.75586 -1.96262,0.1108 -3.90595,0.19554 -4.31914,0.18554 -0.41317,-0.009 -2.27231,0.0721 -4.13161,0.17969 -1.8593,0.1076 -5.2406,0.28037 -7.51308,0.38477 -2.27248,0.1043 -5.73607,0.26542 -7.69866,0.35742 -1.9626,0.0917 -6.82395,0.29838 -10.80079,0.45898 -3.97684,0.1607 -7.48253,0.34611 -7.79242,0.41211 -0.55257,0.118 -4.25915,0.29908 -12.67807,0.6211 -2.32414,0.0888 -5.49288,0.26321 -7.0423,0.38671 -1.54941,0.1235 -4.8886,0.3053 -7.41931,0.4043 -2.53072,0.0987 -6.45957,0.25656 -8.73206,0.35156 -2.27249,0.0946 -6.20328,0.25477 -8.734,0.35547 -2.53072,0.1007 -5.95414,0.27839 -7.60684,0.39649 -1.65272,0.1182 -5.07417,0.29176 -7.60489,0.38476 -2.53073,0.0934 -6.08049,0.25623 -7.88815,0.36133 -1.80766,0.105 -5.48379,0.27435 -8.16945,0.37695 -2.68567,0.1027 -6.40586,0.27928 -8.26517,0.39258 -1.85929,0.1133 -5.23865,0.27633 -7.51113,0.36133 -4.55561,0.1706 -10.14635,0.46824 -13.33444,0.71094 -1.95833,0.1491 -2.1238,0.19586 -3.19199,0.88476 -0.61975,0.3997 -1.25334,0.85151 -1.4065,1.00391 -0.15316,0.1524 -0.74166,0.57405 -1.30688,0.93555 -0.56521,0.3615 -2.27427,1.93625 -3.79951,3.50195 -2.08675,2.1421 -3.13837,3.4035 -4.25077,5.0918 -0.81308,1.234 -1.58867,2.45103 -1.72297,2.70703 -0.13433,0.2561 -0.52073,0.88985 -0.85758,1.40625 -0.72445,1.1105 -1.43781,2.38726 -2.62157,4.69336 -0.83183,1.6206 -1.01288,1.94731 -2.14296,3.84961 -1.02124,1.719 -1.19048,2.38831 -1.36353,5.44531 -0.0906,1.6008 -0.19872,8.23383 -0.24223,14.74023 -0.0435,6.5064 -0.13736,17.28011 -0.20707,23.94141 -0.0696,6.6613 -0.094,14.22474 -0.0566,16.80664 0.0373,2.5819 0.0556,5.24276 0.041,5.91406 -0.0144,0.6713 -0.0264,5.02252 -0.0254,9.66992 0.002,4.6474 -0.004,8.79003 -0.008,9.20313 -0.11762,10.20245 0.0412,100.31383 0.24419,139.23437 0.18576,35.60838 0.36157,72.25893 0.35357,73.41797 -0.048,6.83024 -0.0675,15.90613 -0.0488,23.09766 0.013,4.80233 0.0149,11.89863 0.006,15.77148 -0.009,3.87285 0.0519,7.51157 0.13284,8.08399 0.0809,0.57236 0.0677,1.75539 -0.0274,2.6289 -0.095,0.87344 -0.1471,4.08032 -0.1172,7.12696 0.0673,6.85383 0.0789,3.66647 -0.0977,25.63086 -0.15683,19.51118 -0.20444,32.48016 -0.12893,34.73828 0.0241,0.72293 -0.006,7.6929 -0.0664,15.49023 -0.0607,7.79734 -0.14724,30.65611 -0.19145,50.79492 -0.0442,20.13881 -0.0877,37.03831 -0.0977,37.55469 -0.01,0.51638 -0.0167,6.17697 -0.0137,12.58008 0.004,6.40311 -0.0187,26.09176 -0.0508,43.75195 -0.0478,26.32511 -0.0128,32.37783 0.19535,33.61133 0.4946,2.9254 0.63426,8.49307 0.71889,28.63477 0.0471,11.2055 0.17291,21.55615 0.27934,23.00195 0.10646,1.4459 0.27279,4.36327 0.36921,6.48047 0.0964,2.1171 0.26364,4.18651 0.37116,4.59961 0.10752,0.4131 0.19816,1.55405 0.20316,2.53515 0.005,0.9811 0.17761,2.92416 0.38484,4.31836 0.20725,1.3942 0.5431,3.84452 0.74623,5.44532 0.20311,1.6007 0.45273,3.1207 0.55283,3.3789 0.10011,0.2582 0.3098,1.14646 0.46688,1.97266 0.35541,1.8693 1.20437,4.92147 1.97692,7.10937 0.64813,1.8357 3.04542,6.67201 3.7038,7.47071 0.1155,0.1401 0.46181,0.73958 0.76967,1.33398 1.47843,2.8546 4.04204,5.3877 6.03429,5.95898 0.69662,0.19971 1.50204,0.77358 1.51004,1.07618 0.008,0.2908 0.6668,0.64617 1.30102,0.70117 0.26977,0.0235 0.92895,0.1774 1.46511,0.3418 0.64427,0.1978 0.99565,0.2304 1.03925,0.0996 0.08,-0.2398 1.27171,-0.0147 1.27171,0.24023 0,0.0945 -0.10529,0.18041 -0.23441,0.19141 -0.12912,0.0106 0.0271,0.0812 0.34771,0.1582 0.3206,0.08 1.54795,0.078 2.72511,0 1.17715,-0.0784 3.66123,-0.23938 5.52053,-0.35938 1.8593,-0.12 3.6342,-0.29086 3.94407,-0.38086 0.30989,-0.0894 1.40696,-0.29407 2.4399,-0.45507 3.15525,-0.4917 4.99983,-0.85434 5.37793,-1.05664 0.19828,-0.1061 1.43604,-0.43698 2.7505,-0.73438 2.78337,-0.6298 4.56556,-1.10968 4.83095,-1.30078 0.17635,-0.1271 0.83419,-0.32677 4.78798,-1.45899 0.878,-0.25139 2.01913,-0.6318 2.53561,-0.8457 0.51647,-0.2138 1.48914,-0.54352 2.16055,-0.73242 0.67141,-0.1889 2.06722,-0.63489 3.10017,-0.99219 1.03295,-0.3573 2.25637,-0.77583 2.72119,-0.92773 2.28607,-0.7468 7.50534,-2.62434 8.16945,-2.93946 0.41318,-0.19599 1.21736,-0.49651 1.78549,-0.66601 1.29389,-0.3861 3.4239,-1.16665 4.42658,-1.62305 0.41996,-0.1911 0.8659,-0.3457 0.99237,-0.3457 0.12642,0 0.57926,-0.17878 1.00603,-0.39648 0.42675,-0.21772 1.20425,-0.54933 1.72883,-0.73633 3.60751,-1.2857 4.67857,-1.6981 6.64184,-2.5625 0.54534,-0.2401 1.03251,-0.4375 1.08222,-0.4375 0.0497,0 0.44704,-0.16158 0.88492,-0.35938 0.43788,-0.1977 1.55712,-0.63241 2.48678,-0.96679 2.16694,-0.77932 9.78667,-4.67611 11.55288,-5.90821 0.4661,-0.3252 2.03038,-1.20804 3.47523,-1.96094 1.44485,-0.753 3.09074,-1.66258 3.65887,-2.02148 0.56811,-0.3589 2.55556,-1.51085 4.41487,-2.56055 1.8593,-1.0497 3.76055,-2.16833 4.22537,-2.48632 0.46483,-0.31791 1.70697,-1.09471 2.76026,-1.72461 1.0533,-0.6299 2.06614,-1.28198 2.25236,-1.45118 0.18625,-0.1691 1.18425,-0.84761 2.2172,-1.50781 1.03295,-0.6603 1.96153,-1.27047 2.06483,-1.35547 0.54969,-0.4528 5.31981,-3.60937 5.45411,-3.60937 0.0869,0 0.33178,-0.15801 0.54502,-0.34961 0.21326,-0.1916 1.10477,-0.84201 1.98278,-1.44531 0.878,-0.6033 1.69547,-1.18427 1.81479,-1.29297 0.11929,-0.1087 0.87196,-0.66247 1.67217,-1.23047 0.80021,-0.568 1.84187,-1.35154 2.31683,-1.74024 1.45952,-1.1943 2.9357,-2.26717 4.06519,-2.95507 0.59351,-0.3614 1.17377,-0.74055 1.28929,-0.84375 0.11552,-0.1033 0.6316,-0.47798 1.1467,-0.83008 1.15275,-0.7878 2.96919,-2.13247 3.09626,-2.29297 0.17105,-0.2159 1.76659,-1.38817 2.91069,-2.13867 0.61976,-0.4065 1.97149,-1.42046 3.00444,-2.25196 1.03295,-0.8316 3.02039,-2.36796 4.41487,-3.41406 1.39447,-1.0461 3.29571,-2.63465 4.22538,-3.53125 0.92964,-0.8966 2.04973,-1.89098 2.48873,-2.20898 0.439,-0.318 0.79701,-0.63408 0.79701,-0.70508 0,-0.0707 0.82524,-0.84023 1.83236,-1.70703 1.00713,-0.8669 2.45994,-2.16743 3.22911,-2.89063 2.96544,-2.7883 7.44477,-7.14019 7.77485,-7.55469 0.19018,-0.23878 1.16089,-1.14035 2.15859,-2.00195 1.95537,-1.6888 11.36291,-10.98771 15.33872,-15.16211 4.04538,-4.2474 4.76116,-5.05663 8.44879,-9.54883 0.51646,-0.6291 1.66302,-1.96419 2.54538,-2.96679 0.88235,-1.0026 2.31832,-2.70235 3.19198,-3.77735 0.87365,-1.0749 2.05345,-2.52577 2.62157,-3.22461 0.56811,-0.69886 1.66714,-2.00661 2.44185,-2.90625 0.77471,-0.89964 1.65274,-1.98336 1.95153,-2.4082 0.29878,-0.42486 0.99598,-1.36496 1.54911,-2.08789 0.55313,-0.72293 1.44999,-1.89856 1.99255,-2.61328 0.54255,-0.71473 1.42876,-1.82855 1.97105,-2.47461 0.5423,-0.64606 0.98651,-1.25376 0.98651,-1.35156 0,-0.0978 0.57143,-0.92896 1.27171,-1.84571 0.7003,-0.91674 1.52554,-2.05997 1.83236,-2.54296 0.30685,-0.48298 1.09279,-1.61384 1.74642,-2.51172 0.65362,-0.89788 1.23891,-1.76922 1.30102,-1.9375 0.13231,-0.35813 1.68469,-2.74118 2.60203,-3.99414 0.35037,-0.47857 0.63683,-0.92384 0.63683,-0.99024 0,-0.0664 0.59163,-1.02058 1.31469,-2.12109 0.72306,-1.10052 1.3147,-2.07361 1.3147,-2.16211 0,-0.0885 0.16117,-0.39008 0.35748,-0.66992 0.82287,-1.17284 3.31093,-5.04146 3.43813,-5.34571 0.0758,-0.18143 0.68903,-1.20892 1.36352,-2.2832 0.67449,-1.07429 1.22679,-2.00762 1.22679,-2.07422 0,-0.0666 0.36515,-0.68728 0.81069,-1.3789 0.95926,-1.48905 1.81061,-2.89094 2.17423,-3.57813 0.14419,-0.27252 0.64348,-1.08761 1.10957,-1.81055 0.86881,-1.34766 3.12736,-5.18777 3.64324,-6.19531 0.46929,-0.91653 1.34703,-2.49041 2.6665,-4.7793 0.68159,-1.18239 1.2385,-2.29664 1.2385,-2.47656 0,-0.17992 0.0873,-0.38176 0.1934,-0.44726 0.10606,-0.0656 0.53979,-0.80814 0.96306,-1.65235 0.42329,-0.84422 0.91574,-1.74767 1.0959,-2.00586 0.18018,-0.25819 0.39403,-0.67931 0.47275,-0.9375 0.0787,-0.25819 0.28945,-0.68321 0.47078,-0.9414 0.46504,-0.66215 5.25682,-9.99784 5.25682,-10.24219 0,-0.15462 0.90748,-2.16203 1.22678,-2.71289 0.55278,-0.95368 1.59004,-3.17478 1.59404,-3.41406 0.002,-0.13586 0.16917,-0.45861 0.37116,-0.7168 0.202,-0.25819 0.36916,-0.58562 0.37116,-0.72656 0.002,-0.14093 0.20884,-0.64627 0.45711,-1.125 0.24826,-0.47871 0.62233,-1.25206 0.83218,-1.7168 0.20985,-0.46475 0.79615,-1.7365 1.30298,-2.82617 0.50682,-1.08968 0.98442,-2.22924 1.06073,-2.5332 0.0763,-0.30399 0.23195,-0.66561 0.34577,-0.80274 0.11384,-0.13712 0.39177,-0.68596 0.6173,-1.2207 1.09973,-2.60756 1.64513,-3.84799 1.97301,-4.47852 0.1973,-0.37939 0.49626,-1.0992 0.66418,-1.59765 0.30525,-0.90609 0.47124,-1.27313 2.37543,-5.31836 0.55929,-1.18814 1.07308,-2.44447 1.14279,-2.79297 0.0697,-0.34849 0.3736,-1.15105 0.6759,-1.78321 0.79943,-1.6717 2.45553,-5.49972 2.45553,-5.67578 0,-0.24124 1.28912,-3.64747 1.76985,-4.67578 0.39199,-0.83849 0.98049,-2.29227 1.71125,-4.22461 0.8792,-2.32484 1.3054,-3.36374 2.05701,-5.02539 0.46579,-1.02972 0.84784,-2.03219 0.84782,-2.22656 -2e-5,-0.19436 0.1627,-0.86081 0.36334,-1.48047 0.48108,-1.4858 1.10369,-3.94169 1.23656,-4.88086 0.10464,-0.73978 0.30908,-1.62049 0.67785,-2.91211 0.18112,-0.6344 0.98897,-2.67171 1.67413,-4.22461 0.83661,-1.89615 1.08971,-2.53515 1.00799,-2.53515 -0.0485,0 0.0291,-0.23162 0.1719,-0.51563 0.14286,-0.28401 0.31282,-0.79324 0.37703,-1.13086 0.11292,-0.59371 0.88921,-2.41317 1.63506,-3.83203 0.19945,-0.3794 0.49613,-1.0953 0.65833,-1.59375 0.1622,-0.49843 0.40915,-1.16087 0.55088,-1.4707 0.72057,-1.57537 1.0373,-2.36764 1.0373,-2.60352 0,-0.14338 0.12635,-0.36557 0.2813,-0.49414 0.15494,-0.12857 0.28261,-0.37293 0.28325,-0.54101 5.6e-4,-0.16809 0.12699,-0.54598 0.2813,-0.8418 0.1543,-0.29582 0.2813,-0.62613 0.2813,-0.73438 0,-0.10824 0.25719,-0.59875 0.57237,-1.08984 0.31517,-0.49106 0.61463,-1.126 0.66613,-1.41016 0.16984,-0.93637 1.8849,-4.8002 2.45162,-5.52343 0.12139,-0.15491 0.40155,-0.81797 0.62121,-1.47266 0.21967,-0.6547 0.61079,-1.62522 0.87125,-2.1582 0.26045,-0.53298 0.60298,-1.30761 0.76186,-1.72071 0.78787,-2.04849 1.60135,-4.38855 1.73273,-4.98828 0.16957,-0.7741 0.95571,-3.06235 1.70539,-4.96289 0.61169,-1.55073 0.93858,-2.53836 1.06269,-3.22265 0.0496,-0.27337 0.3075,-1.09739 0.57433,-1.83008 0.26682,-0.7327 0.69227,-1.96567 0.94548,-2.74024 0.25321,-0.77457 0.58024,-1.68625 0.72669,-2.02539 0.14644,-0.33915 0.26568,-0.73899 0.26568,-0.88867 0,-0.14969 0.30096,-1.13891 0.66809,-2.19922 0.75979,-2.19434 1.83095,-5.71956 2.5278,-8.3125 0.0833,-0.30983 0.331,-1.02963 0.54893,-1.59765 0.41977,-1.09408 0.99631,-3.1096 1.42212,-4.97461 0.14149,-0.61966 0.38588,-1.43238 0.54307,-1.80664 0.34502,-0.82151 0.91234,-2.79259 1.53349,-5.32813 0.253,-1.03276 0.70131,-2.68099 0.99822,-3.66211 1.00803,-3.331 1.2028,-4.03552 1.26781,-4.59961 0.0357,-0.30983 0.22657,-1.02963 0.42196,-1.59765 0.46667,-1.35673 1.44556,-4.56567 1.71906,-5.63282 0.1191,-0.46474 0.28855,-0.98233 0.37506,-1.15039 0.0866,-0.168 0.21018,-0.63318 0.2774,-1.0332 0.0672,-0.39996 0.27761,-1.23387 0.46688,-1.85352 0.65859,-2.15612 1.31664,-4.61877 1.31664,-4.93359 0,-0.17427 0.20351,-0.95207 0.45321,-1.72852 0.79765,-2.48026 1.20667,-3.99269 1.62333,-6.01367 0.38093,-1.84747 0.56593,-2.54726 1.49638,-5.63281 0.20243,-0.67129 0.40534,-1.54516 0.45125,-1.94336 0.0459,-0.39832 0.21016,-1.11813 0.36529,-1.59766 0.24649,-0.7619 0.98954,-3.88335 1.94763,-8.19335 0.16071,-0.72293 0.54331,-2.20271 0.84976,-3.28711 0.30645,-1.08439 0.62489,-2.56417 0.70911,-3.28711 0.0842,-0.72293 0.48681,-2.49554 0.8947,-3.94141 0.77551,-2.7489 0.91616,-3.3303 1.07245,-4.41406 0.0521,-0.36146 0.17111,-0.86877 0.26372,-1.12696 0.0926,-0.25819 0.30938,-1.10238 0.48252,-1.87695 0.17312,-0.77457 0.47003,-2.08395 0.65832,-2.91016 0.18828,-0.82621 0.47705,-2.17769 0.6427,-3.0039 0.16564,-0.8262 0.5695,-2.64288 0.89664,-4.03711 0.32713,-1.39422 0.62367,-2.81604 0.66028,-3.1582 0.0366,-0.34204 0.40288,-1.94621 0.81459,-3.56641 0.41173,-1.62008 0.79531,-3.32519 0.85172,-3.78906 0.0563,-0.46392 0.22922,-1.39429 0.38288,-2.06641 0.15367,-0.67217 0.35332,-1.55955 0.44344,-1.97265 0.0901,-0.41311 0.26087,-1.00463 0.38093,-1.31446 0.12008,-0.30983 0.28409,-1.15597 0.3653,-1.8789 0.13621,-1.21203 1.06625,-5.69083 1.50028,-7.22852 0.10202,-0.36147 0.22121,-1.03721 0.26371,-1.50195 0.089,-0.97326 0.94754,-5.04959 1.38502,-6.57227 0.1632,-0.56801 0.32864,-1.37205 0.36725,-1.78516 0.0386,-0.41309 0.31606,-1.8067 0.61535,-3.09765 0.53468,-2.30622 0.74381,-3.47047 0.84977,-4.7207 0.0598,-0.70626 0.50102,-2.86031 1.06073,-5.17774 0.20492,-0.84839 0.40398,-1.95522 0.44149,-2.45898 0.0375,-0.50377 0.16759,-1.28702 0.29107,-1.74219 0.39969,-1.47333 1.15048,-5.11391 1.31274,-6.36719 0.0869,-0.67129 0.32753,-1.93855 0.5333,-2.8164 0.4775,-2.037 0.97993,-4.60188 1.06855,-5.44727 0.0871,-0.83143 0.69769,-3.90984 1.20334,-6.07031 0.21339,-0.91193 0.3512,-1.71696 0.30669,-1.78907 -0.0445,-0.072 0.0861,-0.92989 0.28912,-1.9082 0.58418,-2.81521 1.05142,-5.40298 1.28735,-7.13086 0.11987,-0.87784 0.41947,-2.62818 0.66808,-3.88867 0.2486,-1.26055 0.49688,-2.82261 0.55089,-3.47266 0.10332,-1.24383 0.45166,-3.30116 0.93181,-5.5 0.15787,-0.72293 0.29292,-1.65329 0.29692,-2.0664 0.004,-0.4131 0.0833,-1.08887 0.17777,-1.50195 0.23951,-1.04673 1.09699,-6.13566 1.09199,-6.47852 -0.002,-0.15492 0.25893,-1.82176 0.58019,-3.70508 0.32125,-1.88338 0.63056,-3.91256 0.68957,-4.50781 0.11277,-1.13715 0.73031,-4.56328 1.02363,-5.68359 0.0946,-0.36146 0.2131,-1.12144 0.26371,-1.68946 0.0506,-0.56801 0.22543,-1.75105 0.3907,-2.6289 0.5894,-3.13067 0.88102,-4.80344 1.02558,-5.91407 0.0807,-0.61965 0.4077,-2.39422 0.72864,-3.94336 0.32094,-1.54914 0.6244,-3.23948 0.672,-3.75586 0.10608,-1.15012 0.40087,-2.65043 0.64856,-3.30078 0.10154,-0.26658 0.41037,-1.70229 0.68567,-3.1914 0.27529,-1.48911 0.70282,-3.55318 0.9533,-4.58594 0.88887,-3.66506 1.03564,-4.32686 1.09395,-4.97656 0.0858,-0.9563 0.48337,-2.96329 0.69934,-3.53125 0.31279,-0.82257 1.09335,-3.87945 1.18967,-4.65625 0.21392,-1.72541 0.70692,-4.43351 1.23655,-6.79102 0.0989,-0.44039 0.18359,-1.15825 0.18559,-1.5957 0.002,-0.43746 0.0857,-1.13378 0.18557,-1.54688 0.75227,-3.11431 1.29923,-5.78251 1.21311,-5.92187 -0.0565,-0.0914 0.0614,-0.90917 0.26177,-1.81641 0.47085,-2.13177 1.01681,-5.06284 1.07832,-5.78125 0.0265,-0.30983 0.18401,-1.32247 0.34772,-2.25195 0.1637,-0.92948 0.46715,-2.70404 0.67395,-3.94336 0.20678,-1.23931 0.68929,-3.90214 1.07441,-5.91602 0.38511,-2.01388 0.70697,-3.78649 0.71497,-3.9414 0.0284,-0.55317 0.49957,-3.12629 0.85954,-4.69531 0.2014,-0.87784 0.43612,-2.23126 0.52353,-3.00586 0.13854,-1.2272 0.74803,-4.79199 1.2893,-7.55079 0.0952,-0.4873 0.14233,-0.91803 0.10352,-0.95703 -0.0388,-0.0388 0.14216,-1.07578 0.40243,-2.30468 0.46006,-2.1721 0.96928,-4.86437 1.13106,-5.97657 0.0438,-0.3014 0.38184,-2.24436 0.75209,-4.31836 0.37024,-2.0739 0.84745,-4.74404 1.05878,-5.93164 0.21133,-1.1877 0.50678,-2.66018 0.65833,-3.27148 0.15155,-0.6113 0.30534,-1.4976 0.34185,-1.9707 0.0364,-0.4732 0.28221,-2.04239 0.54503,-3.48829 0.26282,-1.4459 0.56443,-3.85406 0.67004,-5.35156 0.10561,-1.4975 0.27767,-3.06151 0.38288,-3.47461 0.1052,-0.4131 0.23254,-1.72245 0.28325,-2.91015 0.0506,-1.1877 0.13563,-2.49706 0.18754,-2.91016 0.2736,-2.177 0.4862,-4.76877 0.57042,-6.94727 0.0519,-1.3426 0.21513,-3.32966 0.36334,-4.41406 0.14822,-1.0844 0.22221,-2.4359 0.16409,-3.0039 -0.0598,-0.5852 0.032,-1.95652 0.21098,-3.16602 0.24014,-1.6226 0.36416,-5.55453 0.37116,-9.39453 v -0.004 c 0.007,-3.84 -0.10469,-7.58849 -0.3399,-8.84179 -0.18381,-0.9795 -0.40189,-1.86766 -0.48251,-1.97266 -0.0806,-0.1049 -0.24398,-0.92306 -0.3653,-1.81836 -0.30857,-2.2771 -1.6445,-6.86482 -2.6411,-9.07422 -0.18635,-0.4131 -0.52698,-1.16728 -0.756,-1.67578 -0.57277,-1.2718 -2.07393,-3.44201 -2.94585,-4.25781 -0.39779,-0.3721 -1.14593,-0.88708 -1.6624,-1.14258 -1.09107,-0.5395 -3.74709,-1.94748 -6.28435,-3.33008 -0.97756,-0.5327 -1.99233,-1.01708 -2.25431,-1.08008 -0.26199,-0.0628 -1.40719,-0.55936 -2.54343,-1.10156 -2.6684,-1.2733 -4.35381,-1.9279 -5.54789,-2.1543 -0.52735,-0.1 -1.01963,-0.21962 -1.09394,-0.26562 -0.32731,-0.2023 -6.2188,-1.64066 -7.05792,-1.72266 -0.51149,-0.0504 -1.31566,-0.17905 -1.78548,-0.28515 -4.02456,-0.909 -5.45343,-1.04825 -12.49641,-1.21485 -14.95852,-0.35362 -34.29488,-0.53068 -51.08346,-0.49219 z"
     id="path4537"
     inkscape:connector-curvature="0" />
</svg>
