<?xml version="1.0" encoding="UTF-8" standalone="no"?>
<!-- Created with Inkscape (http://www.inkscape.org/) -->

<svg
   width="210mm"
   height="297mm"
   viewBox="0 0 210 297"
   version="1.1"
   id="svg1"
   inkscape:version="1.4.2 (f4327f4, 2025-05-13)"
   sodipodi:docname="CoffeeWasteTrayBack.svg"
   xmlns:inkscape="http://www.inkscape.org/namespaces/inkscape"
   xmlns:sodipodi="http://sodipodi.sourceforge.net/DTD/sodipodi-0.dtd"
   xmlns="http://www.w3.org/2000/svg"
   xmlns:svg="http://www.w3.org/2000/svg">
  <sodipodi:namedview
     id="namedview1"
     pagecolor="#ffffff"
     bordercolor="#000000"
     borderopacity="0.25"
     inkscape:showpageshadow="2"
     inkscape:pageopacity="0.0"
     inkscape:pagecheckerboard="0"
     inkscape:deskcolor="#d1d1d1"
     inkscape:document-units="mm"
     inkscape:zoom="22.627417"
     inkscape:cx="250.38209"
     inkscape:cy="500.96306"
     inkscape:window-width="1920"
     inkscape:window-height="1111"
     inkscape:window-x="-9"
     inkscape:window-y="941"
     inkscape:window-maximized="1"
     inkscape:current-layer="layer1" />
  <defs
     id="defs1" />
  <g
     inkscape:label="Layer 1"
     inkscape:groupmode="layer"
     id="layer1">
    <path
       id="path1"
       style="fill:#00ffff;fill-opacity:0.575621;stroke-width:0.5"
       d="M 63.323783 128.88051 A 3.0343444 3.1161954 0 0 0 60.992143 130.01119 A 2 2 0 0 1 61.210217 129.99672 A 2 2 0 0 1 61.739384 130.06803 A 2 2 0 0 1 62.268551 129.99672 A 2 2 0 0 1 62.797717 130.06803 A 2 2 0 0 1 63.326884 129.99672 A 2 2 0 0 1 65.326762 131.99711 A 2 2 0 0 1 63.326884 133.99699 A 2 2 0 0 1 62.797717 133.92568 A 2 2 0 0 1 62.268551 133.99699 A 2 2 0 0 1 61.739384 133.92568 A 2 2 0 0 1 61.210217 133.99699 A 2 2 0 0 1 60.992143 133.98252 A 3.0343444 3.1161954 0 0 0 63.323783 135.1132 A 3.0343444 3.1161954 0 0 0 66.081755 133.29574 L 66.604203 133.29574 L 66.60472 133.29574 L 132.00021 133.29574 L 132.00021 133.25543 L 132.00021 130.79563 L 132.00021 130.75533 L 66.60472 130.75533 L 66.604203 130.75533 L 66.106559 130.75533 A 3.0343444 3.1161954 0 0 0 63.323783 128.88051 z " />
  </g>
</svg>
