<?xml version="1.0" encoding="UTF-8" standalone="no"?>
<!-- Created with Inkscape (http://www.inkscape.org/) -->

<svg
   width="210mm"
   height="297mm"
   viewBox="0 0 210 297"
   version="1.1"
   id="svg1"
   xml:space="preserve"
   inkscape:version="1.3 (0e150ed6c4, 2023-07-21)"
   sodipodi:docname="Aero Valve Stem.svg"
   xmlns:inkscape="http://www.inkscape.org/namespaces/inkscape"
   xmlns:sodipodi="http://sodipodi.sourceforge.net/DTD/sodipodi-0.dtd"
   xmlns="http://www.w3.org/2000/svg"
   xmlns:svg="http://www.w3.org/2000/svg"><sodipodi:namedview
     id="namedview1"
     pagecolor="#ffffff"
     bordercolor="#666666"
     borderopacity="1.0"
     inkscape:showpageshadow="2"
     inkscape:pageopacity="0.0"
     inkscape:pagecheckerboard="0"
     inkscape:deskcolor="#d1d1d1"
     inkscape:document-units="mm"
     showguides="false"
     inkscape:zoom="2.8284271"
     inkscape:cx="55.331105"
     inkscape:cy="1166.1959"
     inkscape:window-width="1920"
     inkscape:window-height="1001"
     inkscape:window-x="-9"
     inkscape:window-y="-9"
     inkscape:window-maximized="1"
     inkscape:current-layer="layer1" /><defs
     id="defs1" /><g
     inkscape:label="Layer 1"
     inkscape:groupmode="layer"
     id="layer1"><path
       style="fill:#000000;stroke-width:0.769754"
       d="m 13.12044,301.9748 c -4.8589988,-0.15515 -8.5637346,-0.87598 -10.8777548,-2.11651 -1.5715538,-0.8425 -2.4267125,-2.07474 -2.2092337,-3.18341 0.2081493,-1.06114 1.0134972,-1.93472 2.4175754,-2.62242 2.6428824,-1.29443 5.7980983,-1.86941 11.1907901,-2.03927 2.239177,-0.0705 6.786019,0.14876 10.069168,0.48562 7.31373,0.75043 15.719625,2.14568 23.592458,3.91597 1.519727,0.34172 1.777448,0.44403 1.690327,0.67107 -0.04873,0.12703 -0.09454,0.14029 -1.853261,0.5366 -8.403986,1.89379 -19.28505,3.62798 -25.547634,4.07168 -3.875208,0.27456 -6.225545,0.35242 -8.472435,0.28067 z"
       id="path84" /><circle
       style="fill:#00ffff;stroke-width:7.46877"
       id="path85"
       cx="14.371529"
       cy="297"
       r="3.0999999" /></g></svg>
