<?xml version="1.0" encoding="UTF-8" standalone="no"?>
<!-- Created with Inkscape (http://www.inkscape.org/) -->

<svg
   width="210mm"
   height="297mm"
   viewBox="0 0 210 297"
   version="1.1"
   id="svg5"
   inkscape:version="1.1.2 (b8e25be833, 2022-02-05)"
   sodipodi:docname="Venge Rim Profile.svg"
   xmlns:inkscape="http://www.inkscape.org/namespaces/inkscape"
   xmlns:sodipodi="http://sodipodi.sourceforge.net/DTD/sodipodi-0.dtd"
   xmlns="http://www.w3.org/2000/svg"
   xmlns:svg="http://www.w3.org/2000/svg">
  <sodipodi:namedview
     id="namedview7"
     pagecolor="#ffffff"
     bordercolor="#666666"
     borderopacity="1.0"
     inkscape:pageshadow="2"
     inkscape:pageopacity="0.0"
     inkscape:pagecheckerboard="0"
     inkscape:document-units="mm"
     showgrid="false"
     inkscape:zoom="118.43155"
     inkscape:cx="-1.0976804"
     inkscape:cy="1122.5218"
     inkscape:window-width="1920"
     inkscape:window-height="1017"
     inkscape:window-x="-8"
     inkscape:window-y="-8"
     inkscape:window-maximized="1"
     inkscape:current-layer="layer1" />
  <defs
     id="defs2" />
  <g
     inkscape:label="Layer 1"
     inkscape:groupmode="layer"
     id="layer1">
    <path
       id="rect858"
       style="fill:#00ffff;fill-opacity:0.793478;stroke-width:0.114182"
       d="M 2.2823928e-4,297.21114 C 0.03110803,299.48425 1.1688793,301.856 2.8161861,303.42262 c 1.923705,1.82949 8.5558559,6.70234 11.2912619,6.70234 h 22.239974 c 2.307981,0.009 4.236298,-1.56487 4.782568,-3.7001 5.2e-5,-1.9e-4 -5e-5,-4.3e-4 0,-6.3e-4 0.02017,-0.0789 0.03883,-0.15853 0.05518,-0.23889 2.1e-5,-1.1e-4 -2e-5,-2.2e-4 0,-3.2e-4 0.01636,-0.0805 0.03063,-0.16151 0.04306,-0.24336 0.03736,-0.24579 0.05677,-0.49775 0.05677,-0.75431 v -16.3747 c 0,-0.42763 -0.05375,-0.84233 -0.155007,-1.23751 -0.54627,-2.13523 -2.474587,-3.70929 -4.782568,-3.7001 H 14.107448 c -2.735406,0 -9.3675569,4.87285 -11.2912619,6.70234 -1.6473068,1.56662 -2.78507507,3.93837 -2.81595786072,6.21148 -9.5199354e-4,0.0701 0.001299991,0.14073 0.002599981,0.21114 -0.00129999,0.0704 -0.003499975,0.14107 -0.002599981,0.21114 z" />
  </g>
</svg>
