<?xml version="1.0" encoding="UTF-8" standalone="no"?>
<!-- Created with Inkscape (http://www.inkscape.org/) -->

<svg
   width="210mm"
   height="297mm"
   viewBox="0 0 210 297"
   version="1.1"
   id="svg1"
   inkscape:version="1.3.2 (091e20e, 2023-11-25, custom)"
   sodipodi:docname="UnderSaddleHolderProfileWithPlug.svg"
   xmlns:inkscape="http://www.inkscape.org/namespaces/inkscape"
   xmlns:sodipodi="http://sodipodi.sourceforge.net/DTD/sodipodi-0.dtd"
   xmlns="http://www.w3.org/2000/svg"
   xmlns:svg="http://www.w3.org/2000/svg">
  <sodipodi:namedview
     id="namedview1"
     pagecolor="#ffffff"
     bordercolor="#000000"
     borderopacity="0.25"
     inkscape:showpageshadow="2"
     inkscape:pageopacity="0.0"
     inkscape:pagecheckerboard="0"
     inkscape:deskcolor="#d1d1d1"
     inkscape:document-units="mm"
     inkscape:zoom="4"
     inkscape:cx="-5.625"
     inkscape:cy="1100.875"
     inkscape:window-width="1920"
     inkscape:window-height="991"
     inkscape:window-x="-9"
     inkscape:window-y="-9"
     inkscape:window-maximized="1"
     inkscape:current-layer="layer1" />
  <defs
     id="defs1" />
  <g
     inkscape:label="Layer 1"
     inkscape:groupmode="layer"
     id="layer1">
    <path
       id="path1"
       style="fill:#ff00ff;fill-opacity:0.892256;stroke-width:0.999997"
       d="M 0.0098185221 273.44687 C -5.2370267 273.44674 -9.4904873 277.7002 -9.4903768 282.94707 C -9.4819768 285.53898 -8.4149077 288.01492 -6.5365519 289.80092 C -9.0226086 289.46162 -11.506612 289.10122 -14.019816 289.09243 C -16.189096 289.04143 -18.121739 290.68819 -18.653125 291.65765 L -20.174479 294.43319 C -19.704133 294.69852 -19.253218 295.02385 -19.137333 295.59333 C -17.458582 298.48213 -21.268331 301.18282 -23.293669 300.5925 C -24.07527 304.88303 -16.777394 305.62484 -13.175423 305.53329 C -12.719493 305.54828 -12.308783 305.7214 -11.980147 305.99062 L -7.3788778 305.99062 C -6.0162006 304.73531 -4.3263713 303.81345 -2.4205241 303.37941 C -2.4115741 303.37741 -2.4026123 303.37521 -2.3936523 303.37321 C -1.6091212 303.1871 -0.80632268 303.08851 0 303.07917 C 2.8595698 303.07915 5.4536957 304.18923 7.397998 305.99062 L 12.026656 305.99062 C 12.277885 305.79287 12.57643 305.65001 12.908773 305.59065 C 14.177463 305.67835 15.44886 305.69767 16.725077 305.57411 C 20.609385 305.60741 26.071092 298.87107 21.788851 300.58579 C 18.187941 300.7068 17.386597 295.6505 19.971908 294.07404 L 19.045866 292.1186 C 18.369195 290.68974 17.499876 289.45569 15.902389 289.27537 C 12.795544 288.87127 9.7142027 289.29208 6.6316366 289.72598 C 8.4635586 287.94531 9.5010804 285.50182 9.5100138 282.94707 C 9.5101243 277.7002 5.2566637 273.44674 0.0098185221 273.44687 z M 0.0098185221 274.94756 C 0.02153527 274.94956 0.033248648 274.95073 0.044958496 274.95273 C 0.68504434 274.95973 1.3219991 275.04312 1.9420003 275.20232 C 2.0307862 275.22542 2.1191662 275.25002 2.2071004 275.27622 C 2.7482056 275.43548 3.2708387 275.65185 3.7661784 275.92166 C 3.9187299 276.00526 4.0685 276.09386 4.2152466 276.18728 C 4.621435 276.44417 5.003509 276.73734 5.356779 277.06319 C 5.5369845 277.22929 5.7094234 277.40363 5.8735433 277.58564 C 6.147145 277.89046 6.3967961 278.21595 6.6202677 278.55922 C 6.7979532 278.83144 6.9587961 279.11431 7.1018921 279.4062 C 7.2492392 279.70667 7.3774796 280.01614 7.485848 280.33276 C 7.6081657 280.69027 7.7048731 281.05603 7.775236 281.42727 C 7.8288539 281.71265 7.866807 282.00073 7.8889242 282.29026 C 7.9240141 282.49497 7.9510792 282.70098 7.9700562 282.9078 C 7.9701888 287.30418 4.4061796 290.86819 0.0098185221 290.86803 C -0.013449435 290.86503 -0.036704115 290.86173 -0.059944661 290.85873 C -0.69916505 290.85173 -1.3352399 290.76813 -1.9544027 290.60913 C -2.0004826 290.59913 -2.0464758 290.58956 -2.0923787 290.57916 C -2.7450678 290.40188 -3.3724865 290.14209 -3.9594482 289.80608 C -3.9653082 289.80308 -3.9711652 289.79926 -3.9770182 289.79626 C -6.454241 288.3853 -7.9870325 285.75659 -7.9948608 282.90573 C -7.9889608 279.29749 -5.5552604 276.14512 -2.0660238 275.22609 C -2.0489828 275.22209 -2.0319301 275.21813 -2.0148641 275.21473 C -1.3701773 275.04427 -0.70661375 274.95555 -0.039790853 274.95066 C -0.031350061 274.95082 -0.022909593 274.95099 -0.014469401 274.95118 L 0.0098185221 274.94808 L 0.0098185221 274.94756 z " />
  </g>
</svg>
