<?xml version="1.0" encoding="UTF-8" standalone="no"?>
<!-- Created with Inkscape (http://www.inkscape.org/) -->

<svg
   width="210mm"
   height="297mm"
   viewBox="0 0 210 297"
   version="1.1"
   id="svg1"
   inkscape:version="1.3.2 (091e20e, 2023-11-25, custom)"
   sodipodi:docname="UnderSaddleHolderProfileWithCo2.svg"
   xmlns:inkscape="http://www.inkscape.org/namespaces/inkscape"
   xmlns:sodipodi="http://sodipodi.sourceforge.net/DTD/sodipodi-0.dtd"
   xmlns="http://www.w3.org/2000/svg"
   xmlns:svg="http://www.w3.org/2000/svg">
  <sodipodi:namedview
     id="namedview1"
     pagecolor="#ffffff"
     bordercolor="#000000"
     borderopacity="0.25"
     inkscape:showpageshadow="2"
     inkscape:pageopacity="0.0"
     inkscape:pagecheckerboard="0"
     inkscape:deskcolor="#d1d1d1"
     inkscape:document-units="mm"
     inkscape:zoom="2.768771"
     inkscape:cx="-5.2369805"
     inkscape:cy="1184.8217"
     inkscape:window-width="1920"
     inkscape:window-height="991"
     inkscape:window-x="-9"
     inkscape:window-y="-9"
     inkscape:window-maximized="1"
     inkscape:current-layer="layer1" />
  <defs
     id="defs1" />
  <g
     inkscape:label="Layer 1"
     inkscape:groupmode="layer"
     id="layer1">
    <path
       id="path2"
       style="fill:#ff00ff;fill-opacity:0.892256;stroke-width:1"
       d="M -14.029635 289.00355 C -16.688238 288.94105 -19.844655 289.72845 -21.020939 292.39042 C -22.556047 294.20546 -19.480596 293.86839 -19.147668 295.50444 C -17.468894 298.39329 -21.27864 301.09394 -23.304004 300.50362 C -24.085617 304.79416 -16.787258 305.53596 -13.185242 305.44441 A 2 2 0 0 1 -11.250993 307.43136 A 2 2 0 0 1 -11.41119 308.20031 L -11.410673 308.20083 A 12.7 12.7 0 0 0 -12.103654 309.9387 A 12.7 12.7 0 0 0 -12.119157 309.98056 A 12.7 12.7 0 0 0 -12.540837 311.78975 A 12.7 12.7 0 0 0 -12.551172 311.83781 A 12.7 12.7 0 0 0 -12.7 313.73589 A 12.7 12.7 0 0 0 -9.5978638 322.05269 A 12.7 12.7 0 0 0 -8.316805 323.33375 A 12.7 12.7 0 0 0 -6.8662476 324.41999 A 12.7 12.7 0 0 0 0 326.43589 A 12.7 12.7 0 0 0 1.8076416 326.3067 A 12.7 12.7 0 0 0 6.8662476 324.41999 A 12.7 12.7 0 0 0 8.316805 323.33375 A 12.7 12.7 0 0 0 9.5978638 322.05269 A 12.7 12.7 0 0 0 12.7 313.73589 A 12.7 12.7 0 0 0 11.379667 308.10057 A 2 2 0 0 1 11.250993 307.43136 A 2 2 0 0 1 12.898954 305.50177 C 14.167659 305.58946 15.439022 305.6089 16.715259 305.48523 C 20.599618 305.51853 26.061326 298.78217 21.779032 300.4969 C 17.750648 300.63228 17.212793 294.27456 21.016805 293.57485 C 20.471276 291.17535 18.292753 289.45741 15.89257 289.18648 C 9.77462 288.39073 3.7556845 290.79477 -2.3688477 290.19572 C -6.2646842 289.88997 -10.111246 289.01726 -14.029635 289.00355 z M 0.02273763 303.00011 A 10.87 10.87 0 0 1 10.892875 313.87025 A 10.87 10.87 0 0 1 0.02273763 324.73987 A 10.87 10.87 0 0 1 -10.846883 313.87025 A 10.87 10.87 0 0 1 0.02273763 303.00011 z " />
  </g>
</svg>
