<?xml version="1.0" encoding="UTF-8" standalone="no"?>
<!-- Created with Inkscape (http://www.inkscape.org/) -->

<svg
   width="210mm"
   height="297mm"
   viewBox="0 0 210 297"
   version="1.1"
   id="svg1"
   inkscape:version="1.3.2 (091e20e, 2023-11-25, custom)"
   sodipodi:docname="UnderSaddleHolderProfileWithPlugAndCo2.svg"
   xmlns:inkscape="http://www.inkscape.org/namespaces/inkscape"
   xmlns:sodipodi="http://sodipodi.sourceforge.net/DTD/sodipodi-0.dtd"
   xmlns="http://www.w3.org/2000/svg"
   xmlns:svg="http://www.w3.org/2000/svg">
  <sodipodi:namedview
     id="namedview1"
     pagecolor="#ffffff"
     bordercolor="#000000"
     borderopacity="0.25"
     inkscape:showpageshadow="2"
     inkscape:pageopacity="0.0"
     inkscape:pagecheckerboard="0"
     inkscape:deskcolor="#d1d1d1"
     inkscape:document-units="mm"
     inkscape:zoom="4"
     inkscape:cx="-6.625"
     inkscape:cy="1100.875"
     inkscape:window-width="1920"
     inkscape:window-height="991"
     inkscape:window-x="-9"
     inkscape:window-y="-9"
     inkscape:window-maximized="1"
     inkscape:current-layer="layer1" />
  <defs
     id="defs1" />
  <g
     inkscape:label="Layer 1"
     inkscape:groupmode="layer"
     id="layer1">
    <path
       id="path1"
       style="fill:#ff00ff;fill-opacity:0.892256;stroke-width:0.999997"
       d="m 0.00981852,273.44687 c -5.24685042,-1.4e-4 -9.50030582,4.25332 -9.50019532,9.5002 0.0084,2.59191 1.0754672,5.06785 2.9538249,6.85385 -2.4860592,-0.3393 -4.9700571,-0.6997 -7.4832641,-0.70849 -2.169282,-0.051 -4.101922,1.59576 -4.633309,2.56522 l -1.521354,2.77554 c 0.470347,0.26533 0.921261,0.59066 1.037146,1.16014 1.678753,2.88881 -2.130996,5.58949 -4.156336,4.99917 -0.781602,4.29053 6.516272,5.03234 10.118246,4.94079 1.073769,0.0353 1.927824,0.91262 1.934249,1.98696 -0.002,0.26438 -0.0565,0.52573 -0.160197,0.76894 l 5.17e-4,5.2e-4 c -0.273408,0.56147 -0.50503,1.14234 -0.692981,1.73788 -0.0052,0.0139 -0.01036,0.0279 -0.0155,0.0419 -0.184537,0.59196 -0.325474,1.19664 -0.42168,1.80919 -0.0035,0.016 -0.0069,0.032 -0.01034,0.0481 -0.09703,0.62808 -0.146779,1.26255 -0.148828,1.89807 2.9e-5,3.05516 1.101396,6.00792 3.1021358,8.31681 0.3959785,0.45697 0.8240871,0.88508 1.2810587,1.28106 0.4570367,0.39616 0.9417896,0.75916 1.4505575,1.08623 2.0482045,1.31623 4.4315832,2.01598 6.86624752,2.0159 0.60485482,4e-5 1.20893958,-0.0431 1.80764158,-0.12919 1.8019368,-0.25907 3.5271172,-0.90251 5.058606,-1.88671 0.5087678,-0.32707 0.9935207,-0.69007 1.4505574,-1.08623 0.4569717,-0.39598 0.8850803,-0.82409 1.2810588,-1.28106 2.0007407,-2.30889 3.1021067,-5.26165 3.1021367,-8.31681 -5e-4,-1.95502 -0.452344,-3.88354 -1.320333,-5.63531 -0.08086,-0.21407 -0.124383,-0.44042 -0.128675,-0.66921 0.01872,-0.95395 0.708693,-1.76184 1.647962,-1.9296 1.268691,0.0877 2.540085,0.10706 3.816304,-0.0165 3.884312,0.0333 9.346019,-6.70304 5.063774,-4.98832 -3.600914,0.12101 -4.402256,-4.93529 -1.816943,-6.51175 l -0.926042,-1.95544 c -0.676672,-1.42886 -1.545988,-2.66291 -3.143477,-2.84323 -3.106848,-0.4041 -6.1881832,0.0167 -9.2707524,0.45061 1.8319239,-1.78068 2.8694438,-4.22416 2.8783772,-6.77891 1.105e-4,-5.24688 -4.2533449,-9.50034 -9.50019528,-9.5002 z m 0,1.50069 c 0.01171676,0.002 0.02343012,0.003 0.03513998,0.005 0.64008648,0.007 1.27704,0.0904 1.8970418,0.2496 0.088786,0.0231 0.1771658,0.0477 0.2651001,0.0739 0.5411057,0.15926 1.0637378,0.37563 1.559078,0.64544 0.1525517,0.0836 0.3023215,0.1722 0.4490682,0.26562 0.4061888,0.25689 0.7882621,0.55006 1.1415324,0.87591 0.1802057,0.1661 0.3526442,0.34044 0.5167643,0.52245 0.273602,0.30482 0.5232525,0.63032 0.7467244,0.97359 0.1776856,0.27222 0.3385283,0.55508 0.4816244,0.84697 0.1473473,0.30047 0.2755874,0.60994 0.3839559,0.92656 0.1223178,0.35751 0.219025,0.72327 0.289388,1.09451 0.053618,0.28538 0.091571,0.57347 0.1136882,0.863 0.03509,0.20471 0.062155,0.41071 0.081132,0.61753 1.326e-4,4.39639 -3.5638722,7.9604 -7.96023768,7.96024 -0.02326798,-0.003 -0.04652261,-0.006 -0.06976318,-0.009 -0.63922103,-0.007 -1.27529464,-0.0906 -1.89445804,-0.2496 -0.04608,-0.01 -0.092073,-0.0196 -0.137976,-0.03 -0.6526897,-0.17728 -1.2801072,-0.43707 -1.8670695,-0.77308 -0.00586,-0.003 -0.011717,-0.007 -0.01757,-0.01 -2.4772252,-1.41097 -4.0100143,-4.03968 -4.0178426,-6.89054 0.0059,-3.60824 2.4395969,-6.7606 5.928837,-7.67963 0.017041,-0.004 0.034094,-0.008 0.05116,-0.0114 0.6446874,-0.17046 1.30824969,-0.25918 1.97507325,-0.26407 0.0084408,1.6e-4 0.01688125,3.3e-4 0.02532145,5.2e-4 l 0.02428792,-0.003 z M 0,303.07917 c 6.0199897,-6e-5 10.900171,4.88012 10.90011,10.90011 -0.0088,0.19966 -0.02312,0.39903 -0.04289,0.5979 -0.0069,0.12727 -0.01602,0.25442 -0.02739,0.38137 -0.03772,0.41138 -0.0988,0.82028 -0.182935,1.22473 -0.02209,0.1094 -0.04586,0.21845 -0.07131,0.32712 -0.104276,0.43236 -0.234917,0.85794 -0.391191,1.27434 -0.0261,0.0725 -0.05298,0.14463 -0.08061,0.21652 -0.1891296,0.47442 -0.411369,0.93496 -0.6650756,1.37821 -0.00635,0.0115 -0.012726,0.0231 -0.01912,0.0346 C 7.4799608,322.78625 3.8901663,324.86906 0,324.87939 c -6.0199897,6e-5 -10.900171,-4.88012 -10.90011,-10.90011 0.01304,-5.0769 3.5294199,-9.47253 8.4795859,-10.59987 0.00895,-0.002 0.017912,-0.004 0.026872,-0.006 C -1.6091202,303.1873 -0.80632349,303.08851 0,303.07917 Z"
       sodipodi:nodetypes="ccccsccccccccccccsccscccscccccccscccccccccccccsscccccccccccccccccccccccccccccccc" />
  </g>
</svg>
