<?xml version="1.0" encoding="UTF-8" standalone="no"?>
<!-- Created with Inkscape (http://www.inkscape.org/) -->

<svg
   width="210mm"
   height="297mm"
   viewBox="0 0 210 297"
   version="1.1"
   id="svg5"
   inkscape:version="1.1.2 (b8e25be833, 2022-02-05)"
   sodipodi:docname="BatteryHole.svg"
   xmlns:inkscape="http://www.inkscape.org/namespaces/inkscape"
   xmlns:sodipodi="http://sodipodi.sourceforge.net/DTD/sodipodi-0.dtd"
   xmlns="http://www.w3.org/2000/svg"
   xmlns:svg="http://www.w3.org/2000/svg">
  <sodipodi:namedview
     id="namedview7"
     pagecolor="#ffffff"
     bordercolor="#666666"
     borderopacity="1.0"
     inkscape:pageshadow="2"
     inkscape:pageopacity="0.0"
     inkscape:pagecheckerboard="0"
     inkscape:document-units="mm"
     showgrid="false"
     inkscape:zoom="109.78306"
     inkscape:cx="52.407904"
     inkscape:cy="1123.3336"
     inkscape:window-width="1920"
     inkscape:window-height="1017"
     inkscape:window-x="-8"
     inkscape:window-y="-8"
     inkscape:window-maximized="1"
     inkscape:current-layer="layer1" />
  <defs
     id="defs2" />
  <g
     inkscape:label="Layer 1"
     inkscape:groupmode="layer"
     id="layer1">
    <path
       id="path4859"
       style="fill:none;fill-opacity:0.620968;stroke:#000000;stroke-width:0.0974303"
       d="m -0.06468447,284.54873 c -1.17077743,-10e-4 -2.34135083,0.0429 -3.51211623,0.13344 -0.0088,6.8e-4 -0.01765,8.2e-4 -0.02647,0.002 -0.02751,0.002 -0.05497,0.004 -0.08248,0.006 -0.001,8e-5 -0.002,-7e-5 -0.0031,0 -0.01373,10e-4 -0.02751,0.002 -0.04124,0.004 -0.3436495,0.0265 -0.6875818,0.0566 -1.0315369,0.0903 -0.01764,0.002 -0.03531,0.003 -0.05295,0.005 -0.3563353,0.0353 -0.7127195,0.0743 -1.0696898,0.11739 -0.2708953,0.0327 -0.5373198,0.075 -0.7988562,0.12642 -0.2615375,0.0514 -0.5179708,0.11198 -0.7693263,0.1816 -0.2513555,0.0696 -0.4974062,0.148 -0.7377581,0.23528 -0.2403518,0.0873 -0.4751203,0.18355 -0.7036452,0.28795 -0.2285248,0.1044 -0.4511112,0.21713 -0.6669865,0.33812 -0.2158751,0.12099 -0.4253792,0.25025 -0.6277813,0.38728 -0.202402,0.13704 -0.397415,0.28189 -0.585522,0.43444 -0.188107,0.15255 -0.369256,0.31257 -0.542246,0.48009 -0.172988,0.16752 -0.337845,0.34227 -0.494893,0.52424 -0.157047,0.18196 -0.306241,0.37101 -0.446525,0.56687 -0.140283,0.19587 -0.271894,0.39879 -0.394591,0.60802 -0.122697,0.20922 -0.236334,0.42508 -0.340621,0.64714 -0.104287,0.22205 -0.199052,0.45042 -0.284105,0.68476 -0.08505,0.23435 -0.160556,0.47479 -0.225554,0.72089 -0.065,0.2461 -0.119827,0.49768 -0.163947,0.755 -0.04412,0.25732 -0.07737,0.52011 -0.09979,0.78811 -0.01103,0.13179 -0.02101,0.26326 -0.03106,0.39481 -0.0041,0.0526 -0.0089,0.1054 -0.01273,0.15802 -0.04227,0.55755 -0.07363,1.11492 -0.09674,1.67254 -0.0012,0.0296 -0.0029,0.0592 -0.0041,0.0888 -0.02426,0.61219 -0.03747,1.22476 -0.03921,1.83858 -2.5e-5,0.009 -4.89e-4,0.0174 -5.09e-4,0.0261 -2e-5,0.008 3.8e-5,0.0157 0,0.0236 -7.2e-5,0.0149 -4.28e-4,0.0298 -5.09e-4,0.0446 -1.05e-4,0.012 0,0.0241 0,0.0361 -3e-6,0.004 0,0.009 0,0.0135 -10e-7,0.002 -10e-7,0.004 0,0.006 -10e-7,0.005 -4e-6,0.009 0,0.0136 0,1.7e-4 0,3.4e-4 0,5e-4 2e-6,0.008 -8e-6,0.0154 0,0.0231 0,1.7e-4 0,3.4e-4 0,5.1e-4 -5e-6,0.006 0,0.0127 0,0.0191 0,10e-4 0,0.003 0,0.004 -7e-6,0.0301 4.49e-4,0.0602 5.09e-4,0.0903 0,1.6e-4 0,3.3e-4 0,5e-4 0.0012,0.62888 0.01439,1.25649 0.0392,1.88373 9.31e-4,0.0234 0.0026,0.0468 0.0036,0.0702 0.02325,0.56735 0.05519,1.13445 0.09827,1.70164 0.0037,0.0505 0.0083,0.10102 0.01222,0.1515 0.01014,0.13152 0.02003,0.26302 0.03106,0.39481 0.02242,0.26799 0.05567,0.53079 0.09979,0.7881 0.04409,0.25716 0.099,0.50905 0.163947,0.755 4.1e-5,1.6e-4 -4.2e-5,3.5e-4 0,5.1e-4 0.065,0.24609 0.140499,0.48603 0.225554,0.72038 0.08505,0.23435 0.179818,0.46271 0.284105,0.68477 0.104287,0.22205 0.217924,0.43791 0.340621,0.64714 0.122697,0.20923 0.254308,0.41215 0.394591,0.60801 0.140284,0.19587 0.289477,0.38492 0.446525,0.56688 0.157048,0.18196 0.321905,0.35671 0.494893,0.52423 0.17299,0.16753 0.354139,0.32754 0.542245,0.48009 0.188108,0.15255 0.383121,0.29741 0.585523,0.43444 0.2024019,0.13704 0.411906,0.2663 0.6277811,0.38728 0.2158753,0.12099 0.4384617,0.23372 0.6669865,0.33812 0.2285249,0.1044 0.4632934,0.20068 0.7036452,0.28796 0.2403519,0.0873 0.4864025,0.16566 0.737758,0.23528 0.2513565,0.0696 0.5077888,0.13018 0.7693263,0.1816 0.2615364,0.0514 0.5279609,0.0937 0.7988562,0.12642 0.3984702,0.0481 0.7962143,0.0911 1.1939564,0.12942 0.01424,0.001 0.02853,0.002 0.04277,0.004 0.3206564,0.0306 0.6413737,0.0589 0.9617835,0.0833 0.05567,0.004 0.1113328,0.007 0.1670027,0.0115 0.01764,10e-4 0.0353,0.003 0.05295,0.005 0.0185,10e-4 0.037,0.002 0.0555,0.003 0.5415929,0.0398 1.0831488,0.071 1.6246965,0.0908 0.02528,9.4e-4 0.05058,0.001 0.07586,0.002 0.5203309,0.0181 1.04067076,0.0273 1.5610526,0.0276 0.0279999,2e-5 0.05599989,0.002 0.08400983,10e-4 0.01492997,-10e-6 0.02986993,-3.6e-4 0.04479989,-5e-4 0.0047,2e-5 0.0096,-10e-6 0.01425997,0 0.0037,0 0.00749999,-5e-5 0.01119998,0 0.00509999,7e-5 0.01017998,4.2e-4 0.01526997,5e-4 0.0051,9e-5 0.01018998,1e-5 0.01527997,0 0.0095,0 0.01900996,1e-5 0.02850994,0 0.01408996,2e-5 0.02816993,-9.8e-4 0.0422599,-9.8e-4 0.57112475,1.5e-4 1.14220755,-0.0102 1.71328925,-0.0316 0.0061,-2.3e-4 0.01222,-2.7e-4 0.01833,-5e-4 0.2788374,-0.0106 0.5576897,-0.0243 0.8365321,-0.0401 0.01527,-8.7e-4 0.03055,-0.001 0.04582,-0.002 0.0014,-8e-5 0.0027,-4.3e-4 0.0041,-5e-4 0.2294445,-0.0133 0.458913,-0.0293 0.6883695,-0.0462 0.06331,-0.005 0.1266017,-0.008 0.1899136,-0.013 0.02751,-0.002 0.05496,-0.004 0.08248,-0.006 10e-4,-8e-5 0.002,7e-5 0.0031,0 0.3649362,-0.0278 0.7302944,-0.0598 1.0956916,-0.0958 5.02e-4,-5e-5 10e-4,4e-5 0.0015,0 0.3659013,-0.036 0.7318294,-0.0762 1.0982355,-0.1204 0.2708955,-0.0327 0.5373199,-0.075 0.7988573,-0.12642 0.2615374,-0.0514 0.5179689,-0.11199 0.7693254,-0.1816 0.2513553,-0.0696 0.4974068,-0.14801 0.7377583,-0.23528 0.2403515,-0.0873 0.47512,-0.18355 0.7036456,-0.28796 0.2285244,-0.1044 0.4511109,-0.21713 0.6669855,-0.33811 0.2158755,-0.12099 0.4253791,-0.25025 0.6277839,-0.38729 0.202402,-0.13703 0.397415,-0.28189 0.585522,-0.43443 0.188108,-0.15255 0.369256,-0.31257 0.542244,-0.48009 0.172989,-0.16753 0.337847,-0.34228 0.494895,-0.52424 0.157047,-0.18196 0.306243,-0.37101 0.446524,-0.56688 0.140283,-0.19586 0.271895,-0.39878 0.39459,-0.60801 0.122698,-0.20923 0.236336,-0.42509 0.340622,-0.64714 0.104287,-0.22206 0.199053,-0.45042 0.284108,-0.68477 0.08505,-0.23434 0.160553,-0.47428 0.225552,-0.72038 4.2e-5,-1.6e-4 -4.2e-5,-3.5e-4 0,-5e-4 0.06494,-0.24596 0.119855,-0.49785 0.163947,-0.755 0.04412,-0.25732 0.07737,-0.52012 0.09979,-0.78811 0.01102,-0.1318 0.02101,-0.26326 0.03106,-0.39481 0.0041,-0.0526 0.0089,-0.1054 0.01273,-0.15802 0.0035,-0.0465 0.0048,-0.093 0.0081,-0.13946 0.04022,-0.5514 0.07257,-1.10286 0.09419,-1.65448 0.0013,-0.0342 0.0018,-0.0686 0.0031,-0.10284 0.02137,-0.57585 0.03379,-1.15197 0.03513,-1.72923 2.1e-5,-0.008 -3.9e-5,-0.0157 0,-0.0236 3.1e-5,-0.0149 3.78e-4,-0.0298 5.08e-4,-0.0446 6.8e-5,-0.012 -2.8e-5,-0.0241 0,-0.0361 3e-6,-0.004 0,-0.009 0,-0.0135 3e-6,-0.002 3e-6,-0.004 0,-0.006 0,-0.005 3e-6,-0.009 0,-0.0135 -2e-6,-0.008 8e-6,-0.0157 0,-0.0236 6e-6,-0.007 0,-0.0131 0,-0.0196 0,-0.001 0,-0.003 0,-0.004 8e-6,-0.0301 -4.48e-4,-0.0602 -5.08e-4,-0.0903 0,-1.7e-4 0,-3.3e-4 0,-5e-4 0,-1.7e-4 0,-3.3e-4 0,-5e-4 -0.0011,-0.58664 -0.01337,-1.17222 -0.03513,-1.75732 -0.0012,-0.0331 -0.0018,-0.0662 -0.0031,-0.0993 -0.02158,-0.55051 -0.05407,-1.10062 -0.09419,-1.65097 -0.0036,-0.0492 -0.0049,-0.0983 -0.0087,-0.14748 -0.0037,-0.0505 -0.0083,-0.10103 -0.01222,-0.15151 -0.01005,-0.13155 -0.02003,-0.26301 -0.03106,-0.3948 -0.02236,-0.26811 -0.05561,-0.5309 -0.09973,-0.78822 -0.04412,-0.25732 -0.09895,-0.5089 -0.163947,-0.755 -0.065,-0.2461 -0.140499,-0.48654 -0.225552,-0.72089 -0.08506,-0.23434 -0.179821,-0.46271 -0.284108,-0.68476 -0.104286,-0.22206 -0.217924,-0.43792 -0.340622,-0.64714 -0.122695,-0.20923 -0.254307,-0.41215 -0.39459,-0.60802 -0.140281,-0.19586 -0.289477,-0.38491 -0.446524,-0.56687 -0.157048,-0.18197 -0.321905,-0.35672 -0.494894,-0.52424 -0.172989,-0.16752 -0.354137,-0.32754 -0.542245,-0.48009 -0.188107,-0.15255 -0.38312,-0.2974 -0.585522,-0.43444 -0.2024048,-0.13703 -0.4119084,-0.26629 -0.6277839,-0.38728 -0.2158746,-0.12099 -0.4384611,-0.23372 -0.6669855,-0.33812 -0.2285256,-0.1044 -0.4632941,-0.20068 -0.7036456,-0.28795 -0.2403515,-0.0873 -0.486403,-0.16566 -0.7377583,-0.23528 -0.2513565,-0.0696 -0.507788,-0.13018 -0.7693254,-0.1816 -0.2615374,-0.0514 -0.5279618,-0.0937 -0.7988573,-0.12642 -0.3338503,-0.0403 -0.6675805,-0.076 -1.0009887,-0.10936 -0.04956,-0.005 -0.09912,-0.0107 -0.1486707,-0.0156 -0.3087343,-0.03 -0.6172027,-0.0566 -0.9256349,-0.0808 -0.04104,-0.003 -0.08217,-0.007 -0.1232148,-0.0105 -0.04362,-0.003 -0.08723,-0.006 -0.1308517,-0.009 -0.0297,-0.002 -0.0594,-0.005 -0.0891,-0.007 -0.05499,-0.004 -0.1099788,-0.007 -0.1649657,-0.0105 -0.2260735,-0.016 -0.452126,-0.0316 -0.6781875,-0.0442 -0.0024,-1.3e-4 -0.0047,-3.7e-4 -0.0071,-5e-4 -0.02529,-0.001 -0.05057,-0.002 -0.07586,-0.004 -0.2481205,-0.0133 -0.4962618,-0.0255 -0.7443783,-0.0346 -0.2525325,-0.009 -0.5050799,-0.0159 -0.7576143,-0.0211 -0.03378,-6.9e-4 -0.0675399,-0.002 -0.10132186,-0.003 -0.0014,-2e-5 -0.0027,3e-5 -0.0041,0 -0.28919437,-0.005 -0.57838074,-0.008 -0.8675911,-0.008 -0.01492997,2e-5 -0.02986994,3.6e-4 -0.04479991,5e-4 -0.0048,4e-5 -0.0095,-3e-5 -0.01425997,0 -0.00369999,0 -0.00749998,5e-5 -0.01119998,0 -0.00509999,-7e-5 -0.01017997,-4.2e-4 -0.01526996,-5e-4 -3.4e-4,-10e-6 -6.79e-4,0 -0.001,0 -0.0047,-10e-6 -0.0095,1e-5 -0.01425997,0 -0.0095,0 -0.01900995,-10e-6 -0.02850993,0 z" />
  </g>
</svg>
