<?xml version="1.0" encoding="UTF-8" standalone="no"?>
<!-- Created with Inkscape (http://www.inkscape.org/) -->

<svg
   xmlns:dc="http://purl.org/dc/elements/1.1/"
   xmlns:cc="http://creativecommons.org/ns#"
   xmlns:rdf="http://www.w3.org/1999/02/22-rdf-syntax-ns#"
   xmlns:svg="http://www.w3.org/2000/svg"
   xmlns="http://www.w3.org/2000/svg"
   xmlns:sodipodi="http://sodipodi.sourceforge.net/DTD/sodipodi-0.dtd"
   xmlns:inkscape="http://www.inkscape.org/namespaces/inkscape"
   width="210mm"
   height="297mm"
   viewBox="0 0 210 297"
   version="1.1"
   id="svg8"
   inkscape:version="0.92.3 (2405546, 2018-03-11)"
   sodipodi:docname="KammTailHollow.svg">
  <defs
     id="defs2" />
  <sodipodi:namedview
     id="base"
     pagecolor="#ffffff"
     bordercolor="#666666"
     borderopacity="1.0"
     inkscape:pageopacity="0.0"
     inkscape:pageshadow="2"
     inkscape:zoom="5.6"
     inkscape:cx="-96.888657"
     inkscape:cy="196.19589"
     inkscape:document-units="mm"
     inkscape:current-layer="layer1"
     showgrid="false"
     inkscape:window-width="6400"
     inkscape:window-height="3444"
     inkscape:window-x="6384"
     inkscape:window-y="-16"
     inkscape:window-maximized="1" />
  <metadata
     id="metadata5">
    <rdf:RDF>
      <cc:Work
         rdf:about="">
        <dc:format>image/svg+xml</dc:format>
        <dc:type
           rdf:resource="http://purl.org/dc/dcmitype/StillImage" />
        <dc:title></dc:title>
      </cc:Work>
    </rdf:RDF>
  </metadata>
  <g
     inkscape:label="Layer 1"
     inkscape:groupmode="layer"
     id="layer1">
    <path
       style="fill:#000000;stroke-width:1.3333993"
       d="M 111.40234 1075.2812 C 98.897767 1075.2352 87.317626 1075.5055 80.613281 1076.1719 C 25.358417 1081.6638 -9.9037051 1106.0925 2.4765625 1130.3027 C 8.0110972 1141.1258 21.460298 1151.2601 39.105469 1157.9023 C 57.082406 1164.6694 70.838254 1167.3565 97.28125 1169.2695 C 115.94909 1170.62 149.13549 1169.1043 170.61523 1165.9199 C 172.44857 1165.6481 177.20621 1165.033 181.1875 1164.5527 C 187.05301 1163.8452 224.86038 1156.7547 229.94727 1155.4082 C 230.68061 1155.2141 234.73107 1154.3069 238.94727 1153.3926 C 250.92289 1150.7954 250.61523 1151.6458 250.61523 1121.2012 C 250.61523 1091.5866 251.19244 1093.3179 240.61523 1091.1914 C 237.68189 1090.6017 234.98185 1090.036 234.61523 1089.9336 C 231.65925 1089.1071 218.48891 1086.4276 215.28125 1086 C 213.08126 1085.7067 208.58124 1084.8615 205.28125 1084.123 C 201.98122 1083.3846 195.9806 1082.3767 191.94727 1081.8828 C 187.91393 1081.3889 184.31388 1080.8043 183.94727 1080.584 C 183.58061 1080.3637 179.38191 1079.7596 174.61523 1079.2402 C 169.84855 1078.7209 164.78306 1078.0705 163.35938 1077.7969 C 155.65556 1076.3155 132.24331 1075.358 111.40234 1075.2812 z M 114.18359 1084.7285 C 130.85636 1084.79 149.58695 1085.5571 155.75 1086.7422 C 156.88894 1086.961 160.94056 1087.479 164.75391 1087.8945 C 168.56725 1088.31 171.92738 1088.7945 172.2207 1088.9707 C 172.51399 1089.1468 175.39442 1089.6147 178.62109 1090.0098 C 181.84776 1090.4049 186.64708 1091.212 189.28711 1091.8027 C 191.92711 1092.3935 195.52712 1093.0681 197.28711 1093.3027 C 199.85324 1093.6448 210.38912 1095.79 212.75391 1096.4512 C 213.0472 1096.5332 215.20802 1096.9853 217.55469 1097.457 C 226.01645 1099.1582 225.55469 1097.7732 225.55469 1121.4648 C 225.55469 1145.8205 225.8012 1145.1391 216.2207 1147.2168 C 212.84775 1147.9483 209.60816 1148.6748 209.02148 1148.8301 C 204.95197 1149.9072 174.70413 1155.5805 170.01172 1156.1465 C 166.82668 1156.5307 163.01941 1157.0228 161.55273 1157.2402 C 144.36894 1159.7877 117.82099 1161.0003 102.88672 1159.9199 C 81.732325 1158.3895 70.727251 1156.2379 56.345703 1150.8242 C 42.229565 1145.5105 31.470596 1137.4045 27.042969 1128.7461 C 17.138755 1109.3779 45.348843 1089.8349 89.552734 1085.4414 C 94.91621 1084.9083 104.17993 1084.6916 114.18359 1084.7285 z "
       transform="scale(0.26458333)"
       id="path826" />
  </g>
</svg>
