<?xml version="1.0" encoding="UTF-8" standalone="no"?>
<!-- Created with Inkscape (http://www.inkscape.org/) -->

<svg
   width="559.77759mm"
   height="497.67932mm"
   viewBox="0 0 559.77759 497.67932"
   version="1.1"
   id="svg1"
   inkscape:version="1.3.2 (091e20e, 2023-11-25, custom)"
   sodipodi:docname="MiniDeskLegsSwoop.svg"
   xml:space="preserve"
   xmlns:inkscape="http://www.inkscape.org/namespaces/inkscape"
   xmlns:sodipodi="http://sodipodi.sourceforge.net/DTD/sodipodi-0.dtd"
   xmlns="http://www.w3.org/2000/svg"
   xmlns:svg="http://www.w3.org/2000/svg"><sodipodi:namedview
     id="namedview1"
     pagecolor="#ffffff"
     bordercolor="#000000"
     borderopacity="0.25"
     inkscape:showpageshadow="2"
     inkscape:pageopacity="0.0"
     inkscape:pagecheckerboard="0"
     inkscape:deskcolor="#d1d1d1"
     inkscape:document-units="mm"
     inkscape:zoom="0.25"
     inkscape:cx="-3646"
     inkscape:cy="7822"
     inkscape:window-width="1920"
     inkscape:window-height="991"
     inkscape:window-x="-9"
     inkscape:window-y="-9"
     inkscape:window-maximized="1"
     inkscape:current-layer="layer1" /><defs
     id="defs1"><linearGradient
       id="swatch3"
       inkscape:swatch="solid"><stop
         style="stop-color:#ffd42a;stop-opacity:1;"
         offset="0"
         id="stop3" /></linearGradient></defs><g
     inkscape:label="Layer 1"
     inkscape:groupmode="layer"
     id="layer1"
     transform="translate(1248.4254,-1786.4028)"><path
       style="fill:#143bac;fill-opacity:1"
       d="m -931.91085,2282.5047 c -3.1755,-1.57 -3.2101,-1.5782 -6.2534,-1.4885 -2.5246,0.075 -4.404,-0.177 -10.7358,-1.4366 -4.2216,-0.8398 -8.0313,-1.76 -8.4662,-2.0449 -0.5773,-0.3783 -1.5528,-0.5012 -3.616,-0.4557 -2.426,0.053 -3.1485,-0.072 -5.1118,-0.8902 -1.2576,-0.5239 -2.9672,-1.4937 -3.7991,-2.1551 -0.8319,-0.6614 -1.745,-1.3793 -2.0291,-1.5955 -0.2842,-0.2161 -3.0068,-1.1729 -6.0503,-2.1263 -4.9668,-1.5559 -5.7231,-1.7083 -7.3824,-1.4883 -2.0458,0.2714 -2.3001,0.269 -4.1187,-0.037 -0.8471,-0.1427 -1.5451,-0.5594 -2.1241,-1.2681 -0.4744,-0.5805 -1.0774,-1.3202 -1.3401,-1.6437 -0.3686,-0.454 -0.9961,-0.5894 -2.7497,-0.5934 -1.24973,0 -2.44337,-0.1162 -2.65267,-0.2521 -0.20917,-0.1358 -0.66334,-0.8519 -1.00914,-1.5914 -0.50177,-1.0732 -0.90934,-1.4334 -2.01974,-1.7851 -1.7845,-0.5652 -3.9867,-2.4529 -4.861,-4.1667 -0.3765,-0.738 -1.2677,-1.9744 -1.9804,-2.7476 -0.7127,-0.7731 -1.4042,-1.8375 -1.5366,-2.3652 -0.2394,-0.9538 -2.289,-3.6802 -4.4268,-5.8888 -0.6152,-0.6355 -1.8881,-2.579 -2.8289,-4.3189 -1.5768,-2.9163 -1.8891,-3.279 -3.9988,-4.6437 -1.2586,-0.8142 -2.5637,-1.8501 -2.9002,-2.3021 -0.3364,-0.4519 -1.5079,-2.0366 -2.6031,-3.5215 -1.8094,-2.4531 -2.1485,-2.7455 -3.7103,-3.1995 -0.9454,-0.2748 -2.8937,-1.0934 -4.3296,-1.8191 -3.3294,-1.6827 -3.7915,-1.5775 -4.0825,0.9301 -0.3064,2.6395 -0.5564,2.9853 -1.6437,2.2729 -1.0019,-0.6565 -2.5557,-0.6838 -5.5866,-0.098 -2.0468,0.3956 -2.2895,0.3742 -3.8425,-0.339 -0.9117,-0.4187 -1.7698,-0.6919 -1.9069,-0.6072 -0.137,0.085 -0.3532,0.6277 -0.4804,1.2067 -0.1272,0.579 -0.6304,1.4101 -1.1183,1.8467 -0.7488,0.6703 -1.1247,0.7641 -2.4122,0.6024 -1.4797,-0.186 -1.5679,-0.1447 -2.9637,1.3891 l -1.4387,1.5808 -2.0781,-0.2072 c -3.9474,-0.3935 -9.2212,-1.8023 -10.74,-2.869 -0.8391,-0.5893 -2.2486,-1.1595 -3.4387,-1.391 -1.1092,-0.2158 -2.5326,-0.6904 -3.163,-1.0547 -1.0894,-0.6294 -2.3506,-0.6577 -4.3998,-0.099 -0.3149,0.086 -0.7945,-0.3695 -1.2774,-1.2129 -0.5496,-0.96 -1.2817,-1.5999 -2.5314,-2.2128 -1.04,-0.5101 -2.0641,-1.329 -2.5071,-2.0048 -0.4119,-0.6284 -0.9125,-1.1426 -1.1124,-1.1426 -0.1999,0 -1.1584,0.6792 -2.1301,1.5093 -2.5992,2.2206 -3.9671,2.6215 -8.7195,2.5555 -3.6129,-0.05 -4.518,-0.2011 -9.5202,-1.5875 -5.4321,-1.5055 -5.5646,-1.5247 -7.6572,-1.1088 -1.6755,0.3331 -3.1139,0.3405 -6.7483,0.035 -4.5238,-0.3801 -4.6972,-0.4246 -8.416,-2.1563 -3.7777,-1.7592 -3.8172,-1.7898 -7.7645,-6.0196 -4.2255,-4.5279 -5.4208,-5.3282 -7.9582,-5.3282 -1.0432,0 -2.4472,-0.4666 -4.951,-1.6455 -2.0333,-0.9573 -5.027,-2.0207 -7.1581,-2.5426 -6.749,-1.6528 -14.6997,-6.5063 -18.2209,-11.1228 -1.4516,-1.9032 -5.4781,-4.3842 -8.4243,-5.191 -3.9689,-1.0867 -5.4465,-1.6814 -7.842,-3.1561 -3.7551,-2.3118 -6.4298,-4.4705 -8.6133,-6.9517 -1.1586,-1.3165 -3.7407,-3.5958 -5.738,-5.065 l -3.6315,-2.6712 -2.1929,-4.44 c -2.0706,-4.1923 -3.1724,-5.8152 -9.2552,-13.633 -2.2867,-2.939 -3.0714,-4.0502 -5.7316,-8.1174 -3.2365,-4.9484 -4.5018,-7.4752 -4.7369,-9.4597 -0.1562,-1.3194 -0.4852,-2.0371 -1.4389,-3.139 -1.0283,-1.1881 -1.3053,-1.8459 -1.646,-3.9088 -0.345,-2.0889 -0.6182,-2.7277 -1.7321,-4.0486 l -1.3225,-1.5684 0.3636,-1.8102 c 0.3176,-1.5816 0.2566,-2.2326 -0.4836,-5.1558 -0.4659,-1.8402 -1.097,-4.102 -1.4025,-5.0264 -1.2295,-3.7201 -1.8067,-5.7868 -2.0183,-7.2267 -0.1223,-0.8319 -0.5096,-2.7317 -0.8607,-4.2218 -0.3511,-1.4901 -0.6275,-3.759 -0.6142,-5.0419 0.049,-4.7011 -0.2948,-17.5155 -0.5223,-19.4751 -0.1704,-1.4675 -0.038,-3.0696 0.485,-5.8822 1.5919,-8.5562 2.4271,-13.0626 2.8656,-15.4619 0.2534,-1.3865 0.4724,-3.8066 0.4867,-5.378 0.014,-1.5714 0.1921,-3.5377 0.395,-4.3696 0.2029,-0.832 0.7136,-3.3277 1.1349,-5.5461 0.4214,-2.2185 1.1481,-5.5461 1.615,-7.3948 0.4669,-1.8487 1.2267,-4.8739 1.6886,-6.7226 1.152,-4.6115 1.2702,-4.8721 4.1391,-9.1257 2.7822,-4.1251 2.6136,-3.5957 4.2704,-13.4167 0.7331,-4.3452 0.7698,-4.4439 3.4775,-9.3401 1.5051,-2.7217 2.8395,-5.417 2.9653,-5.9897 0.1257,-0.5727 0.8013,-1.9273 1.5013,-3.0102 1.1154,-1.7258 1.3018,-2.3119 1.5088,-4.7444 0.2081,-2.4467 0.5889,-4.3641 1.8861,-9.4979 0.1868,-0.7395 0.9179,-2.5546 1.6246,-4.0335 0.7066,-1.479 1.9291,-4.0357 2.7166,-5.6815 0.7875,-1.6459 1.5552,-3.4609 1.706,-4.0335 0.1508,-0.5726 0.4983,-1.9288 0.7723,-3.0138 0.274,-1.085 0.7768,-2.2951 1.1173,-2.689 1.5346,-1.7752 3.0476,-4.3523 6.0951,-10.3812 1.8019,-3.5648 3.5855,-6.9324 3.9635,-7.4837 0.3781,-0.5512 1.0892,-1.6451 1.5803,-2.4308 4.2177,-6.7479 5.6306,-8.8174 6.3858,-9.3533 0.399,-0.2831 1.633,-1.0927 2.7422,-1.7991 1.1092,-0.7064 3.2501,-2.4422 4.7576,-3.8574 2.9721,-2.7903 4.2638,-4.9088 3.9554,-6.4872 -0.1087,-0.5567 0.012,-1.2033 0.2965,-1.5871 0.4295,-0.5796 0.5907,-0.6018 1.5332,-0.2114 0.9937,0.4116 1.134,0.3709 2.482,-0.7186 0.96,-0.776 2.0903,-1.2978 3.4455,-1.5907 1.1092,-0.2397 2.2084,-0.5909 2.4426,-0.7804 0.581,-0.4701 2.9824,-0.4356 3.5691,0.051 0.2622,0.2177 0.5676,0.7576 0.6786,1.1999 0.312,1.2429 1.4394,1.4118 2.5191,0.3774 0.7305,-0.6999 1.2415,-0.873 2.577,-0.873 1.6143,0 1.7111,-0.057 3.1261,-1.83 1.1311,-1.4174 1.6987,-1.8532 2.5174,-1.9327 0.9733,-0.095 1.0818,-0.2309 1.3696,-1.7212 0.2817,-1.459 0.2195,-1.7903 -0.6312,-3.3629 l -0.9436,-1.7445 0.6715,-2.6759 0.6716,-2.6759 -0.6847,-0.9261 c -0.5598,-0.7573 -0.6898,-1.4641 -0.7127,-3.8769 -0.015,-1.6229 0.089,-3.3682 0.2314,-3.8784 0.3683,-1.3176 6.6586,-8.7134 9.1102,-10.7115 1.1323,-0.9228 2.3613,-1.9493 2.731,-2.2811 0.3698,-0.3319 1.4286,-0.7142 2.3529,-0.8497 1.6424,-0.2408 3.3541,-1.4145 6.5475,-4.4896 0.4583,-0.4413 1.2531,-1.0195 1.7662,-1.2848 2.0183,-1.0437 9.8274,-1.4766 13.3842,-0.742 1.7426,0.3599 2.074,0.3261 3.8457,-0.393 1.3867,-0.5629 2.5245,-1.3925 3.9956,-2.9137 2.3905,-2.4719 3.1647,-2.6422 5.8593,-1.2887 2.3793,1.195 5.2737,1.1326 8.298,-0.1789 0.3697,-0.1604 1.6105,-0.544 2.7572,-0.8525 1.1467,-0.3085 2.8861,-1.093 3.8654,-1.7434 1.2661,-0.8408 2.6061,-1.3555 4.6376,-1.7815 4.0157,-0.8421 4.8061,-1.076 8.3369,-2.4667 3.8034,-1.4981 6.0891,-3.0338 6.8745,-4.6186 0.4955,-0.9998 0.5352,-1.4813 0.2482,-3.0095 -0.1879,-1.0005 -0.6424,-2.229 -1.01,-2.7299 -0.9006,-1.2272 -0.8412,-2.4927 0.2274,-4.8468 1.1102,-2.4456 2.3615,-3.6636 5.2918,-5.1509 1.2547,-0.6369 3.3368,-2.1045 4.627,-3.2613 1.2901,-1.1569 2.6745,-2.206 3.0763,-2.3315 0.7826,-0.2444 5.3449,-2.741 7.2851,-3.9866 2.0478,-1.3147 6.768,-4.3746 10.3649,-6.7192 1.9109,-1.2455 4.1798,-2.4993 5.0419,-2.7861 0.8622,-0.2869 1.7189,-0.6371 1.9037,-0.7783 0.1849,-0.1412 1.2419,-0.5191 2.3489,-0.8398 1.107,-0.3207 2.2414,-0.7135 2.5209,-0.873 0.9429,-0.5378 9.9005,-3.6949 12.2727,-4.3254 5.0924,-1.3536 6.8353,-1.9797 9.6838,-3.4793 l 2.9613,-1.5588 h 3.4618 c 3.17717,0 3.62444,-0.083 5.44172,-1.0041 1.76093,-0.893 2.31623,-1.0046 5.01653,-1.0084 2.9017,0 3.1176,0.048 4.8625,1.1722 1.0044,0.647 2.0959,1.1764 2.4256,1.1764 0.3298,0 0.5996,0.1513 0.5996,0.3361 0,0.1849 0.2564,0.3362 0.5698,0.3362 0.3134,0 0.9563,0.3638 1.4285,0.8085 1.1569,1.0893 3.0261,2.0955 4.7605,2.5625 2.0272,0.5459 3.3503,1.677 4.7974,4.1013 2.4502,4.1047 3.9229,6.4004 4.6934,7.3161 0.7987,0.9493 1.8024,3.4425 2.7067,6.7237 0.6925,2.5131 1.1221,2.9999 3.4271,3.8832 7.0147,2.6882 6.2828,2.5101 8.0789,1.9665 0.9008,-0.2727 2.4924,-0.4661 3.5369,-0.4298 1.6389,0.057 2.1224,-0.083 3.5293,-1.0183 1.1557,-0.7687 1.8843,-1.0344 2.5033,-0.9129 0.4801,0.094 1.9927,0.2682 3.3612,0.3866 l 2.4883,0.2152 3.4453,-4.2122 3.4453,-4.2123 v -2.897 c 0,-3.292 0.2101,-3.8569 1.8001,-4.8395 0.9044,-0.559 1.6846,-0.7023 3.8234,-0.7023 2.4129,0 2.8112,-0.094 3.9018,-0.9244 3.5174,-2.6768 3.6933,-2.773 5.0663,-2.7718 0.7799,7e-4 1.8504,0.2915 2.4749,0.6723 1.2293,0.7495 4.9034,0.9538 5.3104,0.2952 0.1484,-0.2402 0.7813,-0.3004 1.7547,-0.167 1.3243,0.1815 1.8015,0.055 3.6647,-0.9688 2.3126,-1.2712 3.7973,-1.486 4.4914,-0.6497 0.3182,0.3835 0.9037,0.4983 2.1419,0.4201 2.929,-0.1849 8.2825,0.4043 8.4857,0.934 0.1287,0.3352 0.8247,0.4775 2.4137,0.4934 1.7823,0.018 2.5682,0.2089 3.8942,0.9468 l 1.6613,0.9245 1.5319,-0.7453 c 1.2307,-0.5987 1.7492,-1.1448 2.6371,-2.7774 1.5687,-2.8844 3.213,-4.0809 6.4067,-4.6618 8.0909,-1.4716 12.8675,-2.1467 17.3615,-2.4538 2.773,-0.1896 5.3622,-0.415 5.7537,-0.501 0.5782,-0.127 2.4192,-1.7968 5.0023,-4.537 0.1849,-0.1961 1.0924,-0.8255 2.0168,-1.3987 0.9243,-0.5732 2.1033,-1.3341 2.6199,-1.6908 2.14,-1.4778 8.5374,-1.5907 12.2645,-0.2164 1.6257,0.5994 5.2222,3.1093 7.135,4.9794 0.2885,0.282 1.4631,1.3206 2.6103,2.3078 2.6604,2.2897 3.721,3.8964 4.9165,7.4485 1.2455,3.7005 1.3582,6.8986 0.3197,9.0754 -0.3968,0.8319 -0.8823,2.0419 -1.0787,2.689 -0.1965,0.647 -0.827,2.4621 -1.4012,4.0335 -4.2668,11.6776 -4.0732,11.0447 -3.6328,11.882 0.6699,1.2738 1.437,2.1089 3.7041,4.0322 1.2195,1.0346 2.3719,2.3243 2.5607,2.8661 0.4032,1.1566 1.9585,1.6801 3.0207,1.0167 0.5742,-0.3586 0.87,-0.234 2.2972,0.9676 1.4872,1.2522 1.9402,1.4306 4.9201,1.9374 l 3.282,0.5582 2.5161,2.3771 c 1.3839,1.3075 2.5162,2.4947 2.5162,2.6384 0,0.1436 0.8931,2.1367 1.9846,4.4291 1.5683,3.2937 2.0353,4.6544 2.2264,6.4874 0.365,3.5018 0.8651,4.1734 3.7276,5.0055 1.423,0.4137 3.058,0.5303 6.6383,0.4735 5.3938,-0.086 5.5192,-0.047 9.7923,3.0231 1.2941,0.9298 3.076,2.1879 3.9598,2.7958 0.8838,0.6079 1.7913,1.2597 2.0168,1.4484 0.2254,0.1886 1.2417,0.9392 2.2585,1.668 1.5966,1.1443 3.4651,2.656 6.6613,5.3896 0.4285,0.3665 1.4838,1.6496 2.3451,2.8512 0.8612,1.2017 3.6699,4.3372 6.2415,6.9678 4.279,4.3772 4.9212,4.9005 7.5707,6.1696 1.8946,0.9075 3.8243,1.5397 5.5841,1.8295 2.4336,0.4007 9.8273,2.789 12.4908,4.0347 0.5844,0.2733 1.6632,0.9988 2.3974,1.6122 0.7342,0.6134 2.4493,1.6686 3.8114,2.3449 1.9907,0.9884 3.254,2.0054 6.4416,5.1855 2.1808,2.1757 4.3741,4.5625 4.8738,5.3038 0.4998,0.7413 1.7503,2.5564 2.7791,4.0335 1.0287,1.4771 2.6521,4.2738 3.6076,6.215 1.4291,2.9032 1.8584,4.215 2.4199,7.3948 0.8706,4.9302 1.5259,8.1778 2.3737,11.7644 0.6105,2.5826 0.6537,3.5351 0.4504,9.9157 -0.1238,3.8823 -0.3505,7.2191 -0.5039,7.4151 -0.1534,0.196 -1.4403,2.3892 -2.8598,4.8738 -1.4195,2.4846 -2.8996,5.0679 -3.289,5.7406 -0.3895,0.6727 -1.4644,2.5513 -2.3887,4.1745 -0.9244,1.6232 -1.9113,3.3417 -2.1933,3.8188 -2.6677,4.5142 -2.6492,4.496 -4.2808,4.2261 -0.5495,-0.091 -1.5264,0.15 -2.4231,0.5974 -1.4997,0.7483 -1.5032,0.7542 -1.9228,3.2706 -0.6016,3.6079 -3.0273,8.233 -4.98,9.4956 -1.5771,1.0196 -3.2178,1.198 -3.8634,0.4201 -0.5954,-0.7174 -1.3445,-0.6238 -1.3445,0.1681 0,0.4482 0.224,0.6722 0.6722,0.6722 1.4718,0 0.045,1.9551 -1.6854,2.3089 -1.5694,0.321 -2.5307,2.056 -2.8317,5.111 -0.2068,2.0986 -0.1529,2.4162 0.5978,3.5208 0.7144,1.0514 0.7805,1.3753 0.4931,2.4163 -0.3806,1.3784 -0.2677,2.1634 0.7088,4.9301 0.3854,1.0917 0.706,2.7555 0.7126,3.6974 0.01,0.9418 0.228,2.0906 0.4922,2.5528 0.2642,0.4622 0.4858,1.2999 0.4923,1.8617 0.01,0.8623 -0.262,1.2058 -1.746,2.2044 -1.5069,1.0141 -1.7986,1.3888 -2.043,2.6246 -0.2572,1.3009 -0.149,1.7255 1.1087,4.3501 0.7666,1.5996 1.6715,3.211 2.0108,3.5807 0.8965,0.9768 1.2605,2.7202 1.0933,5.2377 -0.1233,1.8572 -0.02,2.4509 0.645,3.6974 0.713,1.3369 0.7951,1.9367 0.8248,6.0225 0.018,2.4958 0.1515,7.4873 0.2963,11.0922 0.2173,5.4098 0.1627,7.2881 -0.3128,10.7551 -0.3169,2.3103 -0.6879,4.3523 -0.8245,4.5377 -0.1367,0.1854 -0.8698,2.3034 -1.6293,4.7067 -1.3488,4.268 -1.7704,7.0361 -2.2358,14.6778 -0.092,1.5059 -0.4535,2.5269 -1.7273,4.8738 -2.5362,4.6731 -3.0872,5.4257 -4.5677,6.2393 -0.7638,0.4197 -1.8059,0.99 -2.3158,1.2673 -0.5099,0.2773 -2.3486,1.9522 -4.0861,3.722 -2.4979,2.5444 -3.5215,3.3482 -4.8911,3.8407 -1.1914,0.4284 -2.025,1.0123 -2.6705,1.8704 -0.6709,0.8919 -1.8981,1.727 -4.3055,2.9298 -2.4679,1.233 -4.2316,2.4438 -6.6038,4.5339 -3.0535,2.6902 -3.3593,2.8729 -5.4055,3.2293 -1.193,0.2077 -2.3905,0.3777 -2.6612,0.3777 -0.2707,0 -1.5083,0.9453 -2.7501,2.1008 -2.1846,2.0325 -2.2741,2.18 -2.7536,4.5408 -0.4496,2.2139 -0.4439,2.5721 0.061,3.8654 0.3064,0.784 0.7584,1.7238 1.0044,2.0885 0.2659,0.394 0.4474,1.6106 0.4474,2.9986 0,1.6238 0.1566,2.5087 0.5137,2.9034 0.4029,0.4451 0.4378,0.7675 0.1618,1.4934 -0.3019,0.7939 -0.2119,1.1371 0.6325,2.4118 0.5702,0.8608 1.5885,1.8057 2.4201,2.2454 1.5411,0.8149 1.5744,0.882 2.4929,5.0121 0.6572,2.955 0.5905,3.6177 -0.6623,6.58 -0.4938,1.1679 -1.052,2.9829 -1.2402,4.0335 -0.6016,3.3565 -3.5725,8.6575 -7.8229,13.9581 -2.0986,2.6171 -4.6486,5.5147 -5.6668,6.439 -2.1427,1.9452 -2.0344,1.8617 -5.1142,3.9428 -1.2941,0.8744 -3.4117,2.3476 -4.7058,3.2738 -5.4385,3.8922 -5.8312,4.1107 -7.8222,4.3526 -2.4247,0.2945 -2.8515,0.5835 -5.1187,3.4656 -1.0167,1.2926 -2.0807,2.5981 -2.3644,2.9012 -0.6687,0.7145 -1.7718,2.4548 -4.1842,6.6013 -1.0756,1.8487 -2.311,3.9252 -2.7454,4.6145 -0.4344,0.6893 -0.7898,1.3254 -0.7898,1.4136 0,0.1793 -0.9224,1.5376 -2.7661,4.0731 -1.4648,2.0144 -4.479,4.4318 -7.3043,5.858 -1.12,0.5654 -2.4222,1.461 -2.8937,1.9902 -0.5614,0.6301 -1.3266,1.0373 -2.2167,1.1796 -0.7476,0.1196 -1.8494,0.5912 -2.4485,1.0481 -0.8635,0.6587 -1.4854,0.8308 -3.002,0.8308 -1.2069,0 -2.2233,0.2035 -2.7542,0.5513 -0.9535,0.6248 -2.9801,1.1763 -8.5465,2.3258 -2.126,0.4391 -4.8947,1.0133 -6.1527,1.276 -3.1499,0.6579 -6.0486,0.036 -7.6863,-1.65 -0.6152,-0.6333 -1.373,-1.1531 -1.684,-1.155 -0.3109,0 -1.7778,0.6014 -3.2597,1.3409 -3.0144,1.5042 -3.5479,1.5844 -5.2228,0.7858 -0.978,-0.4664 -1.2601,-0.4855 -1.7063,-0.1151 -0.3709,0.3078 -0.4273,0.5509 -0.1842,0.794 0.9149,0.9149 -0.2491,2.6773 -2.8517,4.3182 -1.6652,1.0498 -2.3532,1.2035 -7.2179,1.6128 -2.126,0.1789 -4.3314,0.3972 -4.901,0.4851 -0.8049,0.1243 -1.479,-0.1347 -3.0252,-1.1619 -2.8254,-1.8772 -3.2609,-1.8029 -3.805,0.6496 -0.2428,1.0947 -0.3421,2.1513 -0.2205,2.348 0.4311,0.6976 0.8431,4.2176 0.6413,5.4796 -0.1141,0.7132 -1.0067,2.5089 -2.0136,4.0506 -1.698,2.6002 -3.7867,6.6271 -4.3376,8.3628 -0.1345,0.4238 -1.3962,2.534 -2.8038,4.6895 -2.2656,3.4694 -3.0001,4.2903 -6.4016,7.1541 l -3.8423,3.235 h -1.9948 c -1.0971,0 -2.7319,-0.2618 -3.6329,-0.5818 l -1.6381,-0.5819 -3.2808,1.6609 -3.2808,1.6609 -4.5377,0.084 -4.5378,0.084 z m 42.2799,-42.0402 c 0.2376,-0.1508 0.5183,-0.8056 0.6237,-1.4551 0.1633,-1.0062 0.055,-1.2882 -0.7295,-1.9055 -1.1359,-0.8935 -3.3334,-0.9628 -5.0207,-0.1582 -0.6533,0.3116 -1.1864,0.6519 -1.1846,0.7563 0.01,0.3177 4.8235,3.0473 5.3693,3.0418 0.2803,0 0.7041,-0.1285 0.9418,-0.2793 z m -297.05655,-151.2247 c 0.4006,-0.5083 0.9031,-0.9447 1.1168,-0.9696 0.2137,-0.025 0.5629,-0.063 0.7761,-0.084 0.2131,-0.021 0.9364,-0.8658 1.6074,-1.8767 0.7442,-1.1212 1.9404,-2.3161 3.0676,-3.0643 l 1.8478,-1.2265 3.2674,0.2397 c 2.7757,0.2037 3.4444,0.3713 4.4438,1.1139 0.647,0.4808 1.2534,0.9578 1.3474,1.06 0.094,0.1022 0.5587,0.5272 1.0327,0.9445 l 0.8616,0.7588 1.9374,-0.6666 c 1.4301,-0.492 2.4357,-0.618 3.8412,-0.4814 l 1.9038,0.1851 1.7914,-2.034 1.7914,-2.034 1.906,0.1885 c 1.5414,0.1524 2.4847,2e-4 4.9311,-0.7957 2.8956,-0.942 3.0555,-1.046 3.733,-2.4275 0.7849,-1.6005 1.5543,-2.134 3.9043,-2.707 1.4663,-0.3575 1.652,-0.5244 2.4426,-2.1956 1.0007,-2.1153 1.3493,-2.3469 4.0372,-2.6818 1.7889,-0.2229 2.1589,-0.407 3.2773,-1.6305 1.6551,-1.8107 1.7353,-3.4392 0.2523,-5.1282 -1.0003,-1.1392 -1.0084,-1.1809 -1.0084,-5.1703 0,-4.4352 -0.1531,-4.0658 2.6334,-6.3534 1.5786,-1.296 1.5946,-1.5289 0.3781,-5.4973 -0.4561,-1.4878 -0.52,-2.2246 -0.2711,-3.1261 0.3871,-1.4017 -0.085,-3.1366 -1.1754,-4.3164 -0.3986,-0.4313 -2.086,-2.3093 -3.7498,-4.1732 -2.7998,-3.1364 -3.1378,-3.405 -4.5377,-3.6045 -0.8319,-0.1186 -2.404,-0.3885 -3.4934,-0.5998 l -1.9809,-0.3842 -3.3041,-4.5377 c -2.3915,-3.2843 -4.0738,-5.1949 -6.0905,-6.9169 -1.5324,-1.3086 -4.1426,-3.8541 -5.8004,-5.6567 l -3.0143,-3.2775 -1.455,0.2182 c -0.8003,0.12 -1.9701,0.5678 -2.5997,0.995 -0.978,0.6637 -2.9847,1.2272 -4.866,1.3666 -0.2773,0.021 -1.0654,-0.2371 -1.7513,-0.5724 -0.6859,-0.3354 -1.4038,-0.6097 -1.5954,-0.6097 -0.1917,0 -0.9111,0.9001 -1.5988,2.0003 l -1.2504,2.0004 -1.3996,-0.1919 c -1.9533,-0.2677 -2.5083,0.4123 -3.6269,4.4444 -0.8731,3.1475 -3.5697,9.1343 -4.3299,9.6132 -0.1919,0.1209 -1.1928,0.3253 -2.2242,0.4541 -1.2482,0.156 -2.4393,0.5969 -3.5618,1.3183 -3.637,2.3377 -3.4005,2.243 -3.9865,1.5955 -0.427,-0.4718 -0.4497,-0.7125 -0.1211,-1.2824 2.2484,-3.9 2.4461,-4.9357 1.0625,-5.5661 -1.3181,-0.6006 -5.5553,1.5976 -8.6152,4.4694 l -2.3836,2.237 0.2292,1.5287 c 0.2173,1.4491 0.148,1.6355 -1.3316,3.5811 -1.511,1.9869 -2.1604,3.7913 -2.7465,7.6315 -0.224,1.4674 0.9469,3.0089 2.5079,3.3018 0.6471,0.1214 1.4226,0.3562 1.7234,0.5218 0.3007,0.1656 1.6812,0.6154 3.0677,0.9996 5.1209,1.419 5.7096,1.626 6.5883,2.3172 0.8097,0.637 1.3351,0.7058 5.3896,0.7058 2.4708,0 4.4924,0.1322 4.4924,0.2938 0,0.1617 -0.2269,0.937 -0.5042,1.7229 -0.7935,2.2491 -0.6269,3.1311 1.3445,7.1184 2.2526,4.5561 2.3093,5.3665 0.6095,8.7123 -0.897,1.7656 -2.0006,3.1883 -3.9969,5.1527 -2.6061,2.5642 -2.7699,2.8113 -2.9756,4.4896 -0.323,2.6351 0.025,3.8534 1.5193,5.312 0.7229,0.7059 1.3149,1.4419 1.3156,1.6354 0,0.791 1.3697,2.5368 1.9862,2.5368 0.359,0 0.9805,-0.416 1.381,-0.9244 z m -25.2258,-57.1142 c 0.4672,-0.2438 1.0907,-0.4442 1.3856,-0.4454 1.698,-0.01 3.4734,-4.9564 2.1666,-6.0409 -0.6335,-0.5257 -2.3029,-0.1662 -3.895,0.8388 -1.7438,1.1009 -3.2718,5.1393 -2.3088,6.1023 0.3971,0.3971 1.3241,0.2381 2.6516,-0.4548 z m -3.5259,-5.142 c 1.0672,-2.106 1.0604,-2.4343 -0.048,-2.3024 -1.0757,0.128 -2.2193,2.0501 -1.9142,3.217 0.3186,1.2183 1.0552,0.8748 1.962,-0.9146 z m 1.1963,-5.2363 c 0.6335,-0.6743 0.7272,-0.9768 0.4427,-1.4285 -0.5174,-0.8217 -1.1445,-0.842 -2.3896,-0.077 -0.765,0.4698 -1.0924,0.9242 -1.0924,1.5161 0,0.7335 0.1478,0.8452 1.1178,0.8452 0.7631,0 1.373,-0.2715 1.9215,-0.8554 z"
       id="path20"
       inkscape:export-filename="CraterLake.png"
       inkscape:export-xdpi="96"
       inkscape:export-ydpi="96" /></g></svg>
