<?xml version="1.0" encoding="UTF-8" standalone="no"?>
<!-- Created with Inkscape (http://www.inkscape.org/) -->

<svg
   width="210mm"
   height="297mm"
   viewBox="0 0 210 297"
   version="1.1"
   id="svg1"
   inkscape:version="1.4.2 (f4327f4, 2025-05-13)"
   sodipodi:docname="MiniDeskLegs.svg"
   xmlns:inkscape="http://www.inkscape.org/namespaces/inkscape"
   xmlns:sodipodi="http://sodipodi.sourceforge.net/DTD/sodipodi-0.dtd"
   xmlns="http://www.w3.org/2000/svg"
   xmlns:svg="http://www.w3.org/2000/svg">
  <sodipodi:namedview
     id="namedview1"
     pagecolor="#ffffff"
     bordercolor="#000000"
     borderopacity="0.25"
     inkscape:showpageshadow="2"
     inkscape:pageopacity="0.0"
     inkscape:pagecheckerboard="0"
     inkscape:deskcolor="#d1d1d1"
     inkscape:document-units="mm"
     inkscape:zoom="0.18952897"
     inkscape:cx="2245.0394"
     inkscape:cy="4513.8218"
     inkscape:window-width="1920"
     inkscape:window-height="1111"
     inkscape:window-x="-9"
     inkscape:window-y="941"
     inkscape:window-maximized="1"
     inkscape:current-layer="layer1" />
  <defs
     id="defs1" />
  <g
     inkscape:label="Layer 1"
     inkscape:groupmode="layer"
     id="layer1">
    <rect
       style="fill:#decd87;stroke-width:0.264583"
       id="rect3"
       width="1219"
       height="1219"
       x="-2.2737368e-13"
       y="0" />
    <path
       id="rect6"
       style="fill:#502d16;fill-opacity:1;stroke-width:0.281177"
       d="m 1174.8013,194.5694 c -53.9628,0 -107.9256,0 -161.8884,0 -19.44576,56.6768 -14.55686,125.3448 19.8493,173.5535 42.8356,65.8062 50.6239,149.4839 59.2051,228.0848 9.3478,121.7799 3.6134,247.0915 -29.495,364.0416 -16.8048,50.3933 -57.8046,89.1145 -60.0018,145.6154 -2.82786,29.9534 1.0087,60.5703 10.4427,88.7047 53.9628,0 107.9256,0 161.8884,0 0,-333.3334 10e-5,-666.6667 -3e-4,-1000 z" />
    <path
       id="rect1"
       style="fill:#502d16;stroke-width:0.264583"
       d="m 0,0 h 700 c 0,0 4.96539,27.438567 -0.92627,47.987061 C 669.26284,151.95918 675.1164,481.96134 696.2627,698.82062 L 570.10841,700 c 0,0 71.06893,-484.20734 -15.06717,-568.85987 C 478.25445,55.675882 349.69925,82.568379 279.70024,133.35284 179.81457,205.82014 146.22322,700 146.22322,700 H 0 C 0,700 162.62266,348.28793 120.42917,173.15389 107.01047,117.4564 35.846192,92.570974 10.026977,41.427644 3.6239276,28.744328 0,0 0,0 Z"
       sodipodi:nodetypes="ccsccssccssc" />
    <path
       id="rect1-8"
       style="fill:#502d16;stroke-width:0.264583"
       d="M 881.5348,1207.1807 H 181.53477 c 0,0 -4.9654,-27.4386 0.9263,-47.987 29.8109,-103.9722 23.9573,-433.97432 2.811,-650.83362 l 126.1543,-1.1794 c 0,0 -71.0689,484.20738 15.0672,568.85992 76.78678,75.4642 205.34198,48.5717 275.34099,-2.2127 99.88567,-72.4673 133.47702,-566.64722 133.47702,-566.64722 H 881.5348 c 0,0 -162.62266,351.71211 -120.42917,526.84612 13.4187,55.6975 84.58298,80.5829 110.4022,131.7263 6.40305,12.6833 10.02697,41.4276 10.02697,41.4276 z"
       sodipodi:nodetypes="ccsccssccssc" />
    <path
       id="path7"
       style="fill:#502d16;fill-opacity:1;stroke-width:0.281177"
       d="m 988.42821,-11.253939 c -53.9628,0 -107.92554,0 -161.88834,0 -19.4458,56.6768 -14.5569,125.344799 19.8493,173.553589 42.8356,65.8062 50.62394,149.4839 59.20504,228.0847 9.3478,121.78 3.6134,247.0916 -29.49494,364.0417 -16.8048,50.3932 -57.8046,89.1145 -60.0018,145.6153 -2.8279,29.9535 1.0087,60.5704 10.4427,88.7047 53.9628,0 107.92554,0 161.88834,0 0,-333.3333 1e-4,-666.6666 -3e-4,-999.999989 z" />
    <rect
       style="fill:#decd87;stroke-width:0.264583"
       id="rect7"
       width="1219"
       height="1219"
       x="1342.9565"
       y="11.253946" />
    <path
       id="path8"
       style="fill:#502d16;fill-opacity:1;stroke-width:0.281177"
       d="m 2517.7578,205.82334 c -53.9628,0 -107.9256,0 -161.8884,0 -19.4457,56.6768 -14.5568,125.3448 19.8493,173.5535 42.8356,65.8062 50.6239,149.4839 59.2051,228.0848 9.3478,121.7799 3.6134,247.0915 -29.495,364.04158 -16.8048,50.39328 -57.8046,89.11448 -60.0018,145.61538 -2.8278,29.9534 1.0087,60.5703 10.4427,88.7047 53.9628,0 107.9256,0 161.8884,0 0,-333.33336 1e-4,-666.66666 -3e-4,-999.99996 z" />
    <path
       id="path9"
       style="fill:#502d16;stroke-width:0.264583"
       d="m 1342.9565,11.25394 h 700 c 0,0 4.9654,27.43857 -0.9262,47.98706 -29.8109,103.97212 -23.9574,433.97428 -2.8111,650.83356 l -126.1543,1.17938 c 0,0 71.069,-484.20734 -15.0671,-568.85987 -76.7868,-75.46424 -205.342,-48.57175 -275.341,2.21271 -99.8857,72.4673 -133.4771,566.64716 -133.4771,566.64716 h -146.2232 c 0,0 162.6227,-351.71207 120.4292,-526.84611 -13.4187,-55.69749 -84.583,-80.58291 -110.4022,-131.72624 -6.403,-12.68332 -10.027,-41.42765 -10.027,-41.42765 z"
       sodipodi:nodetypes="ccsccssccssc" />
    <path
       id="path10"
       style="fill:#502d16;stroke-width:0.264583"
       d="m 2224.4913,1218.4346 h -700 c 0,0 -4.9654,-27.4386 0.9263,-47.987 29.8109,-103.9722 23.9573,-433.97428 2.811,-650.83358 l 126.1543,-1.1794 c 0,0 -71.0689,484.20738 15.0672,568.85988 76.7868,75.4642 205.342,48.5717 275.341,-2.2127 99.8857,-72.4673 133.477,-566.64718 133.477,-566.64718 h 146.2232 c 0,0 -162.6226,351.71211 -120.4291,526.84608 13.4187,55.6975 84.5829,80.5829 110.4022,131.7263 6.403,12.6833 10.0269,41.4276 10.0269,41.4276 z"
       sodipodi:nodetypes="ccsccssccssc" />
    <path
       id="path11"
       style="fill:#502d16;fill-opacity:1;stroke-width:0.281177"
       d="m 2331.3847,0 c -53.9628,0 -107.9255,0 -161.8883,0 -19.4458,56.6768 -14.5569,125.3448 19.8493,173.55359 42.8356,65.8062 50.6239,149.4839 59.205,228.0847 9.3478,121.78 3.6134,247.0916 -29.4949,364.0417 -16.8048,50.3932 -57.8046,89.1145 -60.0018,145.61533 -2.8279,29.9535 1.0087,60.5704 10.4427,88.70468 53.9628,0 107.9255,0 161.8883,0 0,-333.33331 10e-5,-666.66661 -3e-4,-1000 z" />
  </g>
</svg>
