<?xml version="1.0" encoding="UTF-8" standalone="no"?>
<!-- Created with Inkscape (http://www.inkscape.org/) -->

<svg
   width="210mm"
   height="297mm"
   viewBox="0 0 210 297"
   version="1.1"
   id="svg1"
   inkscape:version="1.4.2 (f4327f4, 2025-05-13)"
   sodipodi:docname="MiniDeskLegs.svg"
   xmlns:inkscape="http://www.inkscape.org/namespaces/inkscape"
   xmlns:sodipodi="http://sodipodi.sourceforge.net/DTD/sodipodi-0.dtd"
   xmlns="http://www.w3.org/2000/svg"
   xmlns:svg="http://www.w3.org/2000/svg">
  <sodipodi:namedview
     id="namedview1"
     pagecolor="#ffffff"
     bordercolor="#000000"
     borderopacity="0.25"
     inkscape:showpageshadow="2"
     inkscape:pageopacity="0.0"
     inkscape:pagecheckerboard="0"
     inkscape:deskcolor="#d1d1d1"
     inkscape:document-units="mm"
     inkscape:zoom="0.06700861"
     inkscape:cx="544.70612"
     inkscape:cy="-37.308638"
     inkscape:window-width="1920"
     inkscape:window-height="1111"
     inkscape:window-x="-9"
     inkscape:window-y="941"
     inkscape:window-maximized="1"
     inkscape:current-layer="layer1" />
  <defs
     id="defs1" />
  <g
     inkscape:label="Layer 1"
     inkscape:groupmode="layer"
     id="layer1">
    <rect
       style="fill:#decd87;stroke-width:0.264583"
       id="rect7"
       width="1219"
       height="1219"
       x="1342.9565"
       y="11.253946" />
    <rect
       style="fill:#decd87;stroke-width:0.264583"
       id="rect3"
       width="1219"
       height="1219"
       x="-2.2737368e-13"
       y="0" />
    <path
       id="rect6"
       style="fill:#502d16;fill-opacity:1;stroke-width:0.281177"
       d="m 2544.93,218.26038 c -53.9628,0 -107.9256,0 -161.8884,0 -19.4458,56.6768 -14.5569,125.3448 19.8493,173.5535 42.8356,65.8062 50.6239,149.4839 59.2051,228.0848 9.3478,121.7799 3.6134,247.0915 -29.495,364.0416 -16.8048,50.39332 -57.8046,89.11452 -60.0018,145.61542 -2.8279,29.9534 1.0087,60.5703 10.4427,88.7047 53.9628,0 107.9256,0 161.8884,0 0,-333.33342 1e-4,-666.66672 -3e-4,-1000.00002 z" />
    <path
       id="rect1"
       style="fill:#502d16;stroke-width:0.264583"
       d="M 15.020493,342.88821 H 715.02051 c 0,0 4.96539,27.43857 -0.92627,47.98706 -29.81089,103.97215 -23.95733,433.97431 -2.81103,650.83363 l -126.15429,1.1793 c 0,0 71.06893,-484.2073 -15.06717,-568.85983 -76.78679,-75.46428 -205.34199,-48.57178 -275.341,2.21271 -99.88567,72.4673 -133.47702,566.64712 -133.47702,566.64712 H 15.020493 c 0,0 162.622677,-351.71203 120.429187,-526.84607 C 122.03098,460.34464 50.866687,435.45918 25.047472,384.31585 18.64442,371.63254 15.020493,342.88821 15.020493,342.88821 Z"
       sodipodi:nodetypes="ccsccssccssc" />
    <path
       id="rect1-8"
       style="fill:#502d16;stroke-width:0.264583"
       d="M 1003.9382,1232.8459 H 303.93819 c 0,0 -4.9654,-27.4386 0.9263,-47.987 29.8109,-103.9722 23.9573,-433.97429 2.811,-650.83359 l 126.1543,-1.1794 c 0,0 -71.0689,484.20739 15.0672,568.85989 76.78678,75.4642 205.34198,48.5717 275.34099,-2.2127 C 824.12365,1027.0258 857.715,532.84591 857.715,532.84591 h 146.2232 c 0,0 -162.62264,351.71211 -120.42915,526.84609 13.4187,55.6975 84.58298,80.5829 110.4022,131.7263 6.40305,12.6833 10.02695,41.4276 10.02695,41.4276 z"
       sodipodi:nodetypes="ccsccssccssc" />
    <path
       id="path7"
       style="fill:#502d16;fill-opacity:1;stroke-width:0.281177"
       d="m 1191.7758,233.55291 c -53.9628,0 -107.9255,0 -161.8883,0 -19.4458,56.6768 -14.5569,125.3448 19.8493,173.55359 42.8356,65.8062 50.6239,149.4839 59.205,228.0847 9.3478,121.78 3.6134,247.0916 -29.4949,364.0417 -16.8048,50.3932 -57.8046,89.1145 -60.0018,145.6153 -2.8279,29.9535 1.0087,60.5704 10.4427,88.7047 53.9628,0 107.9255,0 161.8883,0 0,-333.3333 10e-5,-666.6666 -3e-4,-999.99999 z" />
    <path
       id="path8"
       style="fill:#502d16;fill-opacity:1;stroke-width:0.281177"
       d="m 9.1873242,280.13693 c 56.6767398,19.4458 125.3449958,14.5568 173.5537458,-19.8494 65.80613,-42.8355 149.48406,-50.6241 228.08478,-59.2052 121.77988,-9.3477 247.09136,-3.6134 364.04136,29.4949 50.3931,16.8048 89.1146,57.8048 145.6154,60.002 29.9535,2.8279 60.5704,-1.0088 88.70469,-10.4428 V 174.97083 118.24813 13.082368 C 981.05291,3.6484679 950.43601,-0.18813208 920.48261,2.6396679 c -56.5008,2.1972 -95.2222,43.1972001 -145.6154,60.0020001 -116.95,33.10846 -242.26158,38.842662 -364.04136,29.49484 C 332.22503,83.555268 248.5472,75.766868 182.74107,32.931368 134.53241,-1.4747321 65.864064,-6.3632321 9.1873242,13.082368 v 105.166262 56.7222 z" />
    <path
       id="path9"
       style="fill:#502d16;stroke-width:0.264583"
       d="m 1364.6732,382.41272 h 700 c 0,0 4.9654,27.43857 -0.9262,47.98706 -29.8109,103.97212 -23.9574,433.97428 -2.8111,650.83352 l -126.1543,1.1794 c 0,0 71.069,-484.20732 -15.0671,-568.85985 -76.7868,-75.46424 -205.342,-48.57175 -275.341,2.21271 -99.8857,72.4673 -133.4771,566.64714 -133.4771,566.64714 h -146.2232 c 0,0 162.6227,-351.71205 120.4292,-526.84609 -13.4187,-55.69749 -84.583,-80.58291 -110.4022,-131.72624 -6.403,-12.68332 -10.027,-41.42765 -10.027,-41.42765 z"
       sodipodi:nodetypes="ccsccssccssc" />
    <path
       id="path10"
       style="fill:#502d16;stroke-width:0.264583"
       d="m 2356.766,1228.3058 h -700 c 0,0 -4.9654,-27.4386 0.9263,-47.987 29.8109,-103.9722 23.9573,-433.97424 2.811,-650.83354 l 126.1543,-1.1794 c 0,0 -71.0689,484.20734 15.0672,568.85984 76.7868,75.4642 205.342,48.5717 275.341,-2.2127 99.8857,-72.4673 133.477,-566.64714 133.477,-566.64714 h 146.2232 c 0,0 -162.6226,351.71211 -120.4291,526.84604 13.4187,55.6975 84.5829,80.5829 110.4022,131.7263 6.403,12.6833 10.0269,41.4276 10.0269,41.4276 z"
       sodipodi:nodetypes="ccsccssccssc" />
    <path
       id="path1"
       style="fill:#502d16;fill-opacity:1;stroke-width:0.281177"
       d="m 2365.4962,33.075093 c -56.6768,-19.4458 -125.345,-14.5568 -173.5538,19.8494 -65.8061,42.8355 -149.484,50.624097 -228.0848,59.205197 -121.7798,9.3477 -247.0913,3.6134 -364.0413,-29.494897 -50.3932,-16.8048 -89.1146,-57.8048 -145.6154,-60.002 -29.9535,-2.8279 -60.5704,1.0088 -88.7046,10.4428 v 105.165597 56.7227 105.1657 c 28.1343,9.4339 58.7512,13.2705 88.7046,10.4427 56.5008,-2.1972 95.2222,-43.1972 145.6154,-60.002 116.95,-33.1084 242.2616,-38.8426 364.0413,-29.4948 78.6009,8.5812 162.2787,16.3696 228.0848,59.2051 48.2087,34.4061 116.877,39.2946 173.5538,19.849 v -105.1662 -56.7222 z" />
    <rect
       style="fill:#502d16;stroke-width:0.264583"
       id="rect1-82"
       width="889"
       height="730"
       x="45.065388"
       y="-771.66156" />
  </g>
</svg>
