<?xml version="1.0" encoding="UTF-8" standalone="no"?>
<!-- Created with Inkscape (http://www.inkscape.org/) -->

<svg
   width="210mm"
   height="297mm"
   viewBox="0 0 210 297"
   version="1.1"
   id="svg1"
   inkscape:version="1.4.2 (f4327f4, 2025-05-13)"
   sodipodi:docname="MiniDeskLegsSwoop.svg"
   xmlns:inkscape="http://www.inkscape.org/namespaces/inkscape"
   xmlns:sodipodi="http://sodipodi.sourceforge.net/DTD/sodipodi-0.dtd"
   xmlns="http://www.w3.org/2000/svg"
   xmlns:svg="http://www.w3.org/2000/svg">
  <sodipodi:namedview
     id="namedview1"
     pagecolor="#ffffff"
     bordercolor="#000000"
     borderopacity="0.25"
     inkscape:showpageshadow="2"
     inkscape:pageopacity="0.0"
     inkscape:pagecheckerboard="0"
     inkscape:deskcolor="#d1d1d1"
     inkscape:document-units="mm"
     inkscape:zoom="32"
     inkscape:cx="22355.578"
     inkscape:cy="7965.3281"
     inkscape:window-width="1920"
     inkscape:window-height="1111"
     inkscape:window-x="-9"
     inkscape:window-y="941"
     inkscape:window-maximized="1"
     inkscape:current-layer="layer1" />
  <defs
     id="defs1">
    <rect
       x="-738.67335"
       y="13887.059"
       width="3355.6875"
       height="2564.2518"
       id="rect11" />
    <rect
       x="263.81191"
       y="14773.467"
       width="1667.2913"
       height="918.06546"
       id="rect10" />
    <rect
       x="5423.9729"
       y="14013.689"
       width="2912.4835"
       height="1625.0814"
       id="rect9" />
  </defs>
  <g
     inkscape:label="Layer 1"
     inkscape:groupmode="layer"
     id="layer1">
    <rect
       style="fill:#502d16;stroke-width:0.264583"
       id="rect1"
       width="889"
       height="730"
       x="-900"
       y="1800" />
    <rect
       style="fill:#ffe680;stroke-width:0.264583"
       id="rect2"
       width="1219.2"
       height="1219.2"
       x="2.2737368e-13"
       y="0" />
    <rect
       style="fill:#ffe680;stroke-width:0.264583"
       id="rect3"
       width="1219.2"
       height="1219.2"
       x="1500"
       y="0" />
    <path
       id="rect4"
       style="fill:#502d16;stroke-width:0.23154"
       d="m 2008.7982,1800 c 0,0 -60.532,140.5525 -68.2703,219.599 -16.1376,164.8431 68.2703,490.401 68.2703,490.401 h -107.902 c 0,0 22.0863,-509.8447 -155.2817,-513.7298 -181.2586,-3.9703 -304.17,513.7298 -304.17,513.7298 h -132.6463 c 0,0 226.6181,-358.9477 194.102,-539.2612 C 1490.8927,1904.1529 1308.7982,1800 1308.7982,1800 h 128.0795 c 0,0 155.4354,47.6378 249.8369,46.0682 C 1765.291,1844.7616 1918.2984,1800 1918.2984,1800 Z"
       sodipodi:nodetypes="csccsccsccscc"
       inkscape:export-filename="SwoopLeg.svg"
       inkscape:export-xdpi="96"
       inkscape:export-ydpi="96" />
    <path
       id="path4"
       style="fill:#502d16;stroke-width:0.23154"
       d="m 2125.461,1800.0002 c 0,0 182.0945,104.1525 194.1021,170.7384 32.5161,180.3135 -194.1021,539.2612 -194.1021,539.2612 h 132.6463 c 0,0 122.9114,-517.6997 304.1702,-513.7294 177.3679,3.8851 155.2815,513.7294 155.2815,513.7294 h 107.902 c 0,0 -84.4079,-325.5575 -68.2702,-490.4006 7.7383,-79.0465 68.2702,-219.599 68.2702,-219.599 h -64.8595 -25.6401 -481.4209 -12.3298 z" />
    <path
       id="rect5"
       style="fill:#0000ff;fill-opacity:0.562581;stroke-width:0.264583"
       d="M -7.8971924 3802.403 L -7.8971924 4202.4029 L 592.10288 4202.4029 L 592.10288 3802.403 L -7.8971924 3802.403 z M 107.45959 3923.6267 C 111.01814 3923.6267 114.64658 3924.0608 118.34523 3924.9294 C 122.0719 3925.77 126.07861 3927.2134 130.36569 3929.2589 L 130.36569 3939.1358 L 129.60914 3939.1358 C 128.74052 3938.4633 127.47961 3937.5807 125.82643 3936.4879 C 124.17324 3935.3951 122.54842 3934.4843 120.95127 3933.7558 C 119.01789 3932.8871 116.81796 3932.1726 114.35219 3931.6122 C 111.91445 3931.0238 109.14045 3930.7296 106.03022 3930.7296 C 99.0252 3930.7296 93.477207 3932.9854 89.386275 3937.4966 C 85.323363 3941.9798 83.292074 3948.0604 83.292074 3955.7379 C 83.292074 3963.8357 85.421778 3970.1402 89.680831 3974.6514 C 93.939883 3979.1347 99.740058 3981.3761 107.08132 3981.3761 C 109.77125 3981.3761 112.44683 3981.1101 115.10874 3980.5777 C 117.79866 3980.0453 120.15236 3979.3585 122.1698 3978.5179 L 122.1698 3963.1772 L 105.39977 3963.1772 L 105.39977 3955.864 L 130.40806 3955.864 L 130.40806 3982.7212 C 126.98961 3984.2904 123.24892 3985.663 119.18601 3986.8399 C 115.15111 3987.9887 111.2423 3988.5633 107.45959 3988.5633 C 102.5841 3988.5633 98.114535 3987.8908 94.051624 3986.5458 C 89.988712 3985.2008 86.528393 3983.1834 83.670345 3980.4935 C 80.784277 3977.7755 78.556673 3974.3849 76.987549 3970.322 C 75.418424 3966.2311 74.633687 3961.454 74.633687 3955.9901 C 74.633687 3945.9869 77.548129 3938.099 83.376306 3932.3269 C 89.232503 3926.5267 97.260281 3923.6267 107.45959 3923.6267 z M 278.90029 3924.3413 L 287.81086 3924.3413 L 287.81086 3932.5372 L 278.90029 3932.5372 L 278.90029 3924.3413 z M 303.10966 3926.905 L 311.01151 3926.905 L 311.01151 3940.3967 L 327.31904 3940.3967 L 327.31904 3947.0376 L 311.01151 3947.0376 L 311.01151 3968.4306 C 311.01151 3970.8964 311.06738 3972.8298 311.17946 3974.2308 C 311.29154 3975.6038 311.68365 3976.8929 312.35613 3978.0977 C 312.97257 3979.2186 313.81317 3980.0453 314.87794 3980.5777 C 315.97072 3981.0821 317.62426 3981.3342 319.83784 3981.3342 C 321.12677 3981.3342 322.47173 3981.1518 323.87274 3980.7875 C 325.27374 3980.3952 326.28247 3980.0733 326.89891 3979.8212 L 327.31904 3979.8212 L 327.31904 3986.9241 C 325.83397 3987.3164 324.20863 3987.6388 322.44337 3987.891 C 320.70612 3988.1431 319.151 3988.2692 317.77802 3988.2692 C 312.98659 3988.2692 309.34431 3986.9801 306.85052 3984.4023 C 304.35673 3981.8244 303.10966 3977.6916 303.10966 3972.0035 L 303.10966 3947.0376 L 297.77201 3947.0376 L 297.77201 3940.3967 L 303.10966 3940.3967 L 303.10966 3926.905 z M 163.82153 3939.0939 C 170.15406 3939.0939 175.02957 3940.9433 178.44802 3944.6419 C 181.89449 3948.3406 183.61773 3953.5943 183.61773 3960.4032 L 183.61773 3964.6903 L 149.02708 3964.6903 C 149.02708 3967.5764 149.46174 3970.0982 150.33036 3972.2557 C 151.19898 3974.3853 152.38967 3976.1362 153.90275 3977.5092 C 155.35979 3978.8541 157.08304 3979.8628 159.07246 3980.5353 C 161.08991 3981.2078 163.30316 3981.5441 165.71288 3981.5441 C 168.90717 3981.5441 172.11583 3980.9136 175.33813 3979.6527 C 178.58846 3978.3638 180.90013 3977.1029 182.27311 3975.87 L 182.69324 3975.87 L 182.69324 3984.4865 C 180.03133 3985.6073 177.31321 3986.5458 174.53922 3987.3024 C 171.76523 3988.0589 168.8513 3988.4372 165.79712 3988.4372 C 158.00753 3988.4372 151.9275 3986.3357 147.55637 3982.1326 C 143.18524 3977.9016 140.99966 3971.9051 140.99966 3964.1436 C 140.99966 3956.4661 143.08682 3950.3717 147.26181 3945.8604 C 151.46482 3941.3492 156.98463 3939.0939 163.82153 3939.0939 z M 218.71326 3939.0939 C 221.90755 3939.0939 224.61133 3939.7664 226.82491 3941.1114 C 229.06652 3942.4563 230.73389 3944.3195 231.82668 3946.7012 C 235.02097 3944.0113 237.93489 3942.0779 240.56878 3940.9011 C 243.20267 3939.6962 246.01869 3939.0939 249.01684 3939.0939 C 254.17254 3939.0939 257.9691 3940.6629 260.40684 3943.8011 C 262.87261 3946.9114 264.10584 3951.2687 264.10584 3956.8727 L 264.10584 3987.3442 L 256.204 3987.3442 L 256.204 3960.613 C 256.204 3958.5956 256.1061 3956.6484 255.90996 3954.771 C 255.74184 3952.8937 255.36357 3951.3944 254.77515 3950.2736 C 254.13068 3949.0687 253.20602 3948.1584 252.00116 3947.542 C 250.79629 3946.9256 249.0587 3946.617 246.78907 3946.617 C 244.57548 3946.617 242.36224 3947.1777 240.14865 3948.2985 C 237.93506 3949.3913 235.7213 3950.7922 233.50771 3952.5014 C 233.59177 3953.1458 233.66199 3953.9024 233.71803 3954.771 C 233.77407 3955.6116 233.80175 3956.4522 233.80175 3957.2928 L 233.80175 3987.3442 L 225.90042 3987.3442 L 225.90042 3960.613 C 225.90042 3958.5395 225.80201 3956.5785 225.60587 3954.7292 C 225.43775 3952.8518 225.05947 3951.3526 224.47105 3950.2318 C 223.82659 3949.0269 222.90193 3948.1304 221.69706 3947.542 C 220.4922 3946.9256 218.75512 3946.617 216.48549 3946.617 C 214.32795 3946.617 212.15621 3947.1495 209.97065 3948.2143 C 207.8131 3949.2791 205.65572 3950.6379 203.49817 3952.2911 L 203.49817 3987.3442 L 195.59633 3987.3442 L 195.59633 3940.3967 L 203.49817 3940.3967 L 203.49817 3945.6083 C 205.96394 3943.5628 208.41553 3941.9656 210.85328 3940.8168 C 213.31905 3939.668 215.93928 3939.0939 218.71326 3939.0939 z M 352.87303 3939.2619 C 355.67504 3939.2619 358.50542 3939.612 361.36347 3940.3125 C 364.24954 3940.9849 366.64527 3941.8117 368.55063 3942.7924 L 368.55063 3951.2405 L 368.12998 3951.2405 C 366.11254 3949.7554 363.66095 3948.5083 360.77488 3947.4996 C 357.88881 3946.4629 355.05894 3945.9447 352.28496 3945.9447 C 349.39889 3945.9447 346.96113 3946.5049 344.97171 3947.6257 C 342.98228 3948.7185 341.98739 3950.3577 341.98739 3952.5432 C 341.98739 3954.4766 342.58966 3955.9338 343.79452 3956.9145 C 344.97136 3957.8952 346.87708 3958.6938 349.51097 3959.3103 C 350.96801 3959.6465 352.59284 3959.9827 354.38612 3960.319 C 356.20743 3960.6552 357.72051 3960.9633 358.92538 3961.2435 C 362.59601 3962.0841 365.42639 3963.5275 367.41582 3965.5729 C 369.40524 3967.6464 370.39961 3970.3922 370.39961 3973.8107 C 370.39961 3978.0977 368.62051 3981.6144 365.06195 3984.3604 C 361.53142 3987.1064 356.69795 3988.479 350.56155 3988.479 C 347.08706 3988.479 343.89276 3988.0731 340.97867 3987.2605 C 338.0926 3986.4199 335.66869 3985.5091 333.70728 3984.5284 L 333.70728 3975.6602 L 334.12793 3975.6602 C 336.62171 3977.5375 339.39571 3979.0363 342.4499 3980.1571 C 345.50409 3981.2498 348.43185 3981.7962 351.23386 3981.7962 C 354.70835 3981.7962 357.42648 3981.236 359.38788 3980.1152 C 361.34929 3978.9944 362.32982 3977.2291 362.32982 3974.8194 C 362.32982 3972.9701 361.79778 3971.5692 360.73302 3970.6166 C 359.66826 3969.6639 357.62261 3968.8509 354.59644 3968.1785 C 353.47564 3967.9263 352.00458 3967.6321 350.18328 3967.2958 C 348.38999 3966.9596 346.75081 3966.5957 345.26575 3966.2034 C 341.1468 3965.1106 338.21852 3963.5135 336.48127 3961.4119 C 334.77205 3959.2824 333.9176 3956.6765 333.9176 3953.5943 C 333.9176 3951.661 334.30971 3949.8393 335.09427 3948.1301 C 335.90686 3946.4208 337.12573 3944.8939 338.7509 3943.549 C 340.32002 3942.232 342.3098 3941.1951 344.71953 3940.4385 C 347.15727 3939.654 349.87489 3939.2619 352.87303 3939.2619 z M 279.40465 3940.3967 L 287.30649 3940.3967 L 287.30649 3987.3442 L 279.40465 3987.3442 L 279.40465 3940.3967 z M 381.36949 3940.3967 L 389.27133 3940.3967 L 389.27133 3967.1279 C 389.27133 3969.5096 389.38358 3971.5552 389.60774 3973.2645 C 389.8319 3974.9457 390.30807 3976.3885 391.0366 3977.5934 C 391.79314 3978.8263 392.77367 3979.7227 393.97854 3980.2831 C 395.1834 3980.8435 396.93483 3981.1239 399.23248 3981.1239 C 401.27794 3981.1239 403.50555 3980.5914 405.91528 3979.5266 C 408.35302 3978.4618 410.62266 3977.103 412.72416 3975.4498 L 412.72416 3940.3967 L 420.62601 3940.3967 L 420.62601 3987.3442 L 412.72416 3987.3442 L 412.72416 3982.1326 C 410.06225 3984.2342 407.51225 3985.8451 405.0745 3986.9659 C 402.63675 3988.0867 399.94682 3988.6475 397.00471 3988.6475 C 392.07317 3988.6475 388.23458 3987.1482 385.48861 3984.1501 C 382.74265 3981.1239 381.36949 3976.6969 381.36949 3970.8687 L 381.36949 3940.3967 z M 163.4014 3945.6083 C 159.17036 3945.6083 155.79411 3946.8553 153.2723 3949.3491 C 150.77851 3951.8429 149.36332 3954.9393 149.02708 3958.638 L 175.92621 3958.638 C 175.89819 3954.491 174.84744 3951.2823 172.77395 3949.0127 C 170.72848 3946.7431 167.60441 3945.6083 163.4014 3945.6083 z M 151.92716 4031.0976 C 159.43654 4031.0976 164.91431 4033.8014 168.36078 4039.2093 C 171.83527 4044.5891 173.57287 4052.7292 173.57287 4063.629 C 173.57287 4074.865 171.8076 4083.1168 168.27707 4088.3846 C 164.77456 4093.6243 159.32446 4096.2445 151.92716 4096.2445 C 144.41778 4096.2445 138.92617 4093.5823 135.45168 4088.2585 C 132.00521 4082.9347 130.28197 4074.7531 130.28197 4063.7132 C 130.28197 4052.5892 132.03289 4044.379 135.5354 4039.0832 C 139.03791 4033.7594 144.50184 4031.0976 151.92716 4031.0976 z M 261.37371 4031.0976 C 268.88309 4031.0976 274.36086 4033.8014 277.80733 4039.2093 C 281.28182 4044.5891 283.01942 4052.7292 283.01942 4063.629 C 283.01942 4074.865 281.25415 4083.1168 277.72362 4088.3846 C 274.22111 4093.6243 268.77101 4096.2445 261.37371 4096.2445 C 253.86433 4096.2445 248.3722 4093.5823 244.89771 4088.2585 C 241.45124 4082.9347 239.728 4074.7531 239.728 4063.7132 C 239.728 4052.5892 241.47944 4044.379 244.98195 4039.0832 C 248.48446 4033.7594 253.94839 4031.0976 261.37371 4031.0976 z M 215.64472 4031.1818 C 217.2979 4031.1818 218.6849 4031.2516 219.8057 4031.3917 C 220.92651 4031.5318 222.06132 4031.7839 223.21015 4032.1482 L 223.21015 4040.1761 L 222.79002 4040.1761 C 222.00546 4039.7558 220.81477 4039.3637 219.21763 4038.9995 C 217.6485 4038.6072 216.037 4038.4109 214.38381 4038.4109 C 208.3595 4038.4109 203.55421 4040.3022 199.96764 4044.0849 C 196.38107 4047.8396 194.29339 4052.9253 193.70497 4059.3419 C 196.05866 4057.9129 198.37032 4056.8339 200.63995 4056.1054 C 202.9376 4055.3488 205.5855 4054.9706 208.58365 4054.9706 C 211.24556 4054.9706 213.58541 4055.2228 215.60286 4055.7271 C 217.64833 4056.2035 219.736 4057.1845 221.86553 4058.6696 C 224.33129 4060.3788 226.18063 4062.5362 227.41351 4065.142 C 228.67441 4067.7479 229.30487 4070.914 229.30487 4074.6407 C 229.30487 4081.0013 227.20335 4086.1992 223.00034 4090.2341 C 218.82535 4094.2409 213.69766 4096.2445 207.6173 4096.2445 C 204.53509 4096.2445 201.7329 4095.7679 199.2111 4094.8152 C 196.68929 4093.8625 194.46169 4092.4478 192.5283 4090.5705 C 190.11857 4088.2448 188.2554 4085.1622 186.93846 4081.3235 C 185.64954 4077.4847 185.00473 4072.8614 185.00473 4067.4535 C 185.00473 4061.9056 185.59315 4056.988 186.77 4052.7009 C 187.97486 4048.4139 189.88057 4044.6035 192.48644 4041.2691 C 194.95221 4038.1028 198.13215 4035.6369 202.02694 4033.8716 C 205.92174 4032.0783 210.461 4031.1818 215.64472 4031.1818 z M 103.34046 4032.3585 L 111.07384 4032.3585 L 111.07384 4070.6058 L 120.36268 4070.6058 L 120.36268 4077.331 L 111.07384 4077.331 L 111.07384 4094.9413 L 103.00405 4094.9413 L 103.00405 4077.331 L 73.036886 4077.331 L 73.036886 4067.6639 L 103.34046 4032.3585 z M 151.92716 4038.0326 C 149.29327 4038.0326 147.1077 4038.579 145.37045 4039.6718 C 143.66123 4040.7646 142.30242 4042.4176 141.2937 4044.6312 C 140.34102 4046.7046 139.68237 4049.4089 139.31811 4052.7433 C 138.98187 4056.0777 138.81375 4059.7343 138.81375 4063.7132 C 138.81375 4068.0843 138.96803 4071.741 139.27625 4074.6831 C 139.58447 4077.6252 140.24312 4080.2587 141.25184 4082.5844 C 142.17651 4084.77 143.47944 4086.4373 145.16065 4087.5862 C 146.86987 4088.735 149.12515 4089.3096 151.92716 4089.3096 C 154.56105 4089.3096 156.74662 4088.7632 158.48387 4087.6704 C 160.22111 4086.5776 161.56608 4084.9241 162.51876 4082.7105 C 163.49947 4080.4409 164.15811 4077.7791 164.49435 4074.7249 C 164.85861 4071.6427 165.04057 4067.9441 165.04057 4063.629 C 165.04057 4059.3699 164.85861 4055.6712 164.49435 4052.533 C 164.15811 4049.3948 163.48563 4046.733 162.4769 4044.5474 C 161.4962 4042.3899 160.15123 4040.7646 158.44201 4039.6718 C 156.7608 4038.579 154.58907 4038.0326 151.92716 4038.0326 z M 261.37371 4038.0326 C 258.73982 4038.0326 256.55425 4038.579 254.817 4039.6718 C 253.10778 4040.7646 251.74897 4042.4176 250.74025 4044.6312 C 249.78757 4046.7046 249.12892 4049.4089 248.76466 4052.7433 C 248.42842 4056.0777 248.2603 4059.7343 248.2603 4063.7132 C 248.2603 4068.0843 248.41458 4071.741 248.7228 4074.6831 C 249.03102 4077.6252 249.68915 4080.2587 250.69788 4082.5844 C 251.62254 4084.77 252.92548 4086.4373 254.60668 4087.5862 C 256.31591 4088.735 258.5717 4089.3096 261.37371 4089.3096 C 264.0076 4089.3096 266.19317 4088.7632 267.93042 4087.6704 C 269.66766 4086.5776 271.01263 4084.9241 271.96531 4082.7105 C 272.94601 4080.4409 273.60466 4077.7791 273.9409 4074.7249 C 274.30516 4071.6427 274.48712 4067.9441 274.48712 4063.629 C 274.48712 4059.3699 274.30516 4055.6712 273.9409 4052.533 C 273.60466 4049.3948 272.93218 4046.733 271.92345 4044.5474 C 270.94275 4042.3899 269.59778 4040.7646 267.88856 4039.6718 C 266.20735 4038.579 264.03562 4038.0326 261.37371 4038.0326 z M 103.00405 4042.3615 L 78.752816 4070.6058 L 103.00405 4070.6058 L 103.00405 4042.3615 z M 206.60858 4061.8637 C 204.22687 4061.8637 202.01311 4062.1441 199.96764 4062.7045 C 197.92217 4063.2649 195.82066 4064.1332 193.66311 4065.31 C 193.60707 4065.9264 193.56504 4066.5292 193.53702 4067.1176 C 193.509 4067.678 193.49517 4068.3926 193.49517 4069.2612 C 193.49517 4073.6884 193.94314 4077.1907 194.83979 4079.7685 C 195.76445 4082.3184 197.02536 4084.3358 198.6225 4085.8209 C 199.91143 4087.0538 201.29842 4087.9646 202.78349 4088.553 C 204.29657 4089.1134 205.93575 4089.3933 207.70102 4089.3933 C 211.76393 4089.3933 214.95823 4088.1606 217.28389 4085.6948 C 219.60956 4083.201 220.77257 4079.6284 220.77257 4074.9771 C 220.77257 4072.3712 220.38046 4070.2139 219.5959 4068.5046 C 218.83936 4066.7954 217.57845 4065.31 215.81318 4064.0491 C 214.52426 4063.1525 213.09523 4062.564 211.52611 4062.2838 C 209.95698 4062.0036 208.3178 4061.8637 206.60858 4061.8637 z " />
    <path
       id="rect6"
       style="fill:#502d16;stroke-width:0.105585"
       d="m -1800,1800 h 689 v 150 c 0,0 -95.404,-76.8359 -344.5,-76.8359 -250.4706,0 -344.5,76.8359 -344.5,76.8359 z"
       sodipodi:nodetypes="cccscc"
       inkscape:export-filename="SwoopFront.svg"
       inkscape:export-xdpi="96"
       inkscape:export-ydpi="96" />
    <path
       id="path6"
       style="fill:#502d16;stroke-width:0.0770829"
       d="m 3042.408,1800 c -41.0693,236.6665 -82.1387,473.3333 -123.208,709.9998 h 40.8002 c 63.2412,-179.4701 114.9552,-366.3991 218.6666,-527.953 38.8661,-56.752 91.0262,-119.832 165.727,-121.8513 76.7994,2.5775 129.4121,68.5074 168.7979,127.0691 101.2549,160.5659 152.7264,345.1477 215.2081,522.7352 H 3769.2 C 3728.1246,2273.3366 3687.0712,2036.6468 3645.982,1800 Z"
       inkscape:export-filename="SwoopBack.svg"
       inkscape:export-xdpi="96"
       inkscape:export-ydpi="96"
       sodipodi:nodetypes="cccccccccc" />
    <path
       id="rect7"
       style="fill:#502d16;stroke-width:0.264583"
       d="m 4030,1800 h 629 c 72.02,0 130,22.3 130,50 v 630 c 0,101.3385 -164.0809,0.644 -444.5,0.644 -280.1023,0 -444.5,100.1239 -444.5,-0.644 v -630 c 0,-27.7 57.98,-50 130,-50 z"
       sodipodi:nodetypes="ssssssss"
       inkscape:export-filename="SwoopTop.svg"
       inkscape:export-xdpi="96"
       inkscape:export-ydpi="96" />
    <path
       id="rect8"
       style="fill:#0000ff;fill-opacity:0.562581;stroke-width:0.264583"
       d="M 1232.3961 3310.661 L 1232.3961 4555.261 L 2476.9961 4555.261 L 2476.9961 3310.661 L 1232.3961 3310.661 z M 1501.7946 3720.9212 L 1509.696 3720.9212 L 1509.696 3786.3198 L 1501.7946 3786.3198 L 1501.7946 3720.9212 z M 1655.499 3720.9212 L 1663.4003 3720.9212 L 1663.4003 3786.3198 L 1655.499 3786.3198 L 1655.499 3720.9212 z M 1679.1197 3720.9212 L 1687.0211 3720.9212 L 1687.0211 3786.3198 L 1679.1197 3786.3198 L 1679.1197 3720.9212 z M 1631.3733 3723.3169 L 1640.2839 3723.3169 L 1640.2839 3731.5128 L 1631.3733 3731.5128 L 1631.3733 3723.3169 z M 1458.9657 3723.737 L 1470.0617 3723.737 L 1492.8422 3786.3198 L 1483.974 3786.3198 L 1477.8374 3768.8774 L 1450.7698 3768.8774 L 1444.6338 3786.3198 L 1436.1857 3786.3198 L 1458.9657 3723.737 z M 1559.88 3723.737 L 1571.2281 3723.737 L 1587.9144 3758.5799 L 1604.054 3723.737 L 1615.612 3723.737 L 1615.612 3786.3198 L 1607.29 3786.3198 L 1607.29 3732.3954 L 1589.8895 3769.0878 L 1584.9301 3769.0878 L 1567.6557 3732.3954 L 1567.6557 3786.3198 L 1559.88 3786.3198 L 1559.88 3723.737 z M 1525.4997 3725.8806 L 1533.401 3725.8806 L 1533.401 3739.3723 L 1549.709 3739.3723 L 1549.709 3746.0132 L 1533.401 3746.0132 L 1533.401 3767.4062 C 1533.401 3769.872 1533.4574 3771.8054 1533.5694 3773.2064 C 1533.6815 3774.5794 1534.0736 3775.8685 1534.7461 3777.0733 C 1535.3626 3778.1941 1536.2032 3779.0209 1537.2679 3779.5533 C 1538.3607 3780.0576 1540.0137 3780.3098 1542.2273 3780.3098 C 1543.5162 3780.3098 1544.8612 3780.1273 1546.2622 3779.7631 C 1547.6632 3779.3708 1548.6719 3779.0489 1549.2884 3778.7967 L 1549.709 3778.7967 L 1549.709 3785.8997 C 1548.224 3786.2919 1546.5986 3786.6143 1544.8334 3786.8665 C 1543.0961 3787.1187 1541.541 3787.2448 1540.168 3787.2448 C 1535.3766 3787.2448 1531.7338 3785.9557 1529.24 3783.3779 C 1526.7462 3780.8 1525.4997 3776.6672 1525.4997 3770.9791 L 1525.4997 3746.0132 L 1520.1615 3746.0132 L 1520.1615 3739.3723 L 1525.4997 3739.3723 L 1525.4997 3725.8806 z M 1464.3039 3731.0084 L 1453.2917 3761.7321 L 1475.2738 3761.7321 L 1464.3039 3731.0084 z M 1631.8777 3739.3723 L 1639.7795 3739.3723 L 1639.7795 3786.3198 L 1631.8777 3786.3198 L 1631.8777 3739.3723 z " />
    <text
       xml:space="preserve"
       transform="scale(0.26458333)"
       id="text10"
       style="font-size:325.333px;text-align:start;writing-mode:lr-tb;direction:ltr;white-space:pre;shape-inside:url(#rect11);display:inline;fill:#0000ff;fill-opacity:0.562581" />
    <rect
       style="fill:#0000ff;fill-opacity:0.562581;stroke-width:0.264583"
       id="rect14"
       width="19.5"
       height="800"
       x="-3297.7998"
       y="2291.8633"
       transform="matrix(-0.98487088,0.17328978,0.17328978,0.98487088,0,0)" />
    <path
       id="path16"
       style="fill:#0000ff;fill-opacity:0.562581;stroke-width:0.261743"
       d="M 323.518,1800 C 311.81998,1934.2104 311.8194,1934.2108 297.72,2096.058 304.1324,1818.2531 200,1800 200,1800 Z m 641.964,0 c 11.69802,134.2104 11.6986,134.2108 25.798,296.058 C 984.8676,1818.2531 1089,1800 1089,1800 Z"
       inkscape:export-filename="SwoopFrontBrace.svg"
       inkscape:export-xdpi="96"
       inkscape:export-ydpi="96" />
    <path
       id="path17"
       style="fill:#502d16;stroke-width:0.23154"
       d="m 1799.7188,1168.9484 c 0,0 60.532,-140.5525 68.2703,-219.59898 16.1376,-164.8431 -68.2703,-490.401 -68.2703,-490.401 h 107.902 c 0,0 -22.0863,509.8447 155.2817,513.7298 181.2586,3.9703 304.17,-513.7298 304.17,-513.7298 h 132.6463 c 0,0 -226.6181,358.9477 -194.102,539.26121 12.0075,66.58587 194.102,170.73877 194.102,170.73877 h -128.0795 c 0,0 -155.4354,-47.6378 -249.8369,-46.0682 -78.5764,1.3066 -231.5838,46.0682 -231.5838,46.0682 z"
       sodipodi:nodetypes="csccsccsccscc"
       inkscape:export-filename="SwoopLeg.svg"
       inkscape:export-xdpi="96"
       inkscape:export-ydpi="96" />
    <path
       id="path18"
       style="fill:#502d16;stroke-width:0.23154"
       d="m 2655.3766,75.790796 c 0,0 -60.532,140.552504 -68.2703,219.599004 -16.1376,164.84314 68.2703,490.40104 68.2703,490.40104 h -107.902 c 0,0 22.0863,-509.84474 -155.2817,-513.72984 -181.2586,-3.9703 -304.17,513.72984 -304.17,513.72984 h -132.6463 c 0,0 226.6181,-358.9477 194.102,-539.26124 -12.0075,-66.5859 -194.102,-170.738804 -194.102,-170.738804 h 128.0795 c 0,0 155.4354,47.637804 249.8369,46.068204 78.5764,-1.3066 231.5838,-46.068204 231.5838,-46.068204 z"
       sodipodi:nodetypes="csccsccsccscc"
       inkscape:export-filename="SwoopLeg.svg"
       inkscape:export-xdpi="96"
       inkscape:export-ydpi="96" />
    <path
       id="path19"
       style="fill:#0000ff;fill-opacity:0.562581;stroke-width:0.261743"
       d="m 419.3074,566.7115 c -11.698,134.2104 -11.6986,134.2108 -25.798,296.058 6.4124,-277.8049 -97.72,-296.058 -97.72,-296.058 z m 641.964,0 c 11.698,134.2104 11.6986,134.2108 25.798,296.058 -6.4124,-277.8049 97.72,-296.058 97.72,-296.058 z"
       inkscape:export-filename="SwoopFrontBrace.svg"
       inkscape:export-xdpi="96"
       inkscape:export-ydpi="96" />
    <path
       id="path20"
       style="fill:#502d16;stroke-width:0.0770829"
       d="m 264.51546,63.817165 c -41.0693,236.666505 -82.1387,473.333305 -123.208,709.999845 h 40.8002 c 63.2412,-179.47014 114.9552,-366.39914 218.6666,-527.95304 38.8661,-56.752 91.0262,-119.832 165.727,-121.8513 76.7994,2.5775 129.4121,68.5074 168.7979,127.0691 101.2549,160.5659 152.7264,345.1477 215.2081,522.73524 h 40.8002 C 950.23206,537.15377 909.17866,300.46397 868.08946,63.817165 Z"
       inkscape:export-filename="SwoopBack.svg"
       inkscape:export-xdpi="96"
       inkscape:export-ydpi="96"
       sodipodi:nodetypes="cccccccccc" />
    <path
       id="path21"
       style="fill:#0000ff;fill-opacity:0.562581;stroke-width:0.261743"
       d="m 5224.518,1800 c -34.4412,208.988 -34.4514,208.9858 -116.518,710 34.4583,-641.8716 88.6111,-642.3477 -8,-710 123.3945,0.097 124.518,0 124.518,0 z m 639.964,0 c 50.3833,307.0267 50.3754,307.012 116.518,710 -34.4582,-641.8716 -88.6111,-642.3477 8,-710 -123.3944,0.097 -124.518,0 -124.518,0 z"
       inkscape:export-filename="SwoopFrontBrace2.svg"
       inkscape:export-xdpi="96"
       inkscape:export-ydpi="96"
       sodipodi:nodetypes="cccccccc" />
  </g>
</svg>
