<?xml version="1.0" encoding="UTF-8" standalone="no"?>
<!-- Created with Inkscape (http://www.inkscape.org/) -->

<svg
   width="210mm"
   height="297mm"
   viewBox="0 0 210 297"
   version="1.1"
   id="svg1"
   inkscape:version="1.4.2 (f4327f4, 2025-05-13)"
   sodipodi:docname="MiniDeskLegsSwoop.svg"
   xmlns:inkscape="http://www.inkscape.org/namespaces/inkscape"
   xmlns:sodipodi="http://sodipodi.sourceforge.net/DTD/sodipodi-0.dtd"
   xmlns="http://www.w3.org/2000/svg"
   xmlns:svg="http://www.w3.org/2000/svg">
  <sodipodi:namedview
     id="namedview1"
     pagecolor="#ffffff"
     bordercolor="#000000"
     borderopacity="0.25"
     inkscape:showpageshadow="2"
     inkscape:pageopacity="0.0"
     inkscape:pagecheckerboard="0"
     inkscape:deskcolor="#d1d1d1"
     inkscape:document-units="mm"
     inkscape:zoom="0.094764485"
     inkscape:cx="13971.479"
     inkscape:cy="9956.2616"
     inkscape:window-width="1920"
     inkscape:window-height="1111"
     inkscape:window-x="-9"
     inkscape:window-y="941"
     inkscape:window-maximized="1"
     inkscape:current-layer="layer1" />
  <defs
     id="defs1" />
  <g
     inkscape:label="Layer 1"
     inkscape:groupmode="layer"
     id="layer1">
    <rect
       style="fill:#502d16;stroke-width:0.264583"
       id="rect1"
       width="889"
       height="730"
       x="2.2737368e-13"
       y="1800" />
    <rect
       style="fill:#ffe680;stroke-width:0.264583"
       id="rect2"
       width="1219.2"
       height="1219.2"
       x="2.2737368e-13"
       y="0" />
    <rect
       style="fill:#ffe680;stroke-width:0.264583"
       id="rect3"
       width="1219.2"
       height="1219.2"
       x="1500"
       y="0" />
    <path
       id="rect4"
       style="fill:#502d16;stroke-width:0.23154"
       d="m 2008.7982,1800 c 0,0 -60.532,140.5525 -68.2703,219.599 -16.1376,164.8431 68.2703,490.401 68.2703,490.401 h -107.902 c 0,0 22.0863,-509.8447 -155.2817,-513.7298 -181.2586,-3.9703 -304.17,513.7298 -304.17,513.7298 h -132.6463 c 0,0 226.6181,-358.9477 194.102,-539.2612 C 1490.8927,1904.1529 1308.7982,1800 1308.7982,1800 h 128.0795 c 0,0 155.4354,47.6378 249.8369,46.0682 C 1765.291,1844.7616 1918.2984,1800 1918.2984,1800 Z"
       sodipodi:nodetypes="csccsccsccscc"
       inkscape:export-filename="SwoopLeg.svg"
       inkscape:export-xdpi="96"
       inkscape:export-ydpi="96" />
    <path
       id="path4"
       style="fill:#502d16;stroke-width:0.23154"
       d="m 2125.461,1800.0002 c 0,0 182.0945,104.1525 194.1021,170.7384 32.5161,180.3135 -194.1021,539.2612 -194.1021,539.2612 h 132.6463 c 0,0 122.9114,-517.6997 304.1702,-513.7294 177.3679,3.8851 155.2815,513.7294 155.2815,513.7294 h 107.902 c 0,0 -84.4079,-325.5575 -68.2702,-490.4006 7.7383,-79.0465 68.2702,-219.599 68.2702,-219.599 h -64.8595 -25.6401 -481.4209 -12.3298 z" />
    <rect
       style="fill:#0000ff;fill-opacity:0.562581;stroke-width:0.264583"
       id="rect5"
       width="600"
       height="400"
       x="-7.8969946"
       y="3802.4031" />
    <path
       id="rect6"
       style="fill:#502d16;stroke-width:0.105585"
       d="m 100,2644.9785 h 689 v 150 c 0,0 -95.40403,-76.8359 -344.5,-76.8359 -250.47056,0 -344.5,76.8359 -344.5,76.8359 z"
       sodipodi:nodetypes="cccscc"
       inkscape:export-filename="SwoopFront.svg"
       inkscape:export-xdpi="96"
       inkscape:export-ydpi="96" />
    <path
       id="path6"
       style="fill:#502d16;stroke-width:0.0771085"
       d="m 1450.3862,2704.206 h 689 v 80 c 0,0 -95.4041,-40.9791 -344.5,-40.9791 -250.4706,0 -344.5,40.9791 -344.5,40.9791 z"
       sodipodi:nodetypes="cccscc"
       inkscape:export-filename="SwoopBack.svg"
       inkscape:export-xdpi="96"
       inkscape:export-ydpi="96" />
    <path
       id="rect7"
       style="fill:#502d16;stroke-width:0.264583"
       d="m 3330,1800 h 629 c 72.02,0 130,22.3 130,50 v 630 c 0,101.3385 -164.0809,0.644 -444.5,0.644 -280.1023,0 -444.5,100.1239 -444.5,-0.644 v -630 c 0,-27.7 57.98,-50 130,-50 z"
       sodipodi:nodetypes="ssssssss"
       inkscape:export-filename="SwoopTop.svg"
       inkscape:export-xdpi="96"
       inkscape:export-ydpi="96" />
  </g>
</svg>
