<?xml version="1.0" encoding="UTF-8" standalone="no"?>
<!-- Created with Inkscape (http://www.inkscape.org/) -->

<svg
   width="210mm"
   height="297mm"
   viewBox="0 0 210 297"
   version="1.1"
   id="svg1"
   xml:space="preserve"
   inkscape:version="1.3.2 (091e20e, 2023-11-25, custom)"
   sodipodi:docname="BarClampVision.svg"
   xmlns:inkscape="http://www.inkscape.org/namespaces/inkscape"
   xmlns:sodipodi="http://sodipodi.sourceforge.net/DTD/sodipodi-0.dtd"
   xmlns="http://www.w3.org/2000/svg"
   xmlns:svg="http://www.w3.org/2000/svg"><sodipodi:namedview
     id="namedview1"
     pagecolor="#ffffff"
     bordercolor="#000000"
     borderopacity="0.25"
     inkscape:showpageshadow="2"
     inkscape:pageopacity="0.0"
     inkscape:pagecheckerboard="0"
     inkscape:deskcolor="#d1d1d1"
     inkscape:document-units="mm"
     inkscape:zoom="1.9578168"
     inkscape:cx="61.037376"
     inkscape:cy="1196.4858"
     inkscape:window-width="1920"
     inkscape:window-height="991"
     inkscape:window-x="-9"
     inkscape:window-y="-9"
     inkscape:window-maximized="1"
     inkscape:current-layer="layer1" /><defs
     id="defs1" /><g
     inkscape:label="Layer 1"
     inkscape:groupmode="layer"
     id="layer1"><path
       id="path2"
       style="fill:none;stroke:#000000;stroke-width:0.401501"
       d="m -3.809887,288.468 c -6.04783,10e-4 -11.71132,3.1994 -15.80841,7.47766 -1.78931,2.53487 -2.92055,5.6297 -2.95317,8.74047 -0.14233,1.21143 1.06506,0.75964 1.79839,0.83975 1.08422,0.11827 -0.2277,-1.88495 0.45668,-2.6277 0.57372,-2.94589 1.82514,-5.95166 4.32101,-7.7712 3.84365,-3.31033 8.86912,-5.46875 14.00839,-5.07501 5.99826,0.10058 12.34869,1.27827 17.04202,5.27636 1.85097,1.58103 3.94605,3.13138 4.96103,5.41375 0.60605,1.51016 0.67101,3.19532 0.37982,4.78377 0.66284,0 1.32567,0 1.98851,0 0.59252,-2.86528 -0.12732,-6.07873 -2.36545,-8.07425 -3.19754,-3.27962 -6.99134,-6.14286 -11.45237,-7.41708 -3.99617,-1.25125 -8.21235,-1.55105 -12.37645,-1.56652 z" /></g></svg>
