<?xml version="1.0" encoding="UTF-8" standalone="no"?>
<!-- Created with Inkscape (http://www.inkscape.org/) -->

<svg
   width="210mm"
   height="297mm"
   viewBox="0 0 210 297"
   version="1.1"
   id="svg1"
   inkscape:version="1.3 (0e150ed6c4, 2023-07-21)"
   sodipodi:docname="RemoteClampLong.svg"
   xmlns:inkscape="http://www.inkscape.org/namespaces/inkscape"
   xmlns:sodipodi="http://sodipodi.sourceforge.net/DTD/sodipodi-0.dtd"
   xmlns="http://www.w3.org/2000/svg"
   xmlns:svg="http://www.w3.org/2000/svg">
  <sodipodi:namedview
     id="namedview1"
     pagecolor="#ffffff"
     bordercolor="#000000"
     borderopacity="0.25"
     inkscape:showpageshadow="2"
     inkscape:pageopacity="0.0"
     inkscape:pagecheckerboard="0"
     inkscape:deskcolor="#d1d1d1"
     inkscape:document-units="mm"
     inkscape:zoom="3.9156337"
     inkscape:cx="104.83616"
     inkscape:cy="1246.1585"
     inkscape:window-width="3840"
     inkscape:window-height="2054"
     inkscape:window-x="3829"
     inkscape:window-y="-11"
     inkscape:window-maximized="1"
     inkscape:current-layer="layer1" />
  <defs
     id="defs1" />
  <g
     inkscape:label="Layer 1"
     inkscape:groupmode="layer"
     id="layer1">
    <path
       id="path1"
       style="fill:#4d4d4d;fill-opacity:0.442348;stroke:none;stroke-width:0.27984;stroke-opacity:1"
       d="M -42.96637 291.38687 C -43.071475 291.39554 -43.176206 291.41626 -43.277462 291.44216 L -44.3637 292.16356 C -45.070665 292.91444 -45.552411 294.1651 -45.768266 295.31169 C -45.868379 295.74482 -45.905178 296.18601 -45.891772 296.62686 C -45.890404 296.69839 -45.894927 296.77664 -45.890222 296.8439 C -45.888522 296.8696 -45.885087 296.89519 -45.882987 296.92089 C -45.874347 297.02378 -45.864195 297.12645 -45.849915 297.22889 C -45.842615 297.28215 -45.832876 297.33495 -45.824076 297.38805 C -45.811976 297.46005 -45.800626 297.53194 -45.785836 297.60354 C -45.770396 297.67923 -45.751516 297.75417 -45.733126 297.82937 C -45.720386 297.88091 -45.708468 297.93258 -45.694368 297.98388 C -45.667359 298.08294 -45.636948 298.18115 -45.604968 298.27895 C -45.598618 298.29825 -45.592865 298.31763 -45.586365 298.33683 C -45.502192 298.58602 -45.401858 298.83014 -45.287158 299.06805 C -45.201279 299.24618 -45.099025 299.41546 -44.997253 299.58533 C -44.953719 299.65802 -44.914849 299.73292 -44.868579 299.80392 C -44.733618 300.0107 -44.589057 300.21085 -44.431913 300.40079 C -44.424803 300.40939 -44.417826 300.41762 -44.410726 300.42662 C -44.258153 300.60912 -44.096257 300.78273 -43.924967 300.94649 C -43.872175 300.99747 -43.8192 301.04787 -43.764771 301.09687 C -43.750261 301.10987 -43.735982 301.12282 -43.721362 301.13562 C -42.895137 301.8663 -41.888886 302.37141 -40.795959 302.50557 C -40.64099 302.52459 -40.484416 302.53651 -40.326221 302.54019 C -40.325182 302.54021 -40.324159 302.54017 -40.32312 302.54019 L -39.420333 302.54019 L -39.417232 302.54019 C -39.074068 302.55265 -38.71193 302.54717 -38.349597 302.54019 C -38.348545 302.54017 -38.347549 302.54021 -38.346497 302.54019 L -37.368262 302.54019 L -37.365161 302.54019 L -13.527856 302.54019 L -13.527856 302.55828 L -13.220898 302.55828 L 13.225549 302.55828 L 13.532507 302.55828 L 13.532507 302.54019 L 37.372913 302.54019 L 38.351147 302.54019 L 38.354248 302.54019 C 38.716577 302.54716 39.078831 302.55275 39.421883 302.54019 C 39.42288 302.54015 39.423987 302.54023 39.424984 302.54019 L 40.327771 302.54019 C 40.487005 302.53649 40.644646 302.52481 40.80061 302.50557 C 41.893537 302.37141 42.899788 301.8663 43.726013 301.13562 C 43.740633 301.12282 43.754911 301.10987 43.769421 301.09687 C 43.823851 301.04787 43.876825 300.99747 43.929618 300.94649 C 44.100908 300.78273 44.262804 300.60912 44.415377 300.42662 C 44.422477 300.41762 44.429454 300.40939 44.436564 300.40079 C 44.593708 300.21085 44.738269 300.0107 44.87323 299.80392 C 44.9195 299.73292 44.95837 299.65802 45.001904 299.58533 C 45.103676 299.41546 45.20593 299.24618 45.291809 299.06805 C 45.406509 298.83014 45.506843 298.58602 45.591016 298.33683 C 45.597516 298.31763 45.603269 298.29825 45.609619 298.27895 C 45.641599 298.18115 45.672009 298.08294 45.699019 297.98388 C 45.713119 297.93258 45.725037 297.88091 45.737777 297.82937 C 45.756167 297.75417 45.775047 297.67923 45.790487 297.60354 C 45.805277 297.53194 45.816627 297.46005 45.828727 297.38805 C 45.837527 297.33495 45.847265 297.28215 45.854565 297.22889 C 45.868845 297.12645 45.878998 297.02378 45.887638 296.92089 C 45.889738 296.89519 45.893173 296.8696 45.894873 296.8439 C 45.899847 296.7728 45.895693 296.69032 45.89694 296.61445 C 45.909272 296.176 45.872435 295.73722 45.7724 295.30652 C 45.556055 294.16132 45.074262 292.91332 44.368351 292.16356 L 43.282113 291.44216 C 42.87709 291.33857 42.418647 291.31648 42.088904 291.82818 C 41.883191 292.14741 42.012171 292.53375 42.216545 292.78058 C 42.398042 292.99977 43.025467 292.99086 43.027348 293.05085 C 43.027338 293.051 43.027357 293.05121 43.027348 293.05136 C 43.048078 293.08146 43.065285 293.11253 43.085225 293.14283 C 43.302486 294.11768 43.801181 295.03068 43.889311 296.0734 C 43.83152 297.64204 43.084873 299.16712 41.920955 300.20183 C 40.931319 300.97858 39.680574 301.44016 38.428145 301.50976 L 37.690723 301.50976 L 13.532507 301.50976 L 13.532507 301.49788 L 13.225549 301.49788 L 7.5426921 301.49788 C 7.5378421 301.49754 7.5330717 301.49581 7.5282227 301.49581 L 7.5251221 301.49581 L 2.8137817 301.49581 L 2.8106812 301.49581 C 2.8115712 301.49681 2.812373 301.49723 2.813265 301.49788 L -2.8086141 301.49788 C -2.8077221 301.49723 -2.8069203 301.49681 -2.8060303 301.49581 L -2.8091309 301.49581 L -7.5204712 301.49581 L -7.5235718 301.49581 C -7.5284208 301.49581 -7.5331912 301.49754 -7.5380412 301.49788 L -13.220898 301.49788 L -13.527856 301.49788 L -13.527856 301.50976 L -37.682971 301.50976 L -37.686072 301.50976 L -38.423494 301.50976 C -39.675923 301.44016 -40.926669 300.97858 -41.916305 300.20183 C -43.080222 299.16712 -43.826869 297.64204 -43.88466 296.0734 C -43.79653 295.03068 -43.297835 294.11768 -43.080575 293.14283 C -43.060635 293.11253 -43.043427 293.08146 -43.022697 293.05136 C -43.022707 293.05121 -43.022687 293.051 -43.022697 293.05085 C -43.020825 292.99086 -42.393392 292.99977 -42.211894 292.78058 C -42.00752 292.53375 -41.87854 292.14741 -42.084253 291.82818 C -42.331561 291.44441 -42.651053 291.36085 -42.96637 291.38687 z " />
  </g>
</svg>
