<?xml version="1.0" encoding="UTF-8" standalone="no"?>
<!-- Created with Inkscape (http://www.inkscape.org/) -->

<svg
   width="210mm"
   height="297mm"
   viewBox="0 0 210 297"
   version="1.1"
   id="svg1"
   inkscape:version="1.3.2 (091e20e, 2023-11-25, custom)"
   sodipodi:docname="RemoteClamp.svg"
   xmlns:inkscape="http://www.inkscape.org/namespaces/inkscape"
   xmlns:sodipodi="http://sodipodi.sourceforge.net/DTD/sodipodi-0.dtd"
   xmlns="http://www.w3.org/2000/svg"
   xmlns:svg="http://www.w3.org/2000/svg">
  <sodipodi:namedview
     id="namedview1"
     pagecolor="#ffffff"
     bordercolor="#000000"
     borderopacity="0.25"
     inkscape:showpageshadow="2"
     inkscape:pageopacity="0.0"
     inkscape:pagecheckerboard="0"
     inkscape:deskcolor="#d1d1d1"
     inkscape:document-units="mm"
     inkscape:zoom="1.9578168"
     inkscape:cx="107.00695"
     inkscape:cy="1084.1157"
     inkscape:window-width="1920"
     inkscape:window-height="991"
     inkscape:window-x="-9"
     inkscape:window-y="-9"
     inkscape:window-maximized="1"
     inkscape:current-layer="layer1" />
  <defs
     id="defs1" />
  <g
     inkscape:label="Layer 1"
     inkscape:groupmode="layer"
     id="layer1">
    <path
       id="path2"
       style="fill:#4d4d4d;fill-opacity:0.442348;stroke:#000000;stroke-width:0.27984"
       d="m -20.212746,291.46568 c -0.201407,0.0273 -0.58233,0.43926 -1.287764,1.54511 l -0.0155,0.0129 c -1.053666,1.1191 -1.441756,2.47925 -1.34616,3.81681 7.65e-4,0.011 0.0023,0.022 0.0031,0.0331 0.0089,0.11497 0.02021,0.22972 0.03617,0.34416 0.0073,0.0531 0.01708,0.10572 0.02584,0.15864 0.0121,0.072 0.02345,0.14387 0.03824,0.21549 0.01544,0.0757 0.03432,0.15067 0.05271,0.22583 0.01274,0.0515 0.02465,0.10325 0.03876,0.15451 0.02544,0.0933 0.05437,0.18581 0.08423,0.27802 0.0086,0.0263 0.01637,0.0528 0.02532,0.0791 0.08389,0.24778 0.183579,0.49047 0.297654,0.72709 0.08588,0.17813 0.188131,0.3474 0.289902,0.51727 0.04354,0.0727 0.0824,0.1476 0.128673,0.21859 0.134962,0.20678 0.27952,0.40692 0.436662,0.59686 0.0071,0.009 0.01404,0.0173 0.02119,0.0258 0.152572,0.1825 0.314464,0.35611 0.485754,0.51987 0.05279,0.051 0.105761,0.10133 0.160196,0.15038 0.01451,0.0129 0.02879,0.026 0.04341,0.0388 0.943382,0.83428 2.121231,1.37498 3.395112,1.40456 h 0.90588 c 0.34405,0.0126 0.707342,0.007 1.070726,0 h 0.981327 28.682238 0.981326 c 0.363385,0.007 0.726677,0.0126 1.070727,0 h 0.90588 c 1.27388,-0.0296 2.45173,-0.57028 3.395112,-1.40456 0.01462,-0.0128 0.0289,-0.0258 0.04341,-0.0388 0.05443,-0.049 0.107402,-0.0994 0.160195,-0.15038 0.17129,-0.16376 0.333182,-0.33737 0.485755,-0.51987 0.0071,-0.009 0.01408,-0.0172 0.02119,-0.0258 0.157144,-0.18994 0.301702,-0.39008 0.436663,-0.59686 0.04627,-0.071 0.08514,-0.1459 0.128672,-0.21859 0.101772,-0.16987 0.204024,-0.33914 0.289903,-0.51727 0.1147,-0.23791 0.215031,-0.48203 0.299204,-0.73122 0.0065,-0.0192 0.01225,-0.0386 0.0186,-0.0579 0.03198,-0.0978 0.06239,-0.19601 0.0894,-0.29507 0.0141,-0.0513 0.02602,-0.10297 0.03876,-0.15451 0.01839,-0.0752 0.03727,-0.15014 0.05271,-0.22583 0.01479,-0.0716 0.02614,-0.14349 0.03824,-0.21549 0.0088,-0.0531 0.01854,-0.10589 0.02584,-0.15915 0.01428,-0.10244 0.02443,-0.20511 0.03307,-0.308 0.0021,-0.0257 0.0055,-0.0513 0.0072,-0.077 0.09339,-1.3349 -0.295708,-2.69176 -1.347193,-3.80855 l -0.0155,-0.0129 c -1.130428,-1.77208 -1.422912,-1.7519 -1.488785,-1.24591 l -0.01085,-0.009 v 5.2e-4 c -0.0674,0.37374 -0.05553,0.72766 -0.0036,1.07227 -4.71e-4,0.0683 0.0055,0.14994 0.0016,0.21084 0.02095,0.0304 0.03825,0.0619 0.05839,0.0925 0.217393,0.97446 0.715461,1.88718 0.803561,2.92953 -0.05779,1.56867 -0.804414,3.0937 -1.968338,4.12841 -0.98964,0.77678 -2.240346,1.23838 -3.492779,1.30793 h -0.740559 -29.317851 -0.740518 c -1.252433,-0.0696 -2.503139,-0.53115 -3.492779,-1.30793 -1.163923,-1.03471 -1.910547,-2.55974 -1.968338,-4.12841 0.08813,-1.04272 0.586816,-1.95571 0.804078,-2.93056 0.01994,-0.0303 0.03715,-0.0614 0.05788,-0.0915 -0.0038,-0.0593 0.0021,-0.13885 0.0015,-0.20515 0.05268,-0.34637 0.06415,-0.70219 -0.0036,-1.07796 v -5.2e-4 l -0.01085,0.009 c -0.02477,-0.19023 -0.07968,-0.31563 -0.20102,-0.2992 z" />
  </g>
</svg>
