<?xml version="1.0" encoding="UTF-8" standalone="no"?>
<!-- Created with Inkscape (http://www.inkscape.org/) -->

<svg
   width="210mm"
   height="297mm"
   viewBox="0 0 210 297"
   version="1.1"
   id="svg1"
   inkscape:version="1.3.2 (091e20e, 2023-11-25, custom)"
   sodipodi:docname="RemoteClampLong.svg"
   xmlns:inkscape="http://www.inkscape.org/namespaces/inkscape"
   xmlns:sodipodi="http://sodipodi.sourceforge.net/DTD/sodipodi-0.dtd"
   xmlns="http://www.w3.org/2000/svg"
   xmlns:svg="http://www.w3.org/2000/svg">
  <sodipodi:namedview
     id="namedview1"
     pagecolor="#ffffff"
     bordercolor="#000000"
     borderopacity="0.25"
     inkscape:showpageshadow="2"
     inkscape:pageopacity="0.0"
     inkscape:pagecheckerboard="0"
     inkscape:deskcolor="#d1d1d1"
     inkscape:document-units="mm"
     inkscape:zoom="22.150169"
     inkscape:cx="164.17482"
     inkscape:cy="1122.2714"
     inkscape:window-width="1920"
     inkscape:window-height="991"
     inkscape:window-x="-9"
     inkscape:window-y="-9"
     inkscape:window-maximized="1"
     inkscape:current-layer="layer1" />
  <defs
     id="defs1" />
  <g
     inkscape:label="Layer 1"
     inkscape:groupmode="layer"
     id="layer1">
    <path
       id="path2"
       style="fill:#4d4d4d;fill-opacity:0.442348;stroke:none;stroke-width:0.27984;stroke-opacity:1"
       d="m -43.23655,291.47745 c -0.201407,0.0273 -0.582345,0.43928 -1.287777,1.54513 l -0.0155,0.0129 c -1.053663,1.1191 -1.441767,2.47926 -1.346171,3.81682 7.65e-4,0.011 0.0023,0.022 0.0031,0.0331 0.0089,0.11497 0.02021,0.22973 0.03617,0.34417 0.0073,0.0531 0.01708,0.10572 0.02584,0.15864 0.0121,0.072 0.02345,0.14387 0.03824,0.21549 0.01544,0.0757 0.03432,0.15067 0.05271,0.22583 0.01274,0.0515 0.02465,0.10325 0.03876,0.15451 0.02544,0.0933 0.05437,0.18581 0.08423,0.27802 0.0086,0.0263 0.01637,0.0528 0.02532,0.0791 0.08389,0.24778 0.183582,0.49046 0.297656,0.72708 0.08588,0.17813 0.188134,0.34742 0.289905,0.51729 0.04354,0.0727 0.0824,0.1476 0.128674,0.21859 0.134962,0.20678 0.279525,0.40692 0.436666,0.59686 0.0071,0.009 0.01404,0.0173 0.02119,0.0258 0.152571,0.1825 0.314468,0.3561 0.485758,0.51986 0.05279,0.051 0.105762,0.10133 0.160197,0.15038 0.01451,0.0129 0.02879,0.026 0.04341,0.0388 0.94338,0.83428 2.121265,1.37498 3.395142,1.40456 h 0.905888 c 0.344049,0.0126 0.707353,0.007 1.070735,0 h 0.981336 23.837304 v 0.0181 h 26.753406 v -0.0181 H 37.373 38.354335 c 0.363385,0.007 0.726686,0.0126 1.070736,0 h 0.905888 c 1.273874,-0.0296 2.451762,-0.57028 3.395141,-1.40456 0.01462,-0.0128 0.0289,-0.0258 0.04341,-0.0388 0.05443,-0.049 0.107404,-0.0994 0.160197,-0.15038 0.17129,-0.16376 0.333186,-0.33736 0.485759,-0.51986 0.0071,-0.009 0.01408,-0.0172 0.02119,-0.0258 0.157144,-0.18994 0.301705,-0.39008 0.436666,-0.59686 0.04627,-0.071 0.08514,-0.1459 0.128674,-0.21859 0.101772,-0.16987 0.204026,-0.33916 0.289905,-0.51729 0.1147,-0.23791 0.215034,-0.48203 0.299207,-0.73122 0.0065,-0.0192 0.01225,-0.0386 0.0186,-0.0579 0.03198,-0.0978 0.06239,-0.19602 0.0894,-0.29508 0.0141,-0.0513 0.02602,-0.10297 0.03876,-0.15451 0.01839,-0.0752 0.03727,-0.15014 0.05271,-0.22583 0.01479,-0.0716 0.02614,-0.14349 0.03824,-0.21549 0.0088,-0.0531 0.01854,-0.1059 0.02584,-0.15916 0.01428,-0.10244 0.02443,-0.2051 0.03307,-0.30799 0.0021,-0.0257 0.0055,-0.0513 0.0072,-0.077 0.09339,-1.3349 -0.295723,-2.69176 -1.347205,-3.80855 l -0.0155,-0.0129 c -1.130422,-1.77208 -1.422925,-1.75191 -1.488798,-1.24592 l -0.01085,-0.009 v 5.2e-4 c -0.0674,0.37374 -0.05555,0.72768 -0.0036,1.07229 -4.71e-4,0.0683 0.0055,0.14994 0.0016,0.21084 0.02095,0.0304 0.03825,0.0619 0.05839,0.0925 0.21739,0.97446 0.715468,1.88719 0.803568,2.92954 -0.05779,1.56864 -0.804434,3.09372 -1.968355,4.12843 -0.989637,0.77675 -2.24038,1.23838 -3.49281,1.30793 H 37.69081 13.225636 v -0.0119 H 7.5427791 c -0.00485,-3.4e-4 -0.00962,-0.002 -0.014469,-0.002 h -4.714441 c 8.93e-4,6.5e-4 0.00169,0.001 0.00258,0.002 h -5.624979 c 8.92e-4,-6.5e-4 0.00169,-10e-4 0.00258,-0.002 h -4.714441 c -0.00485,3.6e-4 -0.00962,0.002 -0.01447,0.002 H -13.52777 v 0.0119 h -24.155114 -0.740523 c -1.25243,-0.0696 -2.503174,-0.53118 -3.492811,-1.30793 -1.163919,-1.03471 -1.910564,-2.55979 -1.968355,-4.12843 0.08813,-1.04272 0.586824,-1.95573 0.804085,-2.93058 0.01994,-0.0303 0.03715,-0.0614 0.05788,-0.0915 -0.0038,-0.0593 0.0022,-0.13886 0.0016,-0.20516 0.05268,-0.34637 0.06413,-0.7022 -0.0036,-1.07797 v -5.2e-4 l -0.01085,0.009 c -0.02477,-0.19023 -0.07968,-0.31564 -0.201021,-0.29921 z" />
  </g>
</svg>
