<?xml version="1.0" encoding="UTF-8" standalone="no"?>
<!-- Created with Inkscape (http://www.inkscape.org/) -->

<svg
   width="210mm"
   height="297mm"
   viewBox="0 0 210 297"
   version="1.1"
   id="svg1"
   inkscape:version="1.3 (0e150ed6c4, 2023-07-21)"
   sodipodi:docname="RemoteClampLong.svg"
   xmlns:inkscape="http://www.inkscape.org/namespaces/inkscape"
   xmlns:sodipodi="http://sodipodi.sourceforge.net/DTD/sodipodi-0.dtd"
   xmlns="http://www.w3.org/2000/svg"
   xmlns:svg="http://www.w3.org/2000/svg">
  <sodipodi:namedview
     id="namedview1"
     pagecolor="#ffffff"
     bordercolor="#000000"
     borderopacity="0.25"
     inkscape:showpageshadow="2"
     inkscape:pageopacity="0.0"
     inkscape:pagecheckerboard="0"
     inkscape:deskcolor="#d1d1d1"
     inkscape:document-units="mm"
     inkscape:zoom="3.9156337"
     inkscape:cx="104.83616"
     inkscape:cy="1246.1584"
     inkscape:window-width="3840"
     inkscape:window-height="2054"
     inkscape:window-x="3829"
     inkscape:window-y="-11"
     inkscape:window-maximized="1"
     inkscape:current-layer="layer1" />
  <defs
     id="defs1" />
  <g
     inkscape:label="Layer 1"
     inkscape:groupmode="layer"
     id="layer1">
    <path
       id="path1"
       style="fill:#4d4d4d;fill-opacity:0.442348;stroke:none;stroke-width:0.27984;stroke-opacity:1"
       d="m -42.96637,291.38687 c -2.550495,0.82642 -3.294183,4.2287 -2.727982,6.59703 0.70328,2.73694 3.405887,4.88546 6.277135,4.55623 19.135661,3.32702 29.175164,0.30753 38.9859956,0.31535 10.1312757,0.008 19.8339284,3.26352 40.7590044,-0.31535 4.204947,-0.14077 6.912796,-5.30276 4.926193,-8.95337 0.104276,-1.90379 -4.279968,-3.14683 -2.834425,-0.67991 2.095164,1.21624 1.711942,5.26896 -0.0822,6.88489 -2.455841,2.51644 -6.1432,1.51065 -9.270201,1.71806 -23.8488211,-0.0169 -47.635845,-0.006 -71.490647,0 -3.720963,0.0392 -6.709991,-4.2748 -4.861983,-7.6444 -0.07202,-1.1817 2.936506,-1.59757 0.319111,-2.47853 z"
       sodipodi:nodetypes="sccscccccccss" />
  </g>
</svg>
