<?xml version="1.0" encoding="UTF-8" standalone="no"?>
<!-- Created with Inkscape (http://www.inkscape.org/) -->

<svg
   width="210mm"
   height="297mm"
   viewBox="0 0 210 297"
   version="1.1"
   id="svg5"
   inkscape:version="1.1.2 (b8e25be833, 2022-02-05)"
   sodipodi:docname="aero light adapter.svg"
   xmlns:inkscape="http://www.inkscape.org/namespaces/inkscape"
   xmlns:sodipodi="http://sodipodi.sourceforge.net/DTD/sodipodi-0.dtd"
   xmlns="http://www.w3.org/2000/svg"
   xmlns:svg="http://www.w3.org/2000/svg">
  <sodipodi:namedview
     id="namedview7"
     pagecolor="#ffffff"
     bordercolor="#666666"
     borderopacity="1.0"
     inkscape:pageshadow="2"
     inkscape:pageopacity="0.0"
     inkscape:pagecheckerboard="0"
     inkscape:document-units="mm"
     showgrid="false"
     inkscape:zoom="0.32"
     inkscape:cx="1242.1875"
     inkscape:cy="1531.25"
     inkscape:window-width="1920"
     inkscape:window-height="1017"
     inkscape:window-x="-8"
     inkscape:window-y="-8"
     inkscape:window-maximized="1"
     inkscape:current-layer="layer1" />
  <defs
     id="defs2" />
  <g
     inkscape:label="Layer 1"
     inkscape:groupmode="layer"
     id="layer1">
    <path
       id="rect1899"
       style="fill:#ff5555;fill-opacity:0.620968;stroke-width:1.99999"
       d="m 9.9265714,283.42 a 13.599893,13.599999 0 0 0 -1.570951,0.10542 13.599893,13.599999 0 0 0 -0.1632968,0.0176 13.599893,13.599999 0 0 0 -1.4763847,0.28474 13.599893,13.599999 0 0 0 -0.2185891,0.0543 13.599893,13.599999 0 0 0 -1.4154066,0.46043 13.599893,13.599999 0 0 0 -0.1999864,0.0806 13.599893,13.599999 0 0 0 -1.3678638,0.64078 13.599893,13.599999 0 0 0 -0.140043,0.0806 13.599893,13.599999 0 0 0 -1.3285895,0.83509 c -0.2451979,-0.0468 -0.491322,-0.0888 -0.7369011,-0.13384 v 0.0134 0.0155 a 1.3099897,1.3099999 0 0 0 -1.30843640096,1.31 1.3099897,1.3099999 0 0 0 1.30843640096,1.30999 v 0.0274 5.2e-4 c 0.3592642,0.0663 0.7185736,0.13251 1.0764118,0.20257 0.2387423,0.0467 0.4755055,0.0962 0.7131312,0.14469 0.2889677,0.0589 0.577782,0.11833 0.8645377,0.17984 0.2394752,0.0513 0.4771697,0.10444 0.714679,0.15761 0.2934127,0.0657 0.5845552,0.133 0.8743591,0.20154 0.2190865,0.0518 0.4380566,0.10365 0.6547354,0.1571 0.3537055,0.0873 0.7022648,0.17749 1.0485064,0.26923 0.1449879,0.0384 0.2931455,0.075 0.4366622,0.11421 0.4766379,0.13022 0.943825,0.26494 1.4019711,0.4041 8.705e-4,2.7e-4 0.00171,7.7e-4 0.00258,10e-4 0.1495573,0.0454 0.2934551,0.0936 0.4407951,0.14004 0.3196305,0.10068 0.6353196,0.20319 0.9436056,0.30851 0.165757,0.0566 0.328719,0.1141 0.490922,0.17208 0.291786,0.10432 0.576346,0.21109 0.855753,0.31988 0.148822,0.0579 0.299351,0.11544 0.444415,0.17467 0.340241,0.13893 0.668478,0.28174 0.986498,0.42788 0.06544,0.0301 0.136055,0.0585 0.200502,0.0889 0.372226,0.17548 0.723573,0.35716 1.06039,0.54312 0.246196,0.13589 0.484965,0.27386 0.710547,0.41548 0.128579,0.0807 0.25417,0.16232 0.375684,0.24494 0.018,0.0122 0.03745,0.0239 0.05529,0.0362 0.0013,9e-4 0.0028,0.002 0.0041,0.003 10e-4,10e-4 0.0031,0.002 0.0041,0.003 0.143165,0.0988 0.280173,0.1998 0.412892,0.30128 0.03873,0.0296 0.07536,0.0596 0.113171,0.0894 0.09467,0.0747 0.187139,0.14963 0.275948,0.22582 9.08e-4,7.8e-4 0.0017,0.002 0.0026,0.003 0.04403,0.0378 0.08716,0.076 0.129706,0.1142 6.35e-4,5.7e-4 0.0014,9.8e-4 0.0021,0.002 0.0825,0.0741 0.161405,0.14933 0.238226,0.22479 0.03505,0.0344 0.07107,0.0686 0.104901,0.10336 0.107895,0.1107 0.211661,0.22223 0.306957,0.33589 0.0494,0.0561 0.0947,0.11275 0.140559,0.1695 0.0128,0.0165 0.02626,0.033 0.03876,0.0496 0.06164,0.0782 0.120099,0.15717 0.175182,0.23668 0.05508,0.0795 0.106785,0.15956 0.155028,0.2403 0.04824,0.0807 0.09317,0.16194 0.134357,0.24391 0.0412,0.082 0.07866,0.16469 0.112655,0.24804 0.03399,0.0834 0.06438,0.16754 0.09095,0.25219 0.02657,0.0846 0.04934,0.16977 0.06821,0.25579 0.01745,0.0795 0.03065,0.16009 0.04134,0.24082 0.0018,0.0138 0.0035,0.0275 0.0052,0.0413 0.0095,0.0804 0.01645,0.16089 0.01912,0.24236 0.002,0.0572 -0.0042,0.11289 -0.0052,0.1695 10e-4,0.0566 0.0072,0.11231 0.0052,0.1695 -0.0029,0.0888 -0.0097,0.17663 -0.02067,0.26406 -2.1e-5,1.7e-4 2.1e-5,3.5e-4 0,5.2e-4 -0.01096,0.0873 -0.02612,0.17407 -0.04496,0.25993 -0.01887,0.086 -0.04164,0.17115 -0.06821,0.2558 -5e-5,1.6e-4 5.1e-5,3.6e-4 0,5.2e-4 -0.02654,0.0845 -0.05702,0.16846 -0.09095,0.25166 -0.03399,0.0833 -0.07146,0.16608 -0.112655,0.24805 -0.04119,0.082 -0.08611,0.16318 -0.134357,0.24391 -0.04824,0.0807 -0.09995,0.16078 -0.155028,0.2403 -0.05508,0.0795 -0.113548,0.15849 -0.175182,0.23668 -0.0125,0.0166 -0.02595,0.0331 -0.03876,0.0496 -0.0459,0.0567 -0.0912,0.11343 -0.140559,0.1695 -0.08855,0.10562 -0.185099,0.20961 -0.284735,0.31264 -0.0075,0.008 -0.01468,0.0155 -0.02222,0.0233 -0.0338,0.0347 -0.0699,0.0689 -0.104901,0.10335 -0.07683,0.0755 -0.15573,0.15066 -0.238226,0.2248 -6.48e-4,5.8e-4 -0.0014,9.6e-4 -0.0021,0.002 -0.04251,0.0382 -0.08571,0.0764 -0.129706,0.1142 -9.28e-4,8e-4 -0.0017,0.002 -0.0026,0.003 -0.08881,0.0762 -0.181315,0.15109 -0.275948,0.22583 -0.03778,0.0298 -0.07447,0.0598 -0.113171,0.0894 -0.01596,0.0122 -0.03249,0.0245 -0.04857,0.0367 -0.114003,0.0862 -0.230728,0.17157 -0.35243,0.2558 -0.0041,0.003 -0.0077,0.006 -0.01189,0.009 -7.14e-4,5e-4 -0.0013,0.001 -0.0021,0.002 -6.54e-4,3.9e-4 -0.0014,5.9e-4 -0.0021,0.001 -0.0014,9.9e-4 -0.0027,0.002 -0.0041,0.003 -0.01725,0.0118 -0.03538,0.023 -0.05323,0.0346 -7.07e-4,4.8e-4 -0.0014,10e-4 -0.0021,0.002 -0.01132,0.007 -0.02256,0.0148 -0.03359,0.0222 -0.103411,0.0697 -0.209365,0.13886 -0.317809,0.20722 -0.0077,0.005 -0.01501,0.01 -0.02274,0.0145 -5.34e-4,3.4e-4 -10e-4,7e-4 -0.0015,0.001 -0.220393,0.13836 -0.453831,0.27329 -0.69401,0.40617 -0.0056,0.003 -0.01094,0.006 -0.01654,0.009 -0.168409,0.093 -0.340293,0.18483 -0.516759,0.27543 -6.98e-4,3.6e-4 -0.0014,6.8e-4 -0.0021,10e-4 -0.175901,0.0902 -0.356276,0.17928 -0.541562,0.26664 -0.0016,7.4e-4 -0.0031,10e-4 -0.0047,0.002 -0.05684,0.0268 -0.119117,0.052 -0.176733,0.0786 -0.0063,0.003 -0.0129,0.005 -0.01912,0.008 -3.47e-4,1.6e-4 -6.88e-4,3.6e-4 -10e-4,5.1e-4 -0.321885,0.14793 -0.654231,0.29199 -0.998898,0.43254 -0.129203,0.0525 -0.262346,0.10413 -0.394806,0.15554 -0.0048,0.002 -0.0097,0.003 -0.01447,0.005 -0.280958,0.10968 -0.567968,0.2178 -0.861439,0.32298 -0.0054,0.002 -0.01063,0.004 -0.01602,0.006 -0.162198,0.058 -0.325173,0.11549 -0.490922,0.17209 -0.01242,0.004 -0.02529,0.008 -0.03773,0.0124 -0.2798,0.0952 -0.5655572,0.18818 -0.8547212,0.27957 -0.017169,0.005 -0.033965,0.0111 -0.05116,0.0165 -0.1014167,0.032 -0.2022115,0.0645 -0.3033371,0.0966 -0.045789,0.0145 -0.090846,0.0293 -0.137458,0.0434 -8.467e-4,2.6e-4 -0.00174,2.6e-4 -0.00258,5.2e-4 -0.4633981,0.14075 -0.9357153,0.27714 -1.4179887,0.40876 -0.00299,8.1e-4 -0.00579,0.002 -0.00879,0.003 -0.1346216,0.0364 -0.2726643,0.0706 -0.408241,0.10645 -0.00121,3.2e-4 -0.00241,7.1e-4 -0.00362,10e-4 -0.3412622,0.0905 -0.6854561,0.17947 -1.0340365,0.26562 -0.00485,10e-4 -0.00962,0.002 -0.01447,0.004 -0.2076037,0.0512 -0.4174564,0.10074 -0.627346,0.15038 -0.00918,0.002 -0.018214,0.005 -0.02739,0.007 -0.2898065,0.0685 -0.5809411,0.13584 -0.8743591,0.20153 -0.00864,0.002 -0.017187,0.004 -0.025837,0.006 -0.2220604,0.0497 -0.444388,0.0991 -0.6681709,0.14728 -0.00693,0.001 -0.013737,0.003 -0.020672,0.005 -0.2867557,0.0615 -0.57557,0.12093 -0.8645377,0.17983 -0.01828,0.004 -0.036491,0.007 -0.054779,0.0109 -0.2192849,0.0449 -0.4379349,0.0907 -0.6583522,0.13385 -0.3578117,0.0699 -0.7171238,0.13634 -1.0764118,0.20257 v 0.0279 A 1.3099897,1.3099999 0 0 0 0,306.86098 a 1.3099897,1.3099999 0 0 0 1.3084364,1.31 v 0.0155 0.0129 c 0.2455685,-0.045 0.4916979,-0.0871 0.7369011,-0.13384 a 13.599893,13.599999 0 0 0 0.025321,0.016 13.599893,13.599999 0 0 0 1.2769142,0.80357 13.599893,13.599999 0 0 0 0.1865509,0.10697 13.599893,13.599999 0 0 0 1.3275576,0.62115 13.599893,13.599999 0 0 0 0.2418432,0.0977 13.599893,13.599999 0 0 0 1.3828525,0.44906 13.599893,13.599999 0 0 0 0.2475264,0.062 13.599893,13.599999 0 0 0 1.4469287,0.27853 13.599893,13.599999 0 0 0 0.1999865,0.0217 13.599893,13.599999 0 0 0 1.5456301,0.10284 13.599893,13.599999 0 0 0 0.04392,-0.001 13.599893,13.599999 0 0 0 0.5699874,-0.0134 13.599893,13.599999 0 0 0 0.04496,-0.002 13.599893,13.599999 0 0 0 0.561719,-0.0398 13.599893,13.599999 0 0 0 0.112653,-0.01 13.599893,13.599999 0 0 0 0.536398,-0.0646 13.599893,13.599999 0 0 0 0.106451,-0.0145 13.599893,13.599999 0 0 0 0.530196,-0.0894 13.599893,13.599999 0 0 0 0.117823,-0.0222 13.599893,13.599999 0 0 0 0.512626,-0.11162 13.599893,13.599999 0 0 0 0.132807,-0.032 13.599893,13.599999 0 0 0 0.51366,-0.13746 13.599893,13.599999 0 0 0 0.102835,-0.0305 13.599893,13.599999 0 0 0 0.524511,-0.16795 13.599893,13.599999 0 0 0 0.08992,-0.0315 13.599893,13.599999 0 0 0 0.516762,-0.19224 13.599893,13.599999 0 0 0 0.09302,-0.0377 13.599893,13.599999 0 0 0 0.514693,-0.22118 13.599893,13.599999 0 0 0 0.06925,-0.032 13.599893,13.599999 0 0 0 0.531231,-0.25787 13.599893,13.599999 0 0 0 0.0062,-0.003 13.599893,13.599999 0 0 0 0.01654,-0.009 13.599893,13.599999 0 0 0 0.518828,-0.28267 13.599893,13.599999 0 0 0 0.06563,-0.0377 13.599893,13.599999 0 0 0 0.490923,-0.29972 13.599893,13.599999 0 0 0 0.03927,-0.0248 13.599893,13.599999 0 0 0 0.47542,-0.32142 13.599893,13.599999 0 0 0 0.07338,-0.0512 13.599893,13.599999 0 0 0 0.453197,-0.33952 13.599893,13.599999 0 0 0 0.06718,-0.0522 13.599893,13.599999 0 0 0 0.43098,-0.35605 13.599893,13.599999 0 0 0 0.07493,-0.0641 13.599893,13.599999 0 0 0 0.412374,-0.37517 13.599893,13.599999 0 0 0 0.0677,-0.0646 13.599893,13.599999 0 0 0 0.389122,-0.38912 13.599893,13.599999 0 0 0 0.07234,-0.076 13.599893,13.599999 0 0 0 0.370002,-0.40773 13.599893,13.599999 0 0 0 0.06304,-0.0729 13.599893,13.599999 0 0 0 0.359148,-0.43512 13.599893,13.599999 0 0 0 0.04599,-0.0589 13.599893,13.599999 0 0 0 0.346747,-0.46302 13.599893,13.599999 0 0 0 0.03514,-0.0501 13.599893,13.599999 0 0 0 0.336929,-0.49867 13.599893,13.599999 0 0 0 0.0041,-0.006 13.599893,13.599999 0 0 0 0.0083,-0.0139 13.599893,13.599999 0 0 0 0.328659,-0.53847 13.599893,13.599999 0 0 0 5.16e-4,-5.2e-4 13.599893,13.599999 0 0 0 0.295588,-0.54157 13.599893,13.599999 0 0 0 0.02015,-0.0382 13.599893,13.599999 0 0 0 0.257864,-0.53123 13.599893,13.599999 0 0 0 0.02687,-0.0574 13.599893,13.599999 0 0 0 0.228409,-0.53279 13.599893,13.599999 0 0 0 0.02945,-0.0729 13.599893,13.599999 0 0 0 0.193787,-0.51883 13.599893,13.599999 0 0 0 0.03514,-0.10129 13.599893,13.599999 0 0 0 0.169496,-0.5302 13.599893,13.599999 0 0 0 0.02429,-0.0817 13.599893,13.599999 0 0 0 0.149861,-0.55965 13.599893,13.599999 0 0 0 0.01344,-0.0563 13.599893,13.599999 0 0 0 0.127639,-0.58653 13.599893,13.599999 0 0 0 0.0072,-0.0403 13.599893,13.599999 0 0 0 0.09974,-0.58963 13.599893,13.599999 0 0 0 0.0093,-0.0672 13.599893,13.599999 0 0 0 0.07028,-0.58963 13.599893,13.599999 0 0 0 0.0031,-0.0346 13.599893,13.599999 0 0 0 0.04444,-0.6227 13.599893,13.599999 0 0 0 0.0155,-0.64648 13.599893,13.599999 0 0 0 0,-5.1e-4 13.599893,13.599999 0 0 0 0,-5.2e-4 13.599893,13.599999 0 0 0 -0.0155,-0.64647 13.599893,13.599999 0 0 0 -0.04444,-0.6258 13.599893,13.599999 0 0 0 -0.0026,-0.03 13.599893,13.599999 0 0 0 -0.07131,-0.59479 13.599893,13.599999 0 0 0 -0.0088,-0.061 13.599893,13.599999 0 0 0 -0.100768,-0.59893 13.599893,13.599999 0 0 0 -0.0052,-0.0289 13.599893,13.599999 0 0 0 -0.130224,-0.59841 13.599893,13.599999 0 0 0 -0.0098,-0.0413 13.599893,13.599999 0 0 0 -0.154513,-0.57671 13.599893,13.599999 0 0 0 -0.0186,-0.063 13.599893,13.599999 0 0 0 -0.174664,-0.54673 13.599893,13.599999 0 0 0 -0.02894,-0.0822 13.599893,13.599999 0 0 0 -0.202053,-0.54208 13.599893,13.599999 0 0 0 -0.0186,-0.0455 13.599893,13.599999 0 0 0 -0.239776,-0.56017 13.599893,13.599999 0 0 0 -0.0031,-0.007 13.599893,13.599999 0 0 0 -0.0078,-0.016 13.599893,13.599999 0 0 0 -0.272334,-0.56068 13.599893,13.599999 0 0 0 -0.0026,-0.005 13.599893,13.599999 0 0 0 -0.0067,-0.0119 13.599893,13.599999 0 0 0 -0.640784,-1.10897 13.599893,13.599999 0 0 0 -0.350364,-0.51832 13.599893,13.599999 0 0 0 -0.02015,-0.0279 13.599893,13.599999 0 0 0 -0.362765,-0.48524 13.599893,13.599999 0 0 0 -0.02842,-0.0367 13.599893,13.599999 0 0 0 -0.382403,-0.46302 13.599893,13.599999 0 0 0 -0.03255,-0.0377 13.599893,13.599999 0 0 0 -0.399458,-0.43977 13.599893,13.599999 0 0 0 -0.04082,-0.0429 13.599893,13.599999 0 0 0 -0.423746,-0.42375 13.599893,13.599999 0 0 0 -0.03204,-0.0305 13.599893,13.599999 0 0 0 -0.440798,-0.40049 13.599893,13.599999 0 0 0 -0.04961,-0.0429 13.599893,13.599999 0 0 0 -0.464568,-0.38344 13.599893,13.599999 0 0 0 -0.0062,-0.005 13.599893,13.599999 0 0 0 -0.01137,-0.008 13.599893,13.599999 0 0 0 -0.494023,-0.37052 13.599893,13.599999 0 0 0 -0.03979,-0.0279 13.599893,13.599999 0 0 0 -0.50901,-0.34416 13.599893,13.599999 0 0 0 -1.120854,-0.64699 13.599893,13.599999 0 0 0 -0.557067,-0.2713 13.599893,13.599999 0 0 0 -0.03721,-0.0171 13.599893,13.599999 0 0 0 -0.5488,-0.23513 13.599893,13.599999 0 0 0 -0.05633,-0.0227 13.599893,13.599999 0 0 0 -0.555002,-0.20671 13.599893,13.599999 0 0 0 -0.04961,-0.0176 13.599893,13.599999 0 0 0 -0.56275,-0.17983 13.599893,13.599999 0 0 0 -0.06305,-0.0186 13.599893,13.599999 0 0 0 -0.57102,-0.15296 13.599893,13.599999 0 0 0 -0.05116,-0.0124 13.599893,13.599999 0 0 0 -0.592208,-0.12868 13.599893,13.599999 0 0 0 -0.03153,-0.006 13.599893,13.599999 0 0 0 -0.610294,-0.10284 13.599893,13.599999 0 0 0 -0.02945,-0.004 13.599893,13.599999 0 0 0 -0.613394,-0.0739 13.599893,13.599999 0 0 0 -0.02997,-0.003 13.599893,13.599999 0 0 0 -0.625799,-0.0444 13.599893,13.599999 0 0 0 -0.646983,-0.016 z" />
  </g>
</svg>
