<?xml version="1.0" encoding="UTF-8" standalone="no"?>
<!-- Created with Inkscape (http://www.inkscape.org/) -->

<svg
   width="210mm"
   height="297mm"
   viewBox="0 0 210 297"
   version="1.1"
   id="svg5"
   inkscape:version="1.1.2 (b8e25be833, 2022-02-05)"
   sodipodi:docname="aero light adapter.svg"
   xmlns:inkscape="http://www.inkscape.org/namespaces/inkscape"
   xmlns:sodipodi="http://sodipodi.sourceforge.net/DTD/sodipodi-0.dtd"
   xmlns="http://www.w3.org/2000/svg"
   xmlns:svg="http://www.w3.org/2000/svg">
  <sodipodi:namedview
     id="namedview7"
     pagecolor="#ffffff"
     bordercolor="#666666"
     borderopacity="1.0"
     inkscape:pageshadow="2"
     inkscape:pageopacity="0.0"
     inkscape:pagecheckerboard="0"
     inkscape:document-units="mm"
     showgrid="false"
     inkscape:zoom="1.4142136"
     inkscape:cx="174.30182"
     inkscape:cy="1306.0262"
     inkscape:window-width="1920"
     inkscape:window-height="1017"
     inkscape:window-x="-8"
     inkscape:window-y="-8"
     inkscape:window-maximized="1"
     inkscape:current-layer="layer1" />
  <defs
     id="defs2" />
  <g
     inkscape:label="Layer 1"
     inkscape:groupmode="layer"
     id="layer1">
    <path
       id="rect1899"
       style="fill:#ff5555;fill-opacity:0.620968;stroke-width:2"
       d="m 13.807567,283.555 c 0.0361,10e-5 0.072,10e-4 0.108001,0.002 0.854815,-9.3e-4 1.710041,0.0604 2.555936,0.18243 1.326599,0.1818 2.635218,0.5084 3.870076,1.01492 0.0327,0.0127 0.0656,0.0248 0.0982,0.0377 0.002,0.002 0.003,0.003 0.005,0.005 0.325362,0.13658 0.645914,0.28446 0.959636,0.44699 0.237401,0.0542 0.476883,0.0907 0.705904,0.13644 0.337772,-0.10133 0.654684,0.0961 0.897106,0.38188 0.177851,0.16129 0.318822,0.39055 0.405153,0.7276 0.001,0.006 0.002,0.0115 0.003,0.0171 0.10246,0.47326 0.11842,1.05542 -0.0289,1.55958 -0.12385,0.45207 -0.374602,0.84651 -0.824245,1.05318 -4.006256,0.78113 -8.161763,1.24775 -11.953357,2.82567 -0.0458,0.0193 -0.0918,0.0382 -0.137461,0.0579 -0.004,0.002 -0.009,0.003 -0.0129,0.005 -0.005,0.002 -0.01,0.004 -0.0145,0.006 -0.5382642,0.23254 -1.0677372,0.48842 -1.5869912,0.77152 -0.500673,0.28001 -1.005896,0.59394 -1.473309,0.9519 -0.0171,0.0132 -0.0346,0.0259 -0.0517,0.0393 -0.173601,0.13578 -0.342982,0.27787 -0.504873,0.42736 -0.154151,0.14234 -0.300762,0.2918 -0.439253,0.44701 -0.014,0.0158 -0.0286,0.0311 -0.0424,0.047 -0.0111,0.0127 -0.0221,0.0255 -0.0331,0.0383 -0.0358,0.0421 -0.0711,0.0846 -0.105421,0.12764 -0.486083,0.60875 -0.824755,1.31331 -0.906416,2.1368 0.0816,0.82349 0.420333,1.52858 0.906416,2.13736 0.0359,0.0449 0.0727,0.0889 0.110071,0.13279 0.005,0.006 0.01,0.0114 0.0145,0.0171 0.004,0.004 0.008,0.008 0.0119,0.0129 0.0149,0.0172 0.0304,0.0341 0.0455,0.0512 0.138141,0.15473 0.284512,0.3035 0.438213,0.44545 0.161901,0.14949 0.331282,0.2921 0.504883,0.42786 0.0197,0.0154 0.0401,0.0297 0.06,0.045 0.09,0.0688 0.180841,0.13692 0.273372,0.20256 0.383502,0.272 0.785665,0.51597 1.184947,0.73949 0.518214,0.28281 1.046727,0.53861 1.5838912,0.77102 0.008,0.004 0.0161,0.007 0.0243,0.0109 0.006,0.002 0.0117,0.005 0.0176,0.007 0.0405,0.0174 0.0814,0.034 0.121961,0.0512 3.794524,1.58155 7.954121,2.04793 11.964207,2.8298 0.449933,0.2068 0.700995,0.60177 0.824755,1.05421 0.009,0.0303 0.0171,0.0607 0.0248,0.0915 0.11972,0.48088 0.0998,1.01994 0.004,1.46399 -0.001,0.007 -0.002,0.014 -0.004,0.0207 -0.0858,0.33501 -0.225722,0.56287 -0.402043,0.72398 -0.242682,0.2876 -0.560704,0.48688 -0.899696,0.38552 -0.228651,0.0457 -0.467813,0.0813 -0.704864,0.13539 -0.314602,0.16306 -0.635914,0.3116 -0.962226,0.44855 -0.001,0.001 -0.003,0.002 -0.004,0.004 -0.0279,0.0111 -0.0562,0.0211 -0.0842,0.032 -1.234168,0.50784 -2.542197,0.83617 -3.868526,1.01905 -0.862865,0.12525 -1.735541,0.18724 -2.607607,0.18449 -1.822831,0.0132 -3.695413,-0.28371 -5.4338142,-0.8759 -4.65591,-1.52347 -7.80316105,-6.09817 -8.34217405,-10.86808 -0.0684,-0.56372 -0.104611,-1.13051 -0.102840996631,-1.69654 1e-5,-0.003 -1e-5,-0.005 0,-0.008 C -0.00192225,296.43013 0.03457775,295.86125 0.10342875,295.29599 c 0.540703,-4.76803 3.68743405,-9.3405 8.34166405,-10.86342 1.7155212,-0.58438 3.5618732,-0.88191 5.3619842,-0.87693 z" />
  </g>
</svg>
