<?xml version="1.0" encoding="UTF-8" standalone="no"?>
<!-- Created with Inkscape (http://www.inkscape.org/) -->

<svg
   width="210mm"
   height="297mm"
   viewBox="0 0 210 297"
   version="1.1"
   id="svg5"
   inkscape:version="1.1.2 (b8e25be833, 2022-02-05)"
   sodipodi:docname="aero light adapter with clips.svg"
   xmlns:inkscape="http://www.inkscape.org/namespaces/inkscape"
   xmlns:sodipodi="http://sodipodi.sourceforge.net/DTD/sodipodi-0.dtd"
   xmlns="http://www.w3.org/2000/svg"
   xmlns:svg="http://www.w3.org/2000/svg">
  <sodipodi:namedview
     id="namedview7"
     pagecolor="#ffffff"
     bordercolor="#666666"
     borderopacity="1.0"
     inkscape:pageshadow="2"
     inkscape:pageopacity="0.0"
     inkscape:pagecheckerboard="0"
     inkscape:document-units="mm"
     showgrid="false"
     inkscape:zoom="0.70710678"
     inkscape:cx="317.49094"
     inkscape:cy="1281.2775"
     inkscape:window-width="1920"
     inkscape:window-height="1017"
     inkscape:window-x="-8"
     inkscape:window-y="-8"
     inkscape:window-maximized="1"
     inkscape:current-layer="layer1" />
  <defs
     id="defs2" />
  <g
     inkscape:label="Layer 1"
     inkscape:groupmode="layer"
     id="layer1">
    <path
       id="path2605"
       style="fill:#ff5555;fill-opacity:0.620968;stroke-width:2"
       d="m 31.394901,280.95071 c 0.101192,5.9e-4 0.201559,0.006 0.301276,0.015 6.84e-4,7e-5 0.0014,-6e-5 0.0021,0 0.0021,2e-4 0.0041,3.2e-4 0.0062,5.2e-4 0.09865,0.009 0.196547,0.0228 0.293006,0.0403 0.09775,0.0177 0.194129,0.0393 0.288873,0.0651 0.0019,5.2e-4 0.0038,10e-4 0.0057,0.002 0.09389,0.0257 0.186293,0.0555 0.27647,0.0889 0.09151,0.0339 0.180761,0.0717 0.267686,0.11317 0.08693,0.0415 0.171123,0.0866 0.252699,0.1354 0.08147,0.0487 0.160289,0.10083 0.235646,0.15658 0.07418,0.0549 0.145386,0.11327 0.212908,0.17466 2.29e-4,10e-4 3.14e-4,6e-4 5.16e-4,10e-4 8.12e-4,7.4e-4 0.0018,0.001 0.0026,0.002 0.0052,0.004 0.0098,0.009 0.01499,0.0134 0.08466,0.0688 0.165691,0.14298 0.24288,0.22169 0.01075,0.0109 0.02145,0.0219 0.03204,0.0331 0.07673,0.0808 0.149373,0.16637 0.217558,0.25787 0.0041,0.005 0.0089,0.01 0.01292,0.0155 6.8e-5,3.3e-4 -6.9e-5,7.1e-4 0,10e-4 0.01462,0.069 0.02753,0.14155 0.04082,0.21342 0.0016,0.003 0.0025,0.007 0.0041,0.0109 0.05057,0.10961 0.09286,0.22428 0.125575,0.34313 7.68e-4,0.003 0.0018,0.005 0.0026,0.008 4.4e-5,1.6e-4 -4.3e-5,3.6e-4 0,5.2e-4 0.03315,0.12239 0.05585,0.24936 0.06821,0.38085 1.99e-4,0.002 8.4e-4,0.004 0.001,0.006 6.3e-5,6.9e-4 -6.2e-5,10e-4 0,0.002 0.01212,0.13399 0.01298,0.27277 0.0016,0.41548 -4.2e-5,5.2e-4 4.2e-5,10e-4 0,0.002 -0.01154,0.14295 -0.03569,0.28981 -0.07286,0.4408 -8.3e-5,3.4e-4 8.2e-5,7e-4 0,0.001 -8.78e-4,0.0271 -0.0024,0.0541 -0.0036,0.0811 -2.3e-5,5.1e-4 2.3e-5,10e-4 0,0.002 1.6e-5,1.8e-4 -1.5e-5,3.3e-4 0,5.1e-4 0.01496,0.17244 0.01565,0.33777 0.0036,0.49661 -2.6e-5,3.4e-4 2.5e-5,7e-4 0,10e-4 -0.03637,0.47795 -0.189442,0.89417 -0.427367,1.24437 -0.274768,0.51138 -0.700004,0.92064 -1.333259,1.13171 -2.734435,0.62985 -2.72152,0.6152 -9.906941,2.04845 -6.21e-4,2e-4 -9.68e-4,2.5e-4 -0.0016,5.2e-4 -1.597584,0.3115 -3.218744,0.57404 -4.831255,0.87591 -0.335887,0.0629 -0.671315,0.12762 -1.006143,0.19483 -0.117907,0.0237 -0.235746,0.0475 -0.35347,0.0718 -0.413725,0.0855 -0.826362,0.17546 -1.23714,0.2713 -0.07601,0.0177 -0.152004,0.0356 -0.227895,0.0537 -0.422695,0.1011 -0.843286,0.20957 -1.261428,0.32556 -0.07969,0.0221 -0.159246,0.0445 -0.238746,0.0672 -0.420823,0.12027 -0.838972,0.24906 -1.253677,0.38861 -0.324364,0.10914 -0.646417,0.22442 -0.966355,0.34727 -0.147075,0.0565 -0.293721,0.11452 -0.439768,0.17414 -0.04576,0.0187 -0.0918,0.0368 -0.137461,0.0558 -0.0458,0.0193 -0.0918,0.0387 -0.13746,0.0584 -0.004,0.002 -0.009,0.003 -0.01292,0.005 -0.005,0.002 -0.01,0.004 -0.01447,0.006 -0.03806,0.0164 -0.07571,0.034 -0.113686,0.0506 -0.192565,0.0846 -0.3839149,0.1722 -0.5741279,0.26304 -0.07197,0.0344 -0.143871,0.0691 -0.215493,0.10438 -0.195452,0.0963 -0.389649,0.1962 -0.582396,0.29973 -0.03371,0.0181 -0.06766,0.0354 -0.101286,0.0537 -0.02653,0.0148 -0.05303,0.031 -0.07958,0.046 -0.197473,0.11179 -0.395072,0.22881 -0.590664,0.35192 -0.02625,0.0165 -0.05291,0.0318 -0.07906,0.0486 -0.01712,0.011 -0.03357,0.0231 -0.05064,0.0341 -0.212497,0.13747 -0.421344,0.28225 -0.623738,0.43512 -0.01632,0.0123 -0.03338,0.0237 -0.04961,0.0362 -0.01709,0.0132 -0.03456,0.0259 -0.05167,0.0393 -0.01466,0.0115 -0.02881,0.0236 -0.04341,0.0351 -0.143632,0.11374 -0.284074,0.23182 -0.419612,0.35502 -0.0138,0.0125 -0.02816,0.0246 -0.04186,0.0372 -0.06825,0.063 -0.134531,0.12737 -0.19947,0.19327 -0.05493,0.0558 -0.108332,0.11313 -0.161233,0.17053 -0.007,0.008 -0.0132,0.0167 -0.02015,0.0248 -0.136672,0.15982 -0.263538,0.32555 -0.378275,0.49713 -0.01522,0.0228 -0.03069,0.0453 -0.04547,0.0682 -0.04662,0.0724 -0.0913,0.14575 -0.133327,0.22014 -0.0091,0.0162 -0.01846,0.0323 -0.02739,0.0486 -0.04475,0.0817 -0.08636,0.16458 -0.125059,0.24857 -0.0081,0.0175 -0.01597,0.0351 -0.02377,0.0527 -0.03946,0.0892 -0.07596,0.17967 -0.108006,0.2713 -0.0019,0.005 -0.0038,0.0107 -0.0057,0.016 -0.0012,0.004 -0.0024,0.007 -0.0036,0.0109 -0.03278,0.0962 -0.06134,0.19361 -0.08527,0.29249 -0.0013,0.005 -0.0029,0.0106 -0.0041,0.016 -8.12e-4,0.003 -0.0013,0.007 -0.0021,0.0103 -0.02381,0.10211 -0.04321,0.20579 -0.05684,0.31058 -2.72e-4,0.002 -7.67e-4,0.004 -0.001,0.006 -1.54e-4,10e-4 -3.63e-4,0.002 -5.16e-4,0.004 -0.01382,0.10892 -0.02176,0.219 -0.02377,0.33072 -1.6e-5,8.8e-4 1.3e-5,0.002 0,0.003 -1.1e-5,5.2e-4 8e-6,10e-4 0,0.002 0.002,0.11334 0.01014,0.22544 0.02429,0.3359 4.5e-5,3.4e-4 -4.3e-5,6.9e-4 0,10e-4 0.02845,0.22158 0.0808,0.43711 0.152964,0.64647 0.180696,0.5242 0.48767,1.00879 0.867135,1.44746 0.0529,0.0574 0.106299,0.11478 0.161233,0.17053 0.06494,0.0659 0.13122,0.13024 0.19947,0.19327 0.161891,0.14949 0.331281,0.29159 0.504883,0.42736 0.01712,0.0134 0.03459,0.0261 0.05167,0.0393 0.233708,0.17898 0.476677,0.34717 0.723992,0.5054 0.247316,0.15822 0.498975,0.30647 0.749312,0.44648 0.519253,0.2831 1.048731,0.53899 1.5869889,0.77153 0.0045,0.002 0.0095,0.004 0.01447,0.006 0.0039,0.002 0.0089,0.003 0.01292,0.005 0.04566,0.0197 0.09166,0.0391 0.13746,0.0584 2.939584,1.22335 6.09671,1.78033 9.234628,2.33216 0.868947,0.15281 1.736527,0.30492 2.59727,0.47129 0.04025,0.008 0.08122,0.0144 0.12144,0.0222 5.83e-4,2.6e-4 9.69e-4,7.7e-4 0.0016,10e-4 0.682637,0.13617 0.697102,0.13985 1.258328,0.25167 2.156755,0.42978 3.633739,0.72493 4.635917,0.9281 0.273615,0.0556 0.783875,0.15873 1.012347,0.20619 0.381694,0.0793 0.728515,0.15324 1.056272,0.2248 0.572866,0.12516 1.151864,0.25522 1.944077,0.4377 0.164609,0.0549 0.31363,0.12416 0.451138,0.20412 0.122326,0.0711 0.23453,0.15138 0.336932,0.23978 0.008,0.007 0.01593,0.0137 0.02377,0.0207 0.101591,0.0902 0.193515,0.18882 0.27647,0.29404 0.0059,0.007 0.01181,0.0147 0.01757,0.0222 0.08238,0.10706 0.155643,0.22091 0.22066,0.34055 0.002,0.004 0.0048,0.007 0.0067,0.0103 0.0023,0.003 0.0039,0.007 0.0062,0.0109 0.07443,0.11065 0.140316,0.22785 0.196888,0.3514 0.0027,0.006 0.0051,0.0121 0.0078,0.0181 0.05689,0.1269 0.104551,0.26036 0.140561,0.40049 5.54e-4,0.002 0.0015,0.004 0.0021,0.006 8.2e-5,3.2e-4 -8.2e-5,7.1e-4 0,0.001 2.91e-4,10e-4 2.27e-4,0.002 5.17e-4,0.004 0.03613,0.14321 0.06073,0.29289 0.07286,0.44959 9.5e-5,0.001 4.23e-4,0.002 5.17e-4,0.004 0.0121,0.15899 0.01133,0.32503 -0.0036,0.49764 -3e-5,3.5e-4 3.1e-5,6.8e-4 0,0.001 0.0012,0.0271 0.0028,0.0541 0.0036,0.0811 1.1e-5,3.5e-4 -1.1e-5,6.9e-4 0,10e-4 3.53e-4,10e-4 6.83e-4,0.003 0.001,0.004 0.03623,0.14787 0.05968,0.29236 0.07131,0.43253 1.67e-4,0.002 3.55e-4,0.004 5.17e-4,0.006 0.0115,0.14269 0.01048,0.28096 -0.0016,0.41496 -0.01205,0.13427 -0.03557,0.26379 -0.06925,0.3886 -1.3e-4,4.8e-4 1.3e-4,0.001 0,0.002 -1.4e-4,5.2e-4 -3.76e-4,0.001 -5.17e-4,0.002 -0.03394,0.12511 -0.07812,0.2453 -0.131776,0.36018 -0.01327,0.0719 -0.02618,0.14443 -0.04082,0.21342 -6.9e-5,3.2e-4 6.8e-5,7.1e-4 0,0.001 -0.07612,0.10375 -0.158403,0.2002 -0.245464,0.29042 -0.08689,0.09 -0.178541,0.17389 -0.27492,0.25114 -8.12e-4,7.4e-4 -0.0018,0.001 -0.0026,0.002 -1.97e-4,3.9e-4 -3.05e-4,2e-5 -5.17e-4,0.001 -0.0026,0.002 -0.0056,0.004 -0.0083,0.007 -0.06521,0.0588 -0.133289,0.11517 -0.20464,0.16796 -10e-4,7.4e-4 -0.0021,10e-4 -0.0031,0.002 -0.07152,0.0528 -0.146226,0.10184 -0.223243,0.1483 -0.0032,0.002 -0.0061,0.004 -0.0093,0.006 -0.0065,0.004 -0.01313,0.008 -0.01964,0.0113 -0.07363,0.0433 -0.149448,0.0836 -0.227378,0.12094 -0.002,9.3e-4 -0.0037,0.002 -0.0057,0.003 -0.0055,0.003 -0.01104,0.005 -0.01654,0.008 -0.07954,0.0374 -0.161094,0.0718 -0.244431,0.10284 -0.0023,8.2e-4 -0.0045,0.002 -0.0067,0.003 -7.25e-4,2.6e-4 -0.0013,7.6e-4 -0.0021,10e-4 -0.0039,0.001 -0.008,0.002 -0.01189,0.004 -0.08707,0.0318 -0.175639,0.0606 -0.266135,0.0853 -8.44e-4,2.1e-4 -0.0017,2.9e-4 -0.0026,5e-4 -0.09025,0.0245 -0.18244,0.0453 -0.275436,0.0625 -0.0043,7.9e-4 -0.0086,0.002 -0.01292,0.003 -0.005,9e-4 -0.01001,0.002 -0.01499,0.003 -0.09345,0.0165 -0.187702,0.0293 -0.283189,0.0382 -3.41e-4,3e-5 -6.91e-4,-3e-5 -0.001,0 -0.100244,0.009 -0.2016,0.0144 -0.303342,0.015 -1.72e-4,0 -3.45e-4,0 -5.17e-4,0 -0.06539,9.8e-4 -0.131158,-0.003 -0.196888,-0.006 -0.132406,0.006 -0.264975,0.007 -0.397911,0.004 -0.132764,-0.003 -0.265809,-0.0104 -0.397911,-0.0217 -0.132442,-0.0113 -0.264233,-0.0263 -0.394809,-0.0455 -0.130411,-0.0191 -0.259704,-0.0419 -0.387059,-0.0682 -0.135942,-0.0185 -0.270757,-0.0415 -0.404112,-0.0698 -1.63e-4,-2e-5 -3.53e-4,3e-5 -5.17e-4,0 -0.133353,-0.0283 -0.26518,-0.0626 -0.394293,-0.10387 -1.53e-4,-5e-5 -3.64e-4,5e-5 -5.16e-4,0 -0.129113,-0.0413 -0.255574,-0.0897 -0.378791,-0.14727 -1.34e-4,-5e-5 -3.82e-4,5e-5 -5.17e-4,0 -0.123353,-0.0577 -0.243368,-0.12427 -0.359153,-0.20153 -0.2296,-0.21476 -0.373903,-0.3981 -0.45062,-0.55553 -0.03836,-0.0787 -0.05969,-0.15077 -0.06615,-0.21756 -0.0065,-0.0668 0.002,-0.12802 0.02325,-0.18448 0.02128,-0.0566 0.0554,-0.10824 0.100252,-0.15607 0.04468,-0.0476 0.09994,-0.0917 0.163816,-0.13229 0.064,-0.0406 0.136431,-0.0781 0.215491,-0.11317 0.07887,-0.035 0.164579,-0.0676 0.25425,-0.0987 1.94e-4,-1.2e-4 3.22e-4,-3.9e-4 5.17e-4,-5.2e-4 0.0014,-9.1e-4 0.0032,-0.002 0.0047,-0.003 0.120665,-0.0765 0.253388,-0.14782 0.392226,-0.21239 0.140744,-0.0655 0.28768,-0.12453 0.435634,-0.1757 1.57e-4,-6e-5 3.61e-4,5e-5 5.17e-4,0 0.1478,-0.0511 0.296299,-0.0944 0.439769,-0.12919 1.68e-4,-4e-5 3.49e-4,4e-5 5.17e-4,0 0.138777,-0.0337 0.272239,-0.0589 0.39636,-0.0754 0.0042,-5.7e-4 0.0093,-0.002 0.01344,-0.003 0.0564,-0.0387 0.105108,-0.0802 0.145728,-0.12506 0.0011,-10e-4 0.0025,-0.002 0.0036,-0.004 0.0012,-0.001 0.0019,-0.003 0.0031,-0.004 0.03906,-0.0446 0.06986,-0.0928 0.09043,-0.1447 2.25e-4,-5.6e-4 8.11e-4,-9.8e-4 0.001,-0.002 5.11e-4,-10e-4 5.35e-4,-0.003 0.001,-0.004 0.01967,-0.0517 0.0289,-0.10702 0.02739,-0.16692 -9.7e-5,-0.004 -3.37e-4,-0.007 -5.17e-4,-0.0109 -0.0028,-0.0577 -0.01707,-0.12035 -0.04186,-0.18655 -0.0017,-0.004 -0.0024,-0.008 -0.0041,-0.0129 -0.0025,-0.003 -0.0062,-0.006 -0.0088,-0.01 -0.0315,-0.0405 -0.07133,-0.0784 -0.11834,-0.11369 -0.0038,-0.003 -0.0069,-0.006 -0.01085,-0.009 -0.01303,-0.004 -0.02623,-0.008 -0.03927,-0.0119 -0.32567,-0.10491 -0.653678,-0.19762 -0.983924,-0.27957 -0.01996,-0.005 -0.03997,-0.01 -0.05994,-0.0145 -0.323757,-0.0791 -0.649518,-0.14845 -0.97669,-0.21032 -0.01742,-0.003 -0.03477,-0.007 -0.05219,-0.0103 -0.292971,-0.0409 -0.557308,-0.0808 -0.748278,-0.12764 -0.0098,-0.002 -0.01964,-0.003 -0.02946,-0.005 -0.339251,-0.0529 -0.679691,-0.10045 -1.020615,-0.14521 -0.08621,-0.0113 -0.172629,-0.0215 -0.258901,-0.0325 -0.655002,-0.0836 -1.311262,-0.16086 -1.965781,-0.24805 -0.338798,-0.0451 -0.677266,-0.0925 -1.014415,-0.14624 -0.0017,0.002 -0.0035,0.003 -0.0052,0.005 -1.0209,0.30813 -1.031712,0.31161 -1.526013,0.44287 -0.0025,7.4e-4 -0.0047,0.001 -0.0072,0.002 -2.12e-4,6e-5 -3.04e-4,-5e-5 -5.17e-4,0 -0.0032,0.002 -0.0066,0.003 -0.0098,0.005 -0.308361,0.15947 -0.622981,0.30537 -0.942583,0.43977 -0.0031,0.001 -0.0062,0.003 -0.0093,0.004 -1.45e-4,6e-5 -3.71e-4,-6e-5 -5.17e-4,0 l -0.0031,0.003 c -2.51e-4,2.7e-4 -3.05e-4,5.1e-4 -5.17e-4,10e-4 -1.5e-4,6e-5 -3.67e-4,-6e-5 -5.17e-4,0 -0.02775,0.011 -0.05587,0.0212 -0.08372,0.032 -1.5e-4,5e-5 -3.66e-4,-6e-5 -5.16e-4,0 -0.0039,0.002 -0.0079,0.003 -0.01189,0.005 -0.236972,0.0972 -0.476748,0.18741 -0.718822,0.2713 -8.78e-4,3e-4 -0.0017,7.3e-4 -0.0026,10e-4 -0.0014,5.7e-4 -0.0027,0.002 -0.0041,0.002 0,0 -5.17e-4,0 -5.17e-4,0 -0.114156,0.0396 -0.22902,0.0774 -0.344167,0.1142 -0.0087,0.003 -0.01717,0.006 -0.02584,0.009 -0.122349,0.0388 -0.245093,0.0759 -0.368455,0.11162 -0.107843,0.0312 -0.215982,0.061 -0.32453,0.0899 -0.02343,0.006 -0.04682,0.0125 -0.07028,0.0186 -0.09648,0.0252 -0.193446,0.0489 -0.290423,0.0723 -0.03171,0.008 -0.06332,0.0158 -0.09508,0.0233 -0.09796,0.0231 -0.196162,0.0449 -0.294558,0.0661 -0.02913,0.006 -0.05816,0.0129 -0.08733,0.0191 -0.09146,0.0193 -0.183137,0.0375 -0.274922,0.0553 -0.02434,0.005 -0.0485,0.0104 -0.07286,0.015 -0.01455,0.004 -0.02936,0.007 -0.04392,0.0114 -0.207321,0.0579 -0.415991,0.11112 -0.625807,0.15916 -0.01454,0.003 -0.02886,0.008 -0.04341,0.0109 -0.0098,0.002 -0.01967,0.004 -0.02946,0.006 -0.300723,0.0734 -0.603025,0.13451 -0.906408,0.18397 -0.01913,0.003 -0.03822,0.006 -0.05736,0.009 -0.305019,0.0482 -0.610842,0.0843 -0.917262,0.10904 -0.01724,0.001 -0.03444,0.003 -0.05168,0.004 -0.315309,0.0241 -0.631294,0.0367 -0.946719,0.0367 -3.44e-4,0 -6.9e-4,0 -0.001,0 -0.315919,-3e-5 -0.631483,-0.0127 -0.9462,-0.0362 -0.01671,-10e-4 -0.03342,-0.002 -0.05012,-0.004 -0.305929,-0.024 -0.610667,-0.059 -0.914161,-0.10438 -0.01828,-0.003 -0.03651,-0.005 -0.05478,-0.008 -0.303823,-0.0468 -0.606322,-0.10404 -0.906409,-0.17157 -0.01432,-0.003 -0.02858,-0.007 -0.04289,-0.01 -0.302563,-0.0691 -0.602756,-0.14872 -0.9002069,-0.23822 -0.0067,-0.002 -0.01346,-0.004 -0.02016,-0.006 -0.0059,-0.002 -0.01168,-0.004 -0.01757,-0.006 -0.29902,-0.0909 -0.595283,-0.19152 -0.887806,-0.30231 -0.0054,-0.002 -0.01109,-0.004 -0.01654,-0.006 -2.07e-4,-8e-5 -3.1e-4,-4.5e-4 -5.16e-4,-5.2e-4 -0.07156,-0.0258 -0.143855,-0.0495 -0.214975,-0.0765 -1.93e-4,-6e-5 -3.23e-4,-4.3e-4 -5.19e-4,-5.2e-4 -5.29e-4,-1.6e-4 -0.0013,-2.5e-4 -0.0021,-5.1e-4 -0.108763,-0.0344 -0.217272,-0.0697 -0.325048,-0.10646 -2.09e-4,-7e-5 -3.07e-4,-4.5e-4 -5.16e-4,-5.2e-4 -0.01059,-0.003 -0.02094,-0.007 -0.03152,-0.0109 -0.143619,-0.0475 -0.285115,-0.0987 -0.425816,-0.15193 -0.03485,-0.0132 -0.06972,-0.0263 -0.104389,-0.0398 -0.14127,-0.0551 -0.281397,-0.11289 -0.419612,-0.17363 -0.0054,-0.002 -0.01111,-0.004 -0.01654,-0.007 -0.02346,-0.0104 -0.0464,-0.0215 -0.06976,-0.032 -0.126963,-0.0571 -0.25243,-0.11654 -0.376724,-0.17828 -0.0323,-0.016 -0.06452,-0.0322 -0.09664,-0.0486 -0.13605,-0.0693 -0.270861,-0.14034 -0.403595,-0.21497 -0.0014,-8e-4 -0.0027,-0.002 -0.0041,-0.003 -0.02969,-0.0167 -0.05884,-0.0342 -0.08837,-0.0512 -0.114472,-0.0658 -0.227598,-0.13391 -0.339515,-0.20361 -0.02837,-0.0177 -0.05707,-0.0348 -0.08527,-0.0527 -0.13249,-0.0842 -0.263446,-0.1705 -0.392225,-0.25993 -0.02545,-0.0177 -0.05015,-0.0364 -0.07545,-0.0543 -0.106614,-0.0753 -0.211769,-0.15268 -0.315745,-0.23151 -0.03155,-0.0239 -0.06326,-0.0476 -0.09457,-0.0718 -0.123526,-0.0956 -0.245174,-0.1931 -0.364835,-0.29352 -0.0085,-0.007 -0.01682,-0.0145 -0.02532,-0.0217 -0.262116,-0.22123 -0.515233,-0.45384 -0.758098,-0.6966 -0.01163,-0.0116 -0.02303,-0.0235 -0.03462,-0.0351 -0.238158,-0.23994 -0.466542,-0.48957 -0.685232,-0.74827 -0.0121,-0.0143 -0.02362,-0.029 -0.03566,-0.0434 -0.219315,-0.26173 -0.429165,-0.53166 -0.627873,-0.81029 -0.006,-0.008 -0.01162,-0.0169 -0.01757,-0.0253 -0.200606,-0.28266 -0.39085,-0.57345 -0.569477,-0.87126 -0.0023,-0.004 -0.0049,-0.008 -0.0072,-0.0114 -0.0089,-0.0148 -0.01702,-0.0301 -0.02584,-0.045 -0.05795,-0.0977 -0.114483,-0.19595 -0.170017,-0.29507 -0.0097,-0.0174 -0.02032,-0.0343 -0.02997,-0.0517 -2.64e-4,-5.3e-4 -7.7e-4,-0.002 -0.001,-0.002 -0.0034,-0.006 -0.006,-0.0125 -0.0093,-0.0186 -0.142206,-0.25743 -0.276912,-0.51933 -0.40256,-0.78548 -6.1e-5,-1.2e-4 8.2e-5,-3.9e-4 0,-5.2e-4 -1.96e-4,-4.1e-4 -8.39e-4,-6.2e-4 -0.001,-10e-4 -0.0039,-0.008 -0.0075,-0.0166 -0.01137,-0.0248 -0.05638,-0.12008 -0.110869,-0.2411 -0.163815,-0.36277 -0.0034,-0.008 -0.007,-0.0155 -0.01033,-0.0232 -2.65e-4,-7.9e-4 -7.7e-4,-10e-4 -0.001,-0.002 -0.0024,-0.005 -0.0044,-0.0111 -0.0067,-0.0165 -0.116902,-0.27105 -0.22607695,-0.54539 -0.32556395,-0.82321 -2.43e-4,-8e-4 -2.35e-4,-0.002 -5.16e-4,-0.003 -7.4e-5,-2.1e-4 -4.41e-4,-3.1e-4 -5.16e-4,-5.2e-4 -0.05047,-0.14099 -0.0983,-0.28333 -0.144176,-0.42581 -6.9e-5,-2.1e-4 -4.5e-4,-3.1e-4 -5.19e-4,-5.2e-4 -0.04325,-0.13437 -0.08338,-0.26954 -0.122475,-0.40514 -0.0026,-0.009 -0.0057,-0.0179 -0.0083,-0.0269 -0.0021,-0.007 -0.0036,-0.0149 -0.0057,-0.0222 -0.07794,-0.27416 -0.148022,-0.55046 -0.208773,-0.82838 -0.0019,-0.009 -0.0043,-0.0172 -0.0062,-0.0258 -3.7e-5,-1.7e-4 2.9e-5,-3.4e-4 0,-5.1e-4 -1.51e-4,-7e-4 -3.68e-4,-10e-4 -5.16e-4,-0.002 -3.5e-5,-1.6e-4 4.2e-5,-3.6e-4 0,-5.2e-4 -0.0061,-0.0282 -0.01113,-0.0565 -0.01705,-0.0848 -0.05418,-0.25815 -0.10104,-0.51743 -0.140043,-0.77773 -0.0011,-0.007 -0.0025,-0.0145 -0.0036,-0.0217 -1.54e-4,-10e-4 -2.51e-4,-0.002 -5.16e-4,-0.003 -0.0013,-0.009 -0.0023,-0.0179 -0.0036,-0.0269 -0.02022,-0.13864 -0.03902,-0.27743 -0.05478,-0.41651 -2.64e-4,-0.002 -3.83e-4,-0.003 -5.18e-4,-0.004 -0.01703,-0.14011 -0.03199,-0.28068 -0.04496,-0.42116 -6.4e-5,-0.001 6.1e-5,-0.001 0,-0.002 -0.01301,-0.141 -0.02385,-0.282 -0.03255,-0.42323 -0.0087,-0.1418 -0.01544,-0.28342 -0.01964,-0.4253 0,0 0,-5.1e-4 0,-5.1e-4 -0.0041,-0.14137 -0.006200002,-0.28294 -0.0057000017,-0.42427 0,-10e-4 -2e-6,-10e-4 0,-0.002 0,-0.002 -1e-5,-0.005 0,-0.007 v -0.002 c -3.98999996e-4,-0.14151 0.0015000017,-0.28272 0.0057000017,-0.42426 0.0084,-0.28328 0.02613,-0.56635 0.05219,-0.84905 6.1e-5,-10e-4 -6.4e-5,-10e-4 0,-0.002 0.01294,-0.14057 0.02795,-0.28091 0.04496,-0.42117 2.64e-4,-0.002 3.7e-4,-0.003 5.18e-4,-0.004 0.01675,-0.14785 0.03616,-0.29548 0.05788,-0.44287 2.65e-4,-0.001 3.63e-4,-0.002 5.16e-4,-0.003 0.0085,-0.0574 0.01913,-0.11476 0.02842,-0.17208 0.0052,-0.0321 0.0106,-0.0641 0.01602,-0.0961 0.03016,-0.17761 0.06219,-0.35463 0.09922,-0.53123 0.0059,-0.0283 0.01095,-0.0566 0.01705,-0.0848 2.65e-4,-10e-4 2.97e-4,-0.002 5.19e-4,-0.003 0.01036,-0.0479 0.02272,-0.0953 0.03359,-0.14314 0.03543,-0.15554 0.07422,-0.31061 0.114721,-0.46509 0.0085,-0.0323 0.01758,-0.0644 0.02636,-0.0966 0.01547,-0.0572 0.02968,-0.1146 0.04599,-0.17157 0.04146,-0.14481 0.08508,-0.28906 0.131259,-0.43253 0.04599,-0.1429 0.09409,-0.28493 0.144695,-0.42633 3.07e-4,-0.001 0.0013,-0.001 0.0016,-0.002 0.07474,-0.20874 0.155714,-0.4151 0.24029695,-0.62011 0.0099,-0.024 0.01993,-0.0479 0.02997,-0.0718 0.02068,-0.0493 0.04024,-0.0992 0.06149,-0.14831 3.07e-4,-0.001 7.7e-4,-0.001 0.001,-0.002 0.05969,-0.13786 0.121418,-0.275 0.185518,-0.41083 3.07e-4,-0.001 7.73e-4,-0.002 0.001,-0.002 0.0078,-0.0165 0.01642,-0.0326 0.02429,-0.0491 0.09568,-0.20067 0.196676,-0.39854 0.30179,-0.59428 0.01018,-0.0189 0.02022,-0.0379 0.03049,-0.0568 0.01871,-0.0344 0.03629,-0.0696 0.0553,-0.10387 3.07e-4,-10e-4 7.7e-4,-0.002 10e-4,-0.002 0.07309,-0.1318 0.148496,-0.26247 0.225826,-0.39171 0.01587,-0.0265 0.03305,-0.0521 0.04909,-0.0785 0.0117,-0.0193 0.02386,-0.0382 0.03566,-0.0574 0.103625,-0.16864 0.211165,-0.33438 0.321947,-0.49816 0.02232,-0.033 0.04457,-0.0659 0.06718,-0.0987 0.122802,-0.17812 0.249188,-0.35385 0.380341,-0.52555 0.142651,-0.18675 0.290067,-0.36925 0.442351,-0.54777 0.143776,-0.16854 0.292796,-0.33238 0.444936,-0.49299 0.01803,-0.019 0.03611,-0.0379 0.05426,-0.0568 0.14991,-0.1563 0.303253,-0.30923 0.460957,-0.45734 0.003,-0.003 0.0058,-0.006 0.0088,-0.009 0.0012,-0.001 0.0025,-0.002 0.0036,-0.003 0.33353,-0.31236 0.684239,-0.60535 1.051104,-0.87746 0.01725,-0.0128 0.03487,-0.025 0.05219,-0.0377 0.933387,-0.68436 1.968625,-1.23325 3.093885,-1.60145 0.107776,-0.0368 0.216285,-0.072 0.325048,-0.10645 0.001,-2.1e-4 0.0018,-7.9e-4 0.0026,-0.001 0.07131,-0.0271 0.14372,-0.0511 0.215491,-0.077 2.4303749,-0.92403 5.1081309,-1.17381 7.6667549,-0.54208 0.239276,0.0539 0.477104,0.11468 0.713138,0.18138 0.02436,0.005 0.04852,0.01 0.07286,0.015 0.09178,0.0178 0.183461,0.036 0.274922,0.0553 0.02917,0.006 0.0582,0.0131 0.08733,0.0191 0.0984,0.0212 0.196598,0.0431 0.294558,0.0661 0.03177,0.008 0.06337,0.0153 0.09508,0.0233 0.09698,0.0235 0.193943,0.0471 0.290423,0.0724 0.02346,0.006 0.04685,0.0126 0.07028,0.0186 0.108548,0.0289 0.216687,0.0587 0.32453,0.0899 0.123363,0.0357 0.246107,0.0728 0.368455,0.11162 0.0087,0.003 0.01714,0.006 0.02584,0.009 0.115147,0.0368 0.23001,0.0746 0.344167,0.1142 0,0 5.17e-4,0 5.17e-4,0 0.0022,10e-4 0.0044,0.002 0.0067,0.003 0.246171,0.0856 0.49028,0.17685 0.731224,0.27595 0.028,0.0109 0.05633,0.0209 0.08423,0.032 0,0 5.17e-4,5.2e-4 5.17e-4,5.2e-4 l 0.0036,0.003 c 0.326312,0.13695 0.647619,0.28549 0.96222,0.44855 0.379135,0.11244 0.701327,0.20569 1.083661,0.31678 0.163511,0.0489 0.148432,0.0397 0.450104,0.13074 5.08e-4,5.5e-4 0.001,10e-4 0.0015,0.002 0.0023,6.7e-4 0.0013,3.6e-4 0.0036,10e-4 1.216631,-0.19409 2.447011,-0.31526 3.667496,-0.48576 0.05408,-0.008 0.108226,-0.015 0.162265,-0.0227 0.153586,-0.0221 0.30726,-0.0447 0.460439,-0.0687 0.190433,-0.0466 0.453994,-0.0858 0.745696,-0.12661 0.05253,-0.01 0.104642,-0.0213 0.157097,-0.0315 0.254543,-0.0494 0.508207,-0.10345 0.760681,-0.1633 0.08657,-0.0205 0.17312,-0.0416 0.259417,-0.0636 0.273569,-0.0695 0.545553,-0.14674 0.815975,-0.23203 0.04022,-0.0127 0.08078,-0.0236 0.120923,-0.0367 0.0057,-0.004 0.01003,-0.009 0.0155,-0.0129 0.04298,-0.033 0.08052,-0.0679 0.110071,-0.10542 0.0038,-0.005 0.0088,-0.009 0.0124,-0.0139 1.3e-4,-3.3e-4 -1.28e-4,-7.1e-4 0,-0.001 0.02828,-0.0723 0.04363,-0.13981 0.04599,-0.20206 0.0072,-0.19004 -0.09872,-0.33573 -0.272852,-0.45527 -0.0288,-0.004 -0.06266,-0.0129 -0.0925,-0.0176 -0.07017,-0.0111 -0.14241,-0.0246 -0.217042,-0.0408 -0.06586,-0.0143 -0.130336,-0.03 -0.198439,-0.0481 -0.08116,-0.0216 -0.162966,-0.0457 -0.245464,-0.0724 -0.06126,-0.0198 -0.120342,-0.0401 -0.181386,-0.0625 -0.09457,-0.0347 -0.188023,-0.0721 -0.27957,-0.11265 -0.04244,-0.0188 -0.08323,-0.0374 -0.124541,-0.0574 -0.100217,-0.0484 -0.195754,-0.10075 -0.286289,-0.15555 -0.01825,-0.0111 -0.04013,-0.0197 -0.05788,-0.031 -0.110833,-0.0385 -0.211294,-0.0809 -0.304893,-0.12557 -0.04021,-0.0191 -0.07818,-0.0393 -0.114205,-0.0599 -0.02679,-0.0154 -0.05285,-0.0311 -0.077,-0.0476 -0.04499,-0.0304 -0.08525,-0.0624 -0.119891,-0.0966 -0.0088,-0.009 -0.01781,-0.0174 -0.02584,-0.0264 -0.03795,-0.0422 -0.06735,-0.0876 -0.08733,-0.13642 -0.0014,-0.004 -0.0038,-0.007 -0.0052,-0.0103 -2.48e-4,-6.6e-4 -2.72e-4,-0.001 -5.16e-4,-0.002 -0.02047,-0.0553 -0.02873,-0.11517 -0.02274,-0.18035 0.01846,-0.20073 0.17164,-0.45185 0.517274,-0.77514 0.463138,-0.30906 0.993459,-0.44825 1.537898,-0.52245 0.50942,-0.10536 1.048066,-0.15536 1.57769,-0.13126 0.06573,-0.003 0.131498,-0.006 0.196889,-0.006 z" />
  </g>
</svg>
