<?xml version="1.0" encoding="UTF-8" standalone="no"?>
<!-- Created with Inkscape (http://www.inkscape.org/) -->

<svg
   xmlns:dc="http://purl.org/dc/elements/1.1/"
   xmlns:cc="http://creativecommons.org/ns#"
   xmlns:rdf="http://www.w3.org/1999/02/22-rdf-syntax-ns#"
   xmlns:svg="http://www.w3.org/2000/svg"
   xmlns="http://www.w3.org/2000/svg"
   xmlns:sodipodi="http://sodipodi.sourceforge.net/DTD/sodipodi-0.dtd"
   xmlns:inkscape="http://www.inkscape.org/namespaces/inkscape"
   width="210mm"
   height="297mm"
   viewBox="0 0 210 297"
   version="1.1"
   id="svg5"
   inkscape:version="0.92.3 (2405546, 2018-03-11)"
   sodipodi:docname="aero light adapter with clips.svg">
  <metadata
     id="metadata4530">
    <rdf:RDF>
      <cc:Work
         rdf:about="">
        <dc:format>image/svg+xml</dc:format>
        <dc:type
           rdf:resource="http://purl.org/dc/dcmitype/StillImage" />
      </cc:Work>
    </rdf:RDF>
  </metadata>
  <sodipodi:namedview
     id="namedview7"
     pagecolor="#ffffff"
     bordercolor="#666666"
     borderopacity="1.0"
     inkscape:pageshadow="2"
     inkscape:pageopacity="0.0"
     inkscape:pagecheckerboard="0"
     inkscape:document-units="mm"
     showgrid="false"
     inkscape:zoom="2"
     inkscape:cx="175.4559"
     inkscape:cy="28.327647"
     inkscape:window-width="1695"
     inkscape:window-height="1096"
     inkscape:window-x="427"
     inkscape:window-y="427"
     inkscape:window-maximized="0"
     inkscape:current-layer="layer1" />
  <defs
     id="defs2" />
  <g
     inkscape:label="Layer 1"
     inkscape:groupmode="layer"
     id="layer1">
    <path
       style="opacity:0.53500001;fill:#ff00ff;fill-opacity:1;fill-rule:nonzero;stroke:none;stroke-width:1.56882763;stroke-miterlimit:4;stroke-dasharray:none;stroke-opacity:1"
       d="M 115.70117 1053.1348 C 110.16383 1053.6322 102.09707 1052.8793 99.279297 1058.6621 C 100.06109 1066.3356 110.17721 1060.8818 115.01172 1063.2207 C 121.44675 1064.8945 118.80474 1074.3209 114.29492 1075.5898 C 105.23026 1077.1796 96.394805 1078.5782 87.273438 1079.6855 C 86.922701 1079.6781 86.573477 1079.6523 86.224609 1079.6211 C 79.242654 1077.765 72.910188 1073.9175 65.644531 1072.9395 C 51.597592 1068.5314 36.274558 1071.8686 23.644531 1078.7793 C 13.305377 1084.9432 6.1069542 1094.9955 2.5449219 1106.2656 C 0.80723775 1111.5231 -0.035258007 1117.0547 -0.015625 1122.5957 C -0.035247829 1128.1367 0.807248 1133.6683 2.5449219 1138.9258 C 6.1069542 1150.196 13.305377 1160.2482 23.644531 1166.4121 C 36.274558 1173.3228 51.597592 1176.6601 65.644531 1172.252 C 72.910188 1171.2739 79.242654 1167.4264 86.224609 1165.5703 C 86.573477 1165.5391 86.922701 1165.5133 87.273438 1165.5059 C 96.394804 1166.6132 105.23026 1168.0118 114.29492 1169.6016 C 118.80474 1170.8705 121.44675 1180.2969 115.01172 1181.9707 C 110.17721 1184.3096 100.06109 1178.8558 99.279297 1186.5293 C 102.09707 1192.3121 110.16383 1191.5592 115.70117 1192.0566 C 120.56264 1192.0457 125.43273 1189.8014 128.52344 1185.9863 C 134.51699 1179.1193 133.04033 1167.9806 126.1543 1162.2754 C 120.35616 1158.0325 112.56786 1158.5152 105.83594 1156.543 C 102.23451 1155.749 98.620035 1155.0236 95 1154.3223 L 95 1154.252 C 82.795614 1151.8852 70.56178 1149.6709 58.369141 1147.2559 C 46.102427 1144.2327 32.867444 1140.5867 23.919922 1131.0996 C 21.823412 1128.8528 20.711618 1125.9332 20.603516 1122.9844 C 20.600438 1122.8547 20.592909 1122.7254 20.59375 1122.5957 C 20.592907 1122.4662 20.600453 1122.3365 20.603516 1122.207 C 20.711618 1119.2582 21.823412 1116.3386 23.919922 1114.0918 C 32.867444 1104.6047 46.102427 1100.9588 58.369141 1097.9355 C 70.561779 1095.5205 82.795614 1093.3063 95 1090.9395 L 95 1090.8691 C 98.620035 1090.1678 102.2345 1089.4424 105.83594 1088.6484 C 112.56786 1086.6762 120.35616 1087.1589 126.1543 1082.916 C 133.04033 1077.2108 134.51699 1066.0721 128.52344 1059.2051 C 125.43273 1055.39 120.56264 1053.1457 115.70117 1053.1348 z "
       transform="scale(0.26458333)"
       id="path4534" />
  </g>
</svg>
