<?xml version="1.0" encoding="UTF-8" standalone="no"?>
<svg
   id="body_621766350_1517946"
   width="982.67749"
   height="408.18945"
   version="1.1"
   sodipodi:docname="Foot.svg"
   xmlns:inkscape="http://www.inkscape.org/namespaces/inkscape"
   xmlns:sodipodi="http://sodipodi.sourceforge.net/DTD/sodipodi-0.dtd"
   xmlns="http://www.w3.org/2000/svg"
   xmlns:svg="http://www.w3.org/2000/svg">
  <defs
     id="defs1" />
  <sodipodi:namedview
     id="namedview1"
     pagecolor="#ffffff"
     bordercolor="#000000"
     borderopacity="0.25"
     inkscape:showpageshadow="2"
     inkscape:pageopacity="0.0"
     inkscape:pagecheckerboard="0"
     inkscape:deskcolor="#d1d1d1"
     inkscape:zoom="0.10618586"
     inkscape:cx="-1040.6282"
     inkscape:cy="1304.3168"
     inkscape:window-width="1920"
     inkscape:window-height="991"
     inkscape:window-x="-9"
     inkscape:window-y="-9"
     inkscape:window-maximized="1"
     inkscape:current-layer="body_621766350_1517946" />
  <path
     id="path1"
     style="fill:#000000;stroke-width:0.397674"
     d="M 491.37378,9.5132117e-7 C 459.62744,-2.7226461e-4 458.60018,0.05839081 427.53003,0.06445407 L 425.29761,5.9960948 423.9148,162.68164 358.22729,163.72852 355.69995,11.853517 352.77807,0.13867283 C 220.36717,0.20121943 58.341553,0.23632723 56.739013,0.43554783 37.534373,2.8414507 20.689903,13.262934 10.280033,29.179689 c -4.1231,6.304009 -7.37383,14.147618 -8.98243,21.671874 -1.39096995,6.506702 -1.33352995,-0.170664 -1.27342995,151.681637 0.031,78.46122 0.096,143.46254 0.14453,144.44532 v 0.004 C 1.296003,369.89815 14.689273,390.6006 35.084713,400.95127 c 6.7183,3.40962 12.26201,5.17554 20.60938,6.56445 1.8421,0.30665 24.32843,0.4129 71.191407,0.48438 v 0.18945 h 59.36523 a 377.95276,233.07024 0 0 1 305.08789,-96.01963 377.95276,233.07024 0 0 1 305.69922,96.01953 h 39.24414 v -0.16797 c 62.30932,-0.0685 88.71827,-0.16608 90.85547,-0.50195 12.28397,-1.92987 22.4899,-6.32966 31.67187,-13.65234 3.014,-2.40361 7.92045,-7.32887 10.24805,-10.28907 7.41387,-9.42959 12.08166,-20.97957 13.34766,-33.02343 0.2565,-2.4395 0.31808,-40.1474 0.24218,-147.70703 C 982.53691,46.370063 982.64803,57.53449 981.09643,50.375001 977.09236,31.938495 964.5288,15.720428 947.59643,7.1269541 940.52446,3.5378949 934.01617,1.5424302 925.7937,0.44531345 924.28908,0.24434662 762.27925,0.20761008 629.89721,0.14257907 L 626.97729,11.853517 624.44995,163.72852 558.76245,162.68164 557.37769,5.9960948 555.14722,0.06445407 C 524.09823,0.05775195 523.10084,2.7400104e-4 491.37378,9.5132117e-7 Z" />
</svg>
