<?xml version="1.0" encoding="UTF-8" standalone="no"?>
<svg
   id="body_621766350_1517946"
   width="982.59796"
   height="408.16406"
   version="1.1"
   sodipodi:docname="Foot.svg"
   xmlns:inkscape="http://www.inkscape.org/namespaces/inkscape"
   xmlns:sodipodi="http://sodipodi.sourceforge.net/DTD/sodipodi-0.dtd"
   xmlns="http://www.w3.org/2000/svg"
   xmlns:svg="http://www.w3.org/2000/svg">
  <defs
     id="defs1" />
  <sodipodi:namedview
     id="namedview1"
     pagecolor="#ffffff"
     bordercolor="#000000"
     borderopacity="0.25"
     inkscape:showpageshadow="2"
     inkscape:pageopacity="0.0"
     inkscape:pagecheckerboard="0"
     inkscape:deskcolor="#d1d1d1"
     inkscape:zoom="0.10618586"
     inkscape:cx="-1040.6282"
     inkscape:cy="1304.3168"
     inkscape:window-width="1920"
     inkscape:window-height="991"
     inkscape:window-x="-9"
     inkscape:window-y="-9"
     inkscape:window-maximized="1"
     inkscape:current-layer="body_621766350_1517946" />
  <path
     id="path1"
     style="fill:#000000;stroke-width:0.397674"
     d="m 465.7757,2.5e-7 c -10.12166,0.01741 -19.64533,0.03543 -38.26953,0.03906 l -1.1543,3.06835995 c 4.41279,-0.226786 8.79775,-0.524175 13.33008,-0.550782 6.31446,-0.03707 16.04429,-1.15658 26.09375,-2.55663995 z m 61.44336,0.01172 C 516.56394,5.5323333 504.35207,7.7499732 478.20929,9.0722673 c -14.95198,0.7563999 -36.25992,3.0285307 -47.34961,5.0488287 -1.15958,0.211259 -4.23739,0.653798 -5.66601,0.902343 l -0.0371,4.138672 c 17.34713,-2.721345 37.82631,-5.348018 52.72265,-6.335937 28.49907,-1.890198 44.47593,-5.3155347 57.49805,-12.80664075 -2.33672,-0.0036 -6.06185,-0.0039 -8.1582,-0.0078 z m -204.13672,0.13086 c -6.82137,0.0029 -7.95033,0.01269 -14.80078,0.01563 -20.64261,4.52873695 -40.57547,7.38311395 -52.8418,7.39062495 -7.76389,0.0019 -17.45807,1.1677981 -21.54297,2.5917968 -4.08489,1.423998 -27.78795,2.841591 -52.67383,3.15039 -55.69934,0.6911 -55.77558,0.725254 -79.53906,35.324219 -21.590983,31.43587 -56.317403,99.586669 -60.033203,117.814449 -2.8239,13.85309 -2.15941,22.74658 4.80078,64.17774 3.8634,22.99797 3.12935,34.62522 -3.36914,53.4082 -3.2658,9.43959 -7.32187,22.26591 -9.01367,28.5039 -5.050401,18.62169 -12.98773,32.49647 -28.1953149,49.27735 -0.753109,0.83104 -1.518167,1.86105 -2.291016,2.74414 0.479135,1.39698 1.06638,2.74694 1.638672,4.10351 0.688573,-0.85215 1.284245,-1.78041 1.970703,-2.60937 C 18.6059,352.25137 29.130585,337.69033 30.580383,333.67774 52.382567,273.3361 54.592597,258.07332 47.500307,216.78516 40.704607,177.2242 42.569547,165.74306 62.453427,124.75 89.194507,69.620263 116.04023,28.676911 130.72101,20.632819 c 6.43789,-3.528096 13.84188,-4.150699 43.06055,-3.625 20.85388,0.3752 45.59259,-0.844024 60.48828,-2.982422 13.86219,-1.989998 33.5051,-4.3365438 43.65039,-5.2148428 10.14529,-0.878399 27.1567,-3.942497 37.80469,-6.808594 2.35808,-0.634749 4.70364,-1.16718495 7.35742,-1.85937495 z m 360.00195,0.0293 c -3.4545,0.377757 -14.0313,6.50199095 -24.1289,14.05078075 -10.39669,7.772192 -23.43961,16.230678 -28.98438,18.796875 -1.10065,0.509401 -2.25709,0.768965 -3.39062,1.197266 l -0.0645,3.896484 c 9.38519,-3.962364 20.5174,-10.353313 32.83985,-19.724609 8.40591,-6.392594 19.3841,-13.0326607 24.39648,-14.7558597 2.29717,-0.789716 4.6923,-2.078068 6.8457,-3.45312505 -3.46701,-0.0016 -4.03765,-0.0063 -7.51367,-0.0078 z m 109.04102,0.111328 c 14.07061,5.84662395 16.17784,8.96481795 7.34375,10.99999975 -3.11905,0.718499 -13.04428,3.118133 -22.05469,5.332031 -10.2475,2.517998 -31.48429,4.386688 -56.70898,4.992188 -22.17942,0.532399 -43.65209,1.570641 -47.7168,2.30664 -4.06471,0.7361 -18.01479,7.679995 -31.00195,15.429688 -5.87878,3.507991 -10.91449,6.175279 -15.63282,8.498047 l -0.11328,6.818359 c 6.42542,-2.98794 13.73129,-7.020165 22.30469,-12.296875 l 21.75195,-13.388672 47.88867,-1.6875 c 49.82921,-1.757198 83.26711,-7.407589 91.28516,-15.425781 4.03623,-4.0362317 3.06089,-7.1351807 -4.47851,-11.56445275 -4.38574,-0.0043 -8.18357,-0.0097 -12.86719,-0.01367 z m 70.18359,0.07227 c 8.34368,3.96226295 13.7273,9.20755195 17.99414,17.77539075 4.6789,9.395191 5.29693,12.793557 3.07813,16.939453 -4.1767,7.804092 -13.21214,8.847168 -43.97071,5.076172 -55.81672,-6.843093 -54.92363,-6.925084 -169.11328,15.558594 -16.52741,3.254217 -30.60504,6.999515 -44.27343,12.019531 l -0.0645,3.832031 c 4.44007,-1.716955 8.86757,-3.410238 12.83399,-4.537109 21.70197,-6.165494 117.65408,-24.642761 138.62109,-26.693359 13.50815,-1.321099 28.82256,-0.499697 53.66016,2.875 35.5118,4.825095 45.05538,4.398977 52.82617,-2.353516 10.59859,-9.20972 2.28437,-28.909206 -13.58203,-40.48437475 -1.48841,-0.004 -6.34212,-0.004 -8.00977,-0.0078 z m -755.66992,0.0039 c -1.5569,0.0046 -7.856773,0.0049 -9.162113,0.0098 C 86.510497,6.3515132 77.179927,15.265155 68.978817,27.791053 56.877637,46.273735 4.8526021,164.14178 1.3753051,180.95316 c -0.52175505,2.52268 -0.93857705,7.55922 -1.36914005,12.17383 0.0021,5.06177 -0.008,3.91653 -0.005899999,9.38086 0.0101599992,25.71979 0.0311799992,26.30334 0.0468699992,47.34961 0.947396,-7.9323 1.42340505,-18.2283 1.90625005,-31.85352 1.490899,-42.06946 1.268797,-41.34345 36.0722669,-118.201166 31.12027,-68.723932 35.40804,-76.420007 49.07812,-88.121096 5.70368,-4.8821197 12.25556,-8.5669367 19.535158,-11.32226475 z m -30.021483,0.03125 c -0.67189,0.0054 -8.5151,0.0022 -8.91407,0.0078 C 60.031257,7.1878472 52.006337,16.243514 46.863587,24.869131 42.211087,32.672624 30.685257,48.853175 21.252258,60.826163 11.367679,73.372355 5.2424351,81.791307 0.08038305,89.816397 c -0.0082,1.79976 5.25e-4,7.94986 -0.0059,10.00781 C 4.7339051,91.903157 10.556199,84.127087 21.418233,70.261709 32.691026,55.871824 45.271616,38.236149 49.373306,31.072256 55.153406,20.977105 65.665106,9.3651692 76.617456,0.39061625 Z m 847.169923,0.02734 C 916.40602,5.7872892 913.35173,13.44933 910.95343,28.974609 c -5.54939,35.924764 -14.06457,43.252595 -40.78125,35.095703 -21.43688,-6.544793 -90.99644,-6.417309 -114.18164,0.208985 -8.3172,2.376997 -20.79355,5.95618 -27.72461,7.955078 -6.93117,1.998899 -27.34636,5.301946 -45.36718,7.339843 -23.55658,2.663808 -41.51142,5.580198 -57.22071,8.917968 l -0.0664,3.95508 c 13.14195,-2.55695 29.16648,-5.10016 51.55273,-8.09961 24.63184,-3.300295 53.97413,-8.902774 65.20703,-12.451172 14.44774,-4.564095 31.26307,-7.306796 57.47266,-9.371094 35.05329,-2.760797 38.22644,-2.621148 58.88672,2.560547 12.01018,3.012297 25.02919,5.476563 28.92968,5.476563 14.57139,0 23.847,-12.669203 27.15039,-37.080078 2.77,-20.468699 5.14478,-26.4297778 15.05079,-32.1933597 -1.38596,-0.2606801 -2.60753,-0.67109605 -4.0918,-0.86914005 -0.0101,-0.0013 -1.95799,-6.22e-4 -1.98242,-0.002 z M 556.95148,4.8984372 C 541.40343,21.394992 536.63903,22.037338 485.04914,23.511718 c -28.55813,0.816156 -45.22329,2.017969 -59.97266,4.88086 l -0.0312,3.488281 c 10.47291,-2.193829 23.43821,-2.94912 56.22266,-3.951172 56.53031,-1.727756 60.17175,-2.353911 76.12109,-17.90039 l -0.0352,-4.0585938 z m 395.67185,5.1406248 c -1.3709,0.516578 -2.7124,1.038752 -3.6386,1.585938 -9.5703,5.653194 -16.4248,22.761318 -18.80669,46.933594 -2.1723,22.044978 -2.82544,23.444622 -13.24023,28.386722 -6.7965,3.22519 -13.18447,3.86032 -28.16016,2.79882 -22.37188,-1.58559 -50.85121,-5.67036 -63.2207,-9.068355 -7.84355,-2.154598 -58.59355,0.860265 -63.28516,3.759765 -0.97692,0.6038 -6.75894,1.69834 -12.84961,2.43164 -6.09067,0.7334 -13.90948,1.87717 -17.375,2.54297 -15.27786,2.9351 -23.47167,4.03016 -56.70898,7.56836 -19.22862,2.04701 -41.42735,4.934824 -49.91016,6.474614 l -0.0644,3.94531 c 9.0927,-1.66487 19.94046,-3.28463 30.49023,-4.16797 15.62144,-1.308 54.05188,-6.358464 85.40039,-11.222654 31.34865,-4.8642 61.09844,-8.84594 66.11133,-8.83594 5.01303,0.004 22.72485,2.2687 39.35938,5.0332 63.66323,10.58009 86.86341,5.07807 86.99801,-20.628904 0.024,-4.596296 1.7024,-16.294557 3.7305,-25.998047 3.5905,-17.179139 7.8232,-24.915148 18.9375,-28.91211 -1.2324,-0.910522 -2.4697,-1.80669 -3.7676,-2.626953 z m -597.2949,0.394532 c -10.31235,2.374331 -21.50232,5.160127 -34.10547,8.484374 -29.51567,7.785293 -58.47928,11.323749 -103.33593,12.623047 -62.26274,1.803399 -70.81644,3.784173 -87.32813,20.222657 -14.21028,14.147385 -22.37199,28.535005 -33.863283,59.701178 -11.83799,32.10627 -13.04943,47.19328 -5.64844,70.28906 l 6.15235,19.19922 -4.16992,28.68945 c -5.5593,38.25786 -6.80481,102.86969 -2.57032,133.28516 2.8784,20.67496 5.55715,35.53596 7.86328,44.85351 1.20483,0.005 1.781923,0.0145 3.072273,0.0195 -3.640763,-17.18924 -9.701763,-60.36658 -10.968753,-81.03516 -1.0466,-17.07108 -0.1741,-38.17196 2.62109,-63.39453 7.658503,-69.10803 7.595493,-65.19003 1.3418,-81.91211 -4.4498,-11.89789 -5.42586,-18.51344 -4.38086,-29.70703 2.5344,-27.14628 22.992693,-76.376721 39.230473,-94.404304 14.63328,-16.246284 23.37621,-18.788574 71.00586,-20.638672 60.62894,-2.354898 84.06023,-5.443131 136.17578,-17.949219 7.33775,-1.760832 13.00794,-2.975321 19.29883,-4.398437 l -0.043,-2.533203 z m 0.58789,15.826171 c -5.79891,1.000315 -16.11301,2.527933 -17.05078,2.884766 -2.0793,0.791299 -9.45172,2.608964 -16.38281,4.039063 -6.93099,1.430198 -17.13675,3.609044 -22.68164,4.839843 -30.99887,6.881493 -51.40179,9.187157 -82.09766,9.285157 -43.72345,0.138699 -69.38193,7.092489 -78.36132,21.234374 -5.5886,8.801693 -21.49134,47.495222 -23.58204,57.378912 -3.51749,16.62928 -1.27748,34.46591 7.75391,61.74219 12.66059,38.23716 14.99486,62.8546 11.16797,117.78125 -1.7089,24.52677 -2.30768,53.12971 -1.33008,63.5625 1.43191,15.28046 4.41908,29.9691 7.53516,39.15625 h 3.15429 c -5.09188,-15.94984 -7.03447,-35.36022 -6.47851,-67.91993 0.367,-21.48637 0.61669,-57.2131 0.55469,-79.39257 -0.1135,-40.29966 -0.12119,-40.34822 -10.58008,-72.58399 -14.53429,-44.79665 -14.15205,-52.00555 5.17773,-97.787114 9.45169,-22.385774 13.18859,-26.583735 29.01367,-32.582029 12.09629,-4.584995 22.49506,-5.853345 61.19922,-7.464843 40.99076,-1.706699 52.33409,-3.196988 93.83985,-12.330079 15.62141,-3.437443 28.86599,-6.065815 39.21289,-7.96289 z m 620.24221,10.080079 c -1.5961,1.020144 -3.4081,2.038103 -4.5606,3.007812 -7.1382,6.006394 -9.2759,11.121061 -19.1523,45.82813 -5.5194,19.396084 -15.2915,29.049114 -33.32228,32.916014 -10.93978,2.3462 -16.02908,1.73905 -42.41406,-5.05664 -27.90817,-7.18799 -32.08811,-7.62148 -60.37695,-6.27148 -16.71578,0.79769 -35.99577,2.57 -42.8457,3.9375 -21.55062,4.30239 -61.10139,8.48214 -106.96875,11.30664 -14.13272,0.87024 -28.11837,3.49745 -41.52149,7.39453 l -0.0645,3.86133 c 13.73671,-4.02933 28.34834,-6.17033 59.21094,-8.58008 24.55451,-1.9172 61.53918,-5.98883 82.18945,-9.04883 53.02189,-7.85669 79.09679,-7.54115 110.53906,1.33984 51.06875,14.42469 74.98533,1.15554 84.50393,-46.88672 3.0207,-15.245702 7.1337,-23.517902 16.4179,-29.949218 -0.5223,-1.277951 -1.0302,-2.558072 -1.6347,-3.798828 z M 440.3382,37.853515 c -4.4578,-0.0239 -9.78102,0.990765 -15.36719,2.529297 l -0.0371,4.044922 c 17.36635,-4.81942 28.219,-2.654786 46.49219,8.638672 4.68489,2.895497 15.99307,6.323089 25.13086,7.617188 19.25398,2.726697 24.77669,5.215451 30.30469,13.652343 3.33739,5.093595 3.51176,7.621189 1.03906,15.113279 -3.567,10.808294 -11.62537,18.851134 -41.67774,41.599614 -12.52358,9.47989 -31.80566,26.69031 -42.84765,38.2461 -16.81119,17.59308 -21.10076,23.86686 -26.37696,38.56445 -4.73059,13.17769 -9.35449,20.56065 -18.55078,29.62305 -6.73709,6.63899 -14.80679,12.71324 -17.93359,13.49804 -3.1267,0.7848 -14.06059,-1.40353 -24.29687,-4.86133 -40.20076,-13.57988 -56.11766,-11.54559 -91.07813,11.64258 -19.63038,13.02029 -25.07371,15.47177 -34.5918,15.57227 -10.95599,0.1157 -11.40031,-0.1846 -14.75781,-9.96289 -4.66639,-13.59019 -6.77106,-73.73066 -3.35156,-95.77344 2.2391,-14.43359 4.08298,-18.85585 10.13867,-24.31055 7.53209,-6.78459 26.15154,-12.23632 41.79492,-12.23632 8.71149,-1e-5 17.85908,-7.04376 27.38867,-21.08985 6.9821,-10.290994 36.59515,-24.045054 57.39063,-26.656254 3.19523,-0.40122 5.35778,-0.77612 7.69531,-1.16016 l -0.0664,-4.050776 c -4.91689,1.495766 -9.83154,2.548828 -14.54688,2.548828 -4.7313,0 -17.53137,4.082318 -28.44336,9.070308 -16.55488,7.5674 -21.21736,11.087734 -28.16016,21.261724 -9.70399,14.22049 -15.71792,17.53533 -31.94531,17.61133 -12.91759,0.0603 -29.59141,6.54894 -36.1914,14.08203 -7.0583,8.05619 -9.57617,23.60365 -9.75977,60.29102 -0.1911,38.19576 2.72015,61.42386 8.87305,70.81445 6.91299,10.55059 21.58083,7.07188 49.16211,-11.6582 32.51096,-22.07778 49.38328,-24.85928 83.90625,-13.83399 29.32897,9.36669 33.86211,8.736 50.02929,-6.96289 10.46619,-10.16299 15.36722,-17.61628 21.12891,-32.13476 6.74629,-16.99939 10.05022,-21.36727 32.8125,-43.36914 13.92109,-13.45609 34.64515,-31.41376 46.05273,-39.90625 33.1667,-24.69098 41.30197,-42.629614 26.18946,-57.742195 -6.494,-6.493893 -25.06785,-12.726562 -37.92774,-12.726562 -2.422,0 -11.72383,-3.943477 -20.66992,-8.763672 -11.14249,-6.003794 -19.63138,-8.783266 -26.95117,-8.822266 z m -84.01172,13.033203 c -13.17738,4.491972 -28.56392,9.623908 -43.31445,14.410157 -30.16097,9.786491 -63.43176,22.347011 -73.93555,27.912111 -10.50369,5.56509 -22.16316,10.117194 -25.91016,10.117194 -9.25139,0 -27.95148,9.88819 -33.73437,17.83789 -9.67199,13.29568 -12.10535,43.45611 -5.88086,72.89648 5.55149,26.25757 6.90765,60.87092 4.37695,111.69727 -1.2988,26.08427 -1.54828,50.4682 -0.55469,54.1875 0.9937,3.71929 4.70224,8.38885 8.24024,10.37695 5.70039,3.2031 7.80428,3.09087 18.48047,-0.98633 15.07268,-5.75639 28.06996,-17.40738 46.65234,-41.81836 16.97018,-22.29288 30.82227,-35.16211 37.84766,-35.16211 2.7504,0 11.37683,-3.40185 19.16992,-7.56054 16.25448,-8.6739 33.30968,-9.86529 50.00586,-3.49219 5.54489,2.1165 15.7526,5.60184 22.68359,7.74414 6.9311,2.1424 20.54065,6.60482 30.24414,9.91601 20.50678,6.9976 29.60005,7.54691 34.14844,2.06641 1.9041,-2.2943 4.10728,-15.6523 5.29688,-32.11328 3.92779,-54.35415 11.9863,-81.31512 29.27539,-97.9375 23.45743,-22.55294 51.47282,-44.50787 78.83984,-62.67969 l -0.041,-4.67187 c -0.48367,0.31373 -0.84991,0.50039 -1.3379,0.81836 -41.5269,27.05787 -86.15411,65.8715 -94.3457,82.05468 -7.88079,15.56909 -14.34849,47.81851 -16.67969,83.17188 -1.94769,29.53967 -2.2577,30.25455 -13.15039,30.18555 -5.17189,-0.0329 -16.21005,-2.86287 -24.52734,-6.28907 -8.31729,-3.42619 -17.38971,-6.237 -20.16211,-6.25 -2.7724,-0.0112 -13.54677,-3.51998 -23.94336,-7.79687 -22.65528,-9.31989 -38.72006,-8.95382 -57.06055,1.29687 -6.35019,3.5492 -15.90297,7.62595 -21.23046,9.06055 -9.8229,2.645 -20.17764,12.87245 -45.84961,45.29102 -13.82509,17.45838 -29.61388,29.57857 -41.41797,31.79296 -17.56949,3.2961 -17.2716,4.59492 -16.3086,-71.1289 0.7043,-55.38325 0.0825,-72.11783 -3.40625,-91.69141 -5.22489,-29.31357 -5.85686,-58.56813 -1.53906,-71.22851 4.3042,-12.62049 16.70299,-21.59519 36.07617,-26.11328 8.74239,-2.0387 22.07401,-7.192434 29.625,-11.453134 7.55109,-4.2607 43.84458,-17.761464 80.65235,-30.001953 14.05459,-4.673905 19.86028,-6.736138 32.77148,-11.083985 z M 437.36554,63.3125 c -4.59359,-0.46367 -8.60541,0.04099 -12.61133,1.527344 l -0.0566,6.361328 c 0.24397,-0.110901 0.74314,-0.494849 0.95704,-0.576172 9.17479,-3.488297 10.26768,-3.359529 29.73046,3.509765 19.54338,6.897693 31.82605,13.604011 35.43555,19.345701 3.8513,6.1265 -5.7931,17.302444 -32.45508,37.607424 -14.2626,10.86192 -25.39555,20.81701 -34.46289,30.23243 l -0.0117,1.33593 -1.37109,0.0215 c -11.01526,11.67063 -18.43411,22.40623 -21.72266,32.22656 -2.67269,7.98159 -7.54241,17.40646 -10.82031,20.94336 -7.09559,7.65629 -14.13941,6.78472 -29.6875,-3.66797 -14.51028,-9.75499 -23.36193,-12.66962 -39.13672,-12.88672 -18.65078,-0.2566 -46.68422,12.94061 -64.375,30.30469 -14.36088,14.09579 -18.21849,14.22259 -24.61328,0.8125 -6.00839,-12.59979 -5.24714,-21.35732 3.71875,-42.7168 9.32179,-22.20717 16.99054,-30.7391 29.54492,-32.875 21.07208,-3.58489 28.79501,-6.91544 40.83789,-17.61133 10.65159,-9.46003 31.6237,-21.375 51.00196,-29.76757 l -0.10547,-6.27539 c -20.66376,8.69965 -43.70173,21.66136 -53.56446,30.88672 -9.53699,8.92079 -14.71025,11.63472 -26.71484,14.01171 -29.09717,5.7614 -36.70756,12.8003 -49.06445,45.38477 -6.9352,18.28758 -6.79306,30.08622 0.51953,43.37891 8.82199,16.03628 16.87821,16.21391 30.68359,0.67773 6.8282,-7.68429 16.71498,-14.84206 28.10547,-20.34766 14.83909,-7.17259 20.32587,-8.49318 35.28516,-8.49218 16.25268,10e-4 19.06452,0.83268 34.0957,10.08007 9.04209,5.5628 19.5996,10.07938 23.5625,10.08008 9.84319,0.002 19.72742,-11.20642 26.97852,-30.5957 7.46129,-19.95128 14.29288,-27.58527 51.65234,-57.71094 32.13437,-25.91227 38.94922,-33.58664 38.94922,-43.865234 0,-7.76039 -5.29484,-11.42084 -33.07031,-22.861331 -11.7964,-4.858832 -20.18389,-7.768823 -27.21485,-8.478515 z m 545.04879,21.619136 c -5.4716,19.595724 -11.9002,33.888104 -17.666,38.931654 -2.5335,2.21609 -15.9465,8.24875 -29.8086,13.40624 -31.00486,11.53559 -43.75385,11.34562 -71.78512,-1.07617 -18.50099,-8.19849 -19.35403,-8.32911 -45.36719,-6.88281 -14.58137,0.8107 -32.18224,3.13802 -39.11328,5.16992 -6.98686,2.0483 -29.39607,4.38228 -50.29297,5.23828 -45.75331,1.87418 -76.81895,7.96914 -103.89453,20.30664 l -0.0606,3.67774 -7.38867,-0.11719 c -32.44839,16.08961 -42.10879,27.68253 -49.86914,58.75781 -9.3064,37.26647 -9.72029,43.22505 -4.23438,60.98633 2.22324,7.19782 4.40509,21.27841 5.74219,34.28516 a 377.95276,233.07024 0 0 1 3.51367,0.44336 c -1.63816,-15.24693 -3.44344,-28.22353 -5.27539,-34.29492 -5.25231,-17.40689 -4.68011,-26.66014 3.57813,-57.81641 6.3964,-24.13178 8.46473,-28.58257 17.61914,-37.91016 27.25408,-27.76997 82.25202,-44.38476 146.92187,-44.38476 13.72834,0 30.36501,-2.00247 44.17383,-5.31836 13.13358,-3.1537 31.38456,-5.43351 44.83398,-5.59961 20.76224,-0.2563 24.28396,0.44944 41.58594,8.33203 25.50608,11.62049 40.29491,11.36255 73.09177,-1.27344 13.169,-5.07369 26.0497,-11.10133 28.6231,-13.39453 5.175,-4.61164 9.8094,-13.11753 15.0957,-28.033204 -0.012,-2.69521 -0.01,-11.20008 -0.024,-13.4336 z m -555.64254,10.16407 c -0.72277,0.0301 -1.53478,0.27116 -2.28711,0.3789 l -0.0312,3.43555 c 1.16032,-0.21977 2.53971,-0.625 3.38868,-0.625 6.49669,0 22.16597,9.429994 23.76367,14.300784 0.5336,1.6267 -6.18375,7.81285 -14.92774,13.74805 -4.70925,3.19653 -8.63911,6.28091 -12.54883,9.375 l -0.0469,5.16406 c 4.26283,-3.58782 8.75248,-7.19013 13.97656,-10.91797 22.90688,-16.34598 23.3442,-19.22 4.54102,-29.90039 -5.895,-3.348414 -10.53076,-5.179304 -15.82813,-4.958984 z m 131.54492,19.919924 c -28.73562,18.72278 -57.37548,46.89308 -70.39843,70.0293 -14.86189,26.40337 -19.46586,66.61773 -11.41797,99.75 2.87908,11.85291 4.78586,20.34692 6.26172,27.71289 a 377.95276,233.07024 0 0 1 4.35351,-0.18555 c -0.75875,-3.71262 -1.58146,-7.51792 -2.7539,-12.4043 -12.33539,-51.41055 -11.34193,-73.36036 4.87695,-107.76953 11.20367,-23.76911 39.55441,-52.81901 69.11719,-72.73828 z m -200.64648,16.66016 c -10.02127,4.72108 -21.90524,9.53415 -38.46289,15.7207 -29.35287,10.96739 -40.13787,23.09517 -30.79688,34.63086 l 4.52735,5.58984 17.85937,-4.63281 c 23.20038,-6.0174 30.90609,-4.28151 49.44727,11.13867 8.29229,6.89649 15.77129,12.53906 16.62109,12.53906 3.6092,0 9.88981,-9.91405 16.0293,-25.30664 2.5945,-6.50474 6.21863,-12.50344 10.4043,-18.37109 l -4.98243,0.0801 c -2.90588,4.59784 -5.42089,9.41125 -7.5664,14.61328 -4.0022,9.70349 -8.82831,19.32496 -10.72461,21.38086 -3.841,4.16409 -3.29508,4.44395 -23.41016,-11.92774 -11.66939,-9.49759 -14.62514,-10.71289 -26.08203,-10.71289 -7.10679,0 -17.92542,1.9105 -24.04101,4.2461 -10.64249,4.06439 -11.26708,4.04492 -14.57618,-0.48047 -1.90149,-2.6005 -3.45703,-6.15464 -3.45703,-7.89844 0,-5.76209 16.0001,-15.22334 44.10547,-26.07813 10.53121,-4.06736 18.32634,-7.27095 25.17774,-10.24218 z m 200.80469,1.20703 c -30.1509,22.02247 -52.6554,53.04922 -58.57227,85.12109 -4.25169,23.04538 -1.35651,51.37375 9.14258,89.47461 0.6025,2.18641 0.90305,3.50676 1.43164,5.46289 a 377.95276,233.07024 0 0 1 3.98438,0.16406 c -0.91476,-3.97725 -1.74634,-7.93693 -2.79297,-11.92773 -14.98139,-57.12434 -12.34934,-91.41741 9.65234,-125.73438 8.39553,-13.09494 21.71534,-26.18918 37.19922,-37.51562 z m 424.03321,4.73047 c -8.8148,9.38426 -23.8801,18.5206 -43.0781,25.85351 -28.50633,10.88829 -43.58921,10.66675 -78.52347,-1.14844 -25.87828,-8.75229 -27.72043,-9.01506 -54.50781,-7.78906 -18.96548,0.868 -32.4276,2.93447 -42.61133,6.53906 -12.68827,4.491 -20.74165,5.26758 -54.5293,5.26758 -42.45778,0 -55.25267,2.40729 -78.02734,14.67578 -15.9378,8.58539 -25.01755,17.59335 -30.54688,30.30274 -4.41687,10.15219 -4.66261,16.04191 -3.36719,80.65234 0.21059,10.50268 0.66789,20.09725 1.05469,29.98242 a 377.95276,233.07024 0 0 1 4.81445,1.03907 c -0.3463,-9.7495 -0.80742,-18.19769 -1.0371,-28.74805 l -1.63282,-74.98828 6.59571,-11.25586 c 7.95744,-13.57829 22.7515,-24.21153 44.49218,-31.97852 14.33044,-5.11959 20.91243,-5.78642 57.75977,-5.85742 37.14307,-0.0721 43.60704,-0.74055 60.49023,-6.24414 14.49861,-4.7263 24.48082,-6.18477 42.84571,-6.25977 21.3275,-0.087 26.88195,0.93304 50.83203,9.33204 14.78858,5.18619 31.27959,9.42968 36.64648,9.42968 23.69492,0 65.36989,-17.01703 82.33989,-33.02148 0,-1.97964 -0.01,-3.92199 -0.01,-5.7832 z m -420.38478,25.09765 c -1.82875,1.60717 -3.76665,3.14844 -5.46679,4.83008 -22.19258,21.95098 -24.99876,31.46923 -24.91016,84.48828 0.0477,28.50707 1.37336,47.92831 4.2168,61.75 0.0176,0.0857 0.0254,0.13718 0.043,0.22266 a 377.95276,233.07024 0 0 1 5.03515,0.20898 c -7.08696,-44.91328 -7.83099,-90.38931 -1.50976,-112.91797 3.92374,-13.98412 13.32756,-27.09979 27.14648,-38.50976 z m 420.45898,17.01172 c -1.3405,1.2152 -2.9054,2.39597 -4.1484,3.58008 l -19.8809,18.9375 -11.8066,-1.58594 c -6.4937,-0.8725 -32.7907,-2.6444 -58.43558,-3.9375 -25.64497,-1.293 -53.4027,-3.65826 -61.68359,-5.25586 -18.19444,-3.5101 -31.96537,-1.62931 -45.43164,6.20508 -14.82875,8.62709 -23.72693,9.7415 -42.68164,5.3457 -20.51778,-4.75839 -49.71976,-4.8919 -62.62695,-0.28711 -13.04601,4.6542 -24.38353,12.82891 -32.9375,23.75 -6.77566,8.65059 -7.09584,10.15277 -5.63477,26.37696 1.29632,14.39418 0.77675,18.30436 -3.17773,23.94336 -6.19566,8.835 -11.20157,27.69813 -13.89649,49.87109 a 377.95276,233.07024 0 0 1 6.47852,1.39844 c 3.4093,-26.69621 8.03909,-43.18351 14.99414,-52.02539 5.05946,-6.432 5.22147,-7.81959 2.27148,-19.33008 -4.26034,-16.62279 -2.2965,-22.52606 11.55078,-34.71485 19.40685,-17.08258 43.05183,-21.4302 76.51172,-14.07031 25.16826,5.5359 34.31901,4.80639 49.8711,-3.9707 12.62322,-7.12409 15.1822,-7.65458 31.70703,-6.58008 9.8871,0.6429 40.09383,2.39067 67.125,3.88477 27.03117,1.49419 54.42422,3.97567 60.87302,5.51367 13.7851,3.28755 21.6991,-0.16973 40.9746,-18.03711 0,-4.74146 -0.013,-4.62921 -0.016,-9.01172 z M 831.3714,219.26563 c -14.49759,0 -28.48581,2.74838 -52.69726,10.35547 -12.85683,4.03949 -19.84198,4.51856 -46.62696,3.19336 -68.1131,-3.3697 -67.28743,-3.7553 -70.7832,33.04297 -1.30151,13.69898 -4.91376,27.90174 -11.22461,44.14062 l -8.34766,21.48047 a 377.95276,233.07024 0 0 1 5.64649,1.77344 c 1.85653,-8.03421 4.54735,-16.43198 9.35547,-29.07813 4.9042,-12.89899 8.02713,-26.72647 9.05859,-40.10156 2.28639,-29.64947 3.92871,-30.85447 38.22266,-28.07617 35.97545,2.91439 58.55595,1.76701 79.74023,-4.05078 35.27011,-9.68609 45.93665,-10.52101 83.45313,-6.53711 19.25278,2.04449 44.07818,5.46732 55.16797,7.60742 30.60508,5.906 42.58868,5.40798 60.25198,-8.28711 0,-2.96305 0.01,-1.88361 0.01,-4.99609 -6.8291,5.35934 -12.7484,9.22643 -17.0957,10.88671 -11.288,4.3109 -12.5366,4.28315 -40.00979,-0.90625 -30.75237,-5.80889 -72.5435,-10.44726 -94.11914,-10.44726 z m 151.18753,22.42578 c -4.3093,3.13006 -8.0791,5.71091 -10.3145,6.82031 -12.2874,6.0983 -15.032,6.45532 -44.1074,5.73242 -17.05249,-0.4239 -41.21152,-2.72081 -53.6875,-5.10351 -25.46738,-4.8638 -58.15354,-4.42637 -89.96875,1.20312 -10.66902,1.8878 -34.46021,3.68088 -52.86914,3.98438 -18.9537,0.3126 -34.86189,1.7082 -36.67969,3.2168 -1.76541,1.46519 -3.21094,5.10935 -3.21094,8.09765 0,2.9884 -4.02109,13.82334 -8.93555,24.07813 -8.45294,17.63832 -13.22762,32.23869 -16.27929,49.55273 a 377.95276,233.07024 0 0 1 4.0957,1.28711 c 2.41669,-16.09048 6.16468,-28.42725 12.75977,-41.65625 3.52347,-7.06749 8.41808,-19.08674 10.87695,-26.71094 l 4.4707,-13.86328 33.62891,-0.56836 c 18.49612,-0.3132 46.61215,-2.36605 62.48047,-4.56054 35.27036,-4.8775 53.54409,-5.2786 69.76367,-1.53321 21.14058,4.8818 49.12878,7.49065 75.42189,7.03125 19.2392,-0.33617 28.1523,-1.31785 42.5469,-11.30469 4e-4,-2.64684 0.01,-2.87712 0.01,-5.70312 z m -134.55276,22.63672 c -24.29327,-0.42414 -53.00496,0.93456 -92.01563,3.97266 -8.3172,0.64779 -20.46962,1.22239 -27.00586,1.27539 -9.55708,0.078 -13.58708,1.59268 -20.58203,7.73437 -10.54394,9.25776 -20.43039,35.03871 -26.83789,66.69336 a 377.95276,233.07024 0 0 1 6.12695,2.2168 c 5.00877,-24.75577 12.45913,-48.13848 20.03125,-59.40625 7.20439,-10.72029 10.02645,-11.23692 81.35743,-14.88282 60.49786,-3.09219 68.14874,-2.75651 124.05468,5.42188 39.56406,5.7877 56.61276,6.36743 69.36326,1.5 0,-1.94649 0.01,-4.27027 0.012,-6.41602 l -11.4062,5.58985 -25.6445,-2.88477 c -14.1039,-1.5862 -28.4779,-3.4273 -31.9434,-4.09179 -21.34063,-4.09185 -41.2165,-6.29852 -65.50976,-6.72266 z m -9.54883,16.56445 c -31.94051,-0.26494 -77.76114,3.10323 -99.58203,8.1211 -28.31007,6.51008 -35.93656,18.7043 -38.79688,62.49609 a 377.95276,233.07024 0 0 1 4.66211,1.99023 l 0.34766,-6.33789 c 2.17909,-39.62226 9.68244,-49.62073 42.08203,-56.07812 10.83315,-2.159 39.34517,-4.26168 66.78906,-4.92578 39.88303,-0.9651 52.52311,-0.34178 75.61328,3.73242 15.24839,2.6904 43.35086,5.89063 62.45116,7.11133 14.0951,0.90082 24.4238,2.00305 30.4395,2.9375 0,-0.95218 0,-3.54377 0.01,-4.58789 -3.6657,-0.3013 -7.5594,-0.48145 -13.5078,-0.51954 -10.3966,-0.0666 -26.2748,-1.14157 -35.2852,-2.38867 -28.72168,-3.97529 -56.32895,-7.95915 -69.31273,-10.00195 -6.1598,-0.96915 -15.26332,-1.46051 -25.91016,-1.54883 z M 0.09991505,301.45899 c 0.0018,1.23128 0.0021,3.78179 0.0039,4.90039 2.51686505,2.10258 3.55078105,5.15982 3.55078105,9.6543 0,3.54799 -1.377907,8.10951 -3.52734405,13.35546 0.0029,0.87084 0.005,7.43944 0.0078,7.95118 9.01453805,-19.12676 8.90233405,-30.75582 -0.03516,-35.86133 z M 798.24445,306.81055 c -12.49762,0.21789 -25.08109,1.65881 -33.87891,4.25586 -17.53021,5.17479 -30.06628,16.16702 -47.65039,41.7793 l -3.0625,4.46093 a 377.95276,233.07024 0 0 1 3.92578,1.67579 c 1.43188,-2.03817 2.35016,-3.05833 4,-5.50586 17.49896,-25.95948 20.51158,-28.90638 37.02539,-36.23047 10.35127,-4.5909 17.29404,-5.56816 40.23438,-5.66016 26.60528,-0.1067 28.89429,0.32449 56.70898,10.70508 15.94139,5.94949 36.71573,13.62414 46.16602,17.05273 9.45019,3.4286 22.29743,10.13641 28.54883,14.90821 23.2043,17.71218 31.4037,14.13896 49.4004,-21.53321 1.2431,-2.46406 1.678,-3.53303 2.7578,-5.68554 0.012,-0.91947 0,-8.08924 0.016,-9.34375 -7.2707,15.70643 -18.884,36.87965 -22.9043,39.53711 -7.2197,4.77239 -16.1249,2.60511 -28.0449,-6.82618 -8.8667,-7.01539 -74.31634,-33.55726 -99.88476,-40.50586 -8.44976,-2.29629 -20.8598,-3.30187 -33.35742,-3.08398 z m -437.4043,8.4043 c -21.70876,0.005 -32.0462,5.96364 -55.3789,27.60742 a 377.95276,233.07024 0 0 1 9.54882,-3.00586 c 23.16402,-19.71785 34.89795,-23.63442 57.68164,-21.2832 6.31155,0.65133 11.34419,1.55525 16.2129,2.52929 a 377.95276,233.07024 0 0 1 10.14648,-1.47461 c -7.38674,-2.23785 -16.05663,-3.55031 -26.88867,-4.05859 -4.14981,-0.19472 -7.88851,-0.31529 -11.32227,-0.31445 z m 447.29297,12.4414 c -27.8344,0.016 -39.92735,2.70936 -54.01367,12.03125 -6.89422,4.56235 -15.34728,14.40642 -23.01172,25.64649 a 377.95276,233.07024 0 0 1 5.32617,3.00195 c 3.64979,-5.16753 7.46415,-10.05983 11.49805,-14.20312 17.84543,-18.32939 32.85773,-22.78934 68.87305,-20.46094 37.76875,2.4418 67.75591,13.22279 104.67578,37.63476 19.85085,13.12589 25.09655,15.28655 35.43165,14.59375 2.2035,-0.14766 10.3065,-6.24789 18.8926,-13.35351 1.9918,-3.99975 3.6711,-8.15496 4.8027,-12.49609 -11.2076,10.19311 -24.6981,20.51953 -28.4473,20.51953 -2.6915,0 -15.041,-6.44121 -27.44137,-14.3125 -45.44756,-28.84787 -74.98007,-38.62557 -116.58594,-38.60157 z m 15.90039,16.36719 c -23.65454,0 -30.07451,0.92844 -43.6582,6.30274 -12.45837,4.92914 -24.81669,13.52787 -34.46094,23.35156 a 377.95276,233.07024 0 0 1 3.37305,1.90039 c 14.24546,-14.74895 34.263,-24.40389 59.03711,-27.84961 14.99073,-2.0851 22.64147,-1.85533 36.84179,1.10547 21.81558,4.54869 33.23519,10.16244 71.59375,35.19922 13.01395,8.49421 21.67036,13.84179 28.74806,17.93945 1.4273,-0.65807 2.8148,-1.39125 4.1875,-2.1543 -7.9626,-4.61198 -18.8745,-11.33242 -30.84962,-19.14062 -51.36545,-33.49187 -59.54199,-36.6543 -94.8125,-36.6543 z m 5.03906,20.35547 c -22.51742,0.3223 -48.10832,7.77384 -64.55859,19.79297 a 377.95276,233.07024 0 0 1 3.35352,2.47461 c 15.20126,-10.93481 37.02422,-17.30732 62.47461,-17.36719 20.49814,-0.0484 22.45741,0.46049 45.36718,11.80078 13.16899,6.5186 32.79434,17.70518 43.61133,24.85938 0.97626,0.64569 1.63286,0.97285 2.58203,1.58398 0.28446,-0.0177 5.08836,-0.01 5.21094,-0.0293 0.19405,-0.0305 0.36558,-0.0894 0.55859,-0.12109 -12.88808,-8.84203 -32.63297,-21.12237 -46.99609,-28.625 -9.30019,-4.85809 -23.01201,-10.34742 -30.4707,-12.19922 -6.38894,-1.5861 -13.58715,-2.27792 -21.13282,-2.16992 z M 59.646787,375.5293 c -0.604,0 -7.97511,3.66534 -16.3789,8.14453 -4.90924,2.61657 -11.07642,6.9333 -17.232426,11.53906 0.975202,0.72423 1.950652,1.43739 2.970704,2.10743 12.027802,-8.62583 25.871012,-16.75 29.810542,-16.75 4.529,0 12.58223,15.14773 14.36133,27.01171 0.002,0.0106 0.004,0.0168 0.006,0.0274 0.64564,0.0115 2.9933,0.0147 3.75977,0.0254 -2.14564,-9.30044 -6.77545,-21.76934 -11.0293,-26.43555 -2.8433,-3.11899 -5.66358,-5.66992 -6.26758,-5.66992 z m 773.375003,11.60547 c -13.89853,-1.09587 -31.15589,1.2125 -42.71679,6.26562 -2.17043,0.94867 -4.7759,2.64244 -7.36133,4.37696 a 377.95276,233.07024 0 0 1 3.35156,2.47265 c 16.61278,-9.8418 38.86907,-12.43343 59.9668,-6.08398 6.33103,1.90538 18.64718,7.99975 27.6289,13.62305 2.82499,-0.0105 5.00973,-0.0289 7.42578,-0.041 -12.01924,-7.25715 -28.05372,-15.84104 -35.85156,-18.35742 -3.55135,-1.14603 -7.81051,-1.89057 -12.44336,-2.25586 z" />
</svg>
