<?xml version="1.0" encoding="UTF-8" standalone="no"?>
<!-- Created with Inkscape (http://www.inkscape.org/) -->

<svg
   width="210mm"
   height="297mm"
   viewBox="0 0 210 297"
   version="1.1"
   id="svg1"
   xml:space="preserve"
   inkscape:version="1.4.2 (f4327f4, 2025-05-13)"
   sodipodi:docname="Pattern.svg"
   xmlns:inkscape="http://www.inkscape.org/namespaces/inkscape"
   xmlns:sodipodi="http://sodipodi.sourceforge.net/DTD/sodipodi-0.dtd"
   xmlns="http://www.w3.org/2000/svg"
   xmlns:svg="http://www.w3.org/2000/svg"><sodipodi:namedview
     id="namedview1"
     pagecolor="#ffffff"
     bordercolor="#000000"
     borderopacity="0.25"
     inkscape:showpageshadow="2"
     inkscape:pageopacity="0.0"
     inkscape:pagecheckerboard="0"
     inkscape:deskcolor="#d1d1d1"
     inkscape:document-units="mm"
     inkscape:zoom="0.37905794"
     inkscape:cx="-75.186395"
     inkscape:cy="433.97059"
     inkscape:window-width="1920"
     inkscape:window-height="1111"
     inkscape:window-x="-9"
     inkscape:window-y="941"
     inkscape:window-maximized="1"
     inkscape:current-layer="layer1" /><defs
     id="defs1" /><g
     inkscape:label="Layer 1"
     inkscape:groupmode="layer"
     id="layer1"><path
       id="path1"
       style="fill:#ff00ff;stroke:#000000;stroke-width:1"
       d="m -142.48725,193.9875 a 350,350 0 0 0 494.9745,0 l -44.90128,-44.90128 a 286.5,286.5 0 0 1 -405.171938,0 z" /><path
       id="rect296"
       style="fill:#0000ff;stroke:none;stroke-width:5.90496"
       d="M 304.17006 152.44548 A 286.5 286.5 0 0 1 299.22205 157.11806 C 299.46503 157.21408 299.71369 157.31492 299.96825 157.42037 C 304.60904 159.34267 306.76282 160.78662 306.4092 161.63768 C 306.13406 162.29975 304.34431 162.60368 301.02297 162.49809 C 299.22936 162.44109 297.75685 162.19876 296.55296 161.75188 C 295.96733 161.53448 295.4455 161.2687 294.98096 160.95193 A 286.5 286.5 0 0 1 289.33789 165.8214 C 289.15837 167.14327 288.51127 168.75041 287.49666 171.19989 C 284.9357 177.38259 284.10062 178.18165 280.31364 178.07027 C 277.95999 178.00117 276.32016 177.84404 275.04729 177.3654 C 274.96147 177.33312 274.87719 177.29939 274.7946 177.26412 A 286.5 286.5 0 0 1 268.35313 181.86797 C 268.4106 183.78475 268.06706 185.64071 267.37748 187.20511 C 266.58526 189.00952 265.32827 190.42478 263.69708 191.10048 C 261.99719 191.80458 260.06067 191.51211 258.16099 190.56149 C 257.62937 190.29547 257.10068 189.97807 256.58072 189.61633 A 286.5 286.5 0 0 1 250.28395 193.43109 C 250.2924 194.0473 250.1727 194.6211 249.93151 195.22116 C 249.63793 195.94561 249.17228 196.7094 248.53728 197.6298 C 244.68635 203.21331 244.43873 203.33504 238.89756 202.34682 C 237.86836 202.16326 237.02226 201.95221 236.29255 201.64919 C 236.11461 201.57531 235.94339 201.49623 235.77837 201.41045 A 286.5 286.5 0 0 1 229.33536 204.61438 C 229.47762 205.89036 229.43228 206.97661 229.14002 207.69843 C 229.04782 207.92356 228.93016 208.1138 228.79069 208.26377 C 227.58784 209.53161 225.24654 209.35718 223.01068 208.31752 C 222.74878 208.19573 222.48842 208.06213 222.2314 207.91754 A 286.5 286.5 0 0 1 210.182 212.99372 C 210.27136 216.2157 209.99363 223.28826 210.30293 224.49896 L 199.52684 231.12698 C 199.95638 230.50677 206.02687 218.56817 208.71336 213.56888 A 286.5 286.5 0 0 1 201.86055 216.12996 L 200.44771 219.49255 L 196.67378 217.93708 A 286.5 286.5 0 0 1 185.94317 221.32809 C 187.19068 221.14433 188.97222 221.48833 191.68804 222.33113 C 194.40669 223.17465 196.97586 224.48101 198.43543 225.68958 L 193.63366 237.28216 C 189.79557 235.41684 183.00051 229.7744 182.58885 227.63468 C 182.36575 226.47593 182.86284 224.35571 183.6937 222.92386 C 184.05511 222.30111 184.48127 221.85855 185.04659 221.59061 A 286.5 286.5 0 0 1 177.47857 223.6804 C 177.73197 225.7219 177.77251 226.96235 177.32251 228.09977 C 176.78842 229.45205 175.56274 230.6588 173.18116 232.89741 C 170.46959 235.4462 167.19111 237.85993 165.89323 238.26143 C 164.87845 238.57541 163.93033 238.55561 163.06808 238.23455 L 163.06757 238.23455 C 160.4802 237.27048 158.66277 233.58804 158.11076 228.03414 A 286.5 286.5 0 0 1 152.41189 229.04958 L 151.98969 234.04773 L 144.96635 237.95912 C 140.32357 240.54549 136.79203 241.39353 134.54269 240.46181 C 131.19326 239.07443 130.36817 237.85106 131.04316 231.81376 A 286.5 286.5 0 0 1 124.7898 232.31554 C 124.62248 232.89297 124.45758 233.40179 124.28905 233.85343 C 123.32027 236.44888 122.22353 237.15381 119.78907 238.16221 C 117.67885 239.03628 116.58348 239.41421 115.64617 239.02675 C 114.81916 238.68493 114.115 237.74733 112.94608 236.03159 C 112.21103 234.95269 111.72796 233.97808 111.4919 232.92635 A 286.5 286.5 0 0 1 100.76594 232.96873 C 100.69506 232.99595 100.62327 233.02336 100.55045 233.05089 C 98.078963 233.98532 96.688321 234.31387 95.714571 233.94954 C 95.207838 233.7599 94.813698 233.38258 94.439197 232.80543 A 286.5 286.5 0 0 1 74.272469 231.34764 C 74.329097 231.94566 74.233256 232.52883 73.932955 233.21574 C 73.329715 234.59657 71.902537 236.39879 69.232467 239.58124 C 64.850707 244.80395 62.161464 246.62026 58.334424 246.94462 C 56.161724 247.12883 54.901157 247.17505 54.135197 246.87744 C 53.267177 246.54008 53.034807 245.76097 52.828817 244.24142 C 52.258517 240.03339 52.53559 239.4734 59.05686 231.70059 C 59.703103 230.93032 60.343663 230.22891 60.975606 229.59736 A 286.5 286.5 0 0 1 53.592078 228.34989 C 50.146457 232.18723 46.468045 233.64203 43.632996 232.57082 C 42.214916 232.03496 41.008233 230.8677 40.146903 229.0501 C 39.412571 227.50052 38.865412 225.98077 38.750606 225.23483 A 286.5 286.5 0 0 1 19.91403 220.07391 C 18.164549 222.51127 13.673885 225.81979 4.4431396 232.18841 C -7.8308304 240.6567 -11.590743 242.50032 -14.301453 241.37751 C -16.166363 240.60503 -17.94471 239.3586 -18.2547 238.61024 C -19.90818 234.61837 -14.704967 229.08264 -2.1357869 221.464 C 1.7252561 219.12366 4.9290427 217.29138 7.5948853 215.93359 A 286.5 286.5 0 0 1 0.031522624 213.07795 C -0.85148869 213.63123 -1.8121584 214.22681 -2.8566732 214.87061 C -19.037903 224.84421 -20.247747 225.38723 -23.375317 224.09175 C -24.912667 223.45497 -25.997099 221.67365 -25.784989 220.13385 C -25.010013 214.5164 -23.68091 212.87566 -13.389364 207.39509 A 286.5 286.5 0 0 1 -20.422009 204.0878 C -25.585054 206.40706 -28.414094 206.78471 -31.106112 205.66962 C -33.354162 204.73845 -35.18469 203.02855 -35.17408 201.87037 C -35.157271 200.03708 -34.809919 198.50439 -33.910592 197.07169 A 286.5 286.5 0 0 1 -41.110669 192.94274 C -40.727595 193.85471 -40.531924 194.9394 -40.5691 196.20456 C -40.6094 197.56995 -40.806871 198.76646 -41.225391 199.86945 C -42.484681 203.17694 -45.758789 205.62321 -52.874809 209.12729 C -57.391279 211.35125 -59.57257 212.22568 -60.99266 211.62067 C -61.96413 211.20626 -62.57947 210.10076 -63.34187 208.26016 C -64.08983 206.45443 -63.662132 202.62259 -62.365702 199.49273 C -59.555423 192.7081 -52.544712 188.98525 -47.226058 189.21274 A 286.5 286.5 0 0 1 -54.345003 184.59958 C -54.487354 184.6726 -54.630583 184.7445 -54.773918 184.81508 C -59.072488 186.93179 -62.39348 187.49867 -64.5604 186.63874 C -67.34646 185.5331 -68.223907 182.06858 -66.817627 176.50344 C -66.765423 176.29697 -66.712824 176.08857 -66.660014 175.8797 A 286.5 286.5 0 0 1 -71.811121 171.93317 C -71.95835 172.86348 -72.157731 173.97793 -72.390413 175.3309 C -72.743813 177.38703 -73.013099 178.83282 -73.406889 179.90685 C -74.269559 182.27127 -75.723165 182.84087 -79.946025 184.17067 C -84.152705 185.49542 -88.400744 185.34405 -91.299854 184.05285 C -93.039314 183.27812 -94.293538 182.09292 -94.761658 180.57089 C -95.171388 179.23849 -94.984619 176.08113 -94.346179 173.5553 C -93.707489 171.02954 -92.965891 168.15208 -92.696151 167.16447 C -92.1035 164.99436 -86.685941 163.5859 -81.856502 163.67941 A 286.5 286.5 0 0 1 -88.105216 158.1428 C -91.077467 159.30834 -94.694051 159.05284 -97.673108 157.79605 C -99.701578 156.94023 -101.43488 155.62047 -102.46816 153.96838 L -107.4353 158.93552 C -107.03426 159.03465 -106.66201 159.15382 -106.32323 159.29415 C -100.50071 161.70592 -98.35363 167.98946 -101.11269 174.55782 L -101.11166 174.55834 C -103.24826 179.64938 -104.03289 180.0556 -114.716 181.60649 C -120.12432 182.39164 -125.59531 182.25032 -129.9161 181.41632 L -134.87962 186.37984 C -133.99126 187.35796 -133.95706 188.26536 -134.82071 190.0406 C -135.21348 190.84852 -135.79433 191.83437 -136.56324 193.09054 C -137.38198 194.42795 -138.43306 195.77389 -139.51448 196.92493 A 350 350 0 0 0 -134.5799 201.64971 C -134.57982 201.56563 -134.57678 201.4804 -134.5706 201.39339 C -134.4945 200.32271 -132.71857 197.20672 -130.62303 194.4703 C -127.31204 190.14676 -125.03822 189.22117 -113.26285 187.40613 C -102.02298 185.67357 -99.182028 185.79396 -96.595138 188.10376 C -94.525598 189.95161 -93.848351 192.20728 -94.585441 194.8062 C -94.640841 195.01703 -94.709572 195.21521 -94.783362 195.40771 L -94.784395 195.40719 C -95.882045 198.30121 -98.799817 199.50689 -111.25626 202.66412 C -120.49615 205.00616 -127.2421 205.7542 -131.03593 204.93219 A 350 350 0 0 0 -123.42399 211.68424 C -120.6557 210.67182 -114.64609 208.99871 -108.56443 207.57854 C -96.323562 204.72011 -94.887266 204.73055 -92.123576 207.69378 C -89.640756 210.35585 -89.504443 211.92741 -91.365483 216.42038 C -93.412081 221.36132 -94.664809 222.18761 -106.19042 225.60328 A 350 350 0 0 0 -100.87963 229.54361 C -96.19938 228.33312 -92.094853 227.75717 -90.436857 228.44394 C -85.461456 230.50482 -82.987729 235.80177 -84.55918 240.72329 A 350 350 0 0 0 -79.888147 243.68073 C -79.865147 242.4759 -79.518042 240.90031 -78.876839 239.35232 C -77.312499 235.57566 -75.382092 233.92813 -70.830302 232.48607 C -60.000942 229.05526 -53.89789 235.21684 -56.12629 241.37751 C -57.13921 244.17778 -59.874161 246.97842 -64.668921 248.87732 C -66.349626 249.54294 -67.698869 250.01218 -68.892436 250.24571 A 350 350 0 0 0 -62.163647 254 C -58.321541 251.66104 -53.901147 250.33944 -51.044946 251.54795 C -46.311906 253.55 -44.773078 257.28406 -46.291748 260.96495 C -46.419939 261.2759 -46.56967 261.58648 -46.741333 261.89564 A 350 350 0 0 0 -39.562443 265.24996 C -39.905043 264.70654 -40.220133 264.08163 -40.512773 263.37514 C -42.680543 258.14169 -39.62752 253.8193 -30.65756 249.4163 C -22.74023 245.52997 -15.752314 245.05189 -13.636894 248.24945 C -12.644044 249.75026 -12.360293 251.19873 -12.894303 252.76442 C -13.784303 255.374 -16.947365 258.3087 -22.906095 262.35815 C -27.596603 265.5457 -31.079488 267.36195 -33.733858 267.82965 A 350 350 0 0 0 -26.676925 270.78554 C -25.049142 269.63064 -22.884414 268.27463 -20.055623 266.54394 C -12.602613 261.98419 -8.6970754 260.61566 -5.0203654 261.27139 C 0.48317459 262.253 2.3997486 264.58647 0.73328857 268.24874 C -0.42385238 270.79116 -3.3086613 273.97263 -7.9163127 277.78511 A 350 350 0 0 0 -1.7787028 279.81393 C 3.0581484 276.50143 4.8750679 276.38288 9.3425822 277.44715 C 14.494962 278.67456 15.698882 279.59123 16.732312 283.0804 C 16.932481 283.7562 17.071214 284.51605 17.149341 285.29525 A 350 350 0 0 0 22.361426 286.60421 C 22.264914 286.30119 22.194388 285.98231 22.149036 285.64768 C 21.424286 280.30014 23.38482 277.6185 36.91816 265.44478 C 48.03206 255.44739 50.960856 253.60084 56.142826 253.32976 C 62.000466 253.02298 62.31516 253.17059 63.64366 256.89233 C 64.14403 258.29385 64.393431 259.2726 63.859151 260.7169 C 62.964991 263.12254 59.883919 266.82245 52.117749 275.93923 C 44.476553 284.90936 41.161107 288.60656 38.445199 290.11356 A 350 350 0 0 0 46.163074 291.51916 C 48.259053 288.68546 51.555659 284.87928 56.651322 279.06772 C 68.026272 266.09471 69.59432 264.85461 75.45741 264.19008 L 81.855469 263.46454 L 83.60885 267.70149 L 85.364815 271.93689 L 74.866231 286.90032 C 72.981298 289.58727 71.1073 292.25496 69.398348 294.68486 A 350 350 0 0 0 75.664632 295.26828 C 76.717365 293.80152 77.87683 292.19458 79.151758 290.4293 C 89.567598 276.00756 91.473681 274.08833 97.249361 272.20561 C 100.79997 271.0482 104.08931 270.22894 104.56003 270.38556 C 105.03042 270.54273 106.25716 272.89767 107.28492 275.61573 C 108.3727 278.49288 108.67918 279.99121 107.47354 283.17496 C 106.75005 285.08519 105.4812 287.60435 103.51048 291.38687 C 102.55955 293.21213 101.67858 294.90473 100.85896 296.47544 A 350 350 0 0 0 107.28441 296.4925 C 114.42883 283.51133 115.67809 282.03079 121.48923 279.44599 C 128.36406 276.38811 132.85469 277.26185 135.893 282.25409 C 137.05764 284.16766 136.95072 286.7969 134.53546 295.25175 A 350 350 0 0 0 140.51442 294.69364 C 142.03844 288.1611 144.67506 285.2075 150.7076 282.8184 C 157.22197 280.23855 157.84419 280.29717 161.97771 283.86071 C 164.38425 285.93532 166.62312 288.65593 166.95363 289.90789 C 167.03205 290.20485 167.09506 290.55003 167.14329 290.93883 A 350 350 0 0 0 177.14836 288.98288 C 178.28071 286.39069 179.90145 286.13744 180.99412 288.15037 A 350 350 0 0 0 193.35306 285.16451 C 191.05051 283.63753 190.44196 281.37517 189.42875 274.4494 C 189.20066 272.89026 195.54598 255.79941 196.87946 255.27382 L 200.86267 253.70389 C 201.90317 253.29385 203.29692 254.35509 204.59423 254.89245 C 208.51923 256.51824 209.45585 258.293 211.55401 268.07356 C 212.96895 274.66918 213.45746 277.54025 212.82422 279.47751 A 350 350 0 0 0 222.33578 276.24567 C 214.75876 268.50918 212.4431 245.37194 220.46665 245.58294 C 227.97067 245.78025 231.24168 249.01199 235.3107 260.23683 C 237.08764 265.13873 238.02418 268.04001 238.2175 270.1556 A 350 350 0 0 0 245.23361 267.17801 C 243.5573 265.24465 242.24495 262.17734 239.89905 256.11253 C 235.45918 244.63417 235.43326 237.87019 239.83187 238.30173 C 248.56723 239.15874 249.55545 239.9483 255.61954 250.8927 C 258.08089 255.33494 259.52599 258.08747 260.19445 260.21099 A 350 350 0 0 0 266.32535 257.10317 C 264.70408 255.35352 263.04804 252.7049 260.60063 248.35177 C 256.01381 240.19331 255.11371 237.12767 256.39675 234.03016 C 257.29451 231.86279 259.1177 229.75629 260.44974 229.34724 C 261.78174 228.9383 265.39085 229.13618 268.46992 229.78597 C 273.11853 230.76698 275.01754 232.27503 279.65838 238.68776 L 285.24822 246.41338 L 285.17846 246.55911 A 350 350 0 0 0 290.02364 243.5965 C 285.4932 238.96639 278.90658 228.65034 278.78608 225.19142 C 278.55511 218.56152 280.1295 216.80586 286.31637 216.78677 C 294.0477 216.76297 294.19719 216.84839 299.88299 224.60541 C 303.69001 229.79934 304.40858 231.40521 303.24144 234.94483 A 350 350 0 0 0 310.84356 229.56945 C 309.10588 228.20018 307.34977 226.282 305.14727 223.483 C 298.71593 215.31056 297.78873 211.67221 300.48037 205.17404 C 302.05672 201.36841 303.04998 200.90983 308.32123 201.55514 C 317.11365 202.63149 317.54583 202.9477 324.33472 213.27484 C 325.34076 214.8052 326.18205 216.0895 326.87152 217.18984 A 350 350 0 0 0 330.85887 213.8717 C 329.97005 212.63067 329.01097 211.18422 327.93657 209.49832 C 321.56304 199.49732 321.06159 197.05304 323.87739 189.8096 C 325.50249 185.6286 326.31755 185.2216 331.72652 185.88374 C 340.46023 186.9529 341.08414 187.37339 348.07384 196.91563 L 348.67743 197.73987 A 350 350 0 0 0 352.46427 194.0109 L 352.35782 193.85845 L 338.84237 180.34248 L 338.84185 180.34248 C 337.63154 180.62928 336.10337 180.75976 334.24471 180.73729 C 330.37878 180.69059 327.91242 180.52279 325.92843 179.79006 C 323.37758 178.84807 321.62367 176.97156 318.7144 173.21733 C 311.96626 164.50931 313.78827 163.34494 327.2255 168.72614 L 315.73577 157.23588 L 304.17006 152.44548 z M 298.96831 168.14891 C 299.83842 168.11116 300.85132 168.16226 302.0534 168.28482 C 307.29837 168.81952 308.80444 169.66023 312.70133 174.22761 C 318.58224 181.12028 319.42929 184.1868 317.48088 191.52991 C 317.08792 193.01096 316.78335 194.12846 316.45355 194.95864 C 315.46637 197.45008 314.23987 197.36031 309.65087 196.79832 C 306.27885 196.38538 304.00354 196.02393 302.18466 195.31831 C 299.15315 194.14228 297.38901 192.00983 293.9278 187.08832 C 288.91987 179.96748 288.91269 179.30101 293.71385 171.35388 C 295.03015 169.17481 296.358 168.26215 298.96831 168.14891 z M 279.97981 182.91907 C 283.51949 182.99843 286.19676 185.20644 290.54351 190.82556 C 296.35796 198.34199 296.49162 199.00532 294.36188 209.53966 C 294.33758 209.65994 294.30931 209.77519 294.27041 209.88435 L 294.26938 209.88383 C 293.6901 211.53058 291.45687 212.03024 286.37218 211.70284 L 278.91372 211.22277 L 274.02979 203.15866 C 269.67387 195.97147 269.38851 194.50131 271.40979 189.6215 C 272.65689 186.61073 274.74867 183.85871 276.05912 183.50198 C 277.52437 183.103 278.79991 182.89261 279.97981 182.91907 z M -74.047677 189.48146 C -68.423184 189.36187 -66.854039 192.33024 -68.298157 199.07622 C -68.590307 200.44198 -68.837568 201.49018 -69.153918 202.31582 C -70.107088 204.79099 -71.692052 205.25878 -77.003052 206.29077 C -80.985652 207.06458 -83.07502 207.25902 -84.68527 206.6494 C -85.65141 206.28363 -86.445425 205.62848 -87.372445 204.63454 C -91.623675 200.07651 -88.157362 192.37073 -81.062752 190.6049 C -78.248147 189.90436 -75.922507 189.52132 -74.047677 189.48146 z M 258.86379 195.91879 C 259.47138 195.93193 260.08912 195.98064 260.68435 196.06865 C 264.11482 196.57589 265.88629 198.22286 269.22233 203.99478 C 274.82001 213.67977 275.52757 216.42603 273.61586 221.04129 C 272.45198 223.85114 271.00704 224.79533 268.39809 224.45193 C 266.13338 224.15387 264.31662 223.73172 262.76381 223.03186 C 259.34765 221.49205 257.20988 218.60886 254.39326 212.74877 C 250.37198 204.38217 250.42779 199.58662 254.58033 196.67482 C 255.31243 196.16143 257.041 195.87938 258.86379 195.91879 z M 241.96921 207.12276 C 246.69248 207.26719 247.88314 208.99094 251.25288 217.34694 C 253.73001 223.48965 254.25884 226.30585 253.18713 229.01496 L 253.18765 229.01496 C 253.03389 229.40187 252.84843 229.78613 252.63212 230.17872 C 250.78496 233.5086 249.44513 233.99067 244.23367 233.19972 C 242.34676 232.91336 241.02613 232.69216 240.01377 232.26851 C 237.7863 231.3372 237.05264 229.42488 235.06782 223.68867 C 231.47608 213.30854 233.14102 207.37187 239.71198 207.14291 C 240.54757 207.1138 241.29446 207.10212 241.96921 207.12276 z M -38.237459 210.27657 C -35.777115 210.31055 -33.880094 211.2159 -32.609896 212.99889 C -31.378516 214.72734 -31.065073 216.48053 -31.658533 218.24508 C -32.647573 221.18612 -36.156671 224.15786 -42.145231 227.09673 C -48.369201 230.15122 -50.589877 230.99368 -52.900647 230.11619 C -53.670907 229.82366 -54.451221 229.34043 -55.393001 228.68372 C -57.668051 227.09737 -59.366608 224.58717 -59.165898 223.10421 C -58.965178 221.62119 -58.783868 220.1533 -58.763338 219.84291 C -58.742738 219.53274 -54.971905 217.11031 -50.385555 214.45823 C -45.495146 211.63044 -41.400759 210.23289 -38.237459 210.27657 z M -72.05555 211.81291 C -68.109964 211.77284 -66.501023 213.00269 -65.178451 216.19559 C -64.333221 218.23625 -64.240552 220.04302 -64.957792 221.69758 C -65.877172 223.82598 -68.127212 225.70769 -71.817322 227.52616 C -75.739212 229.4588 -77.757774 230.11448 -79.874194 229.24647 C -81.143754 228.72493 -82.449109 227.65655 -84.222249 225.98466 C -86.732939 223.6173 -86.941088 222.08001 -85.292468 218.09987 C -83.578998 213.96322 -82.200564 213.00568 -76.855774 212.25061 C -74.945256 211.9807 -73.370745 211.82627 -72.05555 211.81291 z M 220.61858 212.83714 C 224.3225 212.88037 227.27337 216.69511 229.73481 224.53151 C 231.82516 231.18651 232.16289 235.38184 230.86033 238.52653 C 229.09602 242.78593 228.70995 242.89716 223.35949 240.68092 C 217.90462 238.42144 217.67491 237.96394 216.4395 226.76704 C 214.9624 213.37978 214.81701 214.69616 217.93037 213.40661 C 218.86858 213.01799 219.76382 212.82716 220.61858 212.83714 z M 27.925944 225.9738 C 28.004923 225.97017 28.078379 225.97115 28.145569 225.9769 C 31.334819 226.24984 34.826283 230.22103 33.881653 232.50157 C 33.649563 233.06185 26.631246 238.81525 18.287256 245.28787 C 5.9167058 254.88398 0.54503562 257.78531 -3.6214844 256.08153 C -4.5827244 255.6877 -5.4802332 255.05029 -6.3846232 254.19224 C -7.3876832 253.24056 -7.5926226 250.97513 -6.8398926 249.15792 C -5.0318516 244.79288 22.950248 226.20271 27.925944 225.9738 z M -30.345951 228.62119 C -29.272366 228.60736 -28.31054 228.81141 -27.351302 229.20875 C -23.333692 230.8729 -22.441825 233.76545 -24.455355 238.58027 C -25.009475 239.90234 -29.384612 242.97359 -34.178792 245.40569 C -40.776092 248.75264 -43.891387 249.4152 -46.992997 248.13007 C -49.246687 247.19657 -51.080351 245.48644 -51.069751 244.32824 C -51.023651 239.29583 -48.508858 236.46881 -40.222868 232.14397 C -35.611606 229.73712 -32.707838 228.6516 -30.345951 228.62119 z M 211.08169 229.03253 C 211.78309 234.98089 211.81973 242.97371 210.6967 245.68113 L 210.69618 245.68113 C 210.63528 245.82786 210.56811 245.95796 210.50136 246.07284 C 209.90805 247.07569 200.38794 251.09899 198.72689 248.16676 C 195.25396 242.03611 203.3651 235.23462 202.03418 234.80944 L 211.08169 229.03253 z M 85.659371 233.55629 C 87.060267 233.52085 88.214027 234.27834 89.149597 235.81558 C 90.194367 237.53223 90.441465 238.6749 89.314445 241.2876 C 88.637165 242.85476 87.463232 244.94962 85.667122 248.01742 C 81.028552 255.94081 79.647615 257.25139 75.253805 257.8871 C 72.996845 258.21346 71.733246 258.35459 70.938306 258.05453 C 70.037366 257.71448 69.739249 256.80749 69.280009 254.95963 C 68.167679 250.48451 67.768311 251.39062 74.743241 242.51853 C 79.410938 236.58123 82.984934 233.62395 85.659371 233.55629 z M 181.26335 235.17531 C 181.7541 235.18276 182.15604 235.34923 182.48964 235.66572 C 183.51353 236.63713 185.90554 238.55641 187.80662 239.93316 C 189.34262 241.04557 190.50158 241.96977 191.28341 242.95571 L 193.60162 249.7677 L 182.88599 281.08 C 182.4854 282.25016 173.11633 283.47739 172.26907 283.60853 C 171.92803 283.66123 171.50817 283.5694 171.03556 283.36255 C 167.72735 281.9142 161.81996 274.81373 162.06039 272.00459 C 162.20672 270.29457 163.41507 263.8256 164.74808 257.63027 C 166.08104 251.43496 167.17722 246.15426 167.18463 245.89403 C 167.19163 245.63358 170.21846 242.82852 173.91135 239.66031 C 177.52101 236.56352 179.79113 235.15295 181.26335 235.17531 z M 42.078569 238.31104 C 44.338282 238.2356 45.64369 239.4589 46.238005 241.90151 C 46.740735 243.96762 46.835085 245.57416 45.992025 247.47068 C 44.589705 250.63275 40.592392 254.59947 31.569132 262.84287 L 18.141528 275.10982 L 12.347567 272.70997 C 8.3502266 271.05421 6.419281 269.33624 6.126241 267.17387 C 5.467711 262.31488 5.895532 261.83653 21.707202 249.87674 C 31.895946 242.17001 38.31238 238.43676 42.078569 238.31104 z M 104.27839 238.82573 C 105.20016 238.8746 106.11443 239.14445 107.02551 239.63292 C 110.20879 241.33946 110.25782 242.31981 107.65596 251.90659 L 104.82926 262.32611 L 97.658122 265.29492 L 90.485433 268.26528 L 88.659705 263.85573 C 87.026165 259.91203 87.33041 258.53557 91.5448 250.90096 C 96.150448 242.55759 100.28406 238.61397 104.27839 238.82573 z M 154.89029 240.86075 C 157.14375 240.92472 158.99881 241.96877 160.35507 243.99028 C 160.98994 244.93663 160.42641 250.59128 159.1045 256.55437 C 157.7826 262.5175 156.54692 268.60183 156.3579 270.07499 C 156.3448 270.16799 156.32373 270.26664 156.28813 270.36696 L 156.2871 270.36644 C 155.21478 273.48635 143.61286 279.73137 140.79554 278.56439 L 140.79502 278.56439 C 136.94129 276.96812 134.91624 270.01205 136.31468 263.18032 C 138.76841 251.19321 140.67676 247.70652 147.03547 243.612 C 149.98501 241.71277 152.63682 240.79679 154.89029 240.86075 z M 125.38253 243.32882 C 127.18679 243.40265 128.97538 243.93456 130.52278 244.9835 C 133.62558 247.08684 133.84568 248.33199 132.19865 254.46974 C 131.15604 258.35536 129.91365 263.36228 129.43913 265.59722 C 129.38133 265.8818 129.28305 266.17129 129.15852 266.46487 C 127.29111 270.86711 118.59324 276.13212 115.07101 274.67316 C 111.33681 273.1264 110.08436 267.28025 111.92909 260.01152 C 112.91208 256.13944 114.58657 251.12421 115.65031 248.86646 C 117.36822 245.22108 121.41314 243.16639 125.38253 243.32882 z " /></g></svg>
