<?xml version="1.0" encoding="UTF-8" standalone="no"?>
<!-- Created with Inkscape (http://www.inkscape.org/) -->

<svg
   width="87.230019mm"
   height="263.0463mm"
   viewBox="0 0 87.230016 263.04629"
   version="1.1"
   id="svg1"
   xml:space="preserve"
   inkscape:version="1.3.2 (091e20e, 2023-11-25, custom)"
   sodipodi:docname="Side.svg"
   xmlns:inkscape="http://www.inkscape.org/namespaces/inkscape"
   xmlns:sodipodi="http://sodipodi.sourceforge.net/DTD/sodipodi-0.dtd"
   xmlns="http://www.w3.org/2000/svg"
   xmlns:svg="http://www.w3.org/2000/svg"><sodipodi:namedview
     id="namedview1"
     pagecolor="#ffffff"
     bordercolor="#000000"
     borderopacity="0.25"
     inkscape:showpageshadow="2"
     inkscape:pageopacity="0.0"
     inkscape:pagecheckerboard="0"
     inkscape:deskcolor="#d1d1d1"
     inkscape:document-units="mm"
     inkscape:zoom="0.2447271"
     inkscape:cx="3324.1109"
     inkscape:cy="1779.5332"
     inkscape:window-width="1920"
     inkscape:window-height="991"
     inkscape:window-x="-9"
     inkscape:window-y="-9"
     inkscape:window-maximized="1"
     inkscape:current-layer="layer1" /><defs
     id="defs1" /><g
     inkscape:label="Layer 1"
     inkscape:groupmode="layer"
     id="layer1"
     transform="translate(-178.33629,-162.55419)"><path
       id="rect2"
       style="fill:#000000;stroke-width:4"
       d="m 180.33919,164.50412 c -4.2422,4.81876 -0.79656,7.78981 1.6379,13.66795 2.72379,6.57667 3.39556,8.32403 5.72472,14.89676 2.29189,6.46772 2.9325,8.43743 4.87722,14.99082 1.94387,6.55056 2.48929,8.58404 4.13773,15.43007 1.65623,6.87828 2.08497,8.89001 3.35897,15.75666 1.25067,6.74089 1.60957,8.99938 2.497,15.72203 0.88354,6.69308 1.12942,9.02421 1.66709,15.81248 0.53925,6.80824 0.66133,9.12245 0.84387,15.97111 0.18365,6.89576 0.18408,9.13193 0.002,16.08429 -0.18108,6.9174 -0.3009,9.20519 -0.83406,15.9582 -0.52947,6.70642 -0.77831,9.07035 -1.66811,15.83883 -0.89937,6.84135 -1.24782,9.04713 -2.48822,15.74012 -1.2261,6.61566 -1.71678,8.92883 -3.26854,15.41612 -1.59276,6.65862 -2.12122,8.63308 -4.1429,15.47502 -2.08483,7.05561 -2.59263,8.61761 -5.05809,15.56339 -2.41574,6.80595 -3.09057,8.56503 -5.69732,14.84819 -2.18242,5.26034 -1.12963,13.92433 3.60134,13.92433 6.01514,0 9.12605,-1.89199 9.12605,-1.89199 8.00472,-10.89884 14.91794,-22.42784 20.7734,-34.73121 34.90577,-73.34316 25.46887,-159.71302 -23.58925,-223.66232 0,0 -7.25867,-5.62961 -11.50087,-0.81085 z m 82.48775,0.81085 0.66042,1.14929 2.07895,-1.14929 z"
       sodipodi:nodetypes="zssssssscssssssssscsczcccc" /></g></svg>
