<?xml version="1.0" encoding="UTF-8" standalone="no"?>
<!-- Created with Inkscape (http://www.inkscape.org/) -->

<svg
   width="163.202mm"
   height="454.19397mm"
   viewBox="0 0 163.20199 454.19397"
   version="1.1"
   id="svg1"
   xml:space="preserve"
   inkscape:version="1.3.2 (091e20e, 2023-11-25, custom)"
   sodipodi:docname="SidePattern.svg"
   xmlns:inkscape="http://www.inkscape.org/namespaces/inkscape"
   xmlns:sodipodi="http://sodipodi.sourceforge.net/DTD/sodipodi-0.dtd"
   xmlns="http://www.w3.org/2000/svg"
   xmlns:svg="http://www.w3.org/2000/svg"><sodipodi:namedview
     id="namedview1"
     pagecolor="#ffffff"
     bordercolor="#000000"
     borderopacity="0.25"
     inkscape:showpageshadow="2"
     inkscape:pageopacity="0.0"
     inkscape:pagecheckerboard="0"
     inkscape:deskcolor="#d1d1d1"
     inkscape:document-units="mm"
     inkscape:zoom="0.17304819"
     inkscape:cx="528.75445"
     inkscape:cy="1516.9185"
     inkscape:window-width="1920"
     inkscape:window-height="991"
     inkscape:window-x="-9"
     inkscape:window-y="-9"
     inkscape:window-maximized="1"
     inkscape:current-layer="layer1" /><defs
     id="defs1" /><g
     inkscape:label="Layer 1"
     inkscape:groupmode="layer"
     id="layer1"
     transform="translate(371.95292,-52.246938)"><path
       id="path1273"
       style="fill:#000000;fill-opacity:1;stroke-width:0.536277"
       d="m -325.41364,52.246938 c 0.93882,0.170431 1.77418,0.375531 2.76727,0.500228 8.64686,1.085739 12.35226,3.39368 16.27911,10.1415 1.53541,2.638426 6.54601,8.772095 11.13472,13.630175 5.38226,5.698198 8.9845,10.512717 10.1508,13.566614 1.75149,4.586195 1.73997,5.093283 -0.36845,16.255335 -2.3601,12.49444 -4.2447,29.47402 -4.2447,38.24005 0,5.89024 1.11681,11.57313 4.20749,21.41006 1.64122,5.2236 1.83547,8.06208 1.29708,18.94458 -1.36911,27.67377 -1.52576,27.33811 13.42502,28.75845 5.5658,0.52876 11.33711,1.99592 17.93482,4.55993 l 9.72809,3.78065 14.33608,-0.28526 c 7.70078,-0.15332 14.9611,-0.31218 16.75195,-0.36483 -0.0887,-0.45519 -0.19432,-1.01055 -0.27957,-1.43454 -2.6476,-0.0684 -6.53151,-0.007 -11.28252,0.22376 -16.0402,0.77982 -18.26751,0.45451 -31.62081,-4.62246 -5.24074,-1.99254 -10.85834,-3.26185 -16.29254,-3.68091 -12.04633,-0.92894 -12.53635,-1.59599 -11.40757,-15.52929 1.18411,-14.61653 0.71781,-23.79105 -1.6459,-32.39802 -3.93539,-14.32993 -4.2748,-18.66333 -2.65617,-33.90594 0.83066,-7.82225 2.2218,-17.90901 3.09129,-22.41465 3.05721,-15.842552 2.02809,-19.339288 -9.14518,-31.07459 -3.95663,-4.155644 -9.26744,-10.614167 -11.80187,-14.352612 -2.02639,-2.989068 -4.10648,-5.347604 -6.30142,-7.132381 -4.48175,-1.695988 -9.21465,-2.632732 -14.05702,-2.815849 z m -16.94936,2.659269 c -0.84435,0.303544 -1.67333,0.634138 -2.49183,0.984953 3.51243,8.374495 5.76387,9.234578 16.22278,9.234578 h 10.06915 l 3.28094,5.814116 c 1.80459,3.197544 6.74361,9.448533 10.97556,13.891141 l 7.69462,8.077544 -0.64441,4.796606 c -0.3545,2.638355 -1.07454,13.321865 -1.5999,23.741185 -0.52536,10.41932 -1.48619,21.69709 -2.13527,25.06152 -1.42614,7.39225 -0.66227,12.98813 2.52078,18.45934 3.50511,6.02479 3.95795,9.63998 2.17196,17.34106 -1.9333,8.33621 -1.98766,20.2004 -0.11679,25.44444 1.89099,5.30048 5.21241,9.9067 9.64954,13.38213 3.51465,2.7529 4.12491,2.88342 10.71666,2.28978 5.84824,-0.52668 7.43701,-0.31577 9.72808,1.29088 5.01245,3.51504 17.83364,6.16528 31.41101,6.49314 7.81249,0.18866 19.69699,-1.36733 24.19645,-2.88147 -0.13835,-0.76827 -0.22526,-1.32364 -0.39325,-2.23294 -1.71323,0.0928 -4.58241,0.53805 -10.44433,1.51463 -8.80603,1.46706 -11.83949,1.54005 -21.12119,0.50798 -12.6882,-1.41087 -20.04043,-3.39948 -23.95564,-6.47919 -2.61329,-2.05562 -3.17667,-2.12152 -7.85327,-0.92294 -6.7537,1.73092 -9.15235,0.93276 -14.10457,-4.69325 -6.94049,-7.88483 -8.70721,-17.49147 -5.71696,-31.08596 2.24922,-10.22564 1.95323,-13.94311 -1.61282,-20.26181 -2.89446,-5.12869 -3.11032,-6.16903 -2.67374,-12.88294 0.26122,-4.01703 0.97165,-16.28972 1.57872,-27.27223 0.60706,-10.98253 1.61478,-22.1117 2.23965,-24.731828 1.49008,-6.248034 0.003,-9.191843 -9.75186,-19.300631 -4.076,-4.224048 -8.4163,-9.656843 -9.6454,-12.073165 -2.76722,-5.440151 -5.06659,-6.358785 -15.91635,-6.358785 -5.60524,0 -8.84619,-0.437127 -9.49037,-1.280025 -0.33503,-0.438386 -1.68601,-3.483275 -2.78795,-5.867859 z m -10.8691,5.703011 c -0.48069,0.343886 -0.94963,0.700985 -1.41542,1.062984 1.83002,9.367651 5.41446,12.45023 17.06046,15.259017 4.09383,0.987352 9.12006,2.634965 11.16883,3.661275 4.99618,2.502787 10.15168,9.870946 14.05289,20.084566 4.4238,11.58184 4.33428,17.71051 -0.46612,31.90399 -3.556,10.51411 -3.66329,11.26244 -3.16519,22.14594 0.35266,7.70548 1.1922,13.1751 2.65669,17.31264 1.82466,5.15511 2.14044,8.42709 2.14044,22.15472 0,2.80346 0.0857,4.86902 0.15038,7.10499 0.5656,1.419 1.08436,2.85336 1.61902,4.28242 -0.13148,-2.86992 -0.20602,-6.27397 -0.21601,-11.43031 -0.0293,-15.0909 -0.30021,-17.71677 -2.53628,-24.57627 -1.92025,-5.89067 -2.51311,-9.94674 -2.54351,-17.40824 -0.0354,-8.66515 0.37903,-10.92177 3.7915,-20.65249 2.1071,-6.00841 3.83129,-12.70846 3.83129,-14.88901 0,-10.11504 -7.63784,-28.429662 -14.40584,-34.544148 -2.73401,-2.470013 -6.21979,-4.203323 -11.40602,-5.670971 -17.52813,-4.960271 -18.50957,-5.653299 -20.31711,-15.801103 z m -7.59644,6.782015 c -0.36894,0.41963 -0.6779,0.888603 -1.03094,1.321883 2.62315,9.222895 4.70024,10.981048 16.8677,14.281299 8.35874,2.26719 14.42149,4.97918 16.53595,7.396448 0.90037,1.029319 3.35175,6.479344 5.44721,12.111407 4.68681,12.597 4.60915,17.77623 -0.4377,29.16514 -3.33096,7.51678 -3.38381,7.86357 -2.79621,18.43247 0.32938,5.92427 1.27457,13.07499 2.10013,15.89102 0.50696,1.72928 1.00753,5.96701 1.43867,10.79159 0.70004,1.26441 1.41348,2.52276 2.08669,3.79873 -0.22815,-4.88271 -0.84844,-10.17911 -1.95957,-14.80633 -1.28133,-5.33609 -2.20729,-12.75159 -2.27479,-18.21594 -0.10415,-8.43554 0.18267,-9.86651 3.38532,-16.89613 4.72129,-10.36293 4.61659,-16.37129 -0.51728,-29.69638 -2.06142,-5.350447 -4.51032,-10.583721 -5.44205,-11.62926 -2.4773,-2.779937 -7.6822,-5.171053 -18.07848,-8.305953 -5.06885,-1.528466 -10.21813,-3.70666 -11.44323,-4.840531 -1.2251,-1.133872 -2.78453,-4.433112 -3.46542,-7.331335 -0.13579,-0.577978 -0.28019,-0.943656 -0.416,-1.468128 z m 67.83204,0.634587 c 0.28984,0.324571 0.43275,0.523113 0.73174,0.855761 6.496,7.227413 12.99975,15.536108 14.45286,18.46399 2.47768,4.992255 2.62224,6.107218 2.32854,17.920349 -0.17224,6.92824 -1.1052,16.74377 -2.07326,21.81263 -1.97612,10.34717 -1.79836,23.6276 0.48886,36.55384 0.767,4.33469 1.49517,14.00048 1.61851,21.47982 0.12699,7.70075 0.69398,14.16444 1.3069,14.90297 0.59531,0.7173 2.07558,1.30431 3.28972,1.30431 1.21414,0 5.61647,1.63358 9.78286,3.63027 12.09808,5.79786 20.19229,7.61291 37.16776,8.33438 4.51671,0.19196 7.69934,0.23244 10.19679,0.19637 -0.11953,-0.51383 -0.22991,-1.00913 -0.36638,-1.5844 -2.65526,-0.24848 -5.99897,-0.47657 -10.34252,-0.63614 -16.613,-0.61033 -23.94387,-2.06707 -32.92357,-6.54379 -2.87145,-1.43151 -7.75545,-3.42034 -10.85309,-4.41936 l -5.63221,-1.81643 -0.231,-13.66325 c -0.12727,-7.51479 -0.96103,-18.93842 -1.8526,-25.38553 -1.98171,-14.33004 -2.14495,-21.75414 -0.62321,-28.34401 1.98343,-8.58922 3.04333,-19.96094 2.85667,-30.6436 -0.10801,-6.181319 -0.39342,-9.732957 -2.49856,-13.837402 -0.88259,-1.054453 -1.5647,-1.888721 -2.97346,-3.538802 -4.68179,-5.483817 -5.23663,-6.101763 -10.00714,-11.141439 -2.29059,-2.419835 -2.50795,-2.531446 -3.84421,-3.900537 z m -73.79084,8.077543 c -0.30497,0.579486 -0.58921,1.166534 -0.8692,1.760616 0.36966,0.965434 0.76557,1.84365 1.10897,2.904215 0.6885,2.126332 2.37754,5.204321 3.75378,6.839893 2.44032,2.900157 4.51836,3.768224 18.61954,7.78092 7.88048,2.242508 11.80278,6.212993 13.37386,13.538713 0.95324,4.44477 0.70638,6.51308 -2.05466,17.23305 -2.92045,11.33884 -3.09666,13.03677 -2.54816,24.53029 0.10377,2.17443 0.28979,4.3479 0.4563,6.53603 0.58287,0.82875 1.18118,1.64918 1.75131,2.48461 -1.50542,-14.23387 -0.95533,-23.36305 1.94097,-33.61707 5.86062,-20.74884 0.46914,-30.465942 -19.05,-34.333308 -9.04103,-1.791328 -12.08496,-4.413818 -15.50241,-13.354741 -0.34069,-0.891333 -0.65359,-1.512526 -0.9803,-2.303218 z m -5.16558,20.861776 c 3.4e-4,0.723048 0.0102,1.44564 0.0455,2.166792 3.30927,2.653999 9.20954,4.545439 16.91887,5.305099 8.95669,0.88258 9.52573,1.1476 11.53366,5.379 1.31037,2.76139 1.56812,5.35671 1.13688,11.44117 -0.53634,7.56735 -1.77231,16.6354 -2.96932,22.43377 0.44164,0.53309 0.88084,1.06751 1.31671,1.60404 0.31609,-2.26398 0.62705,-4.54658 1.02681,-6.95204 4.29861,-25.86579 2.06413,-35.29146 -8.38037,-35.34616 -1.86744,-0.01 -6.62125,-0.69219 -10.56369,-1.51618 -5.07767,-1.06127 -8.14505,-2.222695 -10.06502,-4.515491 z m 104.95483,1.30948 c -0.64288,5.710291 -1.38775,11.529111 -1.65674,12.932031 -1.34815,7.03115 -2.16705,13.72079 -2.53008,21.24366 l 2.70216,-1.62832 c 0.44075,-5.22324 1.12581,-10.82996 2.38848,-19.46135 0.58604,-4.00604 0.973,-7.1928 1.29657,-10.1787 -0.56624,-0.77129 -1.485,-1.965942 -2.20039,-2.907321 z m 6.43269,8.914181 c -1.17282,8.37306 -2.24374,15.81444 -2.98122,20.65817 l 1.64073,-0.98857 c 0.2409,-1.88345 0.52755,-3.77941 0.90589,-5.92367 0.54088,-3.06549 1.13182,-7.42733 1.65158,-11.97446 -0.17891,-0.26155 -0.28656,-0.43645 -0.46974,-0.7028 -0.35,-0.5089 -0.44389,-0.62845 -0.74724,-1.06867 z m -109.47704,2.67116 c 0.18874,0.62645 0.37684,1.25176 0.59324,1.87069 0.82854,0.16673 1.4703,0.3673 2.4412,0.51728 14.5959,2.25471 17.57263,5.71376 14.25856,16.56849 -0.40525,1.32734 -0.72552,3.21166 -1.00511,5.31131 0.37337,0.39899 0.68806,0.7673 1.01028,1.11569 0.14883,-0.61846 0.22979,-1.07132 0.40721,-1.7787 1.22385,-4.87963 2.22518,-10.1686 2.22518,-11.75329 0,-5.92025 -5.14677,-9.68923 -15.06471,-11.03137 -2.01355,-0.27248 -3.46177,-0.53789 -4.86585,-0.8201 z m 5.53868,11.84217 c 0.87664,1.31653 1.82417,2.61796 2.86907,3.89175 0.0844,0.10293 1.0297,1.10075 1.32137,1.4211 -0.36039,-1.56296 -0.96125,-2.72993 -1.87069,-3.77651 -0.65075,-0.74889 -1.4484,-1.22586 -2.31975,-1.53634 z m 122.35945,15.75614 -1.89807,0.34417 c -1.10226,5.13729 -1.61783,10.38108 -1.61437,16.2202 0.007,11.30892 1.10067,16.22177 4.88807,21.94491 3.25278,4.91528 12.92382,11.93263 21.14548,15.35565 -0.32691,-1.07856 -0.68677,-2.27152 -0.9772,-3.18637 -5.3393,-2.55706 -10.4848,-5.94187 -14.29887,-9.65522 -7.44704,-7.2504 -9.25922,-13.35006 -8.31319,-27.98279 0.27115,-4.19394 0.82415,-8.14169 1.64538,-11.98531 -0.16015,-0.27883 -0.44929,-0.84743 -0.57723,-1.05524 z m -7.91269,3.47008 -2.01073,1.11156 c -0.22269,0.72973 -0.63609,1.8249 -0.80512,2.44688 -1.86597,6.86615 -1.63385,20.16929 0.47646,27.31822 2.10247,7.12236 6.56812,12.21581 16.97415,19.36006 l 7.68016,5.27255 -9.98958,-0.54932 c -16.09816,-0.88539 -20.16006,-3.93344 -22.78362,-17.09715 -0.87721,-4.4014 -1.73161,-15.9861 -2.00143,-27.13633 -0.0362,-1.49407 -0.0348,-2.48706 -0.0594,-3.80493 l -1.90118,1.0511 c 0.3041,12.01237 1.42445,25.8834 3.12074,33.25998 2.6874,11.68659 7.68914,14.7095 26.19013,15.82849 11.89071,0.71918 11.89071,-0.78567 0,-8.80101 -10.54713,-7.10966 -11.74431,-8.33306 -14.72003,-15.04249 -1.86524,-4.20561 -2.2622,-7.02637 -2.2996,-16.34681 -0.0336,-8.37468 0.12199,-10.93914 2.12907,-16.8708 z m 11.11818,2.55591 c -0.04,1.2816 -0.0677,2.59165 -0.0677,4.07831 0,9.6106 0.37649,12.21899 2.56005,17.73793 2.76334,6.98435 8.35213,13.88425 14.19706,17.89658 -0.28828,-0.83733 -0.54787,-1.61611 -0.90744,-2.63653 -7.73358,-5.80934 -12.71975,-14.93186 -14.34486,-26.61594 -0.47839,-3.43951 -0.61905,-5.9435 -0.46715,-8.49716 -0.32081,-0.64751 -0.67893,-1.38731 -0.96997,-1.96319 z m -32.29828,3.08302 c 0.15396,8.07118 0.55874,17.00317 1.46502,28.64011 0.26318,3.37924 0.4961,8.31683 0.5178,10.97246 0.0317,3.88295 0.64714,5.52029 3.14244,8.36228 5.56986,6.34372 25.73163,12.18108 46.81782,13.55473 2.3194,0.15109 2.93073,0.0916 4.34857,0.14366 -0.2584,-1.06365 -0.47434,-1.89804 -0.69246,-2.76779 -0.53759,-0.005 -0.58903,-0.0574 -1.21802,-0.0574 -14.88123,0 -37.47303,-5.27363 -45.39413,-10.59677 -4.35555,-2.92704 -4.56535,-4.07472 -6.04666,-33.05587 -0.2275,-4.45093 -0.34781,-7.61492 -0.47335,-10.90166 z m -31.40015,80.55219 c 0.37637,1.45513 0.75501,2.90938 1.1007,4.37131 2.48026,3.12428 5.20435,5.33386 8.61136,6.81612 4.12474,1.79452 6.51736,1.89474 32.76803,1.36839 24.83094,-0.49788 46.62964,-2.32448 50.6398,-4.11964 -0.0586,-0.39592 -0.1294,-0.94876 -0.18862,-1.33222 -1.09946,0.0133 -3.57098,0.40187 -9.59941,1.34513 -5.61618,0.87876 -21.84274,1.7498 -39.92831,2.14354 l -30.46688,0.66301 -4.57284,-2.67942 c -3.2063,-1.87902 -5.95963,-4.81192 -8.36383,-8.57622 z m 4.0845,19.33318 c 0.10733,0.65897 0.19491,1.32087 0.29611,1.98076 2.70743,1.39617 5.83713,2.4979 9.81283,3.49075 15.14102,3.78111 17.56155,3.94919 24.77782,1.7203 3.54679,-1.09549 11.32245,-2.3181 17.27957,-2.71714 10.05997,-0.67388 14.111,-0.84362 31.18827,-1.30587 3.52004,-0.0953 6.40013,-0.59053 6.40013,-1.1007 0,-2.16226 -45.59137,0.76101 -54.69124,3.50676 -7.07226,2.13395 -10.83202,1.90109 -23.49055,-1.45418 -6.30741,-1.67184 -9.22762,-2.66961 -11.57294,-4.12068 z m 77.53687,12.87932 c -2.29049,-0.0138 -4.75048,0.0287 -7.23832,0.13694 -3.09764,0.13482 -12.54441,1.40616 -20.99252,2.82516 -18.55784,3.11709 -37.63558,3.48882 -47.25758,0.96428 0.0502,0.60333 0.0955,1.20695 0.14056,1.81074 4.56672,1.00392 10.52612,1.26275 19.9807,1.24695 11.58219,-0.0193 19.47277,-0.55837 25.08839,-1.71359 16.76719,-3.44929 23.49463,-4.16041 33.014,-3.49126 6.19986,0.43581 9.48263,0.30475 9.48263,-0.37827 0,-0.80973 -5.34639,-1.35938 -12.21786,-1.40095 z m -3.77548,10.2123 c -8.80441,0.27329 -20.24191,1.94399 -31.62339,4.9289 -16.83125,4.41415 -28.76321,5.00777 -39.37899,1.62264 0.013,0.55604 0.002,1.11291 0.0109,1.66915 1.84614,0.61215 3.70351,1.14336 5.57588,1.48879 9.36314,1.72739 20.87229,0.55121 36.35231,-3.7145 12.59019,-3.4694 15.06677,-3.82102 27.74197,-3.94188 11.00585,-0.10493 14.30751,0.18834 15.7825,1.40302 1.65797,1.36535 1.8095,1.36535 1.36426,0 -0.84956,-2.60525 -7.02098,-3.72941 -15.82539,-3.45612 z m -16.01143,13.83791 c -5.74734,-0.0924 -8.89837,0.45218 -16.12408,2.18592 -18.34636,4.40201 -27.46217,4.6184 -38.88083,0.14262 -0.0121,0.57015 -0.0329,1.1403 -0.0496,1.71049 9.9906,3.27101 22.25208,3.89935 32.78663,1.34049 16.30475,-3.96045 18.87354,-4.26432 29.96665,-3.545 6.06226,0.39311 11.5345,1.22659 12.1605,1.8526 1.74743,1.74744 -2.61919,9.8327 -7.6569,14.17794 -2.34412,2.0219 -6.10532,4.60976 -8.35815,5.75056 -9.71856,4.92136 -12.9956,10.73086 -13.62552,24.15511 -0.63292,13.48825 0.66276,16.32331 13.71131,30.0023 5.80803,6.08865 11.3284,12.55629 12.26746,14.37225 0.55454,1.07236 1.14179,3.15529 1.66554,5.44257 0.38744,-1.10169 0.73293,-2.11204 1.03507,-2.9993 -0.0919,-0.34578 -0.2136,-0.96412 -0.29248,-1.20975 -0.57439,-1.78848 -6.32446,-8.92368 -12.79095,-15.87242 -13.53493,-14.54431 -15.53467,-18.71112 -14.37484,-29.95011 1.30936,-12.68792 3.86419,-17.52044 11.22154,-21.22557 12.96559,-6.52943 22.85668,-20.03482 17.76687,-24.25899 -0.73516,-0.61012 -6.84084,-1.41443 -13.56816,-1.78749 -2.73996,-0.15194 -4.94427,-0.2534 -6.86005,-0.28422 z m -55.42194,11.80445 c -0.0372,0.56965 -0.0688,1.1394 -0.11058,1.70894 6.98934,2.03843 16.68302,3.62936 27.1203,4.31757 12.00172,0.79136 12.29206,0.91775 12.26386,5.34334 -0.0134,2.1013 -1.16284,6.58553 -2.55489,9.96477 -1.39204,3.37924 -2.53438,7.06533 -2.53938,8.19174 -0.005,1.12641 -1.43007,5.50404 -3.16776,9.72809 -3.7866,9.20461 -3.6382,15.73097 0.52658,23.18257 1.44199,2.57999 3.09859,6.46234 3.68143,8.62686 1.07466,3.99097 5.23007,8.19699 18.40146,18.62729 6.22715,4.93121 10.77867,10.47635 12.40699,15.00218 0.27855,-0.66513 0.45034,-1.03909 0.77877,-1.83038 -2.51523,-5.54661 -7.14503,-10.60099 -16.29513,-17.56637 -9.05743,-6.89484 -14.28543,-12.5225 -14.28543,-15.37684 0,-1.11744 -1.38255,-4.62187 -3.07217,-7.78815 -3.52412,-6.60406 -4.00784,-13.5336 -1.41852,-20.31711 0.85992,-2.25282 2.27566,-6.39993 3.14607,-9.21597 0.8704,-2.81603 2.68287,-8.34569 4.02817,-12.28814 2.84306,-8.33172 3.06696,-12.02609 0.84026,-13.87409 -0.93216,-0.77362 -6.35932,-1.66902 -13.04726,-2.15232 -11.70403,-0.84578 -20.21952,-2.18686 -26.70277,-4.28398 z m 86.33789,7.16907 c -0.70099,0.0195 -1.78572,0.1749 -3.26337,0.50385 -5.60647,1.24811 -7.14296,2.86005 -7.86205,8.24807 -0.53102,3.97887 -0.87339,4.41547 -3.65818,4.67 -1.68963,0.15444 -4.08802,0.50384 -5.3299,0.77618 -2.74332,0.60161 -7.21568,6.25783 -9.0811,11.48509 -0.75411,2.11317 -1.39124,4.20264 -1.41594,4.64313 -0.15326,2.7309 3.65464,8.27541 9.64747,14.0472 5.22316,5.03051 7.88092,8.66681 10.88254,14.88902 0.57155,1.18477 1.32962,2.36562 2.02107,3.5791 0.22526,-0.77259 0.42529,-1.48271 0.61495,-2.14922 -0.42958,-0.79814 -0.92899,-1.59128 -1.29863,-2.35231 -2.38612,-4.91263 -5.85247,-9.66176 -10.56886,-14.4787 -10.23096,-10.44907 -11.00646,-12.71477 -7.10758,-20.76876 2.56731,-5.30335 7.08975,-8.40637 12.26023,-8.41137 3.65951,-0.004 3.70497,-0.0571 4.60799,-5.38004 0.89961,-5.30285 0.97805,-5.39612 5.77588,-6.83679 4.53048,-1.36038 5.87843,-2.52309 3.77548,-2.46445 z m -87.77863,7.32049 c -0.0801,0.59925 -0.16021,1.19843 -0.24546,1.7973 1.09251,0.50691 2.23209,0.97899 3.5817,1.46348 5.35398,1.92199 8.35345,3.80063 12.03544,7.53701 2.69736,2.73721 5.16557,6.016 5.48442,7.28637 0.31884,1.27037 -0.57019,5.71232 -1.97508,9.87124 -5.51738,16.33321 -4.69071,22.80034 4.73046,37.00446 5.29003,7.97567 6.28595,10.18734 6.32675,14.05443 0.047,4.45135 -0.075,4.63188 -4.04782,5.99602 -5.52157,1.89593 -29.95657,2.75099 -38.91235,1.36167 -5.86423,-0.90971 -7.66073,-1.65926 -9.87692,-4.11964 -1.06412,-1.18138 -1.99241,-3.14284 -2.79879,-5.33818 -0.34845,0.62104 -0.67605,1.25622 -1.03043,1.87327 0.99797,2.29909 2.22489,4.34581 3.57756,5.53093 3.27315,2.86772 9.59043,3.89054 24.49618,3.96514 15.5186,0.0776 24.95607,-1.10508 28.77137,-3.60495 4.28662,-2.80871 2.87321,-8.76846 -4.73666,-19.97449 -8.97001,-13.20892 -10.10035,-20.06357 -5.62085,-34.08991 3.80559,-11.91613 3.54957,-13.75832 -2.82877,-20.32693 -4.12911,-4.2523 -7.15783,-6.24303 -13.05656,-8.58397 -1.51701,-0.60203 -2.72208,-1.13757 -3.87419,-1.70325 z m 88.3667,2.05103 c -0.17505,-0.18159 -0.30782,0.45465 -0.32349,1.72186 -0.0209,1.68962 0.1913,2.50455 0.47181,1.81126 0.28045,-0.69329 0.29787,-2.07583 0.0382,-3.07216 -0.0649,-0.24909 -0.12821,-0.40043 -0.18656,-0.46096 z m -89.49117,5.3728 c -0.14534,0.85755 -0.29062,1.71495 -0.44649,2.57142 3.16286,1.10688 6.76732,2.95995 8.15248,4.24367 3.11065,2.88287 2.75752,5.74527 -1.48932,12.06231 -3.96337,5.8954 -5.14766,9.49171 -5.23586,15.90084 -0.10428,7.57766 5.25703,18.9674 12.31191,26.15499 5.72699,5.83472 5.77914,7.40227 0.33073,10.00043 -5.1192,2.44117 -8.67788,2.13124 -17.35604,-1.51154 -9.02256,-3.78733 -12.48902,-6.90267 -13.35681,-12.0034 -0.1151,-0.67656 -0.23916,-1.1312 -0.3545,-1.74356 -0.14246,0.30293 -0.26996,0.61011 -0.41393,0.9126 -0.37823,0.79474 -0.78979,1.56545 -1.17667,2.35386 2.35903,6.91788 6.29638,9.76364 16.8274,13.7573 7.4301,2.81771 12.22353,2.76022 17.62424,-0.21084 6.51541,-3.58427 6.58765,-6.85741 0.27544,-12.46642 -3.12208,-2.77426 -6.03031,-6.79111 -8.2672,-11.41894 -2.91415,-6.02902 -3.45041,-8.25877 -3.44992,-14.33659 5.2e-4,-6.60332 0.33825,-7.74586 4.09536,-13.8529 2.26012,-3.67372 4.09504,-7.96295 4.09536,-9.57306 7.8e-4,-3.94893 -4.47012,-7.90474 -12.16618,-10.84017 z m 81.84616,7.10086 c -7.36202,0 -8.39595,0.25071 -10.7518,2.60656 -1.4336,1.43361 -2.60656,3.52608 -2.60656,4.64933 0,3.37434 3.77382,9.72569 10.24899,17.24907 1.61158,1.87247 3.3253,4.15326 4.83847,6.3407 0.25043,-1.02011 0.43854,-1.7074 0.75189,-3.01738 0.0136,-0.0567 0.0171,-0.0778 0.0305,-0.13385 -1.18565,-1.50009 -2.39996,-3.02436 -4.1553,-5.16609 -7.24967,-8.84546 -8.64289,-11.20185 -8.64289,-14.62185 0,-4.09954 3.20722,-6.08753 9.40615,-5.83013 5.23986,0.21757 7.47004,0.17105 8.39483,-0.26613 0.0486,-0.33559 0.10619,-0.75433 0.15607,-1.1095 -1.00906,-0.41808 -3.85508,-0.70073 -7.67034,-0.70073 z m -83.32101,0.7152 c -0.10259,0.49369 -0.206,0.98729 -0.31213,1.48053 1.21181,0.63136 2.32103,1.23828 2.67219,1.56218 1.69187,1.56056 1.80545,1.33845 -4.84621,9.51105 -0.33021,0.40571 -0.50742,0.66908 -0.79014,1.02733 -1.0305,3.72511 -2.16906,7.43061 -3.40651,11.11611 0.18976,2.76783 0.7662,6.11802 1.56942,8.22121 1.65132,4.32392 1.64331,4.57818 -0.19534,5.92263 -1.05656,0.77258 -2.50061,1.40457 -3.20911,1.40457 -0.81489,0 -1.86389,-1.05248 -3.00343,-2.56109 -0.22507,0.55032 -0.44708,1.10147 -0.67696,1.65055 2.54265,2.57253 5.12408,2.96554 7.63829,0.92966 l 2.2717,-1.83917 -1.88206,-7.25588 c -2.44481,-9.42608 -1.73979,-12.55714 4.52531,-20.09025 2.80197,-3.36908 5.09478,-6.4078 5.09478,-6.75308 0,-1.03333 -2.07991,-2.61506 -5.4498,-4.32635 z m 89.85653,7.2192 c -1.93609,0.26206 -5.02397,1.43652 -5.72626,2.543 -1.48697,2.3427 -0.86282,4.65367 3.0396,11.38587 0.14554,-0.65952 0.35934,-1.59257 0.49506,-2.24121 -3.82524,-6.89327 -3.61127,-8.58429 1.28365,-9.81284 0.24259,-0.0609 0.40081,-0.17235 0.62321,-0.25218 0.1,-0.55627 0.19673,-1.11697 0.28474,-1.62264 z m -122.61732,70.0903 c -0.33414,0.49064 -0.67084,0.98005 -1.00924,1.46812 1.35515,2.432 2.98907,4.67818 4.48241,5.76451 5.40192,3.92963 17.65595,4.91793 29.61732,2.389 10.66824,-2.25555 24.73091,-2.80639 45.38121,-1.77819 8.96865,0.44657 16.3701,0.50997 19.67941,0.29818 0.40081,-0.84755 0.74449,-1.59452 1.07436,-2.30529 -4.02535,0.52235 -11.28888,0.4419 -24.78505,0.27027 -22.50175,-0.28615 -29.30149,-0.0336 -37.25406,1.38389 -11.90984,2.12282 -23.79551,2.37959 -28.93932,0.62529 -3.49158,-1.19081 -6.23316,-4.01884 -8.24704,-8.11578 z m -17.12867,21.94284 c -0.37722,0.42514 -0.77018,0.84242 -1.15135,1.26556 0.12989,0.0917 0.2406,0.22818 0.37362,0.31264 3.57603,2.27061 19.29664,8.7314 23.31227,9.58081 6.75634,1.42915 14.00318,0.51867 25.08529,-3.15071 9.71976,-3.21829 17.27517,-4.79364 27.03401,-5.14181 l -1.19373,-0.75344 c -12.0322,0.0727 -13.81617,0.43915 -25.59482,4.26072 -18.2005,5.90514 -21.12974,5.75031 -39.73039,-2.10323 -3.92016,-1.65516 -6.31022,-2.89889 -8.1349,-4.27054 z m -5.24619,5.74435 c -0.36663,0.38749 -0.42682,0.44581 -0.76688,0.80409 5.29978,4.88673 11.14116,8.10352 22.67407,12.35583 13.04451,4.80967 19.17483,5.30245 28.55846,2.29547 l 7.80004,-2.49959 11.65614,1.69396 c 8.38554,1.21851 19.78843,1.87634 30.54387,2.00039 0.1428,-0.22214 0.41527,-0.61675 0.54777,-0.82579 -5.15615,-0.0929 -10.89791,-0.4626 -17.38809,-1.18184 -28.07799,-3.11159 -26.48612,-3.08546 -33.28014,-0.54467 -4.83401,1.80777 -7.52171,2.20381 -12.06954,1.77922 -10.99585,-1.02656 -30.89699,-9.28954 -38.2757,-15.87707 z m -6.71897,7.367 c -0.17391,0.21761 -0.32768,0.36409 -0.48318,0.56637 -0.11924,0.15512 -0.20487,0.3303 -0.32194,0.48679 1.18233,0.8384 2.42083,1.70043 3.89589,2.71353 12.77213,8.77223 40.46106,22.88161 47.86684,24.39128 5.62842,1.14734 9.24176,0.87704 26.0749,-1.95079 7.78402,-1.30765 12.4392,-1.22469 18.16271,0.33435 0.24941,-0.3289 0.54156,-0.71553 0.76636,-1.01493 -8.4201,-1.76656 -14.68484,-1.43893 -24.54475,0.25477 -16.07328,2.76101 -20.73796,2.00306 -37.39307,-6.0756 -14.43686,-7.0027 -26.41164,-14.00257 -34.02376,-19.70577 z m -7.42952,13.96297 c -0.13917,0.42608 -0.27074,0.85438 -0.39739,1.28519 0.80241,0.60724 1.57084,1.22576 2.45721,1.80609 7.50933,4.91661 55.39792,26.05376 62.22824,27.46654 2.98455,0.61731 10.5878,1.14849 16.89613,1.18029 2.14466,0.0108 4.03865,0.0461 5.76399,0.11266 0.25152,-0.28815 0.61212,-0.70657 0.89038,-1.02888 -2.57642,-0.17824 -4.88137,-0.37056 -8.49664,-0.49868 -17.09245,-0.60574 -16.79783,-0.51558 -48.02445,-14.65595 -19.75129,-8.94399 -27.02767,-12.42548 -31.31747,-15.66726 z m -1.73685,7.35717 c -0.12811,0.84752 -0.32744,1.67458 -0.40928,2.53421 1.01076,0.75847 2.01889,1.58946 3.01843,2.1854 3.17049,1.8903 9.74489,6.57303 14.60944,10.40557 13.55586,10.68003 15.82476,11.93169 32.29105,17.81493 10.92094,3.90194 17.30449,6.34894 22.18366,8.96948 0.6663,-0.51539 1.29936,-1.11909 1.90531,-1.65055 -2.23503,-1.32637 -4.33452,-2.49046 -5.8322,-3.12797 -2.25282,-0.95896 -9.99334,-3.77217 -17.20154,-6.2513 -16.48056,-5.6682 -16.70393,-5.78787 -29.51292,-15.82229 -5.84646,-4.58005 -13.01141,-9.69095 -15.92203,-11.35745 -1.64208,-0.94018 -3.38616,-2.25641 -5.12992,-3.70003 z m 2.20297,22.02656 c 0.48053,1.31391 0.99639,2.59857 1.57148,3.79616 0.0199,0.0414 0.0441,0.0801 0.0641,0.12144 12.08521,10.91338 21.14265,13.96311 51.12814,20.3724 2.5506,0.54518 4.3841,1.02855 6.32365,1.52445 0.73089,-0.30181 1.46976,-0.57549 2.18798,-0.91777 -4.18692,-1.12706 -9.65063,-2.32557 -17.98392,-4.146 -23.91898,-5.22518 -29.80116,-7.85626 -43.29141,-20.75068 z" /></g></svg>
