<?xml version="1.0" encoding="UTF-8" standalone="no"?>
<!-- Created with Inkscape (http://www.inkscape.org/) -->

<svg
   width="165.91711mm"
   height="457.73843mm"
   viewBox="0 0 165.91711 457.73843"
   version="1.1"
   id="svg1"
   xml:space="preserve"
   inkscape:version="1.3.2 (091e20e, 2023-11-25, custom)"
   sodipodi:docname="Pattern.svg"
   xmlns:inkscape="http://www.inkscape.org/namespaces/inkscape"
   xmlns:sodipodi="http://sodipodi.sourceforge.net/DTD/sodipodi-0.dtd"
   xmlns="http://www.w3.org/2000/svg"
   xmlns:svg="http://www.w3.org/2000/svg"><sodipodi:namedview
     id="namedview1"
     pagecolor="#ffffff"
     bordercolor="#000000"
     borderopacity="0.25"
     inkscape:showpageshadow="2"
     inkscape:pageopacity="0.0"
     inkscape:pagecheckerboard="0"
     inkscape:deskcolor="#d1d1d1"
     inkscape:document-units="mm"
     inkscape:zoom="0.17304819"
     inkscape:cx="528.75445"
     inkscape:cy="1511.1398"
     inkscape:window-width="1920"
     inkscape:window-height="991"
     inkscape:window-x="-9"
     inkscape:window-y="-9"
     inkscape:window-maximized="1"
     inkscape:current-layer="layer1" /><defs
     id="defs1" /><g
     inkscape:label="Layer 1"
     inkscape:groupmode="layer"
     id="layer1"
     transform="translate(371.98496,-52.172007)"><path
       id="path1273"
       style="fill:#000000;stroke-width:0.536277"
       d="m -327.12267,52.172009 c -4.85632,0.0018 -9.12,0.666372 -13.74076,2.141472 -15.52332,4.955536 -27.09874,17.931191 -30.2674,33.929195 -2.02644,10.231097 -0.42189,20.830224 4.54649,30.033824 1.34777,2.49667 3.00714,4.94945 4.94957,7.31738 0.37305,0.45479 3.00019,3.28054 5.83788,6.27921 4.53849,4.79589 5.57824,5.9444 8.64134,9.54102 55.0586,64.64833 67.00331,155.58989 30.50769,232.27367 -9.7685,20.52537 -22.41557,38.93322 -38.31549,55.76714 -2.21159,2.34157 -4.24802,4.47571 -4.5253,4.74287 -0.62317,0.60054 -2.11215,2.34504 -3.11402,3.64835 -5.19611,6.75955 -8.33274,14.82843 -9.12141,23.46575 -0.24638,2.69828 -0.14982,6.79446 0.22893,9.72396 0.56884,4.39982 2.03595,9.33064 3.98373,13.38678 3.97233,8.27205 10.35423,15.1247 18.28054,19.62929 12.9384,7.35302 28.68759,7.81142 42.01501,1.22266 2.61643,-1.29349 5.29247,-2.95984 7.54889,-4.70048 2.45725,-1.89559 3.58672,-2.99563 9.65574,-9.40356 5.64416,-5.95935 5.84022,-6.17766 10.94404,-12.15998 4.95288,-5.80545 5.42171,-6.38405 9.96838,-12.30881 4.50989,-5.87685 5.02214,-6.58274 9.36842,-12.90774 3.25467,-4.73644 5.15607,-7.60335 6.50813,-9.81336 0.44825,-0.73268 0.48819,-0.81881 0.81494,-1.36271 l -1.68052,-2.06964 -23.20117,-14.642 9.03201,-14.8487 24.47447,14.19706 1.37925,0.047 c 1.07478,-1.71169 3.55733,-6.55716 6.66057,-13.07104 3.00487,-6.30736 3.78648,-8.05997 6.38153,-14.31489 2.60679,-6.2832 3.28154,-8.04224 5.69732,-14.84819 2.46546,-6.94582 2.97326,-8.50774 5.05809,-15.56339 2.02168,-6.84198 2.55014,-8.81636 4.1429,-15.47502 1.55176,-6.48729 2.04244,-8.80045 3.26854,-15.41611 1.2404,-6.69303 1.58885,-8.89874 2.48822,-15.74013 0.8898,-6.76852 1.13864,-9.13241 1.66811,-15.83883 0.53316,-6.75305 0.65298,-9.04079 0.83406,-15.95819 0.18201,-6.9524 0.18165,-9.18853 -0.002,-16.08429 -0.18254,-6.8487 -0.30462,-9.16284 -0.84387,-15.97112 -0.53767,-6.78827 -0.78355,-9.11939 -1.66709,-15.81247 -0.88747,-6.72269 -1.24633,-8.98111 -2.497,-15.72204 -1.274,-6.86665 -1.70274,-8.87834 -3.35897,-15.75666 -1.64844,-6.84603 -2.19386,-8.87947 -4.13773,-15.43007 -1.94472,-6.55343 -2.58533,-8.52309 -4.87722,-14.99081 -2.32916,-6.57277 -3.00093,-8.32006 -5.72472,-14.89677 -2.81854,-6.80545 -3.39327,-8.09452 -6.64094,-14.88333 -2.99072,-6.25173 -5.14098,-10.36477 -6.19083,-12.07006 l -2.43551,0.44183 -24.00991,13.27464 -8.65942,-15.06988 24.23418,-14.60428 0.84543,-1.42006 c -0.83235,-1.58632 -3.77671,-6.19322 -7.64863,-11.82306 -4.26932,-6.20766 -4.73955,-6.85364 -9.43198,-12.958894 -4.67682,-6.084928 -5.20125,-6.732957 -9.89501,-12.230778 -4.6818,-5.483822 -5.23663,-6.101758 -10.00714,-11.141439 -5.31985,-5.620023 -7.64647,-7.980543 -8.92813,-9.058879 -8.26875,-6.956588 -18.43195,-10.699438 -29.04216,-10.695471 z"
       inkscape:export-filename="Side.svg"
       inkscape:export-xdpi="96"
       inkscape:export-ydpi="96" /></g></svg>
