<?xml version="1.0" encoding="UTF-8" standalone="no"?>
<!-- Created with Inkscape (http://www.inkscape.org/) -->

<svg
   width="210mm"
   height="297mm"
   viewBox="0 0 210 297"
   version="1.1"
   id="svg1"
   xml:space="preserve"
   inkscape:version="1.3.2 (091e20e, 2023-11-25, custom)"
   sodipodi:docname="CannondaleConcealTopCap.svg"
   xmlns:inkscape="http://www.inkscape.org/namespaces/inkscape"
   xmlns:sodipodi="http://sodipodi.sourceforge.net/DTD/sodipodi-0.dtd"
   xmlns="http://www.w3.org/2000/svg"
   xmlns:svg="http://www.w3.org/2000/svg"><sodipodi:namedview
     id="namedview1"
     pagecolor="#ffffff"
     bordercolor="#000000"
     borderopacity="0.25"
     inkscape:showpageshadow="2"
     inkscape:pageopacity="0.0"
     inkscape:pagecheckerboard="0"
     inkscape:deskcolor="#d1d1d1"
     inkscape:document-units="mm"
     inkscape:zoom="3.9156336"
     inkscape:cx="-50.438836"
     inkscape:cy="1140.9392"
     inkscape:window-width="1920"
     inkscape:window-height="991"
     inkscape:window-x="-9"
     inkscape:window-y="-9"
     inkscape:window-maximized="1"
     inkscape:current-layer="layer1" /><defs
     id="defs1" /><g
     inkscape:label="Layer 1"
     inkscape:groupmode="layer"
     id="layer1"><path
       id="path3"
       style="fill:#5b1971;fill-opacity:0.784512;stroke-width:0.745879"
       d="m -0.59125091,280.50063 c -0.32726016,5.1e-4 -0.64944439,0.008 -0.96892169,0.0202 -0.1059107,0.004 -0.2101455,0.0108 -0.3152233,0.016 -0.2115945,0.0105 -0.422161,0.0227 -0.6304446,0.0382 -0.1213465,0.009 -0.2420001,0.0192 -0.3622477,0.03 -0.1991647,0.0178 -0.3965084,0.038 -0.5927211,0.0605 -0.1114447,0.0127 -0.2233143,0.025 -0.333826,0.0393 -0.2303903,0.0297 -0.4582647,0.0632 -0.684705,0.0992 -0.070519,0.0112 -0.1422383,0.0207 -0.2123875,0.0326 -0.2935466,0.0496 -0.5835662,0.10507 -0.8707378,0.16537 -0.078279,0.0164 -0.1552442,0.035 -0.2330583,0.0522 -0.2111275,0.0467 -0.421067,0.0958 -0.6288946,0.14831 -0.066679,0.0169 -0.1336394,0.0332 -0.1999856,0.0506 -1.7133669,0.35897 -3.0863598,0.85758 -4.3691899,1.67535 -0.0189,0.01 -0.03745,0.0202 -0.05633,0.03 -0.168105,0.0867 -0.334981,0.17613 -0.501256,0.26717 -0.08714,0.0477 -0.174829,0.0943 -0.261479,0.14314 -0.246812,0.13925 -0.492262,0.28227 -0.735347,0.43098 -0.251298,0.15374 -0.52736,0.3801 -0.812345,0.65836 -0.284983,0.27826 -0.57897,0.60834 -0.866086,0.96945 -0.574254,0.72216 -1.121183,1.56832 -1.514619,2.37195 -0.526344,1.07511 -0.884132,1.84212 -1.123433,2.79518 -1.77e-4,6.8e-4 -3.39e-4,10e-4 -5.16e-4,0.002 -0.0097,0.0376 -0.01757,0.076 -0.02687,0.11368 -0.04336,0.18331 -0.08728,0.36954 -0.121956,0.57206 -8.4e-5,4.9e-4 -4.32e-4,0.001 -5.17e-4,0.002 -0.168041,0.89028 -0.236601,1.82361 -0.235641,2.84169 1.49e-4,0.15421 0.0064,0.34174 0.0083,0.50591 -2.1e-4,0.0193 -8.43e-4,0.0358 -10e-4,0.0553 -0.0069,0.70524 -0.0056,1.4766 0.01085,2.41019 0.09063,5.13025 0.390375,8.30485 0.95962,10.16733 0.312422,1.0222 1.321603,2.66468 2.149197,3.57756 0.01732,0.021 0.03356,0.0384 0.05064,0.0584 0.02862,0.0308 0.05614,0.06 0.08423,0.0889 0.06103,0.0662 0.124113,0.13979 0.180865,0.18965 0.182788,0.16061 0.381194,0.31142 0.590138,0.45579 0.511632,0.37568 0.974825,0.63936 1.553375,0.86351 2.17e-4,9e-5 2.99e-4,4.4e-4 5.16e-4,5.2e-4 0.285593,0.11063 0.63951,0.2128 1.001479,0.31471 0.152121,0.0458 0.308368,0.0888 0.467149,0.13022 0.06058,0.0155 0.101684,0.0303 0.164845,0.046 0.069969,0.0174 0.1410612,0.0311 0.2108374,0.047 3.26e-4,8e-5 7.08e-4,-7e-5 10e-4,0 0.6602102,0.15288 1.3679029,0.27398 2.1342109,0.3545 0.6889839,0.0724 4.0243018,0.0984 7.67127699,0.0687 0.0019,-10e-6 0.00379996,2e-5 0.00569994,0 0.00189998,2e-5 0.00379995,-10e-6 0.00569993,0 0.63161359,0.005 1.27400404,0.0118 1.87376494,0.0134 0.9541988,0.003 1.8534763,8.9e-4 2.6489029,-0.005 1.5911254,-0.011 2.7683325,-0.0376 3.1480911,-0.0775 0.33989,-0.0357 0.6694141,-0.0787 0.9885584,-0.12867 0.3998083,-0.0626 0.7772119,-0.1404 1.1441036,-0.22531 8.669e-4,-2e-4 0.0017,-3.2e-4 0.0026,-5.2e-4 0.069779,-0.0159 0.1408694,-0.0296 0.2108379,-0.047 0.06316,-0.0157 0.104265,-0.0305 0.164846,-0.046 0.08764,-0.0228 0.181031,-0.0419 0.266648,-0.0661 0.06984,-0.0198 0.133046,-0.044 0.201536,-0.0646 1.092444,-0.30763 1.787325,-0.616 2.549168,-1.1746 0.0017,-0.001 0.0034,-0.002 0.0052,-0.004 0.208865,-0.14432 0.407408,-0.29523 0.590138,-0.45579 0.309656,-0.27207 0.648301,-0.71653 0.966854,-1.23351 0.698319,-1.05226 1.376319,-2.40416 1.498599,-3.21014 0.282568,-1.86249 0.868474,-4.50793 0.959103,-9.63817 0.01694,-0.9594 0.01763,-1.74645 0.0098,-2.46549 0.0019,-0.16417 0.0081,-0.3517 0.0083,-0.50591 3e-4,-0.31805 -0.0056,-0.62819 -0.01912,-0.93121 -8e-6,-1.7e-4 8e-6,-3.4e-4 0,-5.1e-4 -0.01353,-0.30301 -0.03482,-0.59906 -0.06459,-0.88936 -1.8e-5,-1.7e-4 1.7e-5,-3.4e-4 0,-5.1e-4 -0.02979,-0.29029 -0.06832,-0.57482 -0.116787,-0.85473 -2.9e-5,-1.7e-4 2.9e-5,-3.5e-4 0,-5.2e-4 -0.0098,-0.0563 -0.02508,-0.11042 -0.03566,-0.1664 -2.7e-5,-1.5e-4 2.7e-5,-3.6e-4 0,-5.1e-4 -0.03465,-0.20235 -0.07863,-0.38839 -0.121955,-0.57155 -0.0072,-0.0293 -0.01164,-0.0597 -0.01912,-0.0889 -0.0023,-0.009 -0.0059,-0.0178 -0.0083,-0.0269 -2.09e-4,-8.3e-4 -3.07e-4,-0.002 -5.17e-4,-0.003 -0.23931,-0.95187 -0.597033,-1.71842 -1.122915,-2.79259 -0.786872,-1.60726 -2.187858,-3.3848 -3.19305,-3.99976 -0.505932,-0.30952 -1.020789,-0.59584 -1.543556,-0.86403 -5.19e-4,-3.3e-4 -10e-4,-7e-4 -0.0016,-10e-4 -0.0077,-0.005 -0.01507,-0.0106 -0.02274,-0.0155 -1.25e-4,-7e-5 -3.91e-4,8e-5 -5.17e-4,0 -0.151029,-0.096 -0.303115,-0.18738 -0.456815,-0.27491 -1.0757935,-0.61268 -2.227916,-1.02568 -3.6080058,-1.33481 -1.58e-4,-3e-5 -3.59e-4,4e-5 -5.17e-4,0 -0.1013728,-0.0227 -0.2154624,-0.0404 -0.3193562,-0.062 -0.0012,-3.1e-4 -0.0024,-7.1e-4 -0.0036,-10e-4 -1.8570062,-0.48511 -3.8413039,-0.74235 -6.00008053,-0.74569 -0.15247221,-2.3e-4 -0.31243133,0.0101 -0.46663252,0.0124 -0.23486824,-0.005 -0.47089047,-0.0128 -0.70175776,-0.0124 z" /></g></svg>
