<?xml version="1.0" encoding="UTF-8" standalone="no"?>
<!-- Created with Inkscape (http://www.inkscape.org/) -->

<svg
   width="210mm"
   height="297mm"
   viewBox="0 0 210 297"
   version="1.1"
   id="svg1"
   xml:space="preserve"
   inkscape:version="1.3.2 (091e20e, 2023-11-25, custom)"
   sodipodi:docname="DeltaSteerer.svg"
   xmlns:inkscape="http://www.inkscape.org/namespaces/inkscape"
   xmlns:sodipodi="http://sodipodi.sourceforge.net/DTD/sodipodi-0.dtd"
   xmlns="http://www.w3.org/2000/svg"
   xmlns:svg="http://www.w3.org/2000/svg"><sodipodi:namedview
     id="namedview1"
     pagecolor="#ffffff"
     bordercolor="#000000"
     borderopacity="0.25"
     inkscape:showpageshadow="2"
     inkscape:pageopacity="0.0"
     inkscape:pagecheckerboard="0"
     inkscape:deskcolor="#d1d1d1"
     inkscape:document-units="mm"
     inkscape:zoom="11.075084"
     inkscape:cx="14.401696"
     inkscape:cy="1110.1044"
     inkscape:window-width="1920"
     inkscape:window-height="991"
     inkscape:window-x="-9"
     inkscape:window-y="-9"
     inkscape:window-maximized="1"
     inkscape:current-layer="layer1" /><defs
     id="defs1" /><g
     inkscape:label="Layer 1"
     inkscape:groupmode="layer"
     id="layer1"><path
       id="path1"
       style="fill:#529c3e;fill-opacity:0.708193;stroke-width:0.914282"
       d="m 0.55489935,282.00552 c -1.32198988,-0.0343 -2.64056675,0.0865 -3.90567695,0.49971 -1.8887979,0.59923 -2.0475948,2.84703 -2.8018776,4.3801 -0.5289465,1.32754 -0.7716329,2.67228 -1.3440949,3.93102 -0.4771307,1.59147 -1.2082186,3.0648 -1.5363294,4.69274 -0.7242599,1.53564 -1.1025125,3.27649 -1.6949755,4.90358 -0.4791,1.77547 -1.715782,3.51746 -1.106901,5.41569 0.653304,1.29643 1.779598,2.43759 2.9775753,3.27628 2.8909402,2.1309 6.5478609,3.19776 10.1171421,2.82774 3.3724989,-0.30011 6.7038108,-1.76277 9.0789686,-4.19716 1.039931,-0.98613 1.854427,-2.25361 1.621079,-3.75171 -0.666844,-2.08031 -1.513482,-4.10644 -2.1559255,-6.19394 -0.4743458,-1.38456 -0.9960431,-2.66309 -1.3849184,-4.08502 -0.6576455,-1.23503 -0.8185704,-2.79037 -1.5709532,-3.95221 -0.4588548,-2.04451 -1.3383217,-4.01379 -2.1734959,-5.94331 -0.7606129,-1.46861 -2.6463989,-1.6521 -4.11961665,-1.80351 z" /></g></svg>
