<?xml version="1.0" encoding="UTF-8" standalone="no"?>
<!-- Created with Inkscape (http://www.inkscape.org/) -->

<svg
   width="210mm"
   height="297mm"
   viewBox="0 0 210 297"
   version="1.1"
   id="svg1"
   xml:space="preserve"
   inkscape:version="1.3.2 (091e20e, 2023-11-25, custom)"
   sodipodi:docname="HoleCutter.svg"
   xmlns:inkscape="http://www.inkscape.org/namespaces/inkscape"
   xmlns:sodipodi="http://sodipodi.sourceforge.net/DTD/sodipodi-0.dtd"
   xmlns="http://www.w3.org/2000/svg"
   xmlns:svg="http://www.w3.org/2000/svg"><sodipodi:namedview
     id="namedview1"
     pagecolor="#ffffff"
     bordercolor="#000000"
     borderopacity="0.25"
     inkscape:showpageshadow="2"
     inkscape:pageopacity="0.0"
     inkscape:pagecheckerboard="0"
     inkscape:deskcolor="#d1d1d1"
     inkscape:document-units="mm"
     inkscape:zoom="1.3843855"
     inkscape:cx="-11.918645"
     inkscape:cy="1145.2735"
     inkscape:window-width="1920"
     inkscape:window-height="991"
     inkscape:window-x="-9"
     inkscape:window-y="-9"
     inkscape:window-maximized="1"
     inkscape:current-layer="layer1" /><defs
     id="defs1" /><g
     inkscape:label="Layer 1"
     inkscape:groupmode="layer"
     id="layer1"><path
       id="path1"
       style="fill:#8e3e9c;fill-opacity:0.708193;stroke-width:0.997142"
       d="M 0 283.32483 A 13.625 13.625 0 0 0 -13.411584 294.66573 C -13.375854 295.32324 -13.232319 295.92686 -12.860197 296.41963 C -11.368047 296.94028 -9.0703982 297.76836 -10.243302 299.78894 C -10.438047 301.37171 -11.648642 302.82404 -11.261845 304.45015 C -10.490273 305.67959 -9.4950175 306.76824 -8.3498779 307.67579 A 13.625 13.625 0 0 0 -7.7804036 308.10212 C -7.5559019 308.2616 -7.3275756 308.41531 -7.0936239 308.56101 A 13.625 13.625 0 0 0 -5.7061117 309.3191 C -5.6675197 309.33732 -5.6275681 309.35241 -5.5888062 309.37026 A 13.625 13.625 0 0 0 0 310.57484 A 13.625 13.625 0 0 0 3.7424072 310.04412 C 3.8000522 310.02709 3.8581089 310.01179 3.9155233 309.994 A 13.625 13.625 0 0 0 5.3107869 309.47413 C 5.5947946 309.35108 5.8740652 309.21904 6.1489787 309.07726 A 13.625 13.625 0 0 0 6.7918335 308.72586 C 8.591056 307.67281 10.146825 306.21724 11.245825 304.44808 C 11.63077 302.82472 10.423736 301.37509 10.228833 299.79514 C 9.0522034 297.77362 11.346448 296.93891 12.843144 296.42015 C 13.2659 295.90352 13.393406 295.24421 13.403833 294.52621 A 13.625 13.625 0 0 0 2.2634277 283.51861 C 2.1815127 283.50999 2.1052263 283.49129 2.0257161 283.47727 A 13.625 13.625 0 0 0 0 283.32483 z " /></g></svg>
