<?xml version="1.0" encoding="UTF-8" standalone="no"?>
<!-- Created with Inkscape (http://www.inkscape.org/) -->

<svg
   width="210mm"
   height="297mm"
   viewBox="0 0 210 297"
   version="1.1"
   id="svg1"
   xml:space="preserve"
   inkscape:version="1.3.2 (091e20e, 2023-11-25, custom)"
   sodipodi:docname="RoundToDeltaThin.svg"
   xmlns:inkscape="http://www.inkscape.org/namespaces/inkscape"
   xmlns:sodipodi="http://sodipodi.sourceforge.net/DTD/sodipodi-0.dtd"
   xmlns="http://www.w3.org/2000/svg"
   xmlns:svg="http://www.w3.org/2000/svg"><sodipodi:namedview
     id="namedview1"
     pagecolor="#ffffff"
     bordercolor="#000000"
     borderopacity="0.25"
     inkscape:showpageshadow="2"
     inkscape:pageopacity="0.0"
     inkscape:pagecheckerboard="0"
     inkscape:deskcolor="#d1d1d1"
     inkscape:document-units="mm"
     inkscape:zoom="1.9578168"
     inkscape:cx="359.07343"
     inkscape:cy="88.108346"
     inkscape:window-width="1920"
     inkscape:window-height="991"
     inkscape:window-x="-9"
     inkscape:window-y="-9"
     inkscape:window-maximized="1"
     inkscape:current-layer="layer1" /><defs
     id="defs1" /><g
     inkscape:label="Layer 1"
     inkscape:groupmode="layer"
     id="layer1"><path
       id="path2"
       style="fill:#000000;fill-opacity:1;stroke:none;stroke-width:1.02091"
       d="M 74.315877 22.932967 A 16.5 16.5 0 0 0 57.816109 39.432735 A 16.5 16.5 0 0 0 74.315877 55.932503 A 16.5 16.5 0 0 0 90.816162 39.432735 A 16.5 16.5 0 0 0 74.315877 22.932967 z M 74.870882 24.435718 C 76.344111 24.587125 78.229908 24.77061 78.990527 26.239225 C 79.825707 28.168745 80.705179 30.138025 81.164038 32.182532 C 81.916427 33.344378 82.077352 34.899715 82.735002 36.134745 C 83.123881 37.556678 83.64558 38.835202 84.11993 40.219767 C 84.762379 42.307267 85.609021 44.333396 86.275871 46.413704 C 86.509221 47.911803 85.69472 49.179285 84.654781 50.165413 C 82.279603 52.599806 78.948275 54.062462 75.575749 54.362573 C 72.00644 54.732596 68.3495 53.665737 65.458537 51.534839 C 64.26055 50.69615 63.134251 49.554983 62.480941 48.258553 C 61.872056 46.360323 63.108745 44.618335 63.58785 42.842863 C 64.180318 41.215774 64.558571 39.474929 65.282837 37.939286 C 65.61095 36.311346 66.342042 34.838017 66.819177 33.246549 C 67.391643 31.987802 67.63433 30.643065 68.163281 29.315523 C 68.917569 27.782453 69.076365 25.534652 70.965177 24.935429 C 72.230298 24.522202 73.548881 24.401398 74.870882 24.435718 z " /></g></svg>
