<?xml version="1.0" encoding="UTF-8" standalone="no"?>
<!-- Created with Inkscape (http://www.inkscape.org/) -->

<svg
   width="210mm"
   height="297mm"
   viewBox="0 0 210 297"
   version="1.1"
   id="svg1"
   xml:space="preserve"
   inkscape:version="1.3.2 (091e20e, 2023-11-25, custom)"
   sodipodi:docname="SpacerTop.svg"
   xmlns:inkscape="http://www.inkscape.org/namespaces/inkscape"
   xmlns:sodipodi="http://sodipodi.sourceforge.net/DTD/sodipodi-0.dtd"
   xmlns="http://www.w3.org/2000/svg"
   xmlns:svg="http://www.w3.org/2000/svg"><sodipodi:namedview
     id="namedview1"
     pagecolor="#ffffff"
     bordercolor="#000000"
     borderopacity="0.25"
     inkscape:showpageshadow="2"
     inkscape:pageopacity="0.0"
     inkscape:pagecheckerboard="0"
     inkscape:deskcolor="#d1d1d1"
     inkscape:document-units="mm"
     inkscape:zoom="3.9156336"
     inkscape:cx="-10.087767"
     inkscape:cy="1141.7054"
     inkscape:window-width="1920"
     inkscape:window-height="991"
     inkscape:window-x="-9"
     inkscape:window-y="-9"
     inkscape:window-maximized="1"
     inkscape:current-layer="layer1" /><defs
     id="defs1" /><g
     inkscape:label="Layer 1"
     inkscape:groupmode="layer"
     id="layer1"><path
       id="path5"
       style="fill:#000000;stroke-width:0.28072"
       d="m -0.036211,279.50006 c -1.59368,0.13645 -3.565995,-0.177 -4.696479,1.20913 -0.547587,1.24933 0.317087,2.96093 1.804892,2.79942 1.55807,-0.0731 3.118331,-0.49099 4.671248,-0.0841 1.2694,0.33966 3.129305,-0.032 3.102712,-1.66305 0.299639,-1.69641 -1.785109,-2.19133 -3.098789,-2.18656 -0.595264,-0.0118 -1.188382,-0.07 -1.783584,-0.0749 z m -14.164499,8.94933 c -1.946942,0.21606 -2.138363,2.58636 -2.646069,4.05459 -0.759783,2.32381 -0.779344,4.78482 -0.451298,7.18192 0.117926,1.65186 0.811066,3.22681 1.349819,4.78691 0.865629,1.49345 1.715553,2.99675 2.861517,4.29272 1.593926,1.34039 3.085738,2.92366 5.017655,3.85723 2.830993,1.52305 6.093374,2.02589 9.282194,1.84068 3.464733,-0.13231 6.870654,-1.45161 9.539255,-3.62992 1.33897,-1.26408 2.790474,-2.3355 3.756145,-3.93647 0.96967,-1.57846 1.884604,-3.18932 2.306532,-5.00825 0.586214,-1.61783 0.549402,-3.35638 0.68496,-5.05106 -0.06308,-2.55879 -0.693096,-5.1198 -1.775364,-7.43852 -0.952682,-1.85687 -3.262646,-0.66957 -2.413794,1.1846 -0.383959,1.8669 0.708066,4.39913 -0.467802,5.83609 -1.496698,0.51876 -3.790878,1.35396 -2.614246,3.37548 0.194903,1.57995 1.401882,3.0293 1.016937,4.65268 -2.596421,4.17968 -7.725091,6.63565 -12.653737,6.07012 -3.98119,-0.38807 -7.746199,-2.71 -9.853738,-6.06819 -0.386797,-1.62611 0.82348,-3.07842 1.018225,-4.66121 1.172907,-2.02058 -1.124392,-2.84846 -2.616544,-3.36911 -1.173541,-1.55404 -0.0786,-4.20793 -0.472965,-6.19209 0.212282,-0.65784 0.0462,-1.88633 -0.867682,-1.7782 z" /></g></svg>
