<?xml version="1.0" encoding="UTF-8" standalone="no"?>
<!-- Created with Inkscape (http://www.inkscape.org/) -->

<svg
   width="210mm"
   height="297mm"
   viewBox="0 0 210 297"
   version="1.1"
   id="svg1"
   xml:space="preserve"
   inkscape:version="1.3.2 (091e20e, 2023-11-25, custom)"
   sodipodi:docname="Spacer.svg"
   xmlns:inkscape="http://www.inkscape.org/namespaces/inkscape"
   xmlns:sodipodi="http://sodipodi.sourceforge.net/DTD/sodipodi-0.dtd"
   xmlns="http://www.w3.org/2000/svg"
   xmlns:svg="http://www.w3.org/2000/svg"><sodipodi:namedview
     id="namedview1"
     pagecolor="#ffffff"
     bordercolor="#000000"
     borderopacity="0.25"
     inkscape:showpageshadow="2"
     inkscape:pageopacity="0.0"
     inkscape:pagecheckerboard="0"
     inkscape:deskcolor="#d1d1d1"
     inkscape:document-units="mm"
     inkscape:zoom="1.3843855"
     inkscape:cx="6.1399081"
     inkscape:cy="1198.0044"
     inkscape:window-width="1920"
     inkscape:window-height="991"
     inkscape:window-x="-9"
     inkscape:window-y="-9"
     inkscape:window-maximized="1"
     inkscape:current-layer="layer1" /><defs
     id="defs1" /><g
     inkscape:label="Layer 1"
     inkscape:groupmode="layer"
     id="layer1"><path
       id="path3"
       style="fill:#000000;fill-opacity:1;stroke-width:0.275442"
       d="m -0.49593862,268.00012 v 5.2e-4 c -0.049059,0.01 -0.101553,0.0155 -0.150895,0.0248 -0.176367,0.007 -0.351382,0.0267 -0.52348188,0.0863 -0.327576,0.0544 -0.652462,0.11154 -0.98547,0.16226 -0.916984,0.12526 -1.842002,0.28322 -2.720764,0.56844 -0.124264,0.0391 -0.24447,0.0872 -0.366386,0.13178 -0.13737,0.0511 -0.274837,0.10146 -0.408761,0.15968 -0.217846,0.0945 -0.432883,0.19445 -0.639754,0.31316 -0.042345,0.0237 -0.082716,0.0508 -0.12454,0.0754 -0.128934,0.0783 -0.255123,0.16249 -0.378788,0.25218 -0.279193,0.19372 -0.548932,0.40404 -0.795817,0.65267 -0.234176,0.19034 -0.46487,0.38185 -0.686263,0.57464 -0.622946,0.51433 -1.199936,1.05882 -1.7559655,1.649 -9.1e-4,9.6e-4 -0.0017,0.002 -0.0026,0.003 -0.140215,0.1382 -0.277285,0.2636 -0.420131,0.40618 -0.318063,0.38016 -0.618568,0.7734 -0.911572,1.17202 -0.122675,0.16315 -0.24193,0.32832 -0.359668,0.49454 -0.02763,0.0396 -0.05527,0.0791 -0.08268,0.11886 -0.760146,1.0881 -1.421743,2.23705 -2.017448,3.42408 -0.0483,0.0955 -0.09729,0.19035 -0.144694,0.28628 -0.284374,0.57915 -0.550834,1.16806 -0.810803,1.76062 -0.02078,0.0482 -0.04504,0.0949 -0.06563,0.14314 -0.143295,0.3193 -0.278394,0.64413 -0.407727,0.97255 -0.107609,0.25839 -0.222975,0.51313 -0.328146,0.77257 -0.127725,0.40378 -0.243228,0.83463 -0.366903,1.25212 -0.189062,0.60312 -0.367656,1.20638 -0.53175,1.81487 -0.01646,0.0599 -0.03069,0.11537 -0.04703,0.17519 -0.11693,0.43853 -0.234266,0.87318 -0.343131,1.30844 -0.14216,0.54219 -0.294794,1.10371 -0.423747,1.61437 -0.235523,1.03342 -0.433145,2.0778 -0.61805,3.1254 -0.130708,0.71269 -0.252528,1.4276 -0.364319,2.14663 -0.09933,0.60329 -0.199596,1.20658 -0.301273,1.80868 -0.01762,0.23416 -0.03886,0.47515 -0.05788,0.71055 -0.01797,0.13998 -0.0395,0.28161 -0.05684,0.42116 -0.03054,0.66255 -0.09125,1.3756 -0.147795,2.0867 -0.0069,0.0882 -0.01184,0.17729 -0.0186,0.26561 -0.0085,0.10648 -0.01387,0.20422 -0.02222,0.3111 -0.02637,0.35814 -0.05392,0.71579 -0.07545,1.0759 -0.03499,0.53918 -0.06276,1.07577 -0.07183,1.60197 -4.89e-4,0.0169 -0.0016,0.0337 -0.0021,0.0506 -0.06877,0.54624 -0.100863,1.09962 -0.112138,1.6583 -7e-6,3.4e-4 7e-6,6.9e-4 0,10e-4 -0.01115,0.55356 -0.0023,1.11206 0.01189,1.67277 6.5e-5,0.003 -6.6e-5,0.005 0,0.008 0.01421,0.56092 0.03346,1.12422 0.04186,1.68724 3.9e-5,0.003 -3.9e-5,0.005 0,0.008 0.0083,0.56301 0.0059,1.12564 -0.02274,1.68568 0.01904,0.51552 0.01701,1.03668 0.01705,1.55753 9e-6,0.10783 0.0036,0.21459 0.0036,0.32246 1e-6,0.004 -2e-6,0.008 0,0.0119 3.11e-4,0.62098 0.0041,1.24209 0.03876,1.85725 2.23e-4,0.004 2.92e-4,0.008 5.17e-4,0.0119 0.07061,1.24877 0.269357,2.47287 0.83044,3.62149 0.504318,1.51699 1.494726,2.87199 2.628263,3.92327 1.936316,1.58202 4.322066,2.52411 6.8088885,2.66909 1.235099,0.35146 2.314377,0.54257 3.502629,0.54157 0.248166,0.002 0.49349,0.007 0.756026,-0.008 0.379344,0.0139 0.760659,0.0227 1.141015,0.0341 1.121859,0.041 2.2452489,0.0653 3.36930388,0.0625 0.011545,-3e-5 0.023078,4e-5 0.034623,0 1.12431412,0.003 2.24822112,-0.0215 3.37033712,-0.0625 0.380011,-0.0114 0.760981,-0.0202 1.139982,-0.0341 0.262536,0.0145 0.50786,0.01 0.756026,0.008 1.188252,0.001 2.26753,-0.19011 3.502629,-0.54157 2.4868195,-0.14498 4.8725695,-1.08707 6.8088855,-2.66909 1.133536,-1.05128 2.123944,-2.40628 2.628263,-3.92327 0.421056,-0.86197 0.63779,-1.76682 0.749825,-2.69234 0.03726,-0.3078 0.06299,-0.6175 0.08062,-0.92915 2.25e-4,-0.004 2.94e-4,-0.008 5.17e-4,-0.0119 0.03469,-0.61516 0.03845,-1.23627 0.03876,-1.85725 v -0.004 c 2e-6,-0.003 -1e-6,-0.005 0,-0.008 2.73e-4,-0.62616 -0.002,-1.25215 0.02067,-1.87172 -1.41e-4,-0.003 1.39e-4,-0.006 0,-0.008 -0.02867,-0.56004 -0.03103,-1.12267 -0.02274,-1.68568 1.3e-5,-8.6e-4 -1.3e-5,-0.002 0,-0.003 0.0084,-0.56474 0.0276,-1.12976 0.04186,-1.6924 6.6e-5,-0.003 -6.5e-5,-0.005 0,-0.008 0.01416,-0.56071 0.02303,-1.11921 0.01189,-1.67277 -7e-6,-3.4e-4 7e-6,-6.9e-4 0,-0.001 -0.01128,-0.55868 -0.04285,-1.11206 -0.111621,-1.6583 -4.79e-4,-0.0173 -0.0016,-0.0344 -0.0021,-0.0517 -0.0091,-0.52588 -0.03738,-1.06211 -0.07235,-1.60094 -0.02153,-0.36011 -0.04908,-0.71776 -0.07545,-1.0759 -0.01514,-0.19368 -0.02451,-0.37163 -0.03979,-0.56379 -3.42e-4,-0.004 -6.91e-4,-0.009 -0.001,-0.0129 -0.05654,-0.7111 -0.117251,-1.42415 -0.147795,-2.0867 -0.01735,-0.13955 -0.03888,-0.28118 -0.05684,-0.42116 -0.01902,-0.2354 -0.04026,-0.47639 -0.05788,-0.71055 -0.100344,-0.5942 -0.19965,-1.18953 -0.297656,-1.7849 -0.116979,-0.75377 -0.244615,-1.50333 -0.382406,-2.25 -0.180993,-1.02083 -0.374029,-2.03859 -0.60358,-3.04581 -0.128953,-0.51066 -0.281587,-1.07218 -0.423747,-1.61437 -0.108865,-0.43526 -0.226201,-0.86991 -0.343132,-1.30844 -0.01634,-0.0598 -0.03056,-0.11531 -0.04703,-0.17519 -0.164094,-0.60849 -0.342688,-1.21175 -0.531751,-1.81487 -0.123674,-0.41749 -0.239177,-0.84834 -0.366902,-1.25212 -0.105171,-0.25944 -0.220537,-0.51418 -0.328146,-0.77257 -0.129333,-0.32842 -0.264432,-0.65325 -0.407727,-0.97255 -0.02059,-0.0482 -0.04485,-0.095 -0.06563,-0.14314 -0.259969,-0.59256 -0.526429,-1.18147 -0.810803,-1.76062 -0.04741,-0.0959 -0.0964,-0.1908 -0.144694,-0.28628 -0.599203,-1.194 -1.264567,-2.34945 -2.030367,-3.4432 -0.01992,-0.0288 -0.03991,-0.0576 -0.05994,-0.0863 -0.12124,-0.17143 -0.244036,-0.34188 -0.37052,-0.51005 -0.292556,-0.39793 -0.593005,-0.79042 -0.910538,-1.16995 -0.142846,-0.14258 -0.279916,-0.26798 -0.42013,-0.40618 -9.63e-4,-9.5e-4 -0.0016,-0.002 -0.0026,-0.003 -0.5560275,-0.59018 -1.1330175,-1.13467 -1.7559635,-1.649 -0.221393,-0.19279 -0.452087,-0.3843 -0.686263,-0.57464 -0.245876,-0.24761 -0.514265,-0.45747 -0.792199,-0.65061 -0.125559,-0.0912 -0.253994,-0.17632 -0.38499,-0.25579 -0.040308,-0.0238 -0.079096,-0.05 -0.119889,-0.0729 -0.207401,-0.1191 -0.423384,-0.21948 -0.641822,-0.31419 -0.133923,-0.0582 -0.27139,-0.10854 -0.40876,-0.15968 -0.122131,-0.0446 -0.242416,-0.0932 -0.366903,-0.13229 -0.878577,-0.2851 -1.803483,-0.4427 -2.720247,-0.56793 -0.333008,-0.0507 -0.657894,-0.10787 -0.98547,-0.16226 -0.17210004,-0.0596 -0.34711512,-0.0795 -0.52348212,-0.0863 -0.049342,-0.009 -0.101836,-0.0151 -0.150895,-0.0248 V 268 c -0.124116,0.0205 -0.24884,0.0232 -0.373621,0.0243 -0.040672,0.001 -0.081266,0.002 -0.12195599782,0.003 -0.04086200218,-7.3e-4 -0.08162900218,-0.002 -0.12247300218,-0.003 -0.124781,-10e-4 -0.249505,-0.004 -0.373621,-0.0243 z m -5.21053488,6.29832 c 0.046178,-0.001 0.090962,0.0108 0.136426,0.0165 0.426963,0.10416 0.689613,0.38055 0.842326,0.75758 0.099559,0.78369 0.135077,1.58076 0.132808,2.37298 -0.046559,0.51208 -0.102565,0.99321 -0.103869,1.35495 0.016972,0.19156 0.026445,0.38649 0.031006,0.58395 -0.027155,0.37558 -0.057017,0.74951 -0.093018,1.11001 -0.081171,0.78626 -0.013461,1.6512 0.249597,2.35541 0.057637,0.25281 0.128074,0.50242 0.231511,0.74311 0.129383,0.0939 0.262936,0.16981 0.398425,0.23719 0.428774,0.38288 1.027612,0.54003 1.825728,0.32918 0.671848,-0.0199 1.36688688,-0.12326 2.05568888218,-0.17673 C 0.68879038,284.03607 1.3836455,284.13935 2.0553275,284.1593 c 0.798095,0.21085 1.396957,0.0537 1.825728,-0.32918 0.135518,-0.0674 0.269015,-0.1433 0.398425,-0.23719 0.103235,-0.24022 0.17391,-0.48926 0.231511,-0.74156 0.26352,-0.70447 0.330825,-1.57015 0.249597,-2.35696 -0.035883,-0.35932 -0.065399,-0.73208 -0.092501,-1.1064 -1.3e-5,-1.7e-4 1.3e-5,-3.4e-4 0,-5.1e-4 0.00453,-0.19853 0.013427,-0.39447 0.030489,-0.58705 -0.00131,-0.36305 -0.056701,-0.84646 -0.103353,-1.36064 -0.00207,-0.79001 0.033067,-1.58477 0.132292,-2.36626 0.152651,-0.37758 0.414949,-0.65435 0.842326,-0.75861 0.288513,-0.0362 0.591623,0.0643 0.894002,0.25631 0.083774,0.0553 0.166528,0.11209 0.24598,0.17519 0.166067,0.12961 0.327816,0.28461 0.486792,0.447 0.513613,0.54304 0.954129,1.19346 1.408183,1.77043 0.457537,0.62045 0.874926,1.2681 1.264005,1.93322 0.5798605,1.00136 1.0903675,2.04001 1.5456405,3.1042 0.05571,0.13167 0.109871,0.26391 0.163815,0.39636 0.135506,0.32884 0.262998,0.66144 0.38809,0.99477 0.09471,0.25521 0.192079,0.50977 0.281119,0.76688 0.0241,0.069 0.04504,0.13911 0.06873,0.20826 0.235211,0.69172 0.449927,1.38859 0.649573,2.08721 0.04419,0.15659 0.08986,0.31265 0.132291,0.46974 0.118493,0.53902 0.267001,1.10968 0.423747,1.69498 0.181377,0.78569 0.350782,1.57309 0.497127,2.36213 0.02355,0.04 0.03573,0.0735 0.05684,0.11214 0.08722,0.5996 0.111794,1.17394 0.04186,1.70429 -0.08678,0.10628 -0.186767,0.2067 -0.302824,0.30024 -0.87734,0.13239 -1.341917,0.59332 -1.629874,1.18649 -0.232932,0.23822 -0.422038,0.51792 -0.519865,0.87178 0.04581,0.14062 0.07781,0.2704 0.101802,0.39326 -0.140727,0.55605 -0.275446,1.10813 -0.543119,1.54099 -0.18865,0.14187 -0.418526,0.26132 -0.649056,0.37724 -1.4649775,0.41332 -2.4994735,1.7274 -1.3699405,3.09955 0.20923,0.40304 0.45685,0.81527 0.677478,1.21801 0.3873105,0.78872 0.6685135,1.63142 0.5720565,2.40244 -0.283787,1.27343 -1.6491925,2.28335 -2.5481635,3.24011 -0.264192,0.22982 -0.573659,0.46646 -0.904854,0.6966 -0.321092,0.22312 -0.663413,0.43855 -1.003556,0.63769 -0.480807,0.26953 -0.97907,0.50479 -1.491382,0.70021 -0.072529,0.0495 -0.159509,0.0978 -0.253732,0.1447 -0.058043,0.0201 -0.122069,0.046 -0.175699,0.062 -0.173879,0.0754 -0.356548,0.14257 -0.543636,0.20464 -0.051252,0.0161 -0.102486,0.0316 -0.155547,0.047 -0.142653,0.0439 -0.287218,0.0856 -0.435632,0.12248 -0.267903,0.0637 -0.544662,0.12091 -0.822172,0.16588 -0.032288,0.005 -0.065246,0.009 -0.097668,0.014 -0.258682,0.0397 -0.512515,0.0689 -0.754993,0.0889 -0.056826,0.005 -0.113567,0.0102 -0.170532,0.0145 -0.35620912,0.0259 -0.72493412,0.0361 -1.09657411782,0.0367 -0.37182000218,-5.8e-4 -0.74071500218,-0.0108 -1.09709098218,-0.0367 -0.056965,-0.004 -0.1137059,-0.009 -0.1705319,-0.0145 -0.242478,-0.0199 -0.496311,-0.0492 -0.754993,-0.0889 -0.032422,-0.005 -0.065381,-0.009 -0.097668,-0.014 -0.27751,-0.045 -0.554269,-0.10221 -0.822172,-0.16588 -0.148414,-0.0369 -0.292979,-0.0786 -0.435633,-0.12248 -0.05306,-0.0154 -0.104294,-0.0309 -0.155546,-0.047 -0.187088,-0.0621 -0.369757,-0.12924 -0.543636,-0.20464 -0.05321,-0.0159 -0.116593,-0.0421 -0.174149,-0.062 -0.094573,-0.0471 -0.182013,-0.0951 -0.254765,-0.1447 -0.51317,-0.19575 -1.012412,-0.43114 -1.493966,-0.70124 -0.339486,-0.19883 -0.680505,-0.41398 -1.000972,-0.63666 -0.331195,-0.23014 -0.641179,-0.46678 -0.905371,-0.6966 -0.901486,-0.95943 -2.2707205,-1.97248 -2.5492005,-3.25096 -0.09245,-0.76809 0.18759,-1.60656 0.5730935,-2.39159 0.220628,-0.40274 0.468248,-0.81497 0.677478,-1.21801 1.12954,-1.37215 0.095039,-2.68623 -1.3699435,-3.09955 -0.23005,-0.11568 -0.459634,-0.23473 -0.648023,-0.37621 -0.268078,-0.433 -0.403317,-0.98555 -0.544153,-1.54202 0.02399,-0.12286 0.05599,-0.25264 0.101803,-0.39326 -0.09783,-0.35386 -0.286933,-0.63356 -0.519865,-0.87178 -0.287979,-0.59322 -0.752402,-1.05414 -1.629875,-1.18649 -0.11594,-0.0934 -0.216093,-0.19356 -0.302823,-0.29972 -0.07002,-0.53048 -0.04539,-1.10503 0.04186,-1.70481 0.02111,-0.0386 0.0333,-0.0721 0.05685,-0.11214 0.146345,-0.78904 0.31575,-1.57644 0.497127,-2.36213 0.15771,-0.5889 0.308096,-1.16341 0.426847,-1.70532 0.04065,-0.15032 0.08435,-0.29971 0.126607,-0.44959 0.20706,-0.72512 0.429417,-1.44871 0.674895,-2.16627 0.01456,-0.0422 0.02766,-0.085 0.04237,-0.12713 0.09135,-0.26406 0.191027,-0.52549 0.288355,-0.78754 0.124068,-0.33033 0.250172,-0.66007 0.384472,-0.98599 0.05394,-0.13245 0.108107,-0.26469 0.163815,-0.39636 0.456367,-1.06674 0.968714,-2.10785 1.5502945,-3.11144 0.387869,-0.66249 0.80352,-1.30784 1.259354,-1.92598 0.454724,-0.57782 0.896172,-1.22954 1.410767,-1.77302 0.158161,-0.16137 0.319049,-0.31551 0.484208,-0.44441 0.079452,-0.0631 0.162206,-0.11994 0.24598,-0.17519 0.25473,-0.16179 0.510714,-0.26656 0.757576,-0.27285 z m -9.8805345,31.38207 c 0.09268,-0.0421 0.358849,0.47485 0.679028,1.00304 0.245302,0.48934 0.50163,0.95029 0.796334,1.33583 0.29083,0.40147 0.677517,0.75137 1.085722,1.12861 0.297976,0.31181 0.601779,0.62614 0.906921,0.94568 0.05349,0.0658 0.108388,0.12561 0.160714,0.19586 0.06083,0.0498 0.122284,0.10918 0.183451,0.16329 0.404372,0.41533 0.813535,0.8199 1.240751,1.19631 0.5406955,0.52441 1.0926345,0.99394 1.6619155,1.1498 0.369989,0.18372 0.755875,0.35696 1.160653,0.524 0.574996,0.29619 1.169449,0.54207 1.775602,0.75396 0.058544,0.0269 0.115438,0.0492 0.17415,0.077 0.144414,0.0445 0.292802,0.0803 0.438216,0.12299 0.309591,0.0949 0.621351,0.18282 0.93586,0.262 0.14883,0.0385 0.297923,0.0731 0.447518,0.10904 0.203867,0.0468 0.408239,0.0906 0.613399,0.13229 0.670698,0.14291 1.344975,0.26534 2.024166,0.33951 0.2189299,0.0316 0.43770588,0.072 0.65629088,0.10129 0.21545,0.003 0.430925,-0.002 0.64647200218,-0.009 0.21540999782,0.006 0.43115899782,0.0119 0.64647199782,0.009 0.21880598,-0.0293 0.43765512,-0.0696 0.65680712,-0.10129 0.680068,-0.0743 1.355206,-0.19735 2.02675,-0.34054 0.203765,-0.0414 0.406778,-0.0848 0.609265,-0.13126 0.149786,-0.0359 0.299016,-0.0705 0.448035,-0.10904 0.314509,-0.0792 0.626269,-0.16708 0.93586,-0.262 0.145414,-0.0427 0.293802,-0.0785 0.438216,-0.12299 0.058687,-0.0278 0.11563,-0.0501 0.17415,-0.077 0.606049,-0.21185 1.200181,-0.45785 1.775085,-0.75396 0.404943,-0.1671 0.79104,-0.34021 1.16117,-0.524 0.570227,-0.15612 1.123466,-0.62691 1.6650125,-1.15238 0.426137,-0.37566 0.83424,-0.77938 1.237651,-1.19373 0.06117,-0.0541 0.122625,-0.11344 0.183451,-0.16329 0.05233,-0.0702 0.107227,-0.13009 0.160714,-0.19586 0.305142,-0.31954 0.608945,-0.63387 0.906921,-0.94568 0.408205,-0.37724 0.794892,-0.72714 1.085722,-1.12861 0.295107,-0.38607 0.551766,-0.84778 0.797368,-1.3379 0.46198,-0.76241 0.800809,-1.47049 0.682128,-0.53589 -0.05896,0.14124 -0.111393,0.28545 -0.06821,0.45321 5.3e-5,3.3e-4 -5.4e-5,7e-4 0,0.001 -3.9e-5,2.2e-4 3.8e-5,3e-4 0,5.2e-4 0.03542,0.22213 0.0616,0.44831 0.07958,0.67851 5.4e-5,6.9e-4 -5.4e-5,10e-4 0,0.002 0.01792,0.23005 0.02815,0.46385 0.03204,0.70021 8e-6,5.2e-4 -9e-6,10e-4 0,0.002 0.0077,0.47364 -0.009,0.95799 -0.03721,1.44642 -4.1e-5,7e-4 4e-5,10e-4 0,0.002 -0.02822,0.48828 -0.06798,0.98064 -0.104904,1.46968 -3.8e-5,5.1e-4 3.9e-5,10e-4 0,0.002 -0.03693,0.48919 -0.07149,0.97516 -0.08992,1.45107 -2.6e-5,6.8e-4 2.7e-5,10e-4 0,0.002 0.0039,0.28365 -0.01345,0.56178 -0.05013,0.83354 -0.257399,1.90707 -1.467232,3.51052 -2.992065,4.6576 -0.196593,0.11018 -0.399489,0.2057 -0.602547,0.30076 -0.162397,0.0747 -0.325965,0.14626 -0.490926,0.2129 -0.0031,10e-4 -0.0062,0.002 -0.0093,0.004 -0.361986,0.14588 -0.730264,0.27218 -1.102775,0.38447 -0.01678,0.005 -0.03332,0.0106 -0.05013,0.0155 -0.3368705,0.10021 -0.6781875,0.18518 -1.0216415,0.26355 -1.133448,0.25044 -2.294618,0.39837 -3.425631,0.5488 -0.651722,0.0778 -1.297998,0.16013 -1.943034,0.24391 -0.64375,0.0559 -1.288948,0.0883 -1.935282,0.10439 -0.593018,0.007 -1.18557512,0.007 -1.77870311782,0.0103 -0.59305900218,-0.003 -1.18575388218,-0.003 -1.77870288218,-0.0103 -0.646244,-0.0161 -1.291621,-0.0485 -1.935282,-0.10439 -0.646475,-0.084 -1.293989,-0.16648 -1.947168,-0.24443 -1.129884,-0.15026 -2.289765,-0.2981 -3.422014,-0.54828 -0.343454,-0.0784 -0.684771,-0.16334 -1.0216435,-0.26355 -0.01681,-0.005 -0.03334,-0.0106 -0.05013,-0.0155 -0.372511,-0.11229 -0.74079,-0.23859 -1.102775,-0.38447 -0.0031,-10e-4 -0.0062,-0.002 -0.0093,-0.004 -0.166158,-0.0671 -0.330471,-0.13919 -0.494026,-0.21445 -0.201982,-0.0946 -0.403866,-0.1896 -0.599447,-0.29921 -1.524833,-1.14708 -2.734666,-2.75053 -2.992065,-4.6576 -0.03668,-0.27176 -0.05398,-0.54989 -0.05013,-0.83354 -2.6e-5,-6.7e-4 2.7e-5,-10e-4 0,-0.002 -0.01843,-0.47591 -0.05299,-0.96188 -0.08992,-1.45107 -3.8e-5,-5.1e-4 3.9e-5,-0.001 0,-0.002 -0.03692,-0.48904 -0.07617,-0.9814 -0.104386,-1.46968 -4e-5,-7e-4 4e-5,-0.001 0,-0.002 -0.0282,-0.48843 -0.04546,-0.97278 -0.03772,-1.44642 3e-6,-1.7e-4 -3e-6,-3.4e-4 0,-5.2e-4 0.0039,-0.2367 0.01409,-0.47086 0.03204,-0.70124 5.4e-5,-7e-4 -5.4e-5,-10e-4 0,-0.002 0.01798,-0.2302 0.04416,-0.45638 0.07958,-0.67851 -1.15e-4,-6.6e-4 1.16e-4,-9e-4 0,-0.002 0.04318,-0.16776 -0.0093,-0.31197 -0.06821,-0.45321 -0.03657,-0.28795 -0.03709,-0.44637 0.0041,-0.46508 z" /></g></svg>
