<?xml version="1.0" encoding="UTF-8" standalone="no"?>
<!-- Created with Inkscape (http://www.inkscape.org/) -->

<svg
   width="210mm"
   height="297mm"
   viewBox="0 0 210 297"
   version="1.1"
   id="svg1"
   xml:space="preserve"
   inkscape:version="1.3.2 (091e20e, 2023-11-25, custom)"
   sodipodi:docname="ZippStemProfile.svg"
   xmlns:inkscape="http://www.inkscape.org/namespaces/inkscape"
   xmlns:sodipodi="http://sodipodi.sourceforge.net/DTD/sodipodi-0.dtd"
   xmlns="http://www.w3.org/2000/svg"
   xmlns:svg="http://www.w3.org/2000/svg"><sodipodi:namedview
     id="namedview1"
     pagecolor="#ffffff"
     bordercolor="#000000"
     borderopacity="0.25"
     inkscape:showpageshadow="2"
     inkscape:pageopacity="0.0"
     inkscape:pagecheckerboard="0"
     inkscape:deskcolor="#d1d1d1"
     inkscape:document-units="mm"
     inkscape:zoom="5.5375421"
     inkscape:cx="6.7719576"
     inkscape:cy="1109.6078"
     inkscape:window-width="1920"
     inkscape:window-height="991"
     inkscape:window-x="-9"
     inkscape:window-y="-9"
     inkscape:window-maximized="1"
     inkscape:current-layer="layer1" /><defs
     id="defs1" /><g
     inkscape:label="Layer 1"
     inkscape:groupmode="layer"
     id="layer1"><path
       id="path1"
       style="fill:#529c3e;fill-opacity:0.708193;stroke-width:1.05356"
       d="m -0.87757413,282 c -8.91013467,0 -14.89679587,6.8985 -15.55856287,14.18309 -0.0024,0.0219 -0.0043,0.0436 -0.0065,0.0655 -0.0093,0.10755 -0.01587,0.21513 -0.02283,0.32283 -0.0128,0.17555 -0.02438,0.35091 -0.02827,0.52622 -0.01492,0.5138 -0.0032,1.02839 0.03642,1.54105 0.436914,5.65348 1.900005,9.0147 4.547494,10.95375 0.93061,0.73777 2.0775868,1.26669 3.5277602,1.63703 2.0595213,0.56659 4.5316678,0.77052 7.45450003,0.77052 0.32659255,0 0.61498981,-0.008 0.92787037485,-0.0103 0.31270649515,0.003 0.60092577515,0.0103 0.92732844515,0.0103 2.92283145,0 5.39497795,-0.20393 7.45449925,-0.77052 1.4495475,-0.37019 2.5962827,-0.89867 3.5266737,-1.63595 2.648346,-1.93889 4.111595,-5.30039 4.548581,-10.95483 0.03959,-0.5123 0.05129,-1.02652 0.03642,-1.53995 -0.0039,-0.1757 -0.01544,-0.3514 -0.02826,-0.52732 -0.0069,-0.1077 -0.01354,-0.21528 -0.02283,-0.32283 -0.0023,-0.0219 -0.0042,-0.0436 -0.0065,-0.0655 C 15.774395,288.8985 9.7877333,282 0.87759631,282 0.58411947,282 0.29171748,282.009 2.7661602e-4,282.0251 -0.29134129,282.00913 -0.5839272,282 -0.87758599,282 Z" /></g></svg>
