<?xml version="1.0" encoding="UTF-8" standalone="no"?>
<!-- Created with Inkscape (http://www.inkscape.org/) -->

<svg
   width="14.768745mm"
   height="39.776844mm"
   viewBox="0 0 14.768745 39.776844"
   version="1.1"
   id="svg1"
   xml:space="preserve"
   inkscape:version="1.3.2 (091e20e, 2023-11-25, custom)"
   sodipodi:docname="Cannondale Seatpost Profile.svg"
   xmlns:inkscape="http://www.inkscape.org/namespaces/inkscape"
   xmlns:sodipodi="http://sodipodi.sourceforge.net/DTD/sodipodi-0.dtd"
   xmlns="http://www.w3.org/2000/svg"
   xmlns:svg="http://www.w3.org/2000/svg"><sodipodi:namedview
     id="namedview1"
     pagecolor="#ffffff"
     bordercolor="#000000"
     borderopacity="0.25"
     inkscape:showpageshadow="2"
     inkscape:pageopacity="0.0"
     inkscape:pagecheckerboard="0"
     inkscape:deskcolor="#d1d1d1"
     inkscape:document-units="mm"
     inkscape:zoom="0.4894542"
     inkscape:cx="605.77681"
     inkscape:cy="808.04293"
     inkscape:window-width="1920"
     inkscape:window-height="991"
     inkscape:window-x="-9"
     inkscape:window-y="-9"
     inkscape:window-maximized="1"
     inkscape:current-layer="layer1" /><defs
     id="defs1" /><g
     inkscape:label="Layer 1"
     inkscape:groupmode="layer"
     id="layer1"
     transform="translate(-9.9136794,-92.125707)"><path
       id="path3"
       style="fill:#000000;stroke-width:0.844013"
       d="m 16.664863,92.125734 c -3.043384,0.62564 -4.667667,3.71685 -5.525478,6.43335 -1.513348,5.148976 -1.298837,10.599786 -1.047262,15.903506 0.434885,5.13124 0.590392,10.3639 2.157073,15.3101 0.279888,2.23699 2.856022,2.27876 4.584292,2.0238 1.717915,-0.11287 3.86224,0.6422 5.121007,-0.93463 1.925065,-5.11231 2.048335,-10.64247 2.523775,-16.02285 0.2737,-5.26252 0.4924,-10.65341 -0.87773,-15.791846 -0.818209,-2.81641 -2.343218,-6.0346 -5.416709,-6.86926 -0.496412,-0.1185 -1.011481,0.0397 -1.518968,-0.0522 z"
       inkscape:export-filename="Cannondale Seatpost Profile Around.svg"
       inkscape:export-xdpi="96"
       inkscape:export-ydpi="96" /></g></svg>
