<?xml version="1.0" encoding="UTF-8" standalone="no"?>
<!-- Created with Inkscape (http://www.inkscape.org/) -->

<svg
   width="210mm"
   height="297mm"
   viewBox="0 0 210 297"
   version="1.1"
   id="svg1"
   xml:space="preserve"
   sodipodi:docname="BreadTop.svg"
   inkscape:version="1.3.2 (091e20e, 2023-11-25, custom)"
   xmlns:inkscape="http://www.inkscape.org/namespaces/inkscape"
   xmlns:sodipodi="http://sodipodi.sourceforge.net/DTD/sodipodi-0.dtd"
   xmlns="http://www.w3.org/2000/svg"
   xmlns:svg="http://www.w3.org/2000/svg"><sodipodi:namedview
     id="namedview1"
     pagecolor="#ffffff"
     bordercolor="#000000"
     borderopacity="0.25"
     inkscape:showpageshadow="2"
     inkscape:pageopacity="0.0"
     inkscape:pagecheckerboard="0"
     inkscape:deskcolor="#d1d1d1"
     inkscape:document-units="mm"
     inkscape:zoom="0.69219276"
     inkscape:cx="397.28818"
     inkscape:cy="685.50269"
     inkscape:window-width="1920"
     inkscape:window-height="991"
     inkscape:window-x="-9"
     inkscape:window-y="-9"
     inkscape:window-maximized="1"
     inkscape:current-layer="layer1" /><defs
     id="defs1" /><g
     inkscape:label="Layer 1"
     inkscape:groupmode="layer"
     id="layer1"><path
       style="fill:#000000"
       d="m -13.630963,313.69008 c -1.80396,-1.13543 -2.39718,-2.60278 -2.36802,-5.85734 0.0181,-2.01687 0.25205,-3.42623 0.81993,-4.93889 0.43705,-1.16416 0.98897,-3.01023 1.22649,-4.10237 0.23752,-1.09213 0.70317,-2.39978 1.03478,-2.90587 0.61917,-0.94498 2.9623106,-2.34037 3.9299406,-2.34037 0.37036,0 0.54322,-0.34235 0.54322,-1.07585 0,-2.51771 1.73493,-4.0785 4.95786,-4.46021 1.64404,-0.19471 1.74492,-0.26598 1.74492,-1.2327 0,-1.93299 1.86265,-3.03151 5.59198,-3.29793 0.90198,-0.0644 2.59246,-0.46157 3.75663,-0.88252 2.3540096,-0.85119 4.6336694,-0.78927 6.5014504,0.1766 3.35779,1.73638 2.58399,6.65327 -2.000721,12.71289 -2.5531298,3.37448 -10.5066294,11.43741 -14.2021194,14.39753 -4.75247,3.80676 -9.2032206,5.27553 -11.5363406,3.80703 z m 4.5608706,-1.11115 c 2.35781,-0.65482 6.68278,-3.92542 11.86156,-8.96987 9.1499494,-8.91262 12.8473604,-14.58898 11.9171004,-18.29543 -0.4543,-1.81006 -4.004611,-2.53289 -6.9692504,-1.4189 -0.84902,0.31902 -2.60619,0.69172 -3.90484,0.82822 -1.37144,0.14415 -2.77624,0.52864 -3.35138998,0.91728 l -0.99021002,0.6691 2.29306,0.20498 c 3.51789,0.31447 5.66397,1.77437 5.12139,3.48389 -0.35214,1.10947 -1.21304,1.13826 -5.08043,0.16991 -4.12856,-1.03374 -6.64167,-1.02441 -7.80565,0.029 -0.97859,0.88561 -0.89825,1.52394 0.16618,1.32046 2.38361,-0.45565 7.59851,1.97172 7.59851,3.53687 0,1.91596 -1.81797,2.14038 -6.35,0.78388 -1.62061,-0.48507 -3.40272,-0.88195 -3.96025,-0.88195 -1.8269296,0 -3.8008606,1.45364 -3.8008606,2.79903 0,0.21413 0.73224,0.37597 1.701041,0.37597 3.5649396,0 6.8529996,1.97089 5.6687096,3.39787 -0.39777,0.47929 -0.93401,0.5344 -3.30492,0.33963 -1.55656,-0.12788 -3.3063606,-0.26706 -3.8884506,-0.3093 -1.00516,-0.0729 -1.09758,0.0384 -1.83959,2.21625 -1.27559,3.74395 -0.89193,7.76803 0.8364,8.77269 0.83122,0.48317 2.40936,0.49494 4.0818906,0.0304 z m 2.38936,-11.93533 c 0,-0.41409 -1.68362,-1.05352 -2.99861,-1.13885 -3.3779506,-0.21921 -3.3779506,0.49337 0,1.02839 2.89745,0.45891 2.99861,0.46264 2.99861,0.11046 z m 7.05555002,-5.27979 c 0,-1.51404 -5.76623002,-3.21716 -7.39811002,-2.18512 -0.66636,0.42141 -0.52025,0.52858 1.40089,1.02756 0.87313,0.22677 2.38125,0.63635 3.35139,0.91018 2.10531,0.59423 2.64583002,0.64476 2.64583002,0.24738 z M 4.8793476,288.7942 c -1.0701,-0.942 -3.59803,-1.46909 -5.11737,-1.06699 -0.85883,0.22729 -0.63928,0.35394 1.84757,1.06573 1.55222,0.44428 3.13972,0.81716 3.52777,0.82862 0.62936,0.0186 0.6015,-0.0708 -0.25797,-0.82736 z"
       id="path5" /></g></svg>
