<?xml version="1.0" encoding="UTF-8" standalone="no"?>
<!-- Created with Inkscape (http://www.inkscape.org/) -->

<svg
   width="210mm"
   height="297mm"
   viewBox="0 0 210 297"
   version="1.1"
   id="svg1"
   xml:space="preserve"
   sodipodi:docname="BreadBase.svg"
   inkscape:version="1.3.2 (091e20e, 2023-11-25, custom)"
   xmlns:inkscape="http://www.inkscape.org/namespaces/inkscape"
   xmlns:sodipodi="http://sodipodi.sourceforge.net/DTD/sodipodi-0.dtd"
   xmlns="http://www.w3.org/2000/svg"
   xmlns:svg="http://www.w3.org/2000/svg"><sodipodi:namedview
     id="namedview1"
     pagecolor="#ffffff"
     bordercolor="#000000"
     borderopacity="0.25"
     inkscape:showpageshadow="2"
     inkscape:pageopacity="0.0"
     inkscape:pagecheckerboard="0"
     inkscape:deskcolor="#d1d1d1"
     inkscape:document-units="mm"
     inkscape:zoom="2.768771"
     inkscape:cx="48.758094"
     inkscape:cy="1097.7795"
     inkscape:window-width="1920"
     inkscape:window-height="991"
     inkscape:window-x="-9"
     inkscape:window-y="-9"
     inkscape:window-maximized="1"
     inkscape:current-layer="layer1" /><defs
     id="defs1" /><g
     inkscape:label="Layer 1"
     inkscape:groupmode="layer"
     id="layer1"><path
       style="fill:#000000"
       d="m -13.630963,313.69008 c -1.80396,-1.13543 -2.39718,-2.60278 -2.36802,-5.85734 0.0181,-2.01687 0.25205,-3.42623 0.81993,-4.93889 0.43705,-1.16416 0.98897,-3.01023 1.22649,-4.10237 0.23752,-1.09213 0.70317,-2.39978 1.03478,-2.90587 0.61917,-0.94498 2.9623106,-2.34037 3.9299406,-2.34037 0.37036,0 0.54322,-0.34235 0.54322,-1.07585 0,-2.51771 1.73493,-4.0785 4.95786,-4.46021 1.64404,-0.19471 1.74492,-0.26598 1.74492,-1.2327 0,-1.93299 1.86265,-3.03151 5.59198,-3.29793 0.90198,-0.0644 2.59246,-0.46157 3.75663,-0.88252 2.3540096,-0.85119 4.6336694,-0.78927 6.5014504,0.1766 3.35779,1.73638 2.58399,6.65327 -2.000721,12.71289 -2.5531298,3.37448 -10.5066294,11.43741 -14.2021194,14.39753 -4.75247,3.80676 -9.2032206,5.27553 -11.5363406,3.80703 z"
       id="path5" /></g></svg>
