<?xml version="1.0" encoding="UTF-8" standalone="no"?>
<!-- Created with Inkscape (http://www.inkscape.org/) -->

<svg
   width="210mm"
   height="297mm"
   viewBox="0 0 210 297"
   version="1.1"
   id="svg1"
   xml:space="preserve"
   sodipodi:docname="CakeTop.svg"
   inkscape:version="1.3.2 (091e20e, 2023-11-25, custom)"
   xmlns:inkscape="http://www.inkscape.org/namespaces/inkscape"
   xmlns:sodipodi="http://sodipodi.sourceforge.net/DTD/sodipodi-0.dtd"
   xmlns="http://www.w3.org/2000/svg"
   xmlns:svg="http://www.w3.org/2000/svg"><sodipodi:namedview
     id="namedview1"
     pagecolor="#ffffff"
     bordercolor="#000000"
     borderopacity="0.25"
     inkscape:showpageshadow="2"
     inkscape:pageopacity="0.0"
     inkscape:pagecheckerboard="0"
     inkscape:deskcolor="#d1d1d1"
     inkscape:document-units="mm"
     inkscape:zoom="0.69219276"
     inkscape:cx="397.28818"
     inkscape:cy="685.50269"
     inkscape:window-width="1920"
     inkscape:window-height="991"
     inkscape:window-x="-9"
     inkscape:window-y="-9"
     inkscape:window-maximized="1"
     inkscape:current-layer="layer1" /><defs
     id="defs1" /><g
     inkscape:label="Layer 1"
     inkscape:groupmode="layer"
     id="layer1"><path
       style="fill:#000000"
       d="M -11.29031,304.63749 C -11.95996,303.96784 -12,303.47309 -12,295.86858 c 0,-7.24861 0.0625,-8.11579 0.62165,-8.6218 0.34191,-0.30942 2.87847,-1.61653 5.63679,-2.90468 L -0.72643,282 l 8.73891,3.64898 8.7389,3.64898 v 7.93228 7.93228 l -13.666,0.0923 c -13.28613,0.0898 -13.68572,0.0726 -14.37569,-0.61736 z m 26.80697,-1.76321 v -1.05351 l -11.55347,-0.093 -11.55347,-0.093 -0.0966,-6.10542 -0.0966,-6.10542 4.97988,-2.35101 4.97988,-2.351 -1.43308,-0.60863 -1.43308,-0.60863 -4.9495,2.33666 -4.94949,2.33666 v 7.63974 c 0,4.20185 0.10583,7.74557 0.23519,7.87492 0.12935,0.12935 6.0031,0.23519 13.05278,0.23519 h 12.81759 z m 0,-7.06037 V 291.2278 H 4.58055 -6.35556 v 4.58611 4.58611 H 4.58055 15.51666 Z m -5.81837,-7.9668 c -2.52101,-1.06731 -4.90644,-2.02159 -5.30096,-2.1206 -0.44053,-0.11057 -2.41517,0.63312 -5.11773,1.92746 l -4.40044,2.1075 9.70139,0.0131 9.70139,0.0131 z"
       id="path1" /></g></svg>
