<?xml version="1.0" encoding="UTF-8" standalone="no"?>
<!-- Created with Inkscape (http://www.inkscape.org/) -->

<svg
   width="210mm"
   height="297mm"
   viewBox="0 0 210 297"
   version="1.1"
   id="svg1"
   xml:space="preserve"
   inkscape:version="1.3.2 (091e20e, 2023-11-25, custom)"
   sodipodi:docname="EggBase.svg"
   xmlns:inkscape="http://www.inkscape.org/namespaces/inkscape"
   xmlns:sodipodi="http://sodipodi.sourceforge.net/DTD/sodipodi-0.dtd"
   xmlns="http://www.w3.org/2000/svg"
   xmlns:svg="http://www.w3.org/2000/svg"><sodipodi:namedview
     id="namedview1"
     pagecolor="#ffffff"
     bordercolor="#000000"
     borderopacity="0.25"
     inkscape:showpageshadow="2"
     inkscape:pageopacity="0.0"
     inkscape:pagecheckerboard="0"
     inkscape:deskcolor="#d1d1d1"
     inkscape:document-units="mm"
     inkscape:zoom="0.34609638"
     inkscape:cx="400.17755"
     inkscape:cy="683.33567"
     inkscape:window-width="1902"
     inkscape:window-height="973"
     inkscape:window-x="0"
     inkscape:window-y="0"
     inkscape:window-maximized="0"
     inkscape:current-layer="layer1" /><defs
     id="defs1" /><g
     inkscape:label="Layer 1"
     inkscape:groupmode="layer"
     id="layer1"><path
       style="fill:#040004;fill-opacity:1;stroke:none;stroke-opacity:1"
       d="m -3.7119154,313.76694 c -2.7072899,-0.72508 -4.1403899,-1.77586 -7.2090046,-5.28582 -3.09948,-3.54526 -4.7393,-6.61278 -5.02743,-9.40453 -0.30046,-2.91112 0.65798,-4.63285 4.24931,-7.63344 3.4007847,-2.8414 3.5341347,-2.99581 4.0979447,-4.74525 1.45656,-4.51959 5.9293899,-5.78999 13.2377899,-3.75988 1.55222,0.43117 3.6882495,1.01784 4.7467194,1.30371 2.60541,0.70367 4.3309,2.44807 5.17949,5.23624 0.48429,1.59118 0.64156,3.29912 0.64827,7.03977 0.008,4.4312 -0.0758,5.12607 -0.81494,6.75983 -0.85474,1.88934 -5.9220399,8.22971 -7.4664794,9.34231 -2.20567,1.58893 -7.89772002,2.14977 -11.64167,1.14706 z"
       id="path4" /></g></svg>
