<?xml version="1.0" encoding="UTF-8" standalone="no"?>
<!-- Created with Inkscape (http://www.inkscape.org/) -->

<svg
   width="210mm"
   height="297mm"
   viewBox="0 0 210 297"
   version="1.1"
   id="svg1"
   xml:space="preserve"
   sodipodi:docname="EggTop.svg"
   inkscape:version="1.3.2 (091e20e, 2023-11-25, custom)"
   xmlns:inkscape="http://www.inkscape.org/namespaces/inkscape"
   xmlns:sodipodi="http://sodipodi.sourceforge.net/DTD/sodipodi-0.dtd"
   xmlns="http://www.w3.org/2000/svg"
   xmlns:svg="http://www.w3.org/2000/svg"><sodipodi:namedview
     id="namedview1"
     pagecolor="#ffffff"
     bordercolor="#000000"
     borderopacity="0.25"
     inkscape:showpageshadow="2"
     inkscape:pageopacity="0.0"
     inkscape:pagecheckerboard="0"
     inkscape:deskcolor="#d1d1d1"
     inkscape:document-units="mm"
     inkscape:zoom="0.34609638"
     inkscape:cx="401.62223"
     inkscape:cy="683.33566"
     inkscape:window-width="1902"
     inkscape:window-height="973"
     inkscape:window-x="32"
     inkscape:window-y="0"
     inkscape:window-maximized="0"
     inkscape:current-layer="layer1" /><defs
     id="defs1" /><g
     inkscape:label="Layer 1"
     inkscape:groupmode="layer"
     id="layer1"><path
       style="fill:#000000;fill-opacity:1;stroke:none;stroke-opacity:1"
       d="m -3.7119104,313.76694 c -2.70729,-0.72508 -4.14039,-1.77586 -7.2090096,-5.28582 -3.09948,-3.54526 -4.7393,-6.61278 -5.02743,-9.40453 -0.30046,-2.91112 0.65798,-4.63285 4.24931,-7.63344 3.4007896,-2.8414 3.5341396,-2.99581 4.0979496,-4.74525 1.45656,-4.51959 5.92939,-5.78999 13.23779,-3.75988 1.55222,0.43117 3.68825,1.01784 4.7467204,1.30371 2.60541,0.70367 4.3309,2.44807 5.17949,5.23624 0.48429,1.59118 0.64156,3.29912 0.64827,7.03977 0.008,4.4312 -0.0758,5.12607 -0.81494,6.75983 -0.85474,1.88934 -5.9220404,8.22971 -7.4664804,9.34231 -2.20567,1.58893 -7.89771999,2.14977 -11.64167,1.14706 z m 9.9175,-1.83721 c 1.7287,-0.83685 6.1992104,-5.93133 7.7213904,-8.79912 0.82883,-1.56153 0.88025,-1.96999 0.85374,-6.78306 -0.0244,-4.43302 -0.13508,-5.39566 -0.8233,-7.16117 -0.4479,-1.14905 -1.16826,-2.28421 -1.64969,-2.59966 -1.41755,-0.92882 -8.9604904,-2.94997 -11.78630039,-3.15818 -2.30960001,-0.17018 -2.84758001,-0.0906 -4.23334001,0.62629 -1.38441,0.71619 -1.70147,1.10783 -2.47842,3.06144 -0.56483,1.42025 -1.35551,2.64691 -2.16022,3.35139 -0.69812,0.61116 -2.1644596,1.8769 -3.2585396,2.81277 -2.5055,2.14317 -3.16634,3.37471 -2.96048,5.51712 0.23719,2.46844 1.64259,5.14848 4.49207,8.56621 3.9232896,4.70566 5.8503196,5.62937 11.3417296,5.43659 2.5575,-0.0898 3.76947,-0.30331 4.94136,-0.87062 z m -6.75309999,-8.97379 c -3.44048001,-1.73809 -4.51326001,-5.89095 -2.35921001,-9.1328 0.95101,-1.43128 3.46363001,-2.77345 5.19203,-2.77345 0.69389,0 1.96866,0.35718 2.83282,0.79375 4.62942,2.33871 4.62942,8.77379 0,11.1125 -0.86416,0.43656 -2.13893,0.79375 -2.83282,0.79375 -0.69388,0 -1.96864999,-0.35719 -2.83281999,-0.79375 z m 5.21729999,-1.32101 c 1.4855,-0.90573 2.55177,-2.67545 2.55177,-4.23524 0,-1.5598 -1.06627,-3.32952 -2.55177,-4.23524 -4.12374999,-2.51428 -9.13399,2.49596 -6.61971,6.61971 1.46634001,2.40499 4.37632,3.21858 6.61971,1.85077 z"
       id="path1" /></g></svg>
