<?xml version="1.0" encoding="UTF-8" standalone="no"?>
<!-- Created with Inkscape (http://www.inkscape.org/) -->

<svg
   width="210mm"
   height="297mm"
   viewBox="0 0 210 297"
   version="1.1"
   id="svg1"
   xml:space="preserve"
   sodipodi:docname="StrawberryBase.svg"
   inkscape:version="1.3.2 (091e20e, 2023-11-25, custom)"
   xmlns:inkscape="http://www.inkscape.org/namespaces/inkscape"
   xmlns:sodipodi="http://sodipodi.sourceforge.net/DTD/sodipodi-0.dtd"
   xmlns="http://www.w3.org/2000/svg"
   xmlns:svg="http://www.w3.org/2000/svg"><sodipodi:namedview
     id="namedview1"
     pagecolor="#ffffff"
     bordercolor="#000000"
     borderopacity="0.25"
     inkscape:showpageshadow="2"
     inkscape:pageopacity="0.0"
     inkscape:pagecheckerboard="0"
     inkscape:deskcolor="#d1d1d1"
     inkscape:document-units="mm"
     inkscape:zoom="7.8312671"
     inkscape:cx="6.8954359"
     inkscape:cy="1140.3646"
     inkscape:window-width="1920"
     inkscape:window-height="991"
     inkscape:window-x="-9"
     inkscape:window-y="-9"
     inkscape:window-maximized="1"
     inkscape:current-layer="layer1" /><defs
     id="defs1" /><g
     inkscape:label="Layer 1"
     inkscape:groupmode="layer"
     id="layer1"><path
       style="fill:#000000"
       d="m -10.993798,314.95013 c -3.23882,-0.8724 -4.307838,-2.05944 -4.838392,-5.37257 -0.896098,-5.59583 1.912592,-14.94076 5.662982,-18.84158 1.9650697,-2.0439 3.6069297,-2.81291 6.0056597,-2.81291 1.5545,0 2.28736,0.22861 3.95816995,1.23472 1.12776,0.6791 2.11060005,1.23473 2.18411005,1.23473 0.0735,0 0.13365,-0.53624 0.13365,-1.19164 0,-0.6554 0.25484,-1.80155 0.5663,-2.547 0.35908,-0.8594 0.50294,-1.9176 0.39312,-2.89186 -0.22317,-1.98002 0.45302,-2.30194 1.91536,-0.91186 1.48333,1.41005 2.1396,2.80652 2.38402,5.07291 l 0.20925,1.94028 0.78147,-1.09554 c 0.42981,-0.60255 0.96439,-1.87255 1.18795,-2.82222 0.7393103,-3.14046 1.1072103,-3.39864 2.3106503,-1.62155 1.48735,2.19632 1.35895,5.96333 -0.2818,8.26755 l -0.69128,0.97082 0.91294,0.41596 c 0.69596,0.31711 1.43234,0.31937 3.09835,0.01 2.63249,-0.48957 3.11518,-0.18005 2.05066,1.31494 -1.21886,1.71173 -3.47114,2.85077 -5.63697,2.85077 -1.01777,0 -1.7892003,0.11906 -1.7142903,0.26458 0.8360803,1.62423 1.4533803,3.32606 1.6005603,4.41259 0.66656,4.92052 -6.3055503,10.51598 -15.0835103,12.10528 -3.23964,0.58655 -4.97081,0.58997 -7.1089597,0.014 z"
       id="path9" /></g></svg>
