<?xml version="1.0" encoding="UTF-8" standalone="no"?>
<!-- Created with Inkscape (http://www.inkscape.org/) -->

<svg
   width="210mm"
   height="297mm"
   viewBox="0 0 210 297"
   version="1.1"
   id="svg1"
   xml:space="preserve"
   sodipodi:docname="StrawberryTop.svg"
   inkscape:version="1.3.2 (091e20e, 2023-11-25, custom)"
   xmlns:inkscape="http://www.inkscape.org/namespaces/inkscape"
   xmlns:sodipodi="http://sodipodi.sourceforge.net/DTD/sodipodi-0.dtd"
   xmlns="http://www.w3.org/2000/svg"
   xmlns:svg="http://www.w3.org/2000/svg"><sodipodi:namedview
     id="namedview1"
     pagecolor="#ffffff"
     bordercolor="#000000"
     borderopacity="0.25"
     inkscape:showpageshadow="2"
     inkscape:pageopacity="0.0"
     inkscape:pagecheckerboard="0"
     inkscape:deskcolor="#d1d1d1"
     inkscape:document-units="mm"
     inkscape:zoom="0.4894542"
     inkscape:cx="435.17862"
     inkscape:cy="532.22549"
     inkscape:window-width="1920"
     inkscape:window-height="991"
     inkscape:window-x="-9"
     inkscape:window-y="-9"
     inkscape:window-maximized="1"
     inkscape:current-layer="layer1" /><defs
     id="defs1" /><g
     inkscape:label="Layer 1"
     inkscape:groupmode="layer"
     id="layer1"><path
       style="fill:#000000"
       d="m -10.993798,314.95013 c -3.23882,-0.8724 -4.307838,-2.05944 -4.838392,-5.37257 -0.896098,-5.59583 1.912592,-14.94076 5.662982,-18.84158 1.9650697,-2.0439 3.6069297,-2.81291 6.0056597,-2.81291 1.5545,0 2.28736,0.22861 3.95816995,1.23472 1.12776,0.6791 2.11060005,1.23473 2.18411005,1.23473 0.0735,0 0.13365,-0.53624 0.13365,-1.19164 0,-0.6554 0.25484,-1.80155 0.5663,-2.547 0.35908,-0.8594 0.50294,-1.9176 0.39312,-2.89186 -0.22317,-1.98002 0.45302,-2.30194 1.91536,-0.91186 1.48333,1.41005 2.1396,2.80652 2.38402,5.07291 l 0.20925,1.94028 0.78147,-1.09554 c 0.42981,-0.60255 0.96439,-1.87255 1.18795,-2.82222 0.7393103,-3.14046 1.1072103,-3.39864 2.3106503,-1.62155 1.48735,2.19632 1.35895,5.96333 -0.2818,8.26755 l -0.69128,0.97082 0.91294,0.41596 c 0.69596,0.31711 1.43234,0.31937 3.09835,0.01 2.63249,-0.48957 3.11518,-0.18005 2.05066,1.31494 -1.21886,1.71173 -3.47114,2.85077 -5.63697,2.85077 -1.01777,0 -1.7892003,0.11906 -1.7142903,0.26458 0.8360803,1.62423 1.4533803,3.32606 1.6005603,4.41259 0.66656,4.92052 -6.3055503,10.51598 -15.0835103,12.10528 -3.23964,0.58655 -4.97081,0.58997 -7.1089597,0.014 z m 9.0339797,-1.83837 c 4.77812,-1.22283 9.71125,-4.42045 11.13987,-7.22077 1.5790803,-3.09524 0.58019,-5.38364 -4.72557,-10.82605 -3.86058005,-3.96001 -6.96636,-6.09544 -8.83664,-6.07579 -4.79818,0.0504 -10.0572997,9.23496 -10.1966937,17.80753 -0.07893,4.85403 0.719714,6.00456 4.8731737,7.02026 1.13507,0.27757 5.43569,-0.11396 7.74586,-0.70518 z m -5.80558,-2.02707 c 0,-0.63847 1.14898,-1.64217 1.87986,-1.64217 0.77975,0 0.75064,0.80323 -0.0555,1.53282 -0.77764,0.70375 -1.82431,0.76649 -1.82431,0.10935 z m -4.5861097,-3.15912 c 0,-0.89771 0.59857,-1.65805 1.30528,-1.65805 0.57632,0 0.60183,1.47956 0.0353,2.04611 -0.68027,0.68027 -1.34056,0.48913 -1.34056,-0.38806 z m 11.70330965,0.49671 c -0.29156,-0.18019 -0.25265,-0.46484 0.14019,-1.0257 0.60295,-0.86083 2.26761005,-1.07396 2.26761005,-0.29032 0,0.85801 -1.67106005,1.77135 -2.40780005,1.31602 z m -4.87838995,-3.05087 c -0.29234,-0.76181 1.04216,-2.09631 1.80397,-1.80398 0.45388,0.17417 0.49518,0.367 0.19768,0.92288 -0.20684,0.38649 -0.69229,0.87194 -1.07878,1.07878 -0.55587,0.29749 -0.74871,0.25619 -0.92287,-0.19768 z m 10.99486,-0.86049 c -0.23572,-0.38141 0.41772,-1.80943 1.00161,-2.18888 1.02842,-0.66834 1.28317,1.05083 0.28903,1.95052 -0.74393,0.67324 -0.99339,0.71932 -1.29064,0.23836 z m -16.0558897,-2.45673 c 0,-0.62892 1.1928497,-1.7839 1.8423797,-1.7839 0.48748,0 0.2909,1.3441 -0.28008,1.91508 -0.7626,0.76261 -1.5622997,0.69546 -1.5622997,-0.13118 z m 10.93610965,-1.05834 c 0,-0.73101 1.32782005,-1.87701 1.82138005,-1.57197 0.46789,0.28917 0.34463,1.09945 -0.25908,1.70316 -0.7626,0.76261 -1.56230005,0.69546 -1.56230005,-0.13119 z M -4.5903983,298.2083 c 0,-0.70802 1.04026,-1.81856 1.70347,-1.81856 0.71069,0 0.451,1.34462 -0.37085,1.92027 -1.02302,0.71655 -1.33262,0.69292 -1.33262,-0.10171 z m -4.93889,-1.05833 c 0,-0.70802 1.04026,-1.81856 1.70348,-1.81856 0.63957,0 0.48774,1.23428 -0.23195,1.8856 -0.84984,0.76909 -1.47153,0.74077 -1.47153,-0.067 z m 9.87777995,-2.10079 c 0,-0.86942 0.68513005,-1.48166 1.65806005,-1.48166 0.99823,0 1.03442,0.48252 0.10583,1.41111 -0.87744,0.87743 -1.76389005,0.91289 -1.76389005,0.0705 z M -4.9431783,292.1816 c 0,-0.62348 1.1123,-1.43631 1.96548,-1.43631 0.98861,0 1.09327,0.41864 0.30238,1.20953 -0.59763,0.59763 -2.26786,0.76465 -2.26786,0.22678 z m 18.5416003,4.04297 c 0.65531,-0.49565 0.64254,-0.51843 -0.29668,-0.52917 -1.23795,-0.0142 -3.10537,-0.78361 -3.7301503,-1.53699 -0.41213,-0.49695 -0.35241,-0.72633 0.4316903,-1.65819 1.12499,-1.33697 1.76451,-3.59501 1.46713,-5.18019 l -0.22442,-1.19626 -1.07005,2.14136 c -0.7058103,1.41243 -1.4305903,2.32779 -2.1292003,2.68906 -1.65825,0.85751 -2.05381,0.47632 -2.05381,-1.97923 0,-1.32799 -0.22615,-2.57537 -0.59364,-3.27427 l -0.59364,-1.12901 -0.82671,2.61253 c -0.70733,2.23527 -0.76734,2.79243 -0.41558,3.85827 0.48415,1.46699 3.14409,4.22624 4.89902,5.08193 1.52295,0.74258 4.2172203,0.79512 5.1360403,0.10016 z"
       id="path9" /></g></svg>
