<?xml version="1.0" encoding="UTF-8" standalone="no"?>
<svg
   xmlns:dc="http://purl.org/dc/elements/1.1/"
   xmlns:cc="http://creativecommons.org/ns#"
   xmlns:rdf="http://www.w3.org/1999/02/22-rdf-syntax-ns#"
   xmlns:svg="http://www.w3.org/2000/svg"
   xmlns="http://www.w3.org/2000/svg"
   xmlns:sodipodi="http://sodipodi.sourceforge.net/DTD/sodipodi-0.dtd"
   xmlns:inkscape="http://www.inkscape.org/namespaces/inkscape"
   sodipodi:docname="SpecializedCageProfileExtra.svg"
   inkscape:version="1.0 (4035a4fb49, 2020-05-01)"
   id="svg8"
   version="1.1"
   viewBox="0 0 210 297"
   height="297mm"
   width="210mm">
  <defs
     id="defs2" />
  <sodipodi:namedview
     inkscape:window-maximized="1"
     inkscape:window-y="-8"
     inkscape:window-x="-8"
     inkscape:window-height="1017"
     inkscape:window-width="1920"
     showgrid="false"
     inkscape:document-rotation="0"
     inkscape:current-layer="layer1"
     inkscape:document-units="mm"
     inkscape:cy="1121.9433"
     inkscape:cx="9.4518256"
     inkscape:zoom="256"
     inkscape:pageshadow="2"
     inkscape:pageopacity="0.0"
     borderopacity="1.0"
     bordercolor="#666666"
     pagecolor="#ffffff"
     id="base" />
  <metadata
     id="metadata5">
    <rdf:RDF>
      <cc:Work
         rdf:about="">
        <dc:format>image/svg+xml</dc:format>
        <dc:type
           rdf:resource="http://purl.org/dc/dcmitype/StillImage" />
        <dc:title></dc:title>
      </cc:Work>
    </rdf:RDF>
  </metadata>
  <g
     id="layer1"
     inkscape:groupmode="layer"
     inkscape:label="Layer 1">
    <path
       d="m 2.84,292.85 c -0.2378255,0.40429 -0.486427,0.77499 -0.7379151,1.06298 -0.093051,0.0267 -0.1882654,0.0445 -0.2852424,0.0532 -0.092101,-0.005 -0.1966498,-0.003 -0.3271006,0.0191 -0.63820248,0.0247 -1.25566501,0.11075 -1.43655417,2.02365 -0.03460362,0.27246 -0.05677491,0.57065 -0.0527084114,0.91932 3.1748865e-4,0.027 0.002156281,0.0468 0.002584881,0.0734 -4.286e-4,0.0266 -0.002267393,0.0463 -0.002584881,0.0734 -0.004066499,0.34868 0.0181047914,0.64687 0.0527084114,0.91933 0.18088916,1.9129 0.79835169,1.99898 1.43655417,2.02365 0.1304508,0.0225 0.2349998,0.0237 0.3271006,0.0191 0.096977,0.009 0.1921918,0.0266 0.2852424,0.0532 0.2514881,0.28799 0.5000896,0.65869 0.7379151,1.06299 z"
       style="fill:#00ff00;fill-opacity:0.620968;stroke-width:1.99996"
       id="rect32" />
  </g>
</svg>
