<?xml version="1.0" encoding="UTF-8" standalone="no"?>
<svg
   xmlns:dc="http://purl.org/dc/elements/1.1/"
   xmlns:cc="http://creativecommons.org/ns#"
   xmlns:rdf="http://www.w3.org/1999/02/22-rdf-syntax-ns#"
   xmlns:svg="http://www.w3.org/2000/svg"
   xmlns="http://www.w3.org/2000/svg"
   xmlns:sodipodi="http://sodipodi.sourceforge.net/DTD/sodipodi-0.dtd"
   xmlns:inkscape="http://www.inkscape.org/namespaces/inkscape"
   sodipodi:docname="SpecializedHandlebarHorizontal.svg"
   inkscape:version="1.0 (4035a4fb49, 2020-05-01)"
   id="svg8"
   version="1.1"
   viewBox="0 0 210 297"
   height="297mm"
   width="210mm">
  <defs
     id="defs2" />
  <sodipodi:namedview
     inkscape:window-maximized="1"
     inkscape:window-y="-8"
     inkscape:window-x="-8"
     inkscape:window-height="1017"
     inkscape:window-width="1920"
     showgrid="false"
     inkscape:document-rotation="0"
     inkscape:current-layer="layer1"
     inkscape:document-units="mm"
     inkscape:cy="991.2939"
     inkscape:cx="85.130435"
     inkscape:zoom="1.4"
     inkscape:pageshadow="2"
     inkscape:pageopacity="0.0"
     borderopacity="1.0"
     bordercolor="#666666"
     pagecolor="#ffffff"
     id="base" />
  <metadata
     id="metadata5">
    <rdf:RDF>
      <cc:Work
         rdf:about="">
        <dc:format>image/svg+xml</dc:format>
        <dc:type
           rdf:resource="http://purl.org/dc/dcmitype/StillImage" />
        <dc:title></dc:title>
      </cc:Work>
    </rdf:RDF>
  </metadata>
  <g
     id="layer1"
     inkscape:groupmode="layer"
     inkscape:label="Layer 1">
    <path
       d="M 25.201,222.0563 9.9999762e-6,222 v 2.89027 C 12.184051,246.43972 15.118424,247.21492 15.671893,276.35638 c 0.003,0.1789 -0.0202,0.2713 -0.0202,0.2713 0,0 -8.8134093,0.46909 -8.3018005,6.61251 0.1246897,1.49737 0.9254678,2.76121 1.9006555,4.04782 1.123347,1.35192 2.459884,2.67254 3.302632,4.8829 0.518479,1.17223 0.849048,2.49869 0.821138,4.06901 -0.002,0.10665 -0.008,0.20652 -0.0114,0.31057 0.004,0.10422 0.009,0.20426 0.0114,0.31109 0.028,1.57307 -0.303679,2.90147 -0.823728,4.07521 -0.842408,2.2054 -2.176575,3.52425 -3.298492,4.87412 -0.9759777,1.2874 -1.7774358,2.55214 -1.9022055,4.0504 -0.5116088,6.14342 8.3018005,6.61251 8.3018005,6.61251 0,0 0.0237,0.0924 0.0207,0.2713 C 15.118924,345.88658 12.184031,346.66127 0,368.21071 v 2.89078 l 25.201,-0.0563 z"
       style="fill:#fa05fa;fill-opacity:0.620968;stroke-width:0.336624"
       id="rect847" />
  </g>
</svg>
