<?xml version="1.0" encoding="UTF-8" standalone="no"?>
<svg
   xmlns:dc="http://purl.org/dc/elements/1.1/"
   xmlns:cc="http://creativecommons.org/ns#"
   xmlns:rdf="http://www.w3.org/1999/02/22-rdf-syntax-ns#"
   xmlns:svg="http://www.w3.org/2000/svg"
   xmlns="http://www.w3.org/2000/svg"
   xmlns:sodipodi="http://sodipodi.sourceforge.net/DTD/sodipodi-0.dtd"
   xmlns:inkscape="http://www.inkscape.org/namespaces/inkscape"
   sodipodi:docname="centerlock.svg"
   inkscape:version="1.0 (4035a4fb49, 2020-05-01)"
   id="svg22"
   version="1.1"
   viewBox="0 0 210 297"
   height="297mm"
   width="210mm">
  <defs
     id="defs16" />
  <sodipodi:namedview
     inkscape:window-maximized="1"
     inkscape:window-y="-8"
     inkscape:window-x="-8"
     inkscape:window-height="1017"
     inkscape:window-width="1920"
     showgrid="false"
     inkscape:document-rotation="0"
     inkscape:current-layer="layer1"
     inkscape:document-units="mm"
     inkscape:cy="1163.7725"
     inkscape:cx="96.873268"
     inkscape:zoom="2.8"
     inkscape:pageshadow="2"
     inkscape:pageopacity="0.0"
     borderopacity="1.0"
     bordercolor="#666666"
     pagecolor="#ffffff"
     id="base" />
  <metadata
     id="metadata19">
    <rdf:RDF>
      <cc:Work
         rdf:about="">
        <dc:format>image/svg+xml</dc:format>
        <dc:type
           rdf:resource="http://purl.org/dc/dcmitype/StillImage" />
        <dc:title></dc:title>
      </cc:Work>
    </rdf:RDF>
  </metadata>
  <g
     id="layer1"
     inkscape:groupmode="layer"
     inkscape:label="Layer 1">
    <path
       inkscape:transform-center-y="0.64370021"
       inkscape:transform-center-x="1.0959829"
       d="m 14.911267,305.38759 0.223084,1.37305 -1.342816,0.36315 0.05596,1.38993 -1.376798,0.19864 -0.111991,1.38654 -1.390704,0.0312 -0.278302,1.36293 -1.38433,-0.13662 -0.4405568,1.31945 -1.3577687,-0.30249 -0.5963865,1.25673 -1.3114085,-0.46394 -0.7435196,1.17567 -1.2459251,-0.61863 -0.8798104,1.07748 -1.1622732,-0.7643 L 0.56444456,315 l -1.06167285,-0.89882 -1.11210291,0.83562 -0.9455908,-1.02024 -1.2047172,0.69547 -0.8157201,-1.12678 -1.279764,0.5452 -0.6739542,-1.21689 -1.3361489,0.38696 -0.5223606,-1.28925 -1.3730498,0.22308 -0.3631502,-1.34282 -1.389928,0.056 -0.198644,-1.3768 -1.386539,-0.11199 -0.03124,-1.3907 -1.362931,-0.27831 0.136619,-1.38433 -1.319448,-0.44055 0.302484,-1.35777 -1.256724,-0.59639 0.46394,-1.31141 -1.175674,-0.74352 0.61863,-1.24592 -1.077482,-0.87981 0.7643,-1.16227 L -18,297.56444 l 0.898823,-1.06167 -0.835619,-1.1121 1.020241,-0.94559 -0.695478,-1.20472 1.12678,-0.81572 -0.545194,-1.27976 1.216889,-0.67396 -0.386961,-1.33615 1.289253,-0.52236 -0.223084,-1.37305 1.342816,-0.36315 -0.05595,-1.38993 1.376798,-0.19864 0.111991,-1.38654 1.390704,-0.0312 0.278302,-1.36293 1.3843299,0.13662 0.4405568,-1.31945 1.3577687,0.30249 0.5963865,-1.25673 1.3114085,0.46394 0.7435196,-1.17567 1.2459251,0.61863 0.8798104,-1.07748 1.1622732,0.7643 1.00327163,-0.96358 1.06167285,0.89882 1.11210292,-0.83562 0.9455908,1.02024 1.2047172,-0.69547 0.8157201,1.12678 1.279764,-0.5452 0.6739541,1.21689 1.336149,-0.38696 0.5223606,1.28925 1.3730498,-0.22308 0.3631493,1.34282 1.389929,-0.056 0.198643,1.3768 1.38654,0.11199 0.03124,1.3907 1.362931,0.27831 -0.136619,1.38433 1.319448,0.44055 -0.302485,1.35777 1.256725,0.59639 -0.463941,1.31141 1.175675,0.74352 -0.61863,1.24592 1.077481,0.87981 -0.764299,1.16227 0.963576,1.00328 -0.898824,1.06167 0.83562,1.1121 -1.020241,0.94559 0.695478,1.20472 -1.12678,0.81572 0.545194,1.27976 -1.216889,0.67396 0.386961,1.33615 z"
       inkscape:randomized="0"
       inkscape:rounded="0"
       inkscape:flatsided="false"
       sodipodi:arg2="0.5728047"
       sodipodi:arg1="0.51238946"
       sodipodi:r2="18.008848"
       sodipodi:r1="17.108404"
       sodipodi:cy="297"
       sodipodi:cx="4.4391984e-07"
       sodipodi:sides="52"
       id="path24"
       style="fill:#800000;fill-rule:evenodd;stroke-width:0.0343349"
       sodipodi:type="star" />
  </g>
</svg>
