<?xml version="1.0" encoding="UTF-8" standalone="no"?>
<!-- Created with Inkscape (http://www.inkscape.org/) -->

<svg
   xmlns:dc="http://purl.org/dc/elements/1.1/"
   xmlns:cc="http://creativecommons.org/ns#"
   xmlns:rdf="http://www.w3.org/1999/02/22-rdf-syntax-ns#"
   xmlns:svg="http://www.w3.org/2000/svg"
   xmlns="http://www.w3.org/2000/svg"
   xmlns:sodipodi="http://sodipodi.sourceforge.net/DTD/sodipodi-0.dtd"
   xmlns:inkscape="http://www.inkscape.org/namespaces/inkscape"
   width="210mm"
   height="297mm"
   viewBox="0 0 210 297"
   version="1.1"
   id="svg8"
   inkscape:version="0.92.3 (2405546, 2018-03-11)"
   sodipodi:docname="HopePro4Rear.svg">
  <defs
     id="defs2" />
  <sodipodi:namedview
     id="base"
     pagecolor="#ffffff"
     bordercolor="#666666"
     borderopacity="1.0"
     inkscape:pageopacity="0.0"
     inkscape:pageshadow="2"
     inkscape:zoom="0.35"
     inkscape:cx="400"
     inkscape:cy="560"
     inkscape:document-units="mm"
     inkscape:current-layer="layer1"
     showgrid="false"
     inkscape:window-width="2774"
     inkscape:window-height="1087"
     inkscape:window-x="1790"
     inkscape:window-y="598"
     inkscape:window-maximized="0" />
  <metadata
     id="metadata5">
    <rdf:RDF>
      <cc:Work
         rdf:about="">
        <dc:format>image/svg+xml</dc:format>
        <dc:type
           rdf:resource="http://purl.org/dc/dcmitype/StillImage" />
        <dc:title></dc:title>
      </cc:Work>
    </rdf:RDF>
  </metadata>
  <g
     inkscape:label="Layer 1"
     inkscape:groupmode="layer"
     id="layer1">
    <path
       style="fill:#000000;stroke-width:0.2358804"
       d="M 0,296.29236 V 226 l 5.1303986,0.001 5.1303984,0.001 0.412791,0.72527 c 0.327951,0.5762 0.412791,1.28955 0.412791,3.47084 0,1.51006 0.129525,3.30269 0.287833,3.98361 l 0.287833,1.23804 2.601702,0.0662 2.601701,0.0662 0.07074,1.35631 0.07074,1.35631 h 4.42278 c 3.125434,0 4.50581,0.083 4.705837,0.28306 0.19366,0.19366 0.283056,1.34421 0.283056,3.64299 0,4.52182 0.207101,4.29635 -5.17053,5.62913 -2.249894,0.55761 -4.176443,1.15254 -4.281221,1.32207 -0.104778,0.16954 -0.189316,1.61287 -0.187863,3.20741 0.0021,2.2591 0.08071,2.97722 0.356249,3.25276 0.277117,0.27712 1.000522,0.35346 3.344234,0.35292 2.771527,-7.1e-4 8.323495,0.33606 10.139166,0.61489 1.10008,0.16894 1.698565,0.84962 1.689474,1.92151 -0.0041,0.48651 -0.167729,1.09685 -0.363562,1.35632 -0.335094,0.44398 -0.706228,0.4787 -6.3023,0.5897 -5.036281,0.0999 -6.060068,0.18023 -6.690077,0.52501 -0.818481,0.44792 -1.732905,1.74878 -1.732905,2.46522 0,0.25179 -0.155843,0.66385 -0.346319,0.91568 -0.295281,0.3904 -0.347424,2.52374 -0.35382,14.47601 -0.0042,7.85729 0.08771,14.3365 0.20914,14.74253 0.119153,0.39841 0.328796,1.34881 0.465873,2.112 0.473358,2.63547 1.412824,3.92042 4.860674,6.64816 3.813394,3.01695 4.268697,3.91244 3.429734,6.74563 -0.331341,1.11895 -0.486022,2.18856 -0.43782,3.02757 l 0.07453,1.29734 3.263085,0.11794 c 3.638146,0.13149 3.931267,0.26676 3.931267,1.81418 0,0.7142 -0.653318,1.72066 -1.120431,1.72607 -0.456757,0.005 -6.027391,0.699 -6.08116,0.75728 -0.03362,0.0364 -0.226079,0.4643 -0.427696,0.95081 l -0.366574,0.88455 h -2.37084 -2.37084 v 1.25016 c 0,0.6876 -0.127375,1.37755 -0.283057,1.53323 -0.155681,0.15568 -0.792558,0.28305 -1.415282,0.28305 h -1.132226 l -0.02791,16.5706 c -0.01535,9.11383 -0.09584,16.88904 -0.178871,17.27824 l -0.150963,0.70764 -2.866972,0.0661 -2.866973,0.0661 -0.256482,0.73575 c -0.141065,0.40466 -0.256482,2.30341 -0.256482,4.21946 0,1.91604 -0.06443,3.65161 -0.1431767,3.85682 -0.1242368,0.32376 -0.795105,0.37312 -5.0714286,0.37312 H 0 Z"
       id="path4529"
       inkscape:connector-curvature="0" />
  </g>
</svg>
