<?xml version="1.0" encoding="UTF-8" standalone="no"?>
<!-- Created with Inkscape (http://www.inkscape.org/) -->

<svg
   xmlns:dc="http://purl.org/dc/elements/1.1/"
   xmlns:cc="http://creativecommons.org/ns#"
   xmlns:rdf="http://www.w3.org/1999/02/22-rdf-syntax-ns#"
   xmlns:svg="http://www.w3.org/2000/svg"
   xmlns="http://www.w3.org/2000/svg"
   xmlns:sodipodi="http://sodipodi.sourceforge.net/DTD/sodipodi-0.dtd"
   xmlns:inkscape="http://www.inkscape.org/namespaces/inkscape"
   width="210mm"
   height="297mm"
   viewBox="0 0 210 297"
   version="1.1"
   id="svg8"
   inkscape:version="0.92.3 (2405546, 2018-03-11)"
   sodipodi:docname="rim.svg">
  <defs
     id="defs2" />
  <sodipodi:namedview
     id="base"
     pagecolor="#ffffff"
     bordercolor="#666666"
     borderopacity="1.0"
     inkscape:pageopacity="0.0"
     inkscape:pageshadow="2"
     inkscape:zoom="8"
     inkscape:cx="81.261028"
     inkscape:cy="-67.105731"
     inkscape:document-units="mm"
     inkscape:current-layer="layer1"
     showgrid="false"
     inkscape:window-width="5486"
     inkscape:window-height="2930"
     inkscape:window-x="-16"
     inkscape:window-y="-16"
     inkscape:window-maximized="1" />
  <metadata
     id="metadata5">
    <rdf:RDF>
      <cc:Work
         rdf:about="">
        <dc:format>image/svg+xml</dc:format>
        <dc:type
           rdf:resource="http://purl.org/dc/dcmitype/StillImage" />
        <dc:title></dc:title>
      </cc:Work>
    </rdf:RDF>
  </metadata>
  <g
     inkscape:label="Layer 1"
     inkscape:groupmode="layer"
     id="layer1">
    <path
       style="opacity:1;fill:none;fill-opacity:0.46349206;fill-rule:nonzero;stroke:#000000;stroke-width:3.70708561;stroke-miterlimit:4;stroke-dasharray:none;stroke-opacity:1"
       d="m 79.369141,1079.1602 c -42.732595,4e-4 -77.3736316,19.413 -77.3730472,43.3593 -6.83e-4,23.9463 34.6403832,43.359 77.3730472,43.3594 17.412865,-0.4684 35.847179,-0.4478 54.630859,-0.3047 7.22678,1.1424 8.02588,-9.2912 1.53125,-9.4883 -1.67643,0 -3.22614,0.8927 -4.07227,2.3399 H 102.25 v -12.0645 c -3.887527,-2.0698 -9.438912,-4.2942 -12.732422,-7.3379 -4.495045,-4.1541 -6.473108,-10.3833 -6.492187,-16.5039 0.0143,-6.0962 2.136496,-12.1309 6.43164,-16.457 3.647714,-3.674 8.358716,-6.4087 12.792969,-7.3711 v -12.0781 h 29.38086 c 0.87866,1.2911 2.33863,2.0646 3.90039,2.0664 2.60937,10e-5 4.72472,-2.1152 4.72461,-4.7246 -0.79531,-4.2003 -3.21629,-4.5258 -6.25586,-4.7383 -18.32885,0.3059 -36.580988,0.5498 -54.630859,-0.057 z"
       transform="scale(0.26458333)"
       id="rect4524"
       inkscape:connector-curvature="0"
       sodipodi:nodetypes="ccccccccscsccccccc" />
  </g>
</svg>
