<?xml version="1.0" encoding="UTF-8" standalone="no"?>
<svg
   xmlns:dc="http://purl.org/dc/elements/1.1/"
   xmlns:cc="http://creativecommons.org/ns#"
   xmlns:rdf="http://www.w3.org/1999/02/22-rdf-syntax-ns#"
   xmlns:svg="http://www.w3.org/2000/svg"
   xmlns="http://www.w3.org/2000/svg"
   xmlns:sodipodi="http://sodipodi.sourceforge.net/DTD/sodipodi-0.dtd"
   xmlns:inkscape="http://www.inkscape.org/namespaces/inkscape"
   width="210mm"
   height="297mm"
   viewBox="0 0 210 297"
   version="1.1"
   id="svg8"
   inkscape:version="1.0 (4035a4fb49, 2020-05-01)"
   sodipodi:docname="six_bolt.svg">
  <defs
     id="defs2" />
  <sodipodi:namedview
     id="base"
     pagecolor="#ffffff"
     bordercolor="#666666"
     borderopacity="1.0"
     inkscape:pageopacity="0.0"
     inkscape:pageshadow="2"
     inkscape:zoom="1.4142136"
     inkscape:cx="396.53869"
     inkscape:cy="1256.0143"
     inkscape:document-units="mm"
     inkscape:current-layer="layer1"
     inkscape:document-rotation="0"
     showgrid="false"
     inkscape:window-width="1920"
     inkscape:window-height="1017"
     inkscape:window-x="-8"
     inkscape:window-y="-8"
     inkscape:window-maximized="1" />
  <metadata
     id="metadata5">
    <rdf:RDF>
      <cc:Work
         rdf:about="">
        <dc:format>image/svg+xml</dc:format>
        <dc:type
           rdf:resource="http://purl.org/dc/dcmitype/StillImage" />
        <dc:title />
      </cc:Work>
    </rdf:RDF>
  </metadata>
  <g
     inkscape:label="Layer 1"
     inkscape:groupmode="layer"
     id="layer1">
    <path
       id="path19"
       style="fill:#00ffff;stroke-width:0.297656"
       d="m 0.0634682,270 a 4.4999999,4.4999999 0 0 0 -4.3356526,3.30781 l -0.00155,-0.002 a 2.4999999,2.4999999 0 0 1 -1.0939902,1.36943 22.499998,22.499998 0 0 0 -10.7636834,6.2146 2.5,2.5 0 0 1 -1.663465,0.27441 4.4999999,4.4999999 0 0 0 -5.098396,2.08669 4.4999999,4.4999999 0 0 0 -0.0016,0.004 4.4999999,4.4999999 0 0 0 0.696599,5.40845 l -0.0021,5.2e-4 a 2.5,2.5 0 0 1 0.639237,1.62987 22.499998,22.499998 0 0 0 -0.875915,6.21616 22.499998,22.499998 0 0 0 0.875398,6.21513 2.4999999,2.4999999 0 0 1 -0.593762,1.57768 4.4999999,4.4999999 0 0 0 -0.741557,5.45858 4.4999999,4.4999999 0 0 0 0.0016,0.004 4.4999999,4.4999999 0 0 0 5.032767,2.10065 l -0.001,0.002 a 2.4999999,2.4999999 0 0 1 1.732711,0.26252 22.499998,22.499998 0 0 0 10.7636832,6.21461 2.4999999,2.4999999 0 0 1 1.0702189,1.30328 4.4999999,4.4999999 0 0 0 4.35632319,3.37188 4.4999999,4.4999999 0 0 0 0.003617,0 4.4999999,4.4999999 0 0 0 4.33565191,-3.30781 l 0.00155,0.002 a 2.4999999,2.4999999 0 0 1 1.0929567,-1.3689 22.499998,22.499998 0 0 0 10.7647181,-6.21461 2.4999999,2.4999999 0 0 1 1.663465,-0.27492 4.4999999,4.4999999 0 0 0 5.098396,-2.08721 4.4999999,4.4999999 0 0 0 0.0016,-0.003 4.4999999,4.4999999 0 0 0 -0.696598,-5.40846 l 0.0021,-5.2e-4 a 2.4999999,2.4999999 0 0 1 -0.639239,-1.62935 22.499998,22.499998 0 0 0 0.875916,-6.21668 22.499998,22.499998 0 0 0 -0.875398,-6.21512 2.5,2.5 0 0 1 0.593763,-1.57768 4.4999999,4.4999999 0 0 0 0.741555,-5.4591 4.4999999,4.4999999 0 0 0 -0.0016,-0.003 4.4999999,4.4999999 0 0 0 -5.032767,-2.10065 l 10e-4,-0.002 a 2.5,2.5 0 0 1 -1.732711,-0.262 22.499998,22.499998 0 0 0 -10.7636842,-6.21512 2.4999999,2.4999999 0 0 1 -1.0702184,-1.30328 4.4999999,4.4999999 0 0 0 -4.35632249,-3.37189 4.4999999,4.4999999 0 0 0 -0.003617,0 z M 0.03763,271.99988 a 2.4999999,2.4999999 0 0 1 5.1674e-4,0 2.4999999,2.4999999 0 0 1 0.0289388,0 2.4999999,2.4999999 0 0 1 2.50010596,2.50011 2.4999999,2.4999999 0 0 1 -2.50010596,2.5001 2.4999999,2.4999999 0 0 1 -2.50010584,-2.5001 2.4999999,2.4999999 0 0 1 2.4706503,-2.50011 z m -19.0531,11.00191 a 2.5,2.5 0 0 1 1.26969,0.33487 2.5,2.5 0 0 1 0.914673,3.41478 2.5,2.5 0 0 1 -3.414779,0.91519 2.5,2.5 0 0 1 -0.929659,-3.38998 2.5,2.5 0 0 1 0.01447,-0.0253 2.5,2.5 0 0 1 2.145605,-1.24954 z m 38.13204,0.006 a 2.5,2.5 0 0 1 2.16059,1.22525 2.5,2.5 0 0 1 0.01447,0.0248 2.5,2.5 0 0 1 -0.915191,3.41529 2.5,2.5 0 0 1 -3.415294,-0.91519 2.5,2.5 0 0 1 0.915191,-3.41478 2.5,2.5 0 0 1 1.240234,-0.33538 z m -38.126355,22.00331 a 2.4999999,2.4999999 0 0 1 2.17506,1.25005 2.4999999,2.4999999 0 0 1 -0.915189,3.4153 2.4999999,2.4999999 0 0 1 -3.400826,-0.88987 2.4999999,2.4999999 0 0 1 -0.01447,-0.0253 2.4999999,2.4999999 0 0 1 0.915189,-3.41478 2.4999999,2.4999999 0 0 1 1.240235,-0.33538 z m 38.112917,0.007 a 2.4999999,2.4999999 0 0 1 1.269175,0.33486 2.4999999,2.4999999 0 0 1 0.929658,3.38997 2.4999999,2.4999999 0 0 1 -0.01447,0.0248 2.4999999,2.4999999 0 0 1 -3.415295,0.91519 2.4999999,2.4999999 0 0 1 -0.914672,-3.4153 2.4999999,2.4999999 0 0 1 2.145604,-1.24953 z M 0.05933409,316.01993 a 2.4999999,2.4999999 0 0 1 2.50010591,2.50011 2.4999999,2.4999999 0 0 1 -2.47116711,2.5001 2.4999999,2.4999999 0 0 1 -0.0289388,0 2.4999999,2.4999999 0 0 1 -2.50010579,-2.5001 2.4999999,2.4999999 0 0 1 2.50010579,-2.50011 z" />
  </g>
</svg>
