<?xml version="1.0" encoding="UTF-8" standalone="no"?>
<!-- Created with Inkscape (http://www.inkscape.org/) -->

<svg
   width="51.947445mm"
   height="81.46244mm"
   viewBox="0 0 51.947445 81.46244"
   version="1.1"
   id="svg1"
   xml:space="preserve"
   inkscape:version="1.4.2 (f4327f4, 2025-05-13)"
   sodipodi:docname="PCT token Adela.svg"
   xmlns:inkscape="http://www.inkscape.org/namespaces/inkscape"
   xmlns:sodipodi="http://sodipodi.sourceforge.net/DTD/sodipodi-0.dtd"
   xmlns="http://www.w3.org/2000/svg"
   xmlns:svg="http://www.w3.org/2000/svg"><sodipodi:namedview
     id="namedview1"
     pagecolor="#ffffff"
     bordercolor="#000000"
     borderopacity="0.25"
     inkscape:showpageshadow="2"
     inkscape:pageopacity="0.0"
     inkscape:pagecheckerboard="0"
     inkscape:deskcolor="#d1d1d1"
     inkscape:document-units="mm"
     inkscape:zoom="44.300337"
     inkscape:cx="5.891603"
     inkscape:cy="172.74135"
     inkscape:window-width="1920"
     inkscape:window-height="1111"
     inkscape:window-x="-9"
     inkscape:window-y="941"
     inkscape:window-maximized="1"
     inkscape:current-layer="layer1"
     showguides="false"><inkscape:page
       x="1.4622499e-13"
       y="0"
       width="51.947449"
       height="81.46244"
       id="page2"
       margin="0"
       bleed="0" /></sodipodi:namedview><defs
     id="defs1" /><g
     inkscape:label="Layer 1"
     inkscape:groupmode="layer"
     id="layer1"
     transform="translate(30.105231,35.081111)"><g
       id="g171"
       transform="rotate(90.257017,185.77349,51.88044)"><path
         style="fill:#000000;stroke-width:0.363728"
         d="m 142.08547,224.57574 c -0.0593,-0.0327 -0.1355,-0.10631 -0.16937,-0.16368 -0.0579,-0.0981 -0.0625,-0.17497 -0.077,-1.29544 -0.0148,-1.14211 -0.018,-1.19471 -0.079,-1.27801 -0.0945,-0.12913 -0.2609,-0.19722 -0.54531,-0.22314 -0.37059,-0.0338 -0.48521,-0.11409 -0.49379,-0.34598 -0.007,-0.20086 0.0539,-0.31677 0.20318,-0.38406 0.11816,-0.0533 0.22358,-0.0576 1.40669,-0.0576 h 1.27895 l 0.1139,0.0708 c 0.12606,0.0784 0.15257,0.1338 0.15546,0.32496 0.004,0.28869 -0.11351,0.36749 -0.58299,0.38977 -0.32857,0.0156 -0.35332,0.0214 -0.43316,0.10118 l -0.0847,0.0846 -0.0154,1.27109 c -0.0168,1.38351 -0.0143,1.36484 -0.19671,1.48437 -0.12137,0.0795 -0.356,0.0898 -0.4808,0.0211 z"
         id="path147" /><path
         id="path142"
         style="fill:#000000;stroke-width:0.363728"
         d="m 130.96516,220.78461 c -0.0902,2.9e-4 -0.19001,0.001 -0.30074,0.003 -0.77679,0.009 -0.82686,0.0135 -0.94714,0.0778 -0.16157,0.0864 -0.27817,0.22484 -0.31991,0.37987 -0.0217,0.0801 -0.0297,0.61303 -0.0239,1.56139 0.009,1.42777 0.009,1.44089 0.0784,1.57004 0.0866,0.1621 0.20225,0.22387 0.41915,0.22387 0.13598,0 0.18668,-0.0152 0.2624,-0.079 0.12604,-0.10607 0.15697,-0.23776 0.1577,-0.67553 7.3e-4,-0.32525 0.009,-0.38396 0.0693,-0.48983 0.10472,-0.18313 0.2079,-0.24431 0.4357,-0.25882 0.25168,-0.016 0.38813,0.0301 0.5199,0.17593 0.11269,0.12472 0.15048,0.21312 0.29811,0.69602 0.10282,0.33635 0.20881,0.51555 0.3684,0.62309 0.179,0.12063 0.37465,0.077 0.54114,-0.12086 0.0794,-0.0944 0.0834,-0.1139 0.0679,-0.31972 -0.0127,-0.16719 -0.0514,-0.30223 -0.16372,-0.57027 -0.1329,-0.31719 -0.14723,-0.37527 -0.14905,-0.59772 -0.002,-0.23787 0.003,-0.2535 0.128,-0.45186 0.16194,-0.25628 0.20533,-0.42412 0.1874,-0.72704 -0.0249,-0.42 -0.22393,-0.72268 -0.58043,-0.88266 -0.24898,-0.11173 -0.41706,-0.1394 -1.04863,-0.1374 z m -0.0122,0.79978 c 0.16103,-2.8e-4 0.31798,0.01 0.39134,0.0301 0.35675,0.0991 0.40299,0.48448 0.0771,0.64226 -0.11431,0.0553 -0.18496,0.0641 -0.48588,0.0601 -0.45069,-0.006 -0.49994,-0.0143 -0.59603,-0.10338 -0.0681,-0.0631 -0.0795,-0.0998 -0.0795,-0.25469 0,-0.21657 0.0622,-0.29349 0.27724,-0.34303 0.0897,-0.0207 0.25475,-0.0311 0.41577,-0.0314 z" /><path
         style="fill:#000000;stroke-width:0.363728"
         d="m 126.61068,224.66123 c -0.84307,-0.16922 -1.37326,-0.90183 -1.3813,-1.90865 -0.01,-1.25825 0.72157,-2.03251 1.92054,-2.03251 0.52934,0 1.0714,0.19044 1.36399,0.4792 0.18403,0.18163 0.2376,0.28356 0.25924,0.49322 0.0306,0.2959 -0.10683,0.46018 -0.4127,0.49357 -0.19934,0.0217 -0.32113,-0.0489 -0.48372,-0.28081 -0.0703,-0.10022 -0.18765,-0.22426 -0.26084,-0.27565 -0.12471,-0.0876 -0.15078,-0.0935 -0.41516,-0.0935 -0.23918,0 -0.30472,0.0116 -0.43083,0.076 -0.18633,0.0952 -0.34278,0.26645 -0.44762,0.49005 -0.0751,0.1602 -0.0812,0.20398 -0.0812,0.58881 0,0.40092 0.003,0.42287 0.0952,0.61591 0.12363,0.26003 0.21791,0.3682 0.41391,0.47488 0.18659,0.10155 0.48226,0.13848 0.65427,0.0817 0.30641,-0.10113 0.52343,-0.39065 0.45294,-0.60426 -0.0408,-0.1237 -0.0883,-0.15458 -0.31137,-0.20242 -0.28351,-0.0608 -0.40705,-0.26607 -0.30067,-0.49957 0.0592,-0.13 0.16194,-0.1555 0.67411,-0.16736 0.45549,-0.0105 0.48368,-0.008 0.61591,0.0627 0.0916,0.0488 0.16989,0.12435 0.23097,0.22305 l 0.0924,0.14926 v 0.66443 c 0,0.63424 -0.003,0.67181 -0.0735,0.82698 -0.12733,0.28177 -0.31738,0.35506 -0.65731,0.25348 -0.13598,-0.0406 -0.16767,-0.038 -0.47733,0.0397 -0.34434,0.0864 -0.76347,0.10723 -1.03998,0.0517 z"
         id="path136" /><path
         id="path133"
         style="fill:#000000;stroke-width:0.363728"
         d="m 138.78059,220.72071 c -0.60069,0.001 -1.00406,0.14841 -1.34524,0.49152 -0.37029,0.37238 -0.52649,0.81989 -0.52685,1.5097 -3.7e-4,0.90212 0.28668,1.48208 0.88943,1.79654 0.12324,0.0643 0.31035,0.13572 0.41577,0.15864 0.26208,0.0569 0.88246,0.0571 1.12364,1.9e-4 0.6205,-0.1463 1.09304,-0.64393 1.25821,-1.32494 0.0649,-0.26749 0.074,-0.96558 0.0162,-1.23096 -0.0709,-0.325 -0.2656,-0.68359 -0.49396,-0.90936 -0.35906,-0.35499 -0.73307,-0.49242 -1.33716,-0.49133 z m 0.005,0.80015 c 0.22016,0 0.35776,0.0537 0.48644,0.19003 0.20952,0.22191 0.30217,0.53397 0.29999,1.01104 -0.002,0.53415 -0.14442,0.90755 -0.4169,1.09638 -0.1678,0.11629 -0.49533,0.13905 -0.69039,0.0479 -0.35803,-0.16725 -0.56113,-0.76927 -0.48343,-1.43321 0.0709,-0.60604 0.3409,-0.91217 0.80429,-0.91217 z" /><path
         id="path131"
         style="fill:#000000;stroke-width:0.363728"
         d="m 134.78322,220.7224 c -0.19503,-3.7e-4 -0.38911,0.0136 -0.52347,0.0421 -0.29507,0.0626 -0.62324,0.23871 -0.82703,0.44397 -0.36099,0.36357 -0.52546,0.83005 -0.52836,1.4988 -0.004,0.90257 0.28949,1.49948 0.89018,1.81176 0.12323,0.0641 0.31035,0.13516 0.41577,0.15808 l 1.9e-4,1.9e-4 c 0.26207,0.0569 0.88227,0.0571 1.12345,1.9e-4 0.62013,-0.14622 1.09041,-0.64106 1.25915,-1.32494 0.072,-0.29246 0.0729,-0.99585 0.001,-1.28472 -0.16294,-0.65907 -0.66817,-1.17178 -1.2819,-1.30088 -0.13837,-0.0292 -0.33445,-0.0441 -0.52948,-0.0446 z m 0.0248,0.79865 c 0.20083,-2.2e-4 0.30572,0.0391 0.43588,0.16334 0.22136,0.21137 0.32811,0.55179 0.32593,1.03754 -0.003,0.53913 -0.14234,0.90536 -0.41878,1.09695 -0.10533,0.073 -0.16393,0.0895 -0.34566,0.097 -0.26432,0.0109 -0.42304,-0.052 -0.56427,-0.2233 -0.29965,-0.36354 -0.37431,-1.23689 -0.14679,-1.71741 0.14903,-0.31475 0.36754,-0.45375 0.71369,-0.45411 z" /></g><g
       id="g153"
       transform="matrix(0.33712549,-0.16648683,0.16648683,0.33712549,-97.243785,-79.611043)"><path
         style="fill:#000000"
         d="m 143.80789,266.7753 c -0.42486,-0.13816 -1.06798,-0.81007 -1.18252,-1.23546 -0.0641,-0.23788 -0.0861,-1.61587 -0.0695,-4.34915 0.0242,-3.98432 0.0251,-4.00205 0.21314,-4.26568 0.48567,-0.68087 1.53314,-0.70974 2.03205,-0.056 l 0.23445,0.3072 0.0423,3.28159 c 0.0406,3.15066 0.0493,3.29112 0.21769,3.52043 0.33588,0.4575 0.62552,0.53452 2.02598,0.53875 1.90772,0.006 2.42711,0.2496 2.42711,1.13943 0,0.46737 -0.17526,0.75661 -0.61563,1.016 -0.26717,0.15736 -0.45501,0.17039 -2.65815,0.1843 -1.58179,0.01 -2.46927,-0.0171 -2.667,-0.0814 z"
         id="path111" /><path
         id="path109"
         style="fill:#000000"
         d="m 126.66824,256.38693 c -2.42903,-0.002 -3.01261,0.20694 -3.39411,1.21595 -0.1469,0.38844 -0.14977,0.51899 -0.0496,2.1761 0.0846,1.39811 0.085,2.1359 0.004,3.56619 -0.11573,2.03384 -0.0783,2.3246 0.3607,2.82463 0.29724,0.33854 0.64963,0.54589 1.08417,0.63769 0.16298,0.0344 1.15367,0.0561 2.20142,0.0481 2.1785,-0.0165 2.4859,-0.0791 3.34656,-0.68265 0.82871,-0.58111 1.47822,-1.57424 1.77095,-2.70836 0.6488,-2.51362 0.10241,-4.94735 -1.38596,-6.17172 -0.89972,-0.74013 -1.61276,-0.90389 -3.93774,-0.90589 z m 0.67437,1.80765 c 1.39873,-0.003 2.2474,1.17241 2.25465,3.18636 0.003,0.94444 -0.16735,1.75504 -0.51212,2.43396 -0.2946,0.58015 -0.59511,0.8821 -1.11001,1.11518 -0.55609,0.25172 -1.51881,0.19084 -1.85931,-0.1173 -0.34206,-0.30953 -0.38448,-0.65091 -0.38448,-3.09335 0,-3.10001 0.0685,-3.30469 1.16014,-3.48558 0.15615,-0.0259 0.30644,-0.039 0.45113,-0.0393 z" /><path
         id="path104"
         style="fill:#000000"
         d="m 155.06857,256.38538 c -0.77078,0 -1.62032,0.54102 -1.98747,1.26556 -0.50367,0.99396 -1.91813,4.68218 -2.58124,6.73034 -0.37691,1.16418 -0.39205,1.44429 -0.10336,1.93321 0.16217,0.27463 0.72302,0.56948 1.08263,0.56948 0.13841,0 0.41904,-0.0854 0.62373,-0.19017 0.31311,-0.16026 0.43511,-0.3051 0.76791,-0.91054 0.55999,-1.01874 0.64265,-1.05833 2.21279,-1.05833 1.52033,0 1.56293,0.0224 2.07326,1.07487 0.29511,0.60862 0.41302,0.76386 0.71985,0.94774 0.93434,0.55994 2.01796,-0.0312 2.01796,-1.10071 0,-0.47273 -0.003,-0.48302 -1.51825,-4.56251 -1.31604,-3.54378 -1.3334,-3.58262 -1.77767,-4.03334 -0.39142,-0.39711 -1.0086,-0.6656 -1.53014,-0.6656 z m -0.0661,3.83491 c 0.0949,-0.002 0.19468,0.0379 0.30127,0.11731 0.47307,0.35234 0.70754,1.64783 0.3731,2.06085 -0.16927,0.20904 -0.84704,0.31218 -1.16013,0.17674 -0.44491,-0.19246 -0.4798,-0.85604 -0.0909,-1.7353 0.18275,-0.41326 0.36796,-0.61602 0.57671,-0.6196 z" /><path
         style="fill:#000000"
         d="m 135.18997,266.87817 c -0.72163,-0.0937 -1.37616,-0.40683 -1.67813,-0.80274 l -0.24495,-0.32113 v -3.98593 c 0,-3.96664 9.2e-4,-3.98764 0.18972,-4.34085 0.10435,-0.19521 0.3139,-0.4463 0.46567,-0.55797 0.56591,-0.4164 0.7418,-0.44383 2.64661,-0.41285 1.06714,0.0173 2.15849,-0.0135 2.72968,-0.0772 1.11144,-0.12387 1.51815,-0.0493 1.76645,0.324 0.22122,0.33257 0.21535,1.12659 -0.0102,1.37959 -0.33593,0.37679 -0.59576,0.41897 -2.58092,0.41897 -1.98498,0 -2.34464,0.0583 -2.53318,0.4106 -0.15888,0.29687 -0.10849,0.7455 0.11262,1.00285 l 0.20411,0.23755 1.93373,0.0423 c 1.70932,0.0374 1.96482,0.0611 2.20167,0.20449 0.48882,0.29582 0.60671,0.97929 0.25829,1.49749 -0.2869,0.42669 -0.57737,0.48909 -2.30424,0.49504 -1.58103,0.005 -2.00863,0.0671 -2.34272,0.33761 -0.17034,0.13793 -0.19728,0.23564 -0.19728,0.71563 0,0.49444 0.0259,0.58184 0.23451,0.79065 l 0.23451,0.23475 2.13616,0.0448 c 2.38959,0.0502 2.64623,0.103 2.90196,0.59752 0.17614,0.34061 0.12588,0.94107 -0.0996,1.19042 -0.27515,0.30424 -0.78096,0.50156 -1.4967,0.58386 -0.82418,0.0948 -3.77239,0.0885 -4.52774,-0.01 z"
         id="path103" /><path
         id="path101"
         style="fill:#000000"
         d="m 117.34943,256.40864 c -0.10804,-0.004 -0.21513,5.7e-4 -0.31988,0.0145 -0.89824,0.11916 -1.40541,0.56563 -1.92857,1.69809 -0.54863,1.18759 -1.55214,3.80971 -2.28461,5.96914 -0.54613,1.61009 -0.47245,2.25064 0.30334,2.6262 0.43767,0.21187 0.74085,0.21195 1.17977,-5.2e-4 0.34421,-0.16663 0.47139,-0.32767 0.98444,-1.24799 0.34768,-0.62368 0.58533,-0.72858 1.75131,-0.76997 1.01461,-0.036 1.64007,0.065 1.91151,0.3085 0.087,0.078 0.29989,0.44747 0.47284,0.82114 0.29212,0.63115 0.4891,0.85786 0.93586,1.07642 0.23063,0.11283 0.97525,0.0182 1.20148,-0.15244 0.69362,-0.5232 0.7402,-1.10815 0.20154,-2.54817 -0.20624,-0.55135 -0.83132,-2.22609 -1.38906,-3.72174 -0.55775,-1.49563 -1.0724,-2.83216 -1.1436,-2.96984 -0.32052,-0.61982 -1.1201,-1.07392 -1.87637,-1.10329 z m -0.10232,3.81217 c 0.0823,-0.002 0.1675,0.0253 0.2558,0.0832 0.47626,0.31205 0.74521,1.66765 0.41341,2.08307 -0.12155,0.15217 -0.26303,0.20913 -0.57568,0.23203 -0.22796,0.0167 -0.49149,-0.003 -0.58549,-0.0439 -0.44594,-0.1929 -0.48597,-0.88857 -0.0997,-1.7322 0.18821,-0.41112 0.38138,-0.61588 0.5917,-0.62218 z" /></g><path
       id="path166"
       d="m -8.720294,-16.272925 c -0.314165,-0.07173 -0.322801,-0.468687 -0.188034,-0.866338 0.134734,-0.397629 0.240586,-0.746388 0.675928,-0.573601 0.488315,0.193819 0.3228,0.468688 0.188035,0.866337 -0.134735,0.39763 -0.297732,0.659953 -0.675929,0.573602 z"
       sodipodi:nodetypes="sssss" /><path
       id="path259"
       style="fill:#000000;fill-opacity:1;stroke-width:1.64295"
       d="m 21.011719,-36.666016 c -2.590175,0.356386 -4.712304,2.071623 -7.081675,3.048568 -14.8397023,7.292958 -29.673185,14.59952 -44.451528,22.013932 -1.383899,1.103433 -1.178863,3.0297874 -1.13053,4.5999998 0.06631,17.5059182 0.08957,35.0135762 0.382483,52.5171882 0.05491,1.2337 0.991698,2.542987 2.33789,2.435547 1.46742,-0.05302 2.6818,-1.006651 4.006982,-1.526872 15.8086246,-7.794857 31.6031327,-15.612386 47.35044,-23.527816 1.237666,-1.218834 0.915279,-3.061694 0.926536,-4.622081 0.06113,-17.2423128 0.14743,-34.486626 -0.03136,-51.728417 0.0077,-1.095802 -0.153621,-2.485492 -1.323044,-2.952895 -0.302221,-0.162537 -0.645565,-0.241074 -0.98619,-0.257154 z m -1.576172,16.722657 c -0.0059,13.3235673 -0.01172,26.647135 -0.01758,39.970703 C 3.8098958,27.761068 -11.798177,35.494792 -27.40625,43.228516 -27.509766,25.942057 -27.613281,8.655599 -27.716797,-8.6308594 -12.003906,-16.384115 3.7089844,-24.13737 19.421875,-31.890625 c 0.0046,3.982422 0.0091,7.964844 0.01367,11.947266 z" /><path
       id="path260"
       style="fill:#000000;fill-opacity:1;stroke-width:0.37298"
       d="m -24.818511,9.685414 c 0.03986,-0.287754 0.158989,-0.524792 0.316586,-0.630077 l 0.128517,-0.08584 1.454911,-0.0063 1.454898,-0.0063 0.158271,0.08039 c 0.328834,0.167155 0.402322,0.391119 0.378081,1.153003 -0.0112,0.353125 -0.0029,0.712536 0.02471,0.999749 0.04609,0.49282 0.03255,0.581475 -0.103354,0.671307 -0.184466,0.12203 -0.509053,0.08442 -0.611939,-0.07088 -0.04668,-0.07044 -0.05729,-0.197309 -0.0738,-0.880433 l -0.01929,-0.798167 -0.08794,-0.08714 c -0.0704,-0.0697 -0.116713,-0.08696 -0.232091,-0.08642 -0.118711,4.62e-4 -0.157437,0.01624 -0.219946,0.08957 -0.07465,0.08765 -0.07587,0.09817 -0.07321,0.726636 0.0028,0.681356 -0.01997,0.838136 -0.13893,0.958151 -0.101195,0.102087 -0.375689,0.108385 -0.49999,0.01146 -0.1511,-0.117765 -0.160786,-0.164617 -0.182733,-0.88098 -0.02247,-0.735604 -0.0414,-0.821994 -0.196832,-0.901523 -0.167533,-0.0857 -0.418968,-0.03764 -0.534115,0.102119 -0.0352,0.04274 -0.04775,0.227895 -0.05816,0.862866 -0.01126,0.685932 -0.02158,0.824003 -0.06774,0.911034 -0.07195,0.135634 -0.185906,0.207082 -0.331147,0.207723 -0.27579,0.0011 -0.424665,-0.187181 -0.481265,-0.608988 -0.03898,-0.29019 -0.04121,-1.457489 -0.0035,-1.730936 z m 0.0067,-7.285759 c 0.02418,-0.05399 0.0916,-0.132435 0.149721,-0.17433 l 0.105764,-0.07613 1.215715,-0.02107 c 1.14809,-0.01993 1.221832,-0.02463 1.325961,-0.08559 0.148968,-0.08719 0.220765,-0.249811 0.247789,-0.56142 0.03398,-0.390834 0.118922,-0.506848 0.375028,-0.511817 0.199462,-0.0039 0.300755,0.0537 0.372906,0.21191 0.05429,0.119062 0.05938,0.23215 0.06463,1.425037 0.0048,1.271044 0.0041,1.298224 -0.06275,1.427194 -0.06711,0.128906 -0.06717,0.132579 -0.0084,0.185447 0.137021,0.122882 0.161016,0.422081 0.04788,0.596442 -0.08631,0.133027 -0.249999,0.198339 -0.927793,0.370291 -0.87776,0.222662 -0.958054,0.262248 -0.899643,0.443526 0.02647,0.0821 0.118177,0.107098 0.840046,0.230066 0.637736,0.108577 0.803856,0.164045 0.947178,0.316217 0.06731,0.07142 0.07948,0.114521 0.08032,0.283629 0.0011,0.222395 -0.03459,0.283169 -0.244115,0.417593 -0.124407,0.07981 -0.254345,0.113328 -0.980282,0.252874 -0.240592,0.04625 -0.484361,0.106725 -0.5417,0.134371 -0.180243,0.08691 -0.158877,0.241612 0.04433,0.320303 0.04634,0.01834 0.347871,0.09783 0.669536,0.177277 0.717594,0.177263 0.879194,0.235319 0.998388,0.358653 0.08101,0.08376 0.0931,0.120083 0.09387,0.278278 4.71e-4,0.14893 -0.01458,0.202282 -0.0838,0.293853 -0.166998,0.220925 -0.460286,0.272586 -0.820893,0.144582 -0.07473,-0.02653 -0.498594,-0.162059 -0.942116,-0.301262 -1.44504,-0.453565 -1.802969,-0.580236 -1.89995,-0.672333 -0.294228,-0.279485 -0.226946,-0.701768 0.140547,-0.881968 0.08662,-0.04245 0.320831,-0.113031 0.520375,-0.156752 0.199553,-0.04373 0.470691,-0.102921 0.60254,-0.131552 0.508838,-0.110497 0.500428,-0.361009 -0.0152,-0.457985 -0.438635,-0.08246 -0.993104,-0.224145 -1.143512,-0.292211 -0.124791,-0.0564 -0.176795,-0.103399 -0.235384,-0.213001 -0.16075,-0.299835 0.01849,-0.634527 0.420401,-0.784969 0.197108,-0.07377 2.000347,-0.659063 2.412392,-0.783006 0.198487,-0.05971 0.23479,-0.08099 0.22563,-0.13225 -0.0053,-0.0336 -0.02139,-0.220922 -0.03405,-0.416266 -0.02162,-0.331379 -0.02907,-0.360965 -0.110379,-0.44164 l -0.08712,-0.08651 -1.307642,-0.0101 c -1.264082,-0.0098 -1.310629,-0.0123 -1.397035,-0.07571 -0.168154,-0.123351 -0.243928,-0.409626 -0.158831,-0.599739 z m 0.05338,9.934706 c 0.03614,-0.07104 0.107363,-0.136793 0.198294,-0.183316 l 0.141797,-0.07254 1.581328,0.0019 1.581316,0.0019 0.114329,0.07852 c 0.176973,0.121197 0.257334,0.285969 0.232318,0.481104 -0.04108,0.320279 -0.146199,0.430856 -0.809934,0.851933 -0.839222,0.532423 -0.928076,0.593144 -0.996484,0.680898 -0.08102,0.103962 -0.08436,0.150858 -0.01443,0.208082 0.04116,0.03397 0.210334,0.0424 0.781758,0.03995 0.812172,-0.0035 0.858452,0.0058 0.992141,0.200938 0.14438,0.210671 0.0515,0.493154 -0.1988,0.605215 -0.13268,0.05938 -0.209878,0.06209 -1.710254,0.05975 l -1.571298,-0.0024 -0.116869,-0.07257 c -0.136841,-0.08433 -0.247428,-0.24635 -0.247903,-0.363586 -3.85e-4,-0.102947 0.08425,-0.324022 0.169373,-0.441928 0.05617,-0.07763 0.346137,-0.288174 0.710684,-0.515766 0.06058,-0.03785 0.301543,-0.188358 0.535383,-0.334463 0.623575,-0.389607 0.716802,-0.509066 0.461593,-0.591455 -0.09346,-0.03022 -0.262766,-0.03028 -0.781645,-3.41e-4 -0.601383,0.03463 -0.675318,0.03324 -0.803743,-0.01517 -0.253803,-0.09563 -0.3691,-0.38102 -0.249057,-0.616356 z m 0.02261,4.452558 c 0.03316,-0.061 0.108412,-0.139415 0.167091,-0.174407 0.100352,-0.05985 0.179132,-0.06487 1.328033,-0.08472 1.171102,-0.02021 1.225011,-0.0238 1.310163,-0.08669 0.131986,-0.09747 0.201057,-0.268412 0.22637,-0.560159 0.03434,-0.395144 0.115965,-0.504474 0.377739,-0.505607 0.185446,-8.6e-4 0.292113,0.0574 0.372642,0.203373 0.0514,0.09308 0.05686,0.218893 0.06216,1.428387 l 0.0053,1.326308 -0.07225,0.123367 -0.07226,0.123376 0.09798,0.100253 c 0.188938,0.193293 0.158561,0.465439 -0.07518,0.672984 -0.07533,0.06684 -0.279718,0.1988 -0.454301,0.293223 -0.365954,0.197906 -0.500914,0.322182 -0.5266,0.484919 -0.02381,0.1509 0.06554,0.239257 0.464945,0.46006 0.383066,0.211773 0.619526,0.386593 0.680691,0.503877 0.161561,0.309091 -0.102365,0.656312 -0.47386,0.623446 -0.202763,-0.01798 -0.442143,-0.136396 -1.009351,-0.499458 -0.47284,-0.302539 -0.863146,-0.499616 -1.092897,-0.551522 -0.07774,-0.01756 -0.325032,-0.03144 -0.549668,-0.03089 -0.35232,8.94e-4 -0.427762,-0.0082 -0.548884,-0.06622 -0.326555,-0.156297 -0.344089,-0.66917 -0.02865,-0.840615 0.07456,-0.04055 0.221136,-0.05833 0.61868,-0.07515 0.436766,-0.01845 0.548964,-0.03356 0.694309,-0.09345 0.234172,-0.09649 0.726137,-0.377863 1.114153,-0.637204 0.175455,-0.117272 0.377559,-0.247196 0.449106,-0.288698 l 0.130077,-0.07547 -0.06701,-0.08974 c -0.05584,-0.07487 -0.07011,-0.150052 -0.08575,-0.451106 -0.0176,-0.341168 -0.02361,-0.366139 -0.105882,-0.447768 l -0.08712,-0.08651 -1.317802,-0.01004 c -1.064778,-0.0081 -1.330789,-0.01859 -1.385376,-0.05453 -0.175511,-0.114389 -0.251028,-0.442788 -0.147017,-0.633546 z"
       inkscape:export-filename="PCT_test.svg"
       inkscape:export-xdpi="96"
       inkscape:export-ydpi="96" /><path
       style="fill:#000000;fill-opacity:1"
       d="m 1.217486,-10.033755 c -0.528179,-0.863657 -0.387165,-1.802228 0.324369,-2.158971 0.507153,-0.254266 1.159779,-0.07557 1.348509,0.369226 0.17251,0.406576 -0.24847,0.672015 -0.557192,0.351328 -0.20266,-0.210475 -0.537084,-0.162303 -0.701692,0.101126 -0.145018,0.232077 -0.04037,0.703486 0.245803,1.10722 0.252742,0.3565871 0.540426,0.4617924 0.797481,0.2916238 0.162859,-0.1077748 0.189718,-0.1771778 0.169421,-0.4364388 -0.02794,-0.356874 0.08176,-0.574745 0.304587,-0.604816 0.377374,-0.05096 0.500364,0.780548 0.189115,1.278649 -0.234144,0.37471 -0.581543,0.539567 -1.050824,0.4986602 -0.463698,-0.040425 -0.726274,-0.2362328 -1.069602,-0.7976232 z"
       id="path261" /><path
       style="fill:#000000;fill-opacity:1"
       d="m 6.737423,-5.955872 c -0.240116,-0.396572 -0.238572,-0.9021 0.004,-1.290218 0.245374,-0.39268 0.526554,-0.5633743 1.094588,-0.6645218 1.336426,-0.2379488 2.345875,0.9104488 1.703672,1.9381898 -0.342244,0.547704 -1.113812,0.579401 -1.043128,0.04286 0.02508,-0.190722 0.06872,-0.241124 0.2538,-0.293694 0.477892,-0.13573 0.344601,-0.80144 -0.195407,-0.975971 -0.323496,-0.104506 -1.098025,0.08631 -1.234108,0.30409 -0.203722,0.326023 -0.121993,0.539207 0.280573,0.731811 0.257599,0.123232 0.372869,0.221202 0.400537,0.342495 0.134989,0.584699 -0.89528,0.474659 -1.264459,-0.135053 z"
       id="path262" /><path
       style="fill:#000000;fill-opacity:1"
       d="m -0.103308,-9.7531513 c -0.595661,-1.2813097 -0.63175,-1.5055237 -0.250625,-1.5569887 0.240605,-0.03248 0.319186,0.08625 0.937336,1.4166568 0.562774,1.2111866 0.600529,1.4295437 0.260736,1.507991 -0.07703,0.017783 -0.189909,7.588e-4 -0.250914,-0.037822 -0.06102,-0.038591 -0.374444,-0.6370098 -0.696533,-1.3298371 z"
       id="path263" /><path
       id="path264"
       style="fill:#000000;fill-opacity:1"
       d="m 9.68484,-4.701883 c -0.1098,-0.07215 -0.543658,-0.0966 -1.341604,-0.07541 -1.43613,0.03815 -1.638954,0.07646 -1.701831,0.32164 -0.08101,0.315727 0.146005,0.448691 0.737728,0.43233 0.30223,-0.0084 0.562448,-0.0068 0.578221,0.003 0.01582,0.0099 0.0311,0.124849 0.03393,0.255802 0.0048,0.224042 -0.03087,0.259559 -0.605886,0.595154 -0.693079,0.404486 -0.738424,0.451536 -0.679771,0.705592 0.02332,0.100772 0.08904,0.212844 0.14628,0.248614 0.101274,0.06328 0.829349,-0.237772 1.069806,-0.442368 0.10002,-0.08507 0.171858,-0.06006 0.438722,0.154103 0.284768,0.22853 0.357259,0.249419 0.67821,0.194066 0.255698,-0.04409 0.422378,-0.138204 0.576553,-0.32587 0.192709,-0.234633 0.215173,-0.356426 0.204104,-1.096048 -0.0068,-0.457534 -0.05956,-0.88738 -0.117091,-0.955522 -0.0045,-0.0051 -0.01027,-0.01 -0.01716,-0.01544 z m -0.618919,0.649165 c 0.06917,0.0385 0.07251,0.149428 0.07624,0.460174 0.0032,0.265886 -0.0065,0.503836 -0.02197,0.528599 -0.01547,0.02476 -0.10889,0.03962 -0.207652,0.03294 -0.193822,-0.01298 -0.22236,-0.09402 -0.249141,-0.712017 l -0.01411,-0.322641 0.243754,-0.0049 c 0.08203,-0.0018 0.136548,-0.0022 0.172888,0.01783 z" /><path
       style="fill:#000000;fill-opacity:1"
       d="m -2.691798,-8.4634842 c -0.31733,-0.6842646 -0.564946,-1.3059237 -0.55025,-1.3814764 0.01593,-0.081902 0.375976,-0.3064244 0.891617,-0.5560234 0.881249,-0.426567 1.127681,-0.443372 1.210974,-0.08259 0.04964,0.215018 -0.01453,0.26871 -0.695079,0.5814697 -0.59025,0.2712638 -0.628386,0.3027138 -0.566027,0.4667792 0.108807,0.2862915 0.215996,0.3001134 0.633417,0.081622 0.325313,-0.1702737 0.425846,-0.1831568 0.563423,-0.072238 0.302154,0.2436387 0.219716,0.44388 -0.284656,0.6913351 l -0.452385,0.2219478 0.220895,0.5145891 c 0.144976,0.3377001 0.189582,0.5653611 0.129778,0.6623121 -0.09828,0.159174 -0.323744,0.241981 -0.447932,0.164379 -0.04223,-0.02639 -0.336441,-0.6078502 -0.653775,-1.2921052 z"
       id="path265" /><path
       style="fill:#000000;fill-opacity:1"
       d="m -3.850388,-7.8909808 c -0.317838,-0.6853483 -0.577634,-1.297355 -0.577327,-1.3600131 7.82e-4,-0.1593135 0.230605,-0.3377381 0.394062,-0.3059482 0.168321,0.032777 0.214965,0.1134531 0.828924,1.4364074 0.498559,1.0742147 0.54462,1.2140057 0.450952,1.3683397 -0.05622,0.09186 -0.386555,0.189892 -0.468586,0.138633 -0.02756,-0.01722 -0.310188,-0.59207 -0.628025,-1.2774188 z"
       id="path266" /><path
       style="fill:#000000;fill-opacity:1"
       d="M 6.823031,0.73675 C 6.7211,0.456901 6.710255,-1.307524 6.809811,-1.414313 c 0.138502,-0.148618 2.884023,-0.231356 2.990457,-0.09015 0.0473,0.06281 0.09947,0.546577 0.115815,1.075001 0.03054,0.987567 -0.04943,1.22975 -0.378202,1.145388 C 9.320903,0.660296 9.276952,0.509367 9.266941,-0.212932 9.258241,-0.844099 9.226081,-0.906178 8.92223,-0.878672 8.741424,-0.862312 8.731259,-0.834982 8.727951,-0.356275 8.723951,0.223618 8.56071,0.449807 8.275062,0.271314 8.147906,0.191854 8.091732,0.031811 8.07307,-0.304172 8.04429,-0.822482 8.004,-0.872051 7.640367,-0.836662 l -0.253015,0.02462 0.02726,0.776033 C 7.429602,0.39081 7.422212,0.771482 7.398172,0.809933 7.347032,0.891773 7.011969,0.979597 6.934865,0.931417 6.905775,0.913237 6.855425,0.825647 6.823066,0.736765 Z"
       id="path267" /><path
       style="fill:#000000;fill-opacity:1"
       d="m -6.491983,-6.519198 c -0.114372,-0.212403 -0.234186,-0.477673 -0.266253,-0.589486 -0.08281,-0.288739 -0.0183,-0.8724105 0.121082,-1.0954641 0.182212,-0.2916014 0.64102,-0.5453359 0.979409,-0.5416466 0.565319,0.00617 1.06299,0.4685809 0.857768,0.7970045 -0.130243,0.2084332 -0.385026,0.2086522 -0.609609,5.146e-4 -0.195132,-0.1808909 -0.505033,-0.1339866 -0.65021,0.098345 -0.102375,0.1638336 0.0057,0.7516896 0.1971,1.0720816 0.244993,0.410126 0.792243,0.540093 0.983719,0.233668 0.04425,-0.07081 0.06719,-0.251324 0.05095,-0.401085 -0.03498,-0.322571 0.044,-0.475485 0.26069,-0.504753 0.390671,-0.05275 0.563564,0.78339 0.261833,1.266261 -0.188052,0.300946 -0.682183,0.551228 -1.026852,0.520101 -0.401606,-0.03627 -0.92732,-0.424132 -1.159632,-0.855542 z"
       id="path268" /><path
       style="fill:#000000;fill-opacity:1"
       d="M 6.977324,3.463792 C 6.826912,3.163778 6.805772,2.658226 6.928494,2.296468 7.033786,1.986056 7.471247,1.592811 7.694435,1.607788 8.090341,1.634398 8.124418,2.000722 7.759235,2.30429 7.488518,2.529326 7.414353,2.973592 7.6092,3.202628 7.820918,3.451426 7.980424,3.3346 8.071806,2.863724 8.276349,1.80954 8.46972,1.551184 9.052957,1.552857 c 0.482421,0.0014 0.751383,0.276177 0.885087,0.904258 0.09442,0.443553 0.08267,0.546734 -0.09459,0.830397 C 9.493771,3.847122 9.102464,3.998763 8.903405,3.651807 8.820035,3.506437 8.843275,3.442926 9.091712,3.137459 9.402075,2.755885 9.419502,2.483996 9.144702,2.312281 8.922352,2.173342 8.810471,2.333311 8.714522,2.927305 8.596126,3.660447 8.435082,3.905055 8.005517,4.004206 7.59456,4.099086 7.188889,3.885868 6.977264,3.4638 Z"
       id="path269" /><path
       id="path270"
       style="fill:#000000;fill-opacity:1"
       d="m -8.763339,-7.331139 c -0.009,-0.0049 -0.01643,-0.0079 -0.02228,-0.0092 -0.356711,-0.09154 -0.414036,0.155928 -0.337346,1.45458 0.04136,0.700371 0.09465,1.386477 0.118405,1.524872 0.05077,0.295766 0.221193,0.426491 0.455216,0.34907 0.173157,-0.0573 0.187114,-0.116285 0.184305,-0.780585 -7.72e-4,-0.181227 0.04657,-0.228869 0.372282,-0.377337 0.373068,-0.170019 0.372865,-0.170452 0.665059,0.09809 0.198124,0.182053 0.33988,0.262614 0.439661,0.249143 0.187161,-0.02525 0.318256,-0.231626 0.259645,-0.408726 -0.06275,-0.189602 -1.856219,-1.947125 -2.135186,-2.099558 z m 0.385257,1.24312 c 0.0223,0.01333 0.04825,0.03486 0.07751,0.06612 0.06605,0.07004 0.103575,0.154102 0.08323,0.186667 -0.0664,0.106261 -0.203312,0.06148 -0.235259,-0.07696 -0.03693,-0.159933 -0.0051,-0.223448 0.07454,-0.17584 z" /><path
       style="fill:#000000;fill-opacity:1"
       d="M 6.975048,6.240254 C 6.931158,6.156694 6.944298,6.009851 7.004218,5.91397 7.092848,5.772126 7.316905,5.733614 8.206602,5.707316 c 0.601396,-0.01778 1.117592,-0.0362 1.147106,-0.04091 0.02947,-0.0047 0.0598,-0.179107 0.0674,-0.38747 0.01605,-0.442235 0.08246,-0.576118 0.300325,-0.605546 0.299966,-0.04051 0.386155,0.249551 0.402988,1.35654 0.01835,1.205727 -0.07032,1.44312 -0.45035,1.205652 C 9.517573,7.137792 9.469782,7.025621 9.471081,6.759314 9.472028,6.567711 9.458201,6.401828 9.440371,6.390684 9.422561,6.379554 8.926522,6.386084 8.338137,6.405134 7.103634,6.445194 7.081192,6.442474 6.975039,6.240247 Z"
       id="path271" /><path
       id="path272"
       style="fill:#000000;fill-opacity:1"
       d="m -10.672848,-6.019875 c -0.09,-0.05513 -0.191933,-0.09788 -0.304693,-0.125775 -0.274772,-0.06805 -0.46326,-0.02729 -1.008861,0.219038 -0.427103,0.192831 -0.684398,0.358157 -0.708661,0.455372 -0.02094,0.08396 0.215011,0.700406 0.524342,1.36965 0.309333,0.669244 0.610951,1.250866 0.670044,1.292508 0.14207,0.09939 0.367735,0.04244 0.468112,-0.118199 0.06968,-0.111518 -0.133204,-0.788018 -0.295014,-0.983816 -0.03072,-0.03724 0.169318,-0.201917 0.444759,-0.365574 0.385785,-0.229226 0.521204,-0.355149 0.590059,-0.548372 0.173354,-0.486501 0.0099,-0.955929 -0.380103,-1.194807 z m -0.391598,0.548676 c 0.02886,0.01793 0.05626,0.04341 0.08726,0.07587 0.144408,0.152967 -0.02094,0.430789 -0.362179,0.607895 -0.295007,0.153116 -0.367669,0.122463 -0.490017,-0.205613 l -0.08969,-0.240682 0.320596,-0.136643 c 0.314291,-0.133673 0.430915,-0.164802 0.534015,-0.100791 z" /><path
       style="fill:#000000;fill-opacity:1"
       d="m -18.152307,5.277362 c -0.04121,-0.305203 0.197617,-0.386357 1.256948,-0.427133 0.587484,-0.02261 1.103392,-0.07022 1.14646,-0.105806 0.04307,-0.03558 0.06981,-0.205526 0.05943,-0.377643 -0.0266,-0.440747 0.165995,-0.646326 0.443215,-0.4731 0.193422,0.120863 0.217444,0.243769 0.244263,1.250836 0.0313,1.174634 -0.0479,1.442154 -0.382862,1.293198 -0.14583,-0.06483 -0.207738,-0.186645 -0.250962,-0.493426 l -0.05735,-0.40735 -1.081673,0.0351 c -1.103379,0.03581 -1.339658,-0.01474 -1.377462,-0.29468 z"
       id="path273" /><path
       style="fill:#000000;fill-opacity:1"
       d="M 1.252428,16.991206 C 0.955515,16.343271 0.724826,15.750266 0.73977,15.673418 0.77122,15.511945 1.109247,15.29573 1.278786,15.328703 c 0.06352,0.01233 0.36322,0.288046 0.666108,0.612599 0.302858,0.324581 0.575002,0.584524 0.604739,0.577659 0.02976,-0.0069 0.0076,-0.377469 -0.04913,-0.823546 -0.05678,-0.446082 -0.07585,-0.854875 -0.04239,-0.908429 0.110785,-0.177293 0.481353,-0.278477 0.638797,-0.174423 0.08502,0.05666 0.399478,0.645802 0.698315,1.309926 0.569642,1.265959 0.606523,1.563199 0.190485,1.535233 -0.168253,-0.01127 -0.237978,-0.08668 -0.42069,-0.45487 -0.120464,-0.242718 -0.230588,-0.422821 -0.244715,-0.400212 -0.01415,0.02264 0.0018,0.254339 0.03529,0.514963 0.06497,0.505019 -0.05412,0.76051 -0.354709,0.760927 -0.126101,2.08e-4 -0.270875,-0.105232 -0.548927,-0.399727 l -0.377698,-0.399917 0.11466,0.288274 c 0.243673,0.612592 0.261521,0.812743 0.08167,0.915927 -0.09432,0.05414 -0.234856,0.05025 -0.322724,-0.009 -0.08535,-0.05805 -0.398511,-0.635009 -0.695424,-1.282944 z"
       id="path274" /><path
       style="fill:#000000;fill-opacity:1"
       d="m -1.313093,18.204251 c -0.302425,-0.648325 -0.546703,-1.244114 -0.542847,-1.323976 0.0078,-0.16094 1.541697,-0.96251 1.76045,-0.919963 0.188855,0.03676 0.317524,0.328096 0.216357,0.489997 -0.04986,0.0798 -0.339706,0.254978 -0.644155,0.389388 l -0.553539,0.244372 0.110252,0.239002 c 0.120928,0.26211 0.06858,0.26384 0.665707,-0.02212 0.293808,-0.140707 0.409891,-0.121693 0.572252,0.09372 0.126141,0.167378 -0.05883,0.403358 -0.452178,0.576822 -0.189512,0.08361 -0.35436,0.167676 -0.366326,0.186825 -0.01198,0.01917 0.03111,0.162182 0.09575,0.317845 l 0.117505,0.283024 0.702801,-0.312744 c 0.697017,-0.310168 0.920127,-0.313316 0.989232,-0.01396 0.05554,0.240566 -0.07703,0.343895 -0.959841,0.748061 -0.634126,0.290307 -0.897151,0.367824 -1.009567,0.29752 -0.0836,-0.05228 -0.399472,-0.625528 -0.701893,-1.273839 z"
       id="path275" /><path
       id="path276"
       style="fill:#000000;fill-opacity:1"
       d="m -15.078129,7.261419 c -0.160241,-0.134797 -2.706737,-0.09628 -2.892545,0.04377 -0.162318,0.122345 -0.143693,0.437303 0.03221,0.547217 0.08799,0.05498 0.396269,0.09175 0.684937,0.08188 l 0.524984,-0.01808 0.0054,0.270275 c 0.0057,0.265695 -0.0032,0.275531 -0.556533,0.586385 -0.615018,0.345511 -0.836236,0.60333 -0.711802,0.829991 0.125339,0.228288 0.381379,0.19881 0.859003,-0.09819 l 0.431014,-0.267516 0.37963,0.255496 c 0.34742,0.233954 0.409068,0.24736 0.73534,0.152374 0.561435,-0.162968 0.712983,-0.487621 0.681394,-1.462 -0.01753,-0.54065 -0.0733,-0.837718 -0.173018,-0.921605 z m -0.538505,0.692102 c 0.02372,0.01365 0.03841,0.0299 0.03925,0.04835 0.02104,0.561019 -0.01034,0.849552 -0.09928,0.916588 -0.19778,0.149074 -0.379163,-0.0804 -0.38995,-0.493501 -0.0058,-0.222088 0.0054,-0.428989 0.02472,-0.459858 0.04806,-0.07692 0.322093,-0.07017 0.425228,-0.01154 z" /><path
       id="path277"
       style="fill:#000000;fill-opacity:1"
       d="m 5.178148,-9.4114664 c -0.317757,-0.1827551 -0.688842,0.017982 -1.045144,0.588184 -0.176453,0.282383 -0.295291,0.3779265 -0.604469,0.4875668 -0.443297,0.1572064 -0.446096,0.1608107 -0.595249,0.7127026 -0.188566,0.69762 -0.666486,1.551394 -0.968569,1.73044 -0.141933,0.08412 -0.344972,0.292676 -0.451756,0.463566 -0.14178,0.226895 -0.256938,0.320021 -0.426132,0.345516 -0.179787,0.02709 -0.253876,0.09223 -0.330993,0.289807 -0.33055,0.847058 -0.314791,0.825916 -0.643658,0.845758 -0.402909,0.02428 -0.723321,0.259783 -0.923748,0.678662 -0.125855,0.263024 -0.205014,0.343188 -0.363413,0.367044 -0.325764,0.04909 -0.502972,0.281983 -0.540146,0.709354 -0.01844,0.212282 -0.116005,0.517207 -0.216303,0.677717 -0.15595,0.249572 -0.216303,0.284638 -0.417485,0.244888 l -0.23496,-0.04624 -0.354672,0.668043 -0.354234,0.668305 -0.281875,-0.145712 c -0.266299,-0.137277 -0.289929,-0.131878 -0.418156,0.09578 -0.0919,0.163295 -0.110021,0.386557 -0.05609,0.689489 0.09927,0.557334 -0.07544,0.896246 -0.505441,0.981486 -0.286913,0.05687 -0.855508,0.493391 -1.051584,0.807177 -0.07413,0.118642 -0.145496,0.140639 -0.247802,0.07671 -0.196688,-0.122904 -0.289653,0.05865 -0.304834,0.593154 l -0.013,0.444023 -0.218615,0.0066 c -0.260943,0.0072 -0.401282,0.205593 -0.478963,0.678733 -0.04136,0.252263 -0.137152,0.449114 -0.346124,0.709939 -0.25055,0.312705 -0.282532,0.396005 -0.237399,0.623712 0.04947,0.249557 0.04053,0.268 -0.179796,0.369652 -0.127609,0.05887 -0.400218,0.09255 -0.606044,0.07466 -0.535605,-0.04657 -0.679269,0.06555 -1.191808,0.92919 -0.243772,0.410686 -0.501728,0.796517 -0.573762,0.85775 -0.07352,0.06255 -0.271394,0.07615 -0.450756,0.03094 -0.602988,-0.152037 -0.780855,-0.0146 -0.701967,0.541201 l 0.04708,0.332279 -0.292885,0.04549 c -0.655315,0.101958 -1.131438,0.639208 -1.031175,1.163613 0.08918,0.46647 0.309025,0.631661 1.061104,0.798327 0.707253,0.156733 1.111844,0.361357 1.311472,0.662904 0.104586,0.158036 0.188851,0.185692 0.536174,0.176604 0.226602,-0.0059 0.551004,0.05241 0.721043,0.129421 0.261979,0.118658 0.306934,0.171983 0.294952,0.350051 -0.02018,0.300225 -0.402984,0.698653 -0.792544,0.82463 -0.58036,0.187697 -0.954246,0.08019 -2.011574,-0.578142 -1.116963,-0.695597 -1.651092,-0.876018 -2.130782,-0.720881 -0.356856,0.1154 -0.508137,0.289451 -0.437234,0.503711 0.02569,0.07761 0.270413,0.356085 0.543773,0.618875 0.464781,0.446846 0.525677,0.484779 0.939589,0.58712 0.597466,0.147738 0.990107,0.403605 1.091225,0.711117 l 1.63e-4,7.15e-4 c 0.105759,0.321673 0.214006,0.381471 0.694465,0.384542 0.533512,0.0035 1.322529,0.469907 1.384897,0.818449 0.05102,0.283859 0.214106,0.385212 0.68603,0.426321 0.329493,0.02882 0.488596,0.106723 1.314433,0.646464 0.879949,0.575088 0.962888,0.613943 1.31536,0.614747 0.39598,9.05e-4 0.780275,-0.174056 0.938615,-0.427452 0.09213,-0.147442 0.07469,-0.161639 -0.730669,-0.59673 -0.773411,-0.417836 -0.825361,-0.458788 -0.835576,-0.653133 -0.0086,-0.163307 -0.112486,-0.281585 -0.488717,-0.555829 -0.54837,-0.399732 -0.872695,-0.920641 -0.91984,-1.477854 -0.04369,-0.516363 0.03341,-0.707125 0.312047,-0.771454 0.402325,-0.09288 0.722594,0.178689 0.877373,0.743244 l 0.132223,0.481751 0.647282,0.404466 c 0.412999,0.25807 0.716085,0.50182 0.837604,0.673291 0.522984,0.737987 1.012786,0.501156 1.165162,-0.563764 0.098,-0.685231 0.500268,-1.617288 0.803126,-1.860623 0.399398,-0.320915 0.441682,-0.477077 0.253583,-0.935338 -0.204916,-0.499192 -0.176093,-0.882656 0.07764,-1.028231 C -2.463552,10.09625 -2.355822,9.69436 -2.414877,8.716745 -2.456197,8.032706 -2.183469,7.452439 -1.738134,7.276814 -1.39511,7.141509 -1.254931,6.844078 -1.434511,6.63293 -1.642752,6.388191 -1.591001,6.061976 -1.285062,5.691634 -0.982723,5.3256 -0.981937,5.349121 -1.343102,4.176453 -1.473837,3.752068 -1.365732,3.509813 -1.094028,3.617922 -0.870382,3.706972 -0.474614,3.617203 -0.284716,3.434454 -0.167143,3.32127 -0.123741,3.14859 -0.122913,2.790319 -0.121313,2.090681 -0.050423,1.923023 0.257264,1.888381 0.666874,1.842261 0.714645,1.781117 0.667386,1.364674 0.600786,0.777685 0.715576,0.541688 1.234655,0.199407 l 0.44137,-0.290909 0.116738,-0.509604 c 0.07929,-0.345737 0.232059,-0.694155 0.474646,-1.082375 0.327082,-0.523441 0.349395,-0.59138 0.257269,-0.791061 -0.0774,-0.167803 -0.05729,-0.306017 0.08792,-0.597078 0.103921,-0.208314 0.172357,-0.47064 0.152281,-0.583061 -0.04929,-0.275514 0.183279,-0.624713 0.571185,-0.857532 0.381703,-0.229077 0.666485,-0.653272 0.649944,-0.967966 -0.0083,-0.156607 0.05091,-0.296557 0.188719,-0.446336 0.110467,-0.119983 0.267371,-0.415807 0.348541,-0.657252 0.08121,-0.241418 0.371161,-0.838507 0.644383,-1.3267043 L 5.664389,-8.7980595 5.475654,-9.1006298 c -0.0915,-0.1466776 -0.1916,-0.2499179 -0.29752,-0.3108334 z M -4.133943,5.586555 c -0.276555,0.760297 -0.785588,1.460486 -0.866792,2.297972 0.0884,0.882104 -0.51338,1.585571 -0.664109,2.422192 C -6.202466,9.883517 -6.907106,9.858845 -7.430221,9.417468 -8.053392,9.299716 -7.465081,8.922211 -7.317185,8.588082 -6.349612,8.399432 -5.336374,7.829269 -5.029481,6.832484 -4.912947,6.333365 -4.736614,5.890658 -4.2448,5.68303 l 0.03568,-0.03077 z m -4.616792,7.886727 c 0.232508,0.152362 0.260974,0.763642 -0.102791,0.841271 -0.650826,0.190455 -0.538195,-0.946219 0.102791,-0.841271 z" /><path
       style="fill:#000000;fill-opacity:1"
       d="m -3.094831,19.323778 c -0.250828,-0.541017 -0.481352,-0.998926 -0.512274,-1.017565 -0.03092,-0.01864 -0.199638,0.03318 -0.374911,0.115156 -0.32641,0.152667 -0.550846,0.0967 -0.608187,-0.151643 -0.05647,-0.244589 0.08756,-0.351334 1.045107,-0.774611 1.015229,-0.448772 1.304079,-0.456487 1.248342,-0.03337 -0.0254,0.192748 -0.07758,0.249266 -0.325169,0.352051 -0.162215,0.06734 -0.295132,0.1643 -0.295387,0.215471 -2.39e-4,0.05114 0.201337,0.519336 0.447961,1.04038 0.246632,0.52105 0.437025,1.005931 0.423102,1.077522 -0.03573,0.183796 -0.323046,0.329028 -0.46947,0.237343 -0.06772,-0.04241 -0.328277,-0.519711 -0.579114,-1.060734 z"
       id="path278" /><path
       id="path279"
       style="fill:#000000;fill-opacity:1"
       d="m -15.017967,11.482242 c -0.223955,-0.134046 -0.650461,-0.304336 -1.414178,-0.591181 -0.821019,-0.308383 -1.2578,-0.432349 -1.370338,-0.38829 -0.21527,0.08429 -0.240199,0.132368 -0.18752,0.360557 0.03422,0.14826 0.130455,0.230766 0.439492,0.375209 0.357717,0.167161 0.395629,0.20677 0.392627,0.414128 -0.0018,0.126192 -0.0014,0.322432 5.32e-4,0.436027 0.0031,0.180297 -0.03997,0.225822 -0.338595,0.357553 -0.418121,0.184435 -0.501638,0.305599 -0.390787,0.566872 0.047,0.110617 0.137346,0.211287 0.200887,0.223636 0.06354,0.01235 0.718677,-0.244844 1.456304,-0.571356 1.11335,-0.492854 1.352927,-0.629973 1.410595,-0.808313 0.04613,-0.142743 0.02489,-0.240739 -0.19904,-0.37482 z m -1.16985,0.259212 c 0.114274,0.07141 0.107709,0.09466 -0.0473,0.1703 -0.211303,0.103127 -0.281977,0.07603 -0.248563,-0.09565 0.03046,-0.156593 0.125917,-0.180902 0.295897,-0.07469 z" /><path
       style="fill:#000000;fill-opacity:1"
       d="m -6.285455,21.219752 c -0.01667,-0.317227 0.224608,-0.454557 0.498315,-0.283526 0.296834,0.185483 0.756279,0.113186 0.875253,-0.137712 0.141392,-0.298172 -0.05548,-0.406475 -0.514715,-0.283188 -0.850067,0.228257 -1.375913,0.0039 -1.479758,-0.631406 -0.07676,-0.469555 0.121063,-0.851728 0.552916,-1.068275 0.426917,-0.214043 0.728582,-0.190675 1.114874,0.08638 0.290739,0.208559 0.32294,0.262759 0.251335,0.423982 -0.104377,0.234973 -0.226073,0.2614 -0.533386,0.115747 -0.329814,-0.15633 -0.549136,-0.114425 -0.704752,0.134612 -0.185467,0.296809 0.05101,0.408292 0.637948,0.300763 0.877099,-0.160709 1.198033,-0.03599 1.362542,0.52953 0.09084,0.312302 0.07596,0.400217 -0.121159,0.715673 -0.344379,0.551121 -1.010506,0.746543 -1.61372,0.473416 C -6.22409,21.476093 -6.275109,21.41721 -6.28547,21.219721 Z"
       id="path280" /><path
       style="fill:#000000;fill-opacity:1"
       d="m -17.886909,14.266179 c 0.0074,-0.109536 0.05943,-0.233819 0.115707,-0.27624 0.05628,-0.04242 0.726451,-0.09347 1.489273,-0.113455 1.283792,-0.03362 1.393593,-0.02177 1.476342,0.159345 0.04915,0.107596 0.05755,0.26905 0.01863,0.358742 -0.05723,0.131786 -0.335016,0.171345 -1.449078,0.206234 -0.758071,0.02374 -1.442647,0.003 -1.521282,-0.04617 -0.07864,-0.04914 -0.136939,-0.178959 -0.129591,-0.288453 z"
       id="path281" /><path
       style="fill:#000000;fill-opacity:1"
       d="M -8.281571,22.160842 -8.526388,21.606789 -9.081486,21.3282 c -0.835589,-0.41931 -1.037054,-0.723844 -0.632368,-0.956036 0.134936,-0.07743 0.240302,-0.04228 0.660637,0.22037 0.351812,0.219837 0.516937,0.285992 0.556887,0.22319 0.03125,-0.0491 0.111581,-0.333497 0.17859,-0.631912 0.102477,-0.456608 0.14829,-0.551382 0.288989,-0.597972 0.09203,-0.03046 0.22759,-0.0042 0.301345,0.05823 0.149696,0.126793 0.14372,0.324368 -0.03486,1.15155 -0.110818,0.513302 -0.09819,0.626673 0.131673,1.181661 0.275346,0.664787 0.283054,0.807438 0.04784,0.885269 -0.246394,0.08153 -0.437558,-0.110431 -0.698833,-0.701759 z"
       id="path282" /><path
       style="fill:#000000;fill-opacity:1"
       d="m -17.723528,17.671562 c -0.0399,-0.07599 -0.08939,-0.603653 -0.110005,-1.17252 -0.02976,-0.821265 -0.007,-1.049437 0.110753,-1.107779 0.204405,-0.101318 2.753332,-0.19278 2.895575,-0.103897 0.160281,0.100155 0.197571,0.323446 0.08429,0.504741 -0.07152,0.114453 -0.376892,0.162087 -1.216811,0.189811 -0.61673,0.02036 -1.142399,0.07073 -1.168148,0.111934 -0.02575,0.04122 -0.03686,0.382524 -0.02468,0.758473 0.02282,0.704502 -0.04017,0.922974 -0.282204,0.978853 -0.165288,0.03816 -0.193046,0.02282 -0.288786,-0.159582 z"
       id="path283" /><path
       style="fill:#000000;fill-opacity:1"
       d="m -11.5925,23.731926 c -0.104703,-0.143959 0.124885,-0.435743 0.331877,-0.421853 0.101951,0.0069 0.263199,0.06117 0.358401,0.120657 0.348565,0.217808 0.945978,-0.187074 0.719465,-0.487604 -0.05568,-0.07394 -0.295223,-0.07116 -0.687829,0.0081 -0.696794,0.14054 -1.020256,0.05579 -1.246974,-0.326722 -0.151893,-0.25626 -0.141344,-0.741987 0.02178,-1.003034 0.144392,-0.231076 0.727272,-0.532687 1.015551,-0.525488 0.493762,0.01231 1.012034,0.476124 0.839879,0.751629 -0.08067,0.12909 -0.413321,0.141069 -0.604267,0.02175 -0.34513,-0.215661 -0.917394,0.111969 -0.6998,0.400653 0.125446,0.166471 0.105986,0.165042 0.693549,0.04991 0.707243,-0.138599 0.975903,-0.0853 1.205903,0.239256 0.234165,0.33044 0.240932,0.666324 0.02051,1.018337 -0.221026,0.35298 -0.647936,0.57994 -1.081941,0.575178 -0.301098,-0.0033 -0.731041,-0.207432 -0.886147,-0.420714 z"
       id="path284" /><path
       id="path285"
       style="fill:#000000;fill-opacity:1"
       d="m 11.570048,-19.209341 c -0.06989,-0.05193 -0.154385,-0.09175 -0.260263,-0.126665 -0.306295,-0.100009 -0.549347,-0.01842 -1.704657,0.570933 -0.431015,0.219866 -3.785481,1.876746 -6.871335,3.393967 -1.463674,0.719631 -4.632565,2.282294 -7.144277,3.522607 -2.537172,1.252882 -5.598543,2.7622072 -7.50113,3.6987489 -0.811037,0.3992296 -2.01482,0.9953071 -2.674959,1.3240961 -0.660139,0.328791 -1.504752,0.744089 -1.87679,0.923442 -2.65322,1.279076 -3.322466,1.64472 -3.482539,1.901691 -0.130125,0.208897 -0.162002,0.590995 -0.155003,1.865874 0.01234,2.248076 0.03431,6.014413 0.04242,7.264458 0.01654,2.549508 0.03791,6.194472 0.05288,9.018632 0.0089,1.680331 0.01964,3.281735 0.024,3.559017 0.0044,0.277274 0.01605,2.306396 0.02579,4.508901 0.0097,2.202497 0.02242,4.401673 0.02834,4.887089 0.0059,0.485425 0.0118,1.297701 0.01283,1.805001 0.001,0.507303 0.04435,1.049425 0.09592,1.204919 0.116388,0.350895 0.384483,0.526992 0.74307,0.488141 0.150957,-0.0164 0.985603,-0.381618 1.855271,-0.811966 2.4797,-1.227087 5.242985,-2.596045 14.101443,-6.986648 4.532945,-2.246695 9.165223,-4.540853 10.294458,-5.098176 3.996394,-1.97237 4.414314,-2.193378 4.54735,-2.406281 0.150614,-0.241032 0.139877,0.646937 0.145112,-12.183003 0.0022,-5.407286 0.0054,-10.9310765 0.0072,-12.2752828 0.01237,-9.4239032 0.01,-9.6293782 -0.128992,-9.8534812 -0.05015,-0.08086 -0.106111,-0.144248 -0.176107,-0.196005 z m -0.550381,0.79497 c 0.0081,0.05106 0.01313,1.821473 0.01127,3.934345 -0.0051,5.8461939 -0.01356,17.244261 -0.01734,23.623097 l -0.0034,5.711203 -5.591421,2.773331 c -3.075451,1.525314 -6.195567,3.069967 -6.933285,3.432646 -1.279097,0.628846 -4.61236,2.278669 -6.998467,3.463822 -0.611985,0.303977 -2.175948,1.078987 -3.475212,1.722235 -2.950831,1.460917 -4.262798,2.111969 -5.788663,2.872497 -0.659929,0.328922 -1.21512,0.602719 -1.233955,0.608519 -0.05044,0.01553 -0.06909,-0.658679 -0.07388,-2.673702 -0.0023,-0.989852 -0.0143,-3.198649 -0.02653,-4.908506 -0.02588,-3.618928 -0.03508,-5.109971 -0.07382,-12.026699 -0.03381,-6.036998 -0.05741,-9.827337 -0.06546,-10.523682 -0.0241,-2.086354 -0.0175,-3.08281 0.01997,-3.142767 0.0381,-0.06097 3.327506,-1.698572 10.79548,-5.3743618 1.130573,-0.5564753 4.605691,-2.2710452 7.722527,-3.8102372 3.116834,-1.539192 6.492029,-3.204251 7.500529,-3.699737 1.008492,-0.495492 2.369885,-1.164995 3.025298,-1.487859 0.655399,-0.322861 1.198276,-0.545182 1.206358,-0.494144 z" /><path
       id="path286"
       style="fill:#000000;fill-opacity:1;stroke-width:0.37227"
       d="m -1.102851,27.235391 c -0.02912,0.0013 -0.08849,-0.0038 -0.131919,-0.01133 -0.182282,-0.03148 -0.197117,-0.05407 -0.773851,-1.181995 -0.523434,-1.023855 -0.549938,-1.069861 -0.662234,-1.149948 -0.15294,-0.10901 -0.305839,-0.104557 -0.636345,0.01841 -0.144965,0.05395 -0.29437,0.09715 -0.332105,0.09587 -0.176486,-0.0057 -0.347499,-0.220679 -0.34364,-0.432724 10e-4,-0.05725 0.03187,-0.146846 0.0685,-0.199165 0.06074,-0.08663 0.172103,-0.14729 1.253121,-0.682198 l 1.186495,-0.587058 0.154742,0.0094 0.154719,0.0093 0.01278,-0.08364 c 0.02814,-0.184389 0.216001,-0.337183 0.410002,-0.333781 0.150524,0.0026 0.420517,0.124804 0.657166,0.297442 0.399624,0.291219 0.597002,0.367152 0.755689,0.288325 0.101371,-0.05021 0.154514,-0.249349 0.170036,-0.637245 0.0084,-0.210702 0.04585,-0.485944 0.08316,-0.611703 0.0665,-0.224147 0.07083,-0.230132 0.223871,-0.305827 0.127452,-0.06308 0.176285,-0.07114 0.266571,-0.04399 0.386757,0.116267 0.466531,0.441241 0.346426,1.411073 -0.02932,0.236945 -0.05431,0.592763 -0.05546,0.790696 l -0.0021,0.35989 0.216728,0.488284 c 0.237825,0.535852 0.262997,0.66582 0.165421,0.853312 C 2.013062,25.734826 1.746267,25.86609 1.594445,25.838847 1.367322,25.797277 1.300763,25.725024 1.029996,25.22507 0.86458,24.919784 0.749164,24.736963 0.683208,24.67575 0.48142,24.488578 -0.003341,24.167624 -0.640616,23.799126 c -0.143913,-0.08285 -0.274054,-0.164173 -0.289722,-0.179883 -0.02052,-0.0199 -0.04436,-0.0015 -0.08404,0.06585 -0.04256,0.07245 -0.127096,0.134932 -0.360964,0.26707 -0.221861,0.12529 -0.319213,0.196054 -0.355989,0.258694 -0.02779,0.04749 -0.05155,0.09023 -0.05275,0.09517 -0.0012,0.0051 0.25174,0.54016 0.562038,1.189266 0.51067,1.068352 0.563715,1.191576 0.559407,1.299667 -0.0077,0.190994 -0.249044,0.432956 -0.439992,0.441049 z m 4.630312,-2.329029 c -0.108331,0.0035 -0.168637,-0.018 -0.256568,-0.09205 C 3.164372,24.724642 3.108988,24.623997 2.513715,23.440601 1.953719,22.32717 1.868279,22.143424 1.849161,22.004327 c -0.02999,-0.21452 4e-5,-0.334449 0.127979,-0.5114 l 0.10758,-0.148708 0.861649,-0.437965 c 0.830974,-0.421652 0.868522,-0.436902 1.033731,-0.446645 0.163326,-0.0087 0.236618,0.02319 0.377305,0.163719 0.02741,0.02774 0.03336,0.02097 0.02678,-0.03079 -0.01929,-0.150738 10e-4,-0.251053 0.07346,-0.363072 0.103594,-0.160124 0.367496,-0.278565 0.553923,-0.248707 0.251163,0.04032 0.249479,0.03776 0.969467,1.469597 0.715206,1.421349 0.762018,1.540382 0.701262,1.767745 -0.09398,0.351886 -0.542562,0.493411 -0.823005,0.25966 -0.117777,-0.09812 -0.137359,-0.133706 -0.4627,-0.8409 -0.400258,-0.87005 -1.0138,-2.03273 -0.991685,-1.878836 0.03969,0.274376 -0.04373,0.35571 -0.695539,0.678217 -0.573412,0.283719 -0.704242,0.378514 -0.736877,0.533878 -0.02901,0.138182 0.06906,0.324754 0.189896,0.361276 0.15979,0.0482 0.267067,0.017 0.732955,-0.213517 0.479132,-0.237072 0.593409,-0.267486 0.757361,-0.201344 0.06474,0.02643 0.105428,0.07295 0.160754,0.190893 0.06212,0.130911 0.06822,0.17586 0.03574,0.279053 -0.05509,0.175314 -0.153099,0.24916 -0.672397,0.506273 -0.494063,0.244663 -0.578778,0.313136 -0.587599,0.475928 -0.0028,0.05153 0.07405,0.253807 0.210573,0.554812 0.242227,0.53372 0.258749,0.631976 0.133357,0.790825 -0.0969,0.122774 -0.230145,0.18564 -0.406099,0.19111 z m 4.571557,-2.281066 c -0.26985,-0.0232 -0.386894,-0.122024 -1.996482,-1.686725 -0.675221,-0.656334 -0.79303,-0.842679 -0.718603,-1.136683 0.03109,-0.122877 0.05242,-0.148107 0.193037,-0.228874 0.278937,-0.160151 0.394309,-0.111619 0.834662,0.351058 0.970333,1.019598 0.979683,1.027409 1.137147,0.949493 0.157461,-0.07791 0.15697,-0.09003 -0.06491,-1.48002 -0.100687,-0.630773 -0.06926,-0.751919 0.227285,-0.87648 0.149527,-0.0628 0.182547,-0.06441 0.299046,-0.01462 0.278999,0.118916 0.35552,0.325921 0.467671,1.260845 0.267998,2.234505 0.27569,2.398748 0.122837,2.622521 -0.110077,0.161062 -0.308998,0.256065 -0.501658,0.239564 z m -15.591232,7.80039 c -0.391466,0.127062 -0.712563,0.08626 -0.858906,-0.109252 -0.03505,-0.04666 -0.342735,-0.658915 -0.683924,-1.360459 -0.679514,-1.397229 -0.662607,-1.34919 -0.567853,-1.607345 0.09082,-0.24757 0.148199,-0.2888 1.020524,-0.733407 0.440061,-0.224673 0.885771,-0.453929 0.990145,-0.510093 0.182715,-0.09832 0.194732,-0.0998 0.317819,-0.05062 0.107057,0.04331 0.139914,0.07564 0.200812,0.199534 0.09204,0.187339 0.09152,0.298448 -0.002,0.422346 -0.06399,0.08485 -0.161336,0.141401 -0.718115,0.41686 -0.519152,0.256897 -0.655949,0.334957 -0.705508,0.402132 -0.07573,0.102884 -0.08042,0.191408 -0.01709,0.319407 0.124443,0.251524 0.191795,0.24432 0.87509,-0.09351 0.581212,-0.287383 0.721358,-0.332208 0.897027,-0.28714 0.09587,0.02465 0.120628,0.04896 0.183895,0.179884 0.09061,0.187884 0.07873,0.317246 -0.04137,0.451235 -0.07032,0.07859 -0.200882,0.15519 -0.60467,0.355091 -0.283204,0.140233 -0.555527,0.291346 -0.605184,0.335808 -0.127885,0.11457 -0.148911,0.253027 -0.06445,0.423805 0.08468,0.171112 0.199497,0.259451 0.323814,0.249036 0.05692,-0.0048 0.365531,-0.137985 0.776461,-0.335285 0.600655,-0.288593 0.697899,-0.327387 0.815525,-0.327172 0.176932,3.06e-4 0.293495,0.08741 0.352563,0.2637 0.1157,0.345371 -0.115699,0.557962 -1.163038,1.068563 -0.311571,0.152094 -0.636335,0.298903 -0.721568,0.3265 z M 10.49305,21.521483 c -0.275461,0.09046 -0.540216,0.0877 -0.703757,-0.0074 L 9.655917,21.436633 9.011929,20.135078 8.36795,18.833516 8.37055,18.65637 c 0.0055,-0.368137 0.174115,-0.532297 0.8678,-0.844806 0.321499,-0.144852 0.639923,-0.31028 0.88556,-0.460522 0.421616,-0.257494 0.507061,-0.284192 0.647181,-0.201859 0.190326,0.111854 0.299,0.419347 0.204912,0.579704 -0.04278,0.07279 -0.151731,0.137993 -0.756957,0.452397 l -0.707114,0.367439 -0.03944,0.117069 c -0.03155,0.09372 -0.02681,0.142803 0.0243,0.245987 0.05259,0.106205 0.08369,0.134012 0.176759,0.157972 0.111345,0.02854 0.12136,0.02478 0.683591,-0.253124 0.609617,-0.301425 0.760183,-0.349762 0.919931,-0.295822 0.135931,0.04591 0.261992,0.289258 0.229593,0.443236 -0.03932,0.187107 -0.07702,0.216364 -0.709624,0.550331 -0.649617,0.342864 -0.718754,0.397758 -0.721867,0.57197 -0.0034,0.187793 0.150046,0.392151 0.325912,0.434029 0.05378,0.01273 0.22524,-0.05723 0.799092,-0.326404 0.619861,-0.29086 0.748144,-0.342237 0.846423,-0.33903 0.153186,0.005 0.267166,0.07591 0.331417,0.205913 0.122077,0.246733 0.01851,0.462829 -0.334818,0.69862 -0.243065,0.162249 -1.288596,0.67634 -1.550351,0.762362 z m -24.568148,12.102539 c -0.06785,1.71e-4 -0.16585,-0.03536 -0.235401,-0.08495 -0.115519,-0.08162 -0.137828,-0.121382 -0.665144,-1.152945 -0.494729,-0.967676 -0.55432,-1.072763 -0.635342,-1.120325 -0.131328,-0.07617 -0.297431,-0.08067 -0.48487,-0.01125 -0.398188,0.147578 -0.429117,0.153851 -0.549918,0.113069 -0.103433,-0.0348 -0.130606,-0.06263 -0.198856,-0.200198 -0.06817,-0.137872 -0.07346,-0.176167 -0.03847,-0.279719 0.06892,-0.203927 0.150718,-0.254409 1.371568,-0.847333 1.084593,-0.527191 1.131351,-0.54678 1.25598,-0.537425 l 0.129344,0.0097 0.05703,-0.116738 c 0.08387,-0.171696 0.294967,-0.291471 0.470871,-0.267163 0.193031,0.02664 0.325874,0.137005 0.684551,0.568585 0.581205,0.699302 0.705606,0.811362 0.831551,0.749043 0.101405,-0.05019 0.08495,-0.193776 -0.08991,-0.784735 -0.184077,-0.622201 -0.224947,-0.820394 -0.200521,-0.972397 0.03707,-0.230726 0.283401,-0.414965 0.513469,-0.38405 0.184265,0.0247 0.347286,0.16536 0.640935,0.553227 0.143826,0.189985 0.309954,0.408422 0.369126,0.485523 0.225667,0.294106 0.385423,0.381834 0.472667,0.259626 0.04634,-0.06491 0.0053,-0.3502 -0.153633,-1.067997 -0.05792,-0.261476 -0.105046,-0.549056 -0.10475,-0.639066 9.68e-4,-0.295168 0.175648,-0.469125 0.473691,-0.471686 0.351468,-0.003 0.503769,0.262199 0.619402,1.07887 0.0384,0.271138 0.128752,0.891055 0.200796,1.37764 0.07204,0.486571 0.12856,0.962206 0.125608,1.057007 -0.0061,0.196511 -0.118978,0.399094 -0.261634,0.469672 -0.104028,0.0515 -0.305703,0.07029 -0.419715,0.03928 -0.133565,-0.03641 -0.348432,-0.239893 -0.609369,-0.577299 -0.508008,-0.656806 -0.594162,-0.731029 -0.722156,-0.622021 -0.07506,0.06382 -0.06622,0.202265 0.03947,0.617941 0.136933,0.538559 0.199003,0.846456 0.19767,0.980592 -0.0042,0.425558 -0.470734,0.621992 -0.846222,0.356219 -0.137387,-0.09764 -0.557625,-0.521299 -1.594255,-1.608949 -0.445082,-0.466976 -0.488819,-0.504954 -0.532223,-0.46221 -0.02602,0.0256 -0.176726,0.120795 -0.334953,0.211442 -0.158233,0.09065 -0.309032,0.196377 -0.335137,0.234861 -0.09972,0.146756 -0.07353,0.218506 0.506267,1.390347 0.616517,1.246043 0.617841,1.250266 0.460331,1.442983 -0.114559,0.140101 -0.253481,0.2126 -0.407787,0.213154 z m 8.960819,-4.403653 c -0.121844,0.0051 -0.226779,-0.03051 -0.314832,-0.107229 -0.07956,-0.06917 -0.196321,-0.288786 -0.768502,-1.445571 -0.450255,-0.910289 -0.682841,-1.40669 -0.699179,-1.492201 -0.0303,-0.158714 0.04913,-0.383605 0.166743,-0.472072 0.04854,-0.03641 0.163044,-0.08299 0.253985,-0.104155 0.228466,-0.05201 0.482199,0.04202 1.025392,0.380197 0.978741,0.610406 1.083569,0.661877 1.182433,0.594204 0.111778,-0.07668 0.05858,-0.243863 -0.244808,-0.7692 -0.353928,-0.612788 -0.408595,-0.834814 -0.25507,-1.029524 0.145267,-0.184035 0.379444,-0.225442 0.578025,-0.102381 l 0.115033,0.07107 0.705871,1.426623 0.705864,1.42663 -0.0096,0.157822 c -0.01924,0.317979 -0.256297,0.487135 -0.616707,0.440146 -0.196625,-0.0257 -0.426101,-0.146983 -1.155816,-0.611627 -0.52945,-0.336732 -0.714152,-0.435639 -0.843435,-0.451451 -0.09616,-0.01162 -0.09945,-0.0093 -0.120178,0.08286 -0.02026,0.09028 -0.0041,0.12712 0.335653,0.765945 0.321596,0.604565 0.357232,0.683776 0.359079,0.798531 0.0032,0.197454 -0.210413,0.433217 -0.399925,0.441217 z" /><circle
       style="fill:#1a1a1a;fill-opacity:1;stroke-width:1"
       id="circle286"
       cx="-0.45476404"
       cy="-26.416269"
       r="0.49833623"
       transform="rotate(32)" /></g></svg>
