<?xml version="1.0" encoding="UTF-8" standalone="no"?>
<!-- Created with Inkscape (http://www.inkscape.org/) -->

<svg
   width="210mm"
   height="297mm"
   viewBox="0 0 210 297"
   version="1.1"
   id="svg1"
   inkscape:version="1.3.2 (091e20e, 2023-11-25, custom)"
   sodipodi:docname="MadoneSpacer.svg"
   xmlns:inkscape="http://www.inkscape.org/namespaces/inkscape"
   xmlns:sodipodi="http://sodipodi.sourceforge.net/DTD/sodipodi-0.dtd"
   xmlns="http://www.w3.org/2000/svg"
   xmlns:svg="http://www.w3.org/2000/svg">
  <sodipodi:namedview
     id="namedview1"
     pagecolor="#ffffff"
     bordercolor="#000000"
     borderopacity="0.25"
     inkscape:showpageshadow="2"
     inkscape:pageopacity="0.0"
     inkscape:pagecheckerboard="0"
     inkscape:deskcolor="#d1d1d1"
     inkscape:document-units="mm"
     inkscape:zoom="256"
     inkscape:cx="63.886719"
     inkscape:cy="1123.4277"
     inkscape:window-width="1920"
     inkscape:window-height="991"
     inkscape:window-x="-9"
     inkscape:window-y="-9"
     inkscape:window-maximized="1"
     inkscape:current-layer="layer1" />
  <defs
     id="defs1" />
  <g
     inkscape:label="Layer 1"
     inkscape:groupmode="layer"
     id="layer1">
    <path
       id="path6-8"
       style="fill:#00ffff;stroke:#c552b0;stroke-width:0.5;stroke-dasharray:none;stroke-opacity:0.559809"
       d="m -0.037642,269.06778 c -3.86785,0.008 -5.97349,0.061 -7.8021098,0.99787 -0.95733,0.35367 -1.72278,0.80957 -2.2458602,1.38907 -1.79692,1.99076 -1.50793,2.64469 -2.49856,5.22245 -1.88396,4.90245 -3.06857,10.786 -3.36568,12.92074 -0.18827,1.35265 -0.329,2.55972 -0.44442,3.68145 -0.33988,2.57403 -0.41414,4.20361 -0.36328,5.6772 -0.0427,2.75411 0.18035,3.95534 0.18035,3.95534 5e-5,12.1602 7.2863902,22.01798 16.27445,22.0179 0.10167,10e-6 0.20167,-0.008 0.302830000135,-0.0103 C 0.101178,324.9215 0.201298,324.9298 0.302898,324.9298 c 8.98806,8e-5 16.27441,-9.8577 16.27446,-22.0179 0,0 0.22307,-1.20123 0.18035,-3.95534 0.0508,-1.47302 -0.0238,-3.10184 -0.36328,-5.6741 -0.11547,-1.12261 -0.25597,-2.33057 -0.44442,-3.68455 -0.29711,-2.13474 -1.4817,-8.01829 -3.36569,-12.92074 -0.99063,-2.57776 -0.70215,-3.23169 -2.49907,-5.22245 -0.52306,-0.57947 -1.28807,-1.0354 -2.24534,-1.38907 -1.82862,-0.93685 -3.93426,-0.98994 -7.80211,-0.99787 -0.0129,-3e-5 -0.0248,5.3e-4 -0.03769999987,5.2e-4 C -0.012802,269.06831 -0.024702,269.06775 -0.037602,269.06778 Z m -3.0639,10.41906 c 1.08668,-0.004 2.14792,0.005 3.101620000135,0.006 C 3.833938,279.49084 9.507438,279.35758 10.805618,280.42559 c 0.16015,0.0717 0.30887,0.14731 0.43253,0.23048 0.68091,0.76156 1.93761,5.33942 3.13211,14.83846 0,7.46906 -6.18844,14.99865 -14.23427,14.99865 -0.0456,0 -0.0904,-0.004 -0.135909999865,-0.004 C -0.045522,310.48971 -0.090622,310.49318 -0.136352,310.49318 c -8.0458298,0 -14.23375,-7.52959 -14.23375,-14.99865 1.1945,-9.49904 2.4512,-14.0769 3.13211,-14.83846 0.12353,-0.0831 0.27203,-0.15879 0.43201,-0.23048 0.9750402,-0.80244 4.42246,-0.92731 7.70444,-0.93844 z M 9.641868,310.204 c 0.9122,0.003 1.43609,0.61668 1.43609,2.42673 0,5.58113 -4.87744,9.04706 -10.89391,9.04706 -0.0617,0 -0.12253,-0.002 -0.183969999865,-0.003 C -0.061422,321.67551 -0.122202,321.67779 -0.183892,321.67779 c -6.01647,0 -10.89391,-3.46593 -10.89391,-9.04706 0,-1.74407 0.48552,-2.37763 1.3368702,-2.42466 0.091,-0.005 0.18712,-0.003 0.28629,0.005 1.7916,-0.14435 5.3268998,2.58572 9.454719800135,2.62467 C 4.127818,312.79684 7.662658,310.06681 9.454278,310.21107 c 0.0642,-0.005 0.12677,-0.007 0.18759,-0.007 z" />
  </g>
</svg>
