<?xml version="1.0" encoding="UTF-8" standalone="no"?>
<!-- Created with Inkscape (http://www.inkscape.org/) -->

<svg
   width="210mm"
   height="297mm"
   viewBox="0 0 210 297"
   version="1.1"
   id="svg1"
   inkscape:version="1.3.2 (091e20e, 2023-11-25, custom)"
   sodipodi:docname="MadoneSpacer.svg"
   xmlns:inkscape="http://www.inkscape.org/namespaces/inkscape"
   xmlns:sodipodi="http://sodipodi.sourceforge.net/DTD/sodipodi-0.dtd"
   xmlns="http://www.w3.org/2000/svg"
   xmlns:svg="http://www.w3.org/2000/svg">
  <sodipodi:namedview
     id="namedview1"
     pagecolor="#ffffff"
     bordercolor="#000000"
     borderopacity="0.25"
     inkscape:showpageshadow="2"
     inkscape:pageopacity="0.0"
     inkscape:pagecheckerboard="0"
     inkscape:deskcolor="#d1d1d1"
     inkscape:document-units="mm"
     inkscape:zoom="8"
     inkscape:cx="-5.0625"
     inkscape:cy="1207.1875"
     inkscape:window-width="1920"
     inkscape:window-height="991"
     inkscape:window-x="-9"
     inkscape:window-y="-9"
     inkscape:window-maximized="1"
     inkscape:current-layer="layer1"
     showgrid="false" />
  <defs
     id="defs1" />
  <g
     inkscape:label="Layer 1"
     inkscape:groupmode="layer"
     id="layer1">
    <path
       id="path6-8"
       style="fill:#00ffff;stroke:none;stroke-width:0.5;stroke-dasharray:none;stroke-opacity:0.559809"
       d="M -0.037723796 269.06781 C -3.9055582 269.07581 -6.0112193 269.12882 -7.8398315 270.06569 C -8.7971579 270.41936 -9.562612 270.87525 -10.085689 271.45475 C -11.882601 273.44551 -11.593619 274.09941 -12.584245 276.67717 C -14.468197 281.57958 -15.652821 287.46309 -15.949931 289.59783 C -16.138201 290.95048 -16.278928 292.15753 -16.394348 293.27926 C -16.734228 295.85325 -16.808493 297.48284 -16.757633 298.95643 C -16.800333 301.71054 -16.577283 302.91174 -16.577283 302.91174 C -16.577233 315.0719 -9.2908477 324.93012 -0.30282389 324.93004 C -0.20115429 324.93005 -0.1011596 324.922 0 324.9197 C 0.1010996 324.9217 0.20122429 324.93004 0.30282389 324.93004 C 9.2908479 324.93012 16.577233 315.0719 16.577283 302.91174 C 16.577283 302.91174 16.800353 301.71054 16.757633 298.95643 C 16.808433 297.48341 16.733828 295.85458 16.394348 293.28236 C 16.278878 292.15975 16.138381 290.95181 15.949931 289.59783 C 15.652821 287.46309 14.468227 281.57958 12.584245 276.67717 C 11.593619 274.09941 11.882085 273.44551 10.085173 271.45475 C 9.562113 270.87528 8.7970979 270.41936 7.8398315 270.06569 C 6.0112191 269.12884 3.9055582 269.07574 0.037723796 269.06781 C 0.024823844 269.06778 0.012899948 269.06834 0 269.06833 C -0.012899948 269.06834 -0.024823844 269.06778 -0.037723796 269.06781 z M 0.94257812 271.50436 L 8.4930216 271.50436 L 8.5080078 271.50539 C 8.5193603 271.50531 8.5304294 271.50692 8.5415975 271.50798 C 8.5659175 271.50893 8.5902207 271.51019 8.6139445 271.51314 C 8.6149631 271.51323 8.6160353 271.51305 8.6170451 271.51314 L 8.6175618 271.51314 C 8.6195944 271.5134 8.6217359 271.51338 8.623763 271.51366 C 8.6801078 271.52 8.7358949 271.52891 8.7891276 271.54363 L 8.7896444 271.54363 C 8.8032864 271.54696 8.8168636 271.55262 8.8304687 271.55655 C 8.832897 271.55734 8.8352649 271.5584 8.8377035 271.55913 C 8.8417948 271.56013 8.8459641 271.56156 8.8501058 271.56275 C 8.8583841 271.56515 8.8666851 271.56712 8.8749105 271.56999 C 8.8764894 271.57055 8.8779879 271.57147 8.8795614 271.57205 C 8.8900075 271.57595 8.9002072 271.58111 8.9105672 271.58549 C 8.929754 271.5933 8.9489858 271.60089 8.9679281 271.61029 C 8.9760855 271.61379 8.9842796 271.61673 8.992216 271.62115 L 8.9927327 271.62115 C 9.020141 271.63494 9.0468179 271.6501 9.0728312 271.66611 L 9.073348 271.66662 C 9.1331032 271.70352 9.1890862 271.74626 9.2402629 271.79375 C 9.2858119 271.83597 9.3266422 271.88323 9.3642863 271.93276 C 9.4112225 271.99458 9.4529416 272.06032 9.4857259 272.13171 L 9.4862427 272.13223 C 9.5156915 272.19645 9.53854 272.26438 9.5549723 272.3348 L 10.816911 276.08496 L 11.162626 277.11177 L 11.162626 277.11228 C 11.186311 277.18273 11.204212 277.2534 11.21637 277.32312 L 11.21637 277.32364 C 11.228486 277.39339 11.23486 277.46244 11.236007 277.52983 L 11.236007 277.53035 C 11.237128 277.59771 11.233411 277.66337 11.224121 277.72672 L 11.224121 277.72723 C 11.21536 277.78721 11.200906 277.84391 11.183297 277.8988 C 11.182236 277.9021 11.181803 277.90585 11.180713 277.90913 L 11.180713 277.90965 C 11.179741 277.91257 11.178095 277.91501 11.177096 277.91792 C 11.158753 277.97135 11.136344 278.02186 11.109916 278.06882 C 11.108334 278.07162 11.106878 278.0743 11.105265 278.07708 C 11.077877 278.12447 11.046488 278.16814 11.011214 278.20731 C 11.010806 278.20776 11.01059 278.2084 11.010181 278.20886 L 11.009664 278.20937 C 10.974853 278.24775 10.935875 278.28113 10.893909 278.31014 C 10.887646 278.31447 10.881207 278.31844 10.874788 278.32255 C 10.832193 278.34979 10.787473 278.37371 10.738363 278.39024 C 10.738042 278.39035 10.737653 278.39013 10.737329 278.39024 C 10.610769 278.43258 10.478314 278.43121 10.349239 278.39489 L 9.2759196 278.4073 L 9.2676514 278.40781 L 9.2650675 278.4073 L 9.2428467 278.40781 L 0.94257812 277.60579 L 0.94257812 271.50436 z M -8.4935384 271.50487 L -0.94257812 271.50487 L -0.94257812 277.60579 L -9.2428467 278.40781 L -9.2650675 278.4073 L -9.2676514 278.40781 L -9.2759196 278.4073 L -10.349239 278.39489 C -10.478197 278.4311 -10.610895 278.43247 -10.737329 278.39024 C -10.737651 278.39013 -10.73804 278.39035 -10.738363 278.39024 C -10.788721 278.37329 -10.834384 278.34868 -10.877889 278.32048 C -10.882313 278.31761 -10.886975 278.31519 -10.891325 278.31221 C -10.933804 278.28316 -10.97291 278.24952 -11.008114 278.21093 C -11.008775 278.2102 -11.009521 278.20959 -11.010181 278.20886 C -11.011564 278.20733 -11.012426 278.20524 -11.013798 278.20369 C -11.048424 278.16474 -11.07938 278.12196 -11.106299 278.07502 C -11.107431 278.07305 -11.108795 278.0713 -11.109916 278.06933 C -11.136229 278.02257 -11.158285 277.97215 -11.176579 277.91895 C -11.177711 277.91566 -11.179613 277.91297 -11.180713 277.90965 L -11.180713 277.90913 C -11.181907 277.90555 -11.182139 277.90138 -11.183297 277.89777 C -11.200672 277.84332 -11.215435 277.78667 -11.224121 277.72723 L -11.224121 277.72672 C -11.233418 277.66331 -11.23714 277.59772 -11.236007 277.53035 L -11.236007 277.52983 C -11.234907 277.46243 -11.228509 277.39339 -11.21637 277.32364 L -11.21637 277.32312 C -11.204208 277.25342 -11.186307 277.18273 -11.162626 277.11228 L -11.162626 277.11177 L -10.816911 276.08496 L -9.5554891 272.33531 L -9.5549723 272.3348 C -9.5469258 272.30031 -9.5326421 272.26867 -9.5213826 272.23558 C -9.4925901 272.15096 -9.4544354 272.07136 -9.406661 271.99787 C -9.3965758 271.98238 -9.3896058 271.96473 -9.3787557 271.94981 C -9.2965456 271.83661 -9.1928474 271.7404 -9.073348 271.66662 L -9.0728312 271.66611 C -9.0468163 271.65007 -9.0201389 271.63492 -8.9927327 271.62115 L -8.992216 271.62115 C -8.9879802 271.61887 -8.9836177 271.61727 -8.9792969 271.61546 C -8.9787555 271.61523 -8.9782738 271.61466 -8.9777466 271.61443 C -8.9762071 271.61364 -8.9746377 271.61314 -8.9730957 271.61236 C -8.9703158 271.61119 -8.9676183 271.61011 -8.9648275 271.60874 C -8.9365529 271.59505 -8.9082549 271.58224 -8.8795614 271.57154 C -8.8782166 271.57104 -8.8767742 271.57098 -8.8754272 271.5705 L -8.8749105 271.56999 C -8.8723211 271.56906 -8.8697666 271.56827 -8.867159 271.5674 C -8.8574157 271.56424 -8.8474417 271.56156 -8.8377035 271.55862 C -8.8352708 271.55789 -8.8328986 271.5568 -8.8304687 271.55603 C -8.8168638 271.55203 -8.8032835 271.54732 -8.7896444 271.54363 L -8.7891276 271.54363 C -8.7358955 271.52891 -8.6801093 271.52004 -8.623763 271.51366 C -8.6217378 271.51339 -8.6195944 271.5134 -8.6175618 271.51314 C -8.6065762 271.51178 -8.595113 271.512 -8.5839722 271.51108 C -8.5588657 271.50915 -8.5340261 271.50524 -8.5085246 271.50539 L -8.5080078 271.50539 C -8.5030323 271.50563 -8.4985761 271.50472 -8.4935384 271.50487 z M -3.1016195 279.48682 C -2.9745209 279.48635 -2.8651222 279.48747 -2.7388509 279.48733 A 16.319263 16.319265 0 0 0 -12.737207 285.40273 C -12.137942 282.61929 -11.603887 281.0654 -11.238074 280.65625 C -11.114544 280.57315 -10.966039 280.49747 -10.806059 280.42578 C -9.8310216 279.62334 -6.3835863 279.49846 -3.1016195 279.48733 L -3.1016195 279.48682 z M 3.1233236 279.48785 C 6.3972478 279.49959 9.8319109 279.62477 10.805542 280.42578 C 10.965692 280.49748 11.114414 280.57308 11.238074 280.65625 C 11.601112 281.0623 12.130068 282.59338 12.723771 285.33659 A 16.319263 16.319265 0 0 0 2.8587402 279.48837 C 2.9508718 279.48853 3.0308765 279.48752 3.1233236 279.48785 z M 0 281.19679 A 14.353645 14.353645 0 0 1 13.944368 292.33668 C 14.069728 293.20866 14.195133 294.14428 14.320056 295.12204 A 14.353645 14.353645 0 0 1 14.353646 295.55044 A 14.353645 14.353645 0 0 1 14.184664 297.73893 C 14.166996 297.84801 14.146938 297.95678 14.126786 298.06553 A 14.353645 14.353645 0 0 1 14.077177 298.33424 C 13.892465 299.23749 13.624186 300.12743 13.277743 300.98938 C 13.12772 301.36263 12.955713 301.72731 12.777515 302.08905 A 14.353645 14.353645 0 0 1 0 309.90408 A 14.353645 14.353645 0 0 1 -12.783716 302.07665 C -12.79138 302.06106 -12.79729 302.04473 -12.804903 302.02911 A 14.353645 14.353645 0 0 1 -13.507703 300.33206 C -13.571807 300.14961 -13.642248 299.96922 -13.699422 299.7848 A 14.353645 14.353645 0 0 1 -14.167611 297.83505 C -14.171277 297.81333 -14.175412 297.79167 -14.178979 297.76994 A 14.353645 14.353645 0 0 1 -14.353646 295.55044 A 14.353645 14.353645 0 0 1 -14.320056 295.12204 C -14.195039 294.14355 -14.069305 293.20718 -13.943852 292.33461 A 14.353645 14.353645 0 0 1 0 281.19679 z M 9.6417887 310.2038 C 10.553985 310.2068 11.077877 310.82048 11.077877 312.63053 C 11.077877 318.21162 6.2004141 321.67804 0.1839681 321.67804 C 0.12226834 321.67804 0.061439755 321.67594 0 321.67494 C -0.061499756 321.67566 -0.12227834 321.67804 -0.1839681 321.67804 C -6.2004141 321.67804 -11.077877 318.21162 -11.077877 312.63053 C -11.077877 310.88646 -10.592354 310.2529 -9.7410075 310.20587 C -9.6500079 310.20087 -9.5538897 310.20304 -9.4547201 310.21104 C -7.6631269 310.06669 -4.1278036 312.79674 0 312.83569 C 4.1277236 312.79679 7.6625905 310.06678 9.4542033 310.21104 C 9.5184029 310.20604 9.5809691 310.20432 9.6417887 310.20432 L 9.6417887 310.2038 z " />
  </g>
</svg>
