<?xml version="1.0" encoding="UTF-8" standalone="no"?>
<!-- Created with Inkscape (http://www.inkscape.org/) -->

<svg
   width="210mm"
   height="297mm"
   viewBox="0 0 210 297"
   version="1.1"
   id="svg1"
   inkscape:version="1.3 (0e150ed6c4, 2023-07-21)"
   sodipodi:docname="MadoneSpacerTop.svg"
   xml:space="preserve"
   xmlns:inkscape="http://www.inkscape.org/namespaces/inkscape"
   xmlns:sodipodi="http://sodipodi.sourceforge.net/DTD/sodipodi-0.dtd"
   xmlns="http://www.w3.org/2000/svg"
   xmlns:svg="http://www.w3.org/2000/svg"><sodipodi:namedview
     id="namedview1"
     pagecolor="#ffffff"
     bordercolor="#000000"
     borderopacity="0.25"
     inkscape:showpageshadow="2"
     inkscape:pageopacity="0.0"
     inkscape:pagecheckerboard="0"
     inkscape:deskcolor="#d1d1d1"
     inkscape:document-units="mm"
     inkscape:zoom="8"
     inkscape:cx="-5.0625"
     inkscape:cy="1127.1875"
     inkscape:window-width="3840"
     inkscape:window-height="2054"
     inkscape:window-x="3829"
     inkscape:window-y="-11"
     inkscape:window-maximized="1"
     inkscape:current-layer="layer1"
     showgrid="false" /><defs
     id="defs1" /><g
     inkscape:label="Layer 1"
     inkscape:groupmode="layer"
     id="layer1"><path
       id="path6-8"
       style="fill:#00ffff;stroke:none;stroke-width:0.5;stroke-dasharray:none;stroke-opacity:0.559809"
       d="M -0.70745036 269.68586 C -4.5752653 269.69386 -6.6809553 269.74686 -8.5095581 270.68374 C -9.4668799 271.03741 -10.232342 271.4933 -10.755416 272.0728 C -12.552318 274.06356 -12.26335 274.71746 -13.253971 277.29522 C -15.137913 282.19758 -16.322548 288.08114 -16.619657 290.21588 C -16.807927 291.56853 -16.948655 292.77558 -17.064075 293.89731 C -17.403954 296.47125 -17.47822 298.10089 -17.42736 299.57448 C -17.47006 302.32859 -17.247009 303.52979 -17.247009 303.52979 C -17.246987 308.84984 -15.852101 313.72905 -13.53044 317.53514 C -13.530363 317.53527 -13.530517 317.53553 -13.53044 317.53566 C -10.545446 322.42898 -6.0281594 325.54813 -0.97255046 325.54809 C -0.87088136 325.5481 -0.77088566 325.54005 -0.66972656 325.53775 C -0.56862746 325.53975 -0.46850177 325.54809 -0.36690267 325.54809 C 4.6887066 325.54813 9.2059928 322.42898 12.190987 317.53566 C 12.191064 317.53553 12.19091 317.53527 12.190987 317.53514 C 14.512648 313.72905 15.907534 308.84984 15.907556 303.52979 C 15.907556 303.52979 16.130627 302.32859 16.087907 299.57448 C 16.138707 298.10146 16.064106 296.47258 15.724622 293.90041 C 15.609152 292.7778 15.468654 291.56986 15.280204 290.21588 C 15.020233 288.34798 14.080778 283.61009 12.587862 279.17056 C 12.374588 278.53633 12.150016 277.90802 11.914518 277.29522 C 10.923897 274.71746 11.212348 274.06356 9.415446 272.0728 C 8.8923865 271.49333 8.1273704 271.03741 7.170105 270.68374 C 5.341502 269.74689 3.2358122 269.69379 -0.63200277 269.68586 C -0.64490275 269.68583 -0.65682658 269.68639 -0.66972656 269.68638 C -0.68262645 269.68639 -0.69455037 269.68583 -0.70745036 269.68586 z M -0.66972656 281.81484 A 14.353645 14.353645 0 0 1 13.274642 292.95473 C 13.400002 293.82671 13.525407 294.76233 13.65033 295.74009 A 14.353645 14.353645 0 0 1 13.683919 296.16849 A 14.353645 14.353645 0 0 1 13.514937 298.35698 C 13.497267 298.46606 13.47721 298.57483 13.45706 298.68358 A 14.353645 14.353645 0 0 1 13.40745 298.95229 C 13.222739 299.85554 12.954459 300.74548 12.608016 301.60743 C 12.457993 301.98068 12.285986 302.34536 12.107788 302.7071 A 14.353645 14.353645 0 0 1 -0.66972656 310.52213 A 14.353645 14.353645 0 0 1 -13.453442 302.6947 C -13.461142 302.6791 -13.46701 302.66276 -13.47463 302.64716 A 14.353645 14.353645 0 0 1 -14.177429 300.95011 C -14.241529 300.76766 -14.311975 300.58727 -14.369149 300.40285 A 14.353645 14.353645 0 0 1 -14.837337 298.4531 C -14.841037 298.4314 -14.845136 298.40969 -14.848706 298.38799 A 14.353645 14.353645 0 0 1 -15.023372 296.16849 A 14.353645 14.353645 0 0 1 -14.989783 295.74009 C -14.864766 294.7616 -14.739031 293.82523 -14.613578 292.95266 A 14.353645 14.353645 0 0 1 -0.66972656 281.81484 z " /></g></svg>
