<?xml version="1.0" encoding="UTF-8" standalone="no"?>
<!-- Created with Inkscape (http://www.inkscape.org/) -->

<svg
   width="156.12433mm"
   height="115.10108mm"
   viewBox="0 0 156.12433 115.10108"
   version="1.1"
   id="svg1"
   sodipodi:docname="BigArc.svg"
   inkscape:version="1.3.2 (091e20e, 2023-11-25, custom)"
   xmlns:inkscape="http://www.inkscape.org/namespaces/inkscape"
   xmlns:sodipodi="http://sodipodi.sourceforge.net/DTD/sodipodi-0.dtd"
   xmlns="http://www.w3.org/2000/svg"
   xmlns:svg="http://www.w3.org/2000/svg">
  <sodipodi:namedview
     id="namedview1"
     pagecolor="#ffffff"
     bordercolor="#000000"
     borderopacity="0.25"
     inkscape:showpageshadow="2"
     inkscape:pageopacity="0.0"
     inkscape:pagecheckerboard="0"
     inkscape:deskcolor="#d1d1d1"
     inkscape:document-units="mm"
     inkscape:zoom="1.2625488"
     inkscape:cx="295.0381"
     inkscape:cy="217.41734"
     inkscape:window-width="1920"
     inkscape:window-height="991"
     inkscape:window-x="-9"
     inkscape:window-y="-9"
     inkscape:window-maximized="1"
     inkscape:current-layer="layer1" />
  <defs
     id="defs1" />
  <g
     inkscape:label="Layer 1"
     inkscape:groupmode="layer"
     id="layer1"
     transform="translate(78.062006,-239.44999)">
    <path
       id="path4"
       style="fill:#a7ff94;fill-opacity:0.892256;stroke-width:2.41196"
       d="m 0.94437487,239.45475 c -1.588364,-0.0164 -3.17567197,0.0119 -4.76353297,0.0496 -15.4230549,0.57083 -30.8925969,4.14141 -44.5073609,11.53625 -9.481201,5.16746 -18.102658,12.35541 -23.730852,21.67051 -3.708517,6.16453 -5.953609,13.27485 -5.982063,20.49694 -0.0444,7.96096 -0.0073,15.92287 -0.02015,23.88433 v 37.45869 h 1.05885 v -1.05885 -53.64995 -6.35 A 77,53 0 0 1 -7.8712842e-4,240.49241 77,53 0 0 1 76.999162,293.49228 v 6.35 53.64995 1.05885 h 1.05885 c -0.0117,-20.66582 0.03298,-41.33237 -0.03152,-61.99776 -0.19895,-9.2631 -4.02217,-18.19354 -9.81646,-25.33231 -6.33746,-7.89572 -14.79753,-13.87754 -23.88278,-18.22266 -13.49667,-6.40897 -28.47915,-9.40737 -43.38287713,-9.5436 z"
       inkscape:export-filename="BigArc.svg"
       inkscape:export-xdpi="96"
       inkscape:export-ydpi="96" />
  </g>
</svg>
