<?xml version="1.0" encoding="UTF-8" standalone="no"?>
<!-- Created with Inkscape (http://www.inkscape.org/) -->

<svg
   width="67.128281mm"
   height="84.112373mm"
   viewBox="0 0 67.128281 84.112373"
   version="1.1"
   id="svg1"
   sodipodi:docname="SmallArc.svg"
   inkscape:version="1.3.2 (091e20e, 2023-11-25, custom)"
   xmlns:inkscape="http://www.inkscape.org/namespaces/inkscape"
   xmlns:sodipodi="http://sodipodi.sourceforge.net/DTD/sodipodi-0.dtd"
   xmlns="http://www.w3.org/2000/svg"
   xmlns:svg="http://www.w3.org/2000/svg">
  <sodipodi:namedview
     id="namedview1"
     pagecolor="#ffffff"
     bordercolor="#000000"
     borderopacity="0.25"
     inkscape:showpageshadow="2"
     inkscape:pageopacity="0.0"
     inkscape:pagecheckerboard="0"
     inkscape:deskcolor="#d1d1d1"
     inkscape:document-units="mm"
     inkscape:zoom="0.30551577"
     inkscape:cx="335.49823"
     inkscape:cy="751.18873"
     inkscape:window-width="1920"
     inkscape:window-height="991"
     inkscape:window-x="-9"
     inkscape:window-y="-9"
     inkscape:window-maximized="1"
     inkscape:current-layer="layer1" />
  <defs
     id="defs1" />
  <g
     inkscape:label="Layer 1"
     inkscape:groupmode="layer"
     id="layer1"
     transform="translate(33.564,-254.94401)">
    <path
       id="path3"
       style="fill:#800000;fill-opacity:0.829405;stroke-width:1.01006"
       d="m -0.85680953,254.9509 c -8.06414997,0.18664 -16.26640047,2.22291 -22.98154047,6.81561 -4.49995,3.09696 -8.32062,7.63183 -9.39529,13.10359 -0.53812,2.72379 -0.22737,5.51815 -0.32247,8.27443 -0.0174,18.63734 3.6e-4,37.27448 -0.006,55.91183 h 1.03095 v -1.05574 -42.00829 -17.99167 A 32.531403,22 0 0 1 1.8046937e-4,256.00045 32.531403,22 0 0 1 32.53153,278.00066 a 32.531403,22 0 0 1 -0.063,0.65009 v 16.03003 a 32.531403,22 0 0 1 0.063,1.31155 32.531403,22 0 0 1 -0.063,0.65009 v 41.3582 1.05574 h 1.08675 c -0.005,-20.73075 10e-4,-41.46421 0.009,-62.1931 -0.33917,-5.39278 -3.54791,-10.21401 -7.64449,-13.56506 -5.59713,-4.61836 -12.7133,-7.06853 -19.8437495,-7.98039 -2.2984,-0.28852 -4.617,-0.40463 -6.93343003,-0.36691 z"
       inkscape:export-filename="SmallArc.svg"
       inkscape:export-xdpi="96"
       inkscape:export-ydpi="96" />
  </g>
</svg>
