<?xml version="1.0" encoding="UTF-8" standalone="no"?>
<!-- Created with Inkscape (http://www.inkscape.org/) -->

<svg
   width="210mm"
   height="297mm"
   viewBox="0 0 210 297"
   version="1.1"
   id="svg1"
   xml:space="preserve"
   inkscape:version="1.3.2 (091e20e, 2023-11-25, custom)"
   sodipodi:docname="EnveProfile.svg"
   xmlns:inkscape="http://www.inkscape.org/namespaces/inkscape"
   xmlns:sodipodi="http://sodipodi.sourceforge.net/DTD/sodipodi-0.dtd"
   xmlns="http://www.w3.org/2000/svg"
   xmlns:svg="http://www.w3.org/2000/svg"><sodipodi:namedview
     id="namedview1"
     pagecolor="#ffffff"
     bordercolor="#000000"
     borderopacity="0.25"
     inkscape:showpageshadow="2"
     inkscape:pageopacity="0.0"
     inkscape:pagecheckerboard="0"
     inkscape:deskcolor="#d1d1d1"
     inkscape:document-units="mm"
     inkscape:zoom="1.3843855"
     inkscape:cx="40.45116"
     inkscape:cy="1051.369"
     inkscape:window-width="1920"
     inkscape:window-height="991"
     inkscape:window-x="-9"
     inkscape:window-y="-9"
     inkscape:window-maximized="1"
     inkscape:current-layer="layer1" /><defs
     id="defs1" /><g
     inkscape:label="Layer 1"
     inkscape:groupmode="layer"
     id="layer1"><path
       id="path3"
       style="opacity:0.544495;fill:#0000ff;fill-opacity:0.541063;stroke-width:0.995835"
       d="m -0.30957577,278.00051 c -6.49762003,-0.0156 -12.95751223,1.28114 -16.18816723,4.00392 -0.344924,0.29069 -0.669355,0.6796 -0.976684,1.13563 -4.123708,5.05639 -4.481584,19.01365 -0.421163,26.35525 1.81e-4,3.4e-4 3.36e-4,7e-4 5.17e-4,9.9e-4 0.489536,0.88496 1.039707,1.6795 1.658813,2.34454 1.346531,1.44643 4.038914,2.56698 7.3499442,3.27981 0.0898,0.0194 0.18224,0.0366 0.27285,0.0553 0.28152,0.0581 0.5646,0.1148 0.85421,0.16705 0.0255,0.005 0.0515,0.009 0.077,0.0133 7.29817003,1.30051 16.98156,0.71792 22.2213798,-2.55107 0.55979,-0.31491 1.07218,-0.65116 1.52084,-1.01213 5.98261,-4.81328 6.00561,-22.70056 1.4795,-28.52863 -0.3387,-0.51095 -0.69691,-0.94162 -1.07487,-1.26016 -3.27932,-2.76379 -9.8852498,-4.05519 -16.48116977,-3.99931 -0.0977,-8.2e-4 -0.19527,-0.004 -0.293,-0.005 z" /></g></svg>
