<?xml version="1.0" encoding="UTF-8" standalone="no"?>
<!-- Created with Inkscape (http://www.inkscape.org/) -->

<svg
   width="210mm"
   height="297mm"
   viewBox="0 0 210 297"
   version="1.1"
   id="svg1"
   inkscape:version="1.3.2 (091e20e, 2023-11-25, custom)"
   sodipodi:docname="UnderStemLightMount.svg"
   xmlns:inkscape="http://www.inkscape.org/namespaces/inkscape"
   xmlns:sodipodi="http://sodipodi.sourceforge.net/DTD/sodipodi-0.dtd"
   xmlns="http://www.w3.org/2000/svg"
   xmlns:svg="http://www.w3.org/2000/svg">
  <sodipodi:namedview
     id="namedview1"
     pagecolor="#ffffff"
     bordercolor="#666666"
     borderopacity="1.0"
     inkscape:showpageshadow="2"
     inkscape:pageopacity="0.0"
     inkscape:pagecheckerboard="0"
     inkscape:deskcolor="#d1d1d1"
     inkscape:document-units="mm"
     inkscape:zoom="2.3787302"
     inkscape:cx="-18.076871"
     inkscape:cy="1071.7903"
     inkscape:window-width="1649"
     inkscape:window-height="1033"
     inkscape:window-x="228"
     inkscape:window-y="0"
     inkscape:window-maximized="0"
     inkscape:current-layer="layer1" />
  <defs
     id="defs1" />
  <g
     inkscape:label="Layer 1"
     inkscape:groupmode="layer"
     id="layer1">
    <path
       id="circle3"
       style="fill:#4d4d4d;fill-opacity:0.442348;stroke-width:0.364998"
       d="M -13.681852 284.68133 C -13.844654 284.68815 -14.045452 284.70771 -14.311271 284.73507 C -15.32119 285.18392 -15.738704 286.40747 -16.059485 287.63774 L -16.075505 287.63774 C -16.503687 288.89074 -16.784511 290.19319 -16.912663 291.50986 C -16.914828 291.53136 -16.915754 291.55294 -16.91783 291.57445 C -16.941744 291.83022 -16.958225 292.08632 -16.97054 292.34288 C -16.975222 292.4411 -16.980067 292.53912 -16.982943 292.63743 C -17.038069 294.43902 -16.807897 296.24888 -16.272392 297.97923 C -15.510103 300.63056 -14.044521 303.0324 -12.119157 304.98397 C -12.035061 305.07053 -11.948834 305.15468 -11.862842 305.23925 C -11.783907 305.31601 -11.703436 305.39136 -11.623063 305.46663 C -11.389779 305.68676 -11.150484 305.89966 -10.904761 306.10535 C -10.877016 306.12861 -10.84945 306.15202 -10.821562 306.17511 C -10.6338 306.33017 -10.443386 306.48127 -10.248987 306.6278 C -10.100666 306.74054 -9.9507141 306.85111 -9.7988851 306.95904 C -9.733623 307.00488 -9.6684249 307.05057 -9.6025146 307.09547 C -7.3070445 308.68038 -4.635399 309.71497 -1.8386475 309.98005 C -1.6549192 310.00052 -1.4703986 310.00985 -1.2862264 310.02397 C -1.2359093 310.02798 -1.1856834 310.0323 -1.1353312 310.03586 C -0.89800425 310.05182 -0.66086627 310.06232 -0.42322998 310.0679 C -0.28162053 310.07186 -0.14014157 310.0748 0.001550293 310.07513 C 0.14311055 310.0748 0.28433577 310.07185 0.4258138 310.0679 C 0.66396547 310.06232 0.90162447 310.05187 1.1394653 310.03586 C 1.1888 310.03236 1.2379589 310.0279 1.2872599 310.02397 C 1.4721182 310.00982 1.6573366 310.0006 1.841748 309.98005 C 4.6384996 309.71497 7.3101452 308.68038 9.6056152 307.09547 C 9.6711409 307.05083 9.736067 307.00564 9.8009521 306.96007 C 9.9635122 306.84453 10.124043 306.72611 10.282576 306.60506 C 10.463879 306.46774 10.641409 306.32607 10.816911 306.18131 C 10.850185 306.15379 10.883059 306.12588 10.91613 306.09811 C 11.160392 305.89336 11.398349 305.68153 11.630298 305.46249 C 11.709058 305.38869 11.78753 305.3145 11.864909 305.23925 C 11.949698 305.15587 12.035177 305.07342 12.118123 304.9881 C 14.045481 303.0358 15.51267 300.63241 16.275492 297.97923 C 16.810998 296.24888 17.04117 294.43902 16.986043 292.63743 C 16.983167 292.53912 16.978323 292.4411 16.973641 292.34288 C 16.961972 292.09979 16.946114 291.85715 16.924032 291.61476 C 16.920442 291.57655 16.918599 291.53822 16.91473 291.50004 C 16.786139 290.18671 16.505727 288.88763 16.078605 287.63774 L 16.062585 287.63774 C 15.741804 286.40747 15.32429 285.18392 14.314372 284.73507 C 14.048553 284.70777 13.847755 284.68833 13.684953 284.68133 C 13.196547 284.66088 13.048407 284.75347 12.498979 285.07976 C 11.726897 285.86682 11.60789 286.75024 11.788428 287.63774 L 11.768791 287.63774 C 11.807255 287.78722 11.856273 287.93919 11.9078 288.09043 C 11.983222 288.33522 12.074066 288.5785 12.179102 288.81958 C 12.287406 289.09049 12.397707 289.35743 12.47004 289.57509 C 12.558533 289.86307 12.633378 290.15388 12.698966 290.44635 C 12.717938 290.53287 12.733598 290.61996 12.750643 290.7068 C 12.797104 290.93835 12.836409 291.17106 12.868982 291.40444 C 12.887317 291.53874 12.902627 291.67327 12.916524 291.80803 C 12.935677 291.98967 12.950995 292.17155 12.962 292.35373 C 12.97143 292.51366 12.977771 292.67367 12.98112 292.83381 C 12.984676 292.99852 12.985074 293.16313 12.982153 293.32783 C 12.979222 293.49279 12.973832 293.65764 12.964583 293.82238 C 12.954898 293.99313 12.94128 294.16371 12.924792 294.33397 C 12.910181 294.48654 12.893576 294.63881 12.873633 294.79079 C 12.848462 294.98047 12.818201 295.16922 12.784749 295.35768 C 12.762441 295.48469 12.739949 295.6117 12.713953 295.73802 C 12.66684 295.96466 12.613156 296.18999 12.554272 296.41395 C 12.532519 296.49739 12.512007 296.58106 12.488643 296.66406 C 12.411039 296.9376 12.325098 297.2088 12.230261 297.47693 C 12.218113 297.51148 12.207036 297.54636 12.194604 297.5808 C 11.638024 299.11442 10.799518 300.5442 9.724471 301.76969 C 9.6866707 301.81236 9.6522864 301.85777 9.6138835 301.89992 C 9.556492 301.96357 9.4932669 302.02193 9.4345662 302.0844 C 9.0417349 302.49773 8.624198 302.88897 8.1731445 303.24402 C 7.9728475 303.41066 7.7656878 303.56762 7.5556112 303.71996 C 7.4798774 303.77285 7.4053256 303.82694 7.3282349 303.87809 C 7.189957 303.976 7.0495538 304.07035 6.9075887 304.1618 C 6.9064261 304.16254 6.9051342 304.16311 6.9039714 304.16386 C 4.8496529 305.456 2.4252994 306.10658 0.001550293 306.11413 C -2.4235869 306.10657 -4.8494174 305.4554 -6.9044881 304.1618 C -6.9061856 304.16073 -6.9079588 304.15976 -6.9096558 304.1587 C -7.050013 304.06819 -7.1883845 303.97492 -7.3251343 303.87809 C -7.4000065 303.82842 -7.4727169 303.77593 -7.5463094 303.72461 C -7.7585711 303.57089 -7.967753 303.41232 -8.1700439 303.24402 C -8.6181855 302.89126 -9.0330366 302.50247 -9.4237142 302.09215 C -9.4849737 302.02708 -9.5509462 301.96628 -9.6107829 301.89992 C -9.6491858 301.85777 -9.6835701 301.81236 -9.7213704 301.76969 C -10.796418 300.5442 -11.634924 299.11442 -12.191504 297.5808 C -12.203935 297.54636 -12.215012 297.51148 -12.227161 297.47693 C -12.322306 297.20793 -12.408776 296.93592 -12.486576 296.66148 C -12.508709 296.58278 -12.527902 296.50337 -12.548588 296.42428 C -12.609238 296.19435 -12.664681 295.96303 -12.712919 295.73027 C -12.737851 295.60876 -12.759095 295.48655 -12.780615 295.3644 C -12.814562 295.17372 -12.845063 294.98272 -12.870532 294.79079 C -12.890476 294.63881 -12.90708 294.48654 -12.921692 294.33397 C -12.938279 294.16269 -12.95178 293.99106 -12.961483 293.81927 C -12.97051 293.65781 -12.976095 293.49624 -12.979053 293.33455 C -12.982102 293.16761 -12.982141 293.00076 -12.978536 292.83381 C -12.975144 292.6716 -12.968532 292.50952 -12.958899 292.34753 C -12.948013 292.1688 -12.932669 291.99038 -12.91394 291.81216 C -12.899894 291.67551 -12.884491 291.53907 -12.865881 291.40288 C -12.833663 291.17227 -12.794873 290.94235 -12.749093 290.71352 C -12.73159 290.62408 -12.715412 290.53442 -12.695866 290.44532 C -12.630325 290.15317 -12.555336 289.86276 -12.466939 289.57509 C -12.394606 289.35743 -12.284305 289.09049 -12.176001 288.81958 C -12.069117 288.57426 -11.977168 288.32664 -11.901082 288.07751 C -11.851292 287.93058 -11.803054 287.78294 -11.76569 287.63774 L -11.785327 287.63774 C -11.60479 286.75024 -11.723796 285.86682 -12.495878 285.07976 C -13.045307 284.75347 -13.193447 284.66088 -13.681852 284.68133 z " />
  </g>
</svg>
