<?xml version="1.0" encoding="UTF-8" standalone="no"?>
<!-- Created with Inkscape (http://www.inkscape.org/) -->

<svg
   width="210mm"
   height="297mm"
   viewBox="0 0 210 297"
   version="1.1"
   id="svg1"
   xml:space="preserve"
   inkscape:version="1.3.2 (091e20e, 2023-11-25, custom)"
   sodipodi:docname="NightRiderLightProfile.svg"
   xmlns:inkscape="http://www.inkscape.org/namespaces/inkscape"
   xmlns:sodipodi="http://sodipodi.sourceforge.net/DTD/sodipodi-0.dtd"
   xmlns="http://www.w3.org/2000/svg"
   xmlns:svg="http://www.w3.org/2000/svg"><sodipodi:namedview
     id="namedview1"
     pagecolor="#ffffff"
     bordercolor="#000000"
     borderopacity="0.25"
     inkscape:showpageshadow="2"
     inkscape:pageopacity="0.0"
     inkscape:pagecheckerboard="0"
     inkscape:deskcolor="#d1d1d1"
     inkscape:document-units="mm"
     inkscape:zoom="1.4142136"
     inkscape:cx="24.748737"
     inkscape:cy="1100.6117"
     inkscape:window-width="1920"
     inkscape:window-height="991"
     inkscape:window-x="-9"
     inkscape:window-y="-9"
     inkscape:window-maximized="1"
     inkscape:current-layer="layer1" /><defs
     id="defs1" /><g
     inkscape:label="Layer 1"
     inkscape:groupmode="layer"
     id="layer1"><path
       id="path9"
       style="fill:#ff6600;fill-opacity:0.541063;stroke-width:1.19656"
       d="m 1.790847,278.37582 c -0.554431,-0.004 -1.12642703,-0.004 -1.70997304,5.1e-4 -0.0396359,2.8e-4 -0.07599823,-2.9e-4 -0.1157552,0 -0.00242,4e-5 -0.0053215,-10e-6 -0.0077515,0 -7.35954316,-0.0467 -12.32988226,0.65012 -15.68741526,1.62109 -4.293292,1.16529 -6.003741,2.7735 -6.643005,4.20181 -0.168799,0.33232 -0.262741,0.62027 -0.304374,0.82683 v 0.21084 c -0.08945,0.58229 -0.04521,1.08261 0,1.47071 v 0.73019 c -0.0061,0.006 -0.0085,0.0161 -0.01447,0.0207 0,0.21466 0.0026,0.38093 0.0052,0.64389 h -0.04341 v 10.57971 h 0.02325 c -0.05298,1.40748 -0.226986,8.71215 1.952336,12.43594 0.238588,0.4467 0.506458,0.84614 0.807702,1.18235 1.225529,1.36777 2.236757,2.43165 3.31711,3.26544 0,0 1.173208,-0.80802 1.431438,-1.43144 0.371916,-0.89788 0,-2.91559 0,-2.91559 -0.399222,-0.4089 -0.809763,-0.85479 -1.258838,-1.35599 -0.24853,-0.27734 -0.469271,-0.60657 -0.66611,-0.97513 -1.797951,-3.07214 -1.654464,-9.09866 -1.610754,-10.25984 h -0.01912 v -8.72815 h 0.03566 c -0.0021,-0.21694 -0.0041,-0.35413 -0.0041,-0.53123 0.005,-0.004 0.0069,-0.012 0.01189,-0.017 v -0.60255 c -0.0373,-0.32019 -0.0738,-0.733 0,-1.21336 v -0.17415 c 0.03435,-0.17041 0.11189,-0.40797 0.251147,-0.68213 0.527399,-1.17839 1.9383,-2.50509 5.480286,-3.46646 2.769981,-0.80108 6.8707014,-1.37588 12.9423632,-1.33738 0.002,-10e-6 0.0042012,3e-5 0.0062012,0 0.0327999,-2.4e-4 0.06290149,2.3e-4 0.0956014,0 0.48142851,-0.004 0.953358,-0.004 1.4107665,-5.2e-4 6.9598985,0.0516 11.1683327,0.84579 13.6880537,1.85777 3.114071,1.15337 3.640625,2.58489 3.573425,3.52536 0.0011,0.0335 0.008,0.0711 0.0078,0.10336 -0.0103,1.28339 -0.0065,2.07504 -0.0031,2.53834 h 0.0041 v 8.72815 h -0.03049 c 0.06959,1.68869 0.184532,7.92799 -1.777152,10.58954 -0.14591,0.2367 -0.303747,0.45396 -0.474907,0.64543 -0.454389,0.50834 -0.870444,0.96125 -1.274857,1.3746 0,0 -0.385033,2.08887 0,3.01842 0.247415,0.59731 1.371492,1.37149 1.371492,1.37149 1.111881,-0.84194 2.143737,-1.92523 3.396692,-3.32693 0.207466,-0.23209 0.398817,-0.49547 0.575676,-0.78238 2.377782,-3.2261 2.238224,-10.78903 2.153873,-12.83591 h 0.03721 v -10.57971 h -0.0052 c -0.0041,-0.56157 -0.0089,-1.52065 0.0036,-3.0763 3.15e-4,-0.0392 -0.0079,-0.0849 -0.0093,-0.12558 0.08145,-1.13993 -0.556912,-2.87511 -4.331518,-4.27312 -3.05419,-1.22664 -8.155048,-2.18897 -16.591236,-2.25154 z"
       sodipodi:nodetypes="csscccccccccccccscscsccccccccccccscccccscccccscscscccccsccc" /></g></svg>
