<?xml version="1.0" encoding="UTF-8" standalone="no"?>
<!-- Created with Inkscape (http://www.inkscape.org/) -->

<svg
   width="210mm"
   height="297mm"
   viewBox="0 0 210 297"
   version="1.1"
   id="svg1"
   inkscape:version="1.3.2 (091e20e, 2023-11-25, custom)"
   sodipodi:docname="UnderStemLightMount.svg"
   xmlns:inkscape="http://www.inkscape.org/namespaces/inkscape"
   xmlns:sodipodi="http://sodipodi.sourceforge.net/DTD/sodipodi-0.dtd"
   xmlns="http://www.w3.org/2000/svg"
   xmlns:svg="http://www.w3.org/2000/svg">
  <sodipodi:namedview
     id="namedview1"
     pagecolor="#ffffff"
     bordercolor="#666666"
     borderopacity="1.0"
     inkscape:showpageshadow="2"
     inkscape:pageopacity="0.0"
     inkscape:pagecheckerboard="0"
     inkscape:deskcolor="#d1d1d1"
     inkscape:document-units="mm"
     inkscape:zoom="13.45613"
     inkscape:cx="56.331205"
     inkscape:cy="1125.9924"
     inkscape:window-width="1649"
     inkscape:window-height="1033"
     inkscape:window-x="228"
     inkscape:window-y="0"
     inkscape:window-maximized="0"
     inkscape:current-layer="layer1" />
  <defs
     id="defs1" />
  <g
     inkscape:label="Layer 1"
     inkscape:groupmode="layer"
     id="layer1">
    <path
       id="circle3"
       style="fill:#4d4d4d;fill-opacity:0.442348;stroke-width:0.364998"
       d="m -12.628604,285.79226 c -0.05297,-0.004 -0.105149,-0.004 -0.156577,5.1e-4 -0.102859,0.009 -0.202781,0.0371 -0.299718,0.0791 a 14.999776,15 0 0 0 -1.614348,4.48035 h -0.01344 a 14.999776,15 0 0 0 -0.181899,0.97306 14.999776,15 0 0 0 -0.0615,1.08779 14.999776,15 0 0 0 -0.04392,0.76946 14.999776,15 0 0 0 0.03772,0.6873 14.999776,15 0 0 0 0.06098,1.11104 14.999776,15 0 0 0 0.03514,0.18604 14.999776,15 0 0 0 0.105418,0.55397 14.999776,15 0 0 0 0.283183,1.36219 14.999776,15 0 0 0 0.188099,0.57051 14.999776,15 0 0 0 0.448029,1.28261 14.999776,15 0 0 0 0.266129,0.5519 14.999776,15 0 0 0 0.606673,1.20355 14.999776,15 0 0 0 0.34881,0.53175 14.999776,15 0 0 0 0.739996,1.08727 14.999776,15 0 0 0 0.451127,0.524 14.999776,15 0 0 0 0.844898,0.94671 14.999776,15 0 0 0 0.533293,0.47594 14.999776,15 0 0 0 0.9389466,0.80874 14.999776,15 0 0 0 0.6376774,0.43408 14.999776,15 0 0 0 0.9880382,0.64802 14.999776,15 0 0 0 0.739479,0.37259 14.999776,15 0 0 0 1.0143929,0.48937 14.999776,15 0 0 0 0.8309445,0.29043 14.999776,15 0 0 0 1.0205948,0.33641 14.999776,15 0 0 0 0.9094914,0.18913 14.999776,15 0 0 0 1.0066419,0.19121 14.999776,15 0 0 0 0.1291891,0.0243 14.999776,15 0 0 0 0.85264822,0.0486 14.999776,15 0 0 0 0.96788552,0.0548 14.999776,15 0 0 0 1.03609646,-0.0589 14.999776,15 0 0 0 0.7932221,-0.045 14.999776,15 0 0 0 0.1927502,-0.0284 14.999776,15 0 0 0 0.1576105,-0.0227 14.999776,15 0 0 0 1.7678247,-0.36742 14.999776,15 0 0 0 0.1648446,-0.0481 14.999776,15 0 0 0 1.7001295,-0.59376 14.999776,15 0 0 0 0.00155,-5.2e-4 14.999776,15 0 0 0 0.1498598,-0.0672 14.999776,15 0 0 0 1.5461359,-0.77928 14.999776,15 0 0 0 0.1865491,-0.10749 14.999776,15 0 0 0 1.4190138,-0.96634 14.999776,15 0 0 0 0.204635,-0.15555 14.999776,15 0 0 0 1.2598538,-1.12448 14.999776,15 0 0 0 0.219105,-0.22066 14.999776,15 0 0 0 1.083121,-1.25729 14.999776,15 0 0 0 0.195851,-0.26096 14.999776,15 0 0 0 0.90329,-1.3777 14.999776,15 0 0 0 0.16433,-0.29558 14.999776,15 0 0 0 0.706922,-1.46607 14.999776,15 0 0 0 0.127639,-0.32711 14.999776,15 0 0 0 0.486785,-1.47588 14.999776,15 0 0 0 0.101285,-0.39325 14.999776,15 0 0 0 0.2868,-1.51257 14.999776,15 0 0 0 0.04031,-0.21136 14.999776,15 0 0 0 0.09974,-2.1239 14.999776,15 0 0 0 -0.0026,-0.0868 14.999776,15 0 0 0 -0.02119,-0.46508 14.999776,15 0 0 0 -0.06976,-0.85215 h -0.0062 a 14.999776,15 0 0 0 -1.8164,-5.58157 c -0.09693,-0.0421 -0.196863,-0.0701 -0.299719,-0.0791 -0.05142,-0.005 -0.103605,-0.005 -0.156577,-5.1e-4 -0.05297,0.004 -0.106688,0.0135 -0.161228,0.0279 -0.578674,0.15326 -0.823826,0.72487 -0.886755,1.46245 a 12.999806,13 0 0 1 1.307911,4.1708 h -0.0015 a 12.999806,13 0 0 1 0.0047,0.0238 12.999806,13 0 0 1 0.0894,0.91209 12.999806,13 0 0 1 0.0186,0.37259 12.999806,13 0 0 1 0.0036,0.12454 12.999806,13 0 0 1 -0.112652,1.98231 12.999806,13 0 0 1 -0.303337,1.54564 12.999806,13 0 0 1 -0.06098,0.23719 12.999806,13 0 0 1 -0.528125,1.51309 12.999806,13 0 0 1 -0.09819,0.23564 12.999806,13 0 0 1 -0.739478,1.42317 12.999806,13 0 0 1 -0.13229,0.22066 12.999806,13 0 0 1 -0.93998,1.31103 12.999806,13 0 0 1 -0.1545111,0.1881 12.999806,13 0 0 1 -1.1260119,1.17358 12.999806,13 0 0 1 -0.1710465,0.15451 12.999806,13 0 0 1 -1.2882747,1.00666 12.999806,13 0 0 1 -0.1813814,0.12143 12.999806,13 0 0 1 -1.4360665,0.82269 12.999806,13 0 0 1 -0.1725965,0.0822 12.999806,13 0 0 1 -1.5709404,0.6227 12.999806,13 0 0 1 -0.136424,0.0413 12.999806,13 0 0 1 -1.6841099,0.40308 12.999806,13 0 0 1 -0.1033514,0.015 12.999806,13 0 0 1 -1.10327444,0.10181 12.999806,13 0 0 1 -0.95496671,0.0486 12.999806,13 0 0 1 -0.91931025,-0.0465 12.999806,13 0 0 1 -0.9177592,-0.0847 12.999806,13 0 0 1 -0.943598,-0.185 12.999806,13 0 0 1 -0.8567821,-0.20515 12.999806,13 0 0 1 -0.9275782,-0.32401 12.999806,13 0 0 1 -0.8076909,-0.3204 12.999806,13 0 0 1 -0.8862368,-0.46044 12.999806,13 0 0 1 -0.732244,-0.41961 12.999806,13 0 0 1 -0.8423134,-0.6041 12.999806,13 0 0 1 -0.6350945,-0.49609 12.999806,13 0 0 1 -0.7704835,-0.73949 12.999806,13 0 0 1 -0.5384609,-0.5612 12.999806,13 0 0 1 -0.6707498,-0.85835 12.999806,13 0 0 1 -0.442344,-0.61753 12.999806,13 0 0 1 -0.547761,-0.95498 12.999806,13 0 0 1 -0.345193,-0.66456 12.999806,13 0 0 1 -0.410305,-1.03508 12.999806,13 0 0 1 -0.242876,-0.69453 12.999806,13 0 0 1 -0.262512,-1.09813 12.999806,13 0 0 1 -0.138491,-0.70486 12.999806,13 0 0 1 -0.09457,-1.02423 12.999806,13 0 0 1 -0.04082,-0.92811 12.999806,13 0 0 1 0.04134,-0.81442 12.999806,13 0 0 1 0.117303,-1.13223 12.999806,13 0 0 1 0.130223,-0.65784 12.999806,13 0 0 1 1.118777,-3.22254 c -0.06289,-0.73758 -0.30808,-1.30919 -0.886753,-1.46245 -0.05454,-0.0145 -0.108258,-0.0234 -0.161229,-0.0279 z" />
  </g>
</svg>
