<?xml version="1.0" encoding="UTF-8" standalone="no"?>
<!-- Created with Inkscape (http://www.inkscape.org/) -->

<svg
   width="210mm"
   height="297mm"
   viewBox="0 0 210 297"
   version="1.1"
   id="svg1"
   inkscape:version="1.3 (0e150ed6c4, 2023-07-21)"
   sodipodi:docname="UnderStemLightMount.svg"
   xmlns:inkscape="http://www.inkscape.org/namespaces/inkscape"
   xmlns:sodipodi="http://sodipodi.sourceforge.net/DTD/sodipodi-0.dtd"
   xmlns="http://www.w3.org/2000/svg"
   xmlns:svg="http://www.w3.org/2000/svg">
  <sodipodi:namedview
     id="namedview1"
     pagecolor="#ffffff"
     bordercolor="#666666"
     borderopacity="1.0"
     inkscape:showpageshadow="2"
     inkscape:pageopacity="0.0"
     inkscape:pagecheckerboard="0"
     inkscape:deskcolor="#d1d1d1"
     inkscape:document-units="mm"
     inkscape:zoom="3.3640324"
     inkscape:cx="262.03671"
     inkscape:cy="195.1527"
     inkscape:window-width="1649"
     inkscape:window-height="1266"
     inkscape:window-x="228"
     inkscape:window-y="528"
     inkscape:window-maximized="0"
     inkscape:current-layer="layer1" />
  <defs
     id="defs1" />
  <g
     inkscape:label="Layer 1"
     inkscape:groupmode="layer"
     id="layer1">
    <path
       id="path2"
       style="fill:#385eff;fill-opacity:0.731313;stroke:#000002"
       d="M 40.675553 31.387748 C 40.595251 31.381838 40.513259 31.394346 40.43009 31.429089 C 35.993589 33.282439 32.049227 36.780739 29.086597 41.135474 L 29.086597 41.050208 C 25.580235 46.016965 23.586307 52.02366 23.584607 58.340625 C 23.584636 61.447217 24.056796 64.443375 24.933362 67.261528 C 25.079453 67.731215 25.236928 68.195764 25.405168 68.655241 C 25.57346 69.114878 25.752259 69.569158 25.942086 70.017948 C 26.131846 70.466586 26.332431 70.90938 26.543083 71.346549 C 26.543151 71.346691 26.543015 71.346925 26.543083 71.347066 C 26.753675 71.784094 26.974732 72.215071 27.205575 72.640011 C 27.205648 72.640145 27.205501 72.640393 27.205575 72.640527 C 27.436425 73.065466 27.677537 73.484043 27.928011 73.896265 C 28.67974 75.133461 29.518175 76.31184 30.435352 77.423181 C 30.741039 77.793588 31.055119 78.156317 31.37793 78.511487 C 31.378093 78.511667 31.378283 78.511824 31.378446 78.512004 C 31.701101 78.866985 32.032535 79.214152 32.371667 79.553284 C 32.711062 79.892681 33.058196 80.224127 33.413464 80.547021 C 33.967485 81.050556 34.545689 81.527349 35.136357 81.988794 C 35.302932 82.118926 35.465666 82.253838 35.635034 82.380501 C 35.635143 82.380582 35.635442 82.38042 35.635551 82.380501 C 36.020459 82.668349 36.412309 82.947146 36.81119 83.216626 C 36.811389 83.216761 36.811507 83.217008 36.811707 83.217143 C 37.609715 83.756257 38.434779 84.25755 39.284941 84.719377 C 39.710022 84.95029 40.141225 85.171219 40.578402 85.381868 C 41.015571 85.592521 41.458366 85.793105 41.907003 85.982865 C 42.355788 86.17269 42.810078 86.351494 43.26971 86.519784 C 43.729187 86.688023 44.193736 86.845498 44.663424 86.991589 C 44.66358 86.991638 44.663784 86.991541 44.66394 86.991589 C 45.133473 87.137624 45.608 87.272426 46.087109 87.395699 C 46.08727 87.39574 46.087465 87.395658 46.087626 87.395699 C 46.198245 87.424159 46.311381 87.445988 46.422489 87.473214 C 47.18815 87.660832 47.964588 87.82003 48.752063 87.947603 C 48.840378 87.96191 48.927041 87.981095 49.015613 87.994629 C 49.015781 87.994655 49.015961 87.994603 49.01613 87.994629 C 49.512515 88.07047 50.012736 88.134119 50.516813 88.185315 C 50.516984 88.185332 50.517159 88.185298 50.51733 88.185315 C 51.021411 88.236503 51.529606 88.275156 52.040751 88.30107 C 52.552246 88.327003 53.066903 88.340348 53.584843 88.340344 C 55.230497 88.340329 56.843436 88.202542 58.417106 87.947603 C 59.204582 87.82003 59.981019 87.660832 60.74668 87.473214 C 62.783379 86.974139 64.741165 86.27308 66.590767 85.381868 C 67.027937 85.171216 67.459155 84.950293 67.884229 84.719377 C 68.73439 84.25755 69.559454 83.756257 70.357463 83.217143 C 70.357662 83.217008 70.35778 83.216761 70.357979 83.216626 C 70.473151 83.138817 70.583468 83.054656 70.697493 82.975297 C 71.152194 82.65883 71.596939 82.329309 72.032812 81.988794 C 72.62348 81.527349 73.201684 81.050556 73.755705 80.547021 C 74.110974 80.224127 74.458107 79.892681 74.797502 79.553284 C 75.120957 79.229829 75.436251 78.897949 75.744731 78.560063 C 75.759849 78.543503 75.776158 78.528081 75.791239 78.511487 C 77.405191 76.735747 78.809056 74.765745 79.963595 72.640527 C 79.963668 72.640393 79.963521 72.640145 79.963595 72.640011 C 80.194437 72.215071 80.415494 71.784094 80.626086 71.347066 C 80.626154 71.346925 80.626018 71.346691 80.626086 71.346549 C 81.047322 70.472354 81.427563 69.574553 81.764001 68.655758 C 81.764057 68.655605 81.763946 68.655394 81.764001 68.655241 C 82.941679 65.438906 83.584528 61.964938 83.584562 58.340625 C 83.582908 52.02366 81.588934 46.016965 78.082572 41.050208 L 78.082572 41.135474 C 75.119942 36.780739 71.17558 33.282439 66.739079 31.429089 C 66.65591 31.394349 66.573916 31.381848 66.493616 31.387748 C 65.931502 31.42912 65.450905 32.375802 65.209456 32.958712 C 64.936224 33.618356 65.209456 35.1007 65.209456 35.1007 C 68.691008 36.840931 71.655013 39.307803 73.97998 42.253235 C 74.362467 42.737787 74.726599 43.235921 75.073454 43.74565 C 75.152856 43.862441 75.2311 43.980031 75.308582 44.098083 C 75.584643 44.518253 75.847351 44.946863 76.098714 45.382243 C 76.186843 45.53514 76.276731 45.68696 76.361747 45.841646 C 76.499146 46.091185 76.631995 46.343136 76.761206 46.597156 C 76.877748 46.826761 76.988391 47.059088 77.098136 47.292204 C 77.253456 47.621331 77.402037 47.953798 77.543587 48.289559 C 77.651493 48.546231 77.755988 48.804373 77.855713 49.064705 C 77.93201 49.263282 78.010067 49.460956 78.081539 49.661568 C 78.230088 50.079854 78.36667 50.503145 78.493917 50.929708 C 78.54632 51.104777 78.595543 51.280947 78.644295 51.457324 C 78.771296 51.918436 78.891934 52.38166 78.993628 52.851038 C 79.013103 52.940579 79.027799 53.031481 79.046338 53.121305 C 79.137762 53.566014 79.217353 54.014299 79.2856 54.465409 C 79.304044 54.586839 79.32364 54.707867 79.340377 54.829728 C 79.410036 55.338991 79.465202 55.852103 79.504708 56.368136 C 79.513214 56.47881 79.518801 56.589973 79.525895 56.700932 C 79.560533 57.244861 79.584454 57.790753 79.584806 58.340625 C 79.584801 61.930462 78.857191 65.350351 77.54152 68.460937 C 77.212594 69.238592 76.846762 69.996858 76.446497 70.733667 C 76.246364 71.102072 76.037846 71.465113 75.820695 71.822489 C 75.513285 72.328418 75.183175 72.818443 74.842977 73.300952 C 74.462183 73.841045 74.067524 74.370452 73.647701 74.87915 C 73.382763 75.200175 73.109958 75.514944 72.83018 75.822762 C 72.550402 76.13058 72.263323 76.431482 71.96925 76.725549 C 71.087032 77.607751 70.142073 78.426888 69.140999 79.175529 C 68.473631 79.674624 67.781455 80.142185 67.066707 80.576477 C 66.472944 80.937257 65.860037 81.268794 65.236328 81.5821 C 61.730666 83.343096 57.775323 84.340584 53.584843 84.340588 C 53.135932 84.340597 52.689747 84.329472 52.246423 84.306999 C 51.803449 84.284544 51.36346 84.250586 50.926607 84.20623 C 50.926436 84.206212 50.926261 84.206247 50.92609 84.20623 C 50.489241 84.161865 50.055578 84.106588 49.625395 84.040865 C 49.625226 84.040839 49.625046 84.040891 49.624878 84.040865 C 49.194697 83.975134 48.767823 83.898999 48.344853 83.812455 C 48.344688 83.812421 48.344501 83.812489 48.344336 83.812455 C 47.921368 83.725903 47.502262 83.628855 47.087048 83.522034 C 47.086887 83.521992 47.086693 83.522075 47.086532 83.522034 C 46.67132 83.415204 46.259928 83.298222 45.853015 83.171667 C 45.852859 83.171619 45.852655 83.171716 45.852498 83.171667 C 45.445431 83.045056 45.043038 82.908714 44.64482 82.762907 C 44.246447 82.617049 43.852986 82.461826 43.464014 82.297302 C 43.075335 82.132905 42.69141 81.959412 42.312663 81.776921 C 42.312524 81.776854 42.312284 81.776987 42.312146 81.776921 C 42.18388 81.715116 42.059926 81.645939 41.932841 81.5821 C 41.309132 81.268794 40.696226 80.937257 40.102462 80.576477 C 39.387715 80.142185 38.695538 79.674624 38.02817 79.175529 C 37.694374 78.925904 37.366927 78.668502 37.045801 78.403483 C 36.724778 78.138551 36.410523 77.86625 36.102706 77.586479 C 35.794882 77.306707 35.493992 77.019616 35.199919 76.725549 C 34.905846 76.431482 34.618767 76.13058 34.338989 75.822762 C 34.338826 75.822582 34.338636 75.822425 34.338472 75.822245 C 34.058701 75.514428 33.7864 75.200173 33.521468 74.87915 C 33.101645 74.370452 32.706986 73.841045 32.326192 73.300952 C 32.226288 73.159254 32.122043 73.02097 32.024919 72.877205 C 31.7913 72.531404 31.56562 72.179863 31.348474 71.822489 C 31.131323 71.465113 30.922805 71.102072 30.722673 70.733667 C 30.322407 69.996858 29.956575 69.238592 29.627649 68.460937 C 28.311945 65.350319 27.584368 61.930512 27.584363 58.340625 C 27.584715 57.790753 27.608636 57.244861 27.643274 56.700932 C 27.650368 56.589973 27.655955 56.47881 27.664461 56.368136 C 27.703967 55.852103 27.759133 55.338991 27.828792 54.829728 C 27.845529 54.707867 27.865125 54.586839 27.883569 54.465409 C 27.951816 54.014299 28.031408 53.566014 28.122831 53.121305 C 28.14137 53.031481 28.156066 52.940579 28.175541 52.851038 C 28.277235 52.38166 28.397873 51.918436 28.524874 51.457324 C 28.573626 51.280947 28.622849 51.104777 28.675252 50.929708 C 28.8025 50.503145 28.939081 50.079854 29.08763 49.661568 C 29.159102 49.460956 29.237159 49.263282 29.313456 49.064705 C 29.413181 48.804373 29.517676 48.546231 29.625582 48.289559 C 29.767132 47.953798 29.915713 47.621331 30.071033 47.292204 C 30.180778 47.059088 30.291421 46.826761 30.407963 46.597156 C 30.537174 46.343136 30.670023 46.091185 30.807422 45.841646 C 30.892439 45.68696 30.982327 45.53514 31.070455 45.382243 C 31.321818 44.946863 31.584527 44.518253 31.860588 44.098083 C 31.938069 43.980031 32.016313 43.862441 32.095715 43.74565 C 32.44257 43.235921 32.806702 42.737787 33.189189 42.253235 C 35.514157 39.307803 38.478161 36.840931 41.959713 35.1007 C 41.959713 35.1007 42.232945 33.618356 41.959713 32.958712 C 41.718264 32.375802 41.237667 31.429121 40.675553 31.387748 z " />
  </g>
</svg>
