<?xml version="1.0" encoding="UTF-8" standalone="no"?>
<!-- Created with Inkscape (http://www.inkscape.org/) -->

<svg
   width="210mm"
   height="297mm"
   viewBox="0 0 210 297"
   version="1.1"
   id="svg1"
   inkscape:version="1.3 (0e150ed6c4, 2023-07-21)"
   sodipodi:docname="UnoStemProfileNarrowerInset.svg"
   xmlns:inkscape="http://www.inkscape.org/namespaces/inkscape"
   xmlns:sodipodi="http://sodipodi.sourceforge.net/DTD/sodipodi-0.dtd"
   xmlns="http://www.w3.org/2000/svg"
   xmlns:svg="http://www.w3.org/2000/svg">
  <sodipodi:namedview
     id="namedview1"
     pagecolor="#ffffff"
     bordercolor="#000000"
     borderopacity="0.25"
     inkscape:showpageshadow="2"
     inkscape:pageopacity="0.0"
     inkscape:pagecheckerboard="0"
     inkscape:deskcolor="#d1d1d1"
     inkscape:document-units="mm"
     inkscape:zoom="5.5375419"
     inkscape:cx="-3.6117108"
     inkscape:cy="1091.7299"
     inkscape:window-width="3840"
     inkscape:window-height="2054"
     inkscape:window-x="3829"
     inkscape:window-y="-11"
     inkscape:window-maximized="1"
     inkscape:current-layer="layer1" />
  <defs
     id="defs1" />
  <g
     inkscape:label="Layer 1"
     inkscape:groupmode="layer"
     id="layer1">
    <path
       id="rect2"
       style="fill:#4d4d4d;fill-opacity:0.442348;stroke-width:0.403809"
       d="m -14.539062,280.11523 c -1.084546,0.0111 -1.691535,1.15354 -2.209699,1.96187 -1.16507,1.92457 -2.220933,3.94882 -2.659442,6.17681 -0.645472,3.08384 -0.668808,6.26437 -0.239768,9.35305 1.24778,7.41933 7.334143,13.83743 14.7802386,15.18944 3.3080158,0.61419 6.7287164,0.49258 10.037846,-0.0358 5.9923894,-1.27789 11.1772914,-5.72793 13.4314484,-11.36995 1.555012,-3.9646 1.61883,-8.3705 0.957129,-12.53015 -0.620053,-3.19751 -2.095428,-6.25816 -4.277441,-8.68274 -0.833004,-0.27091 -1.180904,0.89553 -0.679688,1.41993 2.795417,3.31921 3.99218,7.77426 3.882876,12.06477 0.07653,3.83668 -1.138058,7.67264 -3.428089,10.75371 -2.754662,3.83609 -7.1199083,6.46809 -11.820563,7.01377 -2.77229833,0.33511 -5.614821,0.23424 -8.3496968,-0.32639 -7.0910642,-1.67757 -12.8248582,-8.20768 -13.2488372,-15.53301 -0.42395,-4.32836 0.273481,-8.896 2.718908,-12.56763 0.465142,-0.75752 1.082995,-1.43135 1.544231,-2.17476 0.01043,-0.25858 -0.04824,-0.81861 -0.439453,-0.71289 z" />
  </g>
</svg>
