<?xml version="1.0" encoding="UTF-8" standalone="no"?>
<!-- Created with Inkscape (http://www.inkscape.org/) -->

<svg
   width="210mm"
   height="297mm"
   viewBox="0 0 210 297"
   version="1.1"
   id="svg1"
   inkscape:version="1.3.2 (091e20e, 2023-11-25, custom)"
   sodipodi:docname="UnoStemProfile.svg"
   xmlns:inkscape="http://www.inkscape.org/namespaces/inkscape"
   xmlns:sodipodi="http://sodipodi.sourceforge.net/DTD/sodipodi-0.dtd"
   xmlns="http://www.w3.org/2000/svg"
   xmlns:svg="http://www.w3.org/2000/svg">
  <sodipodi:namedview
     id="namedview1"
     pagecolor="#ffffff"
     bordercolor="#000000"
     borderopacity="0.25"
     inkscape:showpageshadow="2"
     inkscape:pageopacity="0.0"
     inkscape:pagecheckerboard="0"
     inkscape:deskcolor="#d1d1d1"
     inkscape:document-units="mm"
     inkscape:zoom="15.662534"
     inkscape:cx="-60.781991"
     inkscape:cy="1083.0623"
     inkscape:window-width="1920"
     inkscape:window-height="991"
     inkscape:window-x="-9"
     inkscape:window-y="-9"
     inkscape:window-maximized="1"
     inkscape:current-layer="layer1" />
  <defs
     id="defs1" />
  <g
     inkscape:label="Layer 1"
     inkscape:groupmode="layer"
     id="layer1">
    <path
       id="rect2"
       style="fill:#4d4d4d;fill-opacity:0.442348;stroke-width:0.403809"
       d="m -15.116901,281.62948 a 0.95585562,0.95585505 0 0 0 -0.821139,0.3328 c -0.864066,1.22947 -1.578216,2.57183 -2.121318,3.99975 h -0.0057 c -0.02355,0.0621 -0.04377,0.12571 -0.06666,0.1881 -0.02223,0.0605 -0.04299,0.12165 -0.0646,0.18242 -0.06054,0.17058 -0.120632,0.34128 -0.176216,0.51418 -0.01229,0.0382 -0.02309,0.077 -0.03514,0.11524 -0.100098,0.31859 -0.190991,0.64141 -0.273886,0.96738 -0.02476,0.0972 -0.05121,0.19367 -0.07441,0.29146 -0.03019,0.12752 -0.05672,0.25643 -0.08423,0.38499 -0.02698,0.12582 -0.05417,0.25148 -0.07855,0.37827 -0.0223,0.11624 -0.04191,0.23334 -0.06201,0.35037 -0.02461,0.14299 -0.04797,0.28632 -0.06925,0.43046 -0.01647,0.11183 -0.03206,0.22392 -0.04651,0.33641 -0.01947,0.15133 -0.03644,0.3033 -0.05219,0.45579 -0.011,0.10668 -0.02236,0.21316 -0.03152,0.32039 -0.01477,0.17245 -0.02569,0.34605 -0.03566,0.51987 -0.0051,0.0898 -0.01218,0.17908 -0.01602,0.26923 -0.01127,0.26394 -0.01809,0.52898 -0.01809,0.79582 v 1.65985 c 0,2.21218 0.389759,4.3301 1.104326,6.28902 0.204162,0.55969 0.434682,1.10642 0.690397,1.63866 0.639289,1.33059 1.435132,2.57086 2.363681,3.69693 0.3715,0.45052 0.764148,0.8825 1.176674,1.29501 0.412349,0.41233 0.844165,0.80482 1.294495,1.17616 1.01e-4,8e-5 4.17e-4,-9e-5 5.17e-4,0 0.225113,0.18562 0.454808,0.36624 0.688847,0.54105 1.09e-4,8e-5 4.08e-4,-8e-5 5.17e-4,0 0.23404,0.1748 0.472097,0.34436 0.714686,0.50798 1.16e-4,8e-5 4e-4,-8e-5 5.17e-4,0 0.242589,0.16361 0.489244,0.32182 0.740006,0.47387 1.24e-4,8e-5 3.93e-4,-7e-5 5.17e-4,0 0.5016545,0.30417 1.0192239,0.58513 1.5513272,0.84078 1.39e-4,6e-5 3.79e-4,-7e-5 5.17e-4,0 0.2659821,0.12778 0.5357103,0.24974 0.8087365,0.36483 1.45e-4,6e-5 3.72e-4,-6e-5 5.17e-4,0 0.2730271,0.11509 0.5491953,0.22354 0.8288904,0.32556 1.51e-4,6e-5 3.66e-4,-5e-5 5.17e-4,0 0.2796962,0.10202 0.5625394,0.19771 0.8485276,0.28629 1.56e-4,5e-5 3.6e-4,-5e-5 5.17e-4,0 0.2859891,0.0886 0.5752253,0.17071 0.8671305,0.24546 1.61e-4,5e-5 3.56e-4,-4e-5 5.17e-4,0 0.2919071,0.0747 0.5867383,0.14253 0.8841845,0.20309 1.65e-4,4e-5 3.51e-4,-3e-5 5.16e-4,0 0.2974492,0.0606 0.5970764,0.1137 0.8996875,0.15968 1.69e-4,3e-5 3.48e-4,-2e-5 5.17e-4,0 0.3026142,0.046 0.6077884,0.0847 0.9151896,0.11576 1.71e-4,10e-6 3.46e-4,-2e-5 5.17e-4,0 0.3074052,0.031 0.6173284,0.0546 0.9291385,0.0703 1.8e-4,1e-5 3.5e-4,-10e-6 5.2e-4,0 0.3118202,0.0157 0.6256904,0.0238 0.94155061,0.0238 h 5.1e-4 1.99058118 c 5.05641301,0 9.62006591,-2.03512 12.91962791,-5.33456 0.41253,-0.41251 0.80518,-0.84449 1.176681,-1.29501 0.92859,-1.12607 1.724351,-2.36634 2.363681,-3.69693 0.25571,-0.53224 0.48623,-1.07897 0.69039,-1.63866 C 18.86028,298.45241 19.25,296.33449 19.25,294.12231 v -1.65985 c 0,-0.26684 -0.0068,-0.53188 -0.01809,-0.79582 -0.0038,-0.0902 -0.01088,-0.17943 -0.01602,-0.26923 -0.01,-0.17383 -0.02088,-0.34742 -0.03565,-0.51987 -0.0092,-0.10723 -0.02053,-0.21371 -0.03153,-0.32039 -0.01575,-0.15249 -0.03272,-0.30446 -0.05219,-0.45579 -0.01444,-0.1125 -0.03004,-0.22458 -0.04651,-0.33641 -0.02128,-0.14414 -0.04463,-0.28747 -0.06925,-0.43047 -0.02009,-0.11702 -0.0397,-0.23412 -0.06201,-0.35036 -0.02438,-0.1268 -0.05156,-0.25245 -0.07855,-0.37827 -0.0275,-0.12856 -0.05404,-0.25747 -0.08423,-0.38499 -0.0232,-0.0978 -0.04965,-0.1943 -0.07441,-0.29146 -0.0829,-0.32597 -0.17379,-0.64879 -0.273891,-0.96738 -0.01204,-0.0383 -0.02285,-0.0771 -0.03514,-0.11524 -0.05558,-0.1729 -0.11567,-0.3436 -0.17621,-0.51418 -0.02161,-0.0608 -0.04237,-0.12195 -0.0646,-0.18242 -0.02289,-0.0624 -0.04311,-0.12603 -0.06666,-0.1881 h -0.0057 c -0.5431,-1.42792 -1.25725,-2.77028 -2.121311,-3.99975 a 0.95585562,0.95585505 0 0 0 -0.82114,-0.3328 0.95585562,0.95585505 0 0 0 -0.430471,0.15089 0.95585562,0.95585505 0 0 0 -0.35346,1.16376 c 0.6856,0.95947 1.265261,1.99918 1.735291,3.09748 0.06503,0.1521 0.12593,0.30655 0.18655,0.46096 0.07695,0.19603 0.14952,0.3941 0.21911,0.59376 0.13934,0.39911 0.268621,0.8029 0.377761,1.21543 0.20811,0.78666 0.35811,1.59721 0.44855,2.42621 0.0064,0.0591 0.01179,0.11847 0.01757,0.17776 0.01989,0.20266 0.03557,0.40651 0.04806,0.61134 0.0045,0.0752 0.0099,0.15031 0.01343,0.22582 0.01238,0.26178 0.02067,0.52462 0.02067,0.78962 v 1.49965 c 0,1.99958 -0.35198,3.91371 -0.997871,5.6844 -0.18455,0.50592 -0.3931,1.00047 -0.62425,1.48157 -0.23115,0.4811 -0.48513,0.94893 -0.760161,1.4025 -0.27503,0.45356 -0.5711,0.89289 -0.88729,1.3162 -0.47427,0.63495 -0.993661,1.23396 -1.552871,1.79317 -2.9824518,2.98245 -7.1073742,4.82244 -11.67784696,4.82244 h -1.79938108 -5.1e-4 c -0.28548016,0 -0.56928036,-0.007 -0.85111046,-0.0212 -1.8e-4,0 -3.5e-4,10e-6 -5.2e-4,0 -0.2818302,-0.0142 -0.5618974,-0.0355 -0.8397425,-0.0636 -1.71e-4,-1e-5 -3.46e-4,2e-5 -5.17e-4,0 -0.2778422,-0.0281 -0.5533084,-0.0633 -0.8268235,-0.1049 -1.68e-4,-3e-5 -3.48e-4,3e-5 -5.17e-4,0 -0.2735122,-0.0416 -0.5450584,-0.0894 -0.8139045,-0.14418 -1.65e-4,-3e-5 -3.51e-4,4e-5 -5.16e-4,0 -0.2688442,-0.0547 -0.5350813,-0.1164 -0.7989185,-0.18397 -1.61e-4,-4e-5 -3.56e-4,5e-5 -5.17e-4,0 -0.2638352,-0.0676 -0.5249263,-0.14163 -0.7834155,-0.22169 -1.56e-4,-5e-5 -3.6e-4,5e-5 -5.16e-4,0 -0.2584871,-0.0801 -0.5140783,-0.16617 -0.7668794,-0.25838 -1.5e-4,-5e-5 -3.65e-4,6e-5 -5.16e-4,0 -0.7587055,-0.27677 -1.4912699,-0.608 -2.1926323,-0.98805 -1.32e-4,-7e-5 -3.86e-4,7e-5 -5.17e-4,0 -0.2336972,-0.12665 -0.4637473,-0.25893 -0.6903975,-0.39636 -1.24e-4,-8e-5 -3.93e-4,7e-5 -5.17e-4,0 -0.2266501,-0.13744 -0.4494302,-0.28051 -0.6686938,-0.4284 -1.17e-4,-8e-5 -4e-4,8e-5 -5.17e-4,0 -0.438645,-0.29587 -0.862134,-0.61262 -1.269173,-0.94826 -1.01e-4,-8e-5 -4.16e-4,8e-5 -5.17e-4,0 -0.40704,-0.33566 -0.797245,-0.69079 -1.169955,-1.0635 -0.559209,-0.55921 -1.078605,-1.15822 -1.552878,-1.79317 -0.316182,-0.42331 -0.612256,-0.86264 -0.887284,-1.3162 -0.275015,-0.45357 -0.529024,-0.9214 -0.760162,-1.4025 -0.23115,-0.4811 -0.439701,-0.97565 -0.624251,-1.48157 -0.645888,-1.77069 -0.997873,-3.68482 -0.997873,-5.6844 v -1.49965 c 0,-0.265 0.0083,-0.52784 0.02067,-0.78962 0.0035,-0.0755 0.0089,-0.15059 0.01344,-0.22582 0.01248,-0.20483 0.02816,-0.40868 0.04806,-0.61134 0.0058,-0.0593 0.01117,-0.11866 0.01757,-0.17776 0.09044,-0.829 0.240432,-1.63955 0.448551,-2.42621 0.109137,-0.41253 0.238421,-0.81632 0.377756,-1.21543 0.06959,-0.19966 0.142162,-0.39773 0.219108,-0.59376 0.06062,-0.15441 0.121525,-0.30886 0.186552,-0.46096 0.470033,-1.0983 1.04969,-2.13801 1.735295,-3.09748 a 0.95585562,0.95585505 0 0 0 -0.353466,-1.16376 0.95585562,0.95585505 0 0 0 -0.430466,-0.15089 z" />
  </g>
</svg>
