<?xml version="1.0" encoding="UTF-8" standalone="no"?>
<!-- Created with Inkscape (http://www.inkscape.org/) -->

<svg
   width="210mm"
   height="297mm"
   viewBox="0 0 210 297"
   version="1.1"
   id="svg1"
   inkscape:version="1.3.2 (091e20e, 2023-11-25, custom)"
   sodipodi:docname="VengeAllcityStempProfile.svg"
   xmlns:inkscape="http://www.inkscape.org/namespaces/inkscape"
   xmlns:sodipodi="http://sodipodi.sourceforge.net/DTD/sodipodi-0.dtd"
   xmlns="http://www.w3.org/2000/svg"
   xmlns:svg="http://www.w3.org/2000/svg">
  <sodipodi:namedview
     id="namedview1"
     pagecolor="#ffffff"
     bordercolor="#000000"
     borderopacity="0.25"
     inkscape:showpageshadow="2"
     inkscape:pageopacity="0.0"
     inkscape:pagecheckerboard="0"
     inkscape:deskcolor="#d1d1d1"
     inkscape:document-units="mm"
     inkscape:zoom="2.768771"
     inkscape:cx="126.77105"
     inkscape:cy="1187.3499"
     inkscape:window-width="1920"
     inkscape:window-height="991"
     inkscape:window-x="-9"
     inkscape:window-y="-9"
     inkscape:window-maximized="1"
     inkscape:current-layer="layer1" />
  <defs
     id="defs1" />
  <g
     inkscape:label="Layer 1"
     inkscape:groupmode="layer"
     id="layer1">
    <path
       style="fill:#4d4d4d;fill-opacity:0.442348;stroke-width:0.365001"
       d="m -14.875312,280.55195 c -0.359942,-0.0124 -0.790183,0.0337 -1.303796,0.15554 -3.224979,3.69823 -4.809608,8.0651 -4.820892,12.70414 2.4e-5,2.41624 0.449943,4.73233 1.27434,6.87658 0.117767,0.30632 0.243373,0.60886 0.376204,0.90795 0.265722,0.59835 0.560814,1.18183 0.884184,1.74873 0.161641,0.28339 0.33001,0.56226 0.505394,0.83716 0.526233,0.82485 1.113391,1.61035 1.755449,2.35128 0.21398,0.24694 0.43394,0.48876 0.659907,0.72554 8.8e-5,9e-5 -8.8e-5,4.2e-4 0,5.1e-4 0.225887,0.23669 0.457624,0.4679 0.695048,0.69402 0.237687,0.22638 0.480861,0.44712 0.729671,0.66249 0.248617,0.21521 0.502425,0.42459 0.76171,0.62839 0.06542,0.0514 0.133909,0.0992 0.199988,0.14986 0.195848,0.15019 0.391709,0.30036 0.593245,0.4439 0.269626,0.19204 0.544301,0.37781 0.823721,0.55759 0.279298,0.1797 0.562984,0.35334 0.851628,0.52038 1.27e-4,7e-5 3.89e-4,-7e-5 5.17e-4,0 0.288517,0.16695 0.581599,0.32775 0.879016,0.48162 1.34e-4,7e-5 3.82e-4,-7e-5 5.17e-4,0 0.2974164,0.15387 0.5989762,0.30095 0.9048531,0.44132 2.1e-4,1e-4 3.07e-4,4.2e-4 5.17e-4,5.2e-4 0.3058178,0.14033 0.6158236,0.27355 0.9296585,0.39997 2.1e-4,9e-5 3.06e-4,4.3e-4 5.16e-4,5.2e-4 0.5514807,0.22214 1.1170054,0.41842 1.6913691,0.59583 0.07967,0.0246 0.157626,0.0528 0.2377119,0.0765 1.57e-4,5e-5 3.59e-4,-5e-5 5.16e-4,0 0.08886,0.0263 0.1798769,0.0476 0.2692349,0.0729 0.4991227,0.14089 1.0054035,0.26526 1.5192862,0.37104 0.0748,0.0154 0.148151,0.0345 0.2232419,0.0491 1.66e-4,3e-5 3.51e-4,-3e-5 5.17e-4,0 0.3415928,0.0666 0.6861117,0.12514 1.0335275,0.1757 1.69e-4,3e-5 3.48e-4,-2e-5 5.17e-4,0 0.3474188,0.0505 0.6977797,0.093 1.0505815,0.12713 1.71e-4,1e-5 3.46e-4,-2e-5 5.17e-4,0 0.3528048,0.0341 0.7083346,0.0602 1.0660844,0.0775 0.35809786,0.0173 0.71845868,0.0258 1.08106949987,0.0258 C 1.5296417,313.41144 3.019308,313.25188 4.4557973,312.95619 c 0.5138827,-0.10578 1.0201635,-0.23015 1.5192872,-0.37104 0.1700189,-0.048 0.3392728,-0.0974 0.5074618,-0.14934 0.5743647,-0.17741 1.1398884,-0.37369 1.6913691,-0.59583 0.4750278,-0.19134 0.9378245,-0.40388 1.3942293,-0.62684 1.2781523,-0.62441 2.4805483,-1.36818 3.5899603,-2.21898 0.06587,-0.0505 0.134263,-0.0981 0.199471,-0.14935 1.91e-4,-1.5e-4 3.26e-4,-3.6e-4 5.17e-4,-5.1e-4 0.518376,-0.40744 1.015999,-0.83814 1.490864,-1.29036 1.76e-4,-1.7e-4 3.4e-4,-3.5e-4 5.17e-4,-5.2e-4 0.237424,-0.22612 0.469161,-0.45733 0.695048,-0.69402 8.8e-5,-9e-5 -8.8e-5,-4.2e-4 0,-5.1e-4 0.903766,-0.94702 1.713867,-1.97684 2.415355,-3.0763 7.9e-5,-1.2e-4 -7.9e-5,-3.9e-4 0,-5.2e-4 0.526072,-0.82456 0.991126,-1.68825 1.389578,-2.58537 6.5e-5,-1.4e-4 -6.4e-5,-3.7e-4 0,-5.2e-4 1.062653,-2.39272 1.650517,-5.02316 1.650545,-7.78453 -0.01128,-4.63904 -1.595913,-9.00591 -4.820893,-12.70414 -0.513612,-0.12184 -0.943853,-0.16794 -1.303795,-0.15554 -2.519587,0.087 -1.587499,3.04684 -1.587499,3.04684 0.638958,0.83698 1.18923,1.72883 1.650544,2.65978 0.134754,0.27279 0.262079,0.54865 0.381372,0.82786 0.140238,0.32807 0.266306,0.66173 0.384473,0.99787 0.04692,0.1332 0.08989,0.26772 0.133325,0.40205 0.08264,0.25632 0.159172,0.51448 0.228926,0.77463 0.0371,0.13775 0.07714,0.27469 0.110587,0.41341 0.01101,0.0459 0.02092,0.092 0.03152,0.13797 0.05427,0.23404 0.102984,0.46945 0.146761,0.7059 0.01054,0.0572 0.02212,0.11422 0.03204,0.17157 0.04612,0.26518 0.0856,0.53174 0.118339,0.79943 0.0093,0.0761 0.0161,0.15265 0.02429,0.22893 0.02155,0.20015 0.03926,0.40077 0.05323,0.60203 0.0065,0.094 0.01267,0.18795 0.01757,0.28215 0.01386,0.26906 0.02418,0.53876 0.02429,0.80926 -2.6e-5,1.41307 -0.181779,2.78423 -0.523482,4.09225 -0.136681,0.52321 -0.298766,1.03629 -0.485241,1.53789 -0.466188,1.254 -1.083966,2.43644 -1.830895,3.52537 -0.448158,0.65336 -0.942806,1.27308 -1.479496,1.85467 -0.178897,0.19386 -0.362316,0.38324 -0.550353,0.56844 -0.21576,0.21251 -0.438807,0.41742 -0.66611,0.61805 -0.367135,0.32406 -0.74711,0.63372 -1.1425645,0.92501 -0.4269128,0.31446 -0.8693015,0.60901 -1.3265343,0.88263 -0.6853457,0.41013 -1.4035853,0.77302 -2.1492219,1.08365 -0.4972368,0.20716 -1.0064705,0.39088 -1.5270373,0.55036 -0.4615297,0.14139 -0.9329635,0.26036 -1.4107663,0.36225 -1.1389894,0.24289 -2.3203158,0.37413 -3.53311620013,0.37414 -0.57403270987,10e-6 -1.14110239987,-0.0288 -1.70015319987,-0.0847 -0.2792648,-0.0279 -0.5564687,-0.0625 -0.8314735,-0.10387 -1.68e-4,-3e-5 -3.48e-4,2e-5 -5.17e-4,0 -0.2750009,-0.0414 -0.5481608,-0.0897 -0.8185536,-0.14418 -1.66e-4,-3e-5 -3.52e-4,3e-5 -5.17e-4,0 -0.06137,-0.0124 -0.121299,-0.0283 -0.1824179,-0.0413 -0.4778028,-0.10189 -0.9492366,-0.22086 -1.4107663,-0.36225 -0.2602829,-0.0797 -0.5174198,-0.16552 -0.7720446,-0.25735 -0.2546329,-0.0918 -0.5063668,-0.18943 -0.7549927,-0.29301 -0.7456366,-0.31063 -1.4638762,-0.67352 -2.1492219,-1.08365 -2.04e-4,-1.2e-4 -3.12e-4,-3.9e-4 -5.17e-4,-5.2e-4 -0.2283049,-0.13663 -0.4529408,-0.2783 -0.6738597,-0.42529 -2e-4,-1.4e-4 -3.17e-4,-3.9e-4 -5.17e-4,-5.2e-4 -0.2211098,-0.14713 -0.4382777,-0.29914 -0.6516396,-0.4563 -0.2134745,-0.15725 -0.4230135,-0.31934 -0.6283845,-0.48628 -0.174996,-0.14225 -0.345304,-0.28967 -0.514181,-0.43873 -0.02922,-0.0258 -0.05985,-0.05 -0.08888,-0.076 -0.196823,-0.1762 -0.389195,-0.35688 -0.577226,-0.54208 -0.188037,-0.1852 -0.371456,-0.37458 -0.550353,-0.56844 -0.53669,-0.58159 -1.031338,-1.20131 -1.479496,-1.85467 -1.35e-4,-2e-4 -3.82e-4,-3.2e-4 -5.17e-4,-5.2e-4 -0.149381,-0.21778 -0.293167,-0.43897 -0.432014,-0.66404 -0.555411,-0.9003 -1.025414,-1.85761 -1.398364,-2.86081 -0.186475,-0.5016 -0.348561,-1.01468 -0.485241,-1.53789 -0.341703,-1.30802 -0.523457,-2.67918 -0.523482,-4.09225 1.09e-4,-0.2705 0.01043,-0.5402 0.02429,-0.80926 0.0049,-0.0942 0.01103,-0.18816 0.01757,-0.28215 0.01396,-0.20126 0.03168,-0.40188 0.05323,-0.60203 0.0082,-0.0763 0.01502,-0.15282 0.02429,-0.22893 0.03274,-0.26769 0.07222,-0.53425 0.118339,-0.79943 0.0099,-0.0573 0.0215,-0.11435 0.03204,-0.17157 0.04378,-0.23645 0.09249,-0.47186 0.146761,-0.7059 0.01061,-0.046 0.02052,-0.0921 0.03152,-0.13797 0.03345,-0.13872 0.07349,-0.27566 0.110588,-0.41341 0.06976,-0.26015 0.146287,-0.51831 0.228926,-0.77463 0.04344,-0.13433 0.08641,-0.26885 0.133325,-0.40205 0.118166,-0.33614 0.244234,-0.6698 0.384472,-0.99787 0.119293,-0.27921 0.246619,-0.55507 0.381372,-0.82786 0.461314,-0.93095 1.011587,-1.8228 1.650545,-2.65978 0,0 0.932087,-2.95987 -1.587499,-3.04684 z"
       id="path2" />
  </g>
</svg>
