<?xml version="1.0" encoding="UTF-8" standalone="no"?>
<!-- Created with Inkscape (http://www.inkscape.org/) -->

<svg
   width="210mm"
   height="297mm"
   viewBox="0 0 210 297"
   version="1.1"
   id="svg1"
   inkscape:version="1.3.2 (091e20e, 2023-11-25, custom)"
   sodipodi:docname="Zipppp Service Course Profile.svg"
   xml:space="preserve"
   xmlns:inkscape="http://www.inkscape.org/namespaces/inkscape"
   xmlns:sodipodi="http://sodipodi.sourceforge.net/DTD/sodipodi-0.dtd"
   xmlns="http://www.w3.org/2000/svg"
   xmlns:svg="http://www.w3.org/2000/svg"><sodipodi:namedview
     id="namedview1"
     pagecolor="#ffffff"
     bordercolor="#000000"
     borderopacity="0.25"
     inkscape:showpageshadow="2"
     inkscape:pageopacity="0.0"
     inkscape:pagecheckerboard="0"
     inkscape:deskcolor="#d1d1d1"
     inkscape:document-units="mm"
     inkscape:zoom="0.34609638"
     inkscape:cx="-267.26659"
     inkscape:cy="720.89746"
     inkscape:window-width="1920"
     inkscape:window-height="991"
     inkscape:window-x="-9"
     inkscape:window-y="-9"
     inkscape:window-maximized="1"
     inkscape:current-layer="layer1" /><defs
     id="defs1" /><g
     inkscape:label="Layer 1"
     inkscape:groupmode="layer"
     id="layer1"><path
       id="path2"
       style="opacity:0.422323;fill:#000000"
       d="m 261.87748,39.399263 c -5.29412,0.18837 -12.31122,-0.771386 -15.65292,4.386125 -1.64961,3.84374 -3.07684,7.492608 -3.32843,11.736704 -0.86746,5.06592 0.0526,10.373472 1.11105,15.336996 1.30334,5.308548 5.68417,9.406492 11.38151,8.937577 5.54724,0.194781 12.60759,0.946521 16.503,-3.881282 4.2364,-6.420459 4.77705,-14.686427 3.78318,-22.135281 -1.02732,-4.595013 -2.266,-10.132162 -6.57364,-12.737055 -2.23128,-1.119104 -4.80759,-1.495381 -7.22375,-1.643784 z"
       sodipodi:nodetypes="ccccccccc" /><path
       d="m 70.332421,40.673928 h 26.528 0.001 c 4.673999,0 4.833999,0 -0.956,0 h -0.001 -24.426 v -3e-4 c -5.288,-1e-4 -5.706,2e-4 -1.146,3e-4 z"
       style="opacity:0.911011;fill:#ff6600;fill-opacity:0.541063"
       id="path11" /><path
       id="path19"
       style="opacity:0.911011;fill:#ff6600;fill-opacity:0.541063;stroke-width:1.0112"
       d="m -0.31662672,277.00002 c -3.83840698,0.077 -7.99643798,0.43435 -11.16598528,2.79968 -1.312718,1.1759 -2.00178,2.85978 -2.90273,4.33568 -2.56874,5.51889 -2.654249,11.7976 -2.207211,17.75294 0.380103,3.88668 1.438712,7.77773 3.680027,11.02647 1.634494,3.04747 5.3917863,3.85726 8.5443303,4.33557 4.70471798,0.53762 9.664109,0.30515 14.05416,-1.59799 2.7955367,-1.13956 4.0206427,-4.0978 5.1082317,-6.67788 2.361117,-6.40426 2.549475,-13.52071 1.027387,-20.13958 -0.804617,-3.08967 -1.958828,-6.2296 -4.101412,-8.65648 C 8.8089003,277.80158 4.8770843,277.30035 1.2410373,277.041 0.72229323,277.0145 0.20238328,277.0041 -0.31662672,277 Z" /><path
       id="path20"
       style="opacity:0.422323;fill:#000000"
       d="m 135.56523,8.5120719 c -0.0352,0.03531 -0.0712,0.0652 -0.10335,0.140043 -0.0271,0.06323 -0.0297,0.07465 -0.0429,0.10697 -0.0322,-0.0024 -0.0655,-0.0041 -0.10181,0.0021 -0.0742,0.01249 -0.41599,0.0041 -0.78031,-0.0155 -0.0848,-0.117398 -0.17315,-0.199954 -0.23306,-0.211873 h -5.2e-4 c -0.007,-8.69e-4 -0.007,0.009 -0.0139,0.0093 v 0.191719 c -0.36108,-0.02027 -0.75074,-0.03843 -0.87643,-0.03669 -0.14079,0.0018 -0.2206,-0.0097 -0.27906,-0.04909 h -0.5643 c -0.0522,0.06519 -0.12364,0.10074 -0.22945,0.06718 -0.0516,-0.0164 -0.52449,-0.03754 -1.05058,-0.04754 -0.47593,-0.0089 -0.82268,-0.01651 -0.92656,-0.01964 h -0.53588 c -0.055,0.0012 -0.28886,0.02852 -0.5333,0.06305 -0.24847,0.0352 -0.64868,0.07485 -0.88987,0.08785 -0.4259,0.023 -0.43747,0.02142 -0.38447,-0.06408 0.0291,-0.04699 0.005,-0.06383 -0.008,-0.08682 h -0.19431 c -0.009,0.01755 -0.0265,0.02272 -0.03,0.04703 -0.0217,0.15375 -0.0766,0.178517 -0.39222,0.179317 -0.17464,4e-4 -0.30896,0.02635 -0.37466,0.07235 -0.0738,0.0514 -0.18686,0.06846 -0.40514,0.06046 -0.16662,-0.0062 -0.3539,0.01007 -0.416,0.03617 -0.056,0.02352 -0.16576,0.05049 -0.28473,0.07545 -0.001,-0.10067 -0.003,-0.13297 -0.005,-0.22531 h -0.37207 c 7.2e-4,0.111391 -7.2e-4,0.181081 -5.2e-4,0.28112 -0.0444,0.0044 -0.10909,0.01705 -0.14004,0.01705 -0.0778,0 -0.15152,0.01627 -0.16382,0.03617 -0.0123,0.0199 -0.10984,0.04047 -0.21704,0.04547 -0.21844,0.01083 -0.50821,0.07174 -0.93379,0.195854 -0.15791,0.046 -0.35113,0.08372 -0.42943,0.08372 l -5.2e-4,-5.17e-4 c -0.0783,0 -0.20827,0.01876 -0.28887,0.04186 -0.13291,0.0381 -0.14686,0.03297 -0.14986,-0.05633 -0.002,-0.07347 0.007,-0.499448 0.016,-0.889868 h -0.36122 l -0.0253,1.044898 -0.32246,0.155029 c -0.17723,0.08524 -0.42695,0.1771391 -0.55501,0.2046391 -0.12805,0.02747 -0.32294,0.109518 -0.43305,0.182418 -0.0915,0.06061 -0.26129,0.141682 -0.41393,0.204121 -0.0155,-0.01063 -0.0325,-0.01897 -0.0481,-0.03359 l -0.10697,-0.100253 -0.092,0.0987 -0.0915,0.09819 h -2.18953 c -1.71984,0 -2.19011,-0.01193 -2.19211,-0.05633 -0.001,-0.02127 -0.001,-0.8582501 -0.002,-1.5523601 h -0.34778 c -0.005,0.42473 -0.008,1.5854641 -0.0134,1.5885341 -0.0147,0.0091 -1.00487,0.02191 -2.19986,0.02791 -0.31076,0.0016 -0.34583,-0.0012 -0.57516,-5.17e-4 v 0.34985 c 0.84028,-0.0038 1.78329,-0.0068 2.11253,-0.0078 0.23023,-6.74e-4 0.32016,0.0081 0.4346,0.01499 v 0.254248 c 0.12427,0.0016 0.11114,0.0011 0.22273,0.0026 0.0235,0.562816 0.0311,2.558086 0.0196,5.831686 -0.009,2.591677 -0.0237,3.314262 -0.0677,3.327962 -0.0309,0.0096 -1.02479,0.02996 -2.20865,0.04496 -0.3621,0.0046 -0.24929,-0.0075 -0.51315,-0.0057 v 0.343132 c 0.4074,-0.0033 0.89083,-0.01 1.15083,-0.01137 l 1.3963,-0.0078 v 0.02325 l 0.20154,-0.0016 c -0.26109,1.147272 -0.45952,2.352953 -0.59428,3.59668 -0.0256,0.03578 -0.0548,0.07554 -0.0548,0.09457 0,0.02637 -0.0681,0.187678 -0.15193,0.358118 -0.0838,0.17045 -0.16666,0.355444 -0.18396,0.411344 -0.0213,0.06895 -0.0671,0.101803 -0.1416,0.101803 -0.1272,0 -0.14471,0.10796 -0.0403,0.245979 0.0998,0.13197 0.0797,0.386413 -0.0506,0.648023 l -0.11627,0.234094 0.14676,0.226343 c 0.0807,0.12463 0.16379,0.226859 0.18449,0.226859 0.0546,0 0.046,0.153974 -0.0119,0.211874 -0.0727,0.07273 -0.0732,0.657804 -5.2e-4,1.098124 0.0827,0.50104 0.072,0.715478 -0.0439,0.872298 -0.0856,0.11573 -0.0896,0.148435 -0.0419,0.361735 0.0288,0.12889 0.0914,0.309109 0.13901,0.401009 0.0476,0.09185 0.0868,0.17757 0.0868,0.19017 0,0.048 -0.32774,0.0706 -1.33274,0.0925 -0.31904,0.0069 -0.26392,0.0029 -0.54105,0.0088 v 0.311609 c 0.17199,-0.0036 0.25284,-0.0029 0.42788,-0.0067 1.27152,-0.0277 1.28856,-0.0267 1.37356,0.0677 0.0803,0.08923 0.0866,0.190152 0.0956,1.507401 0.008,1.237219 0.02,1.433781 0.0899,1.592151 0.0489,0.11084 0.0872,0.338171 0.0997,0.587561 0.0112,0.22363 0.0425,0.432688 0.0692,0.465088 0.0637,0.0769 0.11875,0.381516 0.16485,0.912606 0.0205,0.236049 0.0595,0.540818 0.0868,0.677478 0.0273,0.13666 0.0726,0.411519 0.10026,0.610298 0.0172,0.123613 0.0533,0.262486 0.0853,0.403593 l -0.046,-5.16e-4 v 0.360701 h 0.12557 c 0.0475,0.206612 0.0589,0.449682 0.0589,1.18029 0,0.554979 -0.015,1.018411 -0.0336,1.029911 -0.0186,0.0114 -0.69469,0.03348 -1.50223,0.04858 -0.43854,0.0082 -0.77254,0.01843 -1.19579,0.02894 v 0.309541 c 0.28776,-0.0064 0.39249,-0.01431 0.79065,-0.02067 0.90693,-0.0145 1.70515,-0.03531 1.77405,-0.04651 0.0761,-0.0123 0.13354,0.0024 0.14624,0.03721 v 5.17e-4 c 0.006,0.01592 0.0105,1.258026 0.016,1.990576 -0.0484,-0.08652 -0.13373,-0.0928 -0.18035,-0.03566 v 0.13746 c 0.0262,0.02265 0.0632,0.03927 0.11886,0.03927 0.0269,0 0.0462,-0.0013 0.0625,-0.0036 0.0113,1.578845 0.0153,2.815664 0.015,4.490166 -0.0994,0.0013 -0.0866,6.58e-4 -0.19585,0.0021 v 0.335896 c 0.0833,-1.57e-4 0.10713,2.3e-4 0.19585,0 -6.2e-4,0.569812 0.004,1.596005 0,1.785421 -0.003,0.17341 -0.009,0.217526 -0.0134,0.310576 h 0.34313 c -0.0254,-0.30653 -0.0262,-0.84175 -0.0233,-2.001429 9e-5,-0.04123 9.3e-4,-0.05441 0.001,-0.09457 0.24018,-4.09e-4 0.58477,-0.0018 0.59066,5.17e-4 0.0173,0.007 0.73877,0.0091 1.60352,0.0041 h 5.2e-4 c 1.00965,-0.0056 1.50367,-0.0087 1.76526,0.0031 -6e-5,0.03035 0.0144,0.0683 0.0512,0.113688 0.0869,0.10737 0.23668,0.08813 0.23668,-0.03049 0,-0.01496 0.009,-0.02023 0.0145,-0.02842 0.0169,0.01149 0.0319,0.0246 0.0486,0.04031 0.0537,0.0505 0.23554,0.141948 0.40411,0.203088 0.0609,0.02207 0.13086,0.0545 0.19895,0.08527 0.0627,0.08317 0.12497,0.193111 0.14728,0.275952 0.0709,0.26344 0.20832,0.334595 0.62735,0.326595 0.29328,-0.0056 0.35875,0.0074 0.44545,0.08888 0.0613,0.0576 0.16016,0.09521 0.24856,0.09457 0.0182,-1.35e-4 0.11386,-0.002 0.15193,-0.0026 l 0.0233,0.962215 h 0.36122 c -0.009,-0.39042 -0.018,-0.816398 -0.016,-0.889868 0.003,-0.0893 0.017,-0.09443 0.14986,-0.05633 0.0806,0.0231 0.21057,0.04186 0.28887,0.04186 l 5.2e-4,-5.16e-4 c 0.0745,0 0.25249,0.0351 0.40566,0.07803 l 0.0326,0.03152 c 0.42693,0.413429 0.33763,0.379383 0.91726,0.350883 0.4752,-0.0234 0.52444,-0.01801 0.56534,0.05839 0.0246,0.046 0.0412,0.110037 0.0372,0.142627 -0.004,0.03245 -0.0154,0.123492 -0.0253,0.202572 h 0.37259 c -0.007,-0.04418 -0.0248,-0.0391 -0.0248,-0.119373 0,-0.15847 0.021,-0.265865 0.0532,-0.294556 0.0888,0.02044 0.16799,0.04077 0.21239,0.05943 0.0621,0.0261 0.24938,0.04237 0.416,0.03617 0.21828,-0.008 0.33134,0.0091 0.40514,0.06046 0.0657,0.046 0.20002,0.07195 0.37466,0.07235 0.31562,8e-4 0.37052,0.02557 0.39222,0.179317 0.004,0.02431 0.021,0.02948 0.03,0.04703 h 0.19431 c 0.013,-0.02299 0.0369,-0.03983 0.008,-0.08682 -0.053,-0.0855 -0.0414,-0.08708 0.38447,-0.06408 0.24119,0.013 0.6414,0.05265 0.88987,0.08785 0.24444,0.03453 0.4783,0.06185 0.5333,0.06305 h 0.53588 c 0.10388,-0.0031 0.45063,-0.01074 0.92656,-0.01964 0.52609,-0.01 0.99898,-0.03114 1.05058,-0.04754 0.0127,-0.004 0.0234,-0.0041 0.0351,-0.0062 0.0232,-7.07e-4 0.0465,-7.92e-4 0.0698,-0.0015 0.051,0.0081 0.0921,0.0344 0.12454,0.07493 h 0.5643 c 0.0585,-0.03939 0.13827,-0.05089 0.27906,-0.04909 0.14459,0.002 0.59822,-0.01727 1.0082,-0.04237 0.40996,-0.02507 0.81347,-0.03457 0.89607,-0.02067 0.0917,0.0155 0.17766,0.003 0.22066,-0.03307 0.0387,-0.0322 0.21492,-0.07295 0.39171,-0.09095 0.75877,-0.0772 1.06629,-0.123617 1.16169,-0.174667 0.0666,-0.03557 0.20292,-0.04477 0.39532,-0.02687 0.029,0.0027 0.0518,0.0017 0.0796,0.0031 -0.001,0.0042 -0.003,0.0059 -0.004,0.01137 h 0.37259 c -0.002,-0.01937 -0.004,-0.02984 -0.006,-0.04961 0.0778,-0.01397 0.18166,-0.0269 0.30954,-0.03256 0.33426,-0.0149 0.37624,-0.02788 0.55811,-0.174149 0.14401,-0.1158 0.24673,-0.160649 0.38395,-0.167949 0.51377,-0.0273 0.78027,-0.07244 0.86507,-0.147277 0.13659,-0.12046 0.26284,-0.175901 0.52761,-0.231511 0.13236,-0.0278 0.27133,-0.07754 0.30903,-0.110587 0.0103,-0.0091 0.045,-0.01888 0.0687,-0.02842 0.009,-0.003 0.0159,-0.0062 0.0243,-0.0098 0.1798,-0.06232 0.56224,-0.122635 0.6475,-0.08992 0.068,0.02608 0.0854,-0.01084 0.0506,-0.06615 0.29365,-0.01457 0.41469,-0.09521 0.47543,-0.32091 0.018,-0.06702 0.0635,-0.150158 0.11265,-0.225826 0.0498,-0.02694 0.0934,-0.04679 0.11731,-0.04703 0.016,-1.5e-4 0.0385,0.02523 0.0501,0.05633 h 5.2e-4 c 0.0116,0.0311 0.0276,0.402357 0.0346,0.824756 6.9e-4,0.04137 0.002,0.06795 0.003,0.110588 -8e-5,0.0012 -0.002,0.0019 -0.002,0.0031 0,9.87e-4 0.001,0.0021 0.002,0.0031 0.007,0.39079 0.0163,0.834122 0.0217,1.012341 0,0.01649 0.002,0.09268 0.003,0.114722 h 0.36484 c -0.004,-0.13269 -0.006,-0.123405 -0.0103,-0.273885 -0.0112,-0.38513 -0.032,-0.968979 -0.0465,-1.297079 l -0.0269,-0.596346 0.33125,-0.01344 c 0.38181,-0.01544 2.14398,8.94e-4 4.10776,10e-4 0.002,0.950171 -2.1e-4,1.478375 -0.0233,1.756482 h 0.34313 c -0.004,-0.09305 -0.0104,-0.137166 -0.0134,-0.310575 -0.0195,-1.002069 0.009,-8.677296 0.032,-8.741586 v -5.16e-4 c 0.0127,-0.0348 0.0701,-0.04951 0.14624,-0.03721 0.0689,0.0112 0.86713,0.03201 1.77405,0.04651 0.39816,0.0064 0.50289,0.01427 0.79065,0.02067 v -0.309542 c -0.42325,-0.01051 -0.75725,-0.02074 -1.19579,-0.02894 -0.80754,-0.0151 -1.48363,-0.03718 -1.50223,-0.04858 -0.0186,-0.0115 -0.0336,-0.474931 -0.0336,-1.029911 0,-0.865759 0.0123,-1.049248 0.0868,-1.295528 0.0478,-0.158 0.10925,-0.449909 0.13695,-0.648539 0.0277,-0.19878 0.0729,-0.473639 0.10025,-0.610299 0.0273,-0.13666 0.0663,-0.441428 0.0868,-0.677478 0.0461,-0.531089 0.10114,-0.835706 0.16484,-0.912606 0.0268,-0.0324 0.0581,-0.241458 0.0693,-0.465088 0.0125,-0.249389 0.0508,-0.476721 0.0997,-0.587561 0.0699,-0.15837 0.0819,-0.354932 0.0899,-1.592151 0.009,-1.317248 0.0153,-1.418171 0.0956,-1.507401 0.085,-0.0944 0.10204,-0.0954 1.37356,-0.0677 0.17504,0.0038 0.25589,0.0031 0.42788,0.0067 v -0.311609 c -0.27713,-0.0059 -0.22201,-0.0019 -0.54105,-0.0088 -1.005,-0.0219 -1.33273,-0.0445 -1.33273,-0.0925 0,-0.0126 0.0392,-0.09832 0.0868,-0.190169 0.0476,-0.0919 0.11021,-0.272119 0.13901,-0.401009 0.0477,-0.2133 0.0432,-0.246005 -0.0424,-0.361735 -0.1159,-0.15682 -0.12611,-0.371259 -0.0434,-0.872299 0.0727,-0.440319 0.0722,-1.025394 -5.2e-4,-1.098124 -0.0579,-0.0579 -0.067,-0.211873 -0.0124,-0.211873 0.0207,0 0.10379,-0.10223 0.18449,-0.22686 l 0.14676,-0.226342 -0.11628,-0.234095 c -0.1303,-0.261609 -0.14992,-0.516052 -0.0501,-0.648022 0.1044,-0.13802 0.0869,-0.24598 -0.0403,-0.24598 -0.0745,0 -0.12029,-0.03285 -0.14159,-0.101803 -0.0173,-0.0559 -0.10017,-0.240894 -0.18397,-0.411344 -0.0838,-0.17044 -0.15193,-0.331748 -0.15193,-0.358118 0,-0.0264 -0.0344,-0.08522 -0.076,-0.131258 -0.0584,-0.0645 -0.0804,-0.200269 -0.0956,-0.591178 -0.0134,-0.34227 -0.0406,-0.530309 -0.0827,-0.578259 -0.10781,-0.12286 -0.19689,-0.503653 -0.1974,-0.841293 -3.9e-4,-0.260619 -0.0234,-0.367905 -0.11524,-0.540535 -0.10216,-0.19215 -0.1133,-0.259535 -0.1018,-0.623735 l 0.0129,-0.407727 1.60403,0.0088 c 0.26,0.0014 0.74344,0.0081 1.15084,0.01137 v -0.343066 c -0.26386,-0.0018 -0.15105,0.01028 -0.51315,0.0057 -1.18387,-0.015 -2.17775,-0.03536 -2.20865,-0.04496 -0.044,-0.0137 -0.0587,-0.736284 -0.0677,-3.327962 -0.0134,-3.834556 -0.002,-6.046279 0.032,-6.080249 v -10e-4 c 0.0131,-0.01312 0.30327,-0.02322 0.64492,-0.02222 0.32924,10e-4 1.27226,0.004 2.11254,0.0078 v -0.349849 c -0.22933,-6.8e-4 -0.2644,0.0021 -0.57516,5.17e-4 -1.19499,-0.006 -2.18517,-0.01881 -2.19987,-0.02791 -0.005,-0.0031 -0.008,-1.1638041 -0.0134,-1.5885331 h -0.34779 c -0.001,0.694109 -0.001,1.5310901 -0.002,1.5523601 -0.002,0.0444 -0.47228,0.05633 -2.19212,0.05633 h -2.127 c 0.0142,-0.3366801 0.0325,-0.8421911 0.0429,-1.1978601 0.004,-0.150479 0.006,-0.141195 0.0103,-0.273885 h -0.18965 c 0.0157,-0.0135 0.0253,-0.03092 0.0253,-0.05994 0,-0.03886 -0.0211,-0.05801 -0.0413,-0.077 h -0.1571 c -0.0901,0.05453 -0.0843,0.12559 -0.003,0.151412 -8.9e-4,0.02961 -0.003,0.08584 -0.003,0.100252 -0.001,0.0383 -0.003,0.159125 -0.005,0.217558 -0.0377,0.02117 -0.0625,0.05917 -0.0625,0.10852 0,0.04692 0.0218,0.06342 0.0589,0.06976 -0.003,0.129684 -0.006,0.244027 -0.009,0.398943 -9.7e-4,0.0084 -0.005,0.01388 -0.005,0.02325 0,0.0047 0.003,0.0065 0.004,0.01085 -0.002,0.116992 -0.004,0.187924 -0.006,0.30024 -0.001,0.06299 -0.004,0.06323 -0.005,0.1229901 l -0.009,0.0083 c -0.0805,0.07559 -0.26222,0.088 -0.7736,0.08682 -0.008,-0.0037 -0.0193,-0.0026 -0.0331,0 -0.0845,-3.21e-4 -0.13343,0.0011 -0.24494,0 -0.20137,-0.02206 -0.46196,-0.07737 -0.51625,-0.1250571 -0.0377,-0.03305 -0.17667,-0.08279 -0.30903,-0.110588 -0.26477,-0.05561 -0.39102,-0.11105 -0.52761,-0.23151 -0.0848,-0.07484 -0.3513,-0.119978 -0.86507,-0.147278 -0.13722,-0.0073 -0.23994,-0.05215 -0.38395,-0.167949 -0.18187,-0.146269 -0.22385,-0.159249 -0.55811,-0.174149 -0.0939,-0.0042 -0.18191,-0.01282 -0.25425,-0.02222 -0.002,-0.179952 -0.003,-0.374402 -10e-4,-0.620117 h -0.37207 c -0.001,0.07688 -0.003,0.104043 -0.004,0.187585 -0.008,0.0228 -0.0127,0.04489 -0.001,0.06356 -0.001,0.142668 -0.005,0.200582 -0.007,0.319361 -0.0379,0.0013 -0.0713,3.14e-4 -0.11214,0.0041 -0.1924,0.0179 -0.32872,0.0087 -0.39532,-0.02687 -0.0954,-0.05105 -0.40292,-0.09747 -1.16169,-0.174666 -0.10106,-0.01029 -0.1931,-0.02823 -0.2682,-0.04754 0.008,-0.01446 0.0188,-0.02551 0.0258,-0.04186 0.0346,-0.0808 0.0718,-0.164978 0.0832,-0.187068 0.0114,-0.02212 -0.002,-0.02579 -0.0305,-0.0088 -0.0316,0.0196 -0.0512,-0.004 -0.0512,-0.0615 0,-0.02559 -0.0183,-0.01139 -0.0243,-0.02635 z m -17.54467,0.136942 c -0.029,0.04132 -0.041,0.06661 0.005,0.0956 v 5.16e-4 c 0.0357,0.0225 0.11245,0.04096 0.17105,0.04134 0.0787,5e-4 0.0994,-0.018 0.0791,-0.0708 -0.009,-0.02327 -0.011,-0.04355 -0.016,-0.06666 z m 2.84996,0.245463 c -0.0202,0.01899 -0.0413,0.03814 -0.0413,0.077 0,0.0661 0.0319,0.0863 0.13539,0.0863 0.14584,0 0.17418,-0.09607 0.063,-0.163298 z m -2.72697,0.163815 c -0.12573,0 -0.18527,0.09843 -0.10697,0.176733 0.0787,0.07874 0.18741,0.03835 0.20361,-0.07545 0.0116,-0.08129 -0.007,-0.101285 -0.0966,-0.101285 z m 2.82774,0.286804 c -0.0242,-0.001 -0.05,0.0033 -0.0765,0.01344 -0.11156,0.04283 -0.0554,0.172302 0.0816,0.188102 0.0978,0.0113 0.1235,-0.0045 0.1235,-0.07441 0,-0.07445 -0.0561,-0.124125 -0.12867,-0.127124 z m 15.93494,0.05374 c 0.10147,-0.0019 0.27049,0.03516 0.54106,0.110071 0.0343,0.0095 0.0646,0.02895 0.0889,0.05426 -0.0267,0.0057 -0.0616,0.0098 -0.11059,0.01292 -0.20993,-0.04373 -0.42497,-0.08198 -0.63975,-0.120922 0.0177,-0.03516 0.0534,-0.05509 0.1204,-0.05633 z m -18.76836,0.111105 c -0.0325,0 -0.0843,0.0304 -0.11524,0.0677 -0.0449,0.05403 -0.0449,0.08181 0,0.135909 0.0644,0.0776 0.089,0.08139 0.17415,0.02739 0.0746,-0.04727 0.0277,-0.230993 -0.0589,-0.230993 z m 19.87011,0.07596 c 0.11229,0.01264 0.27745,0.05323 0.56999,0.136426 0.0315,0.0089 0.10335,0.0237 0.14831,0.03514 -0.0953,-0.01633 -0.15178,-0.03085 -0.25838,-0.04496 -0.22362,-0.0297 -0.42944,-0.07237 -0.45734,-0.09457 -0.001,-0.0012 -0.001,-0.02885 -0.003,-0.03204 z m -13.15837,0.148828 c 0.002,0 0.002,10e-4 0.004,10e-4 -0.0746,0.01901 -0.14846,0.03864 -0.22221,0.05839 0.0862,-0.03295 0.1783,-0.05943 0.2186,-0.05943 z m -3.90158,0.110071 c -0.0196,0.0059 -0.0404,0.01868 -0.061,0.03927 -0.0824,0.0823 -0.0416,0.1674321 0.0801,0.1674321 0.0567,0 0.0873,-0.03063 0.0873,-0.08733 0,-0.0608 -0.0211,-0.101669 -0.0527,-0.116789 -0.0159,-0.0076 -0.0342,-0.0085 -0.0538,-0.0026 z m 3.41892,0.01912 c -0.41373,0.117516 -0.80787,0.2495121 -1.18804,0.3911911 -0.002,-0.01044 -0.007,-0.01777 -0.007,-0.02946 0,-0.09023 0.15638,-0.193913 0.24288,-0.160713 0.0674,0.02588 0.41844,-0.06299 0.55914,-0.1415941 0.0561,-0.0314 0.1783,-0.05306 0.2713,-0.04806 0.0331,0.0017 0.0781,-0.0053 0.12144,-0.01137 z m -6.22546,0.1431441 c -0.12865,0 -0.18453,0.0623 -0.14573,0.163297 0.0409,0.10644 0.22723,0.05962 0.24443,-0.06149 0.0117,-0.08225 -0.007,-0.101803 -0.0987,-0.101803 z m 4.61315,0.232544 c 0.0171,-0.0013 0.0289,0.0012 0.0372,0.0083 0.0167,0.01423 0.0186,0.04784 0.0186,0.111104 0,0.01362 -0.002,0.02348 -0.003,0.03617 -0.0726,0.02952 -0.14184,0.061 -0.21291,0.09147 -0.11372,0.0016 -0.12035,0.0055 -0.27027,0.0072 -0.1723,0.002 -0.18314,-0.0015 -0.30799,-5.17e-4 0.0667,-0.02233 0.13894,-0.04735 0.21446,-0.07751 0.18202,-0.07271 0.38697,-0.145781 0.45527,-0.162781 0.0288,-0.0071 0.0511,-0.01215 0.0682,-0.01344 z m 19.1177,0.201538 0.5488,0.0021 0.0171,0.06821 c -0.003,0.04578 -0.006,0.198414 -0.009,0.206189 h -5.2e-4 c -0.0116,0.0311 -0.0341,0.05648 -0.0501,0.05633 -0.0745,-7.2e-4 -0.3109,-0.154683 -0.48731,-0.317293 -0.007,-0.0061 -0.0125,-0.0096 -0.0191,-0.0155 z m 1.57923,0.0062 c 1.227,-0.0058 3.5903,0.01545 3.6344,0.04237 0.008,0.0048 0.0149,0.149252 0.0217,0.338997 -1.91684,7.56e-4 -3.62952,0.01617 -4.00389,10e-4 l -0.33125,-0.01344 0.016,-0.3545 c 0.0627,-0.0076 0.28657,-0.01268 0.66301,-0.01447 z m -23.85849,0.673344 c 0.13493,0.0034 0.21314,0.01202 0.22169,0.02584 0.0458,0.07419 0.0562,0.461086 0.0145,0.538985 -0.0256,0.0481 -0.0774,0.06609 -0.14986,0.05219 -0.0704,-0.01345 -0.2076,0.03041 -0.37466,0.120406 -0.45188,0.24347 -0.43327,0.214147 -0.47077,0.759127 -0.0488,0.710979 -0.082,0.869286 -0.23254,1.108976 -0.16927,0.26946 -0.28225,0.338362 -0.39171,0.239262 -0.0985,-0.0895 -0.20227,-0.0919 -0.27337,-0.0062 -0.0683,0.08229 -0.0239,0.160197 0.0915,0.160197 0.11317,0 0.11166,0.110967 -0.003,0.225826 -0.0497,0.04969 -0.0904,0.123081 -0.0904,0.162781 0,0.03972 -0.0577,0.12582 -0.12815,0.19172 -0.10779,0.10086 -0.13217,0.1682 -0.15607,0.42478 -0.0325,0.34951 -0.0951,0.495907 -0.20412,0.478007 -0.0233,-0.0038 -0.0444,-0.002 -0.0646,10e-4 0.007,-0.01688 0.0139,-0.03245 0.0139,-0.06046 0,-0.06975 -0.0197,-0.117212 -0.0501,-0.136942 -0.0305,-0.01974 -0.0719,-0.01129 -0.1142,0.03101 -0.0783,0.07836 -0.0359,0.199393 0.0646,0.211874 -0.023,0.02548 -0.0387,0.05789 -0.0387,0.09922 0,0.0975 0.0946,0.11444 0.21652,0.03824 0.0563,-0.03512 0.11835,-0.02874 0.23203,0.01602 -0.371,0.730013 -0.70069,1.521178 -0.98909,2.363163 -0.061,0.07462 -0.10908,0.212792 -0.15193,0.444934 -0.0645,0.202285 -0.12354,0.410608 -0.18345,0.61805 -0.0169,-0.557583 -0.0202,-1.931463 -0.0165,-3.40496 0.0481,0.02019 0.0744,0.0048 0.12248,-0.05323 0.0686,-0.08269 0.0241,-0.160197 -0.0925,-0.160197 h -5.2e-4 c -0.0114,0 -0.0192,0.0062 -0.0295,0.0088 0.006,-1.936026 0.0253,-3.880377 0.0543,-4.490165 1.56351,0.02018 1.85538,0.02233 2.61172,-0.0021 0.23618,-0.0076 0.42783,-0.0096 0.56276,-0.0062 z m 25.37726,0.05994 c 0.93309,0.006 1.78975,0.0235 2.14767,0.04548 0.023,0.992716 0.0358,2.7781 0.0388,4.485514 -0.0835,0.04529 -0.086,0.127323 0,0.221692 0.002,1.702156 -0.006,3.223576 -0.0346,3.223576 -0.0262,0 -0.0475,-0.03406 -0.0475,-0.07596 0,-0.0419 -0.0386,-0.118209 -0.0858,-0.169499 -0.14663,-0.15935 -0.23713,-0.512745 -0.23513,-0.923975 0.001,-0.344239 -0.0142,-0.415176 -0.16226,-0.735355 -0.0901,-0.19487 -0.18039,-0.353984 -0.19999,-0.353984 -0.10261,0 -0.33051,-0.451618 -0.44907,-0.889868 -0.0889,-0.32882 -0.15737,-0.496879 -0.22117,-0.541569 -0.0508,-0.0356 -0.0925,-0.08798 -0.0925,-0.116272 0,-0.0283 -0.0478,-0.102918 -0.10594,-0.166398 -0.11393,-0.1244 -0.19133,-0.427954 -0.23513,-0.917774 -0.0187,-0.209009 -0.0464,-0.30489 -0.0873,-0.30489 -0.0328,0 -0.0807,-0.06001 -0.10645,-0.133842 -0.0257,-0.0738 -0.1283,-0.221309 -0.2279,-0.327629 -0.27646,-0.29521 -0.60033,-0.675804 -0.75085,-0.882633 -0.0179,-0.02463 -0.0398,-0.04639 -0.0605,-0.07028 -0.0207,-0.07833 -0.0568,-0.120525 -0.13694,-0.184485 -0.27365,-0.21857 -0.47008,-0.431456 -0.52968,-0.574125 -0.0544,-0.13029 -0.21489,-0.290601 -0.47801,-0.477491 -0.0577,-0.04096 -0.0924,-0.08704 -0.077,-0.102836 0.0266,-0.02741 1.06248,-0.03429 2.13734,-0.02739 z m -24.20472,0.0021 c 0.0962,0 0.0695,0.127618 -0.0388,0.185518 -0.0543,0.02908 -0.14042,0.09354 -0.19172,0.143144 l -0.0935,0.08992 0.15244,-0.02842 c 0.041,-0.0077 0.0666,-0.0088 0.1049,-0.01395 -0.30636,0.231466 -0.58365,0.476663 -0.81958,0.740523 l -0.0124,-0.118339 0.25477,-0.258898 c 0.15619,-0.15872 0.24578,-0.285045 0.23048,-0.325045 -0.0277,-0.07229 0.31361,-0.414445 0.41341,-0.414445 z m -2.64894,0.271818 c -0.0908,0 -0.20239,0.145387 -0.15089,0.196887 v 5.17e-4 c 0.0157,0.0157 0.0763,0.02842 0.13436,0.02842 0.0823,0 0.10542,-0.02497 0.10542,-0.113172 0,-0.08214 -0.0243,-0.112654 -0.0889,-0.112654 z m -0.0176,0.496094 c -0.0359,0.0039 -0.0764,0.01733 -0.11679,0.04289 -0.054,0.03405 -0.0549,0.05365 -0.006,0.112655 0.0743,0.0895 0.11391,0.08918 0.20361,-5.17e-4 0.0617,-0.0617 0.0534,-0.115148 0.009,-0.14056 h -5.1e-4 c -0.0223,-0.01252 -0.0532,-0.01833 -0.0889,-0.01447 z m 1.11983,0.413928 c 0.0143,-0.0064 0.0238,-0.0034 0.03,0.0083 0.0122,0.02439 0.008,0.08793 -0.008,0.197404 -0.0349,0.229893 0.0292,0.322205 0.19792,0.308508 -0.0786,0.119725 -0.15405,0.244415 -0.23048,0.36742 -0.0265,0.03245 -0.045,0.05748 -0.0739,0.09198 0.007,-0.163089 0.0206,-0.341629 0.0351,-0.40256 0.0159,-0.06669 0.008,-0.134361 -0.0165,-0.149861 -0.063,-0.03916 -0.0572,-0.309371 0.009,-0.375171 0.0238,-0.02378 0.0429,-0.03946 0.0574,-0.04599 z m -1.11466,0.06201 c -0.0199,-0.0028 -0.0416,-3.57e-4 -0.0641,0.0083 -0.0614,0.02356 -0.0831,0.156689 -0.0336,0.206189 0.042,0.04194 0.14355,-0.01115 0.17415,-0.09095 0.0237,-0.06168 -0.0169,-0.115222 -0.0765,-0.123506 z m -0.032,0.518314 c -0.0993,0 -0.15694,0.06841 -0.11524,0.135909 0.0521,0.08423 0.20309,0.05033 0.20309,-0.04547 0,-0.0594 -0.0301,-0.09043 -0.0879,-0.09043 z m -0.03,0.459404 c -0.0987,0.01902 -0.14196,0.169591 -0.0625,0.218591 v 5.17e-4 c 0.0725,0.0448 0.22566,0.0021 0.22479,-0.06253 -10e-4,-0.09828 -0.0785,-0.172679 -0.16226,-0.156579 z m 27.68255,1.605586 c -0.0887,0.0169 -0.12291,0.194119 -0.0465,0.241329 0.0691,0.0427 0.17921,-0.101022 0.14521,-0.189652 -0.0138,-0.0361 -0.0584,-0.05938 -0.0987,-0.05168 z m 0.50384,0.0062 c -0.0195,-0.0049 -0.0375,-0.0021 -0.0527,0.0078 -0.0304,0.01973 -0.0501,0.06719 -0.0501,0.136943 0,0.0781 0.0248,0.110587 0.0853,0.110587 0.1125,0 0.16157,-0.133964 0.0791,-0.216524 -0.0211,-0.02115 -0.042,-0.03383 -0.0615,-0.03876 z m 0.47904,0.0072 c -0.0209,-0.0035 -0.0447,-0.0014 -0.0698,0.0083 -0.0632,0.0242 -0.0821,0.157717 -0.03,0.209807 0.06,0.05951 0.14496,0.02752 0.17466,-0.06615 0.0251,-0.07882 -0.0123,-0.141576 -0.0749,-0.151929 z m 3.41013,0.0083 c -0.0422,0.0055 -0.0931,0.0382 -0.14056,0.09715 -0.0639,0.0793 -0.0693,0.11471 -0.0258,0.15813 0.0548,0.05398 0.23048,0.0316 0.25528,-0.03307 0.0134,-0.0349 0.0137,-0.104659 5.2e-4,-0.155029 -0.0133,-0.05097 -0.0472,-0.07268 -0.0894,-0.06718 z m -2.466,0.02274 c -0.1302,0.0186 -0.15285,0.134339 -0.0398,0.204639 0.0703,0.0437 0.0982,0.04145 0.14159,-0.01085 0.0791,-0.0953 0.0185,-0.210947 -0.1018,-0.193787 z m 0.49558,5.17e-4 c -0.052,0.01166 -0.10624,0.04632 -0.11524,0.09302 -0.008,0.0436 0.0189,0.09207 0.0605,0.108004 0.0776,0.0298 0.15506,-0.0477 0.15606,-0.156579 5e-4,-0.04485 -0.0492,-0.0561 -0.10128,-0.04444 z m 1.00097,5.17e-4 c -0.0194,-0.0042 -0.0405,-0.0012 -0.0599,0.0083 -0.0388,0.01891 -0.0708,0.06219 -0.0708,0.116789 0,0.0599 0.0295,0.09147 0.0853,0.09147 0.0986,0 0.1487,-0.09394 0.0956,-0.179834 -0.013,-0.02097 -0.0307,-0.03246 -0.0501,-0.03669 z m 0.45062,0 c -0.0918,-0.0174 -0.13412,0.08435 -0.0775,0.185518 0.0235,0.042 0.0734,0.07648 0.11111,0.07648 0.0954,0 0.0642,-0.243469 -0.0336,-0.261999 z m -0.96583,0.0093 c -0.0465,0.0035 -0.0949,0.04104 -0.10491,0.109038 -0.0124,0.08763 0.003,0.102793 0.0904,0.09043 0.0702,-0.01 0.1049,-0.04516 0.1049,-0.10542 0,-0.06727 -0.0439,-0.09755 -0.0904,-0.09405 z m -31.81977,0.340548 c -0.0626,0.01035 -0.1,0.07362 -0.0749,0.152446 0.0104,0.03292 0.029,0.05493 0.0496,0.07131 -0.0657,0.02568 -0.0813,0.07671 -0.0274,0.141593 0.0756,0.09108 0.16713,0.08211 0.22273,-0.0217 0.0635,-0.118724 0.0565,-0.135646 -0.0641,-0.137459 0.041,-0.05752 0.0232,-0.174662 -0.0362,-0.197404 -0.0251,-0.0096 -0.0489,-0.01224 -0.0698,-0.0088 z m -3.41012,0.0088 c -0.0422,-0.0055 -0.0761,0.01621 -0.0894,0.06718 -0.0132,0.05037 -0.0129,0.12013 5.1e-4,0.15503 0.0248,0.06467 0.20051,0.08705 0.25528,0.03307 0.0435,-0.04342 0.0381,-0.07883 -0.0258,-0.15813 -0.0475,-0.05895 -0.0984,-0.09162 -0.14056,-0.09715 z m 2.46599,0.02274 c -0.12028,-0.01716 -0.1809,0.09849 -0.1018,0.193786 0.0141,0.01704 0.0269,0.02032 0.0398,0.02687 v 0.129708 c 0.0472,0.05786 0.13441,0.05144 0.18242,-0.03824 0.0634,-0.118353 0.0573,-0.13594 -0.0496,-0.137459 0.0686,-0.0694 0.0427,-0.158452 -0.0708,-0.174666 z m -1.49654,5.16e-4 c -0.0194,0.0042 -0.0371,0.01623 -0.0501,0.03721 -0.0531,0.08589 -0.003,0.179834 0.0956,0.179834 0.0558,0 0.0853,-0.03157 0.0853,-0.09147 0,-0.0546 -0.032,-0.09788 -0.0708,-0.116789 -0.0194,-0.0095 -0.0405,-0.01301 -0.0599,-0.0088 z m 1.00097,0 c -0.0521,-0.01166 -0.10179,-4.08e-4 -0.10129,0.04444 0.001,0.10888 0.0785,0.18638 0.15606,0.15658 0.0416,-0.01593 0.0685,-0.0644 0.0605,-0.108004 -0.009,-0.0467 -0.0632,-0.08136 -0.11524,-0.09302 z m -1.45159,5.17e-4 c -0.0978,0.01853 -0.12898,0.262 -0.0336,0.262 0.0377,0 0.0876,-0.03448 0.1111,-0.07648 0.0566,-0.10117 0.0143,-0.202919 -0.0775,-0.185519 z m 0.96583,0.0093 c -0.0465,-0.0035 -0.0904,0.02678 -0.0904,0.09405 0,0.06026 0.0347,0.09542 0.1049,0.10542 0.0874,0.01236 0.10286,-0.0028 0.0904,-0.09043 -0.01,-0.068 -0.0584,-0.105497 -0.1049,-0.109037 z m 31.82493,0.252698 c -0.12549,0 -0.15522,0.08385 -0.0651,0.183451 0.1004,0.1114 0.14196,0.110793 0.17776,-0.0021 0.0364,-0.11481 -0.005,-0.181384 -0.11265,-0.181384 z m -0.50436,0.0067 c -0.0181,0.0049 -0.0376,0.02328 -0.062,0.05633 -0.0345,0.04713 -0.0524,0.10334 -0.0393,0.12454 0.0394,0.0637 0.15487,0.04314 0.18397,-0.03256 0.0149,-0.03893 0.003,-0.09462 -0.0269,-0.124023 -0.0209,-0.0206 -0.0377,-0.02919 -0.0558,-0.02429 z m 3.93516,9.126058 c -0.0231,-0.006 -0.0458,-0.0042 -0.0651,0.0046 -0.0386,0.01778 -0.0656,0.06336 -0.0656,0.129708 0,0.0837 0.0246,0.107894 0.108,0.108004 0.1326,0 0.18278,-0.109128 0.092,-0.199988 -0.0227,-0.02271 -0.0462,-0.0364 -0.0692,-0.04237 z m -0.98909,0.01654 c -0.0881,0 -0.12786,0.128454 -0.0605,0.195854 0.0686,0.0686 0.1509,0.02362 0.1509,-0.08268 0,-0.0828 -0.0241,-0.113171 -0.0904,-0.113171 z m 0.54932,0.0078 c -0.0151,-0.0033 -0.0352,-0.0027 -0.0605,0.001 -0.1037,0.0152 -0.13507,0.06757 -0.0977,0.161231 0.0318,0.0795 0.13577,0.07031 0.16847,-0.01499 0.0359,-0.09346 0.035,-0.137437 -0.0103,-0.147277 z m -36.32595,0.358117 c -0.0231,0.006 -0.0471,0.01966 -0.0698,0.04237 -0.0908,0.09086 -0.0406,0.199988 0.092,0.199988 0.0834,-1.1e-4 0.10801,-0.0243 0.10801,-0.108004 0,-0.06635 -0.027,-0.111928 -0.0656,-0.129708 -0.0193,-0.0089 -0.0415,-0.01063 -0.0646,-0.0047 z m 0.98857,0.01654 c -0.0663,0 -0.0904,0.03037 -0.0904,0.113171 0,0.1063 0.0823,0.151282 0.1509,0.08268 0.0674,-0.0674 0.0276,-0.195853 -0.0605,-0.195853 z m -0.54932,0.0072 c -0.0453,0.0098 -0.0462,0.05382 -0.0103,0.147278 0.0327,0.0853 0.13666,0.09449 0.16846,0.01499 0.0374,-0.09366 0.006,-0.14603 -0.0977,-0.16123 -0.0252,-0.0037 -0.0454,-0.0043 -0.0605,-0.001 z m 34.27956,9.233545 c -0.0614,0 -0.0177,0.218875 0.0574,0.286804 0.096,0.0868 0.14314,0.0573 0.14314,-0.0894 0,-0.0878 -0.11131,-0.197404 -0.20051,-0.197404 z m 0.57361,0.0987 c -0.104,0.02 -0.12892,0.164862 -0.0346,0.201022 0.0408,0.0156 0.0955,0.0065 0.12196,-0.02015 0.0688,-0.0688 0.006,-0.198848 -0.0873,-0.180868 z m 1.00511,0.0083 c -0.0201,-0.0099 -0.0417,-0.01119 -0.0615,0.001 -0.0739,0.0457 -0.0654,0.252698 0.0103,0.252698 0.0342,0 0.0846,-0.02685 0.11214,-0.05994 0.0468,-0.0564 -7.9e-4,-0.164076 -0.061,-0.193787 z m 0.41444,0.0026 c -0.0769,0.009 -0.0939,0.0765 -0.046,0.195337 0.0125,0.0311 0.0717,0.05581 0.13178,0.05581 0.0545,0 0.0693,-0.04136 0.0853,-0.07803 v -0.06718 c -0.0135,-0.03855 -0.0226,-0.08153 -0.0744,-0.09508 -0.0388,-0.01015 -0.071,-0.01387 -0.0966,-0.01085 z m -0.93586,0.0052 c -0.0362,0.0027 -0.0711,0.03523 -0.0801,0.09509 -0.008,0.0536 0.004,0.108309 0.0248,0.121439 0.0667,0.0412 0.15663,-0.04514 0.13953,-0.133842 -0.0112,-0.05838 -0.048,-0.08538 -0.0842,-0.08268 z m -33.72972,0.267167 c -0.0892,0 -0.2005,0.109604 -0.2005,0.197404 0,0.1467 0.0471,0.1762 0.14314,0.0894 0.0751,-0.06793 0.11882,-0.286804 0.0574,-0.286804 z m -0.57361,0.0987 c -0.0934,-0.01798 -0.15616,0.112584 -0.0873,0.181384 0.0265,0.0267 0.0812,0.03524 0.12196,0.01964 0.0943,-0.03616 0.0694,-0.181021 -0.0346,-0.201021 z m -1.00459,0.0088 c -0.0602,0.02971 -0.10829,0.137387 -0.0615,0.193787 0.0275,0.0331 0.0779,0.05994 0.11214,0.05994 0.0757,0 0.0842,-0.206997 0.0103,-0.252697 -0.0198,-0.01222 -0.0409,-0.01094 -0.061,-0.001 z m -0.41444,0.0026 c -0.0256,-0.003 -0.0584,1.85e-4 -0.0971,0.01033 -0.0518,0.01355 -0.0609,0.05705 -0.0744,0.0956 v 0.06718 c 0.016,0.03667 0.0308,0.07803 0.0853,0.07803 0.0601,0 0.11927,-0.02523 0.13177,-0.05633 0.0479,-0.118837 0.0315,-0.185778 -0.0455,-0.19482 z m 0.93534,0.0052 c -0.0362,-0.0027 -0.073,0.0243 -0.0842,0.08268 -0.0171,0.0887 0.0728,0.175042 0.13952,0.133842 0.0207,-0.01313 0.0328,-0.06784 0.0248,-0.12144 -0.009,-0.05986 -0.0439,-0.09235 -0.0801,-0.09508 z m 33.60518,1.195792 c -0.0361,-0.009 -0.0816,0.02126 -0.0816,0.06873 0,0.0219 0.0187,0.05185 0.0419,0.06615 0.054,0.0334 0.108,-0.05147 0.0708,-0.111621 -0.008,-0.01262 -0.019,-0.02025 -0.031,-0.02325 z m -32.42334,0.382406 c -0.012,0.003 -0.0227,0.01011 -0.0305,0.02274 h -5.2e-4 c -0.0372,0.06015 0.0168,0.145021 0.0708,0.111622 0.0232,-0.0143 0.0424,-0.04373 0.0424,-0.06563 0,-0.04747 -0.0461,-0.07773 -0.0822,-0.06873 z m 31.58929,2.277897 c 0.0156,-0.002 0.0291,0.0072 0.0398,0.02739 0.0214,0.0403 0.0326,0.124241 0.0326,0.249081 0,0.24068 -0.0432,0.32203 -0.14986,0.28112 -0.0652,-0.025 -0.0461,-0.430552 0.0243,-0.517281 0.02,-0.02468 0.0377,-0.03834 0.0532,-0.04031 z m -30.75523,0.382406 c 0.0156,0.002 0.0332,0.01512 0.0532,0.03979 0.0704,0.08673 0.0895,0.492282 0.0243,0.517281 -0.10665,0.04091 -0.14986,-0.03992 -0.14986,-0.280603 0,-0.124839 0.0117,-0.20878 0.0331,-0.24908 0.0106,-0.01978 0.0238,-0.02934 0.0393,-0.02739 z m 30.50046,0.457853 c 0.0446,-0.0052 0.10062,-0.0011 0.17312,0.0072 l 0.12971,0.01499 0.0114,2.179712 c -0.0105,0.0107 -0.018,0.0202 -0.0279,0.02997 -0.11753,0.116091 -0.10456,0.218756 0.0279,0.258382 0.005,1.386148 -0.006,2.108293 -0.0367,2.16731 -0.0336,0.0629 -0.0339,0.108904 -0.002,0.147794 0.0292,0.0352 0.0464,0.801557 0.0507,2.147156 -0.50344,0.04072 -2.98165,0.06369 -3.96565,0.04289 -0.0116,-0.02325 -0.0369,-0.03876 -0.0816,-0.03876 -0.10499,0 -0.0838,-0.137099 -0.003,-0.289905 0.11028,-0.100348 0.19541,-0.193824 0.22841,-0.272851 0.005,-0.01115 0.0154,-0.02523 0.0217,-0.03721 0.0272,-0.02164 0.0546,-0.04274 0.0827,-0.05788 0.081,-0.0436 0.14728,-0.0998 0.14728,-0.125057 0,-0.0253 0.0503,0.0012 0.11162,0.05891 l 0.11111,0.104387 0.13746,-0.146761 c 0.0754,-0.0807 0.13694,-0.171022 0.13694,-0.201022 0,-0.0944 0.24282,-0.289977 0.3793,-0.305407 0.11167,-0.0126 0.13957,-0.04434 0.19017,-0.216525 0.0652,-0.22186 0.025,-0.293892 -0.13539,-0.243912 -0.0742,0.0231 -0.0804,0.0098 -0.0527,-0.102837 0.0545,-0.221299 0.15228,-0.335801 0.26407,-0.309541 0.0552,0.0129 0.12213,0.0079 0.14883,-0.01085 0.0267,-0.0189 0.14553,-0.231563 0.26355,-0.472323 0.11801,-0.24076 0.24313,-0.461536 0.27853,-0.490926 0.0353,-0.0294 0.0648,-0.08665 0.0656,-0.127124 8e-4,-0.0404 0.0312,-0.113001 0.0677,-0.161231 0.0364,-0.0482 0.0661,-0.120227 0.0661,-0.160197 0,-0.04 0.0233,-0.0961 0.0517,-0.12454 0.0557,-0.0557 0.20447,-0.438228 0.26407,-0.679028 0.0202,-0.0815 0.0562,-0.173245 0.0801,-0.203605 0.062,-0.079 0.23668,-0.619712 0.23668,-0.732772 0,-0.0524 0.0487,-0.195944 0.10801,-0.318844 0.15129,-0.313629 0.18825,-0.442202 0.25735,-0.892452 0.0494,-0.321982 0.079,-0.421539 0.2129,-0.437182 z m -30.24518,0.382405 c 0.1339,0.01564 0.16297,0.115201 0.21239,0.437183 0.0691,0.450249 0.10606,0.578822 0.25735,0.892452 0.0593,0.1229 0.108,0.266444 0.108,0.318844 0,0.04936 0.0405,0.19234 0.0832,0.330729 -0.0246,0.01282 -0.0424,0.03445 -0.0424,0.07235 0,0.0792 0.0492,0.133082 0.12195,0.14521 0.0264,0.06757 0.0577,0.163895 0.0739,0.184485 0.0239,0.03036 0.0599,0.122106 0.0801,0.203605 0.0596,0.2408 0.20837,0.623329 0.26407,0.679029 0.0284,0.02844 0.0517,0.08454 0.0517,0.12454 0,0.03997 0.0298,0.111997 0.0661,0.160197 0.0318,0.04202 0.0555,0.09947 0.0625,0.141077 -0.0737,0.02063 -0.0972,0.083 -0.0408,0.150895 0.0417,0.05021 0.095,0.06639 0.15141,0.05633 0.053,0.07622 0.14262,0.233805 0.23927,0.430982 0.11802,0.240759 0.23685,0.453422 0.26355,0.472322 0.0267,0.0188 0.0936,0.02375 0.14882,0.01085 0.0224,-0.0053 0.0436,-6e-4 0.0646,0.0052 0.01,0.105947 0.0198,0.218118 0.03,0.366386 10e-4,0.01547 0.002,0.02109 0.003,0.03566 -0.0581,0.02087 -0.0666,0.09795 -0.0222,0.249081 0.0288,0.09809 0.052,0.147892 0.0858,0.17725 0.0515,0.109805 0.15558,0.163231 0.40411,0.29714 0.027,0.01455 0.0471,0.01995 0.0724,0.03204 9.7e-4,0.0047 0.007,0.01122 0.007,0.0155 0,0.03 0.0615,0.120321 0.13694,0.201021 l 0.13746,0.146761 0.1111,-0.104386 c 0.028,-0.02639 0.0521,-0.04444 0.0718,-0.05581 0.0229,0.132263 0.0122,0.413099 -0.0269,0.476457 -0.0171,0.02764 -0.31209,0.03484 -0.78445,0.01964 -0.77713,-0.02507 -1.02063,-0.02251 -2.71611,-5.17e-4 0.006,-1.129463 0.0214,-1.83493 0.0481,-1.867069 0.0323,-0.03889 0.0315,-0.0849 -0.002,-0.147795 -0.033,-0.06253 -0.0452,-0.802805 -0.0372,-2.363163 l 5.2e-4,-0.126091 c 0.0195,0.01294 0.043,0.02119 0.0703,0.02119 h 5.2e-4 c 0.1166,0 0.1611,-0.07751 0.0925,-0.160197 -0.0596,-0.07175 -0.0864,-0.07732 -0.16227,-0.03152 l 0.0103,-1.97559 0.12971,-0.01499 c 0.0725,-0.0083 0.129,-0.01245 0.17363,-0.0072 z m 30.12271,1.833997 c -0.0274,-3.43e-4 -0.063,0.02698 -0.11317,0.08268 -0.0901,0.0996 -0.0604,0.183452 0.0651,0.183452 0.10766,0 0.14905,-0.06658 0.11265,-0.181385 -0.0179,-0.05643 -0.0372,-0.08441 -0.0646,-0.08475 z m -0.55759,0.04289 c -0.0374,-0.0066 -0.0764,0.0038 -0.0961,0.03566 -0.0131,0.0212 0.005,0.07741 0.0393,0.12454 0.0488,0.0661 0.076,0.07324 0.11782,0.03204 0.0299,-0.0294 0.0418,-0.08509 0.0269,-0.124024 -0.0146,-0.03785 -0.0504,-0.06158 -0.0879,-0.06821 z m -29.32379,0.09043 c -0.0393,-0.0038 -0.0811,0.01647 -0.11886,0.06201 -0.0769,0.0926 -0.0195,0.160197 0.13643,0.160197 0.1469,0 0.1542,-0.01149 0.0863,-0.138493 -0.0278,-0.05191 -0.0646,-0.07988 -0.10387,-0.08372 z m 1.16582,2.191081 c -0.0245,0.0013 -0.0475,0.0069 -0.0656,0.01809 v 5.16e-4 c -0.0794,0.049 -0.0362,0.199572 0.0625,0.218592 0.0838,0.0161 0.16126,-0.0583 0.16226,-0.15658 6.6e-4,-0.04847 -0.0855,-0.08448 -0.15916,-0.08061 z m 27.22108,0.02222 c -0.0645,0 -0.0904,0.03011 -0.0904,0.10542 0,0.058 0.0121,0.117441 0.0269,0.132291 0.0562,0.0563 0.154,-0.02599 0.154,-0.129708 0,-0.078 -0.0252,-0.108003 -0.0904,-0.108003 z m 0.49661,0 c -0.0881,0 -0.12735,0.128443 -0.0599,0.195853 0.0686,0.0686 0.15038,0.02362 0.15038,-0.08268 0,-0.0828 -0.0241,-0.113171 -0.0904,-0.113171 z m 0.96635,0.01964 c -0.0145,5.13e-4 -0.0304,0.0062 -0.0476,0.01705 -0.0311,0.0198 -0.0348,0.06854 -0.0103,0.135392 h 5.2e-4 c 0.044,0.11762 0.13022,0.09341 0.13022,-0.03669 0,-0.04985 -0.013,-0.08518 -0.0346,-0.102836 -0.0108,-0.0089 -0.0238,-0.01343 -0.0382,-0.01292 z m -0.46923,0.0031 c -0.0373,0 -0.0747,0.04736 -0.0827,0.10542 -0.0116,0.08192 0.004,0.102307 0.0677,0.08992 0.0994,-0.0191 0.11288,-0.195337 0.015,-0.195337 z m 2.44172,0.02429 c -0.0147,0 -0.0321,0.01538 -0.0605,0.04548 -0.0354,0.0373 -0.055,0.09298 -0.0434,0.124023 0.0115,0.0311 0.0604,0.05633 0.108,0.05633 0.0936,0 0.11016,-0.07234 0.0419,-0.18035 -0.0191,-0.0301 -0.0312,-0.04548 -0.046,-0.04548 z m -0.52142,0.02015 c -0.0442,0.0024 -0.0656,0.04309 -0.0656,0.12299 0,0.0527 0.0329,0.08268 0.0904,0.08268 0.1053,0 0.12677,-0.156987 0.0269,-0.195337 -0.0198,-0.0076 -0.037,-0.01114 -0.0517,-0.01033 z m -0.47181,0.0026 c -0.0715,0 -0.11512,0.118936 -0.0625,0.171566 0.0711,0.0711 0.15817,0.02862 0.14417,-0.07028 -0.008,-0.0559 -0.0447,-0.101286 -0.0817,-0.101286 z m 1.46762,0.02274 c -0.0781,0 -0.10217,0.04493 -0.0791,0.146761 0.0219,0.0963 0.0725,0.100539 0.14521,0.01292 0.062,-0.0748 0.0268,-0.15968 -0.0661,-0.15968 z m 0.52503,0 c -0.0623,0 -0.13092,0.106682 -0.10852,0.168981 0.0371,0.10331 0.14831,0.06117 0.14831,-0.05633 0,-0.0621 -0.018,-0.112654 -0.0398,-0.112654 z m 0.51986,0.03049 c -0.10785,-0.0414 -0.21584,0.128303 -0.13384,0.210323 0.0166,0.0166 0.0677,0.02997 0.11317,0.02997 0.0357,0 0.0468,-0.0408 0.0599,-0.07596 v -0.08062 c -0.009,-0.0326 -0.009,-0.07218 -0.0393,-0.08372 z m -32.46313,0.258899 c -0.0663,0 -0.0904,0.03037 -0.0904,0.113171 0,0.1063 0.0818,0.151282 0.15038,0.08268 0.0674,-0.06741 0.0282,-0.195853 -0.0599,-0.195853 z m 0.49661,0 c -0.0652,0 -0.0904,0.03 -0.0904,0.108003 0,0.10372 0.0978,0.186008 0.15399,0.129708 0.0148,-0.01485 0.0269,-0.07429 0.0269,-0.132292 0,-0.07531 -0.0259,-0.105419 -0.0904,-0.105419 z m -1.46296,0.02015 c -0.0145,-5.13e-4 -0.0274,0.0036 -0.0382,0.0124 -0.0216,0.01766 -0.0346,0.05299 -0.0346,0.102836 0,0.1301 0.0862,0.15431 0.13022,0.03669 h 5.2e-4 c 0.0245,-0.06685 0.0208,-0.115592 -0.0103,-0.135392 -0.0171,-0.0109 -0.0331,-0.01602 -0.0475,-0.01654 z m 0.46922,0.0026 c -0.0979,0 -0.0844,0.176237 0.015,0.195337 0.0638,0.01239 0.0793,-0.008 0.0677,-0.08992 -0.008,-0.05806 -0.0454,-0.10542 -0.0827,-0.10542 z m -2.44119,0.02481 c -0.0147,0 -0.0274,0.01486 -0.0465,0.04496 -0.0683,0.10801 -0.0517,0.180351 0.0419,0.180351 0.0476,0 0.0965,-0.02523 0.108,-0.05633 0.0116,-0.03104 -0.008,-0.08672 -0.0434,-0.124024 -0.0284,-0.0301 -0.0452,-0.04496 -0.0599,-0.04496 z m 0.52089,0.02015 c -0.0147,-8.09e-4 -0.0318,0.0022 -0.0517,0.0098 -0.0999,0.03835 -0.0784,0.195337 0.0269,0.195337 0.0575,0 0.0904,-0.02998 0.0904,-0.08268 0,-0.0799 -0.0215,-0.120048 -0.0656,-0.122473 z m 0.47181,0.0021 c -0.037,0 -0.0737,0.04539 -0.0816,0.101286 -0.014,0.0989 0.0731,0.141379 0.14418,0.07028 0.0526,-0.05263 0.009,-0.171565 -0.0625,-0.171565 z m -1.99264,0.02274 c -0.0218,0 -0.0398,0.05056 -0.0398,0.112655 0,0.1175 0.11121,0.159637 0.14831,0.05633 0.0224,-0.0623 -0.0462,-0.168982 -0.10852,-0.168982 z m 0.52503,0 c -0.0929,0 -0.1282,0.08488 -0.0661,0.159681 0.0727,0.08762 0.12331,0.08338 0.14521,-0.01292 0.0231,-0.101829 -9.6e-4,-0.146761 -0.0791,-0.146761 z m 3.73311,0.01964 c -0.0443,-0.0099 -0.0949,0.0023 -0.12093,0.04444 -0.0417,0.0675 0.0159,0.135909 0.11524,0.135909 0.0577,0 0.0879,-0.03103 0.0879,-0.09043 0,-0.0479 -0.0379,-0.07999 -0.0822,-0.08992 z m -4.77801,0.01085 c -0.0301,0.01154 -0.0303,0.05112 -0.0393,0.08372 v 0.08062 c 0.0131,0.03516 0.0242,0.07596 0.0599,0.07596 0.0455,0 0.0966,-0.01337 0.11317,-0.02997 0.082,-0.08202 -0.026,-0.251724 -0.13384,-0.210324 z m 5.86011,0.07131 c 0.0418,0.068 0.0842,0.135033 0.12661,0.202055 -0.0164,0.01541 -0.0271,0.03774 -0.0357,0.06253 -6.5e-4,-6.38e-4 -8.9e-4,-0.0014 -0.002,-0.0021 -0.0318,-0.03083 -0.0514,-0.05598 -0.0749,-0.0832 4.7e-4,-0.0228 9e-4,-0.04636 -0.005,-0.07183 -0.004,-0.01627 -0.005,-0.07783 -0.009,-0.107487 z m -1.11311,0.387573 c -0.0159,-3.26e-4 -0.0298,0.004 -0.0403,0.01447 -0.0495,0.0495 -0.0278,0.182629 0.0336,0.206189 0.0899,0.0345 0.17216,-0.033 0.14056,-0.115239 -0.023,-0.05985 -0.0861,-0.104441 -0.13384,-0.10542 z m 0.0253,0.482658 c -0.0304,-1.05e-4 -0.059,0.02191 -0.0961,0.06666 -0.0487,0.059 -0.0478,0.0786 0.006,0.112654 0.0806,0.05099 0.1609,0.05352 0.20568,0.02842 h 5.1e-4 c 0.0446,-0.02541 0.0529,-0.07886 -0.009,-0.14056 -0.0448,-0.04485 -0.0771,-0.06707 -0.10749,-0.06718 z m 0.0279,0.492476 c -0.058,0 -0.11866,0.01272 -0.13436,0.02842 v 5.17e-4 c -0.0515,0.0515 0.0601,0.196887 0.15089,0.196887 0.0646,0 0.0889,-0.03051 0.0889,-0.112654 0,-0.0882 -0.0231,-0.113172 -0.10542,-0.113172 z m 2.26601,0.135909 c 0.13758,0.119299 0.28088,0.235705 0.4346,0.347266 -0.01,0.0069 -0.0181,0.01447 -0.0351,0.01447 -0.0842,0 -0.33828,-0.242255 -0.39946,-0.361735 z m 1.24075,0.853178 c 0.1019,0.05693 0.20415,0.114051 0.31057,0.168466 -0.0393,-0.01087 -0.0859,-0.02532 -0.10076,-0.02532 -0.0726,0 -0.17492,-0.07608 -0.20981,-0.143144 z m -3.49384,0.0067 c -0.068,0 -0.0929,0.02357 -0.0822,0.07906 0.008,0.0435 0.0457,0.07906 0.0822,0.07906 0.0365,0 0.0736,-0.03557 0.0816,-0.07906 0.0108,-0.05549 -0.0136,-0.07906 -0.0816,-0.07906 z m 2.80603,0.20774 c -0.0596,0.0049 -0.0815,0.05952 -0.0403,0.136425 0.0387,0.0723 0.0611,0.08001 0.11265,0.03721 0.0826,-0.06862 0.0823,-0.12933 -0.001,-0.16123 -0.0273,-0.01051 -0.0514,-0.01405 -0.0713,-0.0124 z m -2.79208,0.252181 c -0.0538,-0.01354 -0.11081,10e-4 -0.13126,0.05426 -0.0388,0.101 0.0171,0.163297 0.14573,0.163297 0.0917,0 0.1104,-0.01955 0.0987,-0.101802 -0.009,-0.06056 -0.0593,-0.102214 -0.11317,-0.115755 z m 3.8871,0.186035 c 0.0626,0.01632 0.13381,0.03727 0.21859,0.06873 -0.0872,0.0076 -0.16163,-0.01679 -0.21859,-0.06873 z m -1.04955,0.05374 c -0.10699,0 -0.16793,0.11987 -0.0977,0.190169 0.0264,0.027 0.0799,0.03557 0.11886,0.02067 0.10728,-0.04119 0.0902,-0.21084 -0.0212,-0.21084 z m -2.86287,0.208256 c -0.0248,0.0039 -0.0469,0.02424 -0.0791,0.06304 -0.0449,0.0541 -0.0449,0.08188 0,0.135909 0.0309,0.0373 0.0827,0.0677 0.11524,0.0677 0.0866,0 0.13351,-0.183724 0.0589,-0.230994 -0.0426,-0.027 -0.0702,-0.03955 -0.0951,-0.03566 z m 2.81636,0.301791 c -0.0207,0.0037 -0.0398,0.01192 -0.0543,0.02635 -0.0684,0.06845 0.0239,0.16379 0.12196,0.12609 0.0387,-0.01508 0.0708,-0.04863 0.0708,-0.07493 0,-0.0366 -0.034,-0.06405 -0.0749,-0.07493 -0.0205,-0.0054 -0.0428,-0.0063 -0.0636,-0.0026 z m -2.81895,0.202571 c -0.0215,0.0055 -0.0428,0.01752 -0.0625,0.03721 -0.0783,0.0783 -0.0188,0.176734 0.10697,0.176734 0.0896,0 0.10824,-0.02 0.0966,-0.101286 -0.0121,-0.08535 -0.0765,-0.129179 -0.14108,-0.112655 z m 6.951,0.0021 c 0.091,0.0074 0.17055,0.02338 0.18242,0.04082 -0.0473,-0.0036 -0.11332,-0.02177 -0.18242,-0.04082 z m -4.1181,0.287838 c -0.0435,0.0083 -0.0791,0.04557 -0.0791,0.08217 0,0.0366 0.0356,0.07365 0.0791,0.08165 0.0555,0.0106 0.0791,-0.01365 0.0791,-0.08165 0,-0.068 -0.0236,-0.09287 -0.0791,-0.08217 z m 16.79329,0.155546 c -0.027,-0.0023 -0.0526,0.01144 -0.0971,0.03979 -0.0514,0.03307 -0.037,0.08857 0.003,0.137976 h 0.24702 c 0.007,-0.03976 2.4e-4,-0.08556 -0.0481,-0.120923 -0.0494,-0.0361 -0.0779,-0.05452 -0.10491,-0.05684 z m -19.52852,0.04031 c -0.0586,3.8e-4 -0.13535,0.01884 -0.17105,0.04134 v 5.17e-4 c -0.0462,0.02899 -0.0342,0.05428 -0.005,0.0956 h 0.23927 c 0.005,-0.02311 0.007,-0.04339 0.016,-0.06666 0.0203,-0.0528 -3.7e-4,-0.0713 -0.0791,-0.0708 z" /></g></svg>
