<?xml version="1.0" encoding="UTF-8" standalone="no"?>
<!-- Created with Inkscape (http://www.inkscape.org/) -->

<svg
   width="210mm"
   height="297mm"
   viewBox="0 0 210 297"
   version="1.1"
   id="svg1"
   inkscape:version="1.3.2 (091e20e, 2023-11-25, custom)"
   sodipodi:docname="Zipppp Service Course Profile handmade.svg"
   xml:space="preserve"
   xmlns:inkscape="http://www.inkscape.org/namespaces/inkscape"
   xmlns:sodipodi="http://sodipodi.sourceforge.net/DTD/sodipodi-0.dtd"
   xmlns="http://www.w3.org/2000/svg"
   xmlns:svg="http://www.w3.org/2000/svg"><sodipodi:namedview
     id="namedview1"
     pagecolor="#ffffff"
     bordercolor="#000000"
     borderopacity="0.25"
     inkscape:showpageshadow="2"
     inkscape:pageopacity="0.0"
     inkscape:pagecheckerboard="0"
     inkscape:deskcolor="#d1d1d1"
     inkscape:document-units="mm"
     inkscape:zoom="0.17304819"
     inkscape:cx="1488.0248"
     inkscape:cy="1880.9789"
     inkscape:window-width="1920"
     inkscape:window-height="991"
     inkscape:window-x="-9"
     inkscape:window-y="-9"
     inkscape:window-maximized="1"
     inkscape:current-layer="layer1" /><defs
     id="defs1" /><g
     inkscape:label="Layer 1"
     inkscape:groupmode="layer"
     id="layer1"><path
       d="m 70.332421,40.673928 h 26.528 0.001 c 4.673999,0 4.833999,0 -0.956,0 h -0.001 -24.426 v -3e-4 c -5.288,-1e-4 -5.706,2e-4 -1.146,3e-4 z"
       style="opacity:0.911011;fill:#ff6600;fill-opacity:0.541063"
       id="path11" /><path
       id="path19"
       style="opacity:0.911011;fill:#ff6600;fill-opacity:0.541063;stroke-width:1.0112"
       d="m -0.31662672,276.75002 c -3.83840698,0.077 -7.99643798,0.43435 -11.16598528,2.79968 -1.312718,1.1759 -2.00178,2.85978 -2.90273,4.33568 -2.56874,5.51889 -2.654249,11.7976 -2.207211,17.75294 0.380103,3.88668 1.438712,7.77773 3.680027,11.02647 1.634494,3.04747 5.3917863,3.85726 8.5443303,4.33557 4.70471798,0.53762 9.664109,0.30515 14.05416,-1.59799 2.7955367,-1.13956 4.0206427,-4.0978 5.1082317,-6.67788 2.361117,-6.40426 2.549475,-13.52071 1.027387,-20.13958 -0.804617,-3.08967 -1.958828,-6.2296 -4.101412,-8.65648 C 8.8089003,277.55158 4.8770843,277.05035 1.2410373,276.791 0.72229323,276.7645 0.20238328,276.7541 -0.31662672,276.75 Z" /></g></svg>
