<?xml version="1.0" encoding="UTF-8" standalone="no"?>
<!-- Created with Inkscape (http://www.inkscape.org/) -->

<svg
   width="210mm"
   height="297mm"
   viewBox="0 0 210 297"
   version="1.1"
   id="svg1039"
   inkscape:version="1.1.2 (b8e25be833, 2022-02-05)"
   sodipodi:docname="SpeakerLayerHalf.svg"
   xmlns:inkscape="http://www.inkscape.org/namespaces/inkscape"
   xmlns:sodipodi="http://sodipodi.sourceforge.net/DTD/sodipodi-0.dtd"
   xmlns="http://www.w3.org/2000/svg"
   xmlns:svg="http://www.w3.org/2000/svg">
  <sodipodi:namedview
     id="namedview1041"
     pagecolor="#ffffff"
     bordercolor="#666666"
     borderopacity="1.0"
     inkscape:pageshadow="2"
     inkscape:pageopacity="0.0"
     inkscape:pagecheckerboard="0"
     inkscape:document-units="mm"
     showgrid="false"
     inkscape:zoom="0.092537353"
     inkscape:cx="-4025.4015"
     inkscape:cy="1091.4512"
     inkscape:window-width="1920"
     inkscape:window-height="1017"
     inkscape:window-x="-8"
     inkscape:window-y="-8"
     inkscape:window-maximized="1"
     inkscape:current-layer="layer1" />
  <defs
     id="defs1036" />
  <g
     inkscape:label="Layer 1"
     inkscape:groupmode="layer"
     id="layer1">
    <path
       id="rect3771"
       style="fill:none;fill-opacity:0.875;stroke:#000000;stroke-width:3.78153;stroke-miterlimit:4;stroke-dasharray:none;stroke-opacity:1"
       d="m 25.830078,1.890625 -0.02148,0.00195 -0.0039,0.015625 c -4.139468,0 -8.027573,1.0465737 -11.416016,2.8925781 -0.338835,0.1846678 -0.671386,0.377863 -1,0.578125 C 13.0611,5.5788055 12.738863,5.7850507 12.421875,6 c -0.06618,0.045354 -0.129662,0.093355 -0.195313,0.1386719 -0.250204,0.1734803 -0.499043,0.3484267 -0.742187,0.53125 -0.01361,0.013228 -0.02906,0.021801 -0.04297,0.03125 C 10.847508,7.1492084 10.275485,7.6244318 9.7265625,8.125 h -0.00391 C 9.62522,8.214348 9.5334244,8.3080312 9.4375,8.3984375 9.2503756,8.5748658 9.0622449,8.7492142 8.8808594,8.9316406 8.6107365,9.2032753 8.3467753,9.481208 8.0898438,9.765625 c -0.2528126,0.279609 -0.498728,0.565801 -0.7382813,0.857422 -0.073285,0.08935 -0.1409284,0.183296 -0.2128906,0.273437 -0.1710236,0.214413 -0.3440467,0.428023 -0.5078125,0.648438 -0.9163212,1.233426 -1.7168259,2.559235 -2.3867188,3.960937 -0.1850078,0.387228 -0.3607216,0.779305 -0.5253906,1.177735 -0.018142,0.04399 -0.03516,0.09077 -0.052734,0.134765 -0.1363272,0.335509 -0.2652488,0.674753 -0.3867187,1.017579 -0.043389,0.122683 -0.081699,0.247767 -0.1230469,0.371093 -0.09154,0.272693 -0.1797034,0.547267 -0.2617188,0.824219 -0.046186,0.156283 -0.089726,0.313475 -0.1328124,0.470703 -0.064857,0.236674 -0.1258426,0.473541 -0.1835938,0.712891 -0.046715,0.194003 -0.090784,0.388235 -0.1328125,0.583984 -0.043918,0.204019 -0.084231,0.40922 -0.1230469,0.615234 -0.042444,0.226016 -0.082971,0.453225 -0.1191406,0.681641 -0.030614,0.192265 -0.056141,0.386064 -0.082031,0.580078 -0.029858,0.223635 -0.062051,0.446525 -0.085938,0.671875 -0.020409,0.191736 -0.035096,0.385044 -0.050781,0.578125 -0.020787,0.254022 -0.043677,0.507518 -0.056641,0.763672 -1.625e-4,0 1.587e-4,0.01367 0,0.01367 -0.020409,0.407766 -0.03125,0.819588 -0.03125,1.232422 l 0.015625,122.337895 c 0.00267,91.8638 -0.00873,183.10875 -0.00195,273.57812 l -0.00586,0.002 0.00781,191.6582 c 0.00529,160.24864 0.00311,320.07073 -0.021484,484.30854 h 0.00391 0.00391 0.00586 0.00391 0.00391 l 0.00195,47.2891 c 0.2139965,7.4665 3.4025063,13.5733 8.4277346,17.8457 4.659507,3.9615 10.894156,6.3379 17.771484,6.791 h 549.730466 0.008 0.002 0.004 0.004 0.004 0.0527 30.07031 c 105.81668,-0.9442 191.1174,-86.994 191.18555,-192.71676 h 0.0117 c 0.0443,-8.12414 0.0238,-16.48533 0.0235,-24.00975 10e-4,-15.70065 0.01,-38.41522 0.0137,-66.08008 0.004,-50.21336 0.012,-119.08741 0.0195,-189.60156 0.0878,-3.73633 0.0611,-3.12344 0.0878,-3.73633 2.3e-4,-21.62377 18.30612,-39.15208 39.94929,-39.15234 21.64323,1.1e-4 39.18922,17.52857 39.18945,39.15234 l 0.0957,3.73633 c 0.034,211.18159 0.0781,446.98025 0.0781,446.98055 0.10923,13.7255 12.76323,24.6205 26.52344,25.4453 h 3.55273 c 0.26683,-0.015 0.53576,-0.027 0.80078,-0.047 0.57373,-0.043 1.14309,-0.098 1.70703,-0.166 0.30274,-0.038 0.6006,-0.083 0.90039,-0.127 0.45763,-0.069 0.91134,-0.1482 1.36133,-0.2343 0.41613,-0.08 0.82915,-0.1673 1.23828,-0.2618 0.38907,-0.091 0.77395,-0.1878 1.15625,-0.291 0.44599,-0.1198 0.88803,-0.2504 1.32422,-0.3887 0.34243,-0.108 0.68147,-0.2204 1.01758,-0.3398 0.40127,-0.1429 0.79973,-0.2932 1.19141,-0.4512 0.37606,-0.1515 0.7485,-0.309 1.11523,-0.4746 0.32391,-0.1462 0.64256,-0.296 0.95898,-0.4531 0.43964,-0.2181 0.8727,-0.4452 1.29688,-0.6836 1.50361,-0.8457 2.90896,-1.8161 4.19336,-2.9082 2.26692,-1.9273 4.15892,-4.2283 5.57617,-6.8574 0.004,-0.015 0.01,-0.018 0.0137,-0.025 0.0189,-0.03 0.0303,-0.067 0.0488,-0.098 0.16895,-0.3178 0.33332,-0.6412 0.48828,-0.9687 0.0563,-0.1187 0.10806,-0.2408 0.16211,-0.3613 0.11225,-0.2487 0.22381,-0.4981 0.32813,-0.752 0.079,-0.1931 0.15053,-0.3902 0.22461,-0.5859 0.0744,-0.1966 0.1492,-0.3926 0.21875,-0.5918 0.0763,-0.22 0.14845,-0.4426 0.21875,-0.6661 0.0574,-0.1814 0.11467,-0.3631 0.16796,-0.5468 0.0748,-0.2593 0.14404,-0.5216 0.21094,-0.7852 0.0385,-0.1523 0.0754,-0.305 0.11133,-0.459 0.0714,-0.3069 0.13717,-0.6167 0.19727,-0.9297 0.0189,-0.098 0.0389,-0.1959 0.0566,-0.2949 0.0658,-0.3651 0.12356,-0.7343 0.17382,-1.1074 0.008,-0.065 0.0198,-0.1311 0.0273,-0.1973 0.0469,-0.3692 0.0858,-0.7425 0.11719,-1.1191 0.008,-0.092 0.0139,-0.1847 0.0215,-0.2773 0.0265,-0.3836 0.0488,-0.7694 0.0606,-1.1602 10e-4,-0.063 0.004,-0.1239 0.008,-0.1855 v -11.17 l 0.004,-35.9609 h 0.004 0.002 0.004 0.004 c -0.0559,-363.50828 0.002,-706.46405 0.002,-1071.919973 0,-0.01474 -0.002,-0.03091 -0.002,-0.04297 -0.003,-0.587773 -0.0265,-1.169251 -0.0703,-1.746094 -0.008,-0.108019 -0.016,-0.216464 -0.0273,-0.324218 -0.0514,-0.589112 -0.11834,-1.172138 -0.21094,-1.748047 -0.0113,-0.072 -0.0266,-0.143109 -0.0391,-0.214844 -0.10016,-0.588578 -0.21569,-1.171168 -0.35742,-1.744141 -0.003,-0.01323 -0.003,-0.01745 -0.008,-0.02539 -8.3e-4,0 -0.003,-0.01367 -0.004,-0.01367 -0.15042,-0.604849 -0.32492,-1.197959 -0.51953,-1.783203 -0.0113,-0.03866 -0.0258,-0.07594 -0.0371,-0.113282 -0.81139,-2.400177 -1.98803,-4.629171 -3.46484,-6.617187 -0.22904,-0.308296 -0.46765,-0.611382 -0.71094,-0.908203 -0.24302,-0.296429 -0.49307,-0.588759 -0.75,-0.8730471 -0.25701,-0.2841449 -0.51898,-0.5623611 -0.78906,-0.8339844 -0.18142,-0.182022 -0.3714,-0.3567899 -0.5586,-0.5332031 -0.096,-0.090671 -0.18764,-0.1846186 -0.28515,-0.2734375 -0.56092,-0.5116347 -1.14796,-0.9965543 -1.75586,-1.453125 -0.61338,-0.4605619 -1.24899,-0.8922708 -1.90625,-1.2929688 -0.32844,-0.2002771 -0.66113,-0.3934459 -1,-0.578125 C 919.54712,2.9528237 915.65902,1.90625 911.51953,1.90625 l -0.008,-0.015625 h -0.0215 -442.83007 z"
       transform="scale(0.26458333)"
       sodipodi:nodetypes="cccccccccccccccccccccccscccccccccccccccccccccscccccccccccccccccccccccccccccssscscccsccscccssssccscccccccccsccccccccccssscscsscccccc" />
  </g>
</svg>
