<?xml version="1.0" encoding="UTF-8" standalone="no"?>
<svg
   version="1.1"
   inkscape:output_extension="org.inkscape.output.svg.inkscape"
   sodipodi:docname="SpeakerLayerOddHalf.svg"
   inkscape:version="1.3 (0e150ed6c4, 2023-07-21)"
   sodipodi:version="0.32"
   id="svg2338"
   xml:space="preserve"
   viewBox="0 0 1116.852 1116.85"
   height="1116.85pt"
   width="1116.852pt"
   xmlns:inkscape="http://www.inkscape.org/namespaces/inkscape"
   xmlns:sodipodi="http://sodipodi.sourceforge.net/DTD/sodipodi-0.dtd"
   xmlns="http://www.w3.org/2000/svg"
   xmlns:svg="http://www.w3.org/2000/svg"
   xmlns:rdf="http://www.w3.org/1999/02/22-rdf-syntax-ns#"
   xmlns:cc="http://creativecommons.org/ns#"
   xmlns:dc="http://purl.org/dc/elements/1.1/"><metadata
     id="metadata2382"><rdf:RDF><cc:Work
         rdf:about=""><dc:format>image/svg+xml</dc:format><dc:type
           rdf:resource="http://purl.org/dc/dcmitype/StillImage" /></cc:Work></rdf:RDF></metadata><defs
     id="defs2380"><inkscape:perspective
       id="perspective46224"
       inkscape:persp3d-origin="698.03253 : 465.35417 : 1"
       inkscape:vp_z="1396.0651 : 698.03125 : 1"
       inkscape:vp_y="0 : 1000 : 0"
       inkscape:vp_x="0 : 698.03125 : 1"
       sodipodi:type="inkscape:persp3d" /><inkscape:perspective
       id="perspective37556-9"
       inkscape:persp3d-origin="338.38562 : 225.59001 : 1"
       inkscape:vp_z="676.77124 : 338.38501 : 1"
       inkscape:vp_y="0 : 1000 : 0"
       inkscape:vp_x="0 : 338.38501 : 1"
       sodipodi:type="inkscape:persp3d" /><inkscape:perspective
       id="perspective16301-9"
       inkscape:persp3d-origin="338.38562 : 225.59001 : 1"
       inkscape:vp_z="676.77124 : 338.38501 : 1"
       inkscape:vp_y="0 : 1000 : 0"
       inkscape:vp_x="0 : 338.38501 : 1"
       sodipodi:type="inkscape:persp3d" /><inkscape:perspective
       id="perspective12409-1"
       inkscape:persp3d-origin="270.7085 : 180.47233 : 1"
       inkscape:vp_z="541.41699 : 270.7085 : 1"
       inkscape:vp_y="0 : 1000 : 0"
       inkscape:vp_x="0 : 270.7085 : 1"
       sodipodi:type="inkscape:persp3d" /><inkscape:perspective
       id="perspective9337-7"
       inkscape:persp3d-origin="0.5 : 0.33333333 : 1"
       inkscape:vp_z="1 : 0.5 : 1"
       inkscape:vp_y="0 : 1000 : 0"
       inkscape:vp_x="0 : 0.5 : 1"
       sodipodi:type="inkscape:persp3d" /><inkscape:perspective
       id="perspective8562-2"
       inkscape:persp3d-origin="0.5 : 0.33333333 : 1"
       inkscape:vp_z="1 : 0.5 : 1"
       inkscape:vp_y="0 : 1000 : 0"
       inkscape:vp_x="0 : 0.5 : 1"
       sodipodi:type="inkscape:persp3d" /><inkscape:perspective
       sodipodi:type="inkscape:persp3d"
       inkscape:vp_x="0 : 338.38501 : 1"
       inkscape:vp_y="0 : 1000 : 0"
       inkscape:vp_z="676.77124 : 338.38501 : 1"
       inkscape:persp3d-origin="338.38562 : 225.59001 : 1"
       id="perspective3083-3" /><inkscape:perspective
       sodipodi:type="inkscape:persp3d"
       inkscape:vp_x="0 : 270.7085 : 1"
       inkscape:vp_y="0 : 1000 : 0"
       inkscape:vp_z="541.41699 : 270.7085 : 1"
       inkscape:persp3d-origin="270.7085 : 180.47233 : 1"
       id="perspective23419-6" /><inkscape:perspective
       sodipodi:type="inkscape:persp3d"
       inkscape:vp_x="0 : 338.38501 : 1"
       inkscape:vp_y="0 : 1000 : 0"
       inkscape:vp_z="676.77124 : 338.38501 : 1"
       inkscape:persp3d-origin="338.38562 : 225.59001 : 1"
       id="perspective27913-5" /><inkscape:perspective
       id="perspective27913"
       inkscape:persp3d-origin="338.38562 : 225.59001 : 1"
       inkscape:vp_z="676.77124 : 338.38501 : 1"
       inkscape:vp_y="0 : 1000 : 0"
       inkscape:vp_x="0 : 338.38501 : 1"
       sodipodi:type="inkscape:persp3d" /><inkscape:perspective
       id="perspective23419"
       inkscape:persp3d-origin="270.7085 : 180.47233 : 1"
       inkscape:vp_z="541.41699 : 270.7085 : 1"
       inkscape:vp_y="0 : 1000 : 0"
       inkscape:vp_x="0 : 270.7085 : 1"
       sodipodi:type="inkscape:persp3d" /><inkscape:perspective
       id="perspective3083"
       inkscape:persp3d-origin="338.38562 : 225.59001 : 1"
       inkscape:vp_z="676.77124 : 338.38501 : 1"
       inkscape:vp_y="0 : 1000 : 0"
       inkscape:vp_x="0 : 338.38501 : 1"
       sodipodi:type="inkscape:persp3d" /><inkscape:perspective
       sodipodi:type="inkscape:persp3d"
       inkscape:vp_x="0 : 0.5 : 1"
       inkscape:vp_y="0 : 1000 : 0"
       inkscape:vp_z="1 : 0.5 : 1"
       inkscape:persp3d-origin="0.5 : 0.33333333 : 1"
       id="perspective8562" /><inkscape:perspective
       sodipodi:type="inkscape:persp3d"
       inkscape:vp_x="0 : 0.5 : 1"
       inkscape:vp_y="0 : 1000 : 0"
       inkscape:vp_z="1 : 0.5 : 1"
       inkscape:persp3d-origin="0.5 : 0.33333333 : 1"
       id="perspective9337" /><inkscape:perspective
       sodipodi:type="inkscape:persp3d"
       inkscape:vp_x="0 : 270.7085 : 1"
       inkscape:vp_y="0 : 1000 : 0"
       inkscape:vp_z="541.41699 : 270.7085 : 1"
       inkscape:persp3d-origin="270.7085 : 180.47233 : 1"
       id="perspective12409" /><inkscape:perspective
       sodipodi:type="inkscape:persp3d"
       inkscape:vp_x="0 : 338.38501 : 1"
       inkscape:vp_y="0 : 1000 : 0"
       inkscape:vp_z="676.77124 : 338.38501 : 1"
       inkscape:persp3d-origin="338.38562 : 225.59001 : 1"
       id="perspective16301" /><inkscape:perspective
       sodipodi:type="inkscape:persp3d"
       inkscape:vp_x="0 : 338.38501 : 1"
       inkscape:vp_y="0 : 1000 : 0"
       inkscape:vp_z="676.77124 : 338.38501 : 1"
       inkscape:persp3d-origin="338.38562 : 225.59001 : 1"
       id="perspective37556" /><inkscape:perspective
       sodipodi:type="inkscape:persp3d"
       inkscape:vp_x="0 : 270.70999 : 1"
       inkscape:vp_y="0 : 1000 : 0"
       inkscape:vp_z="541.41998 : 270.70999 : 1"
       inkscape:persp3d-origin="270.70999 : 180.47333 : 1"
       id="perspective51446" /><inkscape:perspective
       id="perspective37556-9-8"
       inkscape:persp3d-origin="338.38562 : 225.59001 : 1"
       inkscape:vp_z="676.77124 : 338.38501 : 1"
       inkscape:vp_y="0 : 1000 : 0"
       inkscape:vp_x="0 : 338.38501 : 1"
       sodipodi:type="inkscape:persp3d" /><inkscape:perspective
       id="perspective16301-9-1"
       inkscape:persp3d-origin="338.38562 : 225.59001 : 1"
       inkscape:vp_z="676.77124 : 338.38501 : 1"
       inkscape:vp_y="0 : 1000 : 0"
       inkscape:vp_x="0 : 338.38501 : 1"
       sodipodi:type="inkscape:persp3d" /><inkscape:perspective
       id="perspective12409-1-2"
       inkscape:persp3d-origin="270.7085 : 180.47233 : 1"
       inkscape:vp_z="541.41699 : 270.7085 : 1"
       inkscape:vp_y="0 : 1000 : 0"
       inkscape:vp_x="0 : 270.7085 : 1"
       sodipodi:type="inkscape:persp3d" /><inkscape:perspective
       id="perspective9337-7-0"
       inkscape:persp3d-origin="0.5 : 0.33333333 : 1"
       inkscape:vp_z="1 : 0.5 : 1"
       inkscape:vp_y="0 : 1000 : 0"
       inkscape:vp_x="0 : 0.5 : 1"
       sodipodi:type="inkscape:persp3d" /><inkscape:perspective
       id="perspective8562-2-5"
       inkscape:persp3d-origin="0.5 : 0.33333333 : 1"
       inkscape:vp_z="1 : 0.5 : 1"
       inkscape:vp_y="0 : 1000 : 0"
       inkscape:vp_x="0 : 0.5 : 1"
       sodipodi:type="inkscape:persp3d" /><inkscape:perspective
       sodipodi:type="inkscape:persp3d"
       inkscape:vp_x="0 : 338.38501 : 1"
       inkscape:vp_y="0 : 1000 : 0"
       inkscape:vp_z="676.77124 : 338.38501 : 1"
       inkscape:persp3d-origin="338.38562 : 225.59001 : 1"
       id="perspective3083-3-7" /><inkscape:perspective
       sodipodi:type="inkscape:persp3d"
       inkscape:vp_x="0 : 270.7085 : 1"
       inkscape:vp_y="0 : 1000 : 0"
       inkscape:vp_z="541.41699 : 270.7085 : 1"
       inkscape:persp3d-origin="270.7085 : 180.47233 : 1"
       id="perspective23419-6-3" /><inkscape:perspective
       sodipodi:type="inkscape:persp3d"
       inkscape:vp_x="0 : 338.38501 : 1"
       inkscape:vp_y="0 : 1000 : 0"
       inkscape:vp_z="676.77124 : 338.38501 : 1"
       inkscape:persp3d-origin="338.38562 : 225.59001 : 1"
       id="perspective27913-5-7" /><inkscape:perspective
       id="perspective27913-9"
       inkscape:persp3d-origin="338.38562 : 225.59001 : 1"
       inkscape:vp_z="676.77124 : 338.38501 : 1"
       inkscape:vp_y="0 : 1000 : 0"
       inkscape:vp_x="0 : 338.38501 : 1"
       sodipodi:type="inkscape:persp3d" /><inkscape:perspective
       id="perspective23419-3"
       inkscape:persp3d-origin="270.7085 : 180.47233 : 1"
       inkscape:vp_z="541.41699 : 270.7085 : 1"
       inkscape:vp_y="0 : 1000 : 0"
       inkscape:vp_x="0 : 270.7085 : 1"
       sodipodi:type="inkscape:persp3d" /><inkscape:perspective
       id="perspective3083-1"
       inkscape:persp3d-origin="338.38562 : 225.59001 : 1"
       inkscape:vp_z="676.77124 : 338.38501 : 1"
       inkscape:vp_y="0 : 1000 : 0"
       inkscape:vp_x="0 : 338.38501 : 1"
       sodipodi:type="inkscape:persp3d" /><inkscape:perspective
       sodipodi:type="inkscape:persp3d"
       inkscape:vp_x="0 : 0.5 : 1"
       inkscape:vp_y="0 : 1000 : 0"
       inkscape:vp_z="1 : 0.5 : 1"
       inkscape:persp3d-origin="0.5 : 0.33333333 : 1"
       id="perspective8562-25" /><inkscape:perspective
       sodipodi:type="inkscape:persp3d"
       inkscape:vp_x="0 : 0.5 : 1"
       inkscape:vp_y="0 : 1000 : 0"
       inkscape:vp_z="1 : 0.5 : 1"
       inkscape:persp3d-origin="0.5 : 0.33333333 : 1"
       id="perspective9337-6" /><inkscape:perspective
       sodipodi:type="inkscape:persp3d"
       inkscape:vp_x="0 : 270.7085 : 1"
       inkscape:vp_y="0 : 1000 : 0"
       inkscape:vp_z="541.41699 : 270.7085 : 1"
       inkscape:persp3d-origin="270.7085 : 180.47233 : 1"
       id="perspective12409-8" /><inkscape:perspective
       sodipodi:type="inkscape:persp3d"
       inkscape:vp_x="0 : 338.38501 : 1"
       inkscape:vp_y="0 : 1000 : 0"
       inkscape:vp_z="676.77124 : 338.38501 : 1"
       inkscape:persp3d-origin="338.38562 : 225.59001 : 1"
       id="perspective16301-5" /><inkscape:perspective
       sodipodi:type="inkscape:persp3d"
       inkscape:vp_x="0 : 338.38501 : 1"
       inkscape:vp_y="0 : 1000 : 0"
       inkscape:vp_z="676.77124 : 338.38501 : 1"
       inkscape:persp3d-origin="338.38562 : 225.59001 : 1"
       id="perspective37556-4" /><inkscape:perspective
       id="perspective37556-9-1"
       inkscape:persp3d-origin="338.38562 : 225.59001 : 1"
       inkscape:vp_z="676.77124 : 338.38501 : 1"
       inkscape:vp_y="0 : 1000 : 0"
       inkscape:vp_x="0 : 338.38501 : 1"
       sodipodi:type="inkscape:persp3d" /><inkscape:perspective
       id="perspective16301-9-3"
       inkscape:persp3d-origin="338.38562 : 225.59001 : 1"
       inkscape:vp_z="676.77124 : 338.38501 : 1"
       inkscape:vp_y="0 : 1000 : 0"
       inkscape:vp_x="0 : 338.38501 : 1"
       sodipodi:type="inkscape:persp3d" /><inkscape:perspective
       id="perspective12409-1-9"
       inkscape:persp3d-origin="270.7085 : 180.47233 : 1"
       inkscape:vp_z="541.41699 : 270.7085 : 1"
       inkscape:vp_y="0 : 1000 : 0"
       inkscape:vp_x="0 : 270.7085 : 1"
       sodipodi:type="inkscape:persp3d" /><inkscape:perspective
       id="perspective9337-7-1"
       inkscape:persp3d-origin="0.5 : 0.33333333 : 1"
       inkscape:vp_z="1 : 0.5 : 1"
       inkscape:vp_y="0 : 1000 : 0"
       inkscape:vp_x="0 : 0.5 : 1"
       sodipodi:type="inkscape:persp3d" /><inkscape:perspective
       id="perspective8562-2-7"
       inkscape:persp3d-origin="0.5 : 0.33333333 : 1"
       inkscape:vp_z="1 : 0.5 : 1"
       inkscape:vp_y="0 : 1000 : 0"
       inkscape:vp_x="0 : 0.5 : 1"
       sodipodi:type="inkscape:persp3d" /><inkscape:perspective
       sodipodi:type="inkscape:persp3d"
       inkscape:vp_x="0 : 338.38501 : 1"
       inkscape:vp_y="0 : 1000 : 0"
       inkscape:vp_z="676.77124 : 338.38501 : 1"
       inkscape:persp3d-origin="338.38562 : 225.59001 : 1"
       id="perspective3083-3-8" /><inkscape:perspective
       sodipodi:type="inkscape:persp3d"
       inkscape:vp_x="0 : 270.7085 : 1"
       inkscape:vp_y="0 : 1000 : 0"
       inkscape:vp_z="541.41699 : 270.7085 : 1"
       inkscape:persp3d-origin="270.7085 : 180.47233 : 1"
       id="perspective23419-6-8" /><inkscape:perspective
       sodipodi:type="inkscape:persp3d"
       inkscape:vp_x="0 : 338.38501 : 1"
       inkscape:vp_y="0 : 1000 : 0"
       inkscape:vp_z="676.77124 : 338.38501 : 1"
       inkscape:persp3d-origin="338.38562 : 225.59001 : 1"
       id="perspective27913-5-4" /><inkscape:perspective
       id="perspective27913-1"
       inkscape:persp3d-origin="338.38562 : 225.59001 : 1"
       inkscape:vp_z="676.77124 : 338.38501 : 1"
       inkscape:vp_y="0 : 1000 : 0"
       inkscape:vp_x="0 : 338.38501 : 1"
       sodipodi:type="inkscape:persp3d" /><inkscape:perspective
       id="perspective23419-9"
       inkscape:persp3d-origin="270.7085 : 180.47233 : 1"
       inkscape:vp_z="541.41699 : 270.7085 : 1"
       inkscape:vp_y="0 : 1000 : 0"
       inkscape:vp_x="0 : 270.7085 : 1"
       sodipodi:type="inkscape:persp3d" /><inkscape:perspective
       id="perspective3083-8"
       inkscape:persp3d-origin="338.38562 : 225.59001 : 1"
       inkscape:vp_z="676.77124 : 338.38501 : 1"
       inkscape:vp_y="0 : 1000 : 0"
       inkscape:vp_x="0 : 338.38501 : 1"
       sodipodi:type="inkscape:persp3d" /><inkscape:perspective
       sodipodi:type="inkscape:persp3d"
       inkscape:vp_x="0 : 0.5 : 1"
       inkscape:vp_y="0 : 1000 : 0"
       inkscape:vp_z="1 : 0.5 : 1"
       inkscape:persp3d-origin="0.5 : 0.33333333 : 1"
       id="perspective8562-6" /><inkscape:perspective
       sodipodi:type="inkscape:persp3d"
       inkscape:vp_x="0 : 0.5 : 1"
       inkscape:vp_y="0 : 1000 : 0"
       inkscape:vp_z="1 : 0.5 : 1"
       inkscape:persp3d-origin="0.5 : 0.33333333 : 1"
       id="perspective9337-2" /><inkscape:perspective
       sodipodi:type="inkscape:persp3d"
       inkscape:vp_x="0 : 270.7085 : 1"
       inkscape:vp_y="0 : 1000 : 0"
       inkscape:vp_z="541.41699 : 270.7085 : 1"
       inkscape:persp3d-origin="270.7085 : 180.47233 : 1"
       id="perspective12409-3" /><inkscape:perspective
       sodipodi:type="inkscape:persp3d"
       inkscape:vp_x="0 : 338.38501 : 1"
       inkscape:vp_y="0 : 1000 : 0"
       inkscape:vp_z="676.77124 : 338.38501 : 1"
       inkscape:persp3d-origin="338.38562 : 225.59001 : 1"
       id="perspective16301-56" /><inkscape:perspective
       sodipodi:type="inkscape:persp3d"
       inkscape:vp_x="0 : 338.38501 : 1"
       inkscape:vp_y="0 : 1000 : 0"
       inkscape:vp_z="676.77124 : 338.38501 : 1"
       inkscape:persp3d-origin="338.38562 : 225.59001 : 1"
       id="perspective37556-5" /><inkscape:perspective
       sodipodi:type="inkscape:persp3d"
       inkscape:vp_x="0 : 0.5 : 1"
       inkscape:vp_y="0 : 1000 : 0"
       inkscape:vp_z="1 : 0.5 : 1"
       inkscape:persp3d-origin="0.5 : 0.33333333 : 1"
       id="perspective10328" /><inkscape:perspective
       sodipodi:type="inkscape:persp3d"
       inkscape:vp_x="0 : 0.5 : 1"
       inkscape:vp_y="0 : 1000 : 0"
       inkscape:vp_z="1 : 0.5 : 1"
       inkscape:persp3d-origin="0.5 : 0.33333333 : 1"
       id="perspective11034" /><inkscape:perspective
       sodipodi:type="inkscape:persp3d"
       inkscape:vp_x="0 : 0.5 : 1"
       inkscape:vp_y="0 : 1000 : 0"
       inkscape:vp_z="1 : 0.5 : 1"
       inkscape:persp3d-origin="0.5 : 0.33333333 : 1"
       id="perspective3083-7" /><inkscape:perspective
       sodipodi:type="inkscape:persp3d"
       inkscape:vp_x="0 : 0.5 : 1"
       inkscape:vp_y="0 : 1000 : 0"
       inkscape:vp_z="1 : 0.5 : 1"
       inkscape:persp3d-origin="0.5 : 0.33333333 : 1"
       id="perspective2997" /></defs><sodipodi:namedview
     showguides="false"
     inkscape:document-rotation="0"
     inkscape:document-units="mm"
     inkscape:window-maximized="1"
     showgrid="false"
     inkscape:current-layer="layer10"
     inkscape:window-y="-11"
     inkscape:window-x="3829"
     inkscape:cy="656.49998"
     inkscape:cx="1253.5"
     inkscape:zoom="1"
     id="base"
     pagecolor="#ffffff"
     bordercolor="#666666"
     borderopacity="1.0"
     objecttolerance="10.0"
     gridtolerance="10.0"
     guidetolerance="10.0"
     inkscape:pageopacity="0.0"
     inkscape:pageshadow="2"
     inkscape:window-width="3840"
     inkscape:window-height="2054"
     inkscape:pagecheckerboard="0"
     inkscape:showpageshadow="2"
     inkscape:deskcolor="#d1d1d1" /><g
     inkscape:label="Design Template"
     id="layer10"
     inkscape:groupmode="layer"><path
       id="path3736"
       style="color:#000000;font-style:normal;font-variant:normal;font-weight:normal;font-stretch:normal;font-size:medium;line-height:normal;font-family:sans-serif;text-indent:0;text-align:start;text-decoration:none;text-decoration-line:none;text-decoration-style:solid;text-decoration-color:#000000;letter-spacing:normal;word-spacing:normal;text-transform:none;writing-mode:lr-tb;direction:ltr;baseline-shift:baseline;text-anchor:start;white-space:normal;clip-rule:nonzero;display:inline;overflow:visible;visibility:visible;opacity:1;isolation:auto;mix-blend-mode:normal;color-interpolation:sRGB;color-interpolation-filters:linearRGB;solid-color:#000000;solid-opacity:1;fill:#70bbff;fill-opacity:0.462626;fill-rule:nonzero;stroke:#000002;stroke-width:2.83621;stroke-linecap:butt;stroke-linejoin:miter;stroke-miterlimit:4;stroke-dasharray:none;stroke-dashoffset:0;stroke-opacity:1;color-rendering:auto;image-rendering:auto;shape-rendering:auto;text-rendering:auto;enable-background:accumulate"
       d="M 19.350585 1.4179687 L 19.350585 1.4282226 C 16.245923 1.4282226 13.330078 2.2131188 10.788574 3.5976562 C 10.534514 3.7361158 10.283659 3.8810101 10.037109 4.0312499 C 9.7914498 4.1811795 9.5512159 4.3358106 9.3134763 4.4970702 C 9.2634765 4.5307702 9.2164418 4.5667641 9.166992 4.6010741 C 8.9792922 4.7311339 8.7911761 4.8639468 8.6088865 5.0009764 C 8.5988865 5.0089764 8.5891248 5.0154491 8.5781248 5.0229491 C 8.1325856 5.3589085 7.7021462 5.7154208 7.2905272 6.0908202 C 7.2174272 6.15762 7.1485298 6.2280883 7.07666 6.2958983 C 6.9362102 6.4282079 6.7952193 6.5590708 6.6591795 6.6958006 C 6.4566699 6.8995202 6.2585174 7.1080593 6.0659178 7.3212889 C 5.8762382 7.5310885 5.6918065 7.7471905 5.5122069 7.9658201 C 5.4572069 8.0326199 5.4065989 8.1031484 5.3525389 8.1708982 C 5.2243093 8.331708 5.0945092 8.4919167 4.9716796 8.6572263 C 4.2843808 9.5823545 3.6825847 10.576501 3.1801757 11.627929 C 2.0498179 13.993765 1.4179687 16.647885 1.4179687 19.457519 L 1.4179687 49.403319 C 1.4179687 143.77496 1.4281523 235.62552 1.4311523 327.48632 C 1.4312523 327.96153 1.4311523 328.44957 1.4311523 328.9248 C 1.8357615 337.28682 5.6131258 346.02897 12.593261 353.00243 L 35.055175 375.44237 C 38.289979 378.71217 40.062261 383.15076 39.968261 387.74706 C 39.880161 392.07547 38.143798 396.20819 35.112304 399.30175 L 12.593261 421.79882 C 5.529046 428.85638 1.754652 437.72448 1.4282226 446.17821 C 1.4382226 570.99867 1.4379687 695.46236 1.4179687 823.37693 L 1.4179687 850.3491 L 1.4179687 858.79392 C 1.5690285 864.41062 3.9643366 869.00332 7.741699 872.21482 C 11.264391 875.20942 15.984984 877.0005 21.191894 877.3198 L 433.36522 877.3198 L 433.40184 877.3198 L 455.95604 877.3198 C 457.74373 877.30386 459.47847 877.08648 461.24999 877.00633 L 461.24999 877.32273 L 582.74999 877.32273 L 661.49998 877.32273 L 678.67821 877.32273 L 681.7866 877.32273 L 683.24998 877.32273 L 683.24998 877.12644 C 687.8716 876.58608 692.06418 874.92446 695.25145 872.21482 C 699.02883 869.00342 701.42271 864.41207 701.57371 858.79539 L 701.57371 850.3491 L 701.57371 823.3784 C 701.54871 660.15607 701.55153 500.96355 701.56053 342.06298 L 701.56053 327.48632 L 701.56053 327.4497 C 701.57053 236.36205 701.57171 145.25266 701.57371 51.707518 L 701.57371 19.458984 C 701.57371 15.400642 700.25495 11.66384 698.02147 8.6572263 C 697.84947 8.4259769 697.67086 8.1985436 697.48826 7.976074 C 697.30596 7.7536144 697.11846 7.5359933 696.92576 7.3227537 C 696.73306 7.1095141 696.53667 6.9009851 696.33397 6.6972655 C 696.19797 6.5605357 696.05552 6.4296729 695.91502 6.2973631 C 695.84302 6.2290633 695.77425 6.1589748 695.70115 6.092285 C 695.28045 5.7087058 694.84036 5.3448305 694.38426 5.0024413 C 693.92426 4.6569619 693.44757 4.3332641 692.95457 4.0327147 C 692.70817 3.8824751 692.45887 3.7375808 692.20457 3.599121 C 689.66327 2.2145838 686.74726 1.4296875 683.64256 1.4296875 L 683.64256 1.4194336 L 683.62498 1.4194336 L 351.48632 1.4194336 L 19.350585 1.4179687 z M 680.91063 25.511718 A 7.0866141 7.0866141 0 0 1 687.99754 32.598632 A 7.0866141 7.0866141 0 0 1 680.91063 39.685546 A 7.0866141 7.0866141 0 0 1 673.82518 32.598632 A 7.0866141 7.0866141 0 0 1 680.91063 25.511718 z M 33.922851 34.511718 A 7.0866141 7.0866141 0 0 1 41.0083 41.598632 A 7.0866141 7.0866141 0 0 1 33.922851 48.685546 A 7.0866141 7.0866141 0 0 1 26.835937 41.598632 A 7.0866141 7.0866141 0 0 1 33.922851 34.511718 z M 131.41406 114.84521 A 7.0866141 7.0866141 0 0 1 138.50097 121.93213 A 7.0866141 7.0866141 0 0 1 131.41406 129.01757 A 7.0866141 7.0866141 0 0 1 124.32715 121.93213 A 7.0866141 7.0866141 0 0 1 131.41406 114.84521 z M 467.59569 217.95117 A 7.0866141 7.0866141 0 0 1 474.68261 225.03808 A 7.0866141 7.0866141 0 0 1 467.59569 232.12499 A 7.0866141 7.0866141 0 0 1 460.51024 225.03808 A 7.0866141 7.0866141 0 0 1 467.59569 217.95117 z M 26.929687 313.8164 A 7.0866141 7.0866141 0 0 1 34.015136 320.90185 A 7.0866141 7.0866141 0 0 1 26.929687 327.98876 A 7.0866141 7.0866141 0 0 1 19.842773 320.90185 A 7.0866141 7.0866141 0 0 1 26.929687 313.8164 z M 132.98144 320.43603 A 7.0866141 7.0866141 0 0 1 140.06836 327.52294 A 7.0866141 7.0866141 0 0 1 132.98144 334.60985 A 7.0866141 7.0866141 0 0 1 125.89599 327.52294 A 7.0866141 7.0866141 0 0 1 132.98144 320.43603 z M 441.35595 418.11034 A 7.0866141 7.0866141 0 0 1 448.44139 425.19725 A 7.0866141 7.0866141 0 0 1 441.35595 432.28417 A 7.0866141 7.0866141 0 0 1 434.26903 425.19725 A 7.0866141 7.0866141 0 0 1 441.35595 418.11034 z M 680.91063 428.26171 A 7.0866141 7.0866141 0 0 1 687.99754 435.34862 A 7.0866141 7.0866141 0 0 1 680.91063 442.43554 A 7.0866141 7.0866141 0 0 1 673.82518 435.34862 A 7.0866141 7.0866141 0 0 1 680.91063 428.26171 z M 481.93212 438.27245 C 491.15423 436.77354 511.35961 448.36595 514.48241 450.55956 C 527.17389 459.47467 536.33677 459.53653 537.02489 480.55663 C 534.25087 489.51725 528.29822 495.95051 521.3701 498.94481 C 519.48552 499.96857 517.35967 500.58803 515.10497 500.71141 C 514.26237 500.8276 513.41958 500.90199 512.57958 500.92089 L 512.37596 500.92089 C 505.06058 501.86655 499.40973 508.10975 499.41063 515.67333 C 499.41063 523.87591 506.06026 530.52672 514.26854 530.54735 L 514.26854 530.57518 L 514.29051 530.57518 C 522.49801 530.57548 529.15085 537.22306 529.15135 545.42284 C 529.15085 553.62256 522.49801 560.26866 514.29051 560.26903 L 514.26854 560.26903 L 514.26854 560.2954 C 506.05936 560.3156 499.41093 566.96734 499.41063 575.17088 C 499.41063 583.37338 506.06026 590.02566 514.26854 590.04637 L 514.26854 590.07567 L 514.29051 590.07567 C 522.49711 590.07567 529.14959 596.7242 529.14989 604.92332 C 529.14989 613.12394 522.49763 619.77361 514.28905 619.77391 L 514.26561 619.77391 L 514.26561 619.79735 C 506.05643 619.81765 499.40947 626.47084 499.40917 634.6743 C 499.40947 642.87777 506.05643 649.53055 514.26561 649.55125 L 514.26561 649.57909 L 514.28905 649.57909 C 522.49653 649.57909 529.14786 656.22818 529.14696 664.42821 C 529.14656 672.62799 522.49508 679.27556 514.28758 679.27586 L 514.26415 679.27586 L 514.26415 679.30223 C 506.05497 679.32323 499.408 685.97423 499.4077 694.17772 C 499.4077 702.38004 506.05617 709.03096 514.26415 709.05174 L 514.26415 709.08397 L 514.28758 709.08397 C 522.49508 709.08427 529.14656 715.73037 529.14696 723.93016 C 529.13696 731.76722 523.03123 738.24746 515.20165 738.73094 C 514.23675 738.66494 513.27139 738.62938 512.30419 738.6284 C 488.59633 738.62825 469.37674 757.83062 469.37694 781.51609 C 469.39194 782.49389 469.44123 783.47128 469.52343 784.44578 C 469.00603 792.24656 462.52136 798.31053 454.69628 798.31053 C 446.4886 798.31023 439.83574 791.66558 439.83544 783.4658 L 439.83544 783.44383 L 439.81054 783.44383 C 439.78954 775.24255 433.12875 768.60087 424.91747 768.60057 C 416.70729 768.60057 410.05126 775.24345 410.03026 783.44383 L 409.9995 783.44383 L 409.9995 783.4658 C 409.999 791.66558 403.34478 798.31169 395.1372 798.31199 C 386.92882 798.31199 380.27519 791.66648 380.27489 783.4658 L 380.27489 783.44236 L 380.25146 783.44236 C 380.23046 775.23998 373.57047 768.5991 365.35839 768.5991 C 357.14801 768.5991 350.49072 775.24188 350.46972 783.44236 L 350.44189 783.44236 L 350.44189 783.4658 C 350.44159 791.66558 343.78706 798.31169 335.57958 798.31199 C 327.372 798.31169 320.71934 791.66558 320.71874 783.4658 L 320.71874 783.44236 L 320.69384 783.44236 C 320.67384 775.24098 314.01207 768.5994 305.80077 768.5991 C 297.59039 768.5991 290.93457 775.24188 290.91357 783.44236 L 290.88427 783.44236 L 290.88427 783.46434 C 290.88397 791.66412 284.23384 798.31169 276.02636 798.31199 C 267.81878 798.31169 261.16446 791.66412 261.16406 783.46434 L 261.16406 783.44236 L 261.13915 783.44236 C 261.11915 775.24098 254.45863 768.5994 246.24755 768.5991 C 238.03627 768.5994 231.37695 775.24088 231.35595 783.44236 L 231.33105 783.44236 L 231.33105 783.46434 C 231.33075 791.66502 224.67283 798.31153 216.46435 798.31053 C 208.25687 798.31023 201.60528 791.66412 201.60498 783.46434 L 201.60498 783.4409 L 201.58007 783.4409 C 201.55907 775.23962 194.90112 768.5994 186.68994 768.5991 C 178.47964 768.5991 171.81934 775.24052 171.79834 783.4409 L 171.77197 783.4409 L 171.77197 783.46434 C 171.77167 791.66412 165.11861 798.31023 156.91113 798.31053 C 148.70365 798.31023 142.05205 791.66412 142.05175 783.46434 L 142.05175 783.4409 L 142.02392 783.4409 C 142.00292 775.23942 135.34497 768.5994 127.13379 768.5991 C 118.92349 768.5991 112.26611 775.24052 112.24511 783.4409 L 112.21435 783.4409 L 112.21435 783.46287 C 112.21405 791.66265 105.55941 798.31023 97.352048 798.31053 L 97.384275 798.35008 C 89.244666 798.35008 82.622385 791.80344 82.529295 783.67234 C 82.573295 782.94154 82.595467 782.20738 82.605467 781.47508 C 82.605567 757.78971 63.38761 738.59016 39.679686 738.59031 C 38.61651 738.60381 37.554304 738.65633 36.495116 738.74852 C 28.824482 738.07633 22.940673 731.66268 22.930663 723.96971 C 22.930963 715.77 29.585484 709.12235 37.792968 709.12205 L 37.81494 709.12205 L 37.81494 709.09861 C 46.023234 709.07691 52.668156 702.42421 52.668456 694.22166 C 52.668456 686.02022 46.022214 679.36807 37.81494 679.34617 L 37.81494 679.31688 L 37.792968 679.3242 C 29.585484 679.3239 22.932528 672.67926 22.932128 664.47948 C 22.932128 656.27885 29.584584 649.63065 37.792968 649.63035 L 37.81494 649.63035 L 37.81494 649.60692 C 46.024124 649.58522 52.671385 642.93051 52.671385 634.72703 C 52.671385 626.52559 46.022124 619.87345 37.81494 619.85155 L 37.81494 619.82518 L 37.792968 619.82518 C 29.584484 619.82488 22.931128 613.17814 22.932128 604.97752 C 22.932528 596.77773 29.585384 590.13025 37.792968 590.12987 L 37.816405 590.12987 L 37.816405 590.1035 C 46.024689 590.0818 52.67254 583.42911 52.67285 575.22655 C 52.67285 567.02511 46.023489 560.37442 37.816405 560.35252 L 37.816405 560.32176 L 37.794433 560.32176 C 29.586949 560.32146 22.935368 553.67383 22.935058 545.47411 C 22.935358 537.27433 29.587049 530.62968 37.794433 530.62938 L 37.816405 530.62938 L 37.816405 530.60301 C 46.024689 530.58131 52.67254 523.92724 52.67285 515.7246 C 52.67224 507.52226 46.024589 500.87101 37.816405 500.84911 L 37.816405 500.82128 L 37.794433 500.82128 C 29.586749 500.82098 22.933593 494.17191 22.933593 485.97216 C 22.943593 485.91846 22.945312 485.86357 22.945312 485.80956 C 22.907312 485.25232 22.879281 484.69358 22.863281 484.13524 C 22.863281 460.46869 42.067842 441.2836 65.756834 441.2827 C 66.736132 441.2833 67.715373 441.3167 68.692381 441.38378 L 68.692381 441.39403 C 76.445095 441.97608 82.439939 448.42909 82.439939 456.19628 L 82.439939 456.21825 L 82.466306 456.21825 C 82.488306 464.41969 89.148184 471.05565 97.359373 471.05565 C 105.56867 471.0549 112.22458 464.41789 112.24658 456.21825 L 112.27441 456.21825 L 112.27441 456.19481 C 112.27471 447.99509 118.92767 441.34746 127.13525 441.34716 C 135.34273 441.34746 141.99579 447.99509 141.99609 456.19481 L 141.99609 456.21679 L 142.02392 456.21679 C 142.04592 464.41733 148.70514 471.05535 156.91552 471.05565 C 165.12492 471.0549 171.78219 464.41634 171.80419 456.21679 L 171.83056 456.21679 L 171.83056 456.19335 C 171.83086 447.99363 178.48382 441.34599 186.6914 441.34569 C 194.89888 441.34599 201.55341 447.99363 201.55371 456.19335 L 201.55371 456.21386 L 201.57861 456.21386 C 201.60061 464.4144 208.25983 471.05096 216.47021 471.05126 C 224.68039 471.05096 231.33981 464.4144 231.36181 456.21386 L 231.38671 456.21386 L 231.38671 456.19188 C 231.38701 447.99126 238.0419 441.34469 246.25048 441.34569 C 254.45786 441.34599 261.10956 447.99216 261.10986 456.19188 L 261.10986 456.21386 L 261.13769 456.21386 C 261.15969 464.4144 267.81911 471.05096 276.02929 471.05126 C 284.23867 471.05051 290.89586 464.4134 290.91796 456.21386 L 290.94579 456.21386 L 290.94579 456.19042 C 290.94609 447.99069 297.59915 441.34306 305.80663 441.34276 C 314.01421 441.34306 320.66717 447.99069 320.66747 456.19042 L 320.66747 456.21093 L 320.69677 456.21093 C 320.71877 464.41147 327.37516 471.04803 335.58544 471.04833 C 343.79472 471.04633 350.45348 464.41047 350.47558 456.21093 L 350.50341 456.21093 L 350.50341 456.18895 C 350.50371 447.98922 357.15687 441.3416 365.36425 441.3413 C 373.57283 441.34055 380.22625 447.98832 380.22655 456.18895 L 380.22655 456.20946 L 380.25438 456.20946 C 380.27638 464.4109 386.93627 471.04686 395.14745 471.04686 C 403.35683 471.04611 410.01276 464.40901 410.03466 456.20946 L 410.06249 456.20946 L 410.06249 456.18602 C 410.06279 447.9863 416.71721 441.33867 424.92479 441.33837 C 433.13219 441.33867 439.78387 447.9863 439.78417 456.18602 L 439.78417 456.20653 L 439.81347 456.20653 C 439.83547 464.40707 446.49322 471.0451 454.7036 471.0454 C 462.91288 471.04465 469.57027 464.40606 469.59227 456.20653 L 469.62011 456.20653 L 469.62011 456.18456 C 469.62021 452.47438 470.99223 449.08974 473.24413 446.48729 C 474.08533 445.08323 475.00101 443.78317 475.94091 442.6494 C 476.83613 441.68609 477.82766 440.70762 478.79442 439.73876 C 479.57752 438.95708 480.64381 438.48184 481.93212 438.27245 z M 561.92284 723.0117 A 7.0866141 7.0866141 0 0 1 569.00829 730.09861 A 7.0866141 7.0866141 0 0 1 561.92284 737.18553 A 7.0866141 7.0866141 0 0 1 554.83592 730.09861 A 7.0866141 7.0866141 0 0 1 561.92284 723.0117 z M 30.172851 834.0117 A 7.0866141 7.0866141 0 0 1 37.2583 841.09861 A 7.0866141 7.0866141 0 0 1 30.172851 848.18553 A 7.0866141 7.0866141 0 0 1 23.085937 841.09861 A 7.0866141 7.0866141 0 0 1 30.172851 834.0117 z M 680.91063 840.7617 A 7.0866141 7.0866141 0 0 1 687.99754 847.84861 A 7.0866141 7.0866141 0 0 1 680.91063 854.93553 A 7.0866141 7.0866141 0 0 1 673.82518 847.84861 A 7.0866141 7.0866141 0 0 1 680.91063 840.7617 z " /></g></svg>
