<?xml version="1.0" encoding="UTF-8" standalone="no"?>
<svg
   width="1116.852pt"
   height="1116.85pt"
   viewBox="0 0 1116.852 1116.85"
   xml:space="preserve"
   id="svg2338"
   sodipodi:version="0.32"
   inkscape:version="1.1.2 (b8e25be833, 2022-02-05)"
   sodipodi:docname="SpeakerLayerOddCutHole.svg"
   inkscape:output_extension="org.inkscape.output.svg.inkscape"
   version="1.1"
   xmlns:inkscape="http://www.inkscape.org/namespaces/inkscape"
   xmlns:sodipodi="http://sodipodi.sourceforge.net/DTD/sodipodi-0.dtd"
   xmlns="http://www.w3.org/2000/svg"
   xmlns:svg="http://www.w3.org/2000/svg"
   xmlns:rdf="http://www.w3.org/1999/02/22-rdf-syntax-ns#"
   xmlns:cc="http://creativecommons.org/ns#"
   xmlns:dc="http://purl.org/dc/elements/1.1/"><metadata
     id="metadata2382"><rdf:RDF><cc:Work
         rdf:about=""><dc:format>image/svg+xml</dc:format><dc:type
           rdf:resource="http://purl.org/dc/dcmitype/StillImage" /></cc:Work></rdf:RDF></metadata><defs
     id="defs2380"><inkscape:perspective
       sodipodi:type="inkscape:persp3d"
       inkscape:vp_x="0 : 698.03125 : 1"
       inkscape:vp_y="0 : 1000 : 0"
       inkscape:vp_z="1396.0651 : 698.03125 : 1"
       inkscape:persp3d-origin="698.03253 : 465.35417 : 1"
       id="perspective46224" /><inkscape:perspective
       sodipodi:type="inkscape:persp3d"
       inkscape:vp_x="0 : 338.38501 : 1"
       inkscape:vp_y="0 : 1000 : 0"
       inkscape:vp_z="676.77124 : 338.38501 : 1"
       inkscape:persp3d-origin="338.38562 : 225.59001 : 1"
       id="perspective37556-9" /><inkscape:perspective
       sodipodi:type="inkscape:persp3d"
       inkscape:vp_x="0 : 338.38501 : 1"
       inkscape:vp_y="0 : 1000 : 0"
       inkscape:vp_z="676.77124 : 338.38501 : 1"
       inkscape:persp3d-origin="338.38562 : 225.59001 : 1"
       id="perspective16301-9" /><inkscape:perspective
       sodipodi:type="inkscape:persp3d"
       inkscape:vp_x="0 : 270.7085 : 1"
       inkscape:vp_y="0 : 1000 : 0"
       inkscape:vp_z="541.41699 : 270.7085 : 1"
       inkscape:persp3d-origin="270.7085 : 180.47233 : 1"
       id="perspective12409-1" /><inkscape:perspective
       sodipodi:type="inkscape:persp3d"
       inkscape:vp_x="0 : 0.5 : 1"
       inkscape:vp_y="0 : 1000 : 0"
       inkscape:vp_z="1 : 0.5 : 1"
       inkscape:persp3d-origin="0.5 : 0.33333333 : 1"
       id="perspective9337-7" /><inkscape:perspective
       sodipodi:type="inkscape:persp3d"
       inkscape:vp_x="0 : 0.5 : 1"
       inkscape:vp_y="0 : 1000 : 0"
       inkscape:vp_z="1 : 0.5 : 1"
       inkscape:persp3d-origin="0.5 : 0.33333333 : 1"
       id="perspective8562-2" /><inkscape:perspective
       id="perspective3083-3"
       inkscape:persp3d-origin="338.38562 : 225.59001 : 1"
       inkscape:vp_z="676.77124 : 338.38501 : 1"
       inkscape:vp_y="0 : 1000 : 0"
       inkscape:vp_x="0 : 338.38501 : 1"
       sodipodi:type="inkscape:persp3d" /><inkscape:perspective
       id="perspective23419-6"
       inkscape:persp3d-origin="270.7085 : 180.47233 : 1"
       inkscape:vp_z="541.41699 : 270.7085 : 1"
       inkscape:vp_y="0 : 1000 : 0"
       inkscape:vp_x="0 : 270.7085 : 1"
       sodipodi:type="inkscape:persp3d" /><inkscape:perspective
       id="perspective27913-5"
       inkscape:persp3d-origin="338.38562 : 225.59001 : 1"
       inkscape:vp_z="676.77124 : 338.38501 : 1"
       inkscape:vp_y="0 : 1000 : 0"
       inkscape:vp_x="0 : 338.38501 : 1"
       sodipodi:type="inkscape:persp3d" /><inkscape:perspective
       sodipodi:type="inkscape:persp3d"
       inkscape:vp_x="0 : 338.38501 : 1"
       inkscape:vp_y="0 : 1000 : 0"
       inkscape:vp_z="676.77124 : 338.38501 : 1"
       inkscape:persp3d-origin="338.38562 : 225.59001 : 1"
       id="perspective27913" /><inkscape:perspective
       sodipodi:type="inkscape:persp3d"
       inkscape:vp_x="0 : 270.7085 : 1"
       inkscape:vp_y="0 : 1000 : 0"
       inkscape:vp_z="541.41699 : 270.7085 : 1"
       inkscape:persp3d-origin="270.7085 : 180.47233 : 1"
       id="perspective23419" /><inkscape:perspective
       sodipodi:type="inkscape:persp3d"
       inkscape:vp_x="0 : 338.38501 : 1"
       inkscape:vp_y="0 : 1000 : 0"
       inkscape:vp_z="676.77124 : 338.38501 : 1"
       inkscape:persp3d-origin="338.38562 : 225.59001 : 1"
       id="perspective3083" /><inkscape:perspective
       id="perspective8562"
       inkscape:persp3d-origin="0.5 : 0.33333333 : 1"
       inkscape:vp_z="1 : 0.5 : 1"
       inkscape:vp_y="0 : 1000 : 0"
       inkscape:vp_x="0 : 0.5 : 1"
       sodipodi:type="inkscape:persp3d" /><inkscape:perspective
       id="perspective9337"
       inkscape:persp3d-origin="0.5 : 0.33333333 : 1"
       inkscape:vp_z="1 : 0.5 : 1"
       inkscape:vp_y="0 : 1000 : 0"
       inkscape:vp_x="0 : 0.5 : 1"
       sodipodi:type="inkscape:persp3d" /><inkscape:perspective
       id="perspective12409"
       inkscape:persp3d-origin="270.7085 : 180.47233 : 1"
       inkscape:vp_z="541.41699 : 270.7085 : 1"
       inkscape:vp_y="0 : 1000 : 0"
       inkscape:vp_x="0 : 270.7085 : 1"
       sodipodi:type="inkscape:persp3d" /><inkscape:perspective
       id="perspective16301"
       inkscape:persp3d-origin="338.38562 : 225.59001 : 1"
       inkscape:vp_z="676.77124 : 338.38501 : 1"
       inkscape:vp_y="0 : 1000 : 0"
       inkscape:vp_x="0 : 338.38501 : 1"
       sodipodi:type="inkscape:persp3d" /><inkscape:perspective
       id="perspective37556"
       inkscape:persp3d-origin="338.38562 : 225.59001 : 1"
       inkscape:vp_z="676.77124 : 338.38501 : 1"
       inkscape:vp_y="0 : 1000 : 0"
       inkscape:vp_x="0 : 338.38501 : 1"
       sodipodi:type="inkscape:persp3d" /><inkscape:perspective
       id="perspective51446"
       inkscape:persp3d-origin="270.70999 : 180.47333 : 1"
       inkscape:vp_z="541.41998 : 270.70999 : 1"
       inkscape:vp_y="0 : 1000 : 0"
       inkscape:vp_x="0 : 270.70999 : 1"
       sodipodi:type="inkscape:persp3d" /><inkscape:perspective
       sodipodi:type="inkscape:persp3d"
       inkscape:vp_x="0 : 338.38501 : 1"
       inkscape:vp_y="0 : 1000 : 0"
       inkscape:vp_z="676.77124 : 338.38501 : 1"
       inkscape:persp3d-origin="338.38562 : 225.59001 : 1"
       id="perspective37556-9-8" /><inkscape:perspective
       sodipodi:type="inkscape:persp3d"
       inkscape:vp_x="0 : 338.38501 : 1"
       inkscape:vp_y="0 : 1000 : 0"
       inkscape:vp_z="676.77124 : 338.38501 : 1"
       inkscape:persp3d-origin="338.38562 : 225.59001 : 1"
       id="perspective16301-9-1" /><inkscape:perspective
       sodipodi:type="inkscape:persp3d"
       inkscape:vp_x="0 : 270.7085 : 1"
       inkscape:vp_y="0 : 1000 : 0"
       inkscape:vp_z="541.41699 : 270.7085 : 1"
       inkscape:persp3d-origin="270.7085 : 180.47233 : 1"
       id="perspective12409-1-2" /><inkscape:perspective
       sodipodi:type="inkscape:persp3d"
       inkscape:vp_x="0 : 0.5 : 1"
       inkscape:vp_y="0 : 1000 : 0"
       inkscape:vp_z="1 : 0.5 : 1"
       inkscape:persp3d-origin="0.5 : 0.33333333 : 1"
       id="perspective9337-7-0" /><inkscape:perspective
       sodipodi:type="inkscape:persp3d"
       inkscape:vp_x="0 : 0.5 : 1"
       inkscape:vp_y="0 : 1000 : 0"
       inkscape:vp_z="1 : 0.5 : 1"
       inkscape:persp3d-origin="0.5 : 0.33333333 : 1"
       id="perspective8562-2-5" /><inkscape:perspective
       id="perspective3083-3-7"
       inkscape:persp3d-origin="338.38562 : 225.59001 : 1"
       inkscape:vp_z="676.77124 : 338.38501 : 1"
       inkscape:vp_y="0 : 1000 : 0"
       inkscape:vp_x="0 : 338.38501 : 1"
       sodipodi:type="inkscape:persp3d" /><inkscape:perspective
       id="perspective23419-6-3"
       inkscape:persp3d-origin="270.7085 : 180.47233 : 1"
       inkscape:vp_z="541.41699 : 270.7085 : 1"
       inkscape:vp_y="0 : 1000 : 0"
       inkscape:vp_x="0 : 270.7085 : 1"
       sodipodi:type="inkscape:persp3d" /><inkscape:perspective
       id="perspective27913-5-7"
       inkscape:persp3d-origin="338.38562 : 225.59001 : 1"
       inkscape:vp_z="676.77124 : 338.38501 : 1"
       inkscape:vp_y="0 : 1000 : 0"
       inkscape:vp_x="0 : 338.38501 : 1"
       sodipodi:type="inkscape:persp3d" /><inkscape:perspective
       sodipodi:type="inkscape:persp3d"
       inkscape:vp_x="0 : 338.38501 : 1"
       inkscape:vp_y="0 : 1000 : 0"
       inkscape:vp_z="676.77124 : 338.38501 : 1"
       inkscape:persp3d-origin="338.38562 : 225.59001 : 1"
       id="perspective27913-9" /><inkscape:perspective
       sodipodi:type="inkscape:persp3d"
       inkscape:vp_x="0 : 270.7085 : 1"
       inkscape:vp_y="0 : 1000 : 0"
       inkscape:vp_z="541.41699 : 270.7085 : 1"
       inkscape:persp3d-origin="270.7085 : 180.47233 : 1"
       id="perspective23419-3" /><inkscape:perspective
       sodipodi:type="inkscape:persp3d"
       inkscape:vp_x="0 : 338.38501 : 1"
       inkscape:vp_y="0 : 1000 : 0"
       inkscape:vp_z="676.77124 : 338.38501 : 1"
       inkscape:persp3d-origin="338.38562 : 225.59001 : 1"
       id="perspective3083-1" /><inkscape:perspective
       id="perspective8562-25"
       inkscape:persp3d-origin="0.5 : 0.33333333 : 1"
       inkscape:vp_z="1 : 0.5 : 1"
       inkscape:vp_y="0 : 1000 : 0"
       inkscape:vp_x="0 : 0.5 : 1"
       sodipodi:type="inkscape:persp3d" /><inkscape:perspective
       id="perspective9337-6"
       inkscape:persp3d-origin="0.5 : 0.33333333 : 1"
       inkscape:vp_z="1 : 0.5 : 1"
       inkscape:vp_y="0 : 1000 : 0"
       inkscape:vp_x="0 : 0.5 : 1"
       sodipodi:type="inkscape:persp3d" /><inkscape:perspective
       id="perspective12409-8"
       inkscape:persp3d-origin="270.7085 : 180.47233 : 1"
       inkscape:vp_z="541.41699 : 270.7085 : 1"
       inkscape:vp_y="0 : 1000 : 0"
       inkscape:vp_x="0 : 270.7085 : 1"
       sodipodi:type="inkscape:persp3d" /><inkscape:perspective
       id="perspective16301-5"
       inkscape:persp3d-origin="338.38562 : 225.59001 : 1"
       inkscape:vp_z="676.77124 : 338.38501 : 1"
       inkscape:vp_y="0 : 1000 : 0"
       inkscape:vp_x="0 : 338.38501 : 1"
       sodipodi:type="inkscape:persp3d" /><inkscape:perspective
       id="perspective37556-4"
       inkscape:persp3d-origin="338.38562 : 225.59001 : 1"
       inkscape:vp_z="676.77124 : 338.38501 : 1"
       inkscape:vp_y="0 : 1000 : 0"
       inkscape:vp_x="0 : 338.38501 : 1"
       sodipodi:type="inkscape:persp3d" /><inkscape:perspective
       sodipodi:type="inkscape:persp3d"
       inkscape:vp_x="0 : 338.38501 : 1"
       inkscape:vp_y="0 : 1000 : 0"
       inkscape:vp_z="676.77124 : 338.38501 : 1"
       inkscape:persp3d-origin="338.38562 : 225.59001 : 1"
       id="perspective37556-9-1" /><inkscape:perspective
       sodipodi:type="inkscape:persp3d"
       inkscape:vp_x="0 : 338.38501 : 1"
       inkscape:vp_y="0 : 1000 : 0"
       inkscape:vp_z="676.77124 : 338.38501 : 1"
       inkscape:persp3d-origin="338.38562 : 225.59001 : 1"
       id="perspective16301-9-3" /><inkscape:perspective
       sodipodi:type="inkscape:persp3d"
       inkscape:vp_x="0 : 270.7085 : 1"
       inkscape:vp_y="0 : 1000 : 0"
       inkscape:vp_z="541.41699 : 270.7085 : 1"
       inkscape:persp3d-origin="270.7085 : 180.47233 : 1"
       id="perspective12409-1-9" /><inkscape:perspective
       sodipodi:type="inkscape:persp3d"
       inkscape:vp_x="0 : 0.5 : 1"
       inkscape:vp_y="0 : 1000 : 0"
       inkscape:vp_z="1 : 0.5 : 1"
       inkscape:persp3d-origin="0.5 : 0.33333333 : 1"
       id="perspective9337-7-1" /><inkscape:perspective
       sodipodi:type="inkscape:persp3d"
       inkscape:vp_x="0 : 0.5 : 1"
       inkscape:vp_y="0 : 1000 : 0"
       inkscape:vp_z="1 : 0.5 : 1"
       inkscape:persp3d-origin="0.5 : 0.33333333 : 1"
       id="perspective8562-2-7" /><inkscape:perspective
       id="perspective3083-3-8"
       inkscape:persp3d-origin="338.38562 : 225.59001 : 1"
       inkscape:vp_z="676.77124 : 338.38501 : 1"
       inkscape:vp_y="0 : 1000 : 0"
       inkscape:vp_x="0 : 338.38501 : 1"
       sodipodi:type="inkscape:persp3d" /><inkscape:perspective
       id="perspective23419-6-8"
       inkscape:persp3d-origin="270.7085 : 180.47233 : 1"
       inkscape:vp_z="541.41699 : 270.7085 : 1"
       inkscape:vp_y="0 : 1000 : 0"
       inkscape:vp_x="0 : 270.7085 : 1"
       sodipodi:type="inkscape:persp3d" /><inkscape:perspective
       id="perspective27913-5-4"
       inkscape:persp3d-origin="338.38562 : 225.59001 : 1"
       inkscape:vp_z="676.77124 : 338.38501 : 1"
       inkscape:vp_y="0 : 1000 : 0"
       inkscape:vp_x="0 : 338.38501 : 1"
       sodipodi:type="inkscape:persp3d" /><inkscape:perspective
       sodipodi:type="inkscape:persp3d"
       inkscape:vp_x="0 : 338.38501 : 1"
       inkscape:vp_y="0 : 1000 : 0"
       inkscape:vp_z="676.77124 : 338.38501 : 1"
       inkscape:persp3d-origin="338.38562 : 225.59001 : 1"
       id="perspective27913-1" /><inkscape:perspective
       sodipodi:type="inkscape:persp3d"
       inkscape:vp_x="0 : 270.7085 : 1"
       inkscape:vp_y="0 : 1000 : 0"
       inkscape:vp_z="541.41699 : 270.7085 : 1"
       inkscape:persp3d-origin="270.7085 : 180.47233 : 1"
       id="perspective23419-9" /><inkscape:perspective
       sodipodi:type="inkscape:persp3d"
       inkscape:vp_x="0 : 338.38501 : 1"
       inkscape:vp_y="0 : 1000 : 0"
       inkscape:vp_z="676.77124 : 338.38501 : 1"
       inkscape:persp3d-origin="338.38562 : 225.59001 : 1"
       id="perspective3083-8" /><inkscape:perspective
       id="perspective8562-6"
       inkscape:persp3d-origin="0.5 : 0.33333333 : 1"
       inkscape:vp_z="1 : 0.5 : 1"
       inkscape:vp_y="0 : 1000 : 0"
       inkscape:vp_x="0 : 0.5 : 1"
       sodipodi:type="inkscape:persp3d" /><inkscape:perspective
       id="perspective9337-2"
       inkscape:persp3d-origin="0.5 : 0.33333333 : 1"
       inkscape:vp_z="1 : 0.5 : 1"
       inkscape:vp_y="0 : 1000 : 0"
       inkscape:vp_x="0 : 0.5 : 1"
       sodipodi:type="inkscape:persp3d" /><inkscape:perspective
       id="perspective12409-3"
       inkscape:persp3d-origin="270.7085 : 180.47233 : 1"
       inkscape:vp_z="541.41699 : 270.7085 : 1"
       inkscape:vp_y="0 : 1000 : 0"
       inkscape:vp_x="0 : 270.7085 : 1"
       sodipodi:type="inkscape:persp3d" /><inkscape:perspective
       id="perspective16301-56"
       inkscape:persp3d-origin="338.38562 : 225.59001 : 1"
       inkscape:vp_z="676.77124 : 338.38501 : 1"
       inkscape:vp_y="0 : 1000 : 0"
       inkscape:vp_x="0 : 338.38501 : 1"
       sodipodi:type="inkscape:persp3d" /><inkscape:perspective
       id="perspective37556-5"
       inkscape:persp3d-origin="338.38562 : 225.59001 : 1"
       inkscape:vp_z="676.77124 : 338.38501 : 1"
       inkscape:vp_y="0 : 1000 : 0"
       inkscape:vp_x="0 : 338.38501 : 1"
       sodipodi:type="inkscape:persp3d" /><inkscape:perspective
       id="perspective10328"
       inkscape:persp3d-origin="0.5 : 0.33333333 : 1"
       inkscape:vp_z="1 : 0.5 : 1"
       inkscape:vp_y="0 : 1000 : 0"
       inkscape:vp_x="0 : 0.5 : 1"
       sodipodi:type="inkscape:persp3d" /><inkscape:perspective
       id="perspective11034"
       inkscape:persp3d-origin="0.5 : 0.33333333 : 1"
       inkscape:vp_z="1 : 0.5 : 1"
       inkscape:vp_y="0 : 1000 : 0"
       inkscape:vp_x="0 : 0.5 : 1"
       sodipodi:type="inkscape:persp3d" /><inkscape:perspective
       id="perspective3083-7"
       inkscape:persp3d-origin="0.5 : 0.33333333 : 1"
       inkscape:vp_z="1 : 0.5 : 1"
       inkscape:vp_y="0 : 1000 : 0"
       inkscape:vp_x="0 : 0.5 : 1"
       sodipodi:type="inkscape:persp3d" /><inkscape:perspective
       id="perspective2997"
       inkscape:persp3d-origin="0.5 : 0.33333333 : 1"
       inkscape:vp_z="1 : 0.5 : 1"
       inkscape:vp_y="0 : 1000 : 0"
       inkscape:vp_x="0 : 0.5 : 1"
       sodipodi:type="inkscape:persp3d" /></defs><sodipodi:namedview
     inkscape:window-height="1017"
     inkscape:window-width="1920"
     inkscape:pageshadow="2"
     inkscape:pageopacity="0.0"
     guidetolerance="10.0"
     gridtolerance="10.0"
     objecttolerance="10.0"
     borderopacity="1.0"
     bordercolor="#666666"
     pagecolor="#ffffff"
     id="base"
     inkscape:zoom="0.25000001"
     inkscape:cx="345.99999"
     inkscape:cy="1040"
     inkscape:window-x="-8"
     inkscape:window-y="-8"
     inkscape:current-layer="layer10"
     showgrid="false"
     inkscape:window-maximized="1"
     inkscape:document-units="mm"
     inkscape:document-rotation="0"
     showguides="false"
     inkscape:pagecheckerboard="0" /><g
     inkscape:groupmode="layer"
     id="layer10"
     inkscape:label="Design Template"><path
       id="rect84"
       style="fill:none;fill-opacity:0.620968;stroke:#000000;stroke-width:3.77953"
       d="M 87.685547 905.75586 L 87.689453 905.75977 C 56.104346 905.76097 30.498047 931.33954 30.498047 962.89453 C 30.51954 963.63898 30.556302 964.38383 30.607422 965.12695 C 30.607422 965.19895 30.605144 965.27175 30.591797 965.34375 C 30.591997 976.27642 39.464642 985.14413 50.408203 985.14453 L 50.433594 985.14453 L 50.433594 985.17773 C 61.377649 985.20693 70.241386 994.0735 70.242188 1005.0098 C 70.241787 1015.9463 61.377957 1024.8183 50.433594 1024.8477 L 50.433594 1024.8828 L 50.408203 1024.8828 C 39.464935 1024.8832 30.592197 1033.7448 30.591797 1044.6777 C 30.592197 1055.6105 39.464735 1064.4723 50.408203 1064.4727 L 50.433594 1064.4727 L 50.433594 1064.5137 C 61.376355 1064.5429 70.242188 1073.4106 70.242188 1084.3457 C 70.241787 1095.2822 61.377957 1104.1523 50.433594 1104.1816 L 50.433594 1104.2148 L 50.404297 1104.2148 C 39.460935 1104.2156 30.590444 1113.0788 30.589844 1124.0117 C 30.588642 1134.9457 39.459734 1143.8101 50.404297 1143.8105 L 50.431641 1143.8105 L 50.431641 1143.8438 C 61.374601 1143.873 70.240234 1152.7407 70.240234 1163.6758 C 70.240234 1174.6137 61.377204 1183.4863 50.431641 1183.5156 L 50.431641 1183.5469 L 50.400391 1183.5469 C 39.455721 1183.5473 30.587891 1192.4095 30.587891 1203.3438 C 30.588491 1214.2764 39.456922 1223.1383 50.400391 1223.1387 L 50.427734 1223.1211 L 50.427734 1223.1582 C 61.370588 1223.1874 70.232422 1232.0591 70.232422 1242.9941 C 70.232021 1253.9305 61.372096 1262.7988 50.427734 1262.8281 L 50.427734 1262.8613 L 50.398438 1262.8613 C 39.455076 1262.8616 30.584386 1271.7253 30.583984 1282.6582 C 30.597491 1292.9152 38.440631 1301.467 48.667969 1302.3633 C 50.08041 1302.2403 51.498262 1302.171 52.916016 1302.1523 C 84.526347 1302.1522 110.15069 1327.7501 110.15039 1359.3301 C 110.13676 1360.3062 110.106 1361.2852 110.04688 1362.2598 C 110.171 1373.1008 118.99889 1381.8301 129.85156 1381.8301 L 129.81055 1381.7715 C 140.75382 1381.7711 149.62654 1372.9092 149.62695 1361.9766 L 149.62695 1361.9531 L 149.66992 1361.9531 C 149.69796 1351.0193 158.57431 1342.1621 169.52148 1342.1621 C 180.46944 1342.1625 189.347 1351.0181 189.375 1361.9531 L 189.4082 1361.9531 L 189.4082 1361.9766 C 189.4086 1372.9092 198.27911 1381.7711 209.22266 1381.7715 C 220.16582 1381.7711 229.03671 1372.9092 229.03711 1361.9766 L 229.03711 1361.9531 L 229.07031 1361.9531 C 229.09834 1351.0193 237.97902 1342.1621 248.92578 1342.1621 C 259.87415 1342.1625 268.7513 1351.0181 268.7793 1361.9531 L 268.8125 1361.9531 L 268.8125 1361.9766 C 268.8129 1372.9092 277.68144 1381.7711 288.625 1381.7715 C 299.56937 1381.7727 308.44687 1372.9104 308.44727 1361.9766 L 308.44727 1361.9531 L 308.48047 1361.9531 C 308.5085 1351.0181 317.38992 1342.1625 328.33789 1342.1621 C 339.28625 1342.1625 348.16474 1351.0181 348.19141 1361.9531 L 348.21484 1361.9531 L 348.21484 1361.9766 C 348.21538 1372.9092 357.086 1381.775 368.0293 1381.7754 C 378.97274 1381.775 387.8414 1372.9092 387.8418 1361.9766 L 387.8418 1361.9531 L 387.88086 1361.9531 C 387.90889 1351.0193 396.78344 1342.1621 407.73047 1342.1621 C 418.67871 1342.1625 427.55927 1351.0181 427.58594 1361.9531 L 427.62109 1361.9531 L 427.62109 1361.9844 C 427.62149 1372.917 436.49224 1381.7789 447.43555 1381.7793 C 458.37896 1381.7789 467.25155 1372.917 467.25195 1361.9844 L 467.25195 1361.9531 L 467.28906 1361.9531 C 467.31722 1351.0193 476.19178 1342.1621 487.13867 1342.1621 C 498.08825 1342.1621 506.97005 1351.0169 506.99805 1361.9531 L 507.02734 1361.9531 L 507.02734 1361.9844 C 507.02774 1372.9182 515.89938 1381.7793 526.84375 1381.7793 C 537.78716 1381.7789 546.65767 1372.917 546.6582 1361.9844 L 546.6582 1361.9551 L 546.70117 1361.9551 C 546.7292 1351.0212 555.60596 1342.1641 566.55273 1342.1641 C 577.50109 1342.1645 586.3802 1351.02 586.4082 1361.9551 L 586.44141 1361.9551 L 586.44141 1361.9844 C 586.44181 1372.917 595.3123 1381.7769 606.25586 1381.7773 C 616.68929 1381.7773 625.3355 1373.6919 626.02539 1363.291 C 625.916 1361.9918 625.85008 1360.6905 625.83008 1359.3867 C 625.82968 1327.8068 651.45617 1302.203 683.06641 1302.2031 C 684.35613 1302.2043 685.64318 1302.2518 686.92969 1302.3398 C 697.36914 1301.6951 705.5101 1293.0549 705.52344 1282.6055 C 705.5229 1271.6728 696.65411 1262.8109 685.71094 1262.8105 L 685.68164 1262.8105 L 685.68164 1262.7676 C 674.73743 1262.7398 665.87109 1253.8718 665.87109 1242.9355 C 665.87149 1231.9977 674.73609 1223.1296 685.68164 1223.1016 L 685.68164 1223.0664 L 685.71094 1223.0664 C 696.65411 1223.066 705.52304 1214.2042 705.52344 1203.2715 C 705.52424 1192.3382 696.65633 1183.4727 685.71289 1183.4727 L 685.68359 1183.4727 L 685.68359 1183.4355 C 674.73803 1183.4079 665.87345 1174.5355 665.87305 1163.5977 C 665.87345 1152.6601 674.73803 1143.7903 685.68359 1143.7637 L 685.68359 1143.7383 L 685.71289 1143.7383 C 696.65766 1143.7379 705.52734 1134.8714 705.52734 1123.9375 C 705.52668 1113.0056 696.65708 1104.1426 685.71484 1104.1426 L 685.68555 1104.1426 L 685.68555 1104.1035 C 674.74119 1104.0759 665.875 1095.2062 665.875 1084.2695 C 665.8754 1073.3319 674.73985 1064.4622 685.68555 1064.4355 L 685.68555 1064.4004 L 685.71484 1064.4004 C 696.65828 1064.3999 705.52863 1055.5402 705.5293 1044.6074 C 705.5289 1033.6745 696.65828 1024.8109 685.71484 1024.8105 L 685.68555 1024.8105 L 685.68555 1024.7734 C 674.74119 1024.7461 665.875 1015.8778 665.875 1004.9414 C 665.8738 994.85678 673.40843 986.5343 683.16211 985.27344 L 683.43359 985.27344 C 684.55354 985.24824 685.67762 985.14895 686.80078 984.99414 C 689.80718 984.82946 692.64174 984.00382 695.1543 982.63867 C 696.80051 981.9273 698.40632 981.06264 699.96484 980.07617 C 702.49008 976.75276 704.00586 972.62057 704.00586 968.12695 C 703.99253 968.05494 703.99219 967.98216 703.99219 967.91016 C 704.04285 967.16757 704.08023 966.42219 704.10156 965.67773 C 704.10156 934.123 678.49714 908.54297 646.91211 908.54297 C 645.60639 908.54297 644.30071 908.58583 642.99805 908.67383 L 642.99805 908.69336 C 636.55534 909.17699 631.04038 912.71504 627.78906 917.81055 C 626.7496 920.20871 626.15261 922.84182 626.15234 925.62305 L 626.15234 925.65234 L 626.11328 925.65234 C 626.08405 936.58489 617.20938 945.44141 606.26367 945.44141 C 595.31664 945.44101 586.43754 936.58622 586.4082 925.65234 L 586.36914 925.65234 L 586.36914 925.62891 C 586.36874 914.69612 577.49785 905.83243 566.55469 905.83203 C 555.61113 905.83243 546.74245 914.69612 546.74219 925.62891 L 546.74219 925.65625 L 546.70312 925.65625 C 546.6739 936.5888 537.7992 945.44141 526.85352 945.44141 C 515.90513 945.44141 507.02543 936.59146 506.99609 925.65625 L 506.96094 925.65625 L 506.96094 925.63672 C 506.96027 914.70287 498.08932 905.83789 487.14453 905.83789 C 476.20125 905.83829 467.33034 914.70407 467.33008 925.63672 L 467.33008 925.6582 L 467.29297 925.6582 C 467.26333 936.59075 458.38331 945.44141 447.4375 945.44141 C 436.49033 945.44101 427.61722 936.59208 427.58789 925.6582 L 427.55078 925.6582 L 427.55078 925.63867 C 427.55051 914.70575 418.67794 905.84375 407.73438 905.84375 C 396.7912 905.84375 387.92618 914.70575 387.92578 925.63867 L 387.92578 925.66211 L 387.88867 925.66211 C 387.85943 936.59466 378.98307 945.44531 368.03711 945.44531 C 357.09034 945.44491 348.21097 936.59599 348.18164 925.66211 L 348.14258 925.66211 L 348.14258 925.64062 C 348.14191 914.70784 339.27337 905.84584 328.33008 905.8457 C 317.38572 905.84424 308.51407 914.70664 308.51367 925.64062 L 308.51367 925.66406 L 308.48828 925.66406 C 308.45904 936.59794 299.57802 945.44882 288.63086 945.44922 C 277.68395 945.44882 268.80668 936.59794 268.77734 925.66406 L 268.74219 925.66406 L 268.74219 925.64258 C 268.74179 914.70952 259.87104 905.84779 248.92773 905.84766 C 237.98431 905.84779 229.11369 914.70952 229.11328 925.64258 L 229.11328 925.66406 L 229.08203 925.66406 C 229.05254 936.59634 220.1763 945.45117 209.23047 945.45117 C 198.28331 945.45077 189.40433 936.59794 189.375 925.66406 L 189.33789 925.66406 L 189.33789 925.64453 C 189.33749 914.71174 180.46672 905.84806 169.52344 905.84766 C 158.58 905.84806 149.70938 914.71174 149.70898 925.64453 L 149.70898 925.66992 L 149.67188 925.66992 C 149.64263 936.6026 140.76808 945.45508 129.82227 945.45508 C 118.8739 945.45508 109.99394 936.605 109.96484 925.66992 L 109.93164 925.66992 L 109.93164 925.64453 C 109.93164 915.28845 101.93655 906.68426 91.599609 905.9082 L 91.599609 905.88672 C 90.297083 905.79739 88.991278 905.75666 87.685547 905.75586 z "
       transform="scale(0.74999998)" /></g></svg>
