<?xml version="1.0" encoding="UTF-8" standalone="no"?>
<svg
   version="1.1"
   inkscape:output_extension="org.inkscape.output.svg.inkscape"
   sodipodi:docname="SpeakerLayerOddHalf.svg"
   inkscape:version="1.3 (0e150ed6c4, 2023-07-21)"
   sodipodi:version="0.32"
   id="svg2338"
   xml:space="preserve"
   viewBox="0 0 1116.852 1116.85"
   height="1116.85pt"
   width="1116.852pt"
   xmlns:inkscape="http://www.inkscape.org/namespaces/inkscape"
   xmlns:sodipodi="http://sodipodi.sourceforge.net/DTD/sodipodi-0.dtd"
   xmlns="http://www.w3.org/2000/svg"
   xmlns:svg="http://www.w3.org/2000/svg"
   xmlns:rdf="http://www.w3.org/1999/02/22-rdf-syntax-ns#"
   xmlns:cc="http://creativecommons.org/ns#"
   xmlns:dc="http://purl.org/dc/elements/1.1/"><metadata
     id="metadata2382"><rdf:RDF><cc:Work
         rdf:about=""><dc:format>image/svg+xml</dc:format><dc:type
           rdf:resource="http://purl.org/dc/dcmitype/StillImage" /></cc:Work></rdf:RDF></metadata><defs
     id="defs2380"><inkscape:perspective
       id="perspective46224"
       inkscape:persp3d-origin="698.03253 : 465.35417 : 1"
       inkscape:vp_z="1396.0651 : 698.03125 : 1"
       inkscape:vp_y="0 : 1000 : 0"
       inkscape:vp_x="0 : 698.03125 : 1"
       sodipodi:type="inkscape:persp3d" /><inkscape:perspective
       id="perspective37556-9"
       inkscape:persp3d-origin="338.38562 : 225.59001 : 1"
       inkscape:vp_z="676.77124 : 338.38501 : 1"
       inkscape:vp_y="0 : 1000 : 0"
       inkscape:vp_x="0 : 338.38501 : 1"
       sodipodi:type="inkscape:persp3d" /><inkscape:perspective
       id="perspective16301-9"
       inkscape:persp3d-origin="338.38562 : 225.59001 : 1"
       inkscape:vp_z="676.77124 : 338.38501 : 1"
       inkscape:vp_y="0 : 1000 : 0"
       inkscape:vp_x="0 : 338.38501 : 1"
       sodipodi:type="inkscape:persp3d" /><inkscape:perspective
       id="perspective12409-1"
       inkscape:persp3d-origin="270.7085 : 180.47233 : 1"
       inkscape:vp_z="541.41699 : 270.7085 : 1"
       inkscape:vp_y="0 : 1000 : 0"
       inkscape:vp_x="0 : 270.7085 : 1"
       sodipodi:type="inkscape:persp3d" /><inkscape:perspective
       id="perspective9337-7"
       inkscape:persp3d-origin="0.5 : 0.33333333 : 1"
       inkscape:vp_z="1 : 0.5 : 1"
       inkscape:vp_y="0 : 1000 : 0"
       inkscape:vp_x="0 : 0.5 : 1"
       sodipodi:type="inkscape:persp3d" /><inkscape:perspective
       id="perspective8562-2"
       inkscape:persp3d-origin="0.5 : 0.33333333 : 1"
       inkscape:vp_z="1 : 0.5 : 1"
       inkscape:vp_y="0 : 1000 : 0"
       inkscape:vp_x="0 : 0.5 : 1"
       sodipodi:type="inkscape:persp3d" /><inkscape:perspective
       sodipodi:type="inkscape:persp3d"
       inkscape:vp_x="0 : 338.38501 : 1"
       inkscape:vp_y="0 : 1000 : 0"
       inkscape:vp_z="676.77124 : 338.38501 : 1"
       inkscape:persp3d-origin="338.38562 : 225.59001 : 1"
       id="perspective3083-3" /><inkscape:perspective
       sodipodi:type="inkscape:persp3d"
       inkscape:vp_x="0 : 270.7085 : 1"
       inkscape:vp_y="0 : 1000 : 0"
       inkscape:vp_z="541.41699 : 270.7085 : 1"
       inkscape:persp3d-origin="270.7085 : 180.47233 : 1"
       id="perspective23419-6" /><inkscape:perspective
       sodipodi:type="inkscape:persp3d"
       inkscape:vp_x="0 : 338.38501 : 1"
       inkscape:vp_y="0 : 1000 : 0"
       inkscape:vp_z="676.77124 : 338.38501 : 1"
       inkscape:persp3d-origin="338.38562 : 225.59001 : 1"
       id="perspective27913-5" /><inkscape:perspective
       id="perspective27913"
       inkscape:persp3d-origin="338.38562 : 225.59001 : 1"
       inkscape:vp_z="676.77124 : 338.38501 : 1"
       inkscape:vp_y="0 : 1000 : 0"
       inkscape:vp_x="0 : 338.38501 : 1"
       sodipodi:type="inkscape:persp3d" /><inkscape:perspective
       id="perspective23419"
       inkscape:persp3d-origin="270.7085 : 180.47233 : 1"
       inkscape:vp_z="541.41699 : 270.7085 : 1"
       inkscape:vp_y="0 : 1000 : 0"
       inkscape:vp_x="0 : 270.7085 : 1"
       sodipodi:type="inkscape:persp3d" /><inkscape:perspective
       id="perspective3083"
       inkscape:persp3d-origin="338.38562 : 225.59001 : 1"
       inkscape:vp_z="676.77124 : 338.38501 : 1"
       inkscape:vp_y="0 : 1000 : 0"
       inkscape:vp_x="0 : 338.38501 : 1"
       sodipodi:type="inkscape:persp3d" /><inkscape:perspective
       sodipodi:type="inkscape:persp3d"
       inkscape:vp_x="0 : 0.5 : 1"
       inkscape:vp_y="0 : 1000 : 0"
       inkscape:vp_z="1 : 0.5 : 1"
       inkscape:persp3d-origin="0.5 : 0.33333333 : 1"
       id="perspective8562" /><inkscape:perspective
       sodipodi:type="inkscape:persp3d"
       inkscape:vp_x="0 : 0.5 : 1"
       inkscape:vp_y="0 : 1000 : 0"
       inkscape:vp_z="1 : 0.5 : 1"
       inkscape:persp3d-origin="0.5 : 0.33333333 : 1"
       id="perspective9337" /><inkscape:perspective
       sodipodi:type="inkscape:persp3d"
       inkscape:vp_x="0 : 270.7085 : 1"
       inkscape:vp_y="0 : 1000 : 0"
       inkscape:vp_z="541.41699 : 270.7085 : 1"
       inkscape:persp3d-origin="270.7085 : 180.47233 : 1"
       id="perspective12409" /><inkscape:perspective
       sodipodi:type="inkscape:persp3d"
       inkscape:vp_x="0 : 338.38501 : 1"
       inkscape:vp_y="0 : 1000 : 0"
       inkscape:vp_z="676.77124 : 338.38501 : 1"
       inkscape:persp3d-origin="338.38562 : 225.59001 : 1"
       id="perspective16301" /><inkscape:perspective
       sodipodi:type="inkscape:persp3d"
       inkscape:vp_x="0 : 338.38501 : 1"
       inkscape:vp_y="0 : 1000 : 0"
       inkscape:vp_z="676.77124 : 338.38501 : 1"
       inkscape:persp3d-origin="338.38562 : 225.59001 : 1"
       id="perspective37556" /><inkscape:perspective
       sodipodi:type="inkscape:persp3d"
       inkscape:vp_x="0 : 270.70999 : 1"
       inkscape:vp_y="0 : 1000 : 0"
       inkscape:vp_z="541.41998 : 270.70999 : 1"
       inkscape:persp3d-origin="270.70999 : 180.47333 : 1"
       id="perspective51446" /><inkscape:perspective
       id="perspective37556-9-8"
       inkscape:persp3d-origin="338.38562 : 225.59001 : 1"
       inkscape:vp_z="676.77124 : 338.38501 : 1"
       inkscape:vp_y="0 : 1000 : 0"
       inkscape:vp_x="0 : 338.38501 : 1"
       sodipodi:type="inkscape:persp3d" /><inkscape:perspective
       id="perspective16301-9-1"
       inkscape:persp3d-origin="338.38562 : 225.59001 : 1"
       inkscape:vp_z="676.77124 : 338.38501 : 1"
       inkscape:vp_y="0 : 1000 : 0"
       inkscape:vp_x="0 : 338.38501 : 1"
       sodipodi:type="inkscape:persp3d" /><inkscape:perspective
       id="perspective12409-1-2"
       inkscape:persp3d-origin="270.7085 : 180.47233 : 1"
       inkscape:vp_z="541.41699 : 270.7085 : 1"
       inkscape:vp_y="0 : 1000 : 0"
       inkscape:vp_x="0 : 270.7085 : 1"
       sodipodi:type="inkscape:persp3d" /><inkscape:perspective
       id="perspective9337-7-0"
       inkscape:persp3d-origin="0.5 : 0.33333333 : 1"
       inkscape:vp_z="1 : 0.5 : 1"
       inkscape:vp_y="0 : 1000 : 0"
       inkscape:vp_x="0 : 0.5 : 1"
       sodipodi:type="inkscape:persp3d" /><inkscape:perspective
       id="perspective8562-2-5"
       inkscape:persp3d-origin="0.5 : 0.33333333 : 1"
       inkscape:vp_z="1 : 0.5 : 1"
       inkscape:vp_y="0 : 1000 : 0"
       inkscape:vp_x="0 : 0.5 : 1"
       sodipodi:type="inkscape:persp3d" /><inkscape:perspective
       sodipodi:type="inkscape:persp3d"
       inkscape:vp_x="0 : 338.38501 : 1"
       inkscape:vp_y="0 : 1000 : 0"
       inkscape:vp_z="676.77124 : 338.38501 : 1"
       inkscape:persp3d-origin="338.38562 : 225.59001 : 1"
       id="perspective3083-3-7" /><inkscape:perspective
       sodipodi:type="inkscape:persp3d"
       inkscape:vp_x="0 : 270.7085 : 1"
       inkscape:vp_y="0 : 1000 : 0"
       inkscape:vp_z="541.41699 : 270.7085 : 1"
       inkscape:persp3d-origin="270.7085 : 180.47233 : 1"
       id="perspective23419-6-3" /><inkscape:perspective
       sodipodi:type="inkscape:persp3d"
       inkscape:vp_x="0 : 338.38501 : 1"
       inkscape:vp_y="0 : 1000 : 0"
       inkscape:vp_z="676.77124 : 338.38501 : 1"
       inkscape:persp3d-origin="338.38562 : 225.59001 : 1"
       id="perspective27913-5-7" /><inkscape:perspective
       id="perspective27913-9"
       inkscape:persp3d-origin="338.38562 : 225.59001 : 1"
       inkscape:vp_z="676.77124 : 338.38501 : 1"
       inkscape:vp_y="0 : 1000 : 0"
       inkscape:vp_x="0 : 338.38501 : 1"
       sodipodi:type="inkscape:persp3d" /><inkscape:perspective
       id="perspective23419-3"
       inkscape:persp3d-origin="270.7085 : 180.47233 : 1"
       inkscape:vp_z="541.41699 : 270.7085 : 1"
       inkscape:vp_y="0 : 1000 : 0"
       inkscape:vp_x="0 : 270.7085 : 1"
       sodipodi:type="inkscape:persp3d" /><inkscape:perspective
       id="perspective3083-1"
       inkscape:persp3d-origin="338.38562 : 225.59001 : 1"
       inkscape:vp_z="676.77124 : 338.38501 : 1"
       inkscape:vp_y="0 : 1000 : 0"
       inkscape:vp_x="0 : 338.38501 : 1"
       sodipodi:type="inkscape:persp3d" /><inkscape:perspective
       sodipodi:type="inkscape:persp3d"
       inkscape:vp_x="0 : 0.5 : 1"
       inkscape:vp_y="0 : 1000 : 0"
       inkscape:vp_z="1 : 0.5 : 1"
       inkscape:persp3d-origin="0.5 : 0.33333333 : 1"
       id="perspective8562-25" /><inkscape:perspective
       sodipodi:type="inkscape:persp3d"
       inkscape:vp_x="0 : 0.5 : 1"
       inkscape:vp_y="0 : 1000 : 0"
       inkscape:vp_z="1 : 0.5 : 1"
       inkscape:persp3d-origin="0.5 : 0.33333333 : 1"
       id="perspective9337-6" /><inkscape:perspective
       sodipodi:type="inkscape:persp3d"
       inkscape:vp_x="0 : 270.7085 : 1"
       inkscape:vp_y="0 : 1000 : 0"
       inkscape:vp_z="541.41699 : 270.7085 : 1"
       inkscape:persp3d-origin="270.7085 : 180.47233 : 1"
       id="perspective12409-8" /><inkscape:perspective
       sodipodi:type="inkscape:persp3d"
       inkscape:vp_x="0 : 338.38501 : 1"
       inkscape:vp_y="0 : 1000 : 0"
       inkscape:vp_z="676.77124 : 338.38501 : 1"
       inkscape:persp3d-origin="338.38562 : 225.59001 : 1"
       id="perspective16301-5" /><inkscape:perspective
       sodipodi:type="inkscape:persp3d"
       inkscape:vp_x="0 : 338.38501 : 1"
       inkscape:vp_y="0 : 1000 : 0"
       inkscape:vp_z="676.77124 : 338.38501 : 1"
       inkscape:persp3d-origin="338.38562 : 225.59001 : 1"
       id="perspective37556-4" /><inkscape:perspective
       id="perspective37556-9-1"
       inkscape:persp3d-origin="338.38562 : 225.59001 : 1"
       inkscape:vp_z="676.77124 : 338.38501 : 1"
       inkscape:vp_y="0 : 1000 : 0"
       inkscape:vp_x="0 : 338.38501 : 1"
       sodipodi:type="inkscape:persp3d" /><inkscape:perspective
       id="perspective16301-9-3"
       inkscape:persp3d-origin="338.38562 : 225.59001 : 1"
       inkscape:vp_z="676.77124 : 338.38501 : 1"
       inkscape:vp_y="0 : 1000 : 0"
       inkscape:vp_x="0 : 338.38501 : 1"
       sodipodi:type="inkscape:persp3d" /><inkscape:perspective
       id="perspective12409-1-9"
       inkscape:persp3d-origin="270.7085 : 180.47233 : 1"
       inkscape:vp_z="541.41699 : 270.7085 : 1"
       inkscape:vp_y="0 : 1000 : 0"
       inkscape:vp_x="0 : 270.7085 : 1"
       sodipodi:type="inkscape:persp3d" /><inkscape:perspective
       id="perspective9337-7-1"
       inkscape:persp3d-origin="0.5 : 0.33333333 : 1"
       inkscape:vp_z="1 : 0.5 : 1"
       inkscape:vp_y="0 : 1000 : 0"
       inkscape:vp_x="0 : 0.5 : 1"
       sodipodi:type="inkscape:persp3d" /><inkscape:perspective
       id="perspective8562-2-7"
       inkscape:persp3d-origin="0.5 : 0.33333333 : 1"
       inkscape:vp_z="1 : 0.5 : 1"
       inkscape:vp_y="0 : 1000 : 0"
       inkscape:vp_x="0 : 0.5 : 1"
       sodipodi:type="inkscape:persp3d" /><inkscape:perspective
       sodipodi:type="inkscape:persp3d"
       inkscape:vp_x="0 : 338.38501 : 1"
       inkscape:vp_y="0 : 1000 : 0"
       inkscape:vp_z="676.77124 : 338.38501 : 1"
       inkscape:persp3d-origin="338.38562 : 225.59001 : 1"
       id="perspective3083-3-8" /><inkscape:perspective
       sodipodi:type="inkscape:persp3d"
       inkscape:vp_x="0 : 270.7085 : 1"
       inkscape:vp_y="0 : 1000 : 0"
       inkscape:vp_z="541.41699 : 270.7085 : 1"
       inkscape:persp3d-origin="270.7085 : 180.47233 : 1"
       id="perspective23419-6-8" /><inkscape:perspective
       sodipodi:type="inkscape:persp3d"
       inkscape:vp_x="0 : 338.38501 : 1"
       inkscape:vp_y="0 : 1000 : 0"
       inkscape:vp_z="676.77124 : 338.38501 : 1"
       inkscape:persp3d-origin="338.38562 : 225.59001 : 1"
       id="perspective27913-5-4" /><inkscape:perspective
       id="perspective27913-1"
       inkscape:persp3d-origin="338.38562 : 225.59001 : 1"
       inkscape:vp_z="676.77124 : 338.38501 : 1"
       inkscape:vp_y="0 : 1000 : 0"
       inkscape:vp_x="0 : 338.38501 : 1"
       sodipodi:type="inkscape:persp3d" /><inkscape:perspective
       id="perspective23419-9"
       inkscape:persp3d-origin="270.7085 : 180.47233 : 1"
       inkscape:vp_z="541.41699 : 270.7085 : 1"
       inkscape:vp_y="0 : 1000 : 0"
       inkscape:vp_x="0 : 270.7085 : 1"
       sodipodi:type="inkscape:persp3d" /><inkscape:perspective
       id="perspective3083-8"
       inkscape:persp3d-origin="338.38562 : 225.59001 : 1"
       inkscape:vp_z="676.77124 : 338.38501 : 1"
       inkscape:vp_y="0 : 1000 : 0"
       inkscape:vp_x="0 : 338.38501 : 1"
       sodipodi:type="inkscape:persp3d" /><inkscape:perspective
       sodipodi:type="inkscape:persp3d"
       inkscape:vp_x="0 : 0.5 : 1"
       inkscape:vp_y="0 : 1000 : 0"
       inkscape:vp_z="1 : 0.5 : 1"
       inkscape:persp3d-origin="0.5 : 0.33333333 : 1"
       id="perspective8562-6" /><inkscape:perspective
       sodipodi:type="inkscape:persp3d"
       inkscape:vp_x="0 : 0.5 : 1"
       inkscape:vp_y="0 : 1000 : 0"
       inkscape:vp_z="1 : 0.5 : 1"
       inkscape:persp3d-origin="0.5 : 0.33333333 : 1"
       id="perspective9337-2" /><inkscape:perspective
       sodipodi:type="inkscape:persp3d"
       inkscape:vp_x="0 : 270.7085 : 1"
       inkscape:vp_y="0 : 1000 : 0"
       inkscape:vp_z="541.41699 : 270.7085 : 1"
       inkscape:persp3d-origin="270.7085 : 180.47233 : 1"
       id="perspective12409-3" /><inkscape:perspective
       sodipodi:type="inkscape:persp3d"
       inkscape:vp_x="0 : 338.38501 : 1"
       inkscape:vp_y="0 : 1000 : 0"
       inkscape:vp_z="676.77124 : 338.38501 : 1"
       inkscape:persp3d-origin="338.38562 : 225.59001 : 1"
       id="perspective16301-56" /><inkscape:perspective
       sodipodi:type="inkscape:persp3d"
       inkscape:vp_x="0 : 338.38501 : 1"
       inkscape:vp_y="0 : 1000 : 0"
       inkscape:vp_z="676.77124 : 338.38501 : 1"
       inkscape:persp3d-origin="338.38562 : 225.59001 : 1"
       id="perspective37556-5" /><inkscape:perspective
       sodipodi:type="inkscape:persp3d"
       inkscape:vp_x="0 : 0.5 : 1"
       inkscape:vp_y="0 : 1000 : 0"
       inkscape:vp_z="1 : 0.5 : 1"
       inkscape:persp3d-origin="0.5 : 0.33333333 : 1"
       id="perspective10328" /><inkscape:perspective
       sodipodi:type="inkscape:persp3d"
       inkscape:vp_x="0 : 0.5 : 1"
       inkscape:vp_y="0 : 1000 : 0"
       inkscape:vp_z="1 : 0.5 : 1"
       inkscape:persp3d-origin="0.5 : 0.33333333 : 1"
       id="perspective11034" /><inkscape:perspective
       sodipodi:type="inkscape:persp3d"
       inkscape:vp_x="0 : 0.5 : 1"
       inkscape:vp_y="0 : 1000 : 0"
       inkscape:vp_z="1 : 0.5 : 1"
       inkscape:persp3d-origin="0.5 : 0.33333333 : 1"
       id="perspective3083-7" /><inkscape:perspective
       sodipodi:type="inkscape:persp3d"
       inkscape:vp_x="0 : 0.5 : 1"
       inkscape:vp_y="0 : 1000 : 0"
       inkscape:vp_z="1 : 0.5 : 1"
       inkscape:persp3d-origin="0.5 : 0.33333333 : 1"
       id="perspective2997" /></defs><sodipodi:namedview
     showguides="false"
     inkscape:document-rotation="0"
     inkscape:document-units="mm"
     inkscape:window-maximized="1"
     showgrid="false"
     inkscape:current-layer="layer10"
     inkscape:window-y="968"
     inkscape:window-x="4792"
     inkscape:cy="546"
     inkscape:cx="577"
     inkscape:zoom="0.5"
     id="base"
     pagecolor="#ffffff"
     bordercolor="#666666"
     borderopacity="1.0"
     objecttolerance="10.0"
     gridtolerance="10.0"
     guidetolerance="10.0"
     inkscape:pageopacity="0.0"
     inkscape:pageshadow="2"
     inkscape:window-width="1920"
     inkscape:window-height="992"
     inkscape:pagecheckerboard="0"
     inkscape:showpageshadow="2"
     inkscape:deskcolor="#d1d1d1" /><g
     inkscape:label="Design Template"
     id="layer10"
     inkscape:groupmode="layer"><path
       id="path3736"
       style="color:#000000;font-style:normal;font-variant:normal;font-weight:normal;font-stretch:normal;font-size:medium;line-height:normal;font-family:sans-serif;text-indent:0;text-align:start;text-decoration:none;text-decoration-line:none;text-decoration-style:solid;text-decoration-color:#000000;letter-spacing:normal;word-spacing:normal;text-transform:none;writing-mode:lr-tb;direction:ltr;baseline-shift:baseline;text-anchor:start;white-space:normal;clip-rule:nonzero;display:inline;overflow:visible;visibility:visible;opacity:1;isolation:auto;mix-blend-mode:normal;color-interpolation:sRGB;color-interpolation-filters:linearRGB;solid-color:#000000;solid-opacity:1;fill:#70bbff;fill-opacity:0.462626;fill-rule:nonzero;stroke:none;stroke-width:2.83621;stroke-linecap:butt;stroke-linejoin:miter;stroke-miterlimit:4;stroke-dasharray:none;stroke-dashoffset:0;stroke-opacity:1;color-rendering:auto;image-rendering:auto;shape-rendering:auto;text-rendering:auto;enable-background:accumulate"
       d="M 19.350585 1.4179687 L 19.350585 1.4282226 C 16.245927 1.4282226 13.330075 2.2131201 10.788574 3.5976562 C 10.534514 3.7361156 10.283659 3.8810102 10.037109 4.0312499 C 9.7914502 4.1811793 9.5512157 4.3358108 9.3134763 4.4970702 C 9.2634764 4.5307702 9.2164422 4.5667642 9.166992 4.6010741 C 8.9792923 4.7311338 8.7911759 4.863947 8.6088865 5.0009764 C 8.5988865 5.0089764 8.5891248 5.0154491 8.5781248 5.0229491 C 8.1325863 5.3589078 7.7021457 5.7154211 7.2905272 6.0908202 C 7.2174272 6.1576199 7.1485297 6.2280883 7.07666 6.2958983 C 6.9362103 6.4282077 6.7952192 6.5590709 6.6591795 6.6958006 C 6.4566701 6.89952 6.2585172 7.1080595 6.0659178 7.3212889 C 5.8762384 7.5310883 5.6918063 7.7471907 5.5122069 7.9658201 C 5.4572069 8.03262 5.4065989 8.1031485 5.3525389 8.1708982 C 5.2243095 8.3317079 5.094509 8.4919169 4.9716796 8.6572263 C 4.2843814 9.5823536 3.6825842 10.576502 3.1801757 11.627929 C 2.049819 13.993763 1.4179687 16.647888 1.4179687 19.457519 L 1.4179687 49.403319 C 1.4179687 143.77487 1.4281523 235.62561 1.4311523 327.48632 C 1.4312523 327.96153 1.4311523 328.44957 1.4311523 328.9248 C 1.8357611 337.28681 5.6131336 346.02898 12.593261 353.00243 L 35.055175 375.44237 C 38.289976 378.71217 40.062261 383.15077 39.968261 387.74706 C 39.880161 392.07547 38.143795 396.20819 35.112304 399.30175 L 12.593261 421.79882 C 5.5290539 428.85637 1.7546517 437.72449 1.4282226 446.17821 C 1.4382226 570.99855 1.4379727 695.46249 1.4179687 823.37693 L 1.4179687 850.3491 L 1.4179687 858.79392 C 1.5690284 864.41062 3.9643404 869.00332 7.741699 872.21482 C 11.264387 875.20942 15.984989 877.0005 21.191894 877.3198 L 433.36522 877.3198 L 433.40184 877.3198 L 455.95604 877.3198 C 457.74373 877.3039 459.47847 877.08648 461.24999 877.00633 L 461.24999 877.32273 L 582.74999 877.32273 L 661.49998 877.32273 L 678.67821 877.32273 L 681.7866 877.32273 L 683.24998 877.32273 L 683.24998 877.12644 C 687.8716 876.58608 692.06418 874.92446 695.25145 872.21482 C 699.02882 869.00342 701.42271 864.41206 701.57371 858.79539 L 701.57371 850.3491 L 701.57371 823.3784 C 701.54871 660.15623 701.55153 500.96339 701.56053 342.06298 L 701.56053 327.48632 L 701.56053 327.4497 C 701.57053 236.36214 701.57171 145.25257 701.57371 51.707518 L 701.57371 19.458984 C 701.57371 15.400646 700.25494 11.663837 698.02147 8.6572263 C 697.84947 8.4259772 697.67086 8.1985434 697.48826 7.976074 C 697.30596 7.7536146 697.11846 7.5359931 696.92576 7.3227537 C 696.73306 7.1095143 696.53667 6.9009849 696.33397 6.6972655 C 696.19797 6.5605358 696.05552 6.4296728 695.91502 6.2973631 C 695.84302 6.2290632 695.77425 6.1589747 695.70115 6.092285 C 695.28045 5.7087062 694.84036 5.3448301 694.38426 5.0024413 C 693.92426 4.6569622 693.44757 4.3332638 692.95457 4.0327147 C 692.70817 3.8824753 692.45887 3.7375807 692.20457 3.599121 C 689.66327 2.2145852 686.74726 1.4296875 683.64256 1.4296875 L 683.64256 1.4194336 L 683.62498 1.4194336 L 351.48632 1.4194336 L 19.350585 1.4179687 z M 481.93212 438.27245 C 491.15422 436.77354 511.35961 448.36595 514.48241 450.55956 C 527.17388 459.47466 536.33677 459.53655 537.02489 480.55663 C 534.25087 489.51724 528.29822 495.95051 521.3701 498.94481 C 519.48553 499.96857 517.35967 500.58803 515.10497 500.71141 C 514.26237 500.8276 513.41958 500.90199 512.57958 500.92089 L 512.37596 500.92089 C 505.06059 501.86654 499.40973 508.10975 499.41063 515.67333 C 499.41063 523.8759 506.06027 530.52672 514.26854 530.54735 L 514.26854 530.57518 L 514.29051 530.57518 C 522.49801 530.57548 529.15085 537.22307 529.15135 545.42284 C 529.15085 553.62255 522.49801 560.26866 514.29051 560.26903 L 514.26854 560.26903 L 514.26854 560.2954 C 506.05937 560.3156 499.41093 566.96735 499.41063 575.17088 C 499.41063 583.37338 506.06027 590.02566 514.26854 590.04637 L 514.26854 590.07567 L 514.29051 590.07567 C 522.49711 590.07567 529.14959 596.72421 529.14989 604.92332 C 529.14989 613.12394 522.49762 619.77361 514.28905 619.77391 L 514.26561 619.77391 L 514.26561 619.79735 C 506.05644 619.81765 499.40947 626.47085 499.40917 634.6743 C 499.40947 642.87776 506.05644 649.53055 514.26561 649.55125 L 514.26561 649.57909 L 514.28905 649.57909 C 522.49652 649.57909 529.14786 656.22818 529.14696 664.42821 C 529.14656 672.62798 522.49508 679.27556 514.28758 679.27586 L 514.26415 679.27586 L 514.26415 679.30223 C 506.05498 679.32323 499.408 685.97423 499.4077 694.17772 C 499.4077 702.38003 506.05618 709.03096 514.26415 709.05174 L 514.26415 709.08397 L 514.28758 709.08397 C 522.49508 709.08427 529.14656 715.73038 529.14696 723.93016 C 529.13696 731.76721 523.03122 738.24746 515.20165 738.73094 C 514.23675 738.66494 513.27139 738.62938 512.30419 738.6284 C 488.59635 738.62825 469.37674 757.83065 469.37694 781.51609 C 469.39194 782.49389 469.44124 783.47128 469.52343 784.44578 C 469.00603 792.24655 462.52135 798.31053 454.69628 798.31053 C 446.48861 798.31023 439.83574 791.66557 439.83544 783.4658 L 439.83544 783.44383 L 439.81054 783.44383 C 439.78954 775.24256 433.12874 768.60087 424.91747 768.60057 C 416.7073 768.60057 410.05126 775.24346 410.03026 783.44383 L 409.9995 783.44383 L 409.9995 783.4658 C 409.999 791.66557 403.34477 798.31169 395.1372 798.31199 C 386.92883 798.31199 380.27519 791.66647 380.27489 783.4658 L 380.27489 783.44236 L 380.25146 783.44236 C 380.23046 775.23999 373.57046 768.5991 365.35839 768.5991 C 357.14802 768.5991 350.49072 775.24189 350.46972 783.44236 L 350.44189 783.44236 L 350.44189 783.4658 C 350.44159 791.66557 343.78705 798.31169 335.57958 798.31199 C 327.37201 798.31169 320.71934 791.66557 320.71874 783.4658 L 320.71874 783.44236 L 320.69384 783.44236 C 320.67384 775.24099 314.01207 768.5994 305.80077 768.5991 C 297.5904 768.5991 290.93457 775.24189 290.91357 783.44236 L 290.88427 783.44236 L 290.88427 783.46434 C 290.88397 791.66411 284.23383 798.31169 276.02636 798.31199 C 267.81879 798.31169 261.16446 791.66411 261.16406 783.46434 L 261.16406 783.44236 L 261.13915 783.44236 C 261.11915 775.24099 254.45862 768.5994 246.24755 768.5991 C 238.03628 768.5994 231.37695 775.24089 231.35595 783.44236 L 231.33105 783.44236 L 231.33105 783.46434 C 231.33075 791.66501 224.67282 798.31153 216.46435 798.31053 C 208.25688 798.31023 201.60528 791.66411 201.60498 783.46434 L 201.60498 783.4409 L 201.58007 783.4409 C 201.55907 775.23963 194.90111 768.5994 186.68994 768.5991 C 178.47964 768.5991 171.81934 775.24053 171.79834 783.4409 L 171.77197 783.4409 L 171.77197 783.46434 C 171.77167 791.66411 165.1186 798.31023 156.91113 798.31053 C 148.70366 798.31023 142.05205 791.66411 142.05175 783.46434 L 142.05175 783.4409 L 142.02392 783.4409 C 142.00292 775.23943 135.34496 768.5994 127.13379 768.5991 C 118.92349 768.5991 112.26611 775.24053 112.24511 783.4409 L 112.21435 783.4409 L 112.21435 783.46287 C 112.21405 791.66264 105.5594 798.31023 97.352048 798.31053 L 97.384275 798.35008 C 89.244674 798.35008 82.622385 791.80344 82.529295 783.67234 C 82.573295 782.94154 82.595467 782.20738 82.605467 781.47508 C 82.605567 757.78973 63.387587 738.59016 39.679686 738.59031 C 38.616512 738.60381 37.554303 738.65631 36.495116 738.74852 C 28.82449 738.07633 22.940673 731.66267 22.930663 723.96971 C 22.930963 715.77001 29.585492 709.12235 37.792968 709.12205 L 37.81494 709.12205 L 37.81494 709.09861 C 46.023226 709.07691 52.668156 702.4242 52.668456 694.22166 C 52.668456 686.02023 46.022206 679.36807 37.81494 679.34617 L 37.81494 679.31688 L 37.792968 679.3242 C 29.585492 679.3239 22.932528 672.67925 22.932128 664.47948 C 22.932128 656.27885 29.584592 649.63065 37.792968 649.63035 L 37.81494 649.63035 L 37.81494 649.60692 C 46.024116 649.58522 52.671385 642.93051 52.671385 634.72703 C 52.671385 626.5256 46.022116 619.87345 37.81494 619.85155 L 37.81494 619.82518 L 37.792968 619.82518 C 29.584492 619.82488 22.931128 613.17814 22.932128 604.97752 C 22.932528 596.77774 29.585392 590.13025 37.792968 590.12987 L 37.816405 590.12987 L 37.816405 590.1035 C 46.024681 590.0818 52.67254 583.4291 52.67285 575.22655 C 52.67285 567.02512 46.023481 560.37442 37.816405 560.35252 L 37.816405 560.32176 L 37.794433 560.32176 C 29.586957 560.32146 22.935368 553.67382 22.935058 545.47411 C 22.935358 537.27434 29.587057 530.62968 37.794433 530.62938 L 37.816405 530.62938 L 37.816405 530.60301 C 46.024681 530.58131 52.67254 523.92723 52.67285 515.7246 C 52.67224 507.52226 46.024581 500.87101 37.816405 500.84911 L 37.816405 500.82128 L 37.794433 500.82128 C 29.586757 500.82098 22.933593 494.1719 22.933593 485.97216 C 22.943593 485.91846 22.945312 485.86357 22.945312 485.80956 C 22.907312 485.25232 22.879281 484.69358 22.863281 484.13524 C 22.863281 460.46872 42.067866 441.2836 65.756834 441.2827 C 66.736131 441.2833 67.715374 441.3167 68.692381 441.38378 L 68.692381 441.39403 C 76.445087 441.97608 82.439939 448.4291 82.439939 456.19628 L 82.439939 456.21825 L 82.466306 456.21825 C 82.488306 464.41968 89.148192 471.05565 97.359373 471.05565 C 105.56866 471.0549 112.22458 464.41788 112.24658 456.21825 L 112.27441 456.21825 L 112.27441 456.19481 C 112.27471 447.9951 118.92768 441.34746 127.13525 441.34716 C 135.34272 441.34746 141.99579 447.9951 141.99609 456.19481 L 141.99609 456.21679 L 142.02392 456.21679 C 142.04592 464.41732 148.70515 471.05535 156.91552 471.05565 C 165.12492 471.0549 171.78219 464.41633 171.80419 456.21679 L 171.83056 456.21679 L 171.83056 456.19335 C 171.83086 447.99364 178.48383 441.34599 186.6914 441.34569 C 194.89887 441.34599 201.55341 447.99364 201.55371 456.19335 L 201.55371 456.21386 L 201.57861 456.21386 C 201.60061 464.41439 208.25984 471.05096 216.47021 471.05126 C 224.68038 471.05096 231.33981 464.41439 231.36181 456.21386 L 231.38671 456.21386 L 231.38671 456.19188 C 231.38701 447.99127 238.04191 441.34469 246.25048 441.34569 C 254.45785 441.34599 261.10956 447.99217 261.10986 456.19188 L 261.10986 456.21386 L 261.13769 456.21386 C 261.15969 464.41439 267.81912 471.05096 276.02929 471.05126 C 284.23866 471.05051 290.89586 464.41339 290.91796 456.21386 L 290.94579 456.21386 L 290.94579 456.19042 C 290.94609 447.9907 297.59916 441.34306 305.80663 441.34276 C 314.0142 441.34306 320.66717 447.9907 320.66747 456.19042 L 320.66747 456.21093 L 320.69677 456.21093 C 320.71877 464.41146 327.37517 471.04803 335.58544 471.04833 C 343.79471 471.04633 350.45348 464.41046 350.47558 456.21093 L 350.50341 456.21093 L 350.50341 456.18895 C 350.50371 447.98923 357.15688 441.3416 365.36425 441.3413 C 373.57282 441.34055 380.22625 447.98833 380.22655 456.18895 L 380.22655 456.20946 L 380.25438 456.20946 C 380.27638 464.41089 386.93628 471.04686 395.14745 471.04686 C 403.35682 471.04611 410.01276 464.409 410.03466 456.20946 L 410.06249 456.20946 L 410.06249 456.18602 C 410.06279 447.98631 416.71722 441.33867 424.92479 441.33837 C 433.13219 441.33867 439.78387 447.98631 439.78417 456.18602 L 439.78417 456.20653 L 439.81347 456.20653 C 439.83547 464.40706 446.49323 471.0451 454.7036 471.0454 C 462.91287 471.04465 469.57027 464.40605 469.59227 456.20653 L 469.62011 456.20653 L 469.62011 456.18456 C 469.62021 452.47438 470.99223 449.08974 473.24413 446.48729 C 474.08533 445.08323 475.00101 443.78317 475.94091 442.6494 C 476.83612 441.68609 477.82766 440.70762 478.79442 439.73876 C 479.57752 438.95708 480.64381 438.48184 481.93212 438.27245 z " /></g></svg>
