<?xml version="1.0" encoding="UTF-8" standalone="no"?>
<svg
   version="1.1"
   inkscape:output_extension="org.inkscape.output.svg.inkscape"
   sodipodi:docname="SpeakerLayerEvenFull.svg"
   inkscape:version="1.3 (0e150ed6c4, 2023-07-21)"
   sodipodi:version="0.32"
   id="svg2338"
   xml:space="preserve"
   viewBox="0 0 1116.852 1116.85"
   height="1116.85pt"
   width="1116.852pt"
   xmlns:inkscape="http://www.inkscape.org/namespaces/inkscape"
   xmlns:sodipodi="http://sodipodi.sourceforge.net/DTD/sodipodi-0.dtd"
   xmlns="http://www.w3.org/2000/svg"
   xmlns:svg="http://www.w3.org/2000/svg"
   xmlns:rdf="http://www.w3.org/1999/02/22-rdf-syntax-ns#"
   xmlns:cc="http://creativecommons.org/ns#"
   xmlns:dc="http://purl.org/dc/elements/1.1/"><metadata
     id="metadata2382"><rdf:RDF><cc:Work
         rdf:about=""><dc:format>image/svg+xml</dc:format><dc:type
           rdf:resource="http://purl.org/dc/dcmitype/StillImage" /><dc:title /></cc:Work></rdf:RDF></metadata><defs
     id="defs2380"><inkscape:perspective
       id="perspective46224"
       inkscape:persp3d-origin="698.03253 : 465.35417 : 1"
       inkscape:vp_z="1396.0651 : 698.03125 : 1"
       inkscape:vp_y="0 : 1000 : 0"
       inkscape:vp_x="0 : 698.03125 : 1"
       sodipodi:type="inkscape:persp3d" /><inkscape:perspective
       id="perspective37556-9"
       inkscape:persp3d-origin="338.38562 : 225.59001 : 1"
       inkscape:vp_z="676.77124 : 338.38501 : 1"
       inkscape:vp_y="0 : 1000 : 0"
       inkscape:vp_x="0 : 338.38501 : 1"
       sodipodi:type="inkscape:persp3d" /><inkscape:perspective
       id="perspective16301-9"
       inkscape:persp3d-origin="338.38562 : 225.59001 : 1"
       inkscape:vp_z="676.77124 : 338.38501 : 1"
       inkscape:vp_y="0 : 1000 : 0"
       inkscape:vp_x="0 : 338.38501 : 1"
       sodipodi:type="inkscape:persp3d" /><inkscape:perspective
       id="perspective12409-1"
       inkscape:persp3d-origin="270.7085 : 180.47233 : 1"
       inkscape:vp_z="541.41699 : 270.7085 : 1"
       inkscape:vp_y="0 : 1000 : 0"
       inkscape:vp_x="0 : 270.7085 : 1"
       sodipodi:type="inkscape:persp3d" /><inkscape:perspective
       id="perspective9337-7"
       inkscape:persp3d-origin="0.5 : 0.33333333 : 1"
       inkscape:vp_z="1 : 0.5 : 1"
       inkscape:vp_y="0 : 1000 : 0"
       inkscape:vp_x="0 : 0.5 : 1"
       sodipodi:type="inkscape:persp3d" /><inkscape:perspective
       id="perspective8562-2"
       inkscape:persp3d-origin="0.5 : 0.33333333 : 1"
       inkscape:vp_z="1 : 0.5 : 1"
       inkscape:vp_y="0 : 1000 : 0"
       inkscape:vp_x="0 : 0.5 : 1"
       sodipodi:type="inkscape:persp3d" /><inkscape:perspective
       sodipodi:type="inkscape:persp3d"
       inkscape:vp_x="0 : 338.38501 : 1"
       inkscape:vp_y="0 : 1000 : 0"
       inkscape:vp_z="676.77124 : 338.38501 : 1"
       inkscape:persp3d-origin="338.38562 : 225.59001 : 1"
       id="perspective3083-3" /><inkscape:perspective
       sodipodi:type="inkscape:persp3d"
       inkscape:vp_x="0 : 270.7085 : 1"
       inkscape:vp_y="0 : 1000 : 0"
       inkscape:vp_z="541.41699 : 270.7085 : 1"
       inkscape:persp3d-origin="270.7085 : 180.47233 : 1"
       id="perspective23419-6" /><inkscape:perspective
       sodipodi:type="inkscape:persp3d"
       inkscape:vp_x="0 : 338.38501 : 1"
       inkscape:vp_y="0 : 1000 : 0"
       inkscape:vp_z="676.77124 : 338.38501 : 1"
       inkscape:persp3d-origin="338.38562 : 225.59001 : 1"
       id="perspective27913-5" /><inkscape:perspective
       id="perspective27913"
       inkscape:persp3d-origin="338.38562 : 225.59001 : 1"
       inkscape:vp_z="676.77124 : 338.38501 : 1"
       inkscape:vp_y="0 : 1000 : 0"
       inkscape:vp_x="0 : 338.38501 : 1"
       sodipodi:type="inkscape:persp3d" /><inkscape:perspective
       id="perspective23419"
       inkscape:persp3d-origin="270.7085 : 180.47233 : 1"
       inkscape:vp_z="541.41699 : 270.7085 : 1"
       inkscape:vp_y="0 : 1000 : 0"
       inkscape:vp_x="0 : 270.7085 : 1"
       sodipodi:type="inkscape:persp3d" /><inkscape:perspective
       id="perspective3083"
       inkscape:persp3d-origin="338.38562 : 225.59001 : 1"
       inkscape:vp_z="676.77124 : 338.38501 : 1"
       inkscape:vp_y="0 : 1000 : 0"
       inkscape:vp_x="0 : 338.38501 : 1"
       sodipodi:type="inkscape:persp3d" /><inkscape:perspective
       sodipodi:type="inkscape:persp3d"
       inkscape:vp_x="0 : 0.5 : 1"
       inkscape:vp_y="0 : 1000 : 0"
       inkscape:vp_z="1 : 0.5 : 1"
       inkscape:persp3d-origin="0.5 : 0.33333333 : 1"
       id="perspective8562" /><inkscape:perspective
       sodipodi:type="inkscape:persp3d"
       inkscape:vp_x="0 : 0.5 : 1"
       inkscape:vp_y="0 : 1000 : 0"
       inkscape:vp_z="1 : 0.5 : 1"
       inkscape:persp3d-origin="0.5 : 0.33333333 : 1"
       id="perspective9337" /><inkscape:perspective
       sodipodi:type="inkscape:persp3d"
       inkscape:vp_x="0 : 270.7085 : 1"
       inkscape:vp_y="0 : 1000 : 0"
       inkscape:vp_z="541.41699 : 270.7085 : 1"
       inkscape:persp3d-origin="270.7085 : 180.47233 : 1"
       id="perspective12409" /><inkscape:perspective
       sodipodi:type="inkscape:persp3d"
       inkscape:vp_x="0 : 338.38501 : 1"
       inkscape:vp_y="0 : 1000 : 0"
       inkscape:vp_z="676.77124 : 338.38501 : 1"
       inkscape:persp3d-origin="338.38562 : 225.59001 : 1"
       id="perspective16301" /><inkscape:perspective
       sodipodi:type="inkscape:persp3d"
       inkscape:vp_x="0 : 338.38501 : 1"
       inkscape:vp_y="0 : 1000 : 0"
       inkscape:vp_z="676.77124 : 338.38501 : 1"
       inkscape:persp3d-origin="338.38562 : 225.59001 : 1"
       id="perspective37556" /><inkscape:perspective
       sodipodi:type="inkscape:persp3d"
       inkscape:vp_x="0 : 270.70999 : 1"
       inkscape:vp_y="0 : 1000 : 0"
       inkscape:vp_z="541.41998 : 270.70999 : 1"
       inkscape:persp3d-origin="270.70999 : 180.47333 : 1"
       id="perspective51446" /><inkscape:perspective
       id="perspective37556-9-8"
       inkscape:persp3d-origin="338.38562 : 225.59001 : 1"
       inkscape:vp_z="676.77124 : 338.38501 : 1"
       inkscape:vp_y="0 : 1000 : 0"
       inkscape:vp_x="0 : 338.38501 : 1"
       sodipodi:type="inkscape:persp3d" /><inkscape:perspective
       id="perspective16301-9-1"
       inkscape:persp3d-origin="338.38562 : 225.59001 : 1"
       inkscape:vp_z="676.77124 : 338.38501 : 1"
       inkscape:vp_y="0 : 1000 : 0"
       inkscape:vp_x="0 : 338.38501 : 1"
       sodipodi:type="inkscape:persp3d" /><inkscape:perspective
       id="perspective12409-1-2"
       inkscape:persp3d-origin="270.7085 : 180.47233 : 1"
       inkscape:vp_z="541.41699 : 270.7085 : 1"
       inkscape:vp_y="0 : 1000 : 0"
       inkscape:vp_x="0 : 270.7085 : 1"
       sodipodi:type="inkscape:persp3d" /><inkscape:perspective
       id="perspective9337-7-0"
       inkscape:persp3d-origin="0.5 : 0.33333333 : 1"
       inkscape:vp_z="1 : 0.5 : 1"
       inkscape:vp_y="0 : 1000 : 0"
       inkscape:vp_x="0 : 0.5 : 1"
       sodipodi:type="inkscape:persp3d" /><inkscape:perspective
       id="perspective8562-2-5"
       inkscape:persp3d-origin="0.5 : 0.33333333 : 1"
       inkscape:vp_z="1 : 0.5 : 1"
       inkscape:vp_y="0 : 1000 : 0"
       inkscape:vp_x="0 : 0.5 : 1"
       sodipodi:type="inkscape:persp3d" /><inkscape:perspective
       sodipodi:type="inkscape:persp3d"
       inkscape:vp_x="0 : 338.38501 : 1"
       inkscape:vp_y="0 : 1000 : 0"
       inkscape:vp_z="676.77124 : 338.38501 : 1"
       inkscape:persp3d-origin="338.38562 : 225.59001 : 1"
       id="perspective3083-3-7" /><inkscape:perspective
       sodipodi:type="inkscape:persp3d"
       inkscape:vp_x="0 : 270.7085 : 1"
       inkscape:vp_y="0 : 1000 : 0"
       inkscape:vp_z="541.41699 : 270.7085 : 1"
       inkscape:persp3d-origin="270.7085 : 180.47233 : 1"
       id="perspective23419-6-3" /><inkscape:perspective
       sodipodi:type="inkscape:persp3d"
       inkscape:vp_x="0 : 338.38501 : 1"
       inkscape:vp_y="0 : 1000 : 0"
       inkscape:vp_z="676.77124 : 338.38501 : 1"
       inkscape:persp3d-origin="338.38562 : 225.59001 : 1"
       id="perspective27913-5-7" /><inkscape:perspective
       id="perspective27913-9"
       inkscape:persp3d-origin="338.38562 : 225.59001 : 1"
       inkscape:vp_z="676.77124 : 338.38501 : 1"
       inkscape:vp_y="0 : 1000 : 0"
       inkscape:vp_x="0 : 338.38501 : 1"
       sodipodi:type="inkscape:persp3d" /><inkscape:perspective
       id="perspective23419-3"
       inkscape:persp3d-origin="270.7085 : 180.47233 : 1"
       inkscape:vp_z="541.41699 : 270.7085 : 1"
       inkscape:vp_y="0 : 1000 : 0"
       inkscape:vp_x="0 : 270.7085 : 1"
       sodipodi:type="inkscape:persp3d" /><inkscape:perspective
       id="perspective3083-1"
       inkscape:persp3d-origin="338.38562 : 225.59001 : 1"
       inkscape:vp_z="676.77124 : 338.38501 : 1"
       inkscape:vp_y="0 : 1000 : 0"
       inkscape:vp_x="0 : 338.38501 : 1"
       sodipodi:type="inkscape:persp3d" /><inkscape:perspective
       sodipodi:type="inkscape:persp3d"
       inkscape:vp_x="0 : 0.5 : 1"
       inkscape:vp_y="0 : 1000 : 0"
       inkscape:vp_z="1 : 0.5 : 1"
       inkscape:persp3d-origin="0.5 : 0.33333333 : 1"
       id="perspective8562-25" /><inkscape:perspective
       sodipodi:type="inkscape:persp3d"
       inkscape:vp_x="0 : 0.5 : 1"
       inkscape:vp_y="0 : 1000 : 0"
       inkscape:vp_z="1 : 0.5 : 1"
       inkscape:persp3d-origin="0.5 : 0.33333333 : 1"
       id="perspective9337-6" /><inkscape:perspective
       sodipodi:type="inkscape:persp3d"
       inkscape:vp_x="0 : 270.7085 : 1"
       inkscape:vp_y="0 : 1000 : 0"
       inkscape:vp_z="541.41699 : 270.7085 : 1"
       inkscape:persp3d-origin="270.7085 : 180.47233 : 1"
       id="perspective12409-8" /><inkscape:perspective
       sodipodi:type="inkscape:persp3d"
       inkscape:vp_x="0 : 338.38501 : 1"
       inkscape:vp_y="0 : 1000 : 0"
       inkscape:vp_z="676.77124 : 338.38501 : 1"
       inkscape:persp3d-origin="338.38562 : 225.59001 : 1"
       id="perspective16301-5" /><inkscape:perspective
       sodipodi:type="inkscape:persp3d"
       inkscape:vp_x="0 : 338.38501 : 1"
       inkscape:vp_y="0 : 1000 : 0"
       inkscape:vp_z="676.77124 : 338.38501 : 1"
       inkscape:persp3d-origin="338.38562 : 225.59001 : 1"
       id="perspective37556-4" /><inkscape:perspective
       id="perspective37556-9-1"
       inkscape:persp3d-origin="338.38562 : 225.59001 : 1"
       inkscape:vp_z="676.77124 : 338.38501 : 1"
       inkscape:vp_y="0 : 1000 : 0"
       inkscape:vp_x="0 : 338.38501 : 1"
       sodipodi:type="inkscape:persp3d" /><inkscape:perspective
       id="perspective16301-9-3"
       inkscape:persp3d-origin="338.38562 : 225.59001 : 1"
       inkscape:vp_z="676.77124 : 338.38501 : 1"
       inkscape:vp_y="0 : 1000 : 0"
       inkscape:vp_x="0 : 338.38501 : 1"
       sodipodi:type="inkscape:persp3d" /><inkscape:perspective
       id="perspective12409-1-9"
       inkscape:persp3d-origin="270.7085 : 180.47233 : 1"
       inkscape:vp_z="541.41699 : 270.7085 : 1"
       inkscape:vp_y="0 : 1000 : 0"
       inkscape:vp_x="0 : 270.7085 : 1"
       sodipodi:type="inkscape:persp3d" /><inkscape:perspective
       id="perspective9337-7-1"
       inkscape:persp3d-origin="0.5 : 0.33333333 : 1"
       inkscape:vp_z="1 : 0.5 : 1"
       inkscape:vp_y="0 : 1000 : 0"
       inkscape:vp_x="0 : 0.5 : 1"
       sodipodi:type="inkscape:persp3d" /><inkscape:perspective
       id="perspective8562-2-7"
       inkscape:persp3d-origin="0.5 : 0.33333333 : 1"
       inkscape:vp_z="1 : 0.5 : 1"
       inkscape:vp_y="0 : 1000 : 0"
       inkscape:vp_x="0 : 0.5 : 1"
       sodipodi:type="inkscape:persp3d" /><inkscape:perspective
       sodipodi:type="inkscape:persp3d"
       inkscape:vp_x="0 : 338.38501 : 1"
       inkscape:vp_y="0 : 1000 : 0"
       inkscape:vp_z="676.77124 : 338.38501 : 1"
       inkscape:persp3d-origin="338.38562 : 225.59001 : 1"
       id="perspective3083-3-8" /><inkscape:perspective
       sodipodi:type="inkscape:persp3d"
       inkscape:vp_x="0 : 270.7085 : 1"
       inkscape:vp_y="0 : 1000 : 0"
       inkscape:vp_z="541.41699 : 270.7085 : 1"
       inkscape:persp3d-origin="270.7085 : 180.47233 : 1"
       id="perspective23419-6-8" /><inkscape:perspective
       sodipodi:type="inkscape:persp3d"
       inkscape:vp_x="0 : 338.38501 : 1"
       inkscape:vp_y="0 : 1000 : 0"
       inkscape:vp_z="676.77124 : 338.38501 : 1"
       inkscape:persp3d-origin="338.38562 : 225.59001 : 1"
       id="perspective27913-5-4" /><inkscape:perspective
       id="perspective27913-1"
       inkscape:persp3d-origin="338.38562 : 225.59001 : 1"
       inkscape:vp_z="676.77124 : 338.38501 : 1"
       inkscape:vp_y="0 : 1000 : 0"
       inkscape:vp_x="0 : 338.38501 : 1"
       sodipodi:type="inkscape:persp3d" /><inkscape:perspective
       id="perspective23419-9"
       inkscape:persp3d-origin="270.7085 : 180.47233 : 1"
       inkscape:vp_z="541.41699 : 270.7085 : 1"
       inkscape:vp_y="0 : 1000 : 0"
       inkscape:vp_x="0 : 270.7085 : 1"
       sodipodi:type="inkscape:persp3d" /><inkscape:perspective
       id="perspective3083-8"
       inkscape:persp3d-origin="338.38562 : 225.59001 : 1"
       inkscape:vp_z="676.77124 : 338.38501 : 1"
       inkscape:vp_y="0 : 1000 : 0"
       inkscape:vp_x="0 : 338.38501 : 1"
       sodipodi:type="inkscape:persp3d" /><inkscape:perspective
       sodipodi:type="inkscape:persp3d"
       inkscape:vp_x="0 : 0.5 : 1"
       inkscape:vp_y="0 : 1000 : 0"
       inkscape:vp_z="1 : 0.5 : 1"
       inkscape:persp3d-origin="0.5 : 0.33333333 : 1"
       id="perspective8562-6" /><inkscape:perspective
       sodipodi:type="inkscape:persp3d"
       inkscape:vp_x="0 : 0.5 : 1"
       inkscape:vp_y="0 : 1000 : 0"
       inkscape:vp_z="1 : 0.5 : 1"
       inkscape:persp3d-origin="0.5 : 0.33333333 : 1"
       id="perspective9337-2" /><inkscape:perspective
       sodipodi:type="inkscape:persp3d"
       inkscape:vp_x="0 : 270.7085 : 1"
       inkscape:vp_y="0 : 1000 : 0"
       inkscape:vp_z="541.41699 : 270.7085 : 1"
       inkscape:persp3d-origin="270.7085 : 180.47233 : 1"
       id="perspective12409-3" /><inkscape:perspective
       sodipodi:type="inkscape:persp3d"
       inkscape:vp_x="0 : 338.38501 : 1"
       inkscape:vp_y="0 : 1000 : 0"
       inkscape:vp_z="676.77124 : 338.38501 : 1"
       inkscape:persp3d-origin="338.38562 : 225.59001 : 1"
       id="perspective16301-56" /><inkscape:perspective
       sodipodi:type="inkscape:persp3d"
       inkscape:vp_x="0 : 338.38501 : 1"
       inkscape:vp_y="0 : 1000 : 0"
       inkscape:vp_z="676.77124 : 338.38501 : 1"
       inkscape:persp3d-origin="338.38562 : 225.59001 : 1"
       id="perspective37556-5" /><inkscape:perspective
       sodipodi:type="inkscape:persp3d"
       inkscape:vp_x="0 : 0.5 : 1"
       inkscape:vp_y="0 : 1000 : 0"
       inkscape:vp_z="1 : 0.5 : 1"
       inkscape:persp3d-origin="0.5 : 0.33333333 : 1"
       id="perspective10328" /><inkscape:perspective
       sodipodi:type="inkscape:persp3d"
       inkscape:vp_x="0 : 0.5 : 1"
       inkscape:vp_y="0 : 1000 : 0"
       inkscape:vp_z="1 : 0.5 : 1"
       inkscape:persp3d-origin="0.5 : 0.33333333 : 1"
       id="perspective11034" /><inkscape:perspective
       sodipodi:type="inkscape:persp3d"
       inkscape:vp_x="0 : 0.5 : 1"
       inkscape:vp_y="0 : 1000 : 0"
       inkscape:vp_z="1 : 0.5 : 1"
       inkscape:persp3d-origin="0.5 : 0.33333333 : 1"
       id="perspective3083-7" /><inkscape:perspective
       sodipodi:type="inkscape:persp3d"
       inkscape:vp_x="0 : 0.5 : 1"
       inkscape:vp_y="0 : 1000 : 0"
       inkscape:vp_z="1 : 0.5 : 1"
       inkscape:persp3d-origin="0.5 : 0.33333333 : 1"
       id="perspective2997" /></defs><sodipodi:namedview
     showguides="false"
     inkscape:document-rotation="0"
     inkscape:document-units="mm"
     inkscape:window-maximized="1"
     showgrid="false"
     inkscape:current-layer="layer10"
     inkscape:window-y="968"
     inkscape:window-x="4792"
     inkscape:cy="583.99999"
     inkscape:cx="145"
     inkscape:zoom="0.50000001"
     id="base"
     pagecolor="#ffffff"
     bordercolor="#666666"
     borderopacity="1.0"
     objecttolerance="10.0"
     gridtolerance="10.0"
     guidetolerance="10.0"
     inkscape:pageopacity="0.0"
     inkscape:pageshadow="2"
     inkscape:window-width="1920"
     inkscape:window-height="992"
     inkscape:pagecheckerboard="0"
     inkscape:showpageshadow="2"
     inkscape:deskcolor="#d1d1d1" /><g
     inkscape:label="Design Template"
     id="layer10"
     inkscape:groupmode="layer"><path
       style="color:#000000;font-style:normal;font-variant:normal;font-weight:normal;font-stretch:normal;font-size:medium;line-height:normal;font-family:sans-serif;text-indent:0;text-align:start;text-decoration:none;text-decoration-line:none;text-decoration-style:solid;text-decoration-color:#000000;letter-spacing:normal;word-spacing:normal;text-transform:none;writing-mode:lr-tb;direction:ltr;baseline-shift:baseline;text-anchor:start;white-space:normal;clip-rule:nonzero;display:inline;overflow:visible;visibility:visible;opacity:1;isolation:auto;mix-blend-mode:normal;color-interpolation:sRGB;color-interpolation-filters:linearRGB;solid-color:#000000;solid-opacity:1;fill:#947629;fill-opacity:0.35050505;fill-rule:nonzero;stroke:none;stroke-width:2.8346456;stroke-linecap:butt;stroke-linejoin:miter;stroke-miterlimit:4;stroke-dasharray:none;stroke-dashoffset:0;stroke-opacity:1;color-rendering:auto;image-rendering:auto;shape-rendering:auto;text-rendering:auto;enable-background:accumulate"
       d="m 19.369628,1.4179687 -0.01758,0.00293 -0.0029,0.010254 c -3.104643,0 -6.019182,0.7849263 -8.560547,2.1694335 -0.254158,0.1384594 -0.504991,0.283364 -0.751465,0.4335938 -0.2456926,0.1499396 -0.4859081,0.3045605 -0.7236327,0.4658203 -0.04965,0.0338 -0.098724,0.069714 -0.1479492,0.1040039 -0.1876646,0.1300598 -0.37428,0.2613977 -0.5566406,0.3984375 -0.01031,0.007 -0.020452,0.016037 -0.030762,0.023437 -0.4454191,0.3359397 -0.8759016,0.6924818 -1.2875976,1.067871 h -0.00146 C 7.2159856,6.1605498 7.1471262,6.231028 7.0751951,6.298828 6.9348368,6.4311376 6.792274,6.5620005 6.6562498,6.6987303 6.4536599,6.9024399 6.2571531,7.110989 6.064453,7.3242186 5.8748461,7.5340082 5.6904194,7.7486554 5.510742,7.967285 5.4557882,8.0339848 5.4050573,8.1046231 5.3510741,8.1723631 5.2227976,8.3331727 5.0915712,8.4933816 4.9687499,8.6586912 4.281502,9.5837994 3.6811265,10.577986 3.1787109,11.629394 2.757155,12.511612 2.40442,13.435007 2.1284179,14.390625 c -0.004,0.0141 -0.00802,0.02693 -0.011719,0.04101 -0.081781,0.28583 -0.1546691,0.575628 -0.2226563,0.867188 -0.012212,0.0527 -0.02491,0.105273 -0.036621,0.158203 -0.058758,0.26284 -0.1108863,0.529745 -0.1582031,0.796875 -0.011111,0.0631 -0.023281,0.125695 -0.033691,0.188965 -0.040941,0.246108 -0.074578,0.494702 -0.1054687,0.74414 -0.011511,0.0937 -0.025046,0.18705 -0.035156,0.28125 -0.023824,0.22019 -0.039648,0.442491 -0.055664,0.665039 -0.00801,0.11191 -0.018996,0.22296 -0.024902,0.33545 -0.012012,0.225578 -0.015239,0.453382 -0.019043,0.681152 -0.001,0.096 -0.00732,0.190739 -0.00732,0.287109 v 60.864256 c 0.002,83.411023 0.00702,165.522353 0.011719,247.171873 v 0.0102 c 0.014815,8.7912 3.8123564,18.1468 11.1958005,25.52344 l 22.460449,22.43701 c 3.234528,3.26974 5.005672,7.70992 4.911621,12.30615 -0.08809,4.32836 -1.824547,8.45973 -4.855957,11.55322 L 12.625488,421.80028 C 5.0085037,429.41223 1.2077122,439.12962 1.4399414,448.16014 v 0.006 0.003 h -0.00293 l -0.00146,0.003 v 0.001 h -0.00146 -0.00146 -0.00293 l -0.00293,0.003 c 0.003,105.92883 0.00422,212.11971 -0.00879,320.09179 v 55.09863 h 0.00293 0.00293 0.00146 0.00293 v 0.009 h 0.00146 v 26.96338 8.46533 c 0.1559437,5.60808 2.5493137,10.19269 6.3222654,13.40039 3.5257991,2.99738 8.2522431,4.79121 13.4648431,5.10791 l 86.915034,0.0102 h 325.24951 0.004 0.001 0.003 0.003 0.003 0.003 0.001 0.0381 22.55273 c 79.36331,-0.7079 143.341,-65.24368 143.39209,-144.53466 h 0.009 l -0.009,-0.009 c 0.003,3e-4 0.005,0 0.009,0 0.007,0 0.0132,0.009 0.0132,0.009 v -0.009 -0.019 -0.18311 c 7e-5,-1.4473 -10e-5,-3.05297 0,-4.26855 2.9e-4,-3.0647 0.002,-7.63589 0.003,-13.52344 7.5e-4,-11.77528 0.006,-28.81307 0.009,-49.56152 0.004,-41.4966 0.009,-97.84697 0.0132,-156.68701 0.01,-117.68012 0.0194,-245.31549 0.019,-283.97607 v -0.003 -0.004 l -0.006,-0.003 v -0.003 l -0.003,-0.003 -0.003,-0.003 h -0.001 v -0.001 h -0.006 -0.001 -0.003 -0.003 v 0.001 l -0.0234,0.009 v -57.31934 -0.0176 -0.003 c -0.0129,-1.81992 -0.10394,-3.63847 -0.27246,-5.45068 -0.10012,-1.03053 -0.22483,-2.05759 -0.375,-3.08203 -0.13552,-1.08715 -0.29787,-2.17318 -0.48926,-3.25195 -0.20108,-1.00553 -0.42592,-2.00527 -0.67529,-3 -0.24395,-1.06883 -0.51567,-2.1312 -0.81446,-3.18604 -0.30423,-0.99644 -0.63313,-1.9844 -0.98584,-2.96484 -0.34285,-1.01802 -0.71208,-2.02556 -1.10595,-3.0249 v -0.006 c -0.40498,-0.96694 -0.83396,-1.92235 -1.28614,-2.86817 -0.44813,-0.99033 -0.92271,-1.96792 -1.42089,-2.93408 -0.48558,-0.89584 -0.99106,-1.78122 -1.51905,-2.65283 -0.55491,-0.95894 -1.13316,-1.90276 -1.7373,-2.83154 h -0.003 c -0.57091,-0.83841 -1.16085,-1.66243 -1.771,-2.47266 -0.6487,-0.90122 -1.32071,-1.78666 -2.01562,-2.65283 -0.66242,-0.79007 -1.34342,-1.5633 -2.04346,-2.32031 -0.71732,-0.81027 -1.45427,-1.60029 -2.21191,-2.37305 v -0.001 c -0.75259,-0.73636 -1.52489,-1.45365 -2.31299,-2.15185 -0.79298,-0.73158 -1.60405,-1.44232 -2.43311,-2.13281 -0.80755,-0.64507 -1.63177,-1.26988 -2.46972,-1.875 -0.87286,-0.65806 -1.76191,-1.29483 -2.66748,-1.90723 -0.86067,-0.55626 -1.73267,-1.09272 -2.61914,-1.60693 -0.94224,-0.57328 -1.90186,-1.12131 -2.87256,-1.64502 -0.92205,-0.47277 -1.8539,-0.92323 -2.79785,-1.35059 -0.97573,-0.46653 -1.96517,-0.90783 -2.96338,-1.32422 -0.96503,-0.37844 -1.93855,-0.73538 -2.9209,-1.0664 -1.03507,-0.3739 -2.0788,-0.7201 -3.13184,-1.04004 -0.98717,-0.27708 -1.98013,-0.52955 -2.97949,-0.75879 -1.05827,-0.26558 -2.12141,-0.50379 -3.19189,-0.71485 -1.02696,-0.18151 -2.05912,-0.33773 -3.09375,-0.46875 -1.07279,-0.15787 -2.14905,-0.28949 -3.22852,-0.39257 -1.80302,-0.16667 -3.61365,-0.25508 -5.42432,-0.26807 h -0.0205 -57.27686 l 0.0103,-0.0249 0.001,-0.003 v -0.007 -0.003 -0.003 -0.001 h -0.001 v -0.001 l -0.004,-0.003 h -0.003 v -0.004 -0.003 h -0.003 -0.004 -0.001 -271.89843 -0.001 -0.003 -0.003 l -0.001,0.003 -0.003,0.004 -0.001,0.003 v 0.001 0.001 0.003 0.003 0.007 c -25.83197,0.0559 -51.86533,0.0278 -77.77002,0.0278 -0.008,0 -0.0146,0.004 -0.0176,0.006 l -0.001,0.003 -0.1626,-0.006 c -11.74785,2.5e-4 -21.27072,9.51645 -21.27099,21.25342 2.7e-4,11.73699 9.52314,21.25019 21.27099,21.25048 0.0541,-7.5e-4 0.11051,-0.002 0.16553,-0.007 2e-5,0 3.2e-4,6.1e-4 0.003,0.003 7.5e-4,5.6e-4 0.001,0.002 0.004,0.004 7.5e-4,3.6e-4 0.005,0.002 0.006,0.003 7.5e-4,2.7e-4 0.006,0 0.006,0 116.31669,0.0101 239.81932,0.0526 345.12304,0.0513 l 0.001,0.003 c 0.002,7.5e-4 0.006,0.002 0.0132,0.003 h 0.001 l 0.12891,-0.006 c 44.64195,1.8e-4 80.82989,36.15475 80.83007,80.75537 -1.8e-4,44.60065 -36.18812,80.75664 -80.83007,80.75684 -0.0485,3e-5 -0.0965,4e-5 -0.14502,0 h -267.33251 -0.001 -0.006 v 0.004 h -0.003 l -0.003,0.003 h -0.003 v 0.003 0.003 0.001 l -0.001,0.001 v 0.003 0.003 0.003 l 0.007,0.0249 h -77.77734 c -0.008,7e-5 -0.0146,0.003 -0.0176,0.006 -0.003,7.5e-4 -0.004,0.004 -0.003,0.004 l -0.15966,-0.0102 c -11.74789,2.8e-4 -21.27222,9.51644 -21.27247,21.25342 2.5e-4,11.737 9.52458,21.25022 21.27247,21.25049 0.0545,-7.5e-4 0.11064,-0.003 0.16552,-0.006 0.004,0.002 0.006,0.006 0.0132,0.006 h 77.70849 l -0.006,0.0293 v 0.003 0.003 0.004 0.006 h 0.001 v 0.003 h 0.004 v 0.003 l 0.003,0.003 h 0.003 0.003 267.40282 c 0,0 0.0593,0.0179 0.0806,0.0439 h 0.003 l 0.003,0.001 h 0.003 0.001 l 0.003,0.003 h 0.003 c 44.08417,0.75051 79.43393,36.65878 79.45459,80.70849 -0.0358,16.9551 -12.18126,32.96027 -15.37646,47.21484 l -8.53125,37.58496 c -1.59287,7.6692 -6.6536,14.84589 -14.86084,14.84619 h -0.0234 c -6.7e-4,-8e-5 -0.002,-8e-5 -0.003,0 h -0.001 -0.004 -0.003 c -7.2e-4,6e-4 -0.002,4.5e-4 -0.003,0 v 0.0308 c -8.20774,0.021 -14.85471,6.67183 -14.85644,14.87403 3.1e-4,8.20333 6.64758,14.85487 14.85644,14.87549 v 0.0264 h 0.003 c 6.2e-4,7.5e-4 0.002,0 0.003,0 6.1e-4,6.8e-4 0.003,0 0.004,0 h 0.001 c 6.1e-4,7.5e-4 0.002,4.5e-4 0.003,0 h 0.0234 c 8.20724,3.8e-4 14.86053,6.64794 14.86084,14.84766 7.5e-4,8.19981 -6.65215,14.84629 -14.85938,14.84765 h -0.022 -0.003 -0.001 -0.003 -0.003 -0.003 -0.001 c -7.2e-4,6e-4 -0.002,4.5e-4 -0.003,0 v 0.0278 c -8.20892,0.021 -14.85616,6.675 -14.85644,14.87841 3.2e-4,8.20333 6.64755,14.85487 14.85644,14.87549 v 0.0205 c 6e-4,6.8e-4 0.002,0 0.003,0 h 0.001 c 6e-4,6.8e-4 0.002,4.5e-4 0.003,0 h 0.003 c 6.6e-4,8e-5 0.002,8e-5 0.003,0 h 0.001 0.0234 c 8.20815,3.8e-4 14.86182,6.65149 14.86084,14.85205 -3.2e-4,8.19898 -6.65307,14.84469 -14.85938,14.84619 h -0.0234 -0.003 -0.003 -0.001 -0.001 c -6.7e-4,-1.5e-4 -0.002,-1.5e-4 -0.003,0 -7.3e-4,6e-4 -0.002,0 -0.003,0 v 0.0293 c -8.20795,0.021 -14.85486,6.67306 -14.85645,14.87549 3e-4,8.20325 6.64759,14.85486 14.85645,14.87548 v 0.0264 c 6.1e-4,6.8e-4 0.002,4.5e-4 0.003,0 6.1e-4,7.5e-4 0.002,4.5e-4 0.003,0 h 0.001 0.001 0.003 0.003 0.0234 c 8.20722,3e-4 14.86052,6.64801 14.86084,14.84766 -3.3e-4,8.19964 -6.65363,14.84589 -14.86084,14.84619 h -0.0234 -0.003 c -6.8e-4,-8e-5 -0.002,-8e-5 -0.003,0 h -0.001 -0.001 c -7.2e-4,6e-4 -0.002,0 -0.003,0 -7.3e-4,6e-4 -0.002,4.5e-4 -0.003,0 v 0.0278 c -8.20796,0.0203 -14.85486,6.67167 -14.85645,14.87402 -7.5e-4,8.2043 6.64667,14.85779 14.85645,14.87842 v 0.0234 c 6.1e-4,7.5e-4 0.002,0 0.003,0 h 0.003 0.001 0.001 0.003 0.003 0.0234 c 7.75664,0 14.20648,5.96595 14.81104,13.69189 6.1e-4,6.8e-4 0.002,0 0.003,0 h 0.001 0.003 0.003 0.001 0.0102 c 0.0686,0.97866 0.10427,1.95888 0.10547,2.93994 1.2e-4,23.66771 -19.20534,42.85411 -42.89502,42.85401 -0.40054,-0.015 -0.79977,-0.0331 -1.19971,-0.0601 h -0.003 c -0.2131,0.012 -0.42528,0.019 -0.63867,0.022 -8.20723,-3e-4 -14.85906,-6.6467 -14.85937,-14.84619 v -0.022 h -0.003 -0.003 -0.003 -0.001 -0.001 -0.003 -0.003 -0.0293 c -0.0219,-8.19948 -6.67813,-14.83727 -14.8872,-14.83887 -8.21002,3e-4 -14.86819,6.63839 -14.89014,14.83887 h -0.0293 -0.003 -0.001 -0.003 -0.001 -0.003 -0.003 -0.003 l 0.003,0.019 c -3.1e-4,8.19949 -6.65212,14.84736 -14.85937,14.84766 -8.20721,-3e-4 -14.86052,-6.64817 -14.86084,-14.84766 v -0.022 h -0.003 -0.003 -0.001 -0.003 -0.003 -0.003 -0.004 -0.0293 c -0.0219,-8.19958 -6.67812,-14.83717 -14.88721,-14.83887 -8.21092,0 -14.86963,6.63749 -14.8916,14.83887 h -0.0278 -0.003 -0.003 -0.003 -0.001 -0.004 v 0.0205 c -3.1e-4,8.20048 -6.65417,14.84709 -14.86231,14.84619 -8.20723,-3e-4 -14.85906,-6.64661 -14.85937,-14.84619 v -0.0234 h -0.003 -0.003 -0.003 -0.001 -0.003 -0.001 -0.0293 c -0.0219,-8.19958 -6.67812,-14.8359 -14.8872,-14.8374 -8.21001,3e-4 -14.86819,6.63692 -14.89014,14.8374 h -0.0293 -0.003 -0.003 -0.001 -0.003 -0.004 -0.003 v 0.0205 c -3.1e-4,8.19958 -6.65216,14.84579 -14.85937,14.84619 -8.20725,-4e-4 -14.86053,-6.64661 -14.86084,-14.84619 v -0.022 h -0.001 -0.003 -0.003 -0.003 -0.003 -0.003 -0.001 -0.0278 c -0.0219,-8.19938 -6.67958,-14.83716 -14.88867,-14.83886 -8.20998,3e-4 -14.8682,6.63838 -14.89014,14.83886 h -0.0278 -0.003 -0.003 -0.001 -0.003 -0.003 -0.001 -0.003 -0.001 l 0.001,0.0191 c -3.2e-4,8.19948 -6.65212,14.84589 -14.85937,14.84619 -8.20815,0 -14.862,-6.64581 -14.86231,-14.84619 v -0.022 h -0.003 -0.001 -0.003 -0.001 -0.003 -0.0249 c -0.0219,-8.20048 -6.6816,-14.83856 -14.8916,-14.83886 -8.21001,3e-4 -14.86818,6.63838 -14.89013,14.83886 h -0.0278 -0.003 -0.003 -0.003 -0.003 -0.003 -0.003 l 0.006,0.022 h -0.004 c -3.2e-4,8.19958 -6.65214,14.84442 -14.85937,14.84472 -8.20725,-3e-4 -14.86053,-6.64514 -14.86084,-14.84472 v -0.0234 h -0.003 -0.001 -0.003 -0.003 -0.003 -0.0278 c -0.0219,-8.19958 -6.67812,-14.83737 -14.88721,-14.83887 -8.21001,3e-4 -14.86968,6.63839 -14.8916,14.83887 h -0.0278 -0.001 -0.003 -0.001 -0.001 -0.003 -0.001 -0.003 l 0.003,0.0205 c -3e-4,8.19948 -6.65363,14.84589 -14.86084,14.84619 -8.20725,-3e-4 -14.85907,-6.64671 -14.85937,-14.84619 v -0.022 h -0.006 -0.003 -0.003 -0.003 -0.003 -0.003 -0.0264 c -0.0219,-8.19958 -6.67956,-14.84019 -14.888669,-14.84179 -8.210909,0 -14.871114,6.64041 -14.893066,14.84179 h -0.0249 -0.0059 -0.0029 -0.0015 -0.0015 -0.0029 -0.0015 -0.0029 l 0.0029,0.019 c -0.002,7.76698 -5.995091,14.21878 -13.747558,14.80078 h -0.0015 -0.0029 -0.0015 -0.0015 -0.0029 -0.0029 v 0.0117 c -0.976884,0.067 -1.954867,0.10047 -2.934081,0.10107 h -0.0015 -0.0029 c -23.688117,0 -42.891138,-19.18635 -42.892089,-42.85254 0.01642,-0.55825 0.04379,-1.11709 0.08203,-1.67431 -0.002,-0.054 -0.0049,-0.10882 -0.0059,-0.1626 9e-5,-8.19957 6.653363,-14.84882 14.86084,-14.84912 h 0.02197 0.0015 c 6.61e-4,7e-5 0.0019,7e-5 0.0029,0 h 0.0015 0.0029 0.0029 c 7.21e-4,-6e-4 0.0019,0 0.0029,0 h 0.0015 v -0.0278 c 8.207775,-0.0217 14.85444,-6.67329 14.85498,-14.87549 -3e-4,-8.20243 -6.647035,-14.85652 -14.85498,-14.87842 v -0.0249 h -0.0015 c -6.71e-4,-7e-5 -0.0019,-7e-5 -0.0029,0 h -0.0029 -0.0029 -0.0015 c -6.71e-4,-7e-5 -0.0019,-7e-5 -0.0029,0 h -0.02344 c -8.207217,-3.7e-4 -14.86052,-6.648 -14.86084,-14.84766 3.1e-4,-8.19957 6.653613,-14.84442 14.86084,-14.84472 h 0.02197 0.0015 c 6.6e-4,8e-5 0.0019,8e-5 0.0029,0 h 0.0015 0.0029 0.0015 c 6.6e-4,8e-5 0.0019,8e-5 0.0029,0 h 0.0015 v -0.0308 c 8.206874,-0.0217 14.853158,-6.67411 14.85498,-14.87548 -3.1e-4,-8.20237 -6.647035,-14.85213 -14.85498,-14.87403 v -0.0278 h -0.0015 c -6.11e-4,-7.5e-4 -0.0019,0 -0.0029,0 h -0.0015 c -6.71e-4,-8e-5 -0.0019,-8e-5 -0.0029,0 h -0.0015 c -6.71e-4,-8e-5 -0.0019,-8e-5 -0.0029,0 h -0.0015 -0.02344 c -8.207217,-3.8e-4 -14.860519,-6.64654 -14.86084,-14.84619 -9.81e-4,-8.20055 6.652692,-14.84875 14.86084,-14.84912 h 0.02197 0.0015 0.0029 0.0029 0.0015 c 6.61e-4,7e-5 0.0019,7e-5 0.0029,0 h 0.0015 0.0015 c 7.21e-4,-6e-4 0.0019,-4.5e-4 0.0029,0 h 0.0015 v -0.0278 c 8.206876,-0.0217 14.853158,-6.67125 14.85498,-14.87256 9.71e-4,-8.20332 -6.646102,-14.85797 -14.85498,-14.87988 v -0.0234 h -0.0015 c -6.7e-4,-8e-5 -0.0019,-8e-5 -0.0029,0 h -0.0015 -0.0015 c -6.1e-4,-6.8e-4 -0.0019,-4.5e-4 -0.0029,0 h -0.0015 c -6.7e-4,-8e-5 -0.0019,-8e-5 -0.0029,0 h -0.0029 -0.02344 c -8.208138,-3e-4 -14.861821,-6.64711 -14.86084,-14.84766 3.2e-4,-8.19965 6.653623,-14.84735 14.86084,-14.84765 h 0.02197 0.0015 0.0015 0.0029 c 7.21e-4,-6e-4 0.0019,-4.5e-4 0.0029,0 h 0.0015 0.0015 c 7.21e-4,-6e-4 0.0019,-4.5e-4 0.0029,0 v -0.0293 c 8.206865,-0.0217 14.853148,-6.67126 14.85498,-14.87256 -3e-4,-8.20251 -6.647033,-14.85497 -14.85498,-14.87695 v -0.0249 c -6.11e-4,-7.5e-4 -0.0019,-4.5e-4 -0.0029,0 h -0.0015 -0.0015 c -6.71e-4,-7e-5 -0.0019,-7e-5 -0.0029,0 h -0.0029 -0.0015 -0.02344 c -8.207217,-3e-4 -14.860519,-6.64801 -14.86084,-14.84766 0.006,-7.69276 5.892752,-14.10667 13.562988,-14.77881 1.059265,0.0925 2.121371,0.14449 3.18457,0.15821 23.707006,1.3e-4 42.924436,-19.19972 42.924316,-42.88477 -0.007,-0.73212 -0.03152,-1.46355 -0.07617,-2.19433 0.09259,-8.13097 6.714248,-14.67554 14.853515,-14.6792 v 0.0249 c 8.207244,3.2e-4 14.860514,6.64803 14.860844,14.84765 l -0.001,0.0205 c -4e-5,6.6e-4 -4e-5,0.002 0,0.003 -4e-5,6.6e-4 -4e-5,0.002 0,0.003 v 0.001 h 0.001 v 0.001 c -4e-5,6.6e-4 -4e-5,0.002 0,0.003 h 0.001 c 6.2e-4,7.2e-4 0.002,-2.5e-4 0.003,0 v 0.003 h 0.001 c -4e-5,6.7e-4 -4e-5,0.002 0,0.003 6.7e-4,3e-5 0.002,3e-5 0.003,0 h 0.003 0.0322 c 0.0206,8.20034 6.67721,14.84019 14.88721,14.8418 8.21091,-3.2e-4 14.86947,-6.64054 14.89013,-14.8418 h 0.0264 c 6.6e-4,3e-5 0.002,3e-5 0.003,0 h 0.003 c 6.6e-4,3e-5 0.002,3e-5 0.003,0 7.2e-4,-6.1e-4 -5.4e-4,-0.002 0,-0.003 l 0.003,-0.003 c 7.2e-4,-6.2e-4 0.002,2.5e-4 0.003,0 h 0.004 c 3e-5,-6.8e-4 3e-5,-0.002 0,-0.003 v -0.001 -0.001 c 4e-5,-6.7e-4 4e-5,-0.002 0,-0.003 v -0.0234 c 3.2e-4,-8.19962 6.65362,-14.84734 14.86084,-14.84765 8.20722,3.1e-4 14.86199,6.64802 14.86231,14.84765 v 0.0234 c -4e-5,6.6e-4 -4e-5,0.002 0,0.003 v 0.001 0.001 c -3e-5,6.6e-4 -3e-5,0.002 0,0.003 h 0.001 c 6.3e-4,7.2e-4 0.002,0.002 0.003,0.003 h 0.001 c 6.3e-4,7.2e-4 0.002,0.002 0.003,0.003 6.9e-4,3e-5 0.002,3e-5 0.003,0 h 0.0264 c 0.0206,8.20034 6.68012,14.84019 14.89014,14.8418 8.2109,-3.2e-4 14.86948,-6.64056 14.89014,-14.8418 h 0.0249 0.001 c 6.7e-4,3e-5 0.002,3e-5 0.003,0 7.2e-4,-6.1e-4 -5.4e-4,-0.002 0,-0.003 6.7e-4,4e-5 0.002,4e-5 0.003,0 l 0.001,-0.003 h 0.001 c 7.2e-4,-6.2e-4 0.002,-0.002 0.003,-0.003 v -0.001 -0.001 c 4e-5,-6.7e-4 4e-5,-0.002 0,-0.003 v -0.0234 c 3.3e-4,-8.19963 6.65361,-14.84734 14.86084,-14.84765 8.20813,-7.5e-4 14.86347,6.64712 14.86377,14.84765 l -0.003,0.022 v 0.003 c -3e-5,6.6e-4 -3e-5,0.002 0,0.003 v 0.001 c 6.2e-4,7.2e-4 0.002,0.001 0.003,0.001 -3e-5,6.6e-4 -3e-5,0.002 0,0.003 6.1e-4,7.2e-4 0.002,0 0.003,0 h 0.003 c 6.1e-4,7.2e-4 -7.8e-4,0.002 0,0.003 6.8e-4,3e-5 0.002,3e-5 0.003,0 h 0.001 0.001 0.0278 c 0.0207,8.20127 6.68067,14.84149 14.8916,14.84179 8.21092,-3.1e-4 14.86948,-6.64055 14.89014,-14.84179 h 0.0249 c 6.6e-4,3e-5 0.002,3e-5 0.003,0 h 0.001 c 7.2e-4,-6e-4 0.002,-0.002 0.003,-0.003 h 0.003 c 7.2e-4,-6e-4 0.003,5.4e-4 0.004,0 7.2e-4,-6.1e-4 -5.4e-4,-0.002 0,-0.003 v -0.001 -0.001 c 3e-5,-6.6e-4 3e-5,-0.002 0,-0.003 v -0.003 -0.0234 c 3.1e-4,-8.19962 6.65363,-14.84734 14.86084,-14.84766 8.20723,3.2e-4 14.85905,6.64803 14.85937,14.84766 l -0.001,0.022 v 0.001 0.001 c 6.2e-4,7.2e-4 -1.3e-4,0.002 0.001,0.003 v 0.003 c 6.1e-4,7.2e-4 0.002,0.002 0.003,0.003 h 0.003 c 6.1e-4,7.2e-4 -5.4e-4,0.002 0,0.003 6.9e-4,3e-5 0.003,3e-5 0.004,0 l 0.003,0.003 c 6.9e-4,3e-5 0.002,3e-5 0.003,0 h 0.001 0.0308 c 0.0207,8.20034 6.67721,14.84019 14.88721,14.8418 8.2109,-3.1e-4 14.87094,-6.64056 14.8916,-14.8418 h 0.0249 0.003 c 6.8e-4,3e-5 0.003,3e-5 0.004,0 h 0.001 v -0.003 c 6.8e-4,3e-5 0.003,3e-5 0.004,0 5e-5,-6.8e-4 5e-5,-0.002 0,-0.003 6.8e-4,3e-5 0.002,3e-5 0.003,0 5e-5,-6.8e-4 5e-5,-0.002 0,-0.003 v -0.003 c 5e-5,-6.8e-4 5e-5,-0.002 0,-0.003 v -0.001 -0.0234 c 3.3e-4,-8.19964 6.65362,-14.84734 14.86084,-14.84766 8.20723,3.2e-4 14.85906,6.64802 14.85937,14.84766 v 0.0234 0.001 c -4e-5,6.6e-4 -4e-5,0.002 0,0.003 6.2e-4,7.2e-4 0.002,8.6e-4 0.003,0.003 6.1e-4,7.2e-4 9.3e-4,0.002 0.003,0.003 -4e-5,6.6e-4 -4e-5,0.002 0,0.003 6.7e-4,3e-5 0.002,3e-5 0.003,0 h 0.001 v 0.003 h 0.001 c 6.7e-4,3e-5 0.002,3e-5 0.003,0 h 0.003 0.0293 c 0.0206,8.20034 6.6772,14.84019 14.8872,14.8418 8.21183,7.5e-4 14.87387,-6.63963 14.89453,-14.8418 h 0.0234 0.003 c 6.7e-4,3e-5 0.002,3e-5 0.003,0 h 0.001 l 0.003,-0.003 c 7.2e-4,-6.2e-4 0.002,-0.002 0.003,-0.003 h 0.003 c 4e-5,-6.8e-4 4e-5,-0.002 0,-0.003 7.2e-4,-6.2e-4 0.002,-8.6e-4 0.003,-0.003 4e-5,-6.8e-4 4e-5,-0.002 0,-0.003 v -0.001 -0.0234 c 3.2e-4,-8.20054 6.65418,-14.84863 14.86231,-14.84766 8.20722,3.2e-4 14.85905,6.64802 14.85937,14.84766 v 0.022 0.001 c -4e-5,6.6e-4 -4e-5,0.002 0,0.003 v 0.003 c -3e-5,6.6e-4 -3e-5,0.002 0,0.003 6.1e-4,7.2e-4 0.003,0.002 0.004,0.003 h 0.003 c -3e-5,6.6e-4 -3e-5,0.003 0,0.004 6.8e-4,3e-5 0.002,3e-5 0.003,0 v 0.001 h 0.003 c 6.8e-4,3e-5 0.002,3e-5 0.003,0 h 0.001 0.0308 c 0.0207,8.20034 6.67867,14.84018 14.88867,14.84179 8.21093,-3.2e-4 14.87241,-6.64055 14.89307,-14.84179 h 0.0249 0.003 c 6.7e-4,3e-5 0.002,3e-5 0.003,0 h 0.001 l 0.001,-0.001 c 7.2e-4,-6.2e-4 0.002,-0.003 0.003,-0.004 h 0.001 v -0.003 c 4e-5,-6.7e-4 4e-5,-0.002 0,-0.003 7.2e-4,-6.2e-4 0.002,-7.9e-4 0.003,-0.003 4e-5,-6.7e-4 4e-5,-0.002 0,-0.003 v -0.0234 c 3.2e-4,-8.19963 6.66208,-15.22004 14.86084,-14.84766 21.06016,0.95652 7.6e-4,-6e-5 21.04101,1.32862 9.60231,0.6064 16.24341,-14.01498 10.99365,-24.18164 -2.70411,-4.74424 -8.03281,-8.54436 -14.51074,-8.81983 -0.0548,7.5e-4 -0.10798,0.003 -0.1626,0.006 -5.5e-4,-1.4e-4 -3.1e-4,4e-5 -0.003,-0.001 -7.5e-4,-7.2e-4 -0.002,-0.003 -0.004,-0.004 -7.5e-4,-5.1e-4 -0.005,0.002 -0.006,0 -4.9e-4,-1.3e-4 -0.005,0 -0.006,0 h -77.70849 l 0.007,-0.0278 v -0.003 -0.003 -0.001 -0.003 h -0.001 v -0.001 h -0.003 v -0.006 l -0.003,-0.001 h -0.006 -0.003 -0.004 -267.40282 c -0.0351,0 -0.061,-0.0187 -0.082,-0.0454 l -0.003,-0.003 -0.001,-0.001 -0.006,-0.001 h -0.003 c -44.076424,-0.76361 -79.423701,-36.66846 -79.444331,-80.71728 0.03203,-44.03703 35.371539,-79.92986 79.442871,-80.68653 h 0.003 l 0.004,-0.003 h 0.003 v -0.001 h 0.003 v -0.003 h 0.003 v -0.004 c 0.0196,-0.0364 0.0492,-0.063 0.0908,-0.063 h 268.7622 0.001 0.003 0.003 l 0.003,-0.001 h 0.003 l 0.004,-0.003 v -0.003 -0.001 h 0.001 v -0.003 -0.001 -0.003 -0.003 -0.001 -0.001 l -0.009,-0.0278 h 77.78027 c 0.007,0 0.0115,-0.003 0.0147,-0.006 7.5e-4,-7.5e-4 0.003,-0.002 0.003,-0.003 l 0.16113,0.006 c 11.74786,-2.4e-4 21.27219,-9.5135 21.27246,-21.25048 -2.5e-4,-11.73698 -9.52459,-21.25317 -21.27246,-21.25342 -0.0545,7.5e-4 -0.11076,0.004 -0.16553,0.007 v -0.001 c -0.003,-7.5e-4 -0.0132,-0.003 -0.0132,-0.003 -115.17962,-0.20629 -239.11991,-0.30063 -346.55419,-0.0483 -0.0339,0 -0.0623,-0.0196 -0.0835,-0.0454 h -0.001 v -0.001 l -0.001,-0.001 h -0.003 v -0.003 h -0.001 -0.001 -0.003 C 82.939088,204.66856 47.589976,168.76269 47.569335,124.71386 47.600265,80.668746 82.951621,44.771041 127.03125,44.024413 h 0.001 0.003 l 0.003,-0.0029 v -0.0029 h 0.004 c 0.0271,-0.0351 3.11465,-0.06152 0.10986,-0.06152 149.53376,2.4e-4 303.48608,6e-5 438.01757,0 5.7e-4,4.5e-4 3.1e-4,-0.0018 0.003,0 7.5e-4,6.1e-4 0.003,0.0059 0.003,0.0059 l 0.007,0.0015 h 0.003 c 0.0572,-0.004 0.11307,-0.0048 0.17139,-0.0088 50.49968,5.4e-4 91.65003,39.957081 93.52587,89.951655 -0.0401,135.78841 0.0967,724.31834 0.0967,724.31834 0.0819,10.28878 9.56246,18.45779 19.87647,19.08399 h 2.68066 c 0.20267,-0.01 0.40526,-0.0216 0.60645,-0.0366 0.42535,-0.032 0.84743,-0.072 1.26562,-0.12305 0.23687,-0.029 0.4717,-0.0636 0.70606,-0.0996 0.34942,-0.053 0.69509,-0.11095 1.03857,-0.17725 0.30652,-0.059 0.61117,-0.12472 0.9126,-0.19482 0.26311,-0.061 0.52468,-0.12729 0.78369,-0.19629 0.37583,-0.1005 0.74523,-0.20936 1.11181,-0.32666 0.229,-0.073 0.45744,-0.15018 0.68262,-0.22998 0.34396,-0.1218 0.68353,-0.25138 1.01807,-0.38818 0.24708,-0.1009 0.49224,-0.20438 0.73389,-0.31348 0.25346,-0.1144 0.50568,-0.23286 0.75292,-0.35596 0.18738,-0.093 0.36859,-0.1932 0.55225,-0.2915 0.11499,-0.062 0.23221,-0.11971 0.3457,-0.18311 1.14294,-0.6394 2.2098,-1.37579 3.18457,-2.20459 1.94742,-1.65568 3.52835,-3.67769 4.62452,-6.01757 0.002,0 0.004,-0.0103 0.006,-0.0103 0.004,-0.01 0.007,-0.015 0.0102,-0.022 0.12837,-0.2754 0.24854,-0.55536 0.36328,-0.83936 0.0158,-0.039 0.0299,-0.0791 0.0454,-0.11865 0.0974,-0.2464 0.1899,-0.49573 0.27686,-0.74853 0.0299,-0.087 0.0578,-0.17579 0.0864,-0.26367 0.0733,-0.2244 0.14307,-0.45049 0.20801,-0.67969 0.0261,-0.093 0.0513,-0.18639 0.0762,-0.27979 0.0557,-0.2089 0.10816,-0.41865 0.15674,-0.63135 0.0339,-0.1491 0.0649,-0.30007 0.0952,-0.45117 0.0341,-0.1689 0.067,-0.33856 0.0967,-0.50976 0.0275,-0.1597 0.0524,-0.32024 0.0762,-0.48194 0.0258,-0.1754 0.049,-0.35257 0.0703,-0.53027 0.0211,-0.1785 0.0407,-0.35816 0.0571,-0.53906 0.0137,-0.1497 0.0247,-0.29997 0.0351,-0.45117 0.0145,-0.2137 0.0259,-0.4292 0.0337,-0.646 0.005,-0.1212 0.008,-0.24275 0.0102,-0.36475 v -8.26904 l 0.001,-26.97217 h 0.003 0.003 0.003 c -0.0418,-272.62768 0.001,-529.84115 0.001,-803.929663 0,-0.0408 -0.003,-0.08079 -0.003,-0.121582 -0.003,-0.39647 -0.0204,-0.78937 -0.0483,-1.1792 -0.007,-0.103128 -0.0145,-0.206432 -0.0234,-0.309082 -0.0383,-0.432688 -0.0887,-0.862954 -0.15674,-1.286132 -0.009,-0.0584 -0.0209,-0.116147 -0.0308,-0.174317 -0.0712,-0.417168 -0.15443,-0.829658 -0.25342,-1.236328 -0.009,-0.0356 -0.016,-0.07148 -0.0249,-0.106933 -0.10938,-0.43782 -0.23602,-0.869209 -0.37646,-1.293457 -0.0144,-0.0436 -0.0294,-0.08689 -0.0439,-0.130372 -0.14639,-0.431138 -0.30622,-0.855964 -0.4834,-1.271484 -0.18189,-0.426568 -0.38035,-0.843773 -0.59326,-1.252441 -0.005,-0.0101 -0.009,-0.02066 -0.0147,-0.03076 -0.003,-0.006 -0.008,-0.01051 -0.0102,-0.01611 -0.21635,-0.41232 -0.4464,-0.816047 -0.69287,-1.2084963 v -0.00146 c -0.24791,-0.397557 -0.51352,-0.7832022 -0.79248,-1.1586914 -0.17182,-0.2312496 -0.3493,-0.4586729 -0.53174,-0.6811523 -0.18244,-0.2224596 -0.37127,-0.4400707 -0.56397,-0.6533203 -0.1927,-0.2132196 -0.38919,-0.4217787 -0.59179,-0.6254883 -0.13603,-0.1367398 -0.27713,-0.2675927 -0.41748,-0.3999023 -0.072,-0.0683 -0.14224,-0.1384083 -0.21534,-0.2050781 h -0.001 c -0.4207,-0.3835694 -0.86101,-0.7474544 -1.3169,-1.0898438 -0.46004,-0.3454692 -0.93674,-0.6691771 -1.42968,-0.9697265 -0.24646,-0.1502298 -0.49587,-0.2951341 -0.75,-0.4335937 -2.54136,-1.3845074 -5.45738,-2.1694336 -8.56201,-2.1694336 l -0.003,-0.010254 h -0.0191 -332.12548 z"
       id="path6473" /></g></svg>
