<?xml version="1.0" encoding="UTF-8" standalone="no"?>
<svg
   xmlns:dc="http://purl.org/dc/elements/1.1/"
   xmlns:cc="http://creativecommons.org/ns#"
   xmlns:rdf="http://www.w3.org/1999/02/22-rdf-syntax-ns#"
   xmlns:svg="http://www.w3.org/2000/svg"
   xmlns="http://www.w3.org/2000/svg"
   xmlns:sodipodi="http://sodipodi.sourceforge.net/DTD/sodipodi-0.dtd"
   xmlns:inkscape="http://www.inkscape.org/namespaces/inkscape"
   width="1116.852pt"
   height="1116.85pt"
   viewBox="0 0 1116.852 1116.85"
   xml:space="preserve"
   id="svg2338"
   sodipodi:version="0.32"
   inkscape:version="1.0 (4035a4fb49, 2020-05-01)"
   sodipodi:docname="OddHalf.svg"
   inkscape:output_extension="org.inkscape.output.svg.inkscape"
   version="1.1"><metadata
     id="metadata2382"><rdf:RDF><cc:Work
         rdf:about=""><dc:format>image/svg+xml</dc:format><dc:type
           rdf:resource="http://purl.org/dc/dcmitype/StillImage" /><dc:title /></cc:Work></rdf:RDF></metadata><defs
     id="defs2380"><inkscape:perspective
       sodipodi:type="inkscape:persp3d"
       inkscape:vp_x="0 : 698.03125 : 1"
       inkscape:vp_y="0 : 1000 : 0"
       inkscape:vp_z="1396.0651 : 698.03125 : 1"
       inkscape:persp3d-origin="698.03253 : 465.35417 : 1"
       id="perspective46224" /><inkscape:perspective
       sodipodi:type="inkscape:persp3d"
       inkscape:vp_x="0 : 338.38501 : 1"
       inkscape:vp_y="0 : 1000 : 0"
       inkscape:vp_z="676.77124 : 338.38501 : 1"
       inkscape:persp3d-origin="338.38562 : 225.59001 : 1"
       id="perspective37556-9" /><inkscape:perspective
       sodipodi:type="inkscape:persp3d"
       inkscape:vp_x="0 : 338.38501 : 1"
       inkscape:vp_y="0 : 1000 : 0"
       inkscape:vp_z="676.77124 : 338.38501 : 1"
       inkscape:persp3d-origin="338.38562 : 225.59001 : 1"
       id="perspective16301-9" /><inkscape:perspective
       sodipodi:type="inkscape:persp3d"
       inkscape:vp_x="0 : 270.7085 : 1"
       inkscape:vp_y="0 : 1000 : 0"
       inkscape:vp_z="541.41699 : 270.7085 : 1"
       inkscape:persp3d-origin="270.7085 : 180.47233 : 1"
       id="perspective12409-1" /><inkscape:perspective
       sodipodi:type="inkscape:persp3d"
       inkscape:vp_x="0 : 0.5 : 1"
       inkscape:vp_y="0 : 1000 : 0"
       inkscape:vp_z="1 : 0.5 : 1"
       inkscape:persp3d-origin="0.5 : 0.33333333 : 1"
       id="perspective9337-7" /><inkscape:perspective
       sodipodi:type="inkscape:persp3d"
       inkscape:vp_x="0 : 0.5 : 1"
       inkscape:vp_y="0 : 1000 : 0"
       inkscape:vp_z="1 : 0.5 : 1"
       inkscape:persp3d-origin="0.5 : 0.33333333 : 1"
       id="perspective8562-2" /><inkscape:perspective
       id="perspective3083-3"
       inkscape:persp3d-origin="338.38562 : 225.59001 : 1"
       inkscape:vp_z="676.77124 : 338.38501 : 1"
       inkscape:vp_y="0 : 1000 : 0"
       inkscape:vp_x="0 : 338.38501 : 1"
       sodipodi:type="inkscape:persp3d" /><inkscape:perspective
       id="perspective23419-6"
       inkscape:persp3d-origin="270.7085 : 180.47233 : 1"
       inkscape:vp_z="541.41699 : 270.7085 : 1"
       inkscape:vp_y="0 : 1000 : 0"
       inkscape:vp_x="0 : 270.7085 : 1"
       sodipodi:type="inkscape:persp3d" /><inkscape:perspective
       id="perspective27913-5"
       inkscape:persp3d-origin="338.38562 : 225.59001 : 1"
       inkscape:vp_z="676.77124 : 338.38501 : 1"
       inkscape:vp_y="0 : 1000 : 0"
       inkscape:vp_x="0 : 338.38501 : 1"
       sodipodi:type="inkscape:persp3d" /><inkscape:perspective
       sodipodi:type="inkscape:persp3d"
       inkscape:vp_x="0 : 338.38501 : 1"
       inkscape:vp_y="0 : 1000 : 0"
       inkscape:vp_z="676.77124 : 338.38501 : 1"
       inkscape:persp3d-origin="338.38562 : 225.59001 : 1"
       id="perspective27913" /><inkscape:perspective
       sodipodi:type="inkscape:persp3d"
       inkscape:vp_x="0 : 270.7085 : 1"
       inkscape:vp_y="0 : 1000 : 0"
       inkscape:vp_z="541.41699 : 270.7085 : 1"
       inkscape:persp3d-origin="270.7085 : 180.47233 : 1"
       id="perspective23419" /><inkscape:perspective
       sodipodi:type="inkscape:persp3d"
       inkscape:vp_x="0 : 338.38501 : 1"
       inkscape:vp_y="0 : 1000 : 0"
       inkscape:vp_z="676.77124 : 338.38501 : 1"
       inkscape:persp3d-origin="338.38562 : 225.59001 : 1"
       id="perspective3083" /><inkscape:perspective
       id="perspective8562"
       inkscape:persp3d-origin="0.5 : 0.33333333 : 1"
       inkscape:vp_z="1 : 0.5 : 1"
       inkscape:vp_y="0 : 1000 : 0"
       inkscape:vp_x="0 : 0.5 : 1"
       sodipodi:type="inkscape:persp3d" /><inkscape:perspective
       id="perspective9337"
       inkscape:persp3d-origin="0.5 : 0.33333333 : 1"
       inkscape:vp_z="1 : 0.5 : 1"
       inkscape:vp_y="0 : 1000 : 0"
       inkscape:vp_x="0 : 0.5 : 1"
       sodipodi:type="inkscape:persp3d" /><inkscape:perspective
       id="perspective12409"
       inkscape:persp3d-origin="270.7085 : 180.47233 : 1"
       inkscape:vp_z="541.41699 : 270.7085 : 1"
       inkscape:vp_y="0 : 1000 : 0"
       inkscape:vp_x="0 : 270.7085 : 1"
       sodipodi:type="inkscape:persp3d" /><inkscape:perspective
       id="perspective16301"
       inkscape:persp3d-origin="338.38562 : 225.59001 : 1"
       inkscape:vp_z="676.77124 : 338.38501 : 1"
       inkscape:vp_y="0 : 1000 : 0"
       inkscape:vp_x="0 : 338.38501 : 1"
       sodipodi:type="inkscape:persp3d" /><inkscape:perspective
       id="perspective37556"
       inkscape:persp3d-origin="338.38562 : 225.59001 : 1"
       inkscape:vp_z="676.77124 : 338.38501 : 1"
       inkscape:vp_y="0 : 1000 : 0"
       inkscape:vp_x="0 : 338.38501 : 1"
       sodipodi:type="inkscape:persp3d" /><inkscape:perspective
       id="perspective51446"
       inkscape:persp3d-origin="270.70999 : 180.47333 : 1"
       inkscape:vp_z="541.41998 : 270.70999 : 1"
       inkscape:vp_y="0 : 1000 : 0"
       inkscape:vp_x="0 : 270.70999 : 1"
       sodipodi:type="inkscape:persp3d" /><inkscape:perspective
       sodipodi:type="inkscape:persp3d"
       inkscape:vp_x="0 : 338.38501 : 1"
       inkscape:vp_y="0 : 1000 : 0"
       inkscape:vp_z="676.77124 : 338.38501 : 1"
       inkscape:persp3d-origin="338.38562 : 225.59001 : 1"
       id="perspective37556-9-8" /><inkscape:perspective
       sodipodi:type="inkscape:persp3d"
       inkscape:vp_x="0 : 338.38501 : 1"
       inkscape:vp_y="0 : 1000 : 0"
       inkscape:vp_z="676.77124 : 338.38501 : 1"
       inkscape:persp3d-origin="338.38562 : 225.59001 : 1"
       id="perspective16301-9-1" /><inkscape:perspective
       sodipodi:type="inkscape:persp3d"
       inkscape:vp_x="0 : 270.7085 : 1"
       inkscape:vp_y="0 : 1000 : 0"
       inkscape:vp_z="541.41699 : 270.7085 : 1"
       inkscape:persp3d-origin="270.7085 : 180.47233 : 1"
       id="perspective12409-1-2" /><inkscape:perspective
       sodipodi:type="inkscape:persp3d"
       inkscape:vp_x="0 : 0.5 : 1"
       inkscape:vp_y="0 : 1000 : 0"
       inkscape:vp_z="1 : 0.5 : 1"
       inkscape:persp3d-origin="0.5 : 0.33333333 : 1"
       id="perspective9337-7-0" /><inkscape:perspective
       sodipodi:type="inkscape:persp3d"
       inkscape:vp_x="0 : 0.5 : 1"
       inkscape:vp_y="0 : 1000 : 0"
       inkscape:vp_z="1 : 0.5 : 1"
       inkscape:persp3d-origin="0.5 : 0.33333333 : 1"
       id="perspective8562-2-5" /><inkscape:perspective
       id="perspective3083-3-7"
       inkscape:persp3d-origin="338.38562 : 225.59001 : 1"
       inkscape:vp_z="676.77124 : 338.38501 : 1"
       inkscape:vp_y="0 : 1000 : 0"
       inkscape:vp_x="0 : 338.38501 : 1"
       sodipodi:type="inkscape:persp3d" /><inkscape:perspective
       id="perspective23419-6-3"
       inkscape:persp3d-origin="270.7085 : 180.47233 : 1"
       inkscape:vp_z="541.41699 : 270.7085 : 1"
       inkscape:vp_y="0 : 1000 : 0"
       inkscape:vp_x="0 : 270.7085 : 1"
       sodipodi:type="inkscape:persp3d" /><inkscape:perspective
       id="perspective27913-5-7"
       inkscape:persp3d-origin="338.38562 : 225.59001 : 1"
       inkscape:vp_z="676.77124 : 338.38501 : 1"
       inkscape:vp_y="0 : 1000 : 0"
       inkscape:vp_x="0 : 338.38501 : 1"
       sodipodi:type="inkscape:persp3d" /><inkscape:perspective
       sodipodi:type="inkscape:persp3d"
       inkscape:vp_x="0 : 338.38501 : 1"
       inkscape:vp_y="0 : 1000 : 0"
       inkscape:vp_z="676.77124 : 338.38501 : 1"
       inkscape:persp3d-origin="338.38562 : 225.59001 : 1"
       id="perspective27913-9" /><inkscape:perspective
       sodipodi:type="inkscape:persp3d"
       inkscape:vp_x="0 : 270.7085 : 1"
       inkscape:vp_y="0 : 1000 : 0"
       inkscape:vp_z="541.41699 : 270.7085 : 1"
       inkscape:persp3d-origin="270.7085 : 180.47233 : 1"
       id="perspective23419-3" /><inkscape:perspective
       sodipodi:type="inkscape:persp3d"
       inkscape:vp_x="0 : 338.38501 : 1"
       inkscape:vp_y="0 : 1000 : 0"
       inkscape:vp_z="676.77124 : 338.38501 : 1"
       inkscape:persp3d-origin="338.38562 : 225.59001 : 1"
       id="perspective3083-1" /><inkscape:perspective
       id="perspective8562-25"
       inkscape:persp3d-origin="0.5 : 0.33333333 : 1"
       inkscape:vp_z="1 : 0.5 : 1"
       inkscape:vp_y="0 : 1000 : 0"
       inkscape:vp_x="0 : 0.5 : 1"
       sodipodi:type="inkscape:persp3d" /><inkscape:perspective
       id="perspective9337-6"
       inkscape:persp3d-origin="0.5 : 0.33333333 : 1"
       inkscape:vp_z="1 : 0.5 : 1"
       inkscape:vp_y="0 : 1000 : 0"
       inkscape:vp_x="0 : 0.5 : 1"
       sodipodi:type="inkscape:persp3d" /><inkscape:perspective
       id="perspective12409-8"
       inkscape:persp3d-origin="270.7085 : 180.47233 : 1"
       inkscape:vp_z="541.41699 : 270.7085 : 1"
       inkscape:vp_y="0 : 1000 : 0"
       inkscape:vp_x="0 : 270.7085 : 1"
       sodipodi:type="inkscape:persp3d" /><inkscape:perspective
       id="perspective16301-5"
       inkscape:persp3d-origin="338.38562 : 225.59001 : 1"
       inkscape:vp_z="676.77124 : 338.38501 : 1"
       inkscape:vp_y="0 : 1000 : 0"
       inkscape:vp_x="0 : 338.38501 : 1"
       sodipodi:type="inkscape:persp3d" /><inkscape:perspective
       id="perspective37556-4"
       inkscape:persp3d-origin="338.38562 : 225.59001 : 1"
       inkscape:vp_z="676.77124 : 338.38501 : 1"
       inkscape:vp_y="0 : 1000 : 0"
       inkscape:vp_x="0 : 338.38501 : 1"
       sodipodi:type="inkscape:persp3d" /><inkscape:perspective
       sodipodi:type="inkscape:persp3d"
       inkscape:vp_x="0 : 338.38501 : 1"
       inkscape:vp_y="0 : 1000 : 0"
       inkscape:vp_z="676.77124 : 338.38501 : 1"
       inkscape:persp3d-origin="338.38562 : 225.59001 : 1"
       id="perspective37556-9-1" /><inkscape:perspective
       sodipodi:type="inkscape:persp3d"
       inkscape:vp_x="0 : 338.38501 : 1"
       inkscape:vp_y="0 : 1000 : 0"
       inkscape:vp_z="676.77124 : 338.38501 : 1"
       inkscape:persp3d-origin="338.38562 : 225.59001 : 1"
       id="perspective16301-9-3" /><inkscape:perspective
       sodipodi:type="inkscape:persp3d"
       inkscape:vp_x="0 : 270.7085 : 1"
       inkscape:vp_y="0 : 1000 : 0"
       inkscape:vp_z="541.41699 : 270.7085 : 1"
       inkscape:persp3d-origin="270.7085 : 180.47233 : 1"
       id="perspective12409-1-9" /><inkscape:perspective
       sodipodi:type="inkscape:persp3d"
       inkscape:vp_x="0 : 0.5 : 1"
       inkscape:vp_y="0 : 1000 : 0"
       inkscape:vp_z="1 : 0.5 : 1"
       inkscape:persp3d-origin="0.5 : 0.33333333 : 1"
       id="perspective9337-7-1" /><inkscape:perspective
       sodipodi:type="inkscape:persp3d"
       inkscape:vp_x="0 : 0.5 : 1"
       inkscape:vp_y="0 : 1000 : 0"
       inkscape:vp_z="1 : 0.5 : 1"
       inkscape:persp3d-origin="0.5 : 0.33333333 : 1"
       id="perspective8562-2-7" /><inkscape:perspective
       id="perspective3083-3-8"
       inkscape:persp3d-origin="338.38562 : 225.59001 : 1"
       inkscape:vp_z="676.77124 : 338.38501 : 1"
       inkscape:vp_y="0 : 1000 : 0"
       inkscape:vp_x="0 : 338.38501 : 1"
       sodipodi:type="inkscape:persp3d" /><inkscape:perspective
       id="perspective23419-6-8"
       inkscape:persp3d-origin="270.7085 : 180.47233 : 1"
       inkscape:vp_z="541.41699 : 270.7085 : 1"
       inkscape:vp_y="0 : 1000 : 0"
       inkscape:vp_x="0 : 270.7085 : 1"
       sodipodi:type="inkscape:persp3d" /><inkscape:perspective
       id="perspective27913-5-4"
       inkscape:persp3d-origin="338.38562 : 225.59001 : 1"
       inkscape:vp_z="676.77124 : 338.38501 : 1"
       inkscape:vp_y="0 : 1000 : 0"
       inkscape:vp_x="0 : 338.38501 : 1"
       sodipodi:type="inkscape:persp3d" /><inkscape:perspective
       sodipodi:type="inkscape:persp3d"
       inkscape:vp_x="0 : 338.38501 : 1"
       inkscape:vp_y="0 : 1000 : 0"
       inkscape:vp_z="676.77124 : 338.38501 : 1"
       inkscape:persp3d-origin="338.38562 : 225.59001 : 1"
       id="perspective27913-1" /><inkscape:perspective
       sodipodi:type="inkscape:persp3d"
       inkscape:vp_x="0 : 270.7085 : 1"
       inkscape:vp_y="0 : 1000 : 0"
       inkscape:vp_z="541.41699 : 270.7085 : 1"
       inkscape:persp3d-origin="270.7085 : 180.47233 : 1"
       id="perspective23419-9" /><inkscape:perspective
       sodipodi:type="inkscape:persp3d"
       inkscape:vp_x="0 : 338.38501 : 1"
       inkscape:vp_y="0 : 1000 : 0"
       inkscape:vp_z="676.77124 : 338.38501 : 1"
       inkscape:persp3d-origin="338.38562 : 225.59001 : 1"
       id="perspective3083-8" /><inkscape:perspective
       id="perspective8562-6"
       inkscape:persp3d-origin="0.5 : 0.33333333 : 1"
       inkscape:vp_z="1 : 0.5 : 1"
       inkscape:vp_y="0 : 1000 : 0"
       inkscape:vp_x="0 : 0.5 : 1"
       sodipodi:type="inkscape:persp3d" /><inkscape:perspective
       id="perspective9337-2"
       inkscape:persp3d-origin="0.5 : 0.33333333 : 1"
       inkscape:vp_z="1 : 0.5 : 1"
       inkscape:vp_y="0 : 1000 : 0"
       inkscape:vp_x="0 : 0.5 : 1"
       sodipodi:type="inkscape:persp3d" /><inkscape:perspective
       id="perspective12409-3"
       inkscape:persp3d-origin="270.7085 : 180.47233 : 1"
       inkscape:vp_z="541.41699 : 270.7085 : 1"
       inkscape:vp_y="0 : 1000 : 0"
       inkscape:vp_x="0 : 270.7085 : 1"
       sodipodi:type="inkscape:persp3d" /><inkscape:perspective
       id="perspective16301-56"
       inkscape:persp3d-origin="338.38562 : 225.59001 : 1"
       inkscape:vp_z="676.77124 : 338.38501 : 1"
       inkscape:vp_y="0 : 1000 : 0"
       inkscape:vp_x="0 : 338.38501 : 1"
       sodipodi:type="inkscape:persp3d" /><inkscape:perspective
       id="perspective37556-5"
       inkscape:persp3d-origin="338.38562 : 225.59001 : 1"
       inkscape:vp_z="676.77124 : 338.38501 : 1"
       inkscape:vp_y="0 : 1000 : 0"
       inkscape:vp_x="0 : 338.38501 : 1"
       sodipodi:type="inkscape:persp3d" /><inkscape:perspective
       id="perspective10328"
       inkscape:persp3d-origin="0.5 : 0.33333333 : 1"
       inkscape:vp_z="1 : 0.5 : 1"
       inkscape:vp_y="0 : 1000 : 0"
       inkscape:vp_x="0 : 0.5 : 1"
       sodipodi:type="inkscape:persp3d" /><inkscape:perspective
       id="perspective11034"
       inkscape:persp3d-origin="0.5 : 0.33333333 : 1"
       inkscape:vp_z="1 : 0.5 : 1"
       inkscape:vp_y="0 : 1000 : 0"
       inkscape:vp_x="0 : 0.5 : 1"
       sodipodi:type="inkscape:persp3d" /><inkscape:perspective
       id="perspective3083-7"
       inkscape:persp3d-origin="0.5 : 0.33333333 : 1"
       inkscape:vp_z="1 : 0.5 : 1"
       inkscape:vp_y="0 : 1000 : 0"
       inkscape:vp_x="0 : 0.5 : 1"
       sodipodi:type="inkscape:persp3d" /><inkscape:perspective
       id="perspective2997"
       inkscape:persp3d-origin="0.5 : 0.33333333 : 1"
       inkscape:vp_z="1 : 0.5 : 1"
       inkscape:vp_y="0 : 1000 : 0"
       inkscape:vp_x="0 : 0.5 : 1"
       sodipodi:type="inkscape:persp3d" /></defs><sodipodi:namedview
     inkscape:window-height="1017"
     inkscape:window-width="1920"
     inkscape:pageshadow="2"
     inkscape:pageopacity="0.0"
     guidetolerance="10.0"
     gridtolerance="10.0"
     objecttolerance="10.0"
     borderopacity="1.0"
     bordercolor="#666666"
     pagecolor="#ffffff"
     id="base"
     inkscape:zoom="5.6568544"
     inkscape:cx="80.736118"
     inkscape:cy="48.873783"
     inkscape:window-x="-8"
     inkscape:window-y="-8"
     inkscape:current-layer="layer10"
     showgrid="false"
     inkscape:window-maximized="1"
     inkscape:document-units="mm"
     inkscape:document-rotation="0"
     showguides="false" /><g
     inkscape:groupmode="layer"
     id="layer10"
     inkscape:label="Design Template"><path
       sodipodi:nodetypes="cccccccccccccccccscccccscccccccscccccccccccccccccscccccscssscssccccscccccccccccccccccccsccsccscscccccscscccccscscccccssscccccscsccsccscscccccscccscccccccccccscscccccscscccccscscccccsccccccscccccscsccsccscscccccscscccccscscccccscscccccscccccccscccccccsccsccscscccccscscccccsccccc"
       id="path3748"
       style="color:#000000;font-style:normal;font-variant:normal;font-weight:normal;font-stretch:normal;font-size:medium;line-height:normal;font-family:sans-serif;text-indent:0;text-align:start;text-decoration:none;text-decoration-line:none;text-decoration-style:solid;text-decoration-color:#000000;letter-spacing:normal;word-spacing:normal;text-transform:none;writing-mode:lr-tb;direction:ltr;baseline-shift:baseline;text-anchor:start;white-space:normal;clip-rule:nonzero;display:inline;overflow:visible;visibility:visible;opacity:1;isolation:auto;mix-blend-mode:normal;color-interpolation:sRGB;color-interpolation-filters:linearRGB;solid-color:#000000;solid-opacity:1;fill:#00ffff;fill-opacity:1;fill-rule:nonzero;stroke:#000002;stroke-width:5.66929;stroke-linecap:butt;stroke-linejoin:miter;stroke-miterlimit:4;stroke-dasharray:none;stroke-dashoffset:0;stroke-opacity:1;color-rendering:auto;image-rendering:auto;shape-rendering:auto;text-rendering:auto;enable-background:accumulate"
       d="m 20.761625,2.836345 -0.012,0.017 v 0.011 c -3.10155,0 -6.0144,0.785 -8.55323,2.1694 -0.25387,0.1386 -0.50377,0.2835 -0.75,0.4336 -0.24547,0.1499 -0.48615,0.3047 -0.72367,0.4658 -0.0495,0.034 -0.0972,0.071 -0.14648,0.1055 -0.18742,0.13 -0.3744,0.2599 -0.55665,0.397 -0.0105,0.01 -0.0202,0.016 -0.0307,0.023 -0.44497,0.3359 -0.8748,0.6926 -1.2861,1.0679 -0.0728,0.067 -0.14205,0.1373 -0.2139,0.2051 -0.14025,0.1323 -0.28155,0.2632 -0.41745,0.3999 -0.20235,0.2037 -0.3993,0.4124 -0.59182,0.6255 -0.18945,0.2099 -0.37425,0.4244 -0.55373,0.643 -0.0547,0.067 -0.10567,0.1374 -0.1596,0.2052 -0.12817,0.1608 -0.25822,0.321 -0.38092,0.4863 -0.68655,0.9249 -1.28655,1.9194 -1.78853,2.9706 -1.12935,2.3658 -1.76077,5.0202 -1.76077,7.8297 v 29.9428 c 0.00907,396.801305 0,0 0.00907,396.801305 -0.0105,404.08 0.0105,249.2257 -0.0105,377.1108 v 26.9692 8.4449 c 0.1509,5.6164 2.5428,10.2082 6.31635,13.4194 3.42945,2.9182 7.9998,4.6829 13.04445,5.0669 h 412.135355 0.038 22.5308 c 79.2849,-0.7079 143.199,-65.2381 143.25,-144.5244 h 0.01 l -0.01,-0.012 c 0,3e-4 0,0 0.01,0 0.01,0 0.016,0.012 0.016,0.012 v -0.012 -0.019 -0.1831 -4.2686 c 3e-4,-3.0645 6e-4,-7.6362 0,-13.5234 0,-11.7744 0,-28.81 0.016,-49.5571 0,-37.6508 0.011,-89.2939 0.015,-142.166 h 0.5771 c -0.0895,-0.93142 -0.13448,-1.86659 -0.1347,-2.8023 1.5e-4,-16.21657 13.14623,-29.36265 29.3628,-29.3628 16.21657,1.5e-4 29.36265,13.14623 29.3628,29.3628 2.4e-4,0.93569 -0.0442,1.87086 -0.1333,2.8023 h 0.4423 c 0.03,173.6446 0.067,335.2309 0.067,335.2309 0.081,10.1867 9.3678,18.2937 19.5528,19.0606 h 3.205 c 5.2079,-0.3166 9.9291,-2.1089 13.4517,-5.1065 3.7736,-3.2112 6.1656,-7.8031 6.3164,-13.4194 v -8.4448 -26.9692 c -0.025,-163.2096 -0.023,-322.3878 -0.014,-481.2759 v -14.5752 -0.037 c 0.01,-91.0806 0.011,-182.1824 0.014,-275.720205 v -32.2471 c 0,-4.0579 -1.3179,-7.7938 -3.5493,-10.8003 -0.1716,-0.2311 -0.3495,-0.4587 -0.5317,-0.6811 -0.1823,-0.2225 -0.3701,-0.4401 -0.5625,-0.6534 -0.1925,-0.2131 -0.3894,-0.4217 -0.5918,-0.6254 -0.1359,-0.1367 -0.2774,-0.2676 -0.4176,-0.3999 -0.072,-0.068 -0.1407,-0.1383 -0.2138,-0.2051 -0.4203,-0.3835 -0.8599,-0.7475 -1.3154,-1.0898 -0.4596,-0.3456 -0.9359,-0.6692 -1.4282,-0.9698 -0.2463,-0.1501 -0.4962,-0.295 -0.75,-0.4336 -0.3174,-0.1731 -0.6411,-0.3367 -0.9698,-0.4907 -0.3129,-0.1465 -0.6312,-0.2829 -0.9536,-0.4116 -0.033,-0.013 -0.067,-0.026 -0.1,-0.038 -0.3113,-0.1221 -0.6266,-0.2367 -0.9463,-0.3414 -0.012,-0.01 -0.023,-0.011 -0.035,-0.015 -0.01,0 -0.01,-3e-4 -0.015,-0.01 -0.6819,-0.2213 -1.3822,-0.4017 -2.0977,-0.5405 -0.042,-0.01 -0.084,-0.015 -0.1259,-0.022 -0.3041,-0.057 -0.6108,-0.1053 -0.92,-0.1465 -0.068,-0.01 -0.1356,-0.016 -0.2036,-0.025 -0.3387,-0.041 -0.6809,-0.076 -1.0254,-0.098 0,-2e-4 -0.011,0 -0.011,0 -0.3805,-0.024 -0.7633,-0.037 -1.15,-0.037 v -0.011 l -110.6015,-0.01 H 352.5588 Z m 46.35352,439.760705 c 0.9783,6e-4 1.95675,0.031 2.93265,0.098 v 0.016 c 7.7448,0.582 13.73438,7.0342 13.73438,14.8008 v 0.019 h 0.0247 c 0.0218,8.2008 6.67545,14.8374 14.87835,14.8374 8.200975,0 14.850675,-6.6384 14.872575,-14.8374 h 0.028 v -0.019 c 3e-4,-8.1991 6.6455,-14.8459 14.8447,-14.8462 8.1991,3e-4 14.8459,6.6471 14.8462,14.8462 v 0.015 h 0.028 c 0.022,8.1999 6.6735,14.8385 14.8755,14.8388 8.201,0 14.852,-6.6401 14.8741,-14.8388 h 0.023 v -0.016 c 3e-4,-8.1993 6.647,-14.8461 14.8462,-14.8462 8.1991,1e-4 14.8458,6.6469 14.8461,14.8462 v 0.016 h 0.026 c 0.022,8.1999 6.6737,14.8371 14.8755,14.8374 8.202,-3e-4 14.855,-6.6375 14.8769,-14.8374 h 0.019 v -0.018 c 3e-4,-8.2 6.6477,-14.8458 14.8476,-14.8447 8.1991,10e-5 14.8443,6.6456 14.8448,14.8447 v 0.016 h 0.029 c 0.022,8.1999 6.6739,14.8371 14.8756,14.8374 8.2011,0 14.8521,-6.6385 14.874,-14.8374 h 0.028 v -0.017 c 3e-4,-8.1992 6.6428,-14.8462 14.8418,-14.8462 8.1993,0 14.8459,6.647 14.8461,14.8462 v 0.014 h 0.028 c 0.022,8.1999 6.6705,14.8371 14.8725,14.8374 8.201,0 14.8534,-6.6385 14.8756,-14.8374 h 0.028 v -0.016 c 2e-4,-8.199 6.647,-14.8473 14.8461,-14.8476 8.2002,0 14.8472,6.6477 14.8477,14.8476 v 0.015 h 0.026 c 0.022,8.2009 6.674,14.8374 14.8769,14.8374 8.2009,0 14.8507,-6.6385 14.8726,-14.8374 h 0.029 v -0.02 c 2e-4,-8.1991 6.6455,-14.8474 14.8448,-14.8477 8.199,3e-4 14.8458,6.6486 14.8461,14.8477 v 0.017 h 0.029 c 0.022,8.1999 6.6736,14.84 14.8755,14.8403 8.2009,0 14.8507,-6.6414 14.8726,-14.8403 h 0.029 v -0.022 c 2e-4,-2.0858 0.4473,-4.0609 1.2261,-5.8594 2.436,-3.8214 6.5679,-6.4737 11.395,-6.8364 v -0.015 c 0.976,-0.066 1.9543,-0.098 2.9326,-0.098 23.6646,0 42.8496,19.1835 42.8496,42.8481 -0.016,0.5583 -0.044,1.1175 -0.082,1.6744 0,0.054 0,0.1086 0.01,0.1626 0,3.37 -1.1358,6.468 -3.0278,8.9604 -1.1677,0.7398 -2.3716,1.3884 -3.605,1.9219 -1.8825,1.0238 -4.0054,1.6431 -6.2579,1.7666 -0.8415,0.1161 -1.6847,0.1906 -2.5238,0.2095 h -0.2022 c -7.3078,0.9456 -12.9531,7.188 -12.9522,14.751 0,8.2018 6.642,14.852 14.8419,14.8725 v 0.028 h 0.022 c 8.1992,3e-4 14.8458,6.6471 14.8461,14.8463 -5e-4,8.1991 -6.6469,14.8443 -14.8461,14.8447 h -0.022 v 0.026 c -8.2009,0.02 -14.8416,6.6713 -14.8419,14.874 0,8.202 6.642,14.8548 14.8419,14.8755 v 0.028 h 0.022 c 8.1983,0 14.8442,6.6477 14.8447,14.8461 0,8.1999 -6.646,14.8489 -14.8462,14.8492 h -0.022 v 0.019 c -8.2008,0.02 -14.8415,6.6727 -14.8418,14.8754 3e-4,8.2029 6.641,14.8563 14.8418,14.877 v 0.028 h 0.022 c 8.1992,0 14.8439,6.6482 14.8433,14.8477 -3e-4,8.199 -6.6457,14.8459 -14.8447,14.8462 h -0.022 v 0.026 c -8.2008,0.021 -14.8415,6.6712 -14.8418,14.8741 0,8.2017 6.642,14.8532 14.8418,14.874 v 0.031 h 0.022 c 8.199,3e-4 14.8443,6.6471 14.8447,14.8461 -0.01,7.8366 -6.1091,14.3159 -13.9307,14.7994 -0.9639,-0.066 -1.9282,-0.1017 -2.8945,-0.1026 -23.6835,-10e-5 -42.8836,19.2013 -42.8833,42.8848 0.015,0.9777 0.063,1.9538 0.145,2.9282 -0.5169,7.8002 -6.9939,13.8648 -14.811,13.8648 -8.1993,-3e-4 -14.8459,-6.6457 -14.8462,-14.8447 v -0.022 h -0.025 c -0.021,-8.2008 -6.674,-14.8415 -14.8769,-14.8418 -8.2017,0 -14.8516,6.6419 -14.8726,14.8418 h -0.032 v 0.022 c -4e-4,8.199 -6.647,14.8458 -14.8462,14.8461 -8.1999,0 -14.8474,-6.6462 -14.8477,-14.8461 v -0.023 h -0.022 c -0.021,-8.2017 -6.6746,-14.8417 -14.8784,-14.8417 -8.2018,0 -14.8515,6.6418 -14.8726,14.8417 h -0.028 v 0.023 c -3e-4,8.199 -6.6469,14.8458 -14.8461,14.8461 -8.1991,-3e-4 -14.8459,-6.6471 -14.8462,-14.8461 v -0.023 h -0.026 c -0.02,-8.2008 -6.6741,-14.8414 -14.8769,-14.8417 -8.2019,0 -14.8516,6.6418 -14.8726,14.8417 h -0.028 v 0.017 c -3e-4,8.199 -6.6456,14.8488 -14.8448,14.8491 -8.1991,-3e-4 -14.8457,-6.6501 -14.8461,-14.8491 v -0.017 h -0.017 c -0.02,-8.2008 -6.6726,-14.8414 -14.8755,-14.8417 -8.2026,3e-4 -14.8559,6.6409 -14.8769,14.8417 h -0.026 v 0.017 c -3e-4,8.1999 -6.6507,14.847 -14.8506,14.8461 -8.1993,-3e-4 -14.8444,-6.6471 -14.8447,-14.8461 v -0.017 h -0.025 c -0.021,-8.2008 -6.6726,-14.8414 -14.8755,-14.8417 -8.2017,0 -14.8545,6.6418 -14.8755,14.8417 h -0.025 v 0.017 c -3e-4,8.199 -6.6471,14.8458 -14.8461,14.8461 -8.1993,-3e-4 -14.8445,-6.6471 -14.8448,-14.8461 v -0.017 h -0.026 c -0.021,-8.2008 -6.6714,-14.8414 -14.874,-14.8417 -8.202,0 -14.853,6.6418 -14.874,14.8417 h -0.032 v 0.017 c -3e-4,8.199 -6.6486,14.8458 -14.847675,14.8461 l 0.0308,0.044 c -8.1312,0 -14.7444,-6.5474 -14.8374,-14.6777 0.0443,-0.7308 0.066,-1.4639 0.0762,-2.1959 2.2e-4,-23.6835 -19.19828,-42.8819 -42.88185,-42.8818 -1.06223,0.014 -2.1234,0.066 -3.18165,0.1582 -7.66268,-0.6722 -13.53968,-7.085 -13.5498,-14.7773 3e-4,-8.1992 6.6471,-14.846 14.84625,-14.8462 h 0.0217 v -0.025 c 8.1999,-0.022 14.83852,-6.6737 14.83882,-14.8755 0,-8.2008 -6.64005,-14.8536 -14.83882,-14.8755 v -0.028 l -0.0203,0.013 c -8.19923,-3e-4 -14.8443,-6.6456 -14.84475,-14.8446 0,-8.2002 6.64462,-14.8474 14.84475,-14.8477 h 0.0233 v -0.023 c 8.2008,-0.022 14.84032,-6.6755 14.84032,-14.8784 0,-8.2008 -6.64147,-14.8522 -14.84032,-14.8741 v -0.025 h -0.0203 c -8.20005,-3e-4 -14.84708,-6.6476 -14.84618,-14.8476 4.5e-4,-8.1992 6.64703,-14.8457 14.84618,-14.8463 h 0.0217 v -0.026 c 8.1999,-0.022 14.84002,-6.6736 14.84032,-14.8755 0,-8.2008 -6.64162,-14.8507 -14.84032,-14.8726 v -0.031 h -0.0188 c -8.19923,-3e-4 -14.84738,-6.6471 -14.84768,-14.8462 3e-4,-8.1992 6.6486,-14.8445 14.84768,-14.8448 h 0.0188 v -0.026 c 8.1999,-0.022 14.84002,-6.6751 14.84032,-14.877 -6e-4,-8.2017 -6.64065,-14.8521 -14.84032,-14.874 v -0.025 h -0.0188 c -8.1993,-3e-4 -14.84753,-6.6501 -14.84768,-14.8491 0.01,-0.054 0.012,-0.1086 0.012,-0.1626 -0.0383,-0.5573 -0.066,-1.116 -0.0821,-1.6743 0,-23.6648 19.18493,-42.8472 42.8496,-42.8481 z" /></g><g
     inkscape:groupmode="layer"
     id="layer1"
     inkscape:label="Bird Layer - Delete" /><g
     inkscape:groupmode="layer"
     id="layer11"
     inkscape:label="Your Design" /></svg>
