<?xml version="1.0" encoding="UTF-8" standalone="no"?>
<svg
   version="1.1"
   inkscape:output_extension="org.inkscape.output.svg.inkscape"
   sodipodi:docname="SpeakerLayerEvenHalf.svg"
   inkscape:version="1.3 (0e150ed6c4, 2023-07-21)"
   sodipodi:version="0.32"
   id="svg2338"
   xml:space="preserve"
   viewBox="0 0 1116.852 1116.85"
   height="1116.85pt"
   width="1116.852pt"
   xmlns:inkscape="http://www.inkscape.org/namespaces/inkscape"
   xmlns:sodipodi="http://sodipodi.sourceforge.net/DTD/sodipodi-0.dtd"
   xmlns="http://www.w3.org/2000/svg"
   xmlns:svg="http://www.w3.org/2000/svg"
   xmlns:rdf="http://www.w3.org/1999/02/22-rdf-syntax-ns#"
   xmlns:cc="http://creativecommons.org/ns#"
   xmlns:dc="http://purl.org/dc/elements/1.1/"><metadata
     id="metadata2382"><rdf:RDF><cc:Work
         rdf:about=""><dc:format>image/svg+xml</dc:format><dc:type
           rdf:resource="http://purl.org/dc/dcmitype/StillImage" /></cc:Work></rdf:RDF></metadata><defs
     id="defs2380"><inkscape:perspective
       id="perspective46224"
       inkscape:persp3d-origin="698.03253 : 465.35417 : 1"
       inkscape:vp_z="1396.0651 : 698.03125 : 1"
       inkscape:vp_y="0 : 1000 : 0"
       inkscape:vp_x="0 : 698.03125 : 1"
       sodipodi:type="inkscape:persp3d" /><inkscape:perspective
       id="perspective37556-9"
       inkscape:persp3d-origin="338.38562 : 225.59001 : 1"
       inkscape:vp_z="676.77124 : 338.38501 : 1"
       inkscape:vp_y="0 : 1000 : 0"
       inkscape:vp_x="0 : 338.38501 : 1"
       sodipodi:type="inkscape:persp3d" /><inkscape:perspective
       id="perspective16301-9"
       inkscape:persp3d-origin="338.38562 : 225.59001 : 1"
       inkscape:vp_z="676.77124 : 338.38501 : 1"
       inkscape:vp_y="0 : 1000 : 0"
       inkscape:vp_x="0 : 338.38501 : 1"
       sodipodi:type="inkscape:persp3d" /><inkscape:perspective
       id="perspective12409-1"
       inkscape:persp3d-origin="270.7085 : 180.47233 : 1"
       inkscape:vp_z="541.41699 : 270.7085 : 1"
       inkscape:vp_y="0 : 1000 : 0"
       inkscape:vp_x="0 : 270.7085 : 1"
       sodipodi:type="inkscape:persp3d" /><inkscape:perspective
       id="perspective9337-7"
       inkscape:persp3d-origin="0.5 : 0.33333333 : 1"
       inkscape:vp_z="1 : 0.5 : 1"
       inkscape:vp_y="0 : 1000 : 0"
       inkscape:vp_x="0 : 0.5 : 1"
       sodipodi:type="inkscape:persp3d" /><inkscape:perspective
       id="perspective8562-2"
       inkscape:persp3d-origin="0.5 : 0.33333333 : 1"
       inkscape:vp_z="1 : 0.5 : 1"
       inkscape:vp_y="0 : 1000 : 0"
       inkscape:vp_x="0 : 0.5 : 1"
       sodipodi:type="inkscape:persp3d" /><inkscape:perspective
       sodipodi:type="inkscape:persp3d"
       inkscape:vp_x="0 : 338.38501 : 1"
       inkscape:vp_y="0 : 1000 : 0"
       inkscape:vp_z="676.77124 : 338.38501 : 1"
       inkscape:persp3d-origin="338.38562 : 225.59001 : 1"
       id="perspective3083-3" /><inkscape:perspective
       sodipodi:type="inkscape:persp3d"
       inkscape:vp_x="0 : 270.7085 : 1"
       inkscape:vp_y="0 : 1000 : 0"
       inkscape:vp_z="541.41699 : 270.7085 : 1"
       inkscape:persp3d-origin="270.7085 : 180.47233 : 1"
       id="perspective23419-6" /><inkscape:perspective
       sodipodi:type="inkscape:persp3d"
       inkscape:vp_x="0 : 338.38501 : 1"
       inkscape:vp_y="0 : 1000 : 0"
       inkscape:vp_z="676.77124 : 338.38501 : 1"
       inkscape:persp3d-origin="338.38562 : 225.59001 : 1"
       id="perspective27913-5" /><inkscape:perspective
       id="perspective27913"
       inkscape:persp3d-origin="338.38562 : 225.59001 : 1"
       inkscape:vp_z="676.77124 : 338.38501 : 1"
       inkscape:vp_y="0 : 1000 : 0"
       inkscape:vp_x="0 : 338.38501 : 1"
       sodipodi:type="inkscape:persp3d" /><inkscape:perspective
       id="perspective23419"
       inkscape:persp3d-origin="270.7085 : 180.47233 : 1"
       inkscape:vp_z="541.41699 : 270.7085 : 1"
       inkscape:vp_y="0 : 1000 : 0"
       inkscape:vp_x="0 : 270.7085 : 1"
       sodipodi:type="inkscape:persp3d" /><inkscape:perspective
       id="perspective3083"
       inkscape:persp3d-origin="338.38562 : 225.59001 : 1"
       inkscape:vp_z="676.77124 : 338.38501 : 1"
       inkscape:vp_y="0 : 1000 : 0"
       inkscape:vp_x="0 : 338.38501 : 1"
       sodipodi:type="inkscape:persp3d" /><inkscape:perspective
       sodipodi:type="inkscape:persp3d"
       inkscape:vp_x="0 : 0.5 : 1"
       inkscape:vp_y="0 : 1000 : 0"
       inkscape:vp_z="1 : 0.5 : 1"
       inkscape:persp3d-origin="0.5 : 0.33333333 : 1"
       id="perspective8562" /><inkscape:perspective
       sodipodi:type="inkscape:persp3d"
       inkscape:vp_x="0 : 0.5 : 1"
       inkscape:vp_y="0 : 1000 : 0"
       inkscape:vp_z="1 : 0.5 : 1"
       inkscape:persp3d-origin="0.5 : 0.33333333 : 1"
       id="perspective9337" /><inkscape:perspective
       sodipodi:type="inkscape:persp3d"
       inkscape:vp_x="0 : 270.7085 : 1"
       inkscape:vp_y="0 : 1000 : 0"
       inkscape:vp_z="541.41699 : 270.7085 : 1"
       inkscape:persp3d-origin="270.7085 : 180.47233 : 1"
       id="perspective12409" /><inkscape:perspective
       sodipodi:type="inkscape:persp3d"
       inkscape:vp_x="0 : 338.38501 : 1"
       inkscape:vp_y="0 : 1000 : 0"
       inkscape:vp_z="676.77124 : 338.38501 : 1"
       inkscape:persp3d-origin="338.38562 : 225.59001 : 1"
       id="perspective16301" /><inkscape:perspective
       sodipodi:type="inkscape:persp3d"
       inkscape:vp_x="0 : 338.38501 : 1"
       inkscape:vp_y="0 : 1000 : 0"
       inkscape:vp_z="676.77124 : 338.38501 : 1"
       inkscape:persp3d-origin="338.38562 : 225.59001 : 1"
       id="perspective37556" /><inkscape:perspective
       sodipodi:type="inkscape:persp3d"
       inkscape:vp_x="0 : 270.70999 : 1"
       inkscape:vp_y="0 : 1000 : 0"
       inkscape:vp_z="541.41998 : 270.70999 : 1"
       inkscape:persp3d-origin="270.70999 : 180.47333 : 1"
       id="perspective51446" /><inkscape:perspective
       id="perspective37556-9-8"
       inkscape:persp3d-origin="338.38562 : 225.59001 : 1"
       inkscape:vp_z="676.77124 : 338.38501 : 1"
       inkscape:vp_y="0 : 1000 : 0"
       inkscape:vp_x="0 : 338.38501 : 1"
       sodipodi:type="inkscape:persp3d" /><inkscape:perspective
       id="perspective16301-9-1"
       inkscape:persp3d-origin="338.38562 : 225.59001 : 1"
       inkscape:vp_z="676.77124 : 338.38501 : 1"
       inkscape:vp_y="0 : 1000 : 0"
       inkscape:vp_x="0 : 338.38501 : 1"
       sodipodi:type="inkscape:persp3d" /><inkscape:perspective
       id="perspective12409-1-2"
       inkscape:persp3d-origin="270.7085 : 180.47233 : 1"
       inkscape:vp_z="541.41699 : 270.7085 : 1"
       inkscape:vp_y="0 : 1000 : 0"
       inkscape:vp_x="0 : 270.7085 : 1"
       sodipodi:type="inkscape:persp3d" /><inkscape:perspective
       id="perspective9337-7-0"
       inkscape:persp3d-origin="0.5 : 0.33333333 : 1"
       inkscape:vp_z="1 : 0.5 : 1"
       inkscape:vp_y="0 : 1000 : 0"
       inkscape:vp_x="0 : 0.5 : 1"
       sodipodi:type="inkscape:persp3d" /><inkscape:perspective
       id="perspective8562-2-5"
       inkscape:persp3d-origin="0.5 : 0.33333333 : 1"
       inkscape:vp_z="1 : 0.5 : 1"
       inkscape:vp_y="0 : 1000 : 0"
       inkscape:vp_x="0 : 0.5 : 1"
       sodipodi:type="inkscape:persp3d" /><inkscape:perspective
       sodipodi:type="inkscape:persp3d"
       inkscape:vp_x="0 : 338.38501 : 1"
       inkscape:vp_y="0 : 1000 : 0"
       inkscape:vp_z="676.77124 : 338.38501 : 1"
       inkscape:persp3d-origin="338.38562 : 225.59001 : 1"
       id="perspective3083-3-7" /><inkscape:perspective
       sodipodi:type="inkscape:persp3d"
       inkscape:vp_x="0 : 270.7085 : 1"
       inkscape:vp_y="0 : 1000 : 0"
       inkscape:vp_z="541.41699 : 270.7085 : 1"
       inkscape:persp3d-origin="270.7085 : 180.47233 : 1"
       id="perspective23419-6-3" /><inkscape:perspective
       sodipodi:type="inkscape:persp3d"
       inkscape:vp_x="0 : 338.38501 : 1"
       inkscape:vp_y="0 : 1000 : 0"
       inkscape:vp_z="676.77124 : 338.38501 : 1"
       inkscape:persp3d-origin="338.38562 : 225.59001 : 1"
       id="perspective27913-5-7" /><inkscape:perspective
       id="perspective27913-9"
       inkscape:persp3d-origin="338.38562 : 225.59001 : 1"
       inkscape:vp_z="676.77124 : 338.38501 : 1"
       inkscape:vp_y="0 : 1000 : 0"
       inkscape:vp_x="0 : 338.38501 : 1"
       sodipodi:type="inkscape:persp3d" /><inkscape:perspective
       id="perspective23419-3"
       inkscape:persp3d-origin="270.7085 : 180.47233 : 1"
       inkscape:vp_z="541.41699 : 270.7085 : 1"
       inkscape:vp_y="0 : 1000 : 0"
       inkscape:vp_x="0 : 270.7085 : 1"
       sodipodi:type="inkscape:persp3d" /><inkscape:perspective
       id="perspective3083-1"
       inkscape:persp3d-origin="338.38562 : 225.59001 : 1"
       inkscape:vp_z="676.77124 : 338.38501 : 1"
       inkscape:vp_y="0 : 1000 : 0"
       inkscape:vp_x="0 : 338.38501 : 1"
       sodipodi:type="inkscape:persp3d" /><inkscape:perspective
       sodipodi:type="inkscape:persp3d"
       inkscape:vp_x="0 : 0.5 : 1"
       inkscape:vp_y="0 : 1000 : 0"
       inkscape:vp_z="1 : 0.5 : 1"
       inkscape:persp3d-origin="0.5 : 0.33333333 : 1"
       id="perspective8562-25" /><inkscape:perspective
       sodipodi:type="inkscape:persp3d"
       inkscape:vp_x="0 : 0.5 : 1"
       inkscape:vp_y="0 : 1000 : 0"
       inkscape:vp_z="1 : 0.5 : 1"
       inkscape:persp3d-origin="0.5 : 0.33333333 : 1"
       id="perspective9337-6" /><inkscape:perspective
       sodipodi:type="inkscape:persp3d"
       inkscape:vp_x="0 : 270.7085 : 1"
       inkscape:vp_y="0 : 1000 : 0"
       inkscape:vp_z="541.41699 : 270.7085 : 1"
       inkscape:persp3d-origin="270.7085 : 180.47233 : 1"
       id="perspective12409-8" /><inkscape:perspective
       sodipodi:type="inkscape:persp3d"
       inkscape:vp_x="0 : 338.38501 : 1"
       inkscape:vp_y="0 : 1000 : 0"
       inkscape:vp_z="676.77124 : 338.38501 : 1"
       inkscape:persp3d-origin="338.38562 : 225.59001 : 1"
       id="perspective16301-5" /><inkscape:perspective
       sodipodi:type="inkscape:persp3d"
       inkscape:vp_x="0 : 338.38501 : 1"
       inkscape:vp_y="0 : 1000 : 0"
       inkscape:vp_z="676.77124 : 338.38501 : 1"
       inkscape:persp3d-origin="338.38562 : 225.59001 : 1"
       id="perspective37556-4" /><inkscape:perspective
       id="perspective37556-9-1"
       inkscape:persp3d-origin="338.38562 : 225.59001 : 1"
       inkscape:vp_z="676.77124 : 338.38501 : 1"
       inkscape:vp_y="0 : 1000 : 0"
       inkscape:vp_x="0 : 338.38501 : 1"
       sodipodi:type="inkscape:persp3d" /><inkscape:perspective
       id="perspective16301-9-3"
       inkscape:persp3d-origin="338.38562 : 225.59001 : 1"
       inkscape:vp_z="676.77124 : 338.38501 : 1"
       inkscape:vp_y="0 : 1000 : 0"
       inkscape:vp_x="0 : 338.38501 : 1"
       sodipodi:type="inkscape:persp3d" /><inkscape:perspective
       id="perspective12409-1-9"
       inkscape:persp3d-origin="270.7085 : 180.47233 : 1"
       inkscape:vp_z="541.41699 : 270.7085 : 1"
       inkscape:vp_y="0 : 1000 : 0"
       inkscape:vp_x="0 : 270.7085 : 1"
       sodipodi:type="inkscape:persp3d" /><inkscape:perspective
       id="perspective9337-7-1"
       inkscape:persp3d-origin="0.5 : 0.33333333 : 1"
       inkscape:vp_z="1 : 0.5 : 1"
       inkscape:vp_y="0 : 1000 : 0"
       inkscape:vp_x="0 : 0.5 : 1"
       sodipodi:type="inkscape:persp3d" /><inkscape:perspective
       id="perspective8562-2-7"
       inkscape:persp3d-origin="0.5 : 0.33333333 : 1"
       inkscape:vp_z="1 : 0.5 : 1"
       inkscape:vp_y="0 : 1000 : 0"
       inkscape:vp_x="0 : 0.5 : 1"
       sodipodi:type="inkscape:persp3d" /><inkscape:perspective
       sodipodi:type="inkscape:persp3d"
       inkscape:vp_x="0 : 338.38501 : 1"
       inkscape:vp_y="0 : 1000 : 0"
       inkscape:vp_z="676.77124 : 338.38501 : 1"
       inkscape:persp3d-origin="338.38562 : 225.59001 : 1"
       id="perspective3083-3-8" /><inkscape:perspective
       sodipodi:type="inkscape:persp3d"
       inkscape:vp_x="0 : 270.7085 : 1"
       inkscape:vp_y="0 : 1000 : 0"
       inkscape:vp_z="541.41699 : 270.7085 : 1"
       inkscape:persp3d-origin="270.7085 : 180.47233 : 1"
       id="perspective23419-6-8" /><inkscape:perspective
       sodipodi:type="inkscape:persp3d"
       inkscape:vp_x="0 : 338.38501 : 1"
       inkscape:vp_y="0 : 1000 : 0"
       inkscape:vp_z="676.77124 : 338.38501 : 1"
       inkscape:persp3d-origin="338.38562 : 225.59001 : 1"
       id="perspective27913-5-4" /><inkscape:perspective
       id="perspective27913-1"
       inkscape:persp3d-origin="338.38562 : 225.59001 : 1"
       inkscape:vp_z="676.77124 : 338.38501 : 1"
       inkscape:vp_y="0 : 1000 : 0"
       inkscape:vp_x="0 : 338.38501 : 1"
       sodipodi:type="inkscape:persp3d" /><inkscape:perspective
       id="perspective23419-9"
       inkscape:persp3d-origin="270.7085 : 180.47233 : 1"
       inkscape:vp_z="541.41699 : 270.7085 : 1"
       inkscape:vp_y="0 : 1000 : 0"
       inkscape:vp_x="0 : 270.7085 : 1"
       sodipodi:type="inkscape:persp3d" /><inkscape:perspective
       id="perspective3083-8"
       inkscape:persp3d-origin="338.38562 : 225.59001 : 1"
       inkscape:vp_z="676.77124 : 338.38501 : 1"
       inkscape:vp_y="0 : 1000 : 0"
       inkscape:vp_x="0 : 338.38501 : 1"
       sodipodi:type="inkscape:persp3d" /><inkscape:perspective
       sodipodi:type="inkscape:persp3d"
       inkscape:vp_x="0 : 0.5 : 1"
       inkscape:vp_y="0 : 1000 : 0"
       inkscape:vp_z="1 : 0.5 : 1"
       inkscape:persp3d-origin="0.5 : 0.33333333 : 1"
       id="perspective8562-6" /><inkscape:perspective
       sodipodi:type="inkscape:persp3d"
       inkscape:vp_x="0 : 0.5 : 1"
       inkscape:vp_y="0 : 1000 : 0"
       inkscape:vp_z="1 : 0.5 : 1"
       inkscape:persp3d-origin="0.5 : 0.33333333 : 1"
       id="perspective9337-2" /><inkscape:perspective
       sodipodi:type="inkscape:persp3d"
       inkscape:vp_x="0 : 270.7085 : 1"
       inkscape:vp_y="0 : 1000 : 0"
       inkscape:vp_z="541.41699 : 270.7085 : 1"
       inkscape:persp3d-origin="270.7085 : 180.47233 : 1"
       id="perspective12409-3" /><inkscape:perspective
       sodipodi:type="inkscape:persp3d"
       inkscape:vp_x="0 : 338.38501 : 1"
       inkscape:vp_y="0 : 1000 : 0"
       inkscape:vp_z="676.77124 : 338.38501 : 1"
       inkscape:persp3d-origin="338.38562 : 225.59001 : 1"
       id="perspective16301-56" /><inkscape:perspective
       sodipodi:type="inkscape:persp3d"
       inkscape:vp_x="0 : 338.38501 : 1"
       inkscape:vp_y="0 : 1000 : 0"
       inkscape:vp_z="676.77124 : 338.38501 : 1"
       inkscape:persp3d-origin="338.38562 : 225.59001 : 1"
       id="perspective37556-5" /><inkscape:perspective
       sodipodi:type="inkscape:persp3d"
       inkscape:vp_x="0 : 0.5 : 1"
       inkscape:vp_y="0 : 1000 : 0"
       inkscape:vp_z="1 : 0.5 : 1"
       inkscape:persp3d-origin="0.5 : 0.33333333 : 1"
       id="perspective10328" /><inkscape:perspective
       sodipodi:type="inkscape:persp3d"
       inkscape:vp_x="0 : 0.5 : 1"
       inkscape:vp_y="0 : 1000 : 0"
       inkscape:vp_z="1 : 0.5 : 1"
       inkscape:persp3d-origin="0.5 : 0.33333333 : 1"
       id="perspective11034" /><inkscape:perspective
       sodipodi:type="inkscape:persp3d"
       inkscape:vp_x="0 : 0.5 : 1"
       inkscape:vp_y="0 : 1000 : 0"
       inkscape:vp_z="1 : 0.5 : 1"
       inkscape:persp3d-origin="0.5 : 0.33333333 : 1"
       id="perspective3083-7" /><inkscape:perspective
       sodipodi:type="inkscape:persp3d"
       inkscape:vp_x="0 : 0.5 : 1"
       inkscape:vp_y="0 : 1000 : 0"
       inkscape:vp_z="1 : 0.5 : 1"
       inkscape:persp3d-origin="0.5 : 0.33333333 : 1"
       id="perspective2997" /></defs><sodipodi:namedview
     showguides="false"
     inkscape:document-rotation="0"
     inkscape:document-units="mm"
     inkscape:window-maximized="1"
     showgrid="false"
     inkscape:current-layer="layer10"
     inkscape:window-y="968"
     inkscape:window-x="4792"
     inkscape:cy="581.99998"
     inkscape:cx="706.99998"
     inkscape:zoom="0.50000001"
     id="base"
     pagecolor="#ffffff"
     bordercolor="#666666"
     borderopacity="1.0"
     objecttolerance="10.0"
     gridtolerance="10.0"
     guidetolerance="10.0"
     inkscape:pageopacity="0.0"
     inkscape:pageshadow="2"
     inkscape:window-width="1920"
     inkscape:window-height="992"
     inkscape:pagecheckerboard="0"
     inkscape:showpageshadow="2"
     inkscape:deskcolor="#d1d1d1" /><g
     inkscape:label="Design Template"
     id="layer10"
     inkscape:groupmode="layer"><path
       id="path6473"
       style="color:#000000;font-style:normal;font-variant:normal;font-weight:normal;font-stretch:normal;font-size:medium;line-height:normal;font-family:sans-serif;text-indent:0;text-align:start;text-decoration:none;text-decoration-line:none;text-decoration-style:solid;text-decoration-color:#000000;letter-spacing:normal;word-spacing:normal;text-transform:none;writing-mode:lr-tb;direction:ltr;baseline-shift:baseline;text-anchor:start;white-space:normal;clip-rule:nonzero;display:inline;overflow:visible;visibility:visible;opacity:1;isolation:auto;mix-blend-mode:normal;color-interpolation:sRGB;color-interpolation-filters:linearRGB;solid-color:#000000;solid-opacity:1;fill:#947629;fill-opacity:0.35050505;fill-rule:nonzero;stroke:none;stroke-width:2.8346456;stroke-linecap:butt;stroke-linejoin:miter;stroke-miterlimit:4;stroke-dasharray:none;stroke-dashoffset:0;stroke-opacity:1;color-rendering:auto;image-rendering:auto;shape-rendering:auto;text-rendering:auto;enable-background:accumulate"
       d="M 19.369628 1.4179687 L 19.35205 1.4208984 L 19.349121 1.4311523 C 16.244484 1.4311523 13.329933 2.2160814 10.788574 3.6005858 C 10.534443 3.7390454 10.283583 3.88395 10.037109 4.0341796 C 9.7914172 4.1841188 9.5512005 4.3387403 9.3134763 4.4999999 C 9.2638264 4.5337999 9.2147523 4.5697139 9.1655271 4.6040038 C 8.9778629 4.7340634 8.7912467 4.8654017 8.6088865 5.0024413 C 8.5985765 5.0094413 8.5884348 5.0184788 8.5781248 5.0258788 C 8.1327062 5.3618172 7.7022222 5.7183614 7.2905272 6.0937498 L 7.2890623 6.0937498 C 7.2159591 6.1605499 7.1471262 6.231028 7.0751951 6.298828 C 6.9348372 6.4311372 6.7922738 6.5620007 6.6562498 6.6987303 C 6.4536603 6.9024395 6.2571527 7.1109894 6.064453 7.3242186 C 5.8748465 7.5340078 5.6904192 7.7486558 5.510742 7.967285 C 5.4557884 8.0339846 5.4050571 8.1046231 5.3510741 8.1723631 C 5.2227978 8.3331723 5.091571 8.493382 4.9687499 8.6586912 C 4.2815034 9.5837976 3.6811255 10.577988 3.1787109 11.629394 C 2.7571558 12.51161 2.4044194 13.435009 2.1284179 14.390625 C 2.1244179 14.404725 2.1203982 14.41755 2.1166992 14.43164 C 2.0349182 14.71747 1.9620301 15.007268 1.8940429 15.298828 C 1.8818309 15.351528 1.8691328 15.404101 1.8574218 15.457031 C 1.7986639 15.719871 1.7465355 15.986776 1.6992187 16.253906 C 1.6881077 16.317006 1.6759373 16.379601 1.6655273 16.442871 C 1.6245863 16.688977 1.5909482 16.937575 1.5600586 17.187011 C 1.5485476 17.280711 1.5350123 17.374061 1.5249023 17.468261 C 1.5010783 17.688451 1.4852542 17.910754 1.4692382 18.1333 C 1.4612283 18.24521 1.4502419 18.35626 1.4443359 18.46875 C 1.4323239 18.694326 1.4290969 18.922132 1.4252929 19.149902 C 1.4242929 19.245902 1.4179687 19.340641 1.4179687 19.437011 L 1.4179687 80.301267 C 1.4199687 163.71212 1.4249885 245.82378 1.4296875 327.47314 L 1.4296875 327.48339 C 1.4445024 336.27458 5.2420588 345.63019 12.625488 353.00683 L 35.085937 375.44384 C 38.320457 378.71356 40.091607 383.15376 39.997558 387.74999 C 39.909468 392.07835 38.173005 396.20974 35.141601 399.30321 L 12.625488 421.80028 C 5.0085189 429.41221 1.2077126 439.12964 1.4399414 448.16014 L 1.4399414 448.166 L 1.4399414 448.16893 L 1.4370117 448.16893 L 1.4355468 448.17186 L 1.4355468 448.17333 L 1.434082 448.17333 L 1.4326172 448.17333 L 1.4296875 448.17333 L 1.4267578 448.17626 C 1.4297578 554.10487 1.4309787 660.29617 1.4179687 768.26805 L 1.4179687 823.36668 L 1.4208984 823.36668 L 1.4238281 823.36668 L 1.4252929 823.36668 L 1.4282226 823.36668 L 1.4282226 823.37547 L 1.4296875 823.37547 L 1.4296875 850.33885 L 1.4296875 858.80418 C 1.5856308 864.41224 3.9790088 868.99687 7.7519529 872.20457 C 11.277746 875.20193 16.004208 876.99578 21.216796 877.31248 L 108.13183 877.32273 L 433.38134 877.32273 L 433.38573 877.32273 L 433.3872 877.32273 L 433.39013 877.32273 L 433.39306 877.32273 L 433.39599 877.32273 L 433.39891 877.32273 L 433.40038 877.32273 L 433.43847 877.32273 L 455.9912 877.32273 C 457.76711 877.30693 459.49004 877.0914 461.24999 877.01218 L 461.24999 877.32273 L 582.74999 877.32273 L 661.49998 877.32273 L 683.24998 877.32273 L 683.24998 877.16599 C 683.30288 877.15999 683.35687 877.15598 683.40965 877.14988 C 683.64652 877.12088 683.88135 877.08627 684.11571 877.05027 C 684.46513 876.99727 684.8108 876.93932 685.15428 876.87302 C 685.4608 876.81402 685.76545 876.7483 686.06688 876.6782 C 686.32999 876.6172 686.59156 876.55091 686.85057 876.48191 C 687.2264 876.38141 687.5958 876.27255 687.96238 876.15525 C 688.19138 876.08225 688.41982 876.00507 688.645 875.92527 C 688.98896 875.80347 689.32853 875.67389 689.66307 875.53709 C 689.91015 875.43619 690.15531 875.33271 690.39696 875.22361 C 690.65042 875.10921 690.90264 874.99075 691.14988 874.86765 C 691.33726 874.77465 691.51847 874.67445 691.70213 874.57615 C 691.81712 874.51415 691.93434 874.45644 692.04783 874.39304 C 693.19077 873.75364 694.25763 873.01725 695.2324 872.18845 C 697.17982 870.53279 698.76075 868.51074 699.85692 866.17088 C 699.85892 866.17088 699.86078 866.16062 699.86278 866.16062 C 699.86678 866.15062 699.86973 866.14565 699.87303 866.13865 C 700.0014 865.86325 700.12157 865.58329 700.23631 865.29929 C 700.25211 865.26029 700.26622 865.22019 700.28172 865.18064 C 700.37912 864.93424 700.47162 864.68491 700.55858 864.43211 C 700.58848 864.34511 700.6164 864.2563 700.645 864.16844 C 700.7183 863.94404 700.78807 863.71795 700.85301 863.48875 C 700.87911 863.39575 700.90428 863.30236 700.92918 863.20896 C 700.98488 863.00006 701.03734 862.79031 701.08592 862.57761 C 701.11982 862.42851 701.15083 862.27754 701.18113 862.12644 C 701.21523 861.95754 701.24811 861.78788 701.27781 861.61668 C 701.30531 861.45698 701.33019 861.29644 701.35399 861.13474 C 701.37979 860.95934 701.403 860.78217 701.4243 860.60447 C 701.4454 860.42597 701.46503 860.24631 701.48143 860.06541 C 701.49513 859.91571 701.50618 859.76544 701.51658 859.61424 C 701.53108 859.40054 701.54248 859.18504 701.55028 858.96824 C 701.55528 858.84704 701.55823 858.72549 701.56053 858.60349 L 701.56053 850.33445 L 701.56199 823.36228 L 701.56492 823.36228 L 701.56785 823.36228 L 701.57078 823.36228 C 701.52898 550.73516 701.57225 293.52059 701.57225 19.432617 C 701.57225 19.391817 701.56932 19.351827 701.56932 19.311035 C 701.56632 18.914565 701.54888 18.521665 701.52098 18.131835 C 701.51398 18.028709 701.50644 17.925403 701.49754 17.822753 C 701.45924 17.390067 701.40884 16.959797 701.3408 16.536621 C 701.3318 16.478221 701.31994 16.420474 701.31004 16.362304 C 701.23884 15.945138 701.15561 15.532646 701.05662 15.125976 C 701.04762 15.090376 701.04062 15.054496 701.03172 15.019043 C 700.92234 14.581223 700.7957 14.149832 700.65526 13.725586 C 700.64086 13.681986 700.62591 13.638696 700.61131 13.595214 C 700.46492 13.164078 700.30509 12.73925 700.12791 12.32373 C 699.94602 11.897164 699.74756 11.479955 699.53465 11.071289 C 699.52965 11.061189 699.5256 11.050627 699.52 11.040527 C 699.517 11.034527 699.51205 11.030014 699.50975 11.024414 C 699.2934 10.612094 699.06335 10.208367 698.81688 9.8159177 L 698.81688 9.8144529 C 698.56919 9.4169947 698.30336 9.0312499 698.0244 8.6557615 C 697.85258 8.4245123 697.6751 8.197088 697.49266 7.9746092 C 697.31022 7.75215 697.12139 7.5345381 696.92869 7.3212889 C 696.73599 7.1080697 696.5395 6.8995098 696.3369 6.6958006 C 696.20087 6.559061 696.05977 6.4282075 695.91942 6.2958983 C 695.84742 6.2275983 695.77718 6.1574898 695.70408 6.0908202 L 695.70262 6.0908202 C 695.28192 5.7072514 694.84161 5.3433652 694.38572 5.0009764 C 693.92568 4.655508 693.44898 4.3317987 692.95604 4.0312499 C 692.70958 3.8810203 692.46017 3.7361154 692.20604 3.5976562 C 689.66468 2.2131514 686.74864 1.4282226 683.64403 1.4282226 L 683.6411 1.4179687 L 683.62205 1.4179687 L 351.49657 1.4179687 L 19.369628 1.4179687 z M 97.359373 441.25341 L 97.362302 441.25487 L 97.362302 441.27977 C 105.56952 441.28009 112.22281 447.92783 112.22314 456.12743 L 112.22168 456.14794 C 112.22164 456.1486 112.22164 456.14987 112.22168 456.15087 C 112.22164 456.15153 112.22164 456.1528 112.22168 456.1538 L 112.22168 456.15526 L 112.22314 456.15526 C 112.2231 456.15592 112.2231 456.15866 112.22314 456.15966 L 112.22461 456.15966 C 112.22523 456.16038 112.22654 456.15941 112.22754 456.15966 L 112.22754 456.16259 L 112.229 456.16259 C 112.22896 456.16326 112.22896 456.16452 112.229 456.16552 C 112.22967 456.16555 112.23093 456.16555 112.23193 456.16552 L 112.23486 456.16552 L 112.26709 456.16552 C 112.28769 464.36584 118.94431 471.0057 127.15429 471.00731 C 135.36519 471.00699 142.02377 464.36676 142.04443 456.16552 L 142.0708 456.16552 C 142.07146 456.16555 142.07273 456.16555 142.07373 456.16552 L 142.07666 456.16552 C 142.07732 456.16555 142.07859 456.16555 142.07959 456.16552 C 142.08031 456.16491 142.07905 456.16359 142.07959 456.16259 L 142.08252 456.15966 C 142.08324 456.15904 142.08445 456.15991 142.08545 456.15966 L 142.08838 456.15966 C 142.08841 456.15898 142.08841 456.15626 142.08838 456.15526 L 142.08838 456.1538 C 142.08842 456.15313 142.08842 456.15187 142.08838 456.15087 L 142.08838 456.12743 C 142.0887 447.92783 148.74201 441.28008 156.94921 441.27977 C 165.15641 441.28008 171.8112 447.92782 171.81152 456.12743 L 171.81152 456.15087 C 171.81148 456.15153 171.81148 456.1528 171.81152 456.1538 L 171.81152 456.15526 L 171.81298 456.15526 C 171.81295 456.15592 171.81295 456.15866 171.81298 456.15966 L 171.81445 456.15966 C 171.81508 456.16038 171.81638 456.16159 171.81738 456.16259 L 171.81884 456.16259 C 171.81947 456.16331 171.82077 456.16452 171.82177 456.16552 C 171.82246 456.16555 171.8237 456.16555 171.8247 456.16552 L 171.85107 456.16552 C 171.87167 464.36584 178.53118 471.0057 186.74121 471.00731 C 194.95209 471.00699 201.61068 464.36674 201.63134 456.16552 L 201.65624 456.16552 L 201.65771 456.16552 C 201.65838 456.16555 201.65964 456.16555 201.66064 456.16552 C 201.66136 456.16491 201.6601 456.16359 201.66064 456.16259 C 201.66131 456.16263 201.66257 456.16263 201.66357 456.16259 L 201.66503 456.15966 L 201.6665 456.15966 C 201.66722 456.15904 201.66843 456.15626 201.66943 456.15526 L 201.66943 456.1538 C 201.66947 456.15313 201.66947 456.15187 201.66943 456.15087 L 201.66943 456.12743 C 201.66976 447.92782 208.32306 441.28008 216.53027 441.27977 C 224.73838 441.27902 231.39374 447.92692 231.39404 456.12743 L 231.39111 456.1494 L 231.39111 456.15233 C 231.39108 456.15299 231.39108 456.15426 231.39111 456.15526 L 231.39111 456.15673 C 231.39173 456.15745 231.39304 456.15819 231.39404 456.15819 C 231.39401 456.15885 231.39401 456.16012 231.39404 456.16112 C 231.39465 456.16184 231.39597 456.16112 231.39697 456.16112 L 231.3999 456.16112 C 231.40051 456.16184 231.39912 456.16305 231.3999 456.16405 C 231.40058 456.16408 231.40183 456.16408 231.40283 456.16405 L 231.40429 456.16405 L 231.40576 456.16405 L 231.43359 456.16405 C 231.45429 464.3653 238.11428 471.00555 246.32519 471.00585 C 254.53611 471.00554 261.19467 464.36527 261.21533 456.16405 L 261.24023 456.16405 C 261.24089 456.16408 261.24216 456.16408 261.24316 456.16405 L 261.24462 456.16405 C 261.24534 456.16345 261.24655 456.16212 261.24755 456.16112 L 261.25048 456.16112 C 261.2512 456.16052 261.25388 456.16166 261.25488 456.16112 C 261.2556 456.16051 261.25434 456.15919 261.25488 456.15819 L 261.25488 456.15673 L 261.25488 456.15526 C 261.25491 456.1546 261.25491 456.15333 261.25488 456.15233 L 261.25488 456.1494 L 261.25488 456.12596 C 261.25519 447.92636 267.90852 441.27863 276.11572 441.27831 C 284.32295 441.27863 290.97477 447.92635 290.97509 456.12596 L 290.97363 456.14794 L 290.97363 456.1494 C 290.97425 456.15012 290.9735 456.1528 290.97509 456.1538 L 290.97509 456.15673 C 290.9757 456.15745 290.97702 456.15866 290.97802 456.15966 L 290.98095 456.15966 C 290.98156 456.16038 290.98041 456.16159 290.98095 456.16259 C 290.98164 456.16262 290.98434 456.16262 290.98534 456.16259 L 290.98827 456.16552 C 290.98896 456.16555 290.9902 456.16555 290.9912 456.16552 L 290.99267 456.16552 L 291.02343 456.16552 C 291.04413 464.36584 297.70065 471.0057 305.91064 471.00731 C 314.12152 471.007 320.78158 464.36674 320.80224 456.16552 L 320.82714 456.16552 L 320.83007 456.16552 C 320.83075 456.16555 320.83346 456.16555 320.83446 456.16552 L 320.83593 456.16552 L 320.83593 456.16259 C 320.83661 456.16262 320.83786 456.16262 320.83886 456.16259 C 320.83891 456.16191 320.83891 456.16066 320.83886 456.15966 C 320.83954 456.15969 320.84225 456.15969 320.84325 456.15966 C 320.8433 456.15898 320.8433 456.15773 320.84325 456.15673 L 320.84325 456.1538 C 320.8433 456.15312 320.8433 456.1504 320.84325 456.1494 L 320.84325 456.12596 C 320.84358 447.92634 327.49689 441.27863 335.70409 441.27831 C 343.9113 441.27863 350.56316 447.92634 350.56347 456.12596 L 350.56347 456.1494 C 350.56343 456.15006 350.56343 456.1528 350.56347 456.1538 C 350.56409 456.15452 350.5654 456.15466 350.5664 456.15673 C 350.56701 456.15745 350.56733 456.15866 350.56933 456.15966 C 350.56929 456.16032 350.56929 456.16159 350.56933 456.16259 C 350.57 456.16262 350.57126 456.16262 350.57226 456.16259 L 350.57372 456.16259 L 350.57372 456.16552 L 350.57519 456.16552 C 350.57586 456.16555 350.57712 456.16555 350.57812 456.16552 L 350.58105 456.16552 L 350.61034 456.16552 C 350.63094 464.36584 357.28757 471.0057 365.49755 471.00731 C 373.70936 471.00806 380.37142 464.36767 380.39208 456.16552 L 380.41552 456.16552 L 380.41845 456.16552 C 380.41912 456.16555 380.42038 456.16555 380.42138 456.16552 L 380.42284 456.16552 L 380.42577 456.16259 C 380.42649 456.16197 380.4277 456.16066 380.4287 456.15966 L 380.43163 456.15966 C 380.43167 456.15898 380.43167 456.15773 380.43163 456.15673 C 380.43235 456.15611 380.43356 456.15587 380.43456 456.1538 C 380.4346 456.15312 380.4346 456.1504 380.43456 456.1494 L 380.43456 456.12596 C 380.43488 447.92544 387.08875 441.27734 395.29686 441.27831 C 403.50407 441.27863 410.15592 447.92634 410.15624 456.12596 L 410.15624 456.14794 L 410.15624 456.1494 C 410.1562 456.15006 410.1562 456.15133 410.15624 456.15233 L 410.15624 456.15526 C 410.15621 456.15592 410.15621 456.15719 410.15624 456.15819 C 410.15685 456.15891 410.15817 456.16012 410.15917 456.16112 L 410.16356 456.16112 C 410.16353 456.16178 410.16353 456.16452 410.16356 456.16552 C 410.16424 456.16555 410.16549 456.16555 410.16649 456.16552 L 410.16649 456.16698 L 410.16942 456.16698 C 410.1701 456.16701 410.17135 456.16701 410.17235 456.16698 L 410.17382 456.16698 L 410.20458 456.16698 C 410.22528 464.3673 416.88327 471.00717 425.09325 471.00878 C 433.30417 471.00846 439.96566 464.3682 439.98632 456.16698 L 440.01122 456.16698 L 440.01415 456.16698 C 440.01482 456.16701 440.01608 456.16701 440.01708 456.16698 L 440.01854 456.16698 L 440.02001 456.16552 C 440.02073 456.1649 440.02194 456.16212 440.02294 456.16112 L 440.0244 456.16112 L 440.0244 456.15819 C 440.02444 456.15752 440.02444 456.15626 440.0244 456.15526 C 440.02512 456.15464 440.02633 456.15447 440.02733 456.15233 C 440.02737 456.15166 440.02737 456.1504 440.02733 456.1494 L 440.02733 456.12596 C 440.02765 447.92635 446.68944 440.90593 454.88817 441.27831 C 472.31214 442.06968 464.83926 441.827 472.29637 442.37694 C 472.29837 442.45654 472.34784 442.56679 472.34764 442.64501 C 508.34705 445.02909 547.90253 447.93639 534.11278 493.68602 C 534.18088 493.68577 534.26656 493.64681 534.33544 493.64501 L 529.33592 515.67333 C 527.74306 523.34251 522.68233 530.51922 514.47508 530.51952 L 514.45165 530.51952 C 514.45098 530.51944 514.44972 530.51944 514.44872 530.51952 L 514.44725 530.51952 L 514.44286 530.51952 L 514.43993 530.51952 C 514.43921 530.52012 514.438 530.51997 514.437 530.51952 L 514.437 530.55028 C 506.22928 530.57128 499.58228 537.22212 499.58055 545.4243 C 499.58086 553.62761 506.22816 560.27917 514.437 560.29979 L 514.437 560.32616 L 514.43993 560.32616 C 514.44055 560.32691 514.44186 560.32616 514.44286 560.32616 C 514.44347 560.32684 514.44625 560.32616 514.44725 560.32616 L 514.44872 560.32616 C 514.44933 560.32691 514.45065 560.32661 514.45165 560.32616 L 514.47508 560.32616 C 522.68233 560.32654 529.33561 566.97411 529.33592 575.17381 C 529.33667 583.37363 522.68376 590.02011 514.47655 590.02147 L 514.45458 590.02147 L 514.45165 590.02147 L 514.45018 590.02147 L 514.44725 590.02147 L 514.44432 590.02147 L 514.44139 590.02147 L 514.43993 590.02147 C 514.43921 590.02207 514.438 590.02192 514.437 590.02147 L 514.437 590.0493 C 506.2281 590.0703 499.58083 596.72433 499.58055 604.92772 C 499.58087 613.13102 506.22813 619.78259 514.437 619.80321 L 514.437 619.82371 C 514.4376 619.82439 514.43893 619.82371 514.43993 619.82371 L 514.44139 619.82371 C 514.44199 619.82439 514.44332 619.82416 514.44432 619.82371 L 514.44725 619.82371 C 514.44791 619.82379 514.44918 619.82379 514.45018 619.82371 L 514.45165 619.82371 L 514.47508 619.82371 C 522.68324 619.82409 529.3369 626.4752 529.33592 634.67577 C 529.3356 642.87473 522.68284 649.52046 514.47655 649.52196 L 514.45311 649.52196 L 514.45018 649.52196 L 514.44725 649.52196 L 514.44579 649.52196 L 514.44432 649.52196 C 514.44365 649.52181 514.44239 649.52181 514.44139 649.52196 C 514.44066 649.52256 514.43946 649.52196 514.43846 649.52196 L 514.43846 649.55125 C 506.23053 649.57225 499.58361 656.22434 499.58202 664.42674 C 499.58232 672.62997 506.22962 679.28161 514.43846 679.30223 L 514.43846 679.3286 C 514.43907 679.32928 514.44039 679.32905 514.44139 679.3286 C 514.442 679.32935 514.44332 679.32905 514.44432 679.3286 L 514.44579 679.3286 L 514.44725 679.3286 L 514.45018 679.3286 L 514.45311 679.3286 L 514.47655 679.3286 C 522.68375 679.3289 529.33707 685.97662 529.33739 694.17625 C 529.33706 702.37587 522.68374 709.02214 514.47655 709.02244 L 514.45311 709.02244 L 514.45018 709.02244 C 514.4495 709.02236 514.44825 709.02236 514.44725 709.02244 L 514.44579 709.02244 L 514.44432 709.02244 C 514.4436 709.02304 514.44239 709.02244 514.44139 709.02244 C 514.44066 709.02304 514.43946 709.02289 514.43846 709.02244 L 514.43846 709.05027 C 506.23052 709.07057 499.58361 715.72197 499.58202 723.9243 C 499.58127 732.12858 506.2287 738.78209 514.43846 738.80272 L 514.43846 738.82615 C 514.43907 738.8269 514.44039 738.82615 514.44139 738.82615 L 514.44432 738.82615 L 514.44579 738.82615 L 514.44725 738.82615 L 514.45018 738.82615 L 514.45311 738.82615 L 514.47655 738.82615 C 522.23316 738.82615 528.68302 744.7921 529.28758 752.51805 C 529.28819 752.51873 529.28951 752.51805 529.29051 752.51805 L 529.29198 752.51805 L 529.29491 752.51805 L 529.29784 752.51805 L 529.2993 752.51805 L 529.30956 752.51805 C 529.37816 753.49671 529.41383 754.47693 529.41503 755.45799 C 529.41515 779.12563 510.20964 798.31209 486.52001 798.31199 C 486.11947 798.29699 485.72024 798.27893 485.3203 798.25193 L 485.31737 798.25193 C 485.10427 798.26393 484.89209 798.27091 484.6787 798.27391 C 476.47149 798.27361 469.81963 791.62721 469.81932 783.42771 L 469.81932 783.40574 L 469.81639 783.40574 L 469.81346 783.40574 L 469.81053 783.40574 L 469.80907 783.40574 L 469.80468 783.40574 L 469.80175 783.40574 L 469.77245 783.40574 C 469.75055 775.20628 463.09429 768.56847 454.88524 768.56687 C 446.67523 768.56717 440.01706 775.20528 439.99511 783.40574 L 439.96581 783.40574 L 439.96288 783.40574 L 439.96141 783.40574 L 439.95848 783.40574 L 439.95702 783.40574 L 439.95409 783.40574 L 439.95116 783.40574 L 439.94823 783.40574 L 439.95116 783.42478 C 439.95085 791.62428 433.29904 798.27214 425.09179 798.27244 C 416.88459 798.27214 410.23127 791.62428 410.23095 783.42478 L 410.23095 783.40281 L 410.22802 783.40281 L 410.22509 783.40281 L 410.22362 783.40281 L 410.22069 783.40281 L 410.21776 783.40281 L 410.21483 783.40281 L 410.2119 783.40281 L 410.18261 783.40281 C 410.16071 775.20325 403.50449 768.56565 395.2954 768.56395 C 387.0845 768.56395 380.42577 775.20145 380.4038 783.40281 L 380.37597 783.40281 L 380.37304 783.40281 L 380.36864 783.40281 L 380.36571 783.40281 L 380.36425 783.40281 L 380.35985 783.40281 L 380.35985 783.42332 C 380.35954 791.62378 373.70567 798.27041 365.49755 798.26951 C 357.29034 798.26921 350.63848 791.62288 350.63817 783.42332 L 350.63817 783.39988 L 350.63524 783.39988 L 350.63232 783.39988 L 350.62939 783.39988 L 350.62792 783.39988 L 350.62499 783.39988 L 350.62353 783.39988 L 350.59423 783.39988 C 350.57233 775.20032 343.91608 768.56398 335.70702 768.56248 C 327.49704 768.56278 320.83884 775.19942 320.81689 783.39988 L 320.78759 783.39988 L 320.78466 783.39988 L 320.78173 783.39988 L 320.78027 783.39988 L 320.77734 783.39988 L 320.77294 783.39988 L 320.77001 783.39988 L 320.77001 783.42039 C 320.7697 791.61995 314.11783 798.26618 305.91064 798.26658 C 297.7034 798.26618 291.05011 791.61995 291.0498 783.42039 L 291.0498 783.39842 L 291.04833 783.39842 L 291.0454 783.39842 L 291.04247 783.39842 L 291.03954 783.39842 L 291.03661 783.39842 L 291.03368 783.39842 L 291.03222 783.39842 L 291.00439 783.39842 C 290.98249 775.19906 284.32479 768.56125 276.11572 768.55955 C 267.90575 768.55985 261.24752 775.19796 261.22558 783.39842 L 261.19775 783.39842 L 261.19482 783.39842 L 261.19189 783.39842 L 261.19042 783.39842 L 261.18749 783.39842 L 261.18456 783.39842 L 261.1831 783.39842 L 261.18017 783.39842 L 261.1787 783.39842 L 261.18017 783.416 C 261.17985 791.61546 254.52805 798.26189 246.32079 798.26219 C 238.11266 798.26219 231.4588 791.61636 231.45849 783.416 L 231.45849 783.39402 L 231.45556 783.39402 L 231.4541 783.39402 L 231.45117 783.39402 L 231.4497 783.39402 L 231.44677 783.39402 L 231.42187 783.39402 C 231.39997 775.19356 224.74025 768.55546 216.53027 768.55516 C 208.32028 768.55546 201.66208 775.19356 201.64013 783.39402 L 201.6123 783.39402 L 201.60937 783.39402 L 201.60644 783.39402 L 201.60351 783.39402 L 201.60058 783.39402 L 201.59765 783.39402 L 201.59472 783.39402 L 201.60058 783.416 L 201.59765 783.416 C 201.59733 791.61556 194.94549 798.26042 186.73828 798.26072 C 178.53105 798.26042 171.87775 791.61556 171.87744 783.416 L 171.87744 783.39256 L 171.87304 783.39256 L 171.87158 783.39256 L 171.86865 783.39256 L 171.86572 783.39256 L 171.86279 783.39256 L 171.83496 783.39256 C 171.81306 775.193 165.15683 768.55666 156.94775 768.55516 C 148.73776 768.55546 142.07807 775.1921 142.05615 783.39256 L 142.02832 783.39256 L 142.02685 783.39256 L 142.02392 783.39256 L 142.02246 783.39256 L 142.02099 783.39256 L 142.01806 783.39256 L 142.0166 783.39256 L 142.01367 783.39256 L 142.0166 783.41307 C 142.0163 791.61253 135.36295 798.25896 127.15576 798.25926 C 118.94853 798.25896 112.29668 791.61253 112.29638 783.41307 L 112.29638 783.39109 L 112.29052 783.39109 L 112.28759 783.39109 L 112.28467 783.39109 L 112.28174 783.39109 L 112.27881 783.39109 L 112.27588 783.39109 L 112.24951 783.39109 C 112.22761 775.19153 105.56992 768.5509 97.360837 768.5493 C 89.149945 768.5493 82.489723 775.18973 82.467771 783.39109 L 82.442869 783.39109 L 82.43701 783.39109 L 82.43408 783.39109 L 82.432615 783.39109 L 82.43115 783.39109 L 82.428221 783.39109 L 82.426756 783.39109 L 82.423826 783.39109 L 82.426756 783.41014 C 82.424756 791.1771 76.431649 797.62892 68.679197 798.21092 L 68.677733 798.21092 L 68.674803 798.21092 L 68.673338 798.21092 L 68.671873 798.21092 L 68.668944 798.21092 L 68.666014 798.21092 L 68.666014 798.22264 C 67.689132 798.28964 66.711144 798.32311 65.731932 798.32371 L 65.730467 798.32371 L 65.727537 798.32371 C 42.039468 798.32371 22.8364 779.1373 22.835449 755.47117 C 22.851869 754.91292 22.87924 754.35408 22.91748 753.79686 C 22.91548 753.74286 22.912621 753.68804 22.911621 753.63426 C 22.911711 745.43471 29.564999 738.78544 37.77246 738.78514 L 37.794433 738.78514 L 37.795897 738.78514 C 37.796558 738.78521 37.797827 738.78521 37.798827 738.78514 L 37.800292 738.78514 L 37.803222 738.78514 L 37.806151 738.78514 C 37.806872 738.78454 37.808081 738.78514 37.809081 738.78514 L 37.810546 738.78514 L 37.810546 738.75731 C 46.018304 738.73561 52.664986 732.084 52.665526 723.88182 C 52.665226 715.67941 46.018474 709.0253 37.810546 709.0034 L 37.810546 708.9785 L 37.809081 708.9785 C 37.80841 708.97843 37.807151 708.97843 37.806151 708.9785 L 37.803222 708.9785 L 37.800292 708.9785 L 37.798827 708.9785 C 37.798156 708.97843 37.796897 708.97843 37.795897 708.9785 L 37.77246 708.9785 C 29.565259 708.97813 22.911941 702.33048 22.911621 694.13084 C 22.911931 685.93127 29.565249 679.28642 37.77246 679.28612 L 37.794433 679.28612 L 37.795897 679.28612 C 37.796557 679.2862 37.797827 679.2862 37.798827 679.28612 L 37.800292 679.28612 L 37.803222 679.28612 L 37.804687 679.28612 C 37.805347 679.2862 37.806616 679.2862 37.807616 679.28612 L 37.809081 679.28612 L 37.809081 679.25535 C 46.01594 679.23365 52.662239 672.58122 52.664061 664.37987 C 52.663751 656.17752 46.017011 649.52774 37.809081 649.50584 L 37.809081 649.47801 L 37.807616 649.47801 C 37.807005 649.47726 37.805687 649.47801 37.804687 649.47801 L 37.803222 649.47801 C 37.802551 649.47793 37.801292 649.47793 37.800292 649.47801 L 37.798827 649.47801 C 37.798156 649.47793 37.796897 649.47793 37.795897 649.47801 L 37.794433 649.47801 L 37.770995 649.47801 C 29.563794 649.47763 22.910477 642.83147 22.910156 634.63182 C 22.909175 626.43129 29.562863 619.78307 37.770995 619.7827 L 37.792968 619.7827 L 37.794433 619.7827 L 37.797362 619.7827 L 37.800292 619.7827 L 37.801757 619.7827 C 37.802418 619.78277 37.803687 619.78277 37.804687 619.7827 L 37.806151 619.7827 L 37.807616 619.7827 C 37.808337 619.7821 37.809546 619.78225 37.810546 619.7827 L 37.812011 619.7827 L 37.812011 619.75487 C 46.018871 619.73317 52.665169 613.08362 52.666991 604.88231 C 52.667962 596.67901 46.020873 590.02434 37.812011 590.00243 L 37.812011 589.97899 L 37.810546 589.97899 C 37.809876 589.97891 37.808616 589.97891 37.807616 589.97899 L 37.806151 589.97899 L 37.804687 589.97899 C 37.804077 589.97831 37.802757 589.97854 37.801757 589.97899 L 37.800292 589.97899 C 37.799622 589.97891 37.798362 589.97891 37.797362 589.97899 L 37.794433 589.97899 L 37.770995 589.97899 C 29.562873 589.97869 22.909175 583.33186 22.910156 575.13133 C 22.910476 566.9317 29.563794 560.28398 37.770995 560.28368 L 37.792968 560.28368 L 37.794433 560.28368 L 37.795897 560.28368 L 37.798827 560.28368 C 37.799548 560.28308 37.800757 560.28323 37.801757 560.28368 L 37.803222 560.28368 L 37.804687 560.28368 C 37.805408 560.28308 37.806616 560.28323 37.807616 560.28368 L 37.807616 560.25438 C 46.014465 560.23268 52.660764 553.5831 52.662596 545.38182 C 52.662296 537.17933 46.015547 530.52685 37.807616 530.50487 L 37.807616 530.47997 C 37.807005 530.47922 37.805687 530.47952 37.804687 530.47997 L 37.803222 530.47997 L 37.801757 530.47997 C 37.801086 530.4799 37.799827 530.4799 37.798827 530.47997 L 37.795897 530.47997 L 37.794433 530.47997 L 37.770995 530.47997 C 29.563794 530.47967 22.910477 523.83194 22.910156 515.63231 C 22.916156 507.93955 28.802923 501.52564 36.473144 500.8535 C 37.532407 500.946 38.594517 500.99799 39.657714 501.01171 C 63.364671 501.01184 82.582149 481.81193 82.582029 458.12694 C 82.575029 457.39482 82.550507 456.66339 82.505857 455.93261 C 82.598447 447.80166 89.220122 441.25707 97.359373 441.25341 z " /></g></svg>
