<?xml version="1.0" encoding="UTF-8" standalone="no"?>
<svg
   version="1.1"
   inkscape:output_extension="org.inkscape.output.svg.inkscape"
   sodipodi:docname="SpeakerLayerOddFull.svg"
   inkscape:version="1.3 (0e150ed6c4, 2023-07-21)"
   sodipodi:version="0.32"
   id="svg2338"
   xml:space="preserve"
   viewBox="0 0 1116.852 1116.85"
   height="1116.85pt"
   width="1116.852pt"
   xmlns:inkscape="http://www.inkscape.org/namespaces/inkscape"
   xmlns:sodipodi="http://sodipodi.sourceforge.net/DTD/sodipodi-0.dtd"
   xmlns="http://www.w3.org/2000/svg"
   xmlns:svg="http://www.w3.org/2000/svg"
   xmlns:rdf="http://www.w3.org/1999/02/22-rdf-syntax-ns#"
   xmlns:cc="http://creativecommons.org/ns#"
   xmlns:dc="http://purl.org/dc/elements/1.1/"><metadata
     id="metadata2382"><rdf:RDF><cc:Work
         rdf:about=""><dc:format>image/svg+xml</dc:format><dc:type
           rdf:resource="http://purl.org/dc/dcmitype/StillImage" /><dc:title /></cc:Work></rdf:RDF></metadata><defs
     id="defs2380"><inkscape:perspective
       id="perspective46224"
       inkscape:persp3d-origin="698.03253 : 465.35417 : 1"
       inkscape:vp_z="1396.0651 : 698.03125 : 1"
       inkscape:vp_y="0 : 1000 : 0"
       inkscape:vp_x="0 : 698.03125 : 1"
       sodipodi:type="inkscape:persp3d" /><inkscape:perspective
       id="perspective37556-9"
       inkscape:persp3d-origin="338.38562 : 225.59001 : 1"
       inkscape:vp_z="676.77124 : 338.38501 : 1"
       inkscape:vp_y="0 : 1000 : 0"
       inkscape:vp_x="0 : 338.38501 : 1"
       sodipodi:type="inkscape:persp3d" /><inkscape:perspective
       id="perspective16301-9"
       inkscape:persp3d-origin="338.38562 : 225.59001 : 1"
       inkscape:vp_z="676.77124 : 338.38501 : 1"
       inkscape:vp_y="0 : 1000 : 0"
       inkscape:vp_x="0 : 338.38501 : 1"
       sodipodi:type="inkscape:persp3d" /><inkscape:perspective
       id="perspective12409-1"
       inkscape:persp3d-origin="270.7085 : 180.47233 : 1"
       inkscape:vp_z="541.41699 : 270.7085 : 1"
       inkscape:vp_y="0 : 1000 : 0"
       inkscape:vp_x="0 : 270.7085 : 1"
       sodipodi:type="inkscape:persp3d" /><inkscape:perspective
       id="perspective9337-7"
       inkscape:persp3d-origin="0.5 : 0.33333333 : 1"
       inkscape:vp_z="1 : 0.5 : 1"
       inkscape:vp_y="0 : 1000 : 0"
       inkscape:vp_x="0 : 0.5 : 1"
       sodipodi:type="inkscape:persp3d" /><inkscape:perspective
       id="perspective8562-2"
       inkscape:persp3d-origin="0.5 : 0.33333333 : 1"
       inkscape:vp_z="1 : 0.5 : 1"
       inkscape:vp_y="0 : 1000 : 0"
       inkscape:vp_x="0 : 0.5 : 1"
       sodipodi:type="inkscape:persp3d" /><inkscape:perspective
       sodipodi:type="inkscape:persp3d"
       inkscape:vp_x="0 : 338.38501 : 1"
       inkscape:vp_y="0 : 1000 : 0"
       inkscape:vp_z="676.77124 : 338.38501 : 1"
       inkscape:persp3d-origin="338.38562 : 225.59001 : 1"
       id="perspective3083-3" /><inkscape:perspective
       sodipodi:type="inkscape:persp3d"
       inkscape:vp_x="0 : 270.7085 : 1"
       inkscape:vp_y="0 : 1000 : 0"
       inkscape:vp_z="541.41699 : 270.7085 : 1"
       inkscape:persp3d-origin="270.7085 : 180.47233 : 1"
       id="perspective23419-6" /><inkscape:perspective
       sodipodi:type="inkscape:persp3d"
       inkscape:vp_x="0 : 338.38501 : 1"
       inkscape:vp_y="0 : 1000 : 0"
       inkscape:vp_z="676.77124 : 338.38501 : 1"
       inkscape:persp3d-origin="338.38562 : 225.59001 : 1"
       id="perspective27913-5" /><inkscape:perspective
       id="perspective27913"
       inkscape:persp3d-origin="338.38562 : 225.59001 : 1"
       inkscape:vp_z="676.77124 : 338.38501 : 1"
       inkscape:vp_y="0 : 1000 : 0"
       inkscape:vp_x="0 : 338.38501 : 1"
       sodipodi:type="inkscape:persp3d" /><inkscape:perspective
       id="perspective23419"
       inkscape:persp3d-origin="270.7085 : 180.47233 : 1"
       inkscape:vp_z="541.41699 : 270.7085 : 1"
       inkscape:vp_y="0 : 1000 : 0"
       inkscape:vp_x="0 : 270.7085 : 1"
       sodipodi:type="inkscape:persp3d" /><inkscape:perspective
       id="perspective3083"
       inkscape:persp3d-origin="338.38562 : 225.59001 : 1"
       inkscape:vp_z="676.77124 : 338.38501 : 1"
       inkscape:vp_y="0 : 1000 : 0"
       inkscape:vp_x="0 : 338.38501 : 1"
       sodipodi:type="inkscape:persp3d" /><inkscape:perspective
       sodipodi:type="inkscape:persp3d"
       inkscape:vp_x="0 : 0.5 : 1"
       inkscape:vp_y="0 : 1000 : 0"
       inkscape:vp_z="1 : 0.5 : 1"
       inkscape:persp3d-origin="0.5 : 0.33333333 : 1"
       id="perspective8562" /><inkscape:perspective
       sodipodi:type="inkscape:persp3d"
       inkscape:vp_x="0 : 0.5 : 1"
       inkscape:vp_y="0 : 1000 : 0"
       inkscape:vp_z="1 : 0.5 : 1"
       inkscape:persp3d-origin="0.5 : 0.33333333 : 1"
       id="perspective9337" /><inkscape:perspective
       sodipodi:type="inkscape:persp3d"
       inkscape:vp_x="0 : 270.7085 : 1"
       inkscape:vp_y="0 : 1000 : 0"
       inkscape:vp_z="541.41699 : 270.7085 : 1"
       inkscape:persp3d-origin="270.7085 : 180.47233 : 1"
       id="perspective12409" /><inkscape:perspective
       sodipodi:type="inkscape:persp3d"
       inkscape:vp_x="0 : 338.38501 : 1"
       inkscape:vp_y="0 : 1000 : 0"
       inkscape:vp_z="676.77124 : 338.38501 : 1"
       inkscape:persp3d-origin="338.38562 : 225.59001 : 1"
       id="perspective16301" /><inkscape:perspective
       sodipodi:type="inkscape:persp3d"
       inkscape:vp_x="0 : 338.38501 : 1"
       inkscape:vp_y="0 : 1000 : 0"
       inkscape:vp_z="676.77124 : 338.38501 : 1"
       inkscape:persp3d-origin="338.38562 : 225.59001 : 1"
       id="perspective37556" /><inkscape:perspective
       sodipodi:type="inkscape:persp3d"
       inkscape:vp_x="0 : 270.70999 : 1"
       inkscape:vp_y="0 : 1000 : 0"
       inkscape:vp_z="541.41998 : 270.70999 : 1"
       inkscape:persp3d-origin="270.70999 : 180.47333 : 1"
       id="perspective51446" /><inkscape:perspective
       id="perspective37556-9-8"
       inkscape:persp3d-origin="338.38562 : 225.59001 : 1"
       inkscape:vp_z="676.77124 : 338.38501 : 1"
       inkscape:vp_y="0 : 1000 : 0"
       inkscape:vp_x="0 : 338.38501 : 1"
       sodipodi:type="inkscape:persp3d" /><inkscape:perspective
       id="perspective16301-9-1"
       inkscape:persp3d-origin="338.38562 : 225.59001 : 1"
       inkscape:vp_z="676.77124 : 338.38501 : 1"
       inkscape:vp_y="0 : 1000 : 0"
       inkscape:vp_x="0 : 338.38501 : 1"
       sodipodi:type="inkscape:persp3d" /><inkscape:perspective
       id="perspective12409-1-2"
       inkscape:persp3d-origin="270.7085 : 180.47233 : 1"
       inkscape:vp_z="541.41699 : 270.7085 : 1"
       inkscape:vp_y="0 : 1000 : 0"
       inkscape:vp_x="0 : 270.7085 : 1"
       sodipodi:type="inkscape:persp3d" /><inkscape:perspective
       id="perspective9337-7-0"
       inkscape:persp3d-origin="0.5 : 0.33333333 : 1"
       inkscape:vp_z="1 : 0.5 : 1"
       inkscape:vp_y="0 : 1000 : 0"
       inkscape:vp_x="0 : 0.5 : 1"
       sodipodi:type="inkscape:persp3d" /><inkscape:perspective
       id="perspective8562-2-5"
       inkscape:persp3d-origin="0.5 : 0.33333333 : 1"
       inkscape:vp_z="1 : 0.5 : 1"
       inkscape:vp_y="0 : 1000 : 0"
       inkscape:vp_x="0 : 0.5 : 1"
       sodipodi:type="inkscape:persp3d" /><inkscape:perspective
       sodipodi:type="inkscape:persp3d"
       inkscape:vp_x="0 : 338.38501 : 1"
       inkscape:vp_y="0 : 1000 : 0"
       inkscape:vp_z="676.77124 : 338.38501 : 1"
       inkscape:persp3d-origin="338.38562 : 225.59001 : 1"
       id="perspective3083-3-7" /><inkscape:perspective
       sodipodi:type="inkscape:persp3d"
       inkscape:vp_x="0 : 270.7085 : 1"
       inkscape:vp_y="0 : 1000 : 0"
       inkscape:vp_z="541.41699 : 270.7085 : 1"
       inkscape:persp3d-origin="270.7085 : 180.47233 : 1"
       id="perspective23419-6-3" /><inkscape:perspective
       sodipodi:type="inkscape:persp3d"
       inkscape:vp_x="0 : 338.38501 : 1"
       inkscape:vp_y="0 : 1000 : 0"
       inkscape:vp_z="676.77124 : 338.38501 : 1"
       inkscape:persp3d-origin="338.38562 : 225.59001 : 1"
       id="perspective27913-5-7" /><inkscape:perspective
       id="perspective27913-9"
       inkscape:persp3d-origin="338.38562 : 225.59001 : 1"
       inkscape:vp_z="676.77124 : 338.38501 : 1"
       inkscape:vp_y="0 : 1000 : 0"
       inkscape:vp_x="0 : 338.38501 : 1"
       sodipodi:type="inkscape:persp3d" /><inkscape:perspective
       id="perspective23419-3"
       inkscape:persp3d-origin="270.7085 : 180.47233 : 1"
       inkscape:vp_z="541.41699 : 270.7085 : 1"
       inkscape:vp_y="0 : 1000 : 0"
       inkscape:vp_x="0 : 270.7085 : 1"
       sodipodi:type="inkscape:persp3d" /><inkscape:perspective
       id="perspective3083-1"
       inkscape:persp3d-origin="338.38562 : 225.59001 : 1"
       inkscape:vp_z="676.77124 : 338.38501 : 1"
       inkscape:vp_y="0 : 1000 : 0"
       inkscape:vp_x="0 : 338.38501 : 1"
       sodipodi:type="inkscape:persp3d" /><inkscape:perspective
       sodipodi:type="inkscape:persp3d"
       inkscape:vp_x="0 : 0.5 : 1"
       inkscape:vp_y="0 : 1000 : 0"
       inkscape:vp_z="1 : 0.5 : 1"
       inkscape:persp3d-origin="0.5 : 0.33333333 : 1"
       id="perspective8562-25" /><inkscape:perspective
       sodipodi:type="inkscape:persp3d"
       inkscape:vp_x="0 : 0.5 : 1"
       inkscape:vp_y="0 : 1000 : 0"
       inkscape:vp_z="1 : 0.5 : 1"
       inkscape:persp3d-origin="0.5 : 0.33333333 : 1"
       id="perspective9337-6" /><inkscape:perspective
       sodipodi:type="inkscape:persp3d"
       inkscape:vp_x="0 : 270.7085 : 1"
       inkscape:vp_y="0 : 1000 : 0"
       inkscape:vp_z="541.41699 : 270.7085 : 1"
       inkscape:persp3d-origin="270.7085 : 180.47233 : 1"
       id="perspective12409-8" /><inkscape:perspective
       sodipodi:type="inkscape:persp3d"
       inkscape:vp_x="0 : 338.38501 : 1"
       inkscape:vp_y="0 : 1000 : 0"
       inkscape:vp_z="676.77124 : 338.38501 : 1"
       inkscape:persp3d-origin="338.38562 : 225.59001 : 1"
       id="perspective16301-5" /><inkscape:perspective
       sodipodi:type="inkscape:persp3d"
       inkscape:vp_x="0 : 338.38501 : 1"
       inkscape:vp_y="0 : 1000 : 0"
       inkscape:vp_z="676.77124 : 338.38501 : 1"
       inkscape:persp3d-origin="338.38562 : 225.59001 : 1"
       id="perspective37556-4" /><inkscape:perspective
       id="perspective37556-9-1"
       inkscape:persp3d-origin="338.38562 : 225.59001 : 1"
       inkscape:vp_z="676.77124 : 338.38501 : 1"
       inkscape:vp_y="0 : 1000 : 0"
       inkscape:vp_x="0 : 338.38501 : 1"
       sodipodi:type="inkscape:persp3d" /><inkscape:perspective
       id="perspective16301-9-3"
       inkscape:persp3d-origin="338.38562 : 225.59001 : 1"
       inkscape:vp_z="676.77124 : 338.38501 : 1"
       inkscape:vp_y="0 : 1000 : 0"
       inkscape:vp_x="0 : 338.38501 : 1"
       sodipodi:type="inkscape:persp3d" /><inkscape:perspective
       id="perspective12409-1-9"
       inkscape:persp3d-origin="270.7085 : 180.47233 : 1"
       inkscape:vp_z="541.41699 : 270.7085 : 1"
       inkscape:vp_y="0 : 1000 : 0"
       inkscape:vp_x="0 : 270.7085 : 1"
       sodipodi:type="inkscape:persp3d" /><inkscape:perspective
       id="perspective9337-7-1"
       inkscape:persp3d-origin="0.5 : 0.33333333 : 1"
       inkscape:vp_z="1 : 0.5 : 1"
       inkscape:vp_y="0 : 1000 : 0"
       inkscape:vp_x="0 : 0.5 : 1"
       sodipodi:type="inkscape:persp3d" /><inkscape:perspective
       id="perspective8562-2-7"
       inkscape:persp3d-origin="0.5 : 0.33333333 : 1"
       inkscape:vp_z="1 : 0.5 : 1"
       inkscape:vp_y="0 : 1000 : 0"
       inkscape:vp_x="0 : 0.5 : 1"
       sodipodi:type="inkscape:persp3d" /><inkscape:perspective
       sodipodi:type="inkscape:persp3d"
       inkscape:vp_x="0 : 338.38501 : 1"
       inkscape:vp_y="0 : 1000 : 0"
       inkscape:vp_z="676.77124 : 338.38501 : 1"
       inkscape:persp3d-origin="338.38562 : 225.59001 : 1"
       id="perspective3083-3-8" /><inkscape:perspective
       sodipodi:type="inkscape:persp3d"
       inkscape:vp_x="0 : 270.7085 : 1"
       inkscape:vp_y="0 : 1000 : 0"
       inkscape:vp_z="541.41699 : 270.7085 : 1"
       inkscape:persp3d-origin="270.7085 : 180.47233 : 1"
       id="perspective23419-6-8" /><inkscape:perspective
       sodipodi:type="inkscape:persp3d"
       inkscape:vp_x="0 : 338.38501 : 1"
       inkscape:vp_y="0 : 1000 : 0"
       inkscape:vp_z="676.77124 : 338.38501 : 1"
       inkscape:persp3d-origin="338.38562 : 225.59001 : 1"
       id="perspective27913-5-4" /><inkscape:perspective
       id="perspective27913-1"
       inkscape:persp3d-origin="338.38562 : 225.59001 : 1"
       inkscape:vp_z="676.77124 : 338.38501 : 1"
       inkscape:vp_y="0 : 1000 : 0"
       inkscape:vp_x="0 : 338.38501 : 1"
       sodipodi:type="inkscape:persp3d" /><inkscape:perspective
       id="perspective23419-9"
       inkscape:persp3d-origin="270.7085 : 180.47233 : 1"
       inkscape:vp_z="541.41699 : 270.7085 : 1"
       inkscape:vp_y="0 : 1000 : 0"
       inkscape:vp_x="0 : 270.7085 : 1"
       sodipodi:type="inkscape:persp3d" /><inkscape:perspective
       id="perspective3083-8"
       inkscape:persp3d-origin="338.38562 : 225.59001 : 1"
       inkscape:vp_z="676.77124 : 338.38501 : 1"
       inkscape:vp_y="0 : 1000 : 0"
       inkscape:vp_x="0 : 338.38501 : 1"
       sodipodi:type="inkscape:persp3d" /><inkscape:perspective
       sodipodi:type="inkscape:persp3d"
       inkscape:vp_x="0 : 0.5 : 1"
       inkscape:vp_y="0 : 1000 : 0"
       inkscape:vp_z="1 : 0.5 : 1"
       inkscape:persp3d-origin="0.5 : 0.33333333 : 1"
       id="perspective8562-6" /><inkscape:perspective
       sodipodi:type="inkscape:persp3d"
       inkscape:vp_x="0 : 0.5 : 1"
       inkscape:vp_y="0 : 1000 : 0"
       inkscape:vp_z="1 : 0.5 : 1"
       inkscape:persp3d-origin="0.5 : 0.33333333 : 1"
       id="perspective9337-2" /><inkscape:perspective
       sodipodi:type="inkscape:persp3d"
       inkscape:vp_x="0 : 270.7085 : 1"
       inkscape:vp_y="0 : 1000 : 0"
       inkscape:vp_z="541.41699 : 270.7085 : 1"
       inkscape:persp3d-origin="270.7085 : 180.47233 : 1"
       id="perspective12409-3" /><inkscape:perspective
       sodipodi:type="inkscape:persp3d"
       inkscape:vp_x="0 : 338.38501 : 1"
       inkscape:vp_y="0 : 1000 : 0"
       inkscape:vp_z="676.77124 : 338.38501 : 1"
       inkscape:persp3d-origin="338.38562 : 225.59001 : 1"
       id="perspective16301-56" /><inkscape:perspective
       sodipodi:type="inkscape:persp3d"
       inkscape:vp_x="0 : 338.38501 : 1"
       inkscape:vp_y="0 : 1000 : 0"
       inkscape:vp_z="676.77124 : 338.38501 : 1"
       inkscape:persp3d-origin="338.38562 : 225.59001 : 1"
       id="perspective37556-5" /><inkscape:perspective
       sodipodi:type="inkscape:persp3d"
       inkscape:vp_x="0 : 0.5 : 1"
       inkscape:vp_y="0 : 1000 : 0"
       inkscape:vp_z="1 : 0.5 : 1"
       inkscape:persp3d-origin="0.5 : 0.33333333 : 1"
       id="perspective10328" /><inkscape:perspective
       sodipodi:type="inkscape:persp3d"
       inkscape:vp_x="0 : 0.5 : 1"
       inkscape:vp_y="0 : 1000 : 0"
       inkscape:vp_z="1 : 0.5 : 1"
       inkscape:persp3d-origin="0.5 : 0.33333333 : 1"
       id="perspective11034" /><inkscape:perspective
       sodipodi:type="inkscape:persp3d"
       inkscape:vp_x="0 : 0.5 : 1"
       inkscape:vp_y="0 : 1000 : 0"
       inkscape:vp_z="1 : 0.5 : 1"
       inkscape:persp3d-origin="0.5 : 0.33333333 : 1"
       id="perspective3083-7" /><inkscape:perspective
       sodipodi:type="inkscape:persp3d"
       inkscape:vp_x="0 : 0.5 : 1"
       inkscape:vp_y="0 : 1000 : 0"
       inkscape:vp_z="1 : 0.5 : 1"
       inkscape:persp3d-origin="0.5 : 0.33333333 : 1"
       id="perspective2997" /></defs><sodipodi:namedview
     showguides="false"
     inkscape:document-rotation="0"
     inkscape:document-units="mm"
     inkscape:window-maximized="1"
     showgrid="false"
     inkscape:current-layer="layer10"
     inkscape:window-y="-11"
     inkscape:window-x="3829"
     inkscape:cy="759.5"
     inkscape:cx="1159.5"
     inkscape:zoom="1"
     id="base"
     pagecolor="#ffffff"
     bordercolor="#666666"
     borderopacity="1.0"
     objecttolerance="10.0"
     gridtolerance="10.0"
     guidetolerance="10.0"
     inkscape:pageopacity="0.0"
     inkscape:pageshadow="2"
     inkscape:window-width="3840"
     inkscape:window-height="2054"
     inkscape:pagecheckerboard="0"
     inkscape:showpageshadow="2"
     inkscape:deskcolor="#d1d1d1" /><g
     inkscape:label="Design Template"
     id="layer10"
     inkscape:groupmode="layer"><path
       id="path3736"
       style="color:#000000;font-style:normal;font-variant:normal;font-weight:normal;font-stretch:normal;font-size:medium;line-height:normal;font-family:sans-serif;text-indent:0;text-align:start;text-decoration:none;text-decoration-line:none;text-decoration-style:solid;text-decoration-color:#000000;letter-spacing:normal;word-spacing:normal;text-transform:none;writing-mode:lr-tb;direction:ltr;baseline-shift:baseline;text-anchor:start;white-space:normal;clip-rule:nonzero;display:inline;overflow:visible;visibility:visible;opacity:1;isolation:auto;mix-blend-mode:normal;color-interpolation:sRGB;color-interpolation-filters:linearRGB;solid-color:#000000;solid-opacity:1;fill:#70bbff;fill-opacity:0.46262625;fill-rule:nonzero;stroke:#000002;stroke-width:2.83621;stroke-linecap:butt;stroke-linejoin:miter;stroke-miterlimit:4;stroke-dasharray:none;stroke-dashoffset:0;stroke-opacity:1;color-rendering:auto;image-rendering:auto;shape-rendering:auto;text-rendering:auto;enable-background:accumulate"
       d="M 19.350585 1.4179687 L 19.350585 1.4282226 C 16.245919 1.4282226 13.330081 2.2131175 10.788574 3.5976562 C 10.534514 3.736116 10.283659 3.88101 10.037109 4.0312499 C 9.7914494 4.1811797 9.5512161 4.3358104 9.3134763 4.4970702 C 9.2634764 4.5307702 9.2164419 4.5667641 9.166992 4.6010741 C 8.9792921 4.731134 8.7911763 4.8639466 8.6088865 5.0009764 C 8.5988865 5.0089764 8.5891248 5.0154491 8.5781248 5.0229491 C 8.1325852 5.3589088 7.7021467 5.7154205 7.2905272 6.0908202 C 7.2174272 6.1576201 7.1485299 6.2280883 7.07666 6.2958983 C 6.9362101 6.4282081 6.7952194 6.5590707 6.6591795 6.6958006 C 6.4566697 6.8995204 6.2585176 7.1080591 6.0659178 7.3212889 C 5.876238 7.5310887 5.6918067 7.7471903 5.5122069 7.9658201 C 5.4572069 8.03262 5.4065989 8.1031483 5.3525389 8.1708982 C 5.2243091 8.3317081 5.0945094 8.4919165 4.9716796 8.6572263 C 4.2843802 9.5823554 3.6825852 10.5765 3.1801757 11.627929 C 2.0498168 13.993767 1.4179687 16.647882 1.4179687 19.457519 L 1.4179687 49.403319 C 1.4179687 143.77505 1.4281523 235.62543 1.4311523 327.48632 C 1.4312523 327.96153 1.4311523 328.44957 1.4311523 328.9248 C 1.8357619 337.28683 5.6131184 346.02896 12.593261 353.00243 L 35.055175 375.44237 C 38.289982 378.71217 40.062261 383.15075 39.968261 387.74706 C 39.880161 392.07547 38.143801 396.20819 35.112304 399.30175 L 12.593261 421.79882 C 5.5290385 428.85639 1.7546523 437.72447 1.4282226 446.17821 C 1.4382226 570.99879 1.4379687 695.46223 1.4179687 823.37693 L 1.4179687 850.3491 L 1.4179687 858.79392 C 1.5690286 864.41062 3.9643328 869.00332 7.741699 872.21482 C 11.264395 875.20942 15.984979 877.0005 21.191894 877.3198 L 433.36522 877.3198 L 433.40184 877.3198 L 455.95604 877.3198 C 535.32216 876.6119 599.30132 812.07619 599.35252 732.78367 L 599.36424 732.78367 L 599.35252 732.77488 C 599.35252 732.77518 599.35374 732.77488 599.36424 732.77488 C 599.37424 732.77488 599.37743 732.78367 599.37743 732.78367 L 599.37743 732.77488 L 599.37743 732.75584 L 599.37743 732.57274 C 599.37743 731.12543 599.37733 729.51981 599.37743 728.30418 C 599.37763 725.23944 599.37793 720.66695 599.37743 714.77928 C 599.37743 703.0038 599.37844 685.96796 599.38914 665.21922 C 599.38914 623.72188 599.39979 567.36885 599.40379 508.52782 C 599.41379 390.84567 599.42284 263.20863 599.42284 224.54736 L 599.42284 224.54443 L 599.42284 224.5415 L 599.42284 224.53857 L 599.42284 224.53564 L 599.42284 224.53271 L 599.42284 224.52978 L 599.3994 224.54003 L 599.3994 167.21777 L 599.3994 167.20019 L 599.3994 167.19726 C 599.3864 165.37727 599.29544 163.56027 599.12694 161.74804 C 599.02684 160.71748 598.90214 159.68755 598.75194 158.66308 C 598.61644 157.57593 598.45252 156.49285 598.26122 155.41406 C 598.06002 154.4085 597.83512 153.40882 597.58592 152.41406 C 597.34182 151.34523 597.07037 150.2829 596.77147 149.22802 C 596.46727 148.23157 596.13999 147.24216 595.78709 146.26172 C 595.44429 145.24369 595.07504 144.23618 594.68114 143.23681 L 594.68114 143.23388 C 594.27624 142.26693 593.8473 141.31008 593.395 140.36425 C 592.9469 139.37391 592.47231 138.39488 591.97411 137.42871 C 591.48851 136.53285 590.9815 135.64748 590.4536 134.77588 C 589.8986 133.81693 589.32049 132.87313 588.71629 131.94433 C 588.14539 131.10591 587.55403 130.28341 586.94383 129.47314 C 586.29513 128.5719 585.62457 127.68648 584.92967 126.82031 C 584.26717 126.03023 583.58641 125.25703 582.88622 124.5 C 582.16892 123.68971 581.42897 122.89679 580.67137 122.12402 L 580.67137 122.12109 C 579.91877 121.38474 579.14795 120.66745 578.35985 119.96924 C 577.56675 119.23765 576.75741 118.52691 575.92821 117.83642 C 575.12071 117.19132 574.29492 116.56655 573.45702 115.96142 C 572.58412 115.30335 571.69504 114.6666 570.78954 114.0542 C 569.92884 113.49792 569.05689 112.96297 568.1704 112.44873 C 567.2281 111.87544 566.26854 111.32746 565.29784 110.80371 C 564.37574 110.33093 563.44378 109.88196 562.49999 109.45459 C 561.52409 108.98805 560.53491 108.5453 559.53661 108.1289 C 558.57161 107.75045 557.59821 107.39499 556.61571 107.06396 C 555.58071 106.69006 554.53697 106.34241 553.48387 106.02246 C 552.49667 105.74539 551.50378 105.49146 550.50438 105.2622 C 549.44608 104.99662 548.38162 104.75841 547.31102 104.54736 C 546.28422 104.36585 545.25324 104.20963 544.21874 104.07861 C 543.14594 103.92075 542.06825 103.79059 540.98876 103.6875 C 539.18566 103.52083 537.3765 103.43096 535.5659 103.41797 L 535.5454 103.41797 L 478.26561 103.41797 L 478.27587 103.39306 L 478.27587 103.39013 L 478.27587 103.3872 L 478.27587 103.38574 L 478.27587 103.38427 L 478.27587 103.38135 L 478.27587 103.37695 L 478.27587 103.37402 L 478.27587 103.37109 L 478.27587 103.36816 L 478.27587 103.3667 L 478.27587 103.36377 L 478.27587 103.36084 L 206.36865 103.36084 L 206.36865 103.36377 L 206.36865 103.3667 L 206.36865 103.36816 L 206.36865 103.37109 L 206.36865 103.37402 L 206.36865 103.37695 L 206.36865 103.38135 L 206.36865 103.38427 L 206.36865 103.38574 L 206.36865 103.3872 L 206.36865 103.39013 L 206.36865 103.39306 C 180.53567 103.44896 154.50127 103.4209 128.5957 103.4209 C 128.5857 103.4209 128.58259 103.42476 128.57959 103.42676 L 128.57959 103.42822 L 128.41552 103.4209 C 116.66724 103.42116 107.14483 112.93861 107.14453 124.67578 C 107.14483 136.41298 116.66724 145.926 128.41552 145.92627 C 128.46952 145.92427 128.52752 145.92441 128.58252 145.92041 L 128.58252 145.92334 C 128.58322 145.92389 128.58252 145.92402 128.58252 145.92627 C 128.58322 145.92663 128.58252 145.92966 128.58252 145.93066 C 244.9034 145.94086 368.40978 145.98187 473.71727 145.98047 L 473.71727 145.98193 C 473.71727 145.98268 473.72692 145.98825 473.73192 145.98925 L 473.85936 145.98193 C 518.50282 145.98212 554.69363 182.13881 554.69383 226.74023 C 554.69363 271.34167 518.50282 307.49687 473.85936 307.49706 C 473.81136 307.49709 473.76264 307.49709 473.71434 307.49706 L 206.37011 307.49706 L 206.37011 307.49999 L 206.37011 307.50292 L 206.37011 307.50439 L 206.37011 307.50732 L 206.37011 307.51025 L 206.37011 307.51171 L 206.37011 307.51318 L 206.37011 307.51904 L 206.37011 307.52196 L 206.37011 307.52489 L 206.37011 307.52782 L 206.38037 307.55419 L 128.59716 307.55419 C 128.58716 307.55426 128.58405 307.55459 128.58105 307.55859 L 128.58105 307.56152 L 128.42138 307.55419 C 116.6731 307.55446 107.14912 317.0704 107.14892 328.80761 C 107.14912 340.54481 116.6731 350.05929 128.42138 350.05956 C 128.47538 350.05881 128.53211 350.0567 128.58691 350.0537 C 128.58691 350.0557 128.59609 350.05956 128.60009 350.05956 L 206.31152 350.05956 L 206.31152 350.08739 L 206.31152 350.09032 L 206.31152 350.09179 L 206.31152 350.09472 L 206.31152 350.09765 L 206.31152 350.10058 L 206.31152 350.10204 L 206.31152 350.10497 L 206.31152 350.1079 L 206.31152 350.11083 L 473.72167 350.11083 C 473.72167 350.11083 473.7827 350.12878 473.8037 350.15478 L 473.8037 350.15771 L 473.8037 350.16064 C 517.88945 350.91117 553.24062 386.82011 553.26122 430.87059 C 553.22522 447.82597 541.07995 463.83061 537.88475 478.08544 C 535.56465 488.43552 528.952 495.66795 521.3701 498.94481 C 519.48551 499.96857 517.35967 500.58803 515.10497 500.71141 C 514.26237 500.8276 513.41958 500.90199 512.57958 500.92089 L 512.37596 500.92089 C 505.06057 501.86656 499.40973 508.10975 499.41063 515.67333 C 499.41063 523.87592 506.06025 530.52672 514.26854 530.54735 L 514.26854 530.57518 L 514.29051 530.57518 C 522.49801 530.57548 529.15085 537.22305 529.15135 545.42284 C 529.15085 553.62257 522.49801 560.26866 514.29051 560.26903 L 514.26854 560.26903 L 514.26854 560.2954 C 506.05935 560.3156 499.41093 566.96733 499.41063 575.17088 C 499.41063 583.37338 506.06025 590.02566 514.26854 590.04637 L 514.26854 590.07567 L 514.29051 590.07567 C 522.49711 590.07567 529.14959 596.72419 529.14989 604.92332 C 529.14989 613.12394 522.49764 619.77361 514.28905 619.77391 L 514.26561 619.77391 L 514.26561 619.79735 C 506.05642 619.81765 499.40947 626.47083 499.40917 634.6743 C 499.40947 642.87778 506.05642 649.53055 514.26561 649.55125 L 514.26561 649.57909 L 514.28905 649.57909 C 522.49654 649.57909 529.14786 656.22818 529.14696 664.42821 C 529.14656 672.628 522.49508 679.27556 514.28758 679.27586 L 514.26415 679.27586 L 514.26415 679.30223 C 506.05496 679.32323 499.408 685.97423 499.4077 694.17772 C 499.4077 702.38005 506.05616 709.03096 514.26415 709.05174 L 514.26415 709.08397 L 514.28758 709.08397 C 522.49508 709.08427 529.14656 715.73036 529.14696 723.93016 C 529.13696 731.76723 523.03124 738.24746 515.20165 738.73094 C 514.23675 738.66494 513.27139 738.62938 512.30419 738.6284 C 488.59631 738.62825 469.37674 757.83059 469.37694 781.51609 C 469.39194 782.49389 469.44123 783.47128 469.52343 784.44578 C 469.00603 792.24657 462.52137 798.31053 454.69628 798.31053 C 446.48859 798.31023 439.83574 791.66559 439.83544 783.4658 L 439.83544 783.44383 L 439.81054 783.44383 C 439.78954 775.24254 433.12876 768.60087 424.91747 768.60057 C 416.70728 768.60057 410.05126 775.24344 410.03026 783.44383 L 409.9995 783.44383 L 409.9995 783.4658 C 409.999 791.66559 403.34479 798.31169 395.1372 798.31199 C 386.92881 798.31199 380.27519 791.66649 380.27489 783.4658 L 380.27489 783.44236 L 380.25146 783.44236 C 380.23046 775.23997 373.57048 768.5991 365.35839 768.5991 C 357.148 768.5991 350.49072 775.24187 350.46972 783.44236 L 350.44189 783.44236 L 350.44189 783.4658 C 350.44159 791.66559 343.78707 798.31169 335.57958 798.31199 C 327.37199 798.31169 320.71934 791.66559 320.71874 783.4658 L 320.71874 783.44236 L 320.69384 783.44236 C 320.67384 775.24097 314.01207 768.5994 305.80077 768.5991 C 297.59038 768.5991 290.93457 775.24187 290.91357 783.44236 L 290.88427 783.44236 L 290.88427 783.46434 C 290.88397 791.66413 284.23385 798.31169 276.02636 798.31199 C 267.81877 798.31169 261.16446 791.66413 261.16406 783.46434 L 261.16406 783.44236 L 261.13915 783.44236 C 261.11915 775.24097 254.45864 768.5994 246.24755 768.5991 C 238.03626 768.5994 231.37695 775.24087 231.35595 783.44236 L 231.33105 783.44236 L 231.33105 783.46434 C 231.33075 791.66503 224.67284 798.31153 216.46435 798.31053 C 208.25686 798.31023 201.60528 791.66413 201.60498 783.46434 L 201.60498 783.4409 L 201.58007 783.4409 C 201.55907 775.23961 194.90113 768.5994 186.68994 768.5991 C 178.47964 768.5991 171.81934 775.24051 171.79834 783.4409 L 171.77197 783.4409 L 171.77197 783.46434 C 171.77167 791.66413 165.11862 798.31023 156.91113 798.31053 C 148.70364 798.31023 142.05205 791.66413 142.05175 783.46434 L 142.05175 783.4409 L 142.02392 783.4409 C 142.00292 775.23941 135.34498 768.5994 127.13379 768.5991 C 118.92349 768.5991 112.26611 775.24051 112.24511 783.4409 L 112.21435 783.4409 L 112.21435 783.46287 C 112.21405 791.66266 105.55942 798.31023 97.352048 798.31053 L 97.384275 798.35008 C 89.244653 798.35008 82.622385 791.80344 82.529295 783.67234 C 82.573295 782.94154 82.595467 782.20738 82.605467 781.47508 C 82.605567 757.78969 63.387633 738.59016 39.679686 738.59031 C 38.616508 738.60381 37.554305 738.65633 36.495116 738.74852 C 28.824474 738.07633 22.940673 731.66269 22.930663 723.96971 C 22.930963 715.76999 29.585476 709.12235 37.792968 709.12205 L 37.81494 709.12205 L 37.81494 709.09861 C 46.023242 709.07691 52.668156 702.42422 52.668456 694.22166 C 52.668456 686.02021 46.022222 679.36807 37.81494 679.34617 L 37.81494 679.31688 L 37.792968 679.3242 C 29.585476 679.3239 22.932528 672.67927 22.932128 664.47948 C 22.932128 656.27885 29.584576 649.63065 37.792968 649.63035 L 37.81494 649.63035 L 37.81494 649.60692 C 46.024132 649.58522 52.671385 642.93051 52.671385 634.72703 C 52.671385 626.52558 46.022132 619.87345 37.81494 619.85155 L 37.81494 619.82518 L 37.792968 619.82518 C 29.584476 619.82488 22.931128 613.17814 22.932128 604.97752 C 22.932528 596.77772 29.585376 590.13025 37.792968 590.12987 L 37.816405 590.12987 L 37.816405 590.1035 C 46.024697 590.0818 52.67254 583.42912 52.67285 575.22655 C 52.67285 567.0251 46.023497 560.37442 37.816405 560.35252 L 37.816405 560.32176 L 37.794433 560.32176 C 29.586941 560.32146 22.935368 553.67384 22.935058 545.47411 C 22.935358 537.27432 29.587041 530.62968 37.794433 530.62938 L 37.816405 530.62938 L 37.816405 530.60301 C 46.024697 530.58131 52.67254 523.92725 52.67285 515.7246 C 52.67224 507.52226 46.024597 500.87101 37.816405 500.84911 L 37.816405 500.82128 L 37.794433 500.82128 C 29.586741 500.82098 22.933593 494.17192 22.933593 485.97216 C 22.943593 485.91846 22.945312 485.86357 22.945312 485.80956 C 22.907312 485.25232 22.879281 484.69358 22.863281 484.13524 C 22.863281 460.46866 42.067818 441.2836 65.756834 441.2827 C 66.736133 441.2833 67.715372 441.3167 68.692381 441.38378 L 68.692381 441.39403 C 76.445103 441.97608 82.439939 448.42908 82.439939 456.19628 L 82.439939 456.21825 L 82.466306 456.21825 C 82.488306 464.4197 89.148171 471.05565 97.359373 471.05565 C 105.56868 471.0549 112.22458 464.4179 112.24658 456.21825 L 112.27441 456.21825 L 112.27441 456.19481 C 112.27471 447.99508 118.92766 441.34746 127.13525 441.34716 C 135.34274 441.34746 141.99579 447.99508 141.99609 456.19481 L 141.99609 456.21679 L 142.02392 456.21679 C 142.04592 464.41734 148.70513 471.05535 156.91552 471.05565 C 165.12492 471.0549 171.78219 464.41635 171.80419 456.21679 L 171.83056 456.21679 L 171.83056 456.19335 C 171.83086 447.99362 178.48381 441.34599 186.6914 441.34569 C 194.89889 441.34599 201.55341 447.99362 201.55371 456.19335 L 201.55371 456.21386 L 201.57861 456.21386 C 201.60061 464.41441 208.25982 471.05096 216.47021 471.05126 C 224.6804 471.05096 231.33981 464.41441 231.36181 456.21386 L 231.38671 456.21386 L 231.38671 456.19188 C 231.38701 447.99125 238.04189 441.34469 246.25048 441.34569 C 254.45787 441.34599 261.10956 447.99215 261.10986 456.19188 L 261.10986 456.21386 L 261.13769 456.21386 C 261.15969 464.41441 267.8191 471.05096 276.02929 471.05126 C 284.23868 471.05051 290.89586 464.41341 290.91796 456.21386 L 290.94579 456.21386 L 290.94579 456.19042 C 290.94609 447.99068 297.59914 441.34306 305.80663 441.34276 C 314.01422 441.34306 320.66717 447.99068 320.66747 456.19042 L 320.66747 456.21093 L 320.69677 456.21093 C 320.71877 464.41148 327.37515 471.04803 335.58544 471.04833 C 343.79473 471.04633 350.45348 464.41048 350.47558 456.21093 L 350.50341 456.21093 L 350.50341 456.18895 C 350.50371 447.98921 357.15686 441.3416 365.36425 441.3413 C 373.57284 441.34055 380.22625 447.98831 380.22655 456.18895 L 380.22655 456.20946 L 380.25438 456.20946 C 380.27638 464.41091 386.93626 471.04686 395.14745 471.04686 C 403.35684 471.04611 410.01276 464.40902 410.03466 456.20946 L 410.06249 456.20946 L 410.06249 456.18602 C 410.06279 447.98629 416.7172 441.33867 424.92479 441.33837 C 433.13219 441.33867 439.78387 447.98629 439.78417 456.18602 L 439.78417 456.20653 L 439.81347 456.20653 C 439.83547 464.40708 446.49321 471.0451 454.7036 471.0454 C 462.91289 471.04465 469.57027 464.40607 469.59227 456.20653 L 469.62011 456.20653 L 469.62011 456.18456 C 469.62021 452.47438 470.99223 449.08974 473.24413 446.48729 C 474.08533 445.08323 475.00101 443.78317 475.94091 442.6494 C 482.4876 435.60486 492.18309 428.63608 486.93309 418.46923 C 484.2289 413.7249 478.90201 409.92196 472.42382 409.64647 C 472.36882 409.64722 472.31592 409.65226 472.26122 409.65526 C 472.26062 409.65514 472.26052 409.65479 472.26122 409.65233 C 472.26052 409.65161 472.26122 409.64894 472.26122 409.64794 L 472.26122 409.64647 L 394.54833 409.64647 L 394.55858 409.62011 L 394.55858 409.61571 L 394.55858 409.61278 L 394.55858 409.61132 L 394.55858 409.60839 L 394.55858 409.60546 L 394.55858 409.60399 L 394.55858 409.60106 L 394.55858 409.5952 L 394.55858 409.59374 L 127.14697 409.59374 C 127.11197 409.59374 127.08594 409.57503 127.06494 409.54833 L 127.06494 409.5454 L 127.06494 409.54247 L 127.06494 409.53954 C 82.980847 408.77456 47.632435 372.86892 47.611815 328.81933 C 47.643815 284.78155 82.983158 248.88658 127.05615 248.12988 L 127.05615 248.12695 L 127.05615 248.12402 L 127.05615 248.12109 L 127.05615 248.11816 C 127.07615 248.08176 127.10497 248.05517 127.14697 248.05517 L 395.92089 248.05517 L 395.92089 248.05224 L 395.92089 248.04785 L 395.92089 248.04492 L 395.92089 248.04345 L 395.92089 248.04052 L 395.92089 248.03759 L 395.92089 248.03466 L 395.92089 248.03173 L 395.92089 248.0288 L 395.92089 248.02734 L 395.90917 248.00097 L 473.69237 248.00097 C 473.70237 248.00097 473.70448 247.99811 473.70848 247.99511 L 473.70848 247.99218 L 473.86962 247.99804 C 485.61791 247.99778 495.14324 238.48476 495.14354 226.74755 C 495.14334 215.01035 485.61791 205.49439 473.86962 205.49414 C 473.81562 205.49489 473.76025 205.49553 473.70555 205.49853 L 473.70555 205.49707 C 473.70555 205.49632 473.68944 205.49414 473.68944 205.49414 C 358.50566 205.28785 234.56016 205.19357 127.12207 205.4458 C 127.08807 205.4458 127.06104 205.42639 127.04004 205.40039 L 127.04004 205.39892 L 127.04004 205.39453 L 127.04004 205.3916 C 82.960525 204.68404 47.611927 168.77664 47.591307 124.72705 C 47.622307 80.68116 82.975048 44.784236 127.05615 44.037597 L 127.05615 44.034667 L 127.05615 44.031737 L 127.05615 44.028807 C 127.08315 43.993708 130.16944 43.968749 127.16455 43.968749 C 276.7037 43.968989 430.66186 43.968809 565.19823 43.968749 L 565.19823 43.971679 L 565.19823 43.974608 L 565.20848 43.977538 C 565.26548 43.973538 565.32157 43.972214 565.37987 43.970214 C 615.88132 43.970754 657.03288 83.9264 658.90867 133.92187 C 658.86867 269.71266 659.00682 858.2534 659.00682 858.2534 C 659.08782 868.47409 668.44372 876.60143 678.67821 877.32273 L 681.7866 877.32273 C 686.9997 877.00603 691.72535 875.21252 695.25145 872.21482 C 699.02884 869.00342 701.42271 864.41208 701.57371 858.79539 L 701.57371 850.3491 L 701.57371 823.3784 C 701.54871 660.15591 701.55153 500.96371 701.56053 342.06298 L 701.56053 327.48632 L 701.56053 327.4497 C 701.57053 236.36196 701.57171 145.25275 701.57371 51.707518 L 701.57371 19.458984 C 701.57371 15.400638 700.25496 11.663843 698.02147 8.6572263 C 697.84947 8.4259766 697.67086 8.1985438 697.48826 7.976074 C 697.30596 7.7536142 697.11846 7.5359935 696.92576 7.3227537 C 696.73306 7.1095139 696.53667 6.9009853 696.33397 6.6972655 C 696.19797 6.5605356 696.05552 6.429673 695.91502 6.2973631 C 695.84302 6.2290632 695.77425 6.1589749 695.70115 6.092285 C 695.28045 5.7087054 694.84036 5.3448309 694.38426 5.0024413 C 693.92426 4.6569616 693.44757 4.3332644 692.95457 4.0327147 C 692.70817 3.8824749 692.45887 3.7375809 692.20457 3.599121 C 689.66327 2.2145824 686.74726 1.4296875 683.64256 1.4296875 L 683.64256 1.4194336 L 683.62498 1.4194336 L 351.48632 1.4194336 L 19.350585 1.4179687 z M 680.91063 25.511718 A 7.0866141 7.0866141 0 0 1 687.99754 32.598632 A 7.0866141 7.0866141 0 0 1 680.91063 39.685546 A 7.0866141 7.0866141 0 0 1 673.82518 32.598632 A 7.0866141 7.0866141 0 0 1 680.91063 25.511718 z M 33.922851 34.511718 A 7.0866141 7.0866141 0 0 1 41.0083 41.598632 A 7.0866141 7.0866141 0 0 1 33.922851 48.685546 A 7.0866141 7.0866141 0 0 1 26.835937 41.598632 A 7.0866141 7.0866141 0 0 1 33.922851 34.511718 z M 131.41406 114.84521 A 7.0866141 7.0866141 0 0 1 138.50097 121.93213 A 7.0866141 7.0866141 0 0 1 131.41406 129.01757 A 7.0866141 7.0866141 0 0 1 124.32715 121.93213 A 7.0866141 7.0866141 0 0 1 131.41406 114.84521 z M 467.59569 217.95117 A 7.0866141 7.0866141 0 0 1 474.68261 225.03808 A 7.0866141 7.0866141 0 0 1 467.59569 232.12499 A 7.0866141 7.0866141 0 0 1 460.51024 225.03808 A 7.0866141 7.0866141 0 0 1 467.59569 217.95117 z M 26.929687 313.8164 A 7.0866141 7.0866141 0 0 1 34.015136 320.90185 A 7.0866141 7.0866141 0 0 1 26.929687 327.98876 A 7.0866141 7.0866141 0 0 1 19.842773 320.90185 A 7.0866141 7.0866141 0 0 1 26.929687 313.8164 z M 132.98144 320.43603 A 7.0866141 7.0866141 0 0 1 140.06836 327.52294 A 7.0866141 7.0866141 0 0 1 132.98144 334.60985 A 7.0866141 7.0866141 0 0 1 125.89599 327.52294 A 7.0866141 7.0866141 0 0 1 132.98144 320.43603 z M 441.35595 418.11034 A 7.0866141 7.0866141 0 0 1 448.44139 425.19725 A 7.0866141 7.0866141 0 0 1 441.35595 432.28417 A 7.0866141 7.0866141 0 0 1 434.26903 425.19725 A 7.0866141 7.0866141 0 0 1 441.35595 418.11034 z M 680.91063 428.26171 A 7.0866141 7.0866141 0 0 1 687.99754 435.34862 A 7.0866141 7.0866141 0 0 1 680.91063 442.43554 A 7.0866141 7.0866141 0 0 1 673.82518 435.34862 A 7.0866141 7.0866141 0 0 1 680.91063 428.26171 z M 561.92284 723.0117 A 7.0866141 7.0866141 0 0 1 569.00829 730.09861 A 7.0866141 7.0866141 0 0 1 561.92284 737.18553 A 7.0866141 7.0866141 0 0 1 554.83592 730.09861 A 7.0866141 7.0866141 0 0 1 561.92284 723.0117 z M 30.172851 834.0117 A 7.0866141 7.0866141 0 0 1 37.2583 841.09861 A 7.0866141 7.0866141 0 0 1 30.172851 848.18553 A 7.0866141 7.0866141 0 0 1 23.085937 841.09861 A 7.0866141 7.0866141 0 0 1 30.172851 834.0117 z M 680.91063 840.7617 A 7.0866141 7.0866141 0 0 1 687.99754 847.84861 A 7.0866141 7.0866141 0 0 1 680.91063 854.93553 A 7.0866141 7.0866141 0 0 1 673.82518 847.84861 A 7.0866141 7.0866141 0 0 1 680.91063 840.7617 z " /></g></svg>
