<?xml version="1.0" encoding="UTF-8" standalone="no"?>
<svg
   xmlns:dc="http://purl.org/dc/elements/1.1/"
   xmlns:cc="http://creativecommons.org/ns#"
   xmlns:rdf="http://www.w3.org/1999/02/22-rdf-syntax-ns#"
   xmlns:svg="http://www.w3.org/2000/svg"
   xmlns="http://www.w3.org/2000/svg"
   xmlns:sodipodi="http://sodipodi.sourceforge.net/DTD/sodipodi-0.dtd"
   xmlns:inkscape="http://www.inkscape.org/namespaces/inkscape"
   version="1.1"
   inkscape:output_extension="org.inkscape.output.svg.inkscape"
   sodipodi:docname="OddFull.svg"
   inkscape:version="1.0 (4035a4fb49, 2020-05-01)"
   sodipodi:version="0.32"
   id="svg2338"
   xml:space="preserve"
   viewBox="0 0 1116.852 1116.85"
   height="1116.85pt"
   width="1116.852pt"><metadata
     id="metadata2382"><rdf:RDF><cc:Work
         rdf:about=""><dc:format>image/svg+xml</dc:format><dc:type
           rdf:resource="http://purl.org/dc/dcmitype/StillImage" /><dc:title></dc:title></cc:Work></rdf:RDF></metadata><defs
     id="defs2380"><inkscape:perspective
       id="perspective46224"
       inkscape:persp3d-origin="698.03253 : 465.35417 : 1"
       inkscape:vp_z="1396.0651 : 698.03125 : 1"
       inkscape:vp_y="0 : 1000 : 0"
       inkscape:vp_x="0 : 698.03125 : 1"
       sodipodi:type="inkscape:persp3d" /><inkscape:perspective
       id="perspective37556-9"
       inkscape:persp3d-origin="338.38562 : 225.59001 : 1"
       inkscape:vp_z="676.77124 : 338.38501 : 1"
       inkscape:vp_y="0 : 1000 : 0"
       inkscape:vp_x="0 : 338.38501 : 1"
       sodipodi:type="inkscape:persp3d" /><inkscape:perspective
       id="perspective16301-9"
       inkscape:persp3d-origin="338.38562 : 225.59001 : 1"
       inkscape:vp_z="676.77124 : 338.38501 : 1"
       inkscape:vp_y="0 : 1000 : 0"
       inkscape:vp_x="0 : 338.38501 : 1"
       sodipodi:type="inkscape:persp3d" /><inkscape:perspective
       id="perspective12409-1"
       inkscape:persp3d-origin="270.7085 : 180.47233 : 1"
       inkscape:vp_z="541.41699 : 270.7085 : 1"
       inkscape:vp_y="0 : 1000 : 0"
       inkscape:vp_x="0 : 270.7085 : 1"
       sodipodi:type="inkscape:persp3d" /><inkscape:perspective
       id="perspective9337-7"
       inkscape:persp3d-origin="0.5 : 0.33333333 : 1"
       inkscape:vp_z="1 : 0.5 : 1"
       inkscape:vp_y="0 : 1000 : 0"
       inkscape:vp_x="0 : 0.5 : 1"
       sodipodi:type="inkscape:persp3d" /><inkscape:perspective
       id="perspective8562-2"
       inkscape:persp3d-origin="0.5 : 0.33333333 : 1"
       inkscape:vp_z="1 : 0.5 : 1"
       inkscape:vp_y="0 : 1000 : 0"
       inkscape:vp_x="0 : 0.5 : 1"
       sodipodi:type="inkscape:persp3d" /><inkscape:perspective
       sodipodi:type="inkscape:persp3d"
       inkscape:vp_x="0 : 338.38501 : 1"
       inkscape:vp_y="0 : 1000 : 0"
       inkscape:vp_z="676.77124 : 338.38501 : 1"
       inkscape:persp3d-origin="338.38562 : 225.59001 : 1"
       id="perspective3083-3" /><inkscape:perspective
       sodipodi:type="inkscape:persp3d"
       inkscape:vp_x="0 : 270.7085 : 1"
       inkscape:vp_y="0 : 1000 : 0"
       inkscape:vp_z="541.41699 : 270.7085 : 1"
       inkscape:persp3d-origin="270.7085 : 180.47233 : 1"
       id="perspective23419-6" /><inkscape:perspective
       sodipodi:type="inkscape:persp3d"
       inkscape:vp_x="0 : 338.38501 : 1"
       inkscape:vp_y="0 : 1000 : 0"
       inkscape:vp_z="676.77124 : 338.38501 : 1"
       inkscape:persp3d-origin="338.38562 : 225.59001 : 1"
       id="perspective27913-5" /><inkscape:perspective
       id="perspective27913"
       inkscape:persp3d-origin="338.38562 : 225.59001 : 1"
       inkscape:vp_z="676.77124 : 338.38501 : 1"
       inkscape:vp_y="0 : 1000 : 0"
       inkscape:vp_x="0 : 338.38501 : 1"
       sodipodi:type="inkscape:persp3d" /><inkscape:perspective
       id="perspective23419"
       inkscape:persp3d-origin="270.7085 : 180.47233 : 1"
       inkscape:vp_z="541.41699 : 270.7085 : 1"
       inkscape:vp_y="0 : 1000 : 0"
       inkscape:vp_x="0 : 270.7085 : 1"
       sodipodi:type="inkscape:persp3d" /><inkscape:perspective
       id="perspective3083"
       inkscape:persp3d-origin="338.38562 : 225.59001 : 1"
       inkscape:vp_z="676.77124 : 338.38501 : 1"
       inkscape:vp_y="0 : 1000 : 0"
       inkscape:vp_x="0 : 338.38501 : 1"
       sodipodi:type="inkscape:persp3d" /><inkscape:perspective
       sodipodi:type="inkscape:persp3d"
       inkscape:vp_x="0 : 0.5 : 1"
       inkscape:vp_y="0 : 1000 : 0"
       inkscape:vp_z="1 : 0.5 : 1"
       inkscape:persp3d-origin="0.5 : 0.33333333 : 1"
       id="perspective8562" /><inkscape:perspective
       sodipodi:type="inkscape:persp3d"
       inkscape:vp_x="0 : 0.5 : 1"
       inkscape:vp_y="0 : 1000 : 0"
       inkscape:vp_z="1 : 0.5 : 1"
       inkscape:persp3d-origin="0.5 : 0.33333333 : 1"
       id="perspective9337" /><inkscape:perspective
       sodipodi:type="inkscape:persp3d"
       inkscape:vp_x="0 : 270.7085 : 1"
       inkscape:vp_y="0 : 1000 : 0"
       inkscape:vp_z="541.41699 : 270.7085 : 1"
       inkscape:persp3d-origin="270.7085 : 180.47233 : 1"
       id="perspective12409" /><inkscape:perspective
       sodipodi:type="inkscape:persp3d"
       inkscape:vp_x="0 : 338.38501 : 1"
       inkscape:vp_y="0 : 1000 : 0"
       inkscape:vp_z="676.77124 : 338.38501 : 1"
       inkscape:persp3d-origin="338.38562 : 225.59001 : 1"
       id="perspective16301" /><inkscape:perspective
       sodipodi:type="inkscape:persp3d"
       inkscape:vp_x="0 : 338.38501 : 1"
       inkscape:vp_y="0 : 1000 : 0"
       inkscape:vp_z="676.77124 : 338.38501 : 1"
       inkscape:persp3d-origin="338.38562 : 225.59001 : 1"
       id="perspective37556" /><inkscape:perspective
       sodipodi:type="inkscape:persp3d"
       inkscape:vp_x="0 : 270.70999 : 1"
       inkscape:vp_y="0 : 1000 : 0"
       inkscape:vp_z="541.41998 : 270.70999 : 1"
       inkscape:persp3d-origin="270.70999 : 180.47333 : 1"
       id="perspective51446" /><inkscape:perspective
       id="perspective37556-9-8"
       inkscape:persp3d-origin="338.38562 : 225.59001 : 1"
       inkscape:vp_z="676.77124 : 338.38501 : 1"
       inkscape:vp_y="0 : 1000 : 0"
       inkscape:vp_x="0 : 338.38501 : 1"
       sodipodi:type="inkscape:persp3d" /><inkscape:perspective
       id="perspective16301-9-1"
       inkscape:persp3d-origin="338.38562 : 225.59001 : 1"
       inkscape:vp_z="676.77124 : 338.38501 : 1"
       inkscape:vp_y="0 : 1000 : 0"
       inkscape:vp_x="0 : 338.38501 : 1"
       sodipodi:type="inkscape:persp3d" /><inkscape:perspective
       id="perspective12409-1-2"
       inkscape:persp3d-origin="270.7085 : 180.47233 : 1"
       inkscape:vp_z="541.41699 : 270.7085 : 1"
       inkscape:vp_y="0 : 1000 : 0"
       inkscape:vp_x="0 : 270.7085 : 1"
       sodipodi:type="inkscape:persp3d" /><inkscape:perspective
       id="perspective9337-7-0"
       inkscape:persp3d-origin="0.5 : 0.33333333 : 1"
       inkscape:vp_z="1 : 0.5 : 1"
       inkscape:vp_y="0 : 1000 : 0"
       inkscape:vp_x="0 : 0.5 : 1"
       sodipodi:type="inkscape:persp3d" /><inkscape:perspective
       id="perspective8562-2-5"
       inkscape:persp3d-origin="0.5 : 0.33333333 : 1"
       inkscape:vp_z="1 : 0.5 : 1"
       inkscape:vp_y="0 : 1000 : 0"
       inkscape:vp_x="0 : 0.5 : 1"
       sodipodi:type="inkscape:persp3d" /><inkscape:perspective
       sodipodi:type="inkscape:persp3d"
       inkscape:vp_x="0 : 338.38501 : 1"
       inkscape:vp_y="0 : 1000 : 0"
       inkscape:vp_z="676.77124 : 338.38501 : 1"
       inkscape:persp3d-origin="338.38562 : 225.59001 : 1"
       id="perspective3083-3-7" /><inkscape:perspective
       sodipodi:type="inkscape:persp3d"
       inkscape:vp_x="0 : 270.7085 : 1"
       inkscape:vp_y="0 : 1000 : 0"
       inkscape:vp_z="541.41699 : 270.7085 : 1"
       inkscape:persp3d-origin="270.7085 : 180.47233 : 1"
       id="perspective23419-6-3" /><inkscape:perspective
       sodipodi:type="inkscape:persp3d"
       inkscape:vp_x="0 : 338.38501 : 1"
       inkscape:vp_y="0 : 1000 : 0"
       inkscape:vp_z="676.77124 : 338.38501 : 1"
       inkscape:persp3d-origin="338.38562 : 225.59001 : 1"
       id="perspective27913-5-7" /><inkscape:perspective
       id="perspective27913-9"
       inkscape:persp3d-origin="338.38562 : 225.59001 : 1"
       inkscape:vp_z="676.77124 : 338.38501 : 1"
       inkscape:vp_y="0 : 1000 : 0"
       inkscape:vp_x="0 : 338.38501 : 1"
       sodipodi:type="inkscape:persp3d" /><inkscape:perspective
       id="perspective23419-3"
       inkscape:persp3d-origin="270.7085 : 180.47233 : 1"
       inkscape:vp_z="541.41699 : 270.7085 : 1"
       inkscape:vp_y="0 : 1000 : 0"
       inkscape:vp_x="0 : 270.7085 : 1"
       sodipodi:type="inkscape:persp3d" /><inkscape:perspective
       id="perspective3083-1"
       inkscape:persp3d-origin="338.38562 : 225.59001 : 1"
       inkscape:vp_z="676.77124 : 338.38501 : 1"
       inkscape:vp_y="0 : 1000 : 0"
       inkscape:vp_x="0 : 338.38501 : 1"
       sodipodi:type="inkscape:persp3d" /><inkscape:perspective
       sodipodi:type="inkscape:persp3d"
       inkscape:vp_x="0 : 0.5 : 1"
       inkscape:vp_y="0 : 1000 : 0"
       inkscape:vp_z="1 : 0.5 : 1"
       inkscape:persp3d-origin="0.5 : 0.33333333 : 1"
       id="perspective8562-25" /><inkscape:perspective
       sodipodi:type="inkscape:persp3d"
       inkscape:vp_x="0 : 0.5 : 1"
       inkscape:vp_y="0 : 1000 : 0"
       inkscape:vp_z="1 : 0.5 : 1"
       inkscape:persp3d-origin="0.5 : 0.33333333 : 1"
       id="perspective9337-6" /><inkscape:perspective
       sodipodi:type="inkscape:persp3d"
       inkscape:vp_x="0 : 270.7085 : 1"
       inkscape:vp_y="0 : 1000 : 0"
       inkscape:vp_z="541.41699 : 270.7085 : 1"
       inkscape:persp3d-origin="270.7085 : 180.47233 : 1"
       id="perspective12409-8" /><inkscape:perspective
       sodipodi:type="inkscape:persp3d"
       inkscape:vp_x="0 : 338.38501 : 1"
       inkscape:vp_y="0 : 1000 : 0"
       inkscape:vp_z="676.77124 : 338.38501 : 1"
       inkscape:persp3d-origin="338.38562 : 225.59001 : 1"
       id="perspective16301-5" /><inkscape:perspective
       sodipodi:type="inkscape:persp3d"
       inkscape:vp_x="0 : 338.38501 : 1"
       inkscape:vp_y="0 : 1000 : 0"
       inkscape:vp_z="676.77124 : 338.38501 : 1"
       inkscape:persp3d-origin="338.38562 : 225.59001 : 1"
       id="perspective37556-4" /><inkscape:perspective
       id="perspective37556-9-1"
       inkscape:persp3d-origin="338.38562 : 225.59001 : 1"
       inkscape:vp_z="676.77124 : 338.38501 : 1"
       inkscape:vp_y="0 : 1000 : 0"
       inkscape:vp_x="0 : 338.38501 : 1"
       sodipodi:type="inkscape:persp3d" /><inkscape:perspective
       id="perspective16301-9-3"
       inkscape:persp3d-origin="338.38562 : 225.59001 : 1"
       inkscape:vp_z="676.77124 : 338.38501 : 1"
       inkscape:vp_y="0 : 1000 : 0"
       inkscape:vp_x="0 : 338.38501 : 1"
       sodipodi:type="inkscape:persp3d" /><inkscape:perspective
       id="perspective12409-1-9"
       inkscape:persp3d-origin="270.7085 : 180.47233 : 1"
       inkscape:vp_z="541.41699 : 270.7085 : 1"
       inkscape:vp_y="0 : 1000 : 0"
       inkscape:vp_x="0 : 270.7085 : 1"
       sodipodi:type="inkscape:persp3d" /><inkscape:perspective
       id="perspective9337-7-1"
       inkscape:persp3d-origin="0.5 : 0.33333333 : 1"
       inkscape:vp_z="1 : 0.5 : 1"
       inkscape:vp_y="0 : 1000 : 0"
       inkscape:vp_x="0 : 0.5 : 1"
       sodipodi:type="inkscape:persp3d" /><inkscape:perspective
       id="perspective8562-2-7"
       inkscape:persp3d-origin="0.5 : 0.33333333 : 1"
       inkscape:vp_z="1 : 0.5 : 1"
       inkscape:vp_y="0 : 1000 : 0"
       inkscape:vp_x="0 : 0.5 : 1"
       sodipodi:type="inkscape:persp3d" /><inkscape:perspective
       sodipodi:type="inkscape:persp3d"
       inkscape:vp_x="0 : 338.38501 : 1"
       inkscape:vp_y="0 : 1000 : 0"
       inkscape:vp_z="676.77124 : 338.38501 : 1"
       inkscape:persp3d-origin="338.38562 : 225.59001 : 1"
       id="perspective3083-3-8" /><inkscape:perspective
       sodipodi:type="inkscape:persp3d"
       inkscape:vp_x="0 : 270.7085 : 1"
       inkscape:vp_y="0 : 1000 : 0"
       inkscape:vp_z="541.41699 : 270.7085 : 1"
       inkscape:persp3d-origin="270.7085 : 180.47233 : 1"
       id="perspective23419-6-8" /><inkscape:perspective
       sodipodi:type="inkscape:persp3d"
       inkscape:vp_x="0 : 338.38501 : 1"
       inkscape:vp_y="0 : 1000 : 0"
       inkscape:vp_z="676.77124 : 338.38501 : 1"
       inkscape:persp3d-origin="338.38562 : 225.59001 : 1"
       id="perspective27913-5-4" /><inkscape:perspective
       id="perspective27913-1"
       inkscape:persp3d-origin="338.38562 : 225.59001 : 1"
       inkscape:vp_z="676.77124 : 338.38501 : 1"
       inkscape:vp_y="0 : 1000 : 0"
       inkscape:vp_x="0 : 338.38501 : 1"
       sodipodi:type="inkscape:persp3d" /><inkscape:perspective
       id="perspective23419-9"
       inkscape:persp3d-origin="270.7085 : 180.47233 : 1"
       inkscape:vp_z="541.41699 : 270.7085 : 1"
       inkscape:vp_y="0 : 1000 : 0"
       inkscape:vp_x="0 : 270.7085 : 1"
       sodipodi:type="inkscape:persp3d" /><inkscape:perspective
       id="perspective3083-8"
       inkscape:persp3d-origin="338.38562 : 225.59001 : 1"
       inkscape:vp_z="676.77124 : 338.38501 : 1"
       inkscape:vp_y="0 : 1000 : 0"
       inkscape:vp_x="0 : 338.38501 : 1"
       sodipodi:type="inkscape:persp3d" /><inkscape:perspective
       sodipodi:type="inkscape:persp3d"
       inkscape:vp_x="0 : 0.5 : 1"
       inkscape:vp_y="0 : 1000 : 0"
       inkscape:vp_z="1 : 0.5 : 1"
       inkscape:persp3d-origin="0.5 : 0.33333333 : 1"
       id="perspective8562-6" /><inkscape:perspective
       sodipodi:type="inkscape:persp3d"
       inkscape:vp_x="0 : 0.5 : 1"
       inkscape:vp_y="0 : 1000 : 0"
       inkscape:vp_z="1 : 0.5 : 1"
       inkscape:persp3d-origin="0.5 : 0.33333333 : 1"
       id="perspective9337-2" /><inkscape:perspective
       sodipodi:type="inkscape:persp3d"
       inkscape:vp_x="0 : 270.7085 : 1"
       inkscape:vp_y="0 : 1000 : 0"
       inkscape:vp_z="541.41699 : 270.7085 : 1"
       inkscape:persp3d-origin="270.7085 : 180.47233 : 1"
       id="perspective12409-3" /><inkscape:perspective
       sodipodi:type="inkscape:persp3d"
       inkscape:vp_x="0 : 338.38501 : 1"
       inkscape:vp_y="0 : 1000 : 0"
       inkscape:vp_z="676.77124 : 338.38501 : 1"
       inkscape:persp3d-origin="338.38562 : 225.59001 : 1"
       id="perspective16301-56" /><inkscape:perspective
       sodipodi:type="inkscape:persp3d"
       inkscape:vp_x="0 : 338.38501 : 1"
       inkscape:vp_y="0 : 1000 : 0"
       inkscape:vp_z="676.77124 : 338.38501 : 1"
       inkscape:persp3d-origin="338.38562 : 225.59001 : 1"
       id="perspective37556-5" /><inkscape:perspective
       sodipodi:type="inkscape:persp3d"
       inkscape:vp_x="0 : 0.5 : 1"
       inkscape:vp_y="0 : 1000 : 0"
       inkscape:vp_z="1 : 0.5 : 1"
       inkscape:persp3d-origin="0.5 : 0.33333333 : 1"
       id="perspective10328" /><inkscape:perspective
       sodipodi:type="inkscape:persp3d"
       inkscape:vp_x="0 : 0.5 : 1"
       inkscape:vp_y="0 : 1000 : 0"
       inkscape:vp_z="1 : 0.5 : 1"
       inkscape:persp3d-origin="0.5 : 0.33333333 : 1"
       id="perspective11034" /><inkscape:perspective
       sodipodi:type="inkscape:persp3d"
       inkscape:vp_x="0 : 0.5 : 1"
       inkscape:vp_y="0 : 1000 : 0"
       inkscape:vp_z="1 : 0.5 : 1"
       inkscape:persp3d-origin="0.5 : 0.33333333 : 1"
       id="perspective3083-7" /><inkscape:perspective
       sodipodi:type="inkscape:persp3d"
       inkscape:vp_x="0 : 0.5 : 1"
       inkscape:vp_y="0 : 1000 : 0"
       inkscape:vp_z="1 : 0.5 : 1"
       inkscape:persp3d-origin="0.5 : 0.33333333 : 1"
       id="perspective2997" /></defs><sodipodi:namedview
     showguides="false"
     inkscape:document-rotation="0"
     inkscape:document-units="mm"
     inkscape:window-maximized="1"
     showgrid="false"
     inkscape:current-layer="layer10"
     inkscape:window-y="-8"
     inkscape:window-x="-8"
     inkscape:cy="2491.8801"
     inkscape:cx="3035.7829"
     inkscape:zoom="0.1767767"
     id="base"
     pagecolor="#ffffff"
     bordercolor="#666666"
     borderopacity="1.0"
     objecttolerance="10.0"
     gridtolerance="10.0"
     guidetolerance="10.0"
     inkscape:pageopacity="0.0"
     inkscape:pageshadow="2"
     inkscape:window-width="1920"
     inkscape:window-height="1017" /><g
     inkscape:label="Design Template"
     id="layer10"
     inkscape:groupmode="layer"><path
       d="m 915.55228,243.04487 v 0.0103 c -3.1015,0 -6.0144,0.78501 -8.5533,2.16943 -0.2538,0.13845 -0.5037,0.28336 -0.75,0.43359 -0.2454,0.14992 -0.48611,0.30457 -0.7236,0.46582 -0.05,0.0337 -0.097,0.0697 -0.14641,0.104 -0.1875,0.13005 -0.3746,0.26289 -0.5567,0.39991 -0.01,0.008 -0.02,0.0145 -0.031,0.022 -0.44509,0.33593 -0.875,0.6925 -1.2862,1.06787 -0.073,0.0668 -0.142,0.13728 -0.2138,0.20508 -0.1403,0.1323 -0.2817,0.26318 -0.4176,0.3999 -0.2023,0.2037 -0.3993,0.41227 -0.5917,0.62549 -0.18949,0.20978 -0.37429,0.42445 -0.5537,0.64307 -0.055,0.0668 -0.1057,0.13734 -0.1597,0.20508 -0.1281,0.1608 -0.2582,0.32102 -0.3809,0.48632 -0.6866,0.92505 -1.2867,1.91935 -1.7886,2.9707 -1.1292,2.36565 -1.7607,5.02017 -1.7607,7.82959 v 29.94287 c 0,94.36426 0.01,186.20741 0.013,278.06103 10e-5,0.47518 0,0.96329 0,1.43848 0.4042,8.36137 4.1774,17.10325 11.15041,24.07617 l 22.4399,22.43701 c 3.2315,3.26954 5.0012,7.70875 4.9073,12.30469 -0.088,4.32807 -1.8232,8.45991 -4.8516,11.55322 l -22.4956,22.4956 c -7.057,7.05701 -10.8272,15.92486 -11.1533,24.37793 0.01,124.8107 0.01,249.26338 -0.01,377.16788 v 26.9693 8.4448 c 0.1509,5.6163 2.5428,10.2083 6.3163,13.4195 3.5191,2.9944 8.2354,4.7857 13.437,5.1049 h 411.75152 0.037 22.5307 c 79.2849,-0.7078 143.1989,-65.2381 143.25,-144.52436 h 0.011 l -0.011,-0.009 c 0,3e-4 5e-4,0 0.011,0 0.01,0 0.014,0.009 0.014,0.009 v -0.009 -0.0187 -0.18315 c 0,-1.4472 -1e-4,-3.05302 0,-4.26855 2e-4,-3.0645 5e-4,-7.6362 0,-13.5234 0,-11.77455 3e-4,-28.81004 0.011,-49.55714 0,-41.49405 0.011,-97.84185 0.015,-156.67823 0.01,-117.67284 0.019,-245.29878 0.019,-283.957 v -0.003 -10e-4 -0.003 -0.003 -0.003 -0.002 -0.003 l -0.023,0.0103 v -57.31788 -0.0176 -0.003 c -0.013,-1.81984 -0.1041,-3.63713 -0.2725,-5.44922 -0.1,-1.03047 -0.2249,-2.05912 -0.375,-3.0835 -0.1353,-1.08708 -0.2981,-2.17032 -0.4892,-3.24902 -0.201,-1.00548 -0.4263,-2.00533 -0.6753,-3 -0.2438,-1.06876 -0.5145,-2.13124 -0.813,-3.18603 -0.3039,-0.99637 -0.6319,-1.98593 -0.9844,-2.96631 -0.3425,-1.01795 -0.711,-2.02562 -1.1045,-3.0249 v -0.003 c -0.4045,-0.96687 -0.8329,-1.92241 -1.2847,-2.86816 -0.4476,-0.99028 -0.9217,-1.96946 -1.4194,-2.93555 -0.4851,-0.89579 -0.9916,-1.78129 -1.519,-2.65283 -0.5544,-0.95888 -1.1323,-1.90282 -1.7359,-2.83154 -0.5703,-0.83835 -1.16,-1.66098 -1.7696,-2.47119 -0.648,-0.90116 -1.3184,-1.78673 -2.0126,-2.65283 -0.6618,-0.79002 -1.3426,-1.56335 -2.042,-2.32032 -0.7166,-0.81023 -1.455,-1.6018 -2.2119,-2.37451 v -0.003 c -0.7518,-0.7363 -1.5213,-1.4537 -2.3086,-2.15186 -0.7923,-0.73153 -1.6019,-1.44237 -2.4302,-2.13281 -0.8067,-0.64504 -1.6312,-1.26991 -2.4683,-1.875 -0.872,-0.65802 -1.7599,-1.29488 -2.6645,-1.90723 -0.8598,-0.55623 -1.7306,-1.09126 -2.6162,-1.60546 -0.9413,-0.57324 -1.9,-1.12131 -2.8697,-1.64502 -0.9212,-0.47274 -1.8519,-0.92179 -2.7948,-1.34912 -0.9749,-0.4665 -1.9633,-0.90933 -2.9605,-1.32569 -0.9641,-0.37842 -1.9366,-0.73393 -2.918,-1.06494 -1.034,-0.37387 -2.0769,-0.72158 -3.1289,-1.0415 -0.9862,-0.27705 -1.9782,-0.52955 -2.9766,-0.75879 -1.0572,-0.26556 -2.1209,-0.50381 -3.1904,-0.71484 -1.0258,-0.1815 -2.0558,-0.33774 -3.0893,-0.46875 -1.0717,-0.15786 -2.1472,-0.28804 -3.2256,-0.39112 -1.8012,-0.16666 -3.6098,-0.25654 -5.4185,-0.26953 h -0.02 -57.2213 l 0.01,-0.0249 v -0.003 -0.003 -0.002 -0.002 -0.003 -0.003 -0.003 -0.003 -0.003 -0.002 -0.003 -0.003 h -271.6291 v 0.003 0.003 0.002 0.003 0.003 0.003 0.003 0.003 0.002 0.002 0.003 0.003 c -25.8065,0.0559 -51.8133,0.0278 -77.6924,0.0278 -0.01,0 -0.014,0.004 -0.017,0.006 v 10e-4 l -0.1626,-0.007 c -11.7363,2.6e-4 -21.2488,9.51571 -21.2491,21.25195 3e-4,11.73627 9.5128,21.24875 21.2491,21.24902 0.054,-0.002 0.1106,-0.001 0.1655,-0.005 v 0.002 c 7e-4,5.5e-4 0,7.5e-4 0,0.003 7e-4,3.6e-4 0,0.004 0,0.005 116.202,0.0102 239.5819,0.0512 344.7817,0.0498 v 0.002 c 0,7.5e-4 0.01,0.005 0.015,0.006 l 0.1274,-0.006 c 44.5979,1.9e-4 80.7522,36.15309 80.7524,80.75098 -2e-4,44.59791 -36.1545,80.75079 -80.7524,80.75098 -0.048,3e-5 -0.097,3e-5 -0.1451,0 h -267.0705 v 0.003 0.003 0.001 0.003 0.003 10e-4 0.002 0.005 0.003 0.003 0.003 l 0.01,0.0264 h -77.7026 c -0.01,7e-5 -0.014,10e-4 -0.017,0.005 v 0.003 l -0.1597,-0.007 c -11.7363,2.7e-4 -21.2503,9.5142 -21.2505,21.25048 2e-4,11.73627 9.5142,21.25022 21.2505,21.25049 0.054,-7.5e-4 0.1108,-0.003 0.1655,-0.006 0,0.002 0.01,0.006 0.014,0.006 h 77.6309 v 0.0278 0.003 10e-4 0.003 0.003 10e-4 0.003 10e-4 0.003 0.003 0.003 h 267.1377 c 0,0 0.061,0.0179 0.082,0.0439 v 0.003 0.003 c 44.0407,0.75048 79.3549,36.65562 79.3755,80.70263 -0.036,16.95402 -12.1684,32.95821 -15.3604,47.21191 -2.3177,10.34926 -8.9243,17.58131 -16.4985,20.85791 -1.8826,1.02368 -4.0054,1.64322 -6.2578,1.76659 -0.8417,0.11618 -1.6847,0.19058 -2.5239,0.20948 h -0.2022 c -7.3079,0.9456 -12.953,7.188 -12.9521,14.75099 0,8.20193 6.6419,14.85195 14.8418,14.87258 v 0.0278 h 0.022 c 8.1991,3e-4 14.8457,6.64702 14.8462,14.84617 -5e-4,8.19908 -6.6471,14.84438 -14.8462,14.84475 h -0.022 v 0.0263 c -8.2008,0.0202 -14.8415,6.67118 -14.8418,14.87408 0,8.20185 6.6419,14.85472 14.8418,14.87542 v 0.0292 h 0.022 c 8.1982,0 14.8444,6.6477 14.8447,14.84618 0,8.19997 -6.646,14.84887 -14.8462,14.84917 h -0.023 v 0.0233 c -8.2008,0.0203 -14.8415,6.67268 -14.8418,14.8755 3e-4,8.20283 6.641,14.85623 14.8418,14.87693 v 0.0277 h 0.023 c 8.1991,0 14.8442,6.6483 14.8433,14.84767 -4e-4,8.19915 -6.6456,14.84588 -14.8447,14.84618 h -0.023 v 0.0263 c -8.2008,0.021 -14.8416,6.67117 -14.8419,14.874 0,8.20169 6.6423,14.85322 14.8419,14.87399 v 0.0308 h 0.023 c 8.1991,3e-4 14.8443,6.64703 14.8447,14.84618 -0.01,7.83645 -6.1091,14.31585 -13.9307,14.7993 -0.9639,-0.066 -1.9283,-0.10155 -2.8945,-0.10253 -23.6836,-1.5e-4 -42.8835,19.20113 -42.8833,42.8848 0.015,0.9777 0.063,1.9538 0.1451,2.9282 -0.5169,7.8002 -6.994,13.8647 -14.8111,13.8647 -8.1993,-3e-4 -14.8459,-6.6456 -14.8462,-14.8447 v -0.022 h -0.025 c -0.021,-8.2006 -6.6741,-14.8414 -14.877,-14.8417 -8.2018,0 -14.8515,6.642 -14.8725,14.8417 h -0.031 v 0.022 c -5e-4,8.1991 -6.647,14.8459 -14.8462,14.8462 -8.2,0 -14.8473,-6.6462 -14.8476,-14.8462 v -0.023 h -0.023 c -0.021,-8.2017 -6.6747,-14.8418 -14.8784,-14.8418 -8.202,0 -14.8516,6.642 -14.8726,14.8418 h -0.029 v 0.023 c -3e-4,8.1991 -6.6471,14.8459 -14.8462,14.8462 -8.1992,-3e-4 -14.8457,-6.6471 -14.8463,-14.8462 v -0.023 h -0.025 c -0.02,-8.2007 -6.6741,-14.8415 -14.8769,-14.8418 -8.202,0 -14.8516,6.642 -14.8726,14.8418 h -0.029 v 0.022 c -3e-4,8.1991 -6.6441,14.8459 -14.8432,14.8462 -8.1992,-3e-4 -14.8458,-6.6471 -14.8462,-14.8462 v -0.022 h -0.026 c -0.02,-8.2007 -6.6728,-14.8415 -14.8755,-14.8418 -8.2029,3e-4 -14.856,6.641 -14.877,14.8418 h -0.025 v 0.022 c -3e-4,8.2 -6.6505,14.8457 -14.8506,14.8447 -8.1991,-3e-4 -14.8444,-6.6456 -14.8447,-14.8447 v -0.023 h -0.025 c -0.021,-8.2006 -6.6727,-14.8414 -14.8755,-14.8417 -8.2019,0 -14.8545,6.642 -14.8755,14.8417 h -0.026 v 0.023 c -3e-4,8.1991 -6.6471,14.8444 -14.8462,14.8447 -8.1991,-3e-4 -14.8444,-6.6456 -14.8447,-14.8447 v -0.023 h -0.028 c -0.021,-8.2008 -6.6713,-14.8414 -14.8741,-14.8417 -8.2019,0 -14.853,6.642 -14.874,14.8417 h -0.031 v 0.022 c -3e-4,8.1991 -6.6471,14.8459 -14.84612,14.8462 l 0.031,0.04 c -8.1313,0 -14.7459,-6.5473 -14.8389,-14.6777 0.044,-0.7308 0.066,-1.4637 0.076,-2.1959 10e-5,-23.68355 -19.1981,-42.8819 -42.8818,-42.88175 -1.0621,0.0135 -2.1236,0.066 -3.1817,0.15818 -7.6628,-0.67215 -13.5398,-7.08495 -13.5498,-14.77733 3e-4,-8.19907 6.6471,-14.84595 14.8462,-14.84625 h 0.022 v -0.0247 c 8.1999,-0.0217 14.8386,-6.6735 14.8389,-14.87542 0,-8.2008 -6.64001,-14.85217 -14.8389,-14.87407 v -0.0293 l -0.022,0.008 c -8.1991,-3e-4 -14.8443,-6.64553 -14.8447,-14.84468 0,-8.19997 6.6447,-14.84737 14.8447,-14.84767 h 0.023 v -0.0232 c 8.2008,-0.0217 14.8404,-6.6756 14.8404,-14.87843 0,-8.2008 -6.6416,-14.8521 -14.8404,-14.874 v -0.0263 h -0.022 c -8.2001,-3e-4 -14.8472,-6.6477 -14.8462,-14.84767 4e-4,-8.19915 6.647,-14.8458 14.8462,-14.84618 h 0.023 v -0.0263 c 8.1999,-0.0217 14.84009,-6.67357 14.8404,-14.8755 0,-8.2008 -6.6417,-14.85067 -14.8404,-14.87257 v -0.0308 h -0.022 c -8.1991,-3e-4 -14.8444,-6.6471 -14.84471,-14.84618 3e-4,-8.19915 6.64571,-14.84445 14.84471,-14.84475 h 0.022 v -0.0263 c 8.1999,-0.0217 14.84009,-6.675 14.8404,-14.877 -6.1e-4,-8.20169 -6.6406,-14.85209 -14.8404,-14.87399 v -0.0277 h -0.022 c -8.1993,-3e-4 -14.8462,-6.64855 -14.8462,-14.84766 0.01,-0.0537 0.012,-0.1086 0.012,-0.1626 -0.038,-0.5572 -0.066,-1.11602 -0.082,-1.67432 0,-23.66471 19.1848,-42.84871 42.8496,-42.84961 0.9783,6e-4 1.9566,0.034 2.93261,0.10107 v 0.0103 c 7.7448,0.582 13.7344,7.03418 13.7344,14.80078 v 0.022 h 0.025 c 0.022,8.2008 6.6757,14.8374 14.8785,14.8374 8.20101,-7.5e-4 14.85061,-6.6384 14.87251,-14.8374 h 0.028 v -0.0234 c 3e-4,-8.19909 6.6455,-14.8459 14.8447,-14.8462 8.1991,3e-4 14.8459,6.64711 14.8462,14.8462 v 0.022 h 0.028 c 0.022,8.1999 6.6735,14.83857 14.8755,14.83887 8.201,-7.5e-4 14.852,-6.63996 14.874,-14.83887 h 0.026 v -0.0234 c 3e-4,-8.19909 6.647,-14.84589 14.8462,-14.84619 8.1991,3e-4 14.8459,6.6471 14.8462,14.84619 v 0.0205 h 0.026 c 0.022,8.1999 6.6735,14.8371 14.8755,14.8374 8.2018,-3e-4 14.855,-6.6375 14.8769,-14.8374 h 0.025 v -0.022 c 3e-4,-8.19999 6.6475,-14.84573 14.8477,-14.84473 8.199,3e-4 14.8443,6.64564 14.8446,14.84473 v 0.022 h 0.028 c 0.022,8.1999 6.6736,14.8371 14.8754,14.8374 8.201,-7.5e-4 14.852,-6.6385 14.8741,-14.8374 h 0.028 v -0.0234 c 3e-4,-8.1991 6.6456,-14.84589 14.8447,-14.84619 8.1992,3e-4 14.846,6.64709 14.8463,14.84619 v 0.0205 h 0.029 c 0.022,8.1999 6.6722,14.8371 14.8741,14.8374 8.2009,-0.002 14.852,-6.6385 14.874,-14.8374 h 0.029 v -0.022 c 3e-4,-8.1991 6.6457,-14.84589 14.8447,-14.84619 8.2002,-7.5e-4 14.8474,6.64619 14.8477,14.84619 v 0.0205 h 0.028 c 0.022,8.2008 6.6742,14.8374 14.877,14.8374 8.201,-7.5e-4 14.8506,-6.63849 14.8725,-14.8374 h 0.028 v -0.0234 c 3e-4,-8.19909 6.647,-14.84589 14.8462,-14.84619 8.199,3e-4 14.8444,6.6471 14.8447,14.84619 v 0.0205 h 0.029 c 0.022,8.1999 6.6735,14.83857 14.8755,14.83887 8.2009,-7.5e-4 14.8505,-6.63998 14.8725,-14.83887 h 0.029 v -0.022 c 10e-5,-3.70989 1.37,-7.09354 3.6196,-9.69579 0.8403,-1.40394 1.755,-2.70423 2.6939,-3.8379 6.54,-7.044 16.2265,-14.01267 10.9819,-24.17871 -2.7015,-4.74395 -8.023,-8.54581 -14.4946,-8.82128 -0.055,7.5e-4 -0.108,0.005 -0.1626,0.008 -6e-4,-1.2e-4 -7e-4,-5.4e-4 0,-0.003 -7e-4,-7.2e-4 0,-0.002 0,-0.003 v -0.002 h -77.6338 l 0.01,-0.0263 v -0.005 -0.003 -10e-4 -0.003 -0.003 -0.002 -0.003 -0.005 -0.002 h -267.1376 c -0.035,0 -0.061,-0.0187 -0.082,-0.0454 v -0.003 -0.003 -0.002 c -44.03911,-0.76491 -79.35191,-36.66825 -79.37251,-80.71436 0.032,-44.0343 35.3358,-79.92548 79.36381,-80.68212 v -0.003 -10e-4 -0.003 -0.003 -0.003 c 0.02,-0.0364 0.049,-0.063 0.091,-0.063 h 268.4985 v -0.002 -10e-4 -0.003 -0.003 -0.002 -0.003 -0.003 -0.003 -0.003 -0.003 -10e-4 l -0.011,-0.0264 h 77.7026 c 0.01,0 0.012,-0.003 0.016,-0.006 v -0.003 l 0.1612,0.006 c 11.7363,-2.6e-4 21.2516,-9.51274 21.2519,-21.24902 -2e-4,-11.73627 -9.5156,-21.25171 -21.2519,-21.25196 -0.054,7.5e-4 -0.1094,0.002 -0.1641,0.005 v -0.002 c 0,-7.5e-4 -0.015,-0.003 -0.015,-0.003 -115.066,-0.20628 -238.8846,-0.30051 -346.2129,-0.0483 -0.034,0 -0.062,-0.0195 -0.083,-0.0455 v -10e-4 -0.005 -0.003 c -44.03451,-0.7075 -79.34611,-36.61111 -79.36671,-80.65722 0.031,-44.0424 35.3467,-79.93701 79.38281,-80.68359 v -0.002 -0.003 -0.003 c 0.027,-0.0351 3.1102,-0.0601 0.1084,-0.0601 149.3862,2.4e-4 303.1867,6e-5 437.5855,0 v 0.002 0.003 l 0.011,0.003 c 0.057,-0.004 0.1131,-0.005 0.1714,-0.007 50.4498,5.4e-4 91.5582,39.95282 93.4321,89.94433 -0.04,135.78005 0.098,724.27442 0.098,724.27442 0.081,10.2198 9.4283,18.3452 19.6523,19.0664 h 3.104 c 5.2078,-0.3166 9.9292,-2.1089 13.4517,-5.1064 3.7735,-3.2111 6.1655,-7.8031 6.3164,-13.4194 v -8.4449 -26.9692 c -0.025,-163.20949 -0.023,-322.38776 -0.014,-481.27592 v -14.57519 -0.0366 c 0.01,-91.08053 0.012,-182.18239 0.014,-275.72021 v -32.24707 c 0,-4.05803 -1.3181,-7.79392 -3.5493,-10.80029 -0.1718,-0.23123 -0.3494,-0.4587 -0.5318,-0.68115 -0.1821,-0.22245 -0.3699,-0.4401 -0.5625,-0.65332 -0.1925,-0.21323 -0.3894,-0.42179 -0.5918,-0.62549 -0.1359,-0.13672 -0.2771,-0.2676 -0.4174,-0.3999 -0.072,-0.0683 -0.1409,-0.1384 -0.2139,-0.20508 -0.4203,-0.38355 -0.8599,-0.74748 -1.3155,-1.08984 -0.4596,-0.34545 -0.9357,-0.66921 -1.4282,-0.96973 -0.2461,-0.15023 -0.496,-0.29515 -0.75,-0.4336 -2.5387,-1.38442 -5.4516,-2.16943 -8.5532,-2.16943 v -0.0103 h -0.017 -331.7988 z"
       style="color:#000000;font-style:normal;font-variant:normal;font-weight:normal;font-stretch:normal;font-size:medium;line-height:normal;font-family:sans-serif;text-indent:0;text-align:start;text-decoration:none;text-decoration-line:none;text-decoration-style:solid;text-decoration-color:#000000;letter-spacing:normal;word-spacing:normal;text-transform:none;writing-mode:lr-tb;direction:ltr;baseline-shift:baseline;text-anchor:start;white-space:normal;clip-rule:nonzero;display:inline;overflow:visible;visibility:visible;opacity:1;isolation:auto;mix-blend-mode:normal;color-interpolation:sRGB;color-interpolation-filters:linearRGB;solid-color:#000000;solid-opacity:1;fill:#00ffff;fill-opacity:1;fill-rule:nonzero;stroke:#000002;stroke-width:5.66929;stroke-linecap:butt;stroke-linejoin:miter;stroke-miterlimit:4;stroke-dasharray:none;stroke-dashoffset:0;stroke-opacity:1;color-rendering:auto;image-rendering:auto;shape-rendering:auto;text-rendering:auto;enable-background:accumulate"
       id="path3736" /></g><g
     inkscape:label="Bird Layer - Delete"
     id="layer1"
     inkscape:groupmode="layer" /><g
     inkscape:label="Your Design"
     id="layer11"
     inkscape:groupmode="layer" /></svg>
