<?xml version="1.0" encoding="UTF-8" standalone="no"?>
<svg
   version="1.1"
   inkscape:output_extension="org.inkscape.output.svg.inkscape"
   sodipodi:docname="SpeakerLayerEvenFull.svg"
   inkscape:version="1.1.2 (b8e25be833, 2022-02-05)"
   sodipodi:version="0.32"
   id="svg2338"
   xml:space="preserve"
   viewBox="0 0 1116.852 1116.85"
   height="1116.85pt"
   width="1116.852pt"
   xmlns:inkscape="http://www.inkscape.org/namespaces/inkscape"
   xmlns:sodipodi="http://sodipodi.sourceforge.net/DTD/sodipodi-0.dtd"
   xmlns="http://www.w3.org/2000/svg"
   xmlns:svg="http://www.w3.org/2000/svg"
   xmlns:rdf="http://www.w3.org/1999/02/22-rdf-syntax-ns#"
   xmlns:cc="http://creativecommons.org/ns#"
   xmlns:dc="http://purl.org/dc/elements/1.1/"><metadata
     id="metadata2382"><rdf:RDF><cc:Work
         rdf:about=""><dc:format>image/svg+xml</dc:format><dc:type
           rdf:resource="http://purl.org/dc/dcmitype/StillImage" /><dc:title /></cc:Work></rdf:RDF></metadata><defs
     id="defs2380"><inkscape:perspective
       id="perspective46224"
       inkscape:persp3d-origin="698.03253 : 465.35417 : 1"
       inkscape:vp_z="1396.0651 : 698.03125 : 1"
       inkscape:vp_y="0 : 1000 : 0"
       inkscape:vp_x="0 : 698.03125 : 1"
       sodipodi:type="inkscape:persp3d" /><inkscape:perspective
       id="perspective37556-9"
       inkscape:persp3d-origin="338.38562 : 225.59001 : 1"
       inkscape:vp_z="676.77124 : 338.38501 : 1"
       inkscape:vp_y="0 : 1000 : 0"
       inkscape:vp_x="0 : 338.38501 : 1"
       sodipodi:type="inkscape:persp3d" /><inkscape:perspective
       id="perspective16301-9"
       inkscape:persp3d-origin="338.38562 : 225.59001 : 1"
       inkscape:vp_z="676.77124 : 338.38501 : 1"
       inkscape:vp_y="0 : 1000 : 0"
       inkscape:vp_x="0 : 338.38501 : 1"
       sodipodi:type="inkscape:persp3d" /><inkscape:perspective
       id="perspective12409-1"
       inkscape:persp3d-origin="270.7085 : 180.47233 : 1"
       inkscape:vp_z="541.41699 : 270.7085 : 1"
       inkscape:vp_y="0 : 1000 : 0"
       inkscape:vp_x="0 : 270.7085 : 1"
       sodipodi:type="inkscape:persp3d" /><inkscape:perspective
       id="perspective9337-7"
       inkscape:persp3d-origin="0.5 : 0.33333333 : 1"
       inkscape:vp_z="1 : 0.5 : 1"
       inkscape:vp_y="0 : 1000 : 0"
       inkscape:vp_x="0 : 0.5 : 1"
       sodipodi:type="inkscape:persp3d" /><inkscape:perspective
       id="perspective8562-2"
       inkscape:persp3d-origin="0.5 : 0.33333333 : 1"
       inkscape:vp_z="1 : 0.5 : 1"
       inkscape:vp_y="0 : 1000 : 0"
       inkscape:vp_x="0 : 0.5 : 1"
       sodipodi:type="inkscape:persp3d" /><inkscape:perspective
       sodipodi:type="inkscape:persp3d"
       inkscape:vp_x="0 : 338.38501 : 1"
       inkscape:vp_y="0 : 1000 : 0"
       inkscape:vp_z="676.77124 : 338.38501 : 1"
       inkscape:persp3d-origin="338.38562 : 225.59001 : 1"
       id="perspective3083-3" /><inkscape:perspective
       sodipodi:type="inkscape:persp3d"
       inkscape:vp_x="0 : 270.7085 : 1"
       inkscape:vp_y="0 : 1000 : 0"
       inkscape:vp_z="541.41699 : 270.7085 : 1"
       inkscape:persp3d-origin="270.7085 : 180.47233 : 1"
       id="perspective23419-6" /><inkscape:perspective
       sodipodi:type="inkscape:persp3d"
       inkscape:vp_x="0 : 338.38501 : 1"
       inkscape:vp_y="0 : 1000 : 0"
       inkscape:vp_z="676.77124 : 338.38501 : 1"
       inkscape:persp3d-origin="338.38562 : 225.59001 : 1"
       id="perspective27913-5" /><inkscape:perspective
       id="perspective27913"
       inkscape:persp3d-origin="338.38562 : 225.59001 : 1"
       inkscape:vp_z="676.77124 : 338.38501 : 1"
       inkscape:vp_y="0 : 1000 : 0"
       inkscape:vp_x="0 : 338.38501 : 1"
       sodipodi:type="inkscape:persp3d" /><inkscape:perspective
       id="perspective23419"
       inkscape:persp3d-origin="270.7085 : 180.47233 : 1"
       inkscape:vp_z="541.41699 : 270.7085 : 1"
       inkscape:vp_y="0 : 1000 : 0"
       inkscape:vp_x="0 : 270.7085 : 1"
       sodipodi:type="inkscape:persp3d" /><inkscape:perspective
       id="perspective3083"
       inkscape:persp3d-origin="338.38562 : 225.59001 : 1"
       inkscape:vp_z="676.77124 : 338.38501 : 1"
       inkscape:vp_y="0 : 1000 : 0"
       inkscape:vp_x="0 : 338.38501 : 1"
       sodipodi:type="inkscape:persp3d" /><inkscape:perspective
       sodipodi:type="inkscape:persp3d"
       inkscape:vp_x="0 : 0.5 : 1"
       inkscape:vp_y="0 : 1000 : 0"
       inkscape:vp_z="1 : 0.5 : 1"
       inkscape:persp3d-origin="0.5 : 0.33333333 : 1"
       id="perspective8562" /><inkscape:perspective
       sodipodi:type="inkscape:persp3d"
       inkscape:vp_x="0 : 0.5 : 1"
       inkscape:vp_y="0 : 1000 : 0"
       inkscape:vp_z="1 : 0.5 : 1"
       inkscape:persp3d-origin="0.5 : 0.33333333 : 1"
       id="perspective9337" /><inkscape:perspective
       sodipodi:type="inkscape:persp3d"
       inkscape:vp_x="0 : 270.7085 : 1"
       inkscape:vp_y="0 : 1000 : 0"
       inkscape:vp_z="541.41699 : 270.7085 : 1"
       inkscape:persp3d-origin="270.7085 : 180.47233 : 1"
       id="perspective12409" /><inkscape:perspective
       sodipodi:type="inkscape:persp3d"
       inkscape:vp_x="0 : 338.38501 : 1"
       inkscape:vp_y="0 : 1000 : 0"
       inkscape:vp_z="676.77124 : 338.38501 : 1"
       inkscape:persp3d-origin="338.38562 : 225.59001 : 1"
       id="perspective16301" /><inkscape:perspective
       sodipodi:type="inkscape:persp3d"
       inkscape:vp_x="0 : 338.38501 : 1"
       inkscape:vp_y="0 : 1000 : 0"
       inkscape:vp_z="676.77124 : 338.38501 : 1"
       inkscape:persp3d-origin="338.38562 : 225.59001 : 1"
       id="perspective37556" /><inkscape:perspective
       sodipodi:type="inkscape:persp3d"
       inkscape:vp_x="0 : 270.70999 : 1"
       inkscape:vp_y="0 : 1000 : 0"
       inkscape:vp_z="541.41998 : 270.70999 : 1"
       inkscape:persp3d-origin="270.70999 : 180.47333 : 1"
       id="perspective51446" /><inkscape:perspective
       id="perspective37556-9-8"
       inkscape:persp3d-origin="338.38562 : 225.59001 : 1"
       inkscape:vp_z="676.77124 : 338.38501 : 1"
       inkscape:vp_y="0 : 1000 : 0"
       inkscape:vp_x="0 : 338.38501 : 1"
       sodipodi:type="inkscape:persp3d" /><inkscape:perspective
       id="perspective16301-9-1"
       inkscape:persp3d-origin="338.38562 : 225.59001 : 1"
       inkscape:vp_z="676.77124 : 338.38501 : 1"
       inkscape:vp_y="0 : 1000 : 0"
       inkscape:vp_x="0 : 338.38501 : 1"
       sodipodi:type="inkscape:persp3d" /><inkscape:perspective
       id="perspective12409-1-2"
       inkscape:persp3d-origin="270.7085 : 180.47233 : 1"
       inkscape:vp_z="541.41699 : 270.7085 : 1"
       inkscape:vp_y="0 : 1000 : 0"
       inkscape:vp_x="0 : 270.7085 : 1"
       sodipodi:type="inkscape:persp3d" /><inkscape:perspective
       id="perspective9337-7-0"
       inkscape:persp3d-origin="0.5 : 0.33333333 : 1"
       inkscape:vp_z="1 : 0.5 : 1"
       inkscape:vp_y="0 : 1000 : 0"
       inkscape:vp_x="0 : 0.5 : 1"
       sodipodi:type="inkscape:persp3d" /><inkscape:perspective
       id="perspective8562-2-5"
       inkscape:persp3d-origin="0.5 : 0.33333333 : 1"
       inkscape:vp_z="1 : 0.5 : 1"
       inkscape:vp_y="0 : 1000 : 0"
       inkscape:vp_x="0 : 0.5 : 1"
       sodipodi:type="inkscape:persp3d" /><inkscape:perspective
       sodipodi:type="inkscape:persp3d"
       inkscape:vp_x="0 : 338.38501 : 1"
       inkscape:vp_y="0 : 1000 : 0"
       inkscape:vp_z="676.77124 : 338.38501 : 1"
       inkscape:persp3d-origin="338.38562 : 225.59001 : 1"
       id="perspective3083-3-7" /><inkscape:perspective
       sodipodi:type="inkscape:persp3d"
       inkscape:vp_x="0 : 270.7085 : 1"
       inkscape:vp_y="0 : 1000 : 0"
       inkscape:vp_z="541.41699 : 270.7085 : 1"
       inkscape:persp3d-origin="270.7085 : 180.47233 : 1"
       id="perspective23419-6-3" /><inkscape:perspective
       sodipodi:type="inkscape:persp3d"
       inkscape:vp_x="0 : 338.38501 : 1"
       inkscape:vp_y="0 : 1000 : 0"
       inkscape:vp_z="676.77124 : 338.38501 : 1"
       inkscape:persp3d-origin="338.38562 : 225.59001 : 1"
       id="perspective27913-5-7" /><inkscape:perspective
       id="perspective27913-9"
       inkscape:persp3d-origin="338.38562 : 225.59001 : 1"
       inkscape:vp_z="676.77124 : 338.38501 : 1"
       inkscape:vp_y="0 : 1000 : 0"
       inkscape:vp_x="0 : 338.38501 : 1"
       sodipodi:type="inkscape:persp3d" /><inkscape:perspective
       id="perspective23419-3"
       inkscape:persp3d-origin="270.7085 : 180.47233 : 1"
       inkscape:vp_z="541.41699 : 270.7085 : 1"
       inkscape:vp_y="0 : 1000 : 0"
       inkscape:vp_x="0 : 270.7085 : 1"
       sodipodi:type="inkscape:persp3d" /><inkscape:perspective
       id="perspective3083-1"
       inkscape:persp3d-origin="338.38562 : 225.59001 : 1"
       inkscape:vp_z="676.77124 : 338.38501 : 1"
       inkscape:vp_y="0 : 1000 : 0"
       inkscape:vp_x="0 : 338.38501 : 1"
       sodipodi:type="inkscape:persp3d" /><inkscape:perspective
       sodipodi:type="inkscape:persp3d"
       inkscape:vp_x="0 : 0.5 : 1"
       inkscape:vp_y="0 : 1000 : 0"
       inkscape:vp_z="1 : 0.5 : 1"
       inkscape:persp3d-origin="0.5 : 0.33333333 : 1"
       id="perspective8562-25" /><inkscape:perspective
       sodipodi:type="inkscape:persp3d"
       inkscape:vp_x="0 : 0.5 : 1"
       inkscape:vp_y="0 : 1000 : 0"
       inkscape:vp_z="1 : 0.5 : 1"
       inkscape:persp3d-origin="0.5 : 0.33333333 : 1"
       id="perspective9337-6" /><inkscape:perspective
       sodipodi:type="inkscape:persp3d"
       inkscape:vp_x="0 : 270.7085 : 1"
       inkscape:vp_y="0 : 1000 : 0"
       inkscape:vp_z="541.41699 : 270.7085 : 1"
       inkscape:persp3d-origin="270.7085 : 180.47233 : 1"
       id="perspective12409-8" /><inkscape:perspective
       sodipodi:type="inkscape:persp3d"
       inkscape:vp_x="0 : 338.38501 : 1"
       inkscape:vp_y="0 : 1000 : 0"
       inkscape:vp_z="676.77124 : 338.38501 : 1"
       inkscape:persp3d-origin="338.38562 : 225.59001 : 1"
       id="perspective16301-5" /><inkscape:perspective
       sodipodi:type="inkscape:persp3d"
       inkscape:vp_x="0 : 338.38501 : 1"
       inkscape:vp_y="0 : 1000 : 0"
       inkscape:vp_z="676.77124 : 338.38501 : 1"
       inkscape:persp3d-origin="338.38562 : 225.59001 : 1"
       id="perspective37556-4" /><inkscape:perspective
       id="perspective37556-9-1"
       inkscape:persp3d-origin="338.38562 : 225.59001 : 1"
       inkscape:vp_z="676.77124 : 338.38501 : 1"
       inkscape:vp_y="0 : 1000 : 0"
       inkscape:vp_x="0 : 338.38501 : 1"
       sodipodi:type="inkscape:persp3d" /><inkscape:perspective
       id="perspective16301-9-3"
       inkscape:persp3d-origin="338.38562 : 225.59001 : 1"
       inkscape:vp_z="676.77124 : 338.38501 : 1"
       inkscape:vp_y="0 : 1000 : 0"
       inkscape:vp_x="0 : 338.38501 : 1"
       sodipodi:type="inkscape:persp3d" /><inkscape:perspective
       id="perspective12409-1-9"
       inkscape:persp3d-origin="270.7085 : 180.47233 : 1"
       inkscape:vp_z="541.41699 : 270.7085 : 1"
       inkscape:vp_y="0 : 1000 : 0"
       inkscape:vp_x="0 : 270.7085 : 1"
       sodipodi:type="inkscape:persp3d" /><inkscape:perspective
       id="perspective9337-7-1"
       inkscape:persp3d-origin="0.5 : 0.33333333 : 1"
       inkscape:vp_z="1 : 0.5 : 1"
       inkscape:vp_y="0 : 1000 : 0"
       inkscape:vp_x="0 : 0.5 : 1"
       sodipodi:type="inkscape:persp3d" /><inkscape:perspective
       id="perspective8562-2-7"
       inkscape:persp3d-origin="0.5 : 0.33333333 : 1"
       inkscape:vp_z="1 : 0.5 : 1"
       inkscape:vp_y="0 : 1000 : 0"
       inkscape:vp_x="0 : 0.5 : 1"
       sodipodi:type="inkscape:persp3d" /><inkscape:perspective
       sodipodi:type="inkscape:persp3d"
       inkscape:vp_x="0 : 338.38501 : 1"
       inkscape:vp_y="0 : 1000 : 0"
       inkscape:vp_z="676.77124 : 338.38501 : 1"
       inkscape:persp3d-origin="338.38562 : 225.59001 : 1"
       id="perspective3083-3-8" /><inkscape:perspective
       sodipodi:type="inkscape:persp3d"
       inkscape:vp_x="0 : 270.7085 : 1"
       inkscape:vp_y="0 : 1000 : 0"
       inkscape:vp_z="541.41699 : 270.7085 : 1"
       inkscape:persp3d-origin="270.7085 : 180.47233 : 1"
       id="perspective23419-6-8" /><inkscape:perspective
       sodipodi:type="inkscape:persp3d"
       inkscape:vp_x="0 : 338.38501 : 1"
       inkscape:vp_y="0 : 1000 : 0"
       inkscape:vp_z="676.77124 : 338.38501 : 1"
       inkscape:persp3d-origin="338.38562 : 225.59001 : 1"
       id="perspective27913-5-4" /><inkscape:perspective
       id="perspective27913-1"
       inkscape:persp3d-origin="338.38562 : 225.59001 : 1"
       inkscape:vp_z="676.77124 : 338.38501 : 1"
       inkscape:vp_y="0 : 1000 : 0"
       inkscape:vp_x="0 : 338.38501 : 1"
       sodipodi:type="inkscape:persp3d" /><inkscape:perspective
       id="perspective23419-9"
       inkscape:persp3d-origin="270.7085 : 180.47233 : 1"
       inkscape:vp_z="541.41699 : 270.7085 : 1"
       inkscape:vp_y="0 : 1000 : 0"
       inkscape:vp_x="0 : 270.7085 : 1"
       sodipodi:type="inkscape:persp3d" /><inkscape:perspective
       id="perspective3083-8"
       inkscape:persp3d-origin="338.38562 : 225.59001 : 1"
       inkscape:vp_z="676.77124 : 338.38501 : 1"
       inkscape:vp_y="0 : 1000 : 0"
       inkscape:vp_x="0 : 338.38501 : 1"
       sodipodi:type="inkscape:persp3d" /><inkscape:perspective
       sodipodi:type="inkscape:persp3d"
       inkscape:vp_x="0 : 0.5 : 1"
       inkscape:vp_y="0 : 1000 : 0"
       inkscape:vp_z="1 : 0.5 : 1"
       inkscape:persp3d-origin="0.5 : 0.33333333 : 1"
       id="perspective8562-6" /><inkscape:perspective
       sodipodi:type="inkscape:persp3d"
       inkscape:vp_x="0 : 0.5 : 1"
       inkscape:vp_y="0 : 1000 : 0"
       inkscape:vp_z="1 : 0.5 : 1"
       inkscape:persp3d-origin="0.5 : 0.33333333 : 1"
       id="perspective9337-2" /><inkscape:perspective
       sodipodi:type="inkscape:persp3d"
       inkscape:vp_x="0 : 270.7085 : 1"
       inkscape:vp_y="0 : 1000 : 0"
       inkscape:vp_z="541.41699 : 270.7085 : 1"
       inkscape:persp3d-origin="270.7085 : 180.47233 : 1"
       id="perspective12409-3" /><inkscape:perspective
       sodipodi:type="inkscape:persp3d"
       inkscape:vp_x="0 : 338.38501 : 1"
       inkscape:vp_y="0 : 1000 : 0"
       inkscape:vp_z="676.77124 : 338.38501 : 1"
       inkscape:persp3d-origin="338.38562 : 225.59001 : 1"
       id="perspective16301-56" /><inkscape:perspective
       sodipodi:type="inkscape:persp3d"
       inkscape:vp_x="0 : 338.38501 : 1"
       inkscape:vp_y="0 : 1000 : 0"
       inkscape:vp_z="676.77124 : 338.38501 : 1"
       inkscape:persp3d-origin="338.38562 : 225.59001 : 1"
       id="perspective37556-5" /><inkscape:perspective
       sodipodi:type="inkscape:persp3d"
       inkscape:vp_x="0 : 0.5 : 1"
       inkscape:vp_y="0 : 1000 : 0"
       inkscape:vp_z="1 : 0.5 : 1"
       inkscape:persp3d-origin="0.5 : 0.33333333 : 1"
       id="perspective10328" /><inkscape:perspective
       sodipodi:type="inkscape:persp3d"
       inkscape:vp_x="0 : 0.5 : 1"
       inkscape:vp_y="0 : 1000 : 0"
       inkscape:vp_z="1 : 0.5 : 1"
       inkscape:persp3d-origin="0.5 : 0.33333333 : 1"
       id="perspective11034" /><inkscape:perspective
       sodipodi:type="inkscape:persp3d"
       inkscape:vp_x="0 : 0.5 : 1"
       inkscape:vp_y="0 : 1000 : 0"
       inkscape:vp_z="1 : 0.5 : 1"
       inkscape:persp3d-origin="0.5 : 0.33333333 : 1"
       id="perspective3083-7" /><inkscape:perspective
       sodipodi:type="inkscape:persp3d"
       inkscape:vp_x="0 : 0.5 : 1"
       inkscape:vp_y="0 : 1000 : 0"
       inkscape:vp_z="1 : 0.5 : 1"
       inkscape:persp3d-origin="0.5 : 0.33333333 : 1"
       id="perspective2997" /></defs><sodipodi:namedview
     showguides="false"
     inkscape:document-rotation="0"
     inkscape:document-units="mm"
     inkscape:window-maximized="1"
     showgrid="false"
     inkscape:current-layer="layer10"
     inkscape:window-y="-8"
     inkscape:window-x="-8"
     inkscape:cy="633.56766"
     inkscape:cx="86.267025"
     inkscape:zoom="0.3535534"
     id="base"
     pagecolor="#ffffff"
     bordercolor="#666666"
     borderopacity="1.0"
     objecttolerance="10.0"
     gridtolerance="10.0"
     guidetolerance="10.0"
     inkscape:pageopacity="0.0"
     inkscape:pageshadow="2"
     inkscape:window-width="1920"
     inkscape:window-height="1017"
     inkscape:pagecheckerboard="0" /><g
     inkscape:label="Design Template"
     id="layer10"
     inkscape:groupmode="layer"><path
       d="m 19.352666,1.42081 -0.003,0.0103 c -3.104649,0 -6.020322,0.78506 -8.561693,2.16957 -0.254131,0.13846 -0.504268,0.28339 -0.750742,0.43362 -0.2456934,0.14994 -0.4866215,0.3046 -0.7243465,0.46586 -0.04965,0.0338 -0.0974,0.0697 -0.146625,0.10399 -0.187665,0.13006 -0.37483,0.26143 -0.557191,0.39847 -0.01031,0.007 -0.02052,0.016 -0.03083,0.0234 C 8.1328183,5.36196 7.702523,5.71857 7.290826,6.09396 c 0,0 -0.002,0 -0.002,0 C 7.215754,6.16076 7.1466855,6.23124 7.0747544,6.29904 6.9343957,6.43135 6.7928858,6.56225 6.6568614,6.69898 6.4542711,6.90269 6.2571763,7.11128 6.0644758,7.32451 5.8748685,7.5343 5.6898956,7.74898 5.510218,7.96761 5.455264,8.03431 5.4043734,8.10497 5.35039,8.17271 5.2221133,8.33352 5.0919747,8.49376 4.9691532,8.65907 c -0.6872493,0.92511 -1.287923,1.91948 -1.7903396,2.97089 -0.4215567,0.88222 -0.773865,1.80432 -1.0498677,2.75994 -0.004,0.0141 -0.00801,0.0283 -0.011712,0.0424 -0.081781,0.28583 -0.1548931,0.57568 -0.2228803,0.86724 -0.012212,0.0527 -0.024925,0.10529 -0.036636,0.15822 -0.058758,0.26284 -0.1110497,0.52833 -0.1583665,0.79546 -0.011111,0.0631 -0.023323,0.1257 -0.033733,0.18897 -0.040941,0.24611 -0.074674,0.49475 -0.1055644,0.74419 -0.011511,0.0937 -0.025125,0.18707 -0.035235,0.28127 -0.023824,0.22019 -0.039739,0.44253 -0.055755,0.66508 -0.00801,0.11191 -0.019019,0.22298 -0.024925,0.33547 -0.012012,0.22558 -0.015215,0.45343 -0.019019,0.6812 -10e-4,0.096 -0.00701,0.19076 -0.00701,0.28713 v 60.86518 c 0.002,83.41119 0.00701,165.52178 0.011712,247.17146 0,0.004 0,0.007 0,0.0103 0.014815,8.79122 3.8116876,18.14695 11.1951463,25.52359 l 22.460681,22.43697 c 3.234536,3.26976 5.006128,7.70922 4.912075,12.30545 -0.08809,4.32836 -1.824944,8.46045 -4.85636,11.55396 L 12.624966,421.80047 C 5.0079665,429.41244 1.2078504,439.13001 1.44008,448.16055 v 0.005 0.003 h -0.003 v 0.001 l -10e-4,0.003 v 10e-4 h -0.002 -0.001 -0.004 l -0.002,0.003 c 0.003,105.92905 0.004,212.11944 -0.00901,320.09172 v 55.0977 h 0.003 0.003 0.001 0.003 v 0.01 h 0.001 v 26.9635 l 10e-4,8.4645 c 0.1559441,5.6081 2.5482287,10.1936 6.321188,13.4013 3.525806,2.9974 8.252357,4.7901 13.464969,5.1068 l 86.915993,0.01 h 325.24872 0.005 10e-4 0.002 0.003 0.003 0.003 0.003 0.001 0.0381 22.55307 c 79.36347,-0.7079 143.34062,-65.2425 143.39171,-144.53364 h 0.009 l -0.009,-0.009 c 0.003,3e-4 0.005,0 0.009,0 0.007,0 0.0132,0.009 0.0132,0.009 v -0.009 -0.0187 -0.18308 c 7e-5,-1.4473 -10e-5,-3.05322 0,-4.26882 2.9e-4,-3.0647 0.002,-7.63677 0.003,-13.52434 7.5e-4,-11.7753 0.005,-28.8118 0.008,-49.56029 0.004,-41.49668 0.009,-97.84799 0.0132,-156.68815 0.01,-117.68036 0.0194,-245.31438 0.019,-283.97504 v -0.003 -0.005 l -0.005,-0.002 -10e-4,-0.001 v -0.003 l -0.002,-0.002 -0.003,-0.003 h -0.002 l -10e-4,-0.002 h -0.006 -10e-4 -0.003 -0.003 v 0.002 l -0.0234,0.009 v -57.32006 -0.0176 -0.003 c -0.0129,-1.81994 -0.10421,-3.63881 -0.27273,-5.45102 -0.10012,-1.03053 -0.2252,-2.05778 -0.37537,-3.08222 -0.13552,-1.08715 -0.29836,-2.17194 -0.48975,-3.25071 -0.20108,-1.00553 -0.42512,-2.00545 -0.67449,-3.00018 -0.24395,-1.06883 -0.51647,-2.1314 -0.81526,-3.18624 -0.30423,-0.99644 -0.63264,-1.98459 -0.98535,-2.96503 -0.34285,-1.01802 -0.71172,-2.02576 -1.10559,-3.0251 v -0.005 c -0.40498,-0.96694 -0.83376,-1.92252 -1.28594,-2.86834 -0.44813,-0.99033 -0.92265,-1.96812 -1.42083,-2.93428 -0.48558,-0.89584 -0.99109,-1.78138 -1.51908,-2.65299 -0.55491,-0.95894 -1.13342,-1.90294 -1.73756,-2.83172 h -0.003 c -0.57091,-0.83841 -1.16115,-1.66257 -1.7713,-2.4728 -0.6487,-0.90122 -1.31977,-1.78684 -2.01468,-2.65301 -0.66242,-0.79007 -1.34397,-1.56344 -2.04401,-2.32047 -0.71732,-0.81027 -1.455,-1.60043 -2.21264,-2.37319 v -0.001 c -0.75259,-0.73636 -1.52424,-1.45379 -2.31234,-2.15199 -0.79298,-0.73158 -1.60353,-1.44247 -2.43259,-2.13296 -0.80755,-0.64507 -1.63275,-1.26999 -2.4707,-1.87511 -0.87286,-0.65806 -1.76161,-1.29495 -2.66718,-1.90735 -0.86067,-0.55626 -1.73231,-1.09136 -2.6188,-1.60557 -0.94224,-0.57328 -1.90177,-1.12141 -2.87247,-1.64512 -0.92205,-0.47277 -1.85372,-0.92331 -2.79769,-1.35067 -0.97573,-0.46653 -1.96517,-0.90792 -2.96338,-1.32431 -0.96503,-0.37844 -1.9385,-0.73545 -2.92085,-1.06647 -1.03507,-0.3739 -2.07896,-0.72017 -3.132,-1.04011 -0.98717,-0.27708 -1.98016,-0.5296 -2.97952,-0.75884 -1.05827,-0.26558 -2.12161,-0.50383 -3.19211,-0.71489 -1.02696,-0.18151 -2.05925,-0.33776 -3.09388,-0.46878 -1.07279,-0.15787 -2.1493,-0.28951 -3.22877,-0.39259 -1.80302,-0.16667 -3.61315,-0.2551 -5.42382,-0.26809 h -0.0205 -57.27781 l 0.0103,-0.0249 0.002,-0.003 v -0.002 -0.006 -0.003 -0.003 -0.002 h -0.002 v -10e-4 -0.002 l -0.003,-0.003 h -0.003 v -0.003 -0.003 h -0.003 -0.005 v -10e-4 h -0.002 -0.001 -271.89766 -0.002 -0.003 -0.001 l -0.003,10e-4 h -0.001 l -10e-4,0.003 -0.003,0.003 -0.001,0.003 v 0.002 10e-4 l -0.001,0.002 v 0.003 0.003 0.006 0.002 c -25.83202,0.0559 -51.86453,0.0278 -77.76926,0.0278 -0.008,0 -0.0145,0.004 -0.0175,0.006 l -0.001,0.003 -0.16276,-0.007 c -11.74787,2.5e-4 -21.27123,9.5163 -21.2715,21.25329 2.7e-4,11.73702 9.52363,21.2501 21.2715,21.25039 0.0541,-7.5e-4 0.11068,-0.001 0.1657,-0.006 2e-5,0 4.6e-4,7.5e-4 0.003,0.003 7.5e-4,5.6e-4 0.001,-2.6e-4 0.004,0.002 7.5e-4,3.6e-4 0.005,0.002 0.006,0.003 7.5e-4,2.7e-4 0.005,0 0.005,0 116.31692,0.0101 239.81895,0.0526 345.12287,0.0513 l 0.002,0.003 c 0.002,7.5e-4 0.006,0.004 0.0132,0.005 h 10e-4 l 0.12904,-0.006 c 44.64205,1.8e-4 80.83068,36.15539 80.83086,80.75611 -1.8e-4,44.60073 -36.18881,80.7559 -80.83086,80.7561 -0.0485,3e-5 -0.0966,4e-5 -0.14517,0 h -267.33162 -0.001 -0.001 -0.005 v 0.005 h -0.003 l -0.003,0.003 h -0.003 v 0.002 0.003 0.002 l -0.002,10e-4 v 0.001 0.003 0.003 0.001 0.003 l 0.008,0.0249 h -77.7775 c -0.008,7e-5 -0.0145,0.002 -0.0175,0.005 -0.003,7.5e-4 -0.004,0.003 -0.003,0.003 l -0.15983,-0.008 h -0.001 c -11.74791,2.8e-4 -21.27126,9.5163 -21.27151,21.25331 2.5e-4,11.73702 9.5236,21.2501 21.27151,21.25037 0.0545,-7.5e-4 0.1108,-0.003 0.16568,-0.006 h 0.001 c 0.004,0.002 0.006,0.006 0.0132,0.006 h 77.70767 l -0.005,0.0293 v 0.002 10e-4 0.003 l 0.001,0.003 v 0.005 h 0.002 v 0.003 h 0.004 v 0.003 l 0.002,0.003 h 0.004 0.002 0.001 267.40199 c 0,0 0.0594,0.0179 0.0807,0.0439 h 0.003 v 0.001 l 0.003,0.002 h 0.003 10e-4 l 0.003,0.003 h 0.003 c 44.08425,0.75052 79.43482,36.65794 79.45548,80.70774 -0.0358,16.95513 -12.1818,32.96032 -15.37701,47.21492 l -8.53089,37.58587 c -1.59287,7.66922 -6.65363,14.84537 -14.86088,14.84567 h -0.0234 c -6.7e-4,-8e-5 -0.002,-8e-5 -0.003,0 h -0.002 -10e-4 -0.005 -0.003 c -7.2e-4,6e-4 -0.002,4.5e-4 -0.003,0 v 0.0307 c -8.20776,0.021 -14.85476,6.67273 -14.85649,14.87495 3.1e-4,8.20335 6.64761,14.8544 14.85649,14.87502 v 0.0263 h 0.003 c 6.2e-4,7.5e-4 0.002,0 0.003,0 6.1e-4,6.8e-4 0.004,0 0.005,0 h 10e-4 0.002 c 6.1e-4,7.5e-4 0.002,4.5e-4 0.003,0 h 0.0234 c 8.20725,3.8e-4 14.86057,6.64745 14.86088,14.84719 7.5e-4,8.19982 -6.65216,14.84719 -14.85941,14.84855 h -0.022 -0.003 -0.001 -0.003 -0.003 -0.003 -0.002 -10e-4 c -7.2e-4,6e-4 -0.002,4.5e-4 -0.003,0 v 0.0277 c -8.20894,0.021 -14.85622,6.67452 -14.8565,14.87795 3.2e-4,8.20334 6.64759,14.85431 14.8565,14.87493 v 0.0217 c 6e-4,6.8e-4 0.002,0 0.003,0 0,0 10e-4,0 10e-4,0 h 0.002 c 6e-4,6.8e-4 0.002,4.5e-4 0.003,0 h 0.003 c 6.6e-4,8e-5 0.002,8e-5 0.003,0 h 0.001 0.0234 c 8.20816,3.8e-4 14.86186,6.65097 14.86088,14.85154 -3.2e-4,8.199 -6.65308,14.84419 -14.85941,14.84569 h -0.0235 -0.003 -0.003 -0.002 -10e-4 c -6.7e-4,-1.5e-4 -0.002,-1.5e-4 -0.003,0 h -10e-4 c -7.3e-4,6e-4 -0.002,0 -0.003,0 v 0.0293 c -8.20797,0.021 -14.85488,6.67401 -14.85647,14.87645 3e-4,8.20327 6.64759,14.85433 14.85647,14.87495 v 0.0263 c 6.1e-4,6.8e-4 0.002,4.5e-4 0.003,0 h 10e-4 c 6.1e-4,7.5e-4 0.002,4.5e-4 0.003,0 h 10e-4 0.002 0.003 0.003 0.0235 c 8.20724,3e-4 14.86056,6.64745 14.86088,14.84712 -3.3e-4,8.19966 -6.65365,14.84681 -14.86088,14.84711 h -0.0235 -0.003 c -6.8e-4,-8e-5 -0.002,-8e-5 -0.003,0 h -0.002 -10e-4 c -7.2e-4,6e-4 -0.002,0 -0.003,0 h -10e-4 c -7.3e-4,6e-4 -0.002,4.5e-4 -0.003,0 v 0.0277 c -8.20798,0.0203 -14.85488,6.67114 -14.85647,14.87351 -7.5e-4,8.20432 6.64667,14.85874 14.85647,14.87937 v 0.0232 c 6.1e-4,7.5e-4 0.002,0 0.003,0 h 10e-4 c 6.7e-4,0 0.002,0 0.003,0 h 10e-4 0.002 0.003 0.003 0.0235 c 7.75665,0 14.20646,5.96535 14.81102,13.6913 6.1e-4,6.8e-4 0.002,0 0.003,0 h 10e-4 0.003 0.001 10e-4 0.003 0.001 0.0103 c 0.0686,0.97866 0.10438,1.95905 0.10558,2.94011 1.2e-4,23.66776 -19.20522,42.85386 -42.89494,42.85376 -0.40054,-0.015 -0.7995,-0.033 -1.19944,-0.06 h -0.003 c -0.2131,0.012 -0.42591,0.019 -0.6393,0.022 -8.20725,-3e-4 -14.85911,-6.646 -14.85942,-14.8455 v -0.023 h -0.003 -0.003 -0.003 -10e-4 -0.002 -0.003 -0.002 -0.0293 c -0.0219,-8.1995 -6.67817,-14.8368 -14.88726,-14.8384 -8.21002,3e-4 -14.86825,6.6379 -14.8902,14.8384 h -0.0293 -0.003 -0.002 -10e-4 -0.003 -0.002 -0.002 -0.003 -0.003 l 0.003,0.02 c -3.1e-4,8.1995 -6.65216,14.8467 -14.85942,14.847 -8.20723,-3e-4 -14.86056,-6.6475 -14.86088,-14.847 v -0.022 h -0.003 -0.003 -0.002 -0.003 -0.003 -0.003 -0.003 -0.0293 c -0.0219,-8.1996 -6.67818,-14.8382 -14.88728,-14.8399 -8.21094,0 -14.8697,6.6385 -14.89167,14.8399 h -0.0278 -0.001 -0.003 -0.002 -0.002 -0.003 -0.002 -0.003 -0.001 l 0.001,0.02 c -3.1e-4,8.2005 -6.65418,14.8479 -14.86234,14.847 -8.20725,-3e-4 -14.85911,-6.6474 -14.85942,-14.847 v -0.023 h -0.003 -10e-4 -0.002 -0.003 -0.002 -0.002 -0.003 -0.001 -0.0293 c -0.0219,-8.1996 -6.67818,-14.8369 -14.88728,-14.8384 -8.21002,3e-4 -14.86826,6.6379 -14.89021,14.8384 h -0.0293 -0.002 -0.003 -0.002 -0.003 -0.002 -0.003 -0.003 v 0.02 c -3.1e-4,8.1996 -6.65218,14.8466 -14.85941,14.847 -8.20727,-4e-4 -14.86058,-6.6474 -14.86089,-14.847 v -0.022 h -0.002 -0.003 -0.003 -0.003 -0.002 -0.003 -0.002 -0.0278 c -0.0219,-8.1994 -6.67963,-14.8367 -14.88874,-14.8384 -8.21,3e-4 -14.86827,6.6379 -14.89021,14.8384 h -0.0278 -0.003 -0.003 -0.002 -0.002 -0.005 -10e-4 -0.003 -0.002 l 0.002,0.019 c -3.2e-4,8.1995 -6.65216,14.8467 -14.85942,14.847 -8.20817,0 -14.86203,-6.6466 -14.86234,-14.847 v -0.022 h -0.003 -0.001 -0.003 -0.001 -10e-4 -0.003 -0.0249 c -0.0219,-8.2005 -6.68166,-14.8381 -14.89168,-14.8384 -8.21003,3e-4 -14.86825,6.6379 -14.8902,14.8384 h -0.0278 -0.002 -0.003 -0.003 -0.003 -0.001 -0.002 -0.003 l 0.005,0.022 h -0.003 c -3.2e-4,8.1996 -6.65216,14.8452 -14.85941,14.8455 -8.20726,-3e-4 -14.86058,-6.6459 -14.86089,-14.8455 v -0.023 h -0.001 -0.003 -0.001 -10e-4 -0.003 -0.001 -0.003 -0.002 -0.0278 c -0.0219,-8.1996 -6.67816,-14.8369 -14.88725,-14.8384 -8.21003,3e-4 -14.86975,6.6379 -14.89167,14.8384 h -0.0278 -0.002 -10e-4 -0.003 -0.002 -10e-4 -0.003 -0.002 -0.004 l 0.004,0.02 c -3e-4,8.1995 -6.65365,14.8467 -14.86088,14.847 -8.20727,-3e-4 -14.85912,-6.6475 -14.85942,-14.847 v -0.022 h -0.005 -0.003 -0.003 -0.003 -0.003 -0.003 -0.0264 c -0.0219,-8.1996 -6.67961,-14.8397 -14.888727,-14.8413 -8.210925,0 -14.871189,6.6399 -14.893141,14.8413 h -0.02492 -0.005 -10e-4 -0.003 -0.001 -0.002 -0.003 -0.001 -0.002 l 0.002,0.019 c -0.002,7.767 -5.995486,14.2196 -13.747969,14.8016 h -0.001 -0.003 -0.001 -10e-4 -0.003 -0.001 -0.003 v 0.011 c -0.976886,0.067 -1.954823,0.1004 -2.934039,0.101 h -0.001 -0.003 c -23.688165,0 -42.891056,-19.186 -42.892007,-42.85224 0.01642,-0.55825 0.04384,-1.11718 0.08208,-1.6744 -0.002,-0.054 -0.005,-0.10883 -0.006,-0.16261 9e-5,-8.19959 6.653386,-14.84832 14.860879,-14.84862 h 0.02202 10e-4 10e-4 c 6.61e-4,7e-5 0.002,7e-5 0.003,0 h 0.001 0.002 0.003 0.001 c 7.21e-4,-6e-4 0.002,0 0.003,0 h 10e-4 v -0.0277 c 8.207793,-0.0217 14.854472,-6.67422 14.855012,-14.87644 -3e-4,-8.20245 -6.647049,-14.85598 -14.855012,-14.87788 v -0.0248 c 0,0 -10e-4,0 -10e-4,0 -6.71e-4,-7e-5 -0.002,-7e-5 -0.003,0 h -0.001 -0.003 -0.002 -0.001 c -6.71e-4,-7e-5 -0.002,-7e-5 -0.003,0 h -10e-4 -0.02342 c -8.207233,-3.7e-4 -14.860559,-6.64744 -14.860879,-14.84712 3.1e-4,-8.19958 6.653636,-14.84538 14.860879,-14.84568 h 0.02202 10e-4 10e-4 c 6.6e-4,8e-5 0.002,8e-5 0.003,0 h 0.001 0.003 c 0,0 10e-4,0 10e-4,0 h 10e-4 c 6.6e-4,8e-5 0.002,8e-5 0.003,0 0,0 0.001,0 0.001,0 v -0.0307 c 8.206891,-0.0217 14.85319,-6.67363 14.855012,-14.87502 -3.1e-4,-8.20238 -6.64705,-14.85305 -14.855012,-14.87495 v -0.0277 h -0.001 c -6.11e-4,-7.5e-4 -0.002,0 -0.003,0 h -10e-4 -10e-4 c -6.71e-4,-8e-5 -0.002,-8e-5 -0.003,0 h -0.001 c -6.71e-4,-8e-5 -0.002,-8e-5 -0.003,0 h -10e-4 -0.02342 c -8.207233,-3.8e-4 -14.860559,-6.64603 -14.86088,-14.84569 -9.81e-4,-8.20057 6.652716,-14.84818 14.86088,-14.84855 h 0.02202 10e-4 0.002 0.003 0.002 c 6.61e-4,7e-5 0.002,7e-5 0.003,0 h 10e-4 c 0,0 0.002,0 0.002,0 7.21e-4,-6e-4 0.002,-4.5e-4 0.003,0 h 10e-4 v -0.0277 c 8.206892,-0.0217 14.853191,-6.6722 14.855013,-14.87352 9.71e-4,-8.20334 -6.646119,-14.85746 -14.855013,-14.87937 v -0.0232 c 0,0 -10e-4,0 -10e-4,0 -6.7e-4,-8e-5 -0.002,-8e-5 -0.003,0 h -0.002 -10e-4 c -6.1e-4,-6.8e-4 -0.002,-4.5e-4 -0.003,0 h -0.002 c -6.7e-4,-8e-5 -0.002,-8e-5 -0.003,0 h -0.002 -0.02342 c -8.208154,-3e-4 -14.86186,-6.64797 -14.860879,-14.84854 3.2e-4,-8.19967 6.653646,-14.84689 14.860879,-14.84719 h 0.02202 0.001 10e-4 0.003 10e-4 c 7.21e-4,-6e-4 0.002,-4.5e-4 0.003,0 h 0.001 10e-4 c 7.21e-4,-6e-4 0.002,-4.5e-4 0.003,0 h 10e-4 v -0.0293 c 8.206881,-0.0217 14.85318,-6.67071 14.855012,-14.87203 -3e-4,-8.20253 -6.647049,-14.85597 -14.855012,-14.87795 v -0.0248 h -10e-4 c -6.11e-4,-7.5e-4 -0.002,-4.5e-4 -0.003,0 h -10e-4 -0.001 c -6.71e-4,-7e-5 -0.002,-7e-5 -0.003,0 h -10e-4 -0.003 -10e-4 -0.02342 c -8.207233,-3e-4 -14.860559,-6.64744 -14.86088,-14.84711 0.006,-7.69277 5.892955,-14.10614 13.563207,-14.77828 1.059267,0.0925 2.121587,0.14449 3.184788,0.15821 23.707053,1.3e-4 42.924388,-19.20092 42.924268,-42.88602 -0.007,-0.73212 -0.03163,-1.46369 -0.07628,-2.19448 0.09259,-8.13098 6.714268,-14.675 14.853551,-14.67866 v 0.0249 c 8.20726,3.2e-4 14.86054,6.64749 14.86087,14.84713 l -0.001,0.0205 c -4e-5,6.6e-4 -4e-5,0.002 0,0.003 v 10e-4 c -4e-5,6.6e-4 -4e-5,0.002 0,0.003 v 10e-4 h 0.001 v 10e-4 c -4e-5,6.6e-4 -4e-5,0.002 0,0.003 h 10e-4 c 6.2e-4,7.2e-4 0.002,7.5e-4 0.003,10e-4 v 0.002 h 0.002 10e-4 c -4e-5,6.7e-4 -4e-5,0.002 0,0.003 6.7e-4,3e-5 0.002,3e-5 0.003,0 h 0.003 0.0323 c 0.0206,8.20036 6.67725,14.84114 14.88727,14.84275 8.21093,-3.2e-4 14.86955,-6.64147 14.89021,-14.84275 h 0.0264 c 6.6e-4,3e-5 0.002,3e-5 0.003,0 h 0.003 c 6.6e-4,3e-5 0.002,3e-5 0.003,0 7.2e-4,-6.1e-4 -5.4e-4,-0.002 0,-0.003 l 0.003,-0.002 c 7.2e-4,-6.2e-4 0.002,-7.5e-4 0.003,-10e-4 h 0.002 c 3e-5,-6.8e-4 3e-5,-0.002 0,-0.003 v -10e-4 l 0.001,-10e-4 c 4e-5,-6.7e-4 4e-5,-0.002 0,-0.003 v -10e-4 -0.0234 c 3.2e-4,-8.19964 6.65364,-14.84682 14.86088,-14.84713 8.20723,3.1e-4 14.86055,6.64748 14.86087,14.84713 v 0.0234 10e-4 c -4e-5,6.6e-4 -4e-5,0.002 0,0.003 v 10e-4 l 0.002,10e-4 c -3e-5,6.6e-4 -3e-5,0.002 0,0.003 h 0.001 v 10e-4 c 6.3e-4,7.2e-4 0.002,7.5e-4 0.003,0.002 h 0.002 c 6.3e-4,7.2e-4 0.002,0.002 0.003,0.003 h 0.001 c 6.9e-4,3e-5 0.002,3e-5 0.003,0 h 0.0264 c 0.0206,8.20036 6.68019,14.84114 14.89022,14.84275 8.21092,-3.2e-4 14.86954,-6.64149 14.8902,-14.84275 h 0.0249 10e-4 c 6.7e-4,3e-5 0.002,3e-5 0.003,0 h 0.001 c 7.2e-4,-6.1e-4 -5.4e-4,-0.002 0,-0.003 6.7e-4,4e-5 0.002,4e-5 0.003,0 l 0.001,-0.002 0.001,-10e-4 c 7.2e-4,-6.2e-4 0.002,-0.002 0.003,-0.003 v -10e-4 -10e-4 c 4e-5,-6.7e-4 4e-5,-0.002 0,-0.003 v -10e-4 -0.0234 c 3.3e-4,-8.19965 6.65364,-14.84682 14.86089,-14.84713 8.20815,-7.5e-4 14.86351,6.64658 14.86381,14.84713 l -0.003,0.022 v 0.003 c -3e-5,6.6e-4 -3e-5,0.002 0,0.003 v 0.002 c 6.2e-4,7.2e-4 0.002,7.5e-4 0.003,0.001 -3e-5,6.6e-4 -3e-5,0.002 0,0.003 6.1e-4,7.2e-4 0.002,7.5e-4 0.003,10e-4 h 0.003 c 6.1e-4,7.2e-4 7.6e-4,0.002 0.002,0.003 6.8e-4,3e-5 0.002,3e-5 0.003,0 h 0.001 0.002 0.0278 c 0.0207,8.20129 6.68071,14.84244 14.89166,14.84274 8.21093,-3.1e-4 14.86955,-6.64148 14.89021,-14.84274 h 0.0249 10e-4 c 6.6e-4,3e-5 0.002,3e-5 0.003,0 h 10e-4 c 7.2e-4,-6e-4 0.002,-0.002 0.003,-0.003 h 0.003 v -10e-4 c 7.2e-4,-6e-4 0.004,5.4e-4 0.005,0 7.2e-4,-6.1e-4 -5.4e-4,-0.002 0,-0.003 v -0.001 -0.002 c 3e-5,-6.6e-4 3e-5,-0.002 0,-0.003 v -0.003 -0.0234 c 3.1e-4,-8.19964 6.65365,-14.84681 14.86088,-14.84713 8.20724,3.2e-4 14.85909,6.64748 14.85941,14.84713 l -0.002,0.022 v 0.002 0.001 c 6.2e-4,7.2e-4 -6e-5,0.002 0.002,0.003 v 0.003 c 6.1e-4,7.2e-4 0.002,0.002 0.003,0.003 l 0.003,10e-4 c 6.1e-4,7.2e-4 -5.4e-4,0.002 0,0.003 6.9e-4,3e-5 0.002,3e-5 0.003,0 l 0.003,0.003 c 6.9e-4,3e-5 0.002,3e-5 0.003,0 h 0.002 0.002 0.0307 c 0.0207,8.20036 6.67725,14.84114 14.88727,14.84275 8.21092,-3.1e-4 14.87102,-6.64149 14.89168,-14.84275 h 0.0249 0.003 c 6.8e-4,3e-5 0.002,3e-5 0.003,0 h 0.002 l 10e-4,-0.003 c 6.8e-4,3e-5 0.002,3e-5 0.003,0 5e-5,-6.8e-4 5e-5,-0.002 0,-0.003 h 0.001 v -10e-4 c 6.8e-4,3e-5 0.002,3e-5 0.003,0 5e-5,-6.8e-4 5e-5,-0.002 0,-0.003 v -0.003 c 5e-5,-6.8e-4 5e-5,-0.002 0,-0.003 v -0.001 -0.0234 c 3.3e-4,-8.19966 6.65364,-14.84682 14.86088,-14.84714 8.20725,3.2e-4 14.85911,6.64748 14.85942,14.84714 v 0.0234 0.001 c -4e-5,6.6e-4 -4e-5,0.002 0,0.003 6.2e-4,7.2e-4 0.002,10e-4 0.003,0.003 6.1e-4,7.2e-4 0.001,0.002 0.003,0.003 l 0.001,10e-4 c -4e-5,6.6e-4 -4e-5,0.002 0,0.003 6.7e-4,3e-5 0.002,3e-5 0.003,0 h 10e-4 v 0.003 h 0.002 c 6.7e-4,3e-5 0.002,3e-5 0.003,0 h 0.003 0.0293 c 0.0206,8.20036 6.67726,14.84114 14.88728,14.84275 8.21185,7.5e-4 14.87394,-6.64056 14.8946,-14.84275 h 0.0234 0.002 c 6.7e-4,3e-5 0.002,3e-5 0.003,0 h 0.002 l 0.002,-0.003 c 7.2e-4,-6.2e-4 0.002,-0.002 0.003,-0.003 h 0.003 v -10e-4 h 0.002 c 4e-5,-6.8e-4 4e-5,-0.002 0,-0.003 7.2e-4,-6.2e-4 0.002,-10e-4 0.003,-0.003 4e-5,-6.8e-4 4e-5,-0.002 0,-0.003 v -0.001 -0.0234 c 3.2e-4,-8.20056 6.65418,-14.84811 14.86233,-14.84714 8.20724,3.2e-4 14.85911,6.64748 14.85943,14.84714 l -0.002,0.022 v 0.001 0.002 c -4e-5,6.6e-4 -4e-5,0.002 0,0.003 v 0.002 h 0.002 c -3e-5,6.6e-4 -3e-5,0.002 0,0.003 6.1e-4,7.2e-4 0.002,0.002 0.003,0.003 h 0.002 c -3e-5,6.6e-4 -3e-5,0.004 0,0.005 h 10e-4 c 6.8e-4,3e-5 0.002,3e-5 0.003,0 v 0.001 h 0.002 c 6.8e-4,3e-5 0.004,3e-5 0.005,0 h 0.002 0.0307 c 0.0207,8.20036 6.67872,14.84115 14.88874,14.84276 8.21093,-3.2e-4 14.87102,-6.6415 14.89168,-14.84276 h 0.0249 0.003 c 6.7e-4,3e-5 0.002,3e-5 0.003,0 h 0.002 l 0.002,-0.001 c 7.2e-4,-6.2e-4 0.002,-0.004 0.003,-0.005 h 10e-4 0.002 v -0.003 c 4e-5,-6.7e-4 4e-5,-0.002 0,-0.003 7.2e-4,-6.2e-4 0.002,7e-5 0.003,-0.002 4e-5,-6.7e-4 4e-5,-0.002 0,-0.003 v -0.002 -0.0234 c 3.2e-4,-8.19965 6.66065,-15.21951 14.85942,-14.84713 21.06021,0.95652 10e-4,1e-5 21.04129,1.32869 9.60233,0.6064 16.24403,-14.01503 10.99426,-24.18171 -2.70412,-4.74425 -8.03248,-8.5449 -14.51043,-8.82037 -0.0548,7.5e-4 -0.10814,0.003 -0.16276,0.006 -5.5e-4,-1.4e-4 -4.5e-4,-3e-5 -0.003,-0.002 -7.5e-4,-7.2e-4 -0.002,-0.002 -0.004,-0.003 -7.5e-4,-5.1e-4 -0.005,9e-5 -0.006,-0.002 -4.9e-4,-1.3e-4 -0.005,0 -0.006,0 h -77.7085 l 0.007,-0.0278 v -0.003 -0.003 -10e-4 -0.003 l -0.002,-0.001 v -10e-4 h -0.003 v -0.006 l -0.003,-10e-4 -0.005,-0.001 h -0.003 -0.005 -267.40199 c -0.0351,0 -0.0611,-0.0187 -0.0821,-0.0454 l -0.003,-0.003 -10e-4,-0.002 h -0.001 l -0.005,-0.001 h -0.001 -0.002 -0.001 c -44.07751,-0.76176 -79.424428,-36.66728 -79.445058,-80.7162 0.03203,-44.03711 35.370862,-79.93057 79.442278,-80.68724 h 0.001 0.003 l 0.003,-0.003 h 0.003 v -0.001 l 0.003,-0.002 v -0.002 h 0.003 v -0.003 c 0.0196,-0.0364 0.0493,-0.063 0.0909,-0.063 h 268.76328 10e-4 0.002 0.003 l 0.002,-0.002 0.003,-0.001 h 0.003 l 0.003,-0.003 10e-4,-0.003 v -10e-4 l 0.002,-0.002 v -0.003 -0.002 -0.002 -0.003 -0.001 -0.002 l -0.009,-0.0278 h 77.78099 c 0.007,0 0.0115,-0.003 0.0146,-0.006 7.5e-4,-7.5e-4 0.003,-0.002 0.003,-0.003 l 0.15983,0.006 c 11.74788,-2.4e-4 21.27271,-9.51335 21.27298,-21.25037 -2.5e-4,-11.737 -9.52509,-21.25306 -21.27298,-21.25331 -0.0545,7.5e-4 -0.10945,0.003 -0.16422,0.006 v -0.002 c -0.003,-7.5e-4 -0.0132,-0.003 -0.0132,-0.003 -115.17985,-0.20629 -239.12095,-0.30055 -346.55545,-0.0483 -0.0339,0 -0.0624,-0.0197 -0.0836,-0.0455 h -10e-4 v -0.001 l -0.001,-0.002 h -0.002 -0.003 v -0.003 h -0.001 -0.002 -0.003 C 82.938846,204.66878 47.590647,168.76318 47.570006,124.71427 47.600936,80.66906 82.951639,44.77072 127.03135,44.02409 h 10e-4 0.003 l 0.003,-0.003 0.001,-0.003 h 0.003 0.001 c 0.0271,-0.0351 3.11476,-0.0615 0.10997,-0.0615 149.53406,2.4e-4 303.48519,6e-5 438.01694,0 5.7e-4,4.5e-4 4.5e-4,-7.5e-4 0.003,0.001 7.5e-4,6.1e-4 0.005,0.005 0.005,0.005 l 0.007,0.002 h 0.002 c 0.0572,-0.004 0.11324,-0.005 0.17156,-0.009 50.49978,5.4e-4 91.65019,39.95683 93.52603,89.95151 -0.0401,135.78867 0.0968,724.31887 0.0968,724.31887 0.0819,10.2888 9.56303,18.4576 19.87706,19.0838 h 2.68038 c 0.20268,-0.01 0.40586,-0.022 0.60705,-0.037 0.42535,-0.032 0.84722,-0.072 1.26541,-0.1231 0.23687,-0.029 0.47093,-0.064 0.70529,-0.1 0.34943,-0.053 0.69612,-0.1109 1.0396,-0.1772 0.30652,-0.059 0.61061,-0.1249 0.91204,-0.195 0.26311,-0.061 0.52399,-0.1272 0.783,-0.1962 0.37583,-0.1005 0.74633,-0.2094 1.11292,-0.3267 0.229,-0.073 0.45664,-0.1488 0.68182,-0.2286 0.34396,-0.1218 0.68307,-0.2528 1.01761,-0.3896 0.24708,-0.1009 0.49295,-0.203 0.7346,-0.3121 0.25347,-0.1144 0.50498,-0.2328 0.75222,-0.3559 0.18738,-0.093 0.36913,-0.1933 0.55279,-0.2916 0.11499,-0.062 0.23255,-0.1196 0.34604,-0.183 1.14294,-0.6394 2.21,-1.3761 3.18478,-2.2049 1.94742,-1.6557 3.52852,-3.6779 4.62469,-6.0178 0.002,0 0.003,-0.01 0.005,-0.01 0.004,-0.01 0.007,-0.015 0.0103,-0.022 0.12837,-0.2754 0.24889,-0.5554 0.36363,-0.8394 0.0158,-0.039 0.0299,-0.079 0.0454,-0.1186 0.0974,-0.2464 0.19018,-0.4959 0.27714,-0.7487 0.0299,-0.087 0.0579,-0.1757 0.0865,-0.2636 0.0733,-0.2244 0.14328,-0.4506 0.20822,-0.6798 0.0261,-0.093 0.0499,-0.1863 0.0748,-0.2797 0.0557,-0.2089 0.10832,-0.4188 0.1569,-0.6315 0.0339,-0.1491 0.065,-0.3001 0.0953,-0.4512 0.0341,-0.1689 0.0671,-0.3385 0.0968,-0.5097 0.0275,-0.1597 0.0525,-0.3204 0.0763,-0.4821 0.0258,-0.1754 0.0491,-0.3525 0.0704,-0.5302 0.0211,-0.1785 0.0408,-0.3582 0.0572,-0.5391 0.0137,-0.1497 0.0248,-0.3001 0.0352,-0.4513 0.0145,-0.2137 0.0259,-0.4291 0.0337,-0.6459 0.005,-0.1212 0.008,-0.2428 0.0103,-0.3648 v -8.2697 l 0.002,-26.9708 h 0.003 0.002 0.003 c -0.0418,-272.62824 0.002,-529.8419 0.002,-803.93096 0,-0.0408 -0.003,-0.0808 -0.003,-0.12159 -0.003,-0.39647 -0.0204,-0.78946 -0.0483,-1.17929 -0.007,-0.10313 -0.0145,-0.20645 -0.0234,-0.3091 -0.0383,-0.43269 -0.0889,-0.86156 -0.1569,-1.28474 -0.009,-0.0584 -0.0209,-0.11615 -0.0308,-0.17432 -0.0712,-0.41717 -0.15468,-0.82974 -0.25367,-1.23641 -0.009,-0.0356 -0.016,-0.0715 -0.0249,-0.10695 -0.10938,-0.43782 -0.23639,-0.86928 -0.37683,-1.29353 -0.0144,-0.0436 -0.0293,-0.0869 -0.0439,-0.13038 -0.14639,-0.43114 -0.30523,-0.85605 -0.48241,-1.27157 -0.18189,-0.42657 -0.38095,-0.84386 -0.59386,-1.25253 -0.005,-0.0101 -0.009,-0.0207 -0.0146,-0.0308 -0.003,-0.006 -0.008,-0.0105 -0.0103,-0.0161 -0.21635,-0.41232 -0.44709,-0.81612 -0.69356,-1.20857 -2.1e-4,-3.4e-4 2.2e-4,-7.5e-4 0,-10e-4 -0.24964,-0.39746 -0.5143,-0.78327 -0.79326,-1.15876 -0.17182,-0.23125 -0.34983,-0.45873 -0.53227,-0.68121 -0.18244,-0.22246 -0.37035,-0.44011 -0.56305,-0.65336 -0.1927,-0.21322 -0.38979,-0.42181 -0.59239,-0.62552 -0.13603,-0.13674 -0.27754,-0.26763 -0.41789,-0.39994 -0.072,-0.0683 -0.14097,-0.13841 -0.21407,-0.20508 0,0 -0.002,0 -0.002,0 -0.4207,-0.38357 -0.86085,-0.74753 -1.31674,-1.08992 -0.46004,-0.34547 -0.93668,-0.66923 -1.42962,-0.96978 -0.24646,-0.15023 -0.49661,-0.29516 -0.75074,-0.43362 -2.54136,-1.38451 -5.45705,-2.16957 -8.5617,-2.16957 l -0.003,-0.0103 H 683.62149 351.49585 19.370203 Z"
       style="color:#000000;font-style:normal;font-variant:normal;font-weight:normal;font-stretch:normal;font-size:medium;line-height:normal;font-family:sans-serif;text-indent:0;text-align:start;text-decoration:none;text-decoration-line:none;text-decoration-style:solid;text-decoration-color:#000000;letter-spacing:normal;word-spacing:normal;text-transform:none;writing-mode:lr-tb;direction:ltr;baseline-shift:baseline;text-anchor:start;white-space:normal;clip-rule:nonzero;display:inline;overflow:visible;visibility:visible;opacity:1;isolation:auto;mix-blend-mode:normal;color-interpolation:sRGB;color-interpolation-filters:linearRGB;solid-color:#000000;solid-opacity:1;fill:none;fill-opacity:1;fill-rule:nonzero;stroke:#000002;stroke-width:2.83614;stroke-linecap:butt;stroke-linejoin:miter;stroke-miterlimit:4;stroke-dasharray:none;stroke-dashoffset:0;stroke-opacity:1;color-rendering:auto;image-rendering:auto;shape-rendering:auto;text-rendering:auto;enable-background:accumulate"
       id="path6473" /></g></svg>
