<?xml version="1.0" encoding="UTF-8" standalone="no"?>
<svg
   version="1.1"
   inkscape:output_extension="org.inkscape.output.svg.inkscape"
   sodipodi:docname="SpeakerLayerEvenHalf.svg"
   inkscape:version="1.3 (0e150ed6c4, 2023-07-21)"
   sodipodi:version="0.32"
   id="svg2338"
   xml:space="preserve"
   viewBox="0 0 1116.852 1116.85"
   height="1116.85pt"
   width="1116.852pt"
   xmlns:inkscape="http://www.inkscape.org/namespaces/inkscape"
   xmlns:sodipodi="http://sodipodi.sourceforge.net/DTD/sodipodi-0.dtd"
   xmlns="http://www.w3.org/2000/svg"
   xmlns:svg="http://www.w3.org/2000/svg"
   xmlns:rdf="http://www.w3.org/1999/02/22-rdf-syntax-ns#"
   xmlns:cc="http://creativecommons.org/ns#"
   xmlns:dc="http://purl.org/dc/elements/1.1/"><metadata
     id="metadata2382"><rdf:RDF><cc:Work
         rdf:about=""><dc:format>image/svg+xml</dc:format><dc:type
           rdf:resource="http://purl.org/dc/dcmitype/StillImage" /></cc:Work></rdf:RDF></metadata><defs
     id="defs2380"><inkscape:perspective
       id="perspective46224"
       inkscape:persp3d-origin="698.03253 : 465.35417 : 1"
       inkscape:vp_z="1396.0651 : 698.03125 : 1"
       inkscape:vp_y="0 : 1000 : 0"
       inkscape:vp_x="0 : 698.03125 : 1"
       sodipodi:type="inkscape:persp3d" /><inkscape:perspective
       id="perspective37556-9"
       inkscape:persp3d-origin="338.38562 : 225.59001 : 1"
       inkscape:vp_z="676.77124 : 338.38501 : 1"
       inkscape:vp_y="0 : 1000 : 0"
       inkscape:vp_x="0 : 338.38501 : 1"
       sodipodi:type="inkscape:persp3d" /><inkscape:perspective
       id="perspective16301-9"
       inkscape:persp3d-origin="338.38562 : 225.59001 : 1"
       inkscape:vp_z="676.77124 : 338.38501 : 1"
       inkscape:vp_y="0 : 1000 : 0"
       inkscape:vp_x="0 : 338.38501 : 1"
       sodipodi:type="inkscape:persp3d" /><inkscape:perspective
       id="perspective12409-1"
       inkscape:persp3d-origin="270.7085 : 180.47233 : 1"
       inkscape:vp_z="541.41699 : 270.7085 : 1"
       inkscape:vp_y="0 : 1000 : 0"
       inkscape:vp_x="0 : 270.7085 : 1"
       sodipodi:type="inkscape:persp3d" /><inkscape:perspective
       id="perspective9337-7"
       inkscape:persp3d-origin="0.5 : 0.33333333 : 1"
       inkscape:vp_z="1 : 0.5 : 1"
       inkscape:vp_y="0 : 1000 : 0"
       inkscape:vp_x="0 : 0.5 : 1"
       sodipodi:type="inkscape:persp3d" /><inkscape:perspective
       id="perspective8562-2"
       inkscape:persp3d-origin="0.5 : 0.33333333 : 1"
       inkscape:vp_z="1 : 0.5 : 1"
       inkscape:vp_y="0 : 1000 : 0"
       inkscape:vp_x="0 : 0.5 : 1"
       sodipodi:type="inkscape:persp3d" /><inkscape:perspective
       sodipodi:type="inkscape:persp3d"
       inkscape:vp_x="0 : 338.38501 : 1"
       inkscape:vp_y="0 : 1000 : 0"
       inkscape:vp_z="676.77124 : 338.38501 : 1"
       inkscape:persp3d-origin="338.38562 : 225.59001 : 1"
       id="perspective3083-3" /><inkscape:perspective
       sodipodi:type="inkscape:persp3d"
       inkscape:vp_x="0 : 270.7085 : 1"
       inkscape:vp_y="0 : 1000 : 0"
       inkscape:vp_z="541.41699 : 270.7085 : 1"
       inkscape:persp3d-origin="270.7085 : 180.47233 : 1"
       id="perspective23419-6" /><inkscape:perspective
       sodipodi:type="inkscape:persp3d"
       inkscape:vp_x="0 : 338.38501 : 1"
       inkscape:vp_y="0 : 1000 : 0"
       inkscape:vp_z="676.77124 : 338.38501 : 1"
       inkscape:persp3d-origin="338.38562 : 225.59001 : 1"
       id="perspective27913-5" /><inkscape:perspective
       id="perspective27913"
       inkscape:persp3d-origin="338.38562 : 225.59001 : 1"
       inkscape:vp_z="676.77124 : 338.38501 : 1"
       inkscape:vp_y="0 : 1000 : 0"
       inkscape:vp_x="0 : 338.38501 : 1"
       sodipodi:type="inkscape:persp3d" /><inkscape:perspective
       id="perspective23419"
       inkscape:persp3d-origin="270.7085 : 180.47233 : 1"
       inkscape:vp_z="541.41699 : 270.7085 : 1"
       inkscape:vp_y="0 : 1000 : 0"
       inkscape:vp_x="0 : 270.7085 : 1"
       sodipodi:type="inkscape:persp3d" /><inkscape:perspective
       id="perspective3083"
       inkscape:persp3d-origin="338.38562 : 225.59001 : 1"
       inkscape:vp_z="676.77124 : 338.38501 : 1"
       inkscape:vp_y="0 : 1000 : 0"
       inkscape:vp_x="0 : 338.38501 : 1"
       sodipodi:type="inkscape:persp3d" /><inkscape:perspective
       sodipodi:type="inkscape:persp3d"
       inkscape:vp_x="0 : 0.5 : 1"
       inkscape:vp_y="0 : 1000 : 0"
       inkscape:vp_z="1 : 0.5 : 1"
       inkscape:persp3d-origin="0.5 : 0.33333333 : 1"
       id="perspective8562" /><inkscape:perspective
       sodipodi:type="inkscape:persp3d"
       inkscape:vp_x="0 : 0.5 : 1"
       inkscape:vp_y="0 : 1000 : 0"
       inkscape:vp_z="1 : 0.5 : 1"
       inkscape:persp3d-origin="0.5 : 0.33333333 : 1"
       id="perspective9337" /><inkscape:perspective
       sodipodi:type="inkscape:persp3d"
       inkscape:vp_x="0 : 270.7085 : 1"
       inkscape:vp_y="0 : 1000 : 0"
       inkscape:vp_z="541.41699 : 270.7085 : 1"
       inkscape:persp3d-origin="270.7085 : 180.47233 : 1"
       id="perspective12409" /><inkscape:perspective
       sodipodi:type="inkscape:persp3d"
       inkscape:vp_x="0 : 338.38501 : 1"
       inkscape:vp_y="0 : 1000 : 0"
       inkscape:vp_z="676.77124 : 338.38501 : 1"
       inkscape:persp3d-origin="338.38562 : 225.59001 : 1"
       id="perspective16301" /><inkscape:perspective
       sodipodi:type="inkscape:persp3d"
       inkscape:vp_x="0 : 338.38501 : 1"
       inkscape:vp_y="0 : 1000 : 0"
       inkscape:vp_z="676.77124 : 338.38501 : 1"
       inkscape:persp3d-origin="338.38562 : 225.59001 : 1"
       id="perspective37556" /><inkscape:perspective
       sodipodi:type="inkscape:persp3d"
       inkscape:vp_x="0 : 270.70999 : 1"
       inkscape:vp_y="0 : 1000 : 0"
       inkscape:vp_z="541.41998 : 270.70999 : 1"
       inkscape:persp3d-origin="270.70999 : 180.47333 : 1"
       id="perspective51446" /><inkscape:perspective
       id="perspective37556-9-8"
       inkscape:persp3d-origin="338.38562 : 225.59001 : 1"
       inkscape:vp_z="676.77124 : 338.38501 : 1"
       inkscape:vp_y="0 : 1000 : 0"
       inkscape:vp_x="0 : 338.38501 : 1"
       sodipodi:type="inkscape:persp3d" /><inkscape:perspective
       id="perspective16301-9-1"
       inkscape:persp3d-origin="338.38562 : 225.59001 : 1"
       inkscape:vp_z="676.77124 : 338.38501 : 1"
       inkscape:vp_y="0 : 1000 : 0"
       inkscape:vp_x="0 : 338.38501 : 1"
       sodipodi:type="inkscape:persp3d" /><inkscape:perspective
       id="perspective12409-1-2"
       inkscape:persp3d-origin="270.7085 : 180.47233 : 1"
       inkscape:vp_z="541.41699 : 270.7085 : 1"
       inkscape:vp_y="0 : 1000 : 0"
       inkscape:vp_x="0 : 270.7085 : 1"
       sodipodi:type="inkscape:persp3d" /><inkscape:perspective
       id="perspective9337-7-0"
       inkscape:persp3d-origin="0.5 : 0.33333333 : 1"
       inkscape:vp_z="1 : 0.5 : 1"
       inkscape:vp_y="0 : 1000 : 0"
       inkscape:vp_x="0 : 0.5 : 1"
       sodipodi:type="inkscape:persp3d" /><inkscape:perspective
       id="perspective8562-2-5"
       inkscape:persp3d-origin="0.5 : 0.33333333 : 1"
       inkscape:vp_z="1 : 0.5 : 1"
       inkscape:vp_y="0 : 1000 : 0"
       inkscape:vp_x="0 : 0.5 : 1"
       sodipodi:type="inkscape:persp3d" /><inkscape:perspective
       sodipodi:type="inkscape:persp3d"
       inkscape:vp_x="0 : 338.38501 : 1"
       inkscape:vp_y="0 : 1000 : 0"
       inkscape:vp_z="676.77124 : 338.38501 : 1"
       inkscape:persp3d-origin="338.38562 : 225.59001 : 1"
       id="perspective3083-3-7" /><inkscape:perspective
       sodipodi:type="inkscape:persp3d"
       inkscape:vp_x="0 : 270.7085 : 1"
       inkscape:vp_y="0 : 1000 : 0"
       inkscape:vp_z="541.41699 : 270.7085 : 1"
       inkscape:persp3d-origin="270.7085 : 180.47233 : 1"
       id="perspective23419-6-3" /><inkscape:perspective
       sodipodi:type="inkscape:persp3d"
       inkscape:vp_x="0 : 338.38501 : 1"
       inkscape:vp_y="0 : 1000 : 0"
       inkscape:vp_z="676.77124 : 338.38501 : 1"
       inkscape:persp3d-origin="338.38562 : 225.59001 : 1"
       id="perspective27913-5-7" /><inkscape:perspective
       id="perspective27913-9"
       inkscape:persp3d-origin="338.38562 : 225.59001 : 1"
       inkscape:vp_z="676.77124 : 338.38501 : 1"
       inkscape:vp_y="0 : 1000 : 0"
       inkscape:vp_x="0 : 338.38501 : 1"
       sodipodi:type="inkscape:persp3d" /><inkscape:perspective
       id="perspective23419-3"
       inkscape:persp3d-origin="270.7085 : 180.47233 : 1"
       inkscape:vp_z="541.41699 : 270.7085 : 1"
       inkscape:vp_y="0 : 1000 : 0"
       inkscape:vp_x="0 : 270.7085 : 1"
       sodipodi:type="inkscape:persp3d" /><inkscape:perspective
       id="perspective3083-1"
       inkscape:persp3d-origin="338.38562 : 225.59001 : 1"
       inkscape:vp_z="676.77124 : 338.38501 : 1"
       inkscape:vp_y="0 : 1000 : 0"
       inkscape:vp_x="0 : 338.38501 : 1"
       sodipodi:type="inkscape:persp3d" /><inkscape:perspective
       sodipodi:type="inkscape:persp3d"
       inkscape:vp_x="0 : 0.5 : 1"
       inkscape:vp_y="0 : 1000 : 0"
       inkscape:vp_z="1 : 0.5 : 1"
       inkscape:persp3d-origin="0.5 : 0.33333333 : 1"
       id="perspective8562-25" /><inkscape:perspective
       sodipodi:type="inkscape:persp3d"
       inkscape:vp_x="0 : 0.5 : 1"
       inkscape:vp_y="0 : 1000 : 0"
       inkscape:vp_z="1 : 0.5 : 1"
       inkscape:persp3d-origin="0.5 : 0.33333333 : 1"
       id="perspective9337-6" /><inkscape:perspective
       sodipodi:type="inkscape:persp3d"
       inkscape:vp_x="0 : 270.7085 : 1"
       inkscape:vp_y="0 : 1000 : 0"
       inkscape:vp_z="541.41699 : 270.7085 : 1"
       inkscape:persp3d-origin="270.7085 : 180.47233 : 1"
       id="perspective12409-8" /><inkscape:perspective
       sodipodi:type="inkscape:persp3d"
       inkscape:vp_x="0 : 338.38501 : 1"
       inkscape:vp_y="0 : 1000 : 0"
       inkscape:vp_z="676.77124 : 338.38501 : 1"
       inkscape:persp3d-origin="338.38562 : 225.59001 : 1"
       id="perspective16301-5" /><inkscape:perspective
       sodipodi:type="inkscape:persp3d"
       inkscape:vp_x="0 : 338.38501 : 1"
       inkscape:vp_y="0 : 1000 : 0"
       inkscape:vp_z="676.77124 : 338.38501 : 1"
       inkscape:persp3d-origin="338.38562 : 225.59001 : 1"
       id="perspective37556-4" /><inkscape:perspective
       id="perspective37556-9-1"
       inkscape:persp3d-origin="338.38562 : 225.59001 : 1"
       inkscape:vp_z="676.77124 : 338.38501 : 1"
       inkscape:vp_y="0 : 1000 : 0"
       inkscape:vp_x="0 : 338.38501 : 1"
       sodipodi:type="inkscape:persp3d" /><inkscape:perspective
       id="perspective16301-9-3"
       inkscape:persp3d-origin="338.38562 : 225.59001 : 1"
       inkscape:vp_z="676.77124 : 338.38501 : 1"
       inkscape:vp_y="0 : 1000 : 0"
       inkscape:vp_x="0 : 338.38501 : 1"
       sodipodi:type="inkscape:persp3d" /><inkscape:perspective
       id="perspective12409-1-9"
       inkscape:persp3d-origin="270.7085 : 180.47233 : 1"
       inkscape:vp_z="541.41699 : 270.7085 : 1"
       inkscape:vp_y="0 : 1000 : 0"
       inkscape:vp_x="0 : 270.7085 : 1"
       sodipodi:type="inkscape:persp3d" /><inkscape:perspective
       id="perspective9337-7-1"
       inkscape:persp3d-origin="0.5 : 0.33333333 : 1"
       inkscape:vp_z="1 : 0.5 : 1"
       inkscape:vp_y="0 : 1000 : 0"
       inkscape:vp_x="0 : 0.5 : 1"
       sodipodi:type="inkscape:persp3d" /><inkscape:perspective
       id="perspective8562-2-7"
       inkscape:persp3d-origin="0.5 : 0.33333333 : 1"
       inkscape:vp_z="1 : 0.5 : 1"
       inkscape:vp_y="0 : 1000 : 0"
       inkscape:vp_x="0 : 0.5 : 1"
       sodipodi:type="inkscape:persp3d" /><inkscape:perspective
       sodipodi:type="inkscape:persp3d"
       inkscape:vp_x="0 : 338.38501 : 1"
       inkscape:vp_y="0 : 1000 : 0"
       inkscape:vp_z="676.77124 : 338.38501 : 1"
       inkscape:persp3d-origin="338.38562 : 225.59001 : 1"
       id="perspective3083-3-8" /><inkscape:perspective
       sodipodi:type="inkscape:persp3d"
       inkscape:vp_x="0 : 270.7085 : 1"
       inkscape:vp_y="0 : 1000 : 0"
       inkscape:vp_z="541.41699 : 270.7085 : 1"
       inkscape:persp3d-origin="270.7085 : 180.47233 : 1"
       id="perspective23419-6-8" /><inkscape:perspective
       sodipodi:type="inkscape:persp3d"
       inkscape:vp_x="0 : 338.38501 : 1"
       inkscape:vp_y="0 : 1000 : 0"
       inkscape:vp_z="676.77124 : 338.38501 : 1"
       inkscape:persp3d-origin="338.38562 : 225.59001 : 1"
       id="perspective27913-5-4" /><inkscape:perspective
       id="perspective27913-1"
       inkscape:persp3d-origin="338.38562 : 225.59001 : 1"
       inkscape:vp_z="676.77124 : 338.38501 : 1"
       inkscape:vp_y="0 : 1000 : 0"
       inkscape:vp_x="0 : 338.38501 : 1"
       sodipodi:type="inkscape:persp3d" /><inkscape:perspective
       id="perspective23419-9"
       inkscape:persp3d-origin="270.7085 : 180.47233 : 1"
       inkscape:vp_z="541.41699 : 270.7085 : 1"
       inkscape:vp_y="0 : 1000 : 0"
       inkscape:vp_x="0 : 270.7085 : 1"
       sodipodi:type="inkscape:persp3d" /><inkscape:perspective
       id="perspective3083-8"
       inkscape:persp3d-origin="338.38562 : 225.59001 : 1"
       inkscape:vp_z="676.77124 : 338.38501 : 1"
       inkscape:vp_y="0 : 1000 : 0"
       inkscape:vp_x="0 : 338.38501 : 1"
       sodipodi:type="inkscape:persp3d" /><inkscape:perspective
       sodipodi:type="inkscape:persp3d"
       inkscape:vp_x="0 : 0.5 : 1"
       inkscape:vp_y="0 : 1000 : 0"
       inkscape:vp_z="1 : 0.5 : 1"
       inkscape:persp3d-origin="0.5 : 0.33333333 : 1"
       id="perspective8562-6" /><inkscape:perspective
       sodipodi:type="inkscape:persp3d"
       inkscape:vp_x="0 : 0.5 : 1"
       inkscape:vp_y="0 : 1000 : 0"
       inkscape:vp_z="1 : 0.5 : 1"
       inkscape:persp3d-origin="0.5 : 0.33333333 : 1"
       id="perspective9337-2" /><inkscape:perspective
       sodipodi:type="inkscape:persp3d"
       inkscape:vp_x="0 : 270.7085 : 1"
       inkscape:vp_y="0 : 1000 : 0"
       inkscape:vp_z="541.41699 : 270.7085 : 1"
       inkscape:persp3d-origin="270.7085 : 180.47233 : 1"
       id="perspective12409-3" /><inkscape:perspective
       sodipodi:type="inkscape:persp3d"
       inkscape:vp_x="0 : 338.38501 : 1"
       inkscape:vp_y="0 : 1000 : 0"
       inkscape:vp_z="676.77124 : 338.38501 : 1"
       inkscape:persp3d-origin="338.38562 : 225.59001 : 1"
       id="perspective16301-56" /><inkscape:perspective
       sodipodi:type="inkscape:persp3d"
       inkscape:vp_x="0 : 338.38501 : 1"
       inkscape:vp_y="0 : 1000 : 0"
       inkscape:vp_z="676.77124 : 338.38501 : 1"
       inkscape:persp3d-origin="338.38562 : 225.59001 : 1"
       id="perspective37556-5" /><inkscape:perspective
       sodipodi:type="inkscape:persp3d"
       inkscape:vp_x="0 : 0.5 : 1"
       inkscape:vp_y="0 : 1000 : 0"
       inkscape:vp_z="1 : 0.5 : 1"
       inkscape:persp3d-origin="0.5 : 0.33333333 : 1"
       id="perspective10328" /><inkscape:perspective
       sodipodi:type="inkscape:persp3d"
       inkscape:vp_x="0 : 0.5 : 1"
       inkscape:vp_y="0 : 1000 : 0"
       inkscape:vp_z="1 : 0.5 : 1"
       inkscape:persp3d-origin="0.5 : 0.33333333 : 1"
       id="perspective11034" /><inkscape:perspective
       sodipodi:type="inkscape:persp3d"
       inkscape:vp_x="0 : 0.5 : 1"
       inkscape:vp_y="0 : 1000 : 0"
       inkscape:vp_z="1 : 0.5 : 1"
       inkscape:persp3d-origin="0.5 : 0.33333333 : 1"
       id="perspective3083-7" /><inkscape:perspective
       sodipodi:type="inkscape:persp3d"
       inkscape:vp_x="0 : 0.5 : 1"
       inkscape:vp_y="0 : 1000 : 0"
       inkscape:vp_z="1 : 0.5 : 1"
       inkscape:persp3d-origin="0.5 : 0.33333333 : 1"
       id="perspective2997" /></defs><sodipodi:namedview
     showguides="false"
     inkscape:document-rotation="0"
     inkscape:document-units="mm"
     inkscape:window-maximized="1"
     showgrid="false"
     inkscape:current-layer="layer10"
     inkscape:window-y="-11"
     inkscape:window-x="3829"
     inkscape:cy="695.08595"
     inkscape:cx="1368.9587"
     inkscape:zoom="0.7071068"
     id="base"
     pagecolor="#ffffff"
     bordercolor="#666666"
     borderopacity="1.0"
     objecttolerance="10.0"
     gridtolerance="10.0"
     guidetolerance="10.0"
     inkscape:pageopacity="0.0"
     inkscape:pageshadow="2"
     inkscape:window-width="3840"
     inkscape:window-height="2054"
     inkscape:pagecheckerboard="0"
     inkscape:showpageshadow="2"
     inkscape:deskcolor="#d1d1d1" /><g
     inkscape:label="Design Template"
     id="layer10"
     inkscape:groupmode="layer"><path
       id="path6473"
       style="color:#000000;font-style:normal;font-variant:normal;font-weight:normal;font-stretch:normal;font-size:medium;line-height:normal;font-family:sans-serif;text-indent:0;text-align:start;text-decoration:none;text-decoration-line:none;text-decoration-style:solid;text-decoration-color:#000000;letter-spacing:normal;word-spacing:normal;text-transform:none;writing-mode:lr-tb;direction:ltr;baseline-shift:baseline;text-anchor:start;white-space:normal;clip-rule:nonzero;display:inline;overflow:visible;visibility:visible;opacity:1;isolation:auto;mix-blend-mode:normal;color-interpolation:sRGB;color-interpolation-filters:linearRGB;solid-color:#000000;solid-opacity:1;fill:#947629;fill-opacity:0.35050505;fill-rule:nonzero;stroke:#000000;stroke-width:2.8346456;stroke-linecap:butt;stroke-linejoin:miter;stroke-miterlimit:4;stroke-dasharray:none;stroke-dashoffset:0;stroke-opacity:1;color-rendering:auto;image-rendering:auto;shape-rendering:auto;text-rendering:auto;enable-background:accumulate"
       d="M 19.369628 1.4179687 L 19.35205 1.4208984 L 19.349121 1.4311523 C 16.244481 1.4311523 13.329936 2.21608 10.788574 3.6005858 C 10.534443 3.7390455 10.283583 3.8839499 10.037109 4.0341796 C 9.7914168 4.184119 9.5512007 4.3387402 9.3134763 4.4999999 C 9.2638266 4.5337999 9.2147521 4.5697138 9.1655271 4.6040038 C 8.9778627 4.7340635 8.7912469 4.8654016 8.6088865 5.0024413 C 8.5985765 5.0094413 8.5884348 5.0184788 8.5781248 5.0258788 C 8.1327058 5.3618176 7.7022227 5.718361 7.2905272 6.0937498 L 7.2890623 6.0937498 C 7.2159906 6.1605498 7.1471262 6.231028 7.0751951 6.298828 C 6.934837 6.4311374 6.7922739 6.5620006 6.6562498 6.6987303 C 6.4536601 6.9024397 6.2571529 7.1109892 6.064453 7.3242186 C 5.8748463 7.534008 5.6904193 7.7486556 5.510742 7.967285 C 5.4557883 8.0339847 5.4050572 8.1046231 5.3510741 8.1723631 C 5.2227977 8.3331725 5.0915711 8.4933818 4.9687499 8.6586912 C 4.2815027 9.5837985 3.681126 10.577987 3.1787109 11.629394 C 2.7571554 12.511611 2.4044197 13.435008 2.1284179 14.390625 C 2.1244179 14.404725 2.1204012 14.41754 2.1166992 14.43164 C 2.0349182 14.71747 1.9620301 15.007268 1.8940429 15.298828 C 1.8818309 15.351528 1.8691328 15.404101 1.8574218 15.457031 C 1.7986641 15.719871 1.7465355 15.986776 1.6992187 16.253906 C 1.6881077 16.317006 1.6759373 16.379601 1.6655273 16.442871 C 1.6245863 16.688978 1.5909487 16.937574 1.5600586 17.187011 C 1.5485476 17.280711 1.5350123 17.374061 1.5249023 17.468261 C 1.5010783 17.688451 1.4852542 17.910753 1.4692382 18.1333 C 1.4612285 18.24521 1.4502419 18.35626 1.4443359 18.46875 C 1.4323239 18.694327 1.4290969 18.922132 1.4252929 19.149902 C 1.4242929 19.245902 1.4179687 19.340641 1.4179687 19.437011 L 1.4179687 80.301267 C 1.4199687 163.71221 1.4249855 245.8237 1.4296875 327.47314 L 1.4296875 327.48339 C 1.4445022 336.27458 5.2420512 345.63019 12.625488 353.00683 L 35.085937 375.44384 C 38.320461 378.71357 40.091608 383.15376 39.997558 387.74999 C 39.909468 392.07835 38.173008 396.20973 35.141601 399.30321 L 12.625488 421.80028 C 5.0085113 429.41222 1.2077124 439.12963 1.4399414 448.16014 L 1.4399414 448.166 L 1.4399414 448.16893 L 1.4370117 448.16893 L 1.4355468 448.17186 L 1.4355468 448.17333 L 1.434082 448.17333 L 1.4326172 448.17333 L 1.4296875 448.17333 L 1.4267578 448.17626 C 1.4297578 554.10498 1.4309787 660.29607 1.4179687 768.26805 L 1.4179687 823.36668 L 1.4208984 823.36668 L 1.4238281 823.36668 L 1.4252929 823.36668 L 1.4282226 823.36668 L 1.4282226 823.37547 L 1.4296875 823.37547 L 1.4296875 850.33885 L 1.4296875 858.80418 C 1.585631 864.41225 3.979005 868.99687 7.7519529 872.20457 C 11.277749 875.20194 16.004202 876.99578 21.216796 877.31248 L 108.13183 877.32273 L 433.38134 877.32273 L 433.38573 877.32273 L 433.3872 877.32273 L 433.38866 877.32273 L 433.39159 877.32273 L 433.39452 877.32273 L 433.39745 877.32273 L 433.40038 877.32273 L 433.40184 877.32273 L 433.43993 877.32273 L 455.99266 877.32273 C 457.76857 877.30689 459.4915 877.0914 461.25145 877.01218 L 461.25145 877.32273 L 582.75145 877.32273 L 661.50145 877.32273 L 683.25145 877.32273 L 683.25145 877.16599 C 683.30435 877.15989 683.35834 877.15633 683.41112 877.14988 C 683.64799 877.12088 683.88281 877.08627 684.11717 877.05027 C 684.4666 876.99727 684.81226 876.93932 685.15574 876.87302 C 685.46226 876.81402 685.76691 876.7483 686.06834 876.6782 C 686.33145 876.6172 686.59302 876.55091 686.85203 876.48191 C 687.22786 876.38141 687.59726 876.27255 687.96385 876.15525 C 688.19285 876.08225 688.42129 876.00507 688.64647 875.92527 C 688.99043 875.80347 689.32999 875.67389 689.66453 875.53709 C 689.91161 875.43619 690.15677 875.33271 690.39842 875.22361 C 690.65189 875.10921 690.90411 874.99075 691.15135 874.86765 C 691.33873 874.77465 691.51994 874.67445 691.7036 874.57615 C 691.81859 874.51415 691.93581 874.45644 692.0493 874.39304 C 693.19224 873.75364 694.25909 873.01725 695.23387 872.18845 C 697.18129 870.53278 698.76221 868.51075 699.85838 866.17088 C 699.86038 866.17088 699.86224 866.16062 699.86424 866.16062 C 699.86824 866.15062 699.87119 866.14565 699.87449 866.13865 C 700.00286 865.86325 700.12304 865.58329 700.23778 865.29929 C 700.25358 865.26029 700.26769 865.22024 700.28319 865.18064 C 700.38059 864.93424 700.47308 864.68491 700.56004 864.43211 C 700.58994 864.34511 700.61787 864.25631 700.64647 864.16844 C 700.71977 863.94404 700.78953 863.71795 700.85447 863.48875 C 700.88057 863.39575 700.90575 863.30236 700.93065 863.20896 C 700.98635 863.00006 701.0388 862.79031 701.08738 862.57761 C 701.12128 862.42851 701.1523 862.27754 701.1826 862.12644 C 701.2167 861.95754 701.24958 861.78788 701.27928 861.61668 C 701.30678 861.45698 701.33165 861.29644 701.35545 861.13474 C 701.38125 860.95934 701.40446 860.78217 701.42576 860.60447 C 701.44686 860.42597 701.46649 860.24631 701.48289 860.06541 C 701.49659 859.91571 701.50765 859.76544 701.51805 859.61424 C 701.53255 859.40054 701.54394 859.18504 701.55174 858.96824 C 701.55674 858.84704 701.55969 858.72549 701.56199 858.60349 L 701.56199 850.33445 L 701.56346 823.36228 L 701.56639 823.36228 L 701.56932 823.36228 L 701.57225 823.36228 C 701.53045 550.73488 701.57371 293.52086 701.57371 19.432617 C 701.57371 19.391817 701.57078 19.351825 701.57078 19.311035 C 701.56778 18.914565 701.55034 18.521665 701.52244 18.131835 C 701.51544 18.028708 701.50791 17.925403 701.49901 17.822753 C 701.46071 17.390066 701.41027 16.959798 701.34227 16.536621 C 701.33327 16.478221 701.32141 16.420474 701.31151 16.362304 C 701.24031 15.945137 701.15708 15.532646 701.05809 15.125976 C 701.04909 15.090376 701.04209 15.054493 701.03319 15.019043 C 700.92381 14.581223 700.79716 14.149833 700.65672 13.725586 C 700.64232 13.681986 700.62738 13.638694 700.61278 13.595214 C 700.46639 13.164077 700.30656 12.73925 700.12938 12.32373 C 699.94749 11.897163 699.74902 11.479956 699.53611 11.071289 C 699.53114 11.061189 699.52707 11.050627 699.52147 11.040527 C 699.51847 11.034527 699.51351 11.030014 699.51121 11.024414 C 699.29486 10.612094 699.06481 10.208367 698.81834 9.8159177 L 698.81834 9.8144529 C 698.5687 9.4169941 698.30336 9.0312503 698.0244 8.6557615 C 697.85258 8.4245121 697.6751 8.1970883 697.49266 7.9746092 C 697.31022 7.7521498 697.12139 7.5345383 696.92869 7.3212889 C 696.73599 7.1080695 696.5395 6.89951 696.3369 6.6958006 C 696.20087 6.5590609 696.05977 6.4282077 695.91942 6.2958983 C 695.84742 6.2275983 695.77718 6.1574899 695.70408 6.0908202 L 695.70262 6.0908202 C 695.28192 5.7072511 694.84161 5.3433655 694.38572 5.0009764 C 693.92568 4.6555076 693.44898 4.331799 692.95604 4.0312499 C 692.70958 3.8810202 692.46017 3.7361156 692.20604 3.5976562 C 689.66468 2.2131501 686.74865 1.4282226 683.64403 1.4282226 L 683.6411 1.4179687 L 683.62205 1.4179687 L 351.49657 1.4179687 L 19.369628 1.4179687 z M 680.91063 25.511718 A 7.0866141 7.0866141 0 0 1 687.99754 32.598632 A 7.0866141 7.0866141 0 0 1 680.91063 39.685546 A 7.0866141 7.0866141 0 0 1 673.82518 32.598632 A 7.0866141 7.0866141 0 0 1 680.91063 25.511718 z M 33.922851 34.511718 A 7.0866141 7.0866141 0 0 1 41.0083 41.598632 A 7.0866141 7.0866141 0 0 1 33.922851 48.685546 A 7.0866141 7.0866141 0 0 1 26.835937 41.598632 A 7.0866141 7.0866141 0 0 1 33.922851 34.511718 z M 131.41406 114.84521 A 7.0866141 7.0866141 0 0 1 138.50097 121.93213 A 7.0866141 7.0866141 0 0 1 131.41406 129.01757 A 7.0866141 7.0866141 0 0 1 124.32715 121.93213 A 7.0866141 7.0866141 0 0 1 131.41406 114.84521 z M 467.59569 217.95117 A 7.0866141 7.0866141 0 0 1 474.68261 225.03808 A 7.0866141 7.0866141 0 0 1 467.59569 232.12499 A 7.0866141 7.0866141 0 0 1 460.51024 225.03808 A 7.0866141 7.0866141 0 0 1 467.59569 217.95117 z M 26.929687 313.8164 A 7.0866141 7.0866141 0 0 1 34.015136 320.90185 A 7.0866141 7.0866141 0 0 1 26.929687 327.98876 A 7.0866141 7.0866141 0 0 1 19.842773 320.90185 A 7.0866141 7.0866141 0 0 1 26.929687 313.8164 z M 132.98144 320.43603 A 7.0866141 7.0866141 0 0 1 140.06836 327.52294 A 7.0866141 7.0866141 0 0 1 132.98144 334.60985 A 7.0866141 7.0866141 0 0 1 125.89599 327.52294 A 7.0866141 7.0866141 0 0 1 132.98144 320.43603 z M 441.35595 418.11034 A 7.0866141 7.0866141 0 0 1 448.44139 425.19725 A 7.0866141 7.0866141 0 0 1 441.35595 432.28417 A 7.0866141 7.0866141 0 0 1 434.26903 425.19725 A 7.0866141 7.0866141 0 0 1 441.35595 418.11034 z M 680.91063 428.26171 A 7.0866141 7.0866141 0 0 1 687.99754 435.34862 A 7.0866141 7.0866141 0 0 1 680.91063 442.43554 A 7.0866141 7.0866141 0 0 1 673.82518 435.34862 A 7.0866141 7.0866141 0 0 1 680.91063 428.26171 z M 97.362302 441.25487 L 97.362302 441.27977 C 105.56953 441.28009 112.22281 447.92782 112.22314 456.12743 L 112.22168 456.14794 C 112.22164 456.1486 112.22164 456.14987 112.22168 456.15087 C 112.22164 456.15153 112.22164 456.1528 112.22168 456.1538 L 112.22168 456.15526 L 112.22314 456.15526 L 112.22314 456.15673 C 112.2231 456.15739 112.2231 456.15866 112.22314 456.15966 L 112.22461 456.15966 C 112.22523 456.16038 112.22654 456.15941 112.22754 456.15966 L 112.22754 456.16259 L 112.229 456.16259 L 112.23047 456.16259 C 112.23043 456.16326 112.23043 456.16452 112.23047 456.16552 C 112.23114 456.16555 112.2324 456.16555 112.2334 456.16552 L 112.23633 456.16552 L 112.26855 456.16552 C 112.28915 464.36585 118.94577 471.0057 127.15576 471.00731 C 135.36666 471.00699 142.02523 464.36677 142.04589 456.16552 L 142.07226 456.16552 C 142.07292 456.16555 142.07419 456.16555 142.07519 456.16552 L 142.07812 456.16552 C 142.07878 456.16555 142.08005 456.16555 142.08105 456.16552 C 142.08177 456.16491 142.08051 456.16359 142.08105 456.16259 L 142.08398 456.15966 C 142.0847 456.15904 142.08591 456.15991 142.08691 456.15966 L 142.08984 456.15966 C 142.08987 456.15898 142.08987 456.15773 142.08984 456.15673 L 142.08984 456.15526 L 142.08984 456.1538 C 142.08988 456.15313 142.08988 456.15187 142.08984 456.15087 L 142.08984 456.12743 C 142.09016 447.92782 148.74347 441.28008 156.95068 441.27977 C 165.15788 441.28008 171.81266 447.92781 171.81298 456.12743 L 171.81298 456.15087 C 171.81294 456.15153 171.81294 456.1528 171.81298 456.1538 L 171.81298 456.15526 L 171.81445 456.15673 C 171.81442 456.15739 171.81442 456.15866 171.81445 456.15966 L 171.81591 456.15966 C 171.81654 456.16038 171.81784 456.16134 171.81884 456.16259 L 171.82031 456.16259 C 171.82094 456.16331 171.82224 456.16452 171.82324 456.16552 L 171.8247 456.16552 C 171.82539 456.16555 171.82663 456.16555 171.82763 456.16552 L 171.854 456.16552 C 171.8746 464.36585 178.53411 471.0057 186.74414 471.00731 C 194.95503 471.00699 201.61361 464.36675 201.63427 456.16552 L 201.65917 456.16552 L 201.66064 456.16552 C 201.66131 456.16555 201.66257 456.16555 201.66357 456.16552 C 201.66429 456.16491 201.66303 456.16359 201.66357 456.16259 C 201.66424 456.16263 201.6655 456.16263 201.6665 456.16259 L 201.66796 456.15966 L 201.66943 456.15966 C 201.67015 456.15904 201.67136 456.15773 201.67236 456.15673 L 201.67236 456.15526 L 201.67236 456.1538 C 201.6724 456.15313 201.6724 456.15187 201.67236 456.15087 L 201.67236 456.12743 C 201.67269 447.92781 208.32598 441.28008 216.5332 441.27977 C 224.74132 441.27902 231.39667 447.92691 231.39697 456.12743 L 231.39404 456.1494 L 231.39404 456.15233 C 231.39401 456.15299 231.39401 456.15426 231.39404 456.15526 L 231.39404 456.15673 C 231.39466 456.15745 231.39597 456.15794 231.39697 456.15819 C 231.39694 456.15885 231.39694 456.16012 231.39697 456.16112 C 231.39758 456.16184 231.3989 456.16234 231.3999 456.16259 L 231.40283 456.16259 C 231.40344 456.16331 231.40305 456.16452 231.40429 456.16552 C 231.40497 456.16555 231.40622 456.16555 231.40722 456.16552 L 231.40869 456.16552 L 231.41015 456.16552 L 231.43798 456.16552 C 231.45868 464.36678 238.11866 471.00701 246.32958 471.00731 C 254.54051 471.007 261.19906 464.36675 261.21972 456.16552 L 261.24462 456.16552 L 261.24609 456.16552 C 261.24675 456.16555 261.24802 456.16555 261.24902 456.16552 L 261.25048 456.16552 C 261.2512 456.16492 261.25241 456.16359 261.25341 456.16259 L 261.25634 456.16259 L 261.25634 456.16112 C 261.25706 456.16052 261.25974 456.16166 261.26074 456.16112 C 261.26146 456.16051 261.2602 456.15919 261.26074 456.15819 L 261.26074 456.15673 L 261.26074 456.15526 C 261.26077 456.1546 261.26077 456.15333 261.26074 456.15233 L 261.26074 456.1494 L 261.26074 456.12596 C 261.26105 447.92635 267.91437 441.27863 276.12157 441.27831 C 284.32881 441.27863 290.98063 447.92634 290.98095 456.12596 L 290.97948 456.14794 L 290.97948 456.1494 L 290.97948 456.15087 C 290.9801 456.15159 290.97889 456.1528 290.98095 456.1538 L 290.98095 456.15673 C 290.98156 456.15745 290.98288 456.15866 290.98388 456.15966 L 290.98681 456.16112 C 290.98742 456.16184 290.98627 456.16305 290.98681 456.16405 C 290.9875 456.16408 290.9902 456.16408 290.9912 456.16405 L 290.99413 456.16698 C 290.99482 456.16701 290.99606 456.16701 290.99706 456.16698 L 290.99853 456.16698 L 290.99999 456.16698 L 291.03075 456.16698 C 291.05145 464.36731 297.70797 471.00717 305.91796 471.00878 C 314.12885 471.00847 320.7889 464.36821 320.80956 456.16698 L 320.83446 456.16698 L 320.83739 456.16698 C 320.83807 456.16701 320.84079 456.16701 320.84179 456.16698 L 320.84325 456.16698 L 320.84472 456.16405 C 320.8454 456.16408 320.84665 456.16408 320.84765 456.16405 C 320.8477 456.16337 320.8477 456.16212 320.84765 456.16112 L 320.84765 456.15966 C 320.84833 456.15969 320.84958 456.15969 320.85058 456.15966 C 320.85063 456.15898 320.85063 456.15773 320.85058 456.15673 L 320.85058 456.1538 C 320.85063 456.15312 320.85063 456.15187 320.85058 456.15087 L 320.85058 456.1494 L 320.85058 456.12596 C 320.85091 447.92633 327.50421 441.27863 335.71142 441.27831 C 343.91864 441.27863 350.57048 447.92633 350.57079 456.12596 L 350.57079 456.1494 L 350.57079 456.15087 C 350.57075 456.15153 350.57075 456.1528 350.57079 456.1538 C 350.57141 456.15452 350.57272 456.15473 350.57372 456.15673 C 350.57433 456.15745 350.57612 456.15866 350.57812 456.15966 L 350.57812 456.16112 C 350.57808 456.16178 350.57808 456.16305 350.57812 456.16405 C 350.57879 456.16408 350.58005 456.16408 350.58105 456.16405 L 350.58251 456.16405 L 350.58251 456.16698 L 350.58398 456.16698 C 350.58465 456.16701 350.58591 456.16701 350.58691 456.16698 L 350.58983 456.16698 L 350.61913 456.16698 C 350.63973 464.36731 357.29635 471.00717 365.50634 471.00878 C 373.71816 471.00953 380.38021 464.36914 380.40087 456.16698 L 380.42431 456.16698 L 380.42724 456.16698 C 380.42791 456.16701 380.42917 456.16701 380.43017 456.16698 L 380.43163 456.16698 L 380.43456 456.16405 C 380.43528 456.16343 380.43649 456.16212 380.43749 456.16112 L 380.44042 456.16112 L 380.44042 456.15966 L 380.44188 456.15966 C 380.44192 456.15898 380.44192 456.15773 380.44188 456.15673 C 380.4426 456.15611 380.44381 456.1558 380.44481 456.1538 C 380.44485 456.15312 380.44485 456.15187 380.44481 456.15087 L 380.44481 456.1494 L 380.44481 456.12596 C 380.44513 447.92543 387.099 441.27734 395.30712 441.27831 C 403.51433 441.27863 410.16617 447.92633 410.16649 456.12596 L 410.16503 456.14794 L 410.16503 456.1494 L 410.16503 456.15087 C 410.16499 456.15153 410.16499 456.1528 410.16503 456.1538 L 410.16503 456.15673 L 410.16649 456.15673 C 410.16646 456.15739 410.16646 456.15866 410.16649 456.15966 C 410.1671 456.16038 410.16842 456.16159 410.16942 456.16259 L 410.17235 456.16259 C 410.17232 456.16325 410.17232 456.16598 410.17235 456.16698 C 410.17303 456.16701 410.17428 456.16701 410.17528 456.16698 L 410.17528 456.16845 L 410.17821 456.16845 C 410.17889 456.16848 410.18161 456.16848 410.18261 456.16845 L 410.18407 456.16845 L 410.21483 456.16845 C 410.23553 464.36878 416.89351 471.00863 425.1035 471.01024 C 433.31443 471.00992 439.97591 464.36968 439.99657 456.16845 L 440.02147 456.16845 L 440.0244 456.16845 C 440.02507 456.16848 440.02633 456.16848 440.02733 456.16845 L 440.0288 456.16845 L 440.03026 456.16698 C 440.03098 456.16636 440.03219 456.16359 440.03319 456.16259 L 440.03466 456.16259 L 440.03612 456.16259 L 440.03612 456.15966 C 440.03616 456.15899 440.03616 456.15773 440.03612 456.15673 C 440.03684 456.15611 440.03805 456.15587 440.03905 456.1538 C 440.03909 456.15313 440.03909 456.15187 440.03905 456.15087 L 440.03905 456.1494 L 440.03905 456.12596 C 440.03937 447.92634 446.70115 440.90593 454.89989 441.27831 C 472.32388 442.06968 464.85097 441.827 472.30809 442.37694 C 472.31005 442.45651 472.35958 442.56679 472.35936 442.64501 C 508.3588 445.02909 547.91426 447.93634 534.1245 493.68602 C 534.19263 493.68577 534.27827 493.64684 534.34715 493.64501 L 529.34764 515.67333 C 527.75477 523.34252 522.69405 530.51922 514.4868 530.51952 L 514.46337 530.51952 C 514.4627 530.51944 514.46144 530.51944 514.46044 530.51952 L 514.45897 530.51952 L 514.45751 530.51952 L 514.45311 530.51952 L 514.45018 530.51952 C 514.44946 530.52012 514.44825 530.51997 514.44725 530.51952 L 514.44725 530.55028 C 506.23952 530.57128 499.59254 537.22211 499.59081 545.4243 C 499.59112 553.62762 506.2384 560.27917 514.44725 560.29979 L 514.44725 560.32616 L 514.45018 560.32616 C 514.4508 560.32691 514.45211 560.32616 514.45311 560.32616 C 514.45372 560.32684 514.45651 560.32616 514.45751 560.32616 L 514.45897 560.32616 L 514.46044 560.32616 C 514.46105 560.32691 514.46237 560.32661 514.46337 560.32616 L 514.4868 560.32616 C 522.69405 560.32654 529.34733 566.9741 529.34764 575.17381 C 529.34839 583.37363 522.69549 590.02011 514.48827 590.02147 L 514.4663 590.02147 L 514.46337 590.02147 L 514.4619 590.02147 L 514.45897 590.02147 L 514.45604 590.02147 L 514.45311 590.02147 L 514.45165 590.02147 L 514.45018 590.02147 C 514.44946 590.02207 514.44825 590.02192 514.44725 590.02147 L 514.44725 590.0493 C 506.23834 590.0703 499.59109 596.72432 499.59081 604.92772 C 499.59113 613.13103 506.23837 619.78259 514.44725 619.80321 L 514.44725 619.82371 C 514.44785 619.82439 514.44918 619.82371 514.45018 619.82371 L 514.45165 619.82371 L 514.45311 619.82371 C 514.45371 619.82439 514.45504 619.82416 514.45604 619.82371 L 514.45897 619.82371 C 514.45963 619.82379 514.4609 619.82379 514.4619 619.82371 L 514.46337 619.82371 L 514.4868 619.82371 C 522.69496 619.82409 529.34862 626.4752 529.34764 634.67577 C 529.34732 642.87474 522.69457 649.52046 514.48827 649.52196 L 514.46483 649.52196 L 514.4619 649.52196 L 514.45897 649.52196 L 514.45751 649.52196 L 514.45604 649.52196 C 514.45537 649.52181 514.45411 649.52181 514.45311 649.52196 L 514.45165 649.52196 C 514.45092 649.52256 514.44972 649.52196 514.44872 649.52196 L 514.44872 649.55125 C 506.24078 649.57225 499.59386 656.22433 499.59227 664.42674 C 499.59257 672.62998 506.23987 679.28161 514.44872 679.30223 L 514.44872 679.3286 C 514.44933 679.32928 514.45065 679.32905 514.45165 679.3286 L 514.45311 679.3286 C 514.45372 679.32935 514.45504 679.32905 514.45604 679.3286 L 514.45751 679.3286 L 514.45897 679.3286 L 514.4619 679.3286 L 514.46483 679.3286 L 514.48827 679.3286 C 522.69548 679.3289 529.34879 685.97661 529.34911 694.17625 C 529.34878 702.37588 522.69547 709.02214 514.48827 709.02244 L 514.46483 709.02244 L 514.4619 709.02244 C 514.46122 709.02236 514.45997 709.02236 514.45897 709.02244 L 514.45751 709.02244 L 514.45604 709.02244 C 514.45532 709.02304 514.45411 709.02244 514.45311 709.02244 L 514.45165 709.02244 C 514.45092 709.02304 514.44972 709.02289 514.44872 709.02244 L 514.44872 709.05027 C 506.24077 709.07057 499.59386 715.72196 499.59227 723.9243 C 499.59152 732.12859 506.23895 738.78209 514.44872 738.80272 L 514.44872 738.82615 C 514.44933 738.8269 514.45065 738.82615 514.45165 738.82615 L 514.45311 738.82615 L 514.45604 738.82615 L 514.45751 738.82615 L 514.45897 738.82615 L 514.4619 738.82615 L 514.46483 738.82615 L 514.48827 738.82615 C 522.24489 738.82615 528.69474 744.7921 529.2993 752.51805 C 529.29991 752.51873 529.30123 752.51805 529.30223 752.51805 L 529.3037 752.51805 L 529.30663 752.51805 L 529.30809 752.51805 L 529.31102 752.51805 L 529.31249 752.51805 L 529.32274 752.51805 C 529.39134 753.49671 529.42701 754.47693 529.42821 755.45799 C 529.42833 779.12566 510.22285 798.31209 486.53319 798.31199 C 486.13265 798.29699 485.73342 798.27893 485.33348 798.25193 L 485.33055 798.25193 C 485.11745 798.26393 484.90527 798.27091 484.69188 798.27391 C 476.48466 798.27361 469.83282 791.62721 469.83251 783.42771 L 469.83251 783.40574 L 469.82958 783.40574 L 469.82665 783.40574 L 469.82372 783.40574 L 469.82225 783.40574 L 469.82079 783.40574 L 469.81786 783.40574 L 469.81493 783.40574 L 469.78563 783.40574 C 469.76373 775.20627 463.10749 768.56847 454.89843 768.56687 C 446.68841 768.56717 440.03024 775.20527 440.00829 783.40574 L 439.97899 783.40574 L 439.97606 783.40574 L 439.9746 783.40574 L 439.97313 783.40574 L 439.9702 783.40574 L 439.96874 783.40574 L 439.96581 783.40574 L 439.96288 783.40574 L 439.95995 783.40574 L 439.96288 783.42478 C 439.96257 791.62428 433.31076 798.27214 425.1035 798.27244 C 416.8963 798.27214 410.24299 791.62428 410.24267 783.42478 L 410.24267 783.40281 L 410.23974 783.40281 L 410.23681 783.40281 L 410.23534 783.40281 L 410.23241 783.40281 L 410.22948 783.40281 L 410.22655 783.40281 L 410.22216 783.40281 L 410.19286 783.40281 C 410.17096 775.20324 403.51475 768.56565 395.30565 768.56395 C 387.09474 768.56395 380.43602 775.20144 380.41405 783.40281 L 380.38622 783.40281 L 380.38329 783.40281 L 380.38036 783.40281 L 380.3789 783.40281 L 380.37597 783.40281 L 380.3745 783.40281 L 380.37011 783.40281 L 380.37011 783.42332 C 380.3698 791.62379 373.71593 798.27041 365.5078 798.26951 C 357.30058 798.26921 350.64874 791.62289 350.64843 783.42332 L 350.64843 783.39988 L 350.6455 783.39988 L 350.64257 783.39988 L 350.63964 783.39988 L 350.63817 783.39988 L 350.63671 783.39988 L 350.63378 783.39988 L 350.63232 783.39988 L 350.60302 783.39988 C 350.58112 775.20031 343.92488 768.56398 335.71581 768.56248 C 327.50582 768.56278 320.84763 775.19941 320.82568 783.39988 L 320.79638 783.39988 L 320.79345 783.39988 L 320.79052 783.39988 L 320.78905 783.39988 L 320.78612 783.39988 L 320.78466 783.39988 L 320.78027 783.39988 L 320.77734 783.39988 L 320.77734 783.42039 C 320.77703 791.61996 314.12516 798.26618 305.91796 798.26658 C 297.71072 798.26618 291.05743 791.61996 291.05712 783.42039 L 291.05712 783.39842 L 291.05566 783.39842 L 291.05273 783.39842 L 291.0498 783.39842 L 291.04687 783.39842 L 291.04394 783.39842 L 291.04101 783.39842 L 291.03954 783.39842 L 291.01171 783.39842 C 290.98981 775.19905 284.33212 768.56125 276.12304 768.55955 C 267.91307 768.55985 261.25484 775.19795 261.2329 783.39842 L 261.20507 783.39842 L 261.20214 783.39842 L 261.19921 783.39842 L 261.19775 783.39842 L 261.19482 783.39842 L 261.19042 783.39842 L 261.18896 783.39842 L 261.18603 783.39842 L 261.18456 783.39842 L 261.18603 783.41746 C 261.18571 791.61693 254.53391 798.26335 246.32665 798.26365 C 238.11851 798.26365 231.46466 791.61783 231.46435 783.41746 L 231.46435 783.39549 L 231.46142 783.39549 L 231.45996 783.39549 L 231.45703 783.39549 L 231.45556 783.39549 L 231.45263 783.39549 L 231.42773 783.39549 C 231.40583 775.19502 224.74612 768.55692 216.53613 768.55662 C 208.32613 768.55692 201.66794 775.19502 201.64599 783.39549 L 201.61816 783.39549 L 201.61523 783.39549 L 201.6123 783.39549 L 201.60937 783.39549 L 201.60644 783.39549 L 201.60351 783.39549 L 201.60058 783.39549 L 201.60644 783.41746 L 201.60205 783.41746 C 201.60173 791.61703 194.94989 798.26189 186.74267 798.26219 C 178.53544 798.26189 171.88214 791.61703 171.88183 783.41746 L 171.88183 783.39402 L 171.8789 783.39402 L 171.87744 783.39402 L 171.87597 783.39402 L 171.87304 783.39402 L 171.87011 783.39402 L 171.86718 783.39402 L 171.83935 783.39402 C 171.81745 775.19445 165.16123 768.55666 156.95214 768.55516 C 148.74214 768.55546 142.08246 775.19355 142.06054 783.39402 L 142.03271 783.39402 L 142.03125 783.39402 L 142.02978 783.39402 L 142.02685 783.39402 L 142.02539 783.39402 L 142.02392 783.39402 L 142.02099 783.39402 L 142.01953 783.39402 L 142.01513 783.39402 L 142.01953 783.41453 C 142.01923 791.614 135.36589 798.26042 127.15869 798.26072 C 118.95145 798.26042 112.29961 791.614 112.29931 783.41453 L 112.29931 783.39256 L 112.29345 783.39256 L 112.29052 783.39256 L 112.28759 783.39256 L 112.28467 783.39256 L 112.28174 783.39256 L 112.27881 783.39256 L 112.25244 783.39256 C 112.23054 775.19299 105.57286 768.55236 97.363767 768.55076 C 89.152866 768.55076 82.492653 775.19119 82.470701 783.39256 L 82.445799 783.39256 L 82.439939 783.39256 L 82.43701 783.39256 L 82.435545 783.39256 L 82.43408 783.39256 L 82.43115 783.39256 L 82.429685 783.39256 L 82.426756 783.39256 L 82.429685 783.4116 C 82.427685 791.17857 76.434586 797.63038 68.682127 798.21238 L 68.680662 798.21238 L 68.677733 798.21238 L 68.676268 798.21238 L 68.674803 798.21238 L 68.671873 798.21238 L 68.668944 798.21238 L 68.668944 798.2241 C 67.692061 798.2911 66.714075 798.32457 65.734862 798.32517 L 65.733397 798.32517 L 65.730467 798.32517 C 42.042374 798.32517 22.839329 779.13879 22.838378 755.47264 C 22.854798 754.91439 22.88217 754.35554 22.92041 753.79832 C 22.91841 753.74432 22.91555 753.6895 22.91455 753.63572 C 22.91464 745.43616 29.567921 738.7869 37.77539 738.7866 L 37.797362 738.7866 L 37.798827 738.7866 C 37.799488 738.78667 37.800757 738.78667 37.801757 738.7866 L 37.803222 738.7866 L 37.806151 738.7866 L 37.809081 738.7866 C 37.809802 738.786 37.811011 738.7866 37.812011 738.7866 L 37.813476 738.7866 L 37.813476 738.75877 C 46.021242 738.73707 52.667916 732.08547 52.668456 723.88328 C 52.668156 715.68086 46.021412 709.02676 37.813476 709.00486 L 37.813476 708.97996 L 37.812011 708.97996 C 37.81134 708.97989 37.810081 708.97989 37.809081 708.97996 L 37.806151 708.97996 L 37.803222 708.97996 L 37.801757 708.97996 C 37.801086 708.97989 37.799827 708.97989 37.798827 708.97996 L 37.77539 708.97996 C 29.568181 708.97959 22.91487 702.33196 22.91455 694.13231 C 22.91486 685.93273 29.568171 679.28788 37.77539 679.28758 L 37.797362 679.28758 L 37.798827 679.28758 C 37.799487 679.28766 37.800757 679.28766 37.801757 679.28758 L 37.803222 679.28758 L 37.806151 679.28758 L 37.807616 679.28758 C 37.808276 679.28766 37.809546 679.28766 37.810546 679.28758 L 37.812011 679.28758 L 37.812011 679.25682 C 46.018878 679.23512 52.665169 672.58269 52.666991 664.38133 C 52.666681 656.17898 46.019949 649.52921 37.812011 649.50731 L 37.812011 649.47948 L 37.810546 649.47948 C 37.809935 649.47873 37.808616 649.47948 37.807616 649.47948 L 37.806151 649.47948 C 37.80548 649.4794 37.804222 649.4794 37.803222 649.47948 L 37.801757 649.47948 C 37.801086 649.4794 37.799827 649.4794 37.798827 649.47948 L 37.797362 649.47948 L 37.773925 649.47948 C 29.566716 649.4791 22.913406 642.83294 22.913085 634.63328 C 22.912104 626.43274 29.565785 619.78453 37.773925 619.78416 L 37.795897 619.78416 L 37.797362 619.78416 L 37.800292 619.78416 L 37.803222 619.78416 L 37.804687 619.78416 C 37.805348 619.78423 37.806616 619.78423 37.807616 619.78416 L 37.809081 619.78416 L 37.810546 619.78416 C 37.811267 619.78356 37.812476 619.78371 37.813476 619.78416 L 37.81494 619.78416 L 37.81494 619.75633 C 46.021808 619.73463 52.668099 613.08509 52.669921 604.88377 C 52.670892 596.68046 46.02381 590.0258 37.81494 590.00389 L 37.81494 589.98045 L 37.813476 589.98045 C 37.812806 589.98037 37.811546 589.98037 37.810546 589.98045 L 37.809081 589.98045 L 37.807616 589.98045 C 37.807006 589.97977 37.805687 589.98 37.804687 589.98045 L 37.803222 589.98045 C 37.802552 589.98037 37.801292 589.98037 37.800292 589.98045 L 37.797362 589.98045 L 37.773925 589.98045 C 29.565795 589.98015 22.912104 583.33334 22.913085 575.1328 C 22.913405 566.93316 29.566716 560.28544 37.773925 560.28514 L 37.795897 560.28514 L 37.797362 560.28514 L 37.798827 560.28514 L 37.801757 560.28514 C 37.802478 560.28454 37.803687 560.28469 37.804687 560.28514 L 37.806151 560.28514 L 37.807616 560.28514 C 37.808337 560.28454 37.809546 560.28469 37.810546 560.28514 L 37.810546 560.25585 C 46.017403 560.23415 52.663694 553.58458 52.665526 545.38329 C 52.665226 537.18079 46.018485 530.52831 37.810546 530.50633 L 37.810546 530.48143 C 37.809935 530.48068 37.808616 530.48098 37.807616 530.48143 L 37.806151 530.48143 L 37.804687 530.48143 C 37.804016 530.48136 37.802757 530.48136 37.801757 530.48143 L 37.798827 530.48143 L 37.797362 530.48143 L 37.773925 530.48143 C 29.566716 530.48113 22.913406 523.83342 22.913085 515.63378 C 22.919085 507.94101 28.805845 501.52711 36.476073 500.85497 C 37.535337 500.94747 38.597446 500.99945 39.660644 501.01317 C 63.367625 501.0133 82.585079 481.81342 82.584959 458.12841 C 82.577959 457.39629 82.553437 456.66486 82.508787 455.93407 C 82.601377 447.80312 89.223043 441.25853 97.362302 441.25487 z M 561.92284 723.0117 A 7.0866141 7.0866141 0 0 1 569.00829 730.09861 A 7.0866141 7.0866141 0 0 1 561.92284 737.18553 A 7.0866141 7.0866141 0 0 1 554.83592 730.09861 A 7.0866141 7.0866141 0 0 1 561.92284 723.0117 z M 30.172851 834.0117 A 7.0866141 7.0866141 0 0 1 37.2583 841.09861 A 7.0866141 7.0866141 0 0 1 30.172851 848.18553 A 7.0866141 7.0866141 0 0 1 23.085937 841.09861 A 7.0866141 7.0866141 0 0 1 30.172851 834.0117 z M 680.91063 840.7617 A 7.0866141 7.0866141 0 0 1 687.99754 847.84861 A 7.0866141 7.0866141 0 0 1 680.91063 854.93553 A 7.0866141 7.0866141 0 0 1 673.82518 847.84861 A 7.0866141 7.0866141 0 0 1 680.91063 840.7617 z " /></g></svg>
