<?xml version="1.0" encoding="UTF-8" standalone="no"?>
<!-- Created with Inkscape (http://www.inkscape.org/) -->

<svg
   width="210mm"
   height="297mm"
   viewBox="0 0 210 297"
   version="1.1"
   id="svg1039"
   inkscape:version="1.1.2 (b8e25be833, 2022-02-05)"
   sodipodi:docname="SpeakerLayerEvenCutHole.svg"
   xmlns:inkscape="http://www.inkscape.org/namespaces/inkscape"
   xmlns:sodipodi="http://sodipodi.sourceforge.net/DTD/sodipodi-0.dtd"
   xmlns="http://www.w3.org/2000/svg"
   xmlns:svg="http://www.w3.org/2000/svg">
  <sodipodi:namedview
     id="namedview1041"
     pagecolor="#ffffff"
     bordercolor="#666666"
     borderopacity="1.0"
     inkscape:pageshadow="2"
     inkscape:pageopacity="0.0"
     inkscape:pagecheckerboard="0"
     inkscape:document-units="mm"
     showgrid="false"
     inkscape:zoom="0.74029882"
     inkscape:cx="396.46153"
     inkscape:cy="834.79803"
     inkscape:window-width="1920"
     inkscape:window-height="1017"
     inkscape:window-x="-8"
     inkscape:window-y="-8"
     inkscape:window-maximized="1"
     inkscape:current-layer="layer1" />
  <defs
     id="defs1036" />
  <g
     inkscape:label="Layer 1"
     inkscape:groupmode="layer"
     id="layer1">
    <path
       id="rect211"
       style="fill:none;fill-opacity:0.620968;stroke:#000000;stroke-width:1"
       d="m 26.80072,0.50041954 c -2.870615,0.002 -5.205785,2.31006996 -5.23844,5.17797996 0.01571,0.25783 0.02489,0.51637 0.02739,0.77463 5.3e-5,8.3556305 -6.779532,15.1288605 -15.1427445,15.1287905 -0.3750762,-0.005 -0.7497747,-0.0225 -1.1234457,-0.0553 -2.705868,0.23708 -4.78262096,2.49977 -4.78472096,5.21365 1.1007e-4,2.89274 2.34728116,5.23729 5.24257396,5.2374 h 0.00723 0.00207 0.00103 c 3.94e-4,-8e-5 7.975e-4,-8e-5 0.00103,0 h 0.00103 c 3.94e-4,-1.9e-4 8.213e-4,0 0.00103,0 v 0.007 c 2.8955589,0.008 5.2404012,2.35508 5.2405072,5.24878 -6.46e-4,2.89327 -2.3453293,5.23872 -5.2405072,5.24671 v 0.0104 c -3.94e-4,-1.6e-4 -7.726e-4,-2.2e-4 -0.00103,0 h -0.00103 c -3.94e-4,-1.6e-4 -7.795e-4,-2.2e-4 -0.00103,0 h -0.00103 -0.00207 -5.168e-4 -0.00827 c -2.895293,1e-4 -5.24193631,2.34521 -5.24205722,5.23793 -3.4184e-4,2.89298 2.34643532,5.23832 5.24205722,5.23843 h 0.00827 5.168e-4 0.00103 c 3.943e-4,-2.1e-4 8.216e-4,-2.1e-4 0.00103,0 h 5.167e-4 0.00103 0.00103 v 0.007 c 2.8958841,0.008 5.2407725,2.35532 5.2405065,5.24928 -6.46e-4,2.89327 -2.3453285,5.23922 -5.2405065,5.24722 v 0.0103 h -0.00103 c -3.939e-4,-1.1e-4 -7.794e-4,-2.1e-4 -0.00103,0 h -5.167e-4 -0.00103 -0.00103 -5.168e-4 -5.167e-4 -0.00775 c -2.8956219,1.1e-4 -5.24283907,2.34498 -5.24257395,5.23793 1.1588e-4,2.89274 2.34728095,5.23729 5.24257395,5.2374 h 0.00827 5.168e-4 0.00155 0.00103 0.00155 v 0.01 c 2.8955589,0.008 5.2398769,2.35407 5.2399899,5.24774 -6.46e-4,2.89327 -2.344812,5.23973 -5.2399899,5.24775 v 0.0109 h -0.00155 -0.00103 -0.00155 -0.00103 -0.00103 -5.167e-4 -0.00775 c -2.895301,1e-4 -5.24246415,2.34476 -5.24257395,5.2374 1.098e-4,2.89274 2.34727985,5.23719 5.24257395,5.2374 h 0.00827 c 3.94e-4,-1.1e-4 8.004e-4,-1.1e-4 0.00103,0 h 0.00103 0.00103 0.00103 c 3.929e-4,-1.1e-4 7.934e-4,-1.1e-4 0.00103,0 v 0.009 c 2.8955521,0.008 5.2404006,2.35508 5.2405066,5.24878 -1.91e-4,2.89359 -2.3450117,5.23973 -5.2405066,5.24774 v 0.008 c -3.929e-4,0 -7.784e-4,-2.1e-4 -0.00103,0 h -0.00103 -0.00103 -0.00103 -0.00827 -0.00103 -0.00103 -0.00775 c -2.8953779,10e-5 -5.24254216,2.34574 -5.24257391,5.23846 6.9983e-4,0.0189 0.001361,0.0383 0.002067,0.0573 -0.0134901,0.19656 -0.0231389,0.39373 -0.0289388,0.59069 3.3205e-4,8.34903 6.77481921,15.11741 15.13137631,15.11741 h 10e-4 5.17e-4 c 0.345446,-2.9e-4 0.690462,-0.0126 1.035079,-0.0362 v -0.004 h 0.0016 0.001 0.0021 0.001 0.001 10e-4 c 2.73487,-0.20532 4.849126,-2.48187 4.849833,-5.22189 l -10e-4,-0.006 h 10e-4 0.001 0.001 0.0021 0.0016 0.001 0.0015 10e-4 0.0088 c 0.0077,-2.89327 2.357339,-5.23534 5.253942,-5.23534 2.895952,6.1e-4 5.244693,2.3427 5.252395,5.23534 h 0.0093 10e-4 10e-4 0.0021 5.16e-4 10e-4 0.0016 10e-4 10e-4 v 0.007 c 1.04e-4,2.89263 2.346754,5.23782 5.242058,5.23793 2.895293,-1.1e-4 5.242467,-2.3453 5.242573,-5.23793 l -0.0016,-0.007 h 0.0016 0.001 10e-4 0.0026 5.16e-4 5.19e-4 0.0098 c 0.0077,-2.89296 2.357152,-5.23468 5.253424,-5.23481 2.895957,5.5e-4 5.244177,2.3422 5.251876,5.23481 h 0.0098 0.001 10e-4 10e-4 0.0016 v 0.008 c 1.06e-4,2.89264 2.34728,5.23727 5.242573,5.23743 2.895307,-1.6e-4 5.241952,-2.34479 5.242057,-5.23743 h 10e-4 l -0.0026,-0.007 h 0.0021 5.16e-4 10e-4 10e-4 0.0021 0.001 0.0098 c 0.0077,-2.89296 2.356631,-5.2347 5.25291,-5.23481 2.896275,1.1e-4 5.245426,2.34185 5.253424,5.23481 h 0.0088 10e-4 0.0021 0.001 0.001 10e-4 v 0.007 c 1.08e-4,2.89295 2.347465,5.23793 5.243089,5.23793 2.895304,-1.1e-4 5.241949,-2.34529 5.242057,-5.23793 v -0.006 h 0.001 0.001 10e-4 5.16e-4 0.001 10e-4 0.01033 c 0.0077,-2.89295 2.356635,-5.2347 5.252907,-5.23481 2.895963,6.4e-4 5.244394,2.34228 5.252395,5.23481 h 0.0098 0.0021 0.0021 0.001 10e-4 5.18e-4 v 0.007 c 1.19e-4,2.89264 2.347265,5.23782 5.24257,5.23793 2.8953,-1.1e-4 5.24194,-2.34529 5.24206,-5.23793 l -0.001,-0.007 h 0.001 10e-4 5.1e-4 0.001 0.002 0.001 10e-4 0.0103 c 0.008,-2.89295 2.35662,-5.2347 5.25291,-5.23481 2.89595,5.3e-4 5.24388,2.3422 5.25188,5.23481 h 0.0103 5.2e-4 10e-4 5.2e-4 10e-4 5.1e-4 10e-4 v 0.008 c 1e-4,2.89264 2.34675,5.23886 5.24205,5.23896 2.89562,3.2e-4 5.24298,-2.346 5.24309,-5.23896 v -0.006 h 0.001 0.002 0.001 0.001 5.2e-4 0.001 0.0103 c 0.008,-2.89327 2.3563,-5.23534 5.2529,-5.23534 2.89598,6.1e-4 5.24388,2.34273 5.25188,5.23534 h 0.0109 0.001 5.1e-4 0.001 0.001 0.001 0.001 v 0.008 c 1e-4,2.89267 2.34676,5.23783 5.24205,5.23791 2.89529,-8e-5 5.24195,-2.34524 5.24206,-5.23791 l -5.1e-4,-0.007 h 5.1e-4 0.001 0.001 5.2e-4 0.001 0.001 5.2e-4 0.0103 c 0.008,-2.89298 2.35662,-5.2342 5.2529,-5.2343 2.89595,6.3e-4 5.24388,2.34175 5.25188,5.2343 h 0.0108 5.2e-4 0.001 0.001 0.001 10e-4 5.2e-4 10e-4 v 0.008 c 1.1e-4,2.89267 2.34677,5.2373 5.24206,5.23741 0.0753,-10e-4 0.15011,-0.004 0.22531,-0.008 h 0.001 c 0.14109,0.01 0.28193,0.0162 0.42323,0.0212 8.35711,0 15.13246,-6.76844 15.13241,-15.11795 -4e-4,-0.3461 -0.013,-0.69189 -0.0372,-1.03714 h -0.004 -5.1e-4 -0.002 -10e-4 -0.001 -0.001 c -0.21328,-2.7255 -2.48865,-4.83018 -5.225,-4.83018 h -0.008 -0.001 -0.001 -5.1e-4 c -2.9e-4,3e-5 -8e-4,3e-5 -0.001,0 h -0.002 -0.002 v -0.008 c -2.8962,-0.007 -5.24128,-2.35498 -5.24102,-5.24931 5.7e-4,-2.89359 2.34546,-5.24023 5.24102,-5.24722 v -0.01 c 0,1.3e-4 0.002,2.1e-4 0.002,0 h 0.002 c 2.9e-4,0 7.8e-4,2.1e-4 0.001,0 h 5.1e-4 c 3e-4,-8e-5 8e-4,-8e-5 0.001,0 h 0.001 0.008 c 2.89531,-1.1e-4 5.24246,-2.34519 5.24257,-5.23793 -1.1e-4,-2.89264 -2.34726,-5.23783 -5.24257,-5.23793 h -0.008 -0.001 -0.001 -5.1e-4 c -2.9e-4,1e-4 -8.2e-4,0 -0.001,0 h -0.002 c 0,1e-4 -0.002,2.1e-4 -0.002,0 v -0.008 c -2.89588,-0.007 -5.2409,-2.35379 -5.24102,-5.24775 5.7e-4,-2.89367 2.34546,-5.24124 5.24102,-5.24825 v -0.01 c 0,0 0.002,2.1e-4 0.002,0 h 0.002 0.001 5.1e-4 0.001 0.001 0.008 c 2.89498,-5.3e-4 5.24194,-2.3449 5.24206,-5.23741 3.4e-4,-2.893 -2.34695,-5.23933 -5.24258,-5.23949 h -0.008 -0.001 c -2.9e-4,6e-5 -8e-4,6e-5 -0.001,0 h -5.2e-4 c -2.9e-4,1.6e-4 -8.2e-4,0 -0.001,0 h -0.002 -0.001 v -0.008 c -2.89589,-0.007 -5.24093,-2.35373 -5.24103,-5.24772 9e-5,-2.89404 2.34513,-5.24179 5.24103,-5.24878 v -0.01 c 0,1.6e-4 7.8e-4,2.1e-4 0.001,0 h 0.002 0.001 5.2e-4 0.001 0.001 0.001 0.008 c 2.8953,-4.8e-4 5.24232,-2.34566 5.24205,-5.23846 -1e-4,-2.89266 -2.34727,-5.23782 -5.24257,-5.2379 h -0.008 c -2.9e-4,1.6e-4 -8.1e-4,0 -0.001,0 h -0.001 -0.001 c 0,0 -5.2e-4,0 -5.2e-4,0 h -0.001 -0.001 v -0.009 c -2.89589,-0.007 -5.24092,-2.35381 -5.24103,-5.24774 6e-4,-2.89362 2.34555,-5.24076 5.24103,-5.24775 v -0.0114 c 2.9e-4,1.4e-4 7.7e-4,2.2e-4 0.001,0 h 0.001 5.2e-4 0.001 0.001 c 3e-4,-5e-5 7.9e-4,-5e-5 0.001,0 h 0.008 c 2.8953,-10e-5 3.64522,-5.30394 2.52698,-9.07231 C 171.71543,6.8669495 159.27403,0.53553954 144.0131,8.9225095 c -2.53769,1.3946605 -6.83703,-0.28458 -6.84403,-3.17758 h -0.0109 -5.2e-4 -10e-4 -5.2e-4 -10e-4 -5.2e-4 -5.1e-4 l 5.1e-4,-0.006 c -1.2e-4,-2.89274 -2.34674,-5.23778996 -5.24205,-5.23792996 -2.89561,-3.2e-4 -5.24298,2.34486996 -5.24309,5.23792996 v 0.008 c 0,-1.8e-4 -0.002,-1.8e-4 -0.002,0 h -5.2e-4 -0.001 c 0,0 -7.9e-4,-1.8e-4 -10e-4,0 h -0.001 -0.001 -5.2e-4 -0.008 c -0.007,2.8936 -2.35754,5.2358605 -5.25446,5.2358605 -2.89628,-5.6e-4 -5.24487,-2.3429705 -5.25188,-5.2358605 h -0.0103 -5.2e-4 -0.001 -10e-4 -0.001 -5.2e-4 c -2.9e-4,1.4e-4 -8.2e-4,2.4e-4 -0.001,0 v -0.008 c -1.2e-4,-2.89274 -2.34676,-5.23778996 -5.24205,-5.23792996 -2.8953,1.4e-4 -5.24247,2.34518996 -5.24258,5.23792996 v 0.008 h -0.001 -0.001 -5.1e-4 -0.001 -0.001 -10e-4 -0.009 c -0.007,2.89328 -2.35682,5.2357605 -5.25342,5.2358605 -2.896283,-5.6e-4 -5.245394,-2.3429005 -5.252395,-5.2358605 h -0.01034 -0.001 -0.001 -10e-4 c -0.0017,0 -0.0018,2.4e-4 -0.0021,0 h -10e-4 c -0.001,0 -0.0029,2.4e-4 -0.0031,0 h -0.001 l 0.001,-0.007 c -1.09e-4,-2.89267 -2.346765,-5.23774996 -5.242058,-5.23791996 -2.895293,1.7e-4 -5.242462,2.34524996 -5.242573,5.23791996 v 0.008 h -5.16e-4 c -3.01e-4,-10e-5 -7.83e-4,-10e-5 -0.001,0 0,0 -0.0018,-10e-5 -0.0021,0 h -0.0021 -0.001 -0.0088 c -0.0073,2.89328 -2.356307,5.2362705 -5.25291,5.2363805 -2.896592,-1.1e-4 -5.246426,-2.3431005 -5.253427,-5.2363805 h -0.0098 -0.001 -10e-4 -0.001 c -2.99e-4,2.1e-4 -8.23e-4,0 -0.001,0 h -10e-4 c -2.88e-4,2.1e-4 -8.12e-4,0 -0.001,0 l 0.001,-0.007 c -1.08e-4,-2.89305 -2.347989,-5.23812996 -5.243607,-5.23791996 -2.895299,2.1e-4 -5.24246,2.34516996 -5.242573,5.23791996 v 0.009 c -3.95e-4,0 -7.81e-4,-2.1e-4 -10e-4,0 h -5.16e-4 c -3.94e-4,7e-5 -7.96e-4,7e-5 -10e-4,0 h -10e-4 -0.0088 c -0.0073,2.89328 -2.35631,5.2357505 -5.252908,5.2358605 -2.89628,-5.3e-4 -5.24561,-2.3429005 -5.25291,-5.2358605 h -0.0093 -0.001 -5.16e-4 -0.0021 c 0,1.7e-4 -0.0013,0 -0.0015,0 h -0.0021 v -0.009 c -1.11e-4,-2.89275 -2.347272,-5.23770996 -5.242573,-5.23791996 -2.895296,2.1e-4 -5.242457,2.34516996 -5.242573,5.23791996 v 0.009 h -0.0021 c -3.94e-4,-1.4e-4 -7.78e-4,-2.1e-4 -0.001,0 -9.31e-4,0 -7.8e-4,-2.1e-4 -10e-4,0 h -10e-4 -0.0015 -0.001 -0.0093 c -0.0073,2.89328 -2.356313,5.2357505 -5.252908,5.2358605 -2.89628,-5.3e-4 -5.24406,-2.3429005 -5.25136,-5.2358605 h -0.01188 -10e-4 -0.001 -0.0016 c -3.94e-4,1.7e-4 -8.23e-4,0 -0.001,0 h -10e-4 -10e-4 l 10e-4,-0.006 c -1.14e-4,-2.8927 -2.34728,-5.23829996 -5.242573,-5.23843996 z" />
  </g>
</svg>
