<?xml version="1.0" encoding="UTF-8" standalone="no"?>
<svg
   version="1.1"
   inkscape:output_extension="org.inkscape.output.svg.inkscape"
   sodipodi:docname="SpeakerLayerOddFull.svg"
   inkscape:version="1.1.2 (b8e25be833, 2022-02-05)"
   sodipodi:version="0.32"
   id="svg2338"
   xml:space="preserve"
   viewBox="0 0 1116.852 1116.85"
   height="1116.85pt"
   width="1116.852pt"
   xmlns:inkscape="http://www.inkscape.org/namespaces/inkscape"
   xmlns:sodipodi="http://sodipodi.sourceforge.net/DTD/sodipodi-0.dtd"
   xmlns="http://www.w3.org/2000/svg"
   xmlns:svg="http://www.w3.org/2000/svg"
   xmlns:rdf="http://www.w3.org/1999/02/22-rdf-syntax-ns#"
   xmlns:cc="http://creativecommons.org/ns#"
   xmlns:dc="http://purl.org/dc/elements/1.1/"><metadata
     id="metadata2382"><rdf:RDF><cc:Work
         rdf:about=""><dc:format>image/svg+xml</dc:format><dc:type
           rdf:resource="http://purl.org/dc/dcmitype/StillImage" /><dc:title /></cc:Work></rdf:RDF></metadata><defs
     id="defs2380"><inkscape:perspective
       id="perspective46224"
       inkscape:persp3d-origin="698.03253 : 465.35417 : 1"
       inkscape:vp_z="1396.0651 : 698.03125 : 1"
       inkscape:vp_y="0 : 1000 : 0"
       inkscape:vp_x="0 : 698.03125 : 1"
       sodipodi:type="inkscape:persp3d" /><inkscape:perspective
       id="perspective37556-9"
       inkscape:persp3d-origin="338.38562 : 225.59001 : 1"
       inkscape:vp_z="676.77124 : 338.38501 : 1"
       inkscape:vp_y="0 : 1000 : 0"
       inkscape:vp_x="0 : 338.38501 : 1"
       sodipodi:type="inkscape:persp3d" /><inkscape:perspective
       id="perspective16301-9"
       inkscape:persp3d-origin="338.38562 : 225.59001 : 1"
       inkscape:vp_z="676.77124 : 338.38501 : 1"
       inkscape:vp_y="0 : 1000 : 0"
       inkscape:vp_x="0 : 338.38501 : 1"
       sodipodi:type="inkscape:persp3d" /><inkscape:perspective
       id="perspective12409-1"
       inkscape:persp3d-origin="270.7085 : 180.47233 : 1"
       inkscape:vp_z="541.41699 : 270.7085 : 1"
       inkscape:vp_y="0 : 1000 : 0"
       inkscape:vp_x="0 : 270.7085 : 1"
       sodipodi:type="inkscape:persp3d" /><inkscape:perspective
       id="perspective9337-7"
       inkscape:persp3d-origin="0.5 : 0.33333333 : 1"
       inkscape:vp_z="1 : 0.5 : 1"
       inkscape:vp_y="0 : 1000 : 0"
       inkscape:vp_x="0 : 0.5 : 1"
       sodipodi:type="inkscape:persp3d" /><inkscape:perspective
       id="perspective8562-2"
       inkscape:persp3d-origin="0.5 : 0.33333333 : 1"
       inkscape:vp_z="1 : 0.5 : 1"
       inkscape:vp_y="0 : 1000 : 0"
       inkscape:vp_x="0 : 0.5 : 1"
       sodipodi:type="inkscape:persp3d" /><inkscape:perspective
       sodipodi:type="inkscape:persp3d"
       inkscape:vp_x="0 : 338.38501 : 1"
       inkscape:vp_y="0 : 1000 : 0"
       inkscape:vp_z="676.77124 : 338.38501 : 1"
       inkscape:persp3d-origin="338.38562 : 225.59001 : 1"
       id="perspective3083-3" /><inkscape:perspective
       sodipodi:type="inkscape:persp3d"
       inkscape:vp_x="0 : 270.7085 : 1"
       inkscape:vp_y="0 : 1000 : 0"
       inkscape:vp_z="541.41699 : 270.7085 : 1"
       inkscape:persp3d-origin="270.7085 : 180.47233 : 1"
       id="perspective23419-6" /><inkscape:perspective
       sodipodi:type="inkscape:persp3d"
       inkscape:vp_x="0 : 338.38501 : 1"
       inkscape:vp_y="0 : 1000 : 0"
       inkscape:vp_z="676.77124 : 338.38501 : 1"
       inkscape:persp3d-origin="338.38562 : 225.59001 : 1"
       id="perspective27913-5" /><inkscape:perspective
       id="perspective27913"
       inkscape:persp3d-origin="338.38562 : 225.59001 : 1"
       inkscape:vp_z="676.77124 : 338.38501 : 1"
       inkscape:vp_y="0 : 1000 : 0"
       inkscape:vp_x="0 : 338.38501 : 1"
       sodipodi:type="inkscape:persp3d" /><inkscape:perspective
       id="perspective23419"
       inkscape:persp3d-origin="270.7085 : 180.47233 : 1"
       inkscape:vp_z="541.41699 : 270.7085 : 1"
       inkscape:vp_y="0 : 1000 : 0"
       inkscape:vp_x="0 : 270.7085 : 1"
       sodipodi:type="inkscape:persp3d" /><inkscape:perspective
       id="perspective3083"
       inkscape:persp3d-origin="338.38562 : 225.59001 : 1"
       inkscape:vp_z="676.77124 : 338.38501 : 1"
       inkscape:vp_y="0 : 1000 : 0"
       inkscape:vp_x="0 : 338.38501 : 1"
       sodipodi:type="inkscape:persp3d" /><inkscape:perspective
       sodipodi:type="inkscape:persp3d"
       inkscape:vp_x="0 : 0.5 : 1"
       inkscape:vp_y="0 : 1000 : 0"
       inkscape:vp_z="1 : 0.5 : 1"
       inkscape:persp3d-origin="0.5 : 0.33333333 : 1"
       id="perspective8562" /><inkscape:perspective
       sodipodi:type="inkscape:persp3d"
       inkscape:vp_x="0 : 0.5 : 1"
       inkscape:vp_y="0 : 1000 : 0"
       inkscape:vp_z="1 : 0.5 : 1"
       inkscape:persp3d-origin="0.5 : 0.33333333 : 1"
       id="perspective9337" /><inkscape:perspective
       sodipodi:type="inkscape:persp3d"
       inkscape:vp_x="0 : 270.7085 : 1"
       inkscape:vp_y="0 : 1000 : 0"
       inkscape:vp_z="541.41699 : 270.7085 : 1"
       inkscape:persp3d-origin="270.7085 : 180.47233 : 1"
       id="perspective12409" /><inkscape:perspective
       sodipodi:type="inkscape:persp3d"
       inkscape:vp_x="0 : 338.38501 : 1"
       inkscape:vp_y="0 : 1000 : 0"
       inkscape:vp_z="676.77124 : 338.38501 : 1"
       inkscape:persp3d-origin="338.38562 : 225.59001 : 1"
       id="perspective16301" /><inkscape:perspective
       sodipodi:type="inkscape:persp3d"
       inkscape:vp_x="0 : 338.38501 : 1"
       inkscape:vp_y="0 : 1000 : 0"
       inkscape:vp_z="676.77124 : 338.38501 : 1"
       inkscape:persp3d-origin="338.38562 : 225.59001 : 1"
       id="perspective37556" /><inkscape:perspective
       sodipodi:type="inkscape:persp3d"
       inkscape:vp_x="0 : 270.70999 : 1"
       inkscape:vp_y="0 : 1000 : 0"
       inkscape:vp_z="541.41998 : 270.70999 : 1"
       inkscape:persp3d-origin="270.70999 : 180.47333 : 1"
       id="perspective51446" /><inkscape:perspective
       id="perspective37556-9-8"
       inkscape:persp3d-origin="338.38562 : 225.59001 : 1"
       inkscape:vp_z="676.77124 : 338.38501 : 1"
       inkscape:vp_y="0 : 1000 : 0"
       inkscape:vp_x="0 : 338.38501 : 1"
       sodipodi:type="inkscape:persp3d" /><inkscape:perspective
       id="perspective16301-9-1"
       inkscape:persp3d-origin="338.38562 : 225.59001 : 1"
       inkscape:vp_z="676.77124 : 338.38501 : 1"
       inkscape:vp_y="0 : 1000 : 0"
       inkscape:vp_x="0 : 338.38501 : 1"
       sodipodi:type="inkscape:persp3d" /><inkscape:perspective
       id="perspective12409-1-2"
       inkscape:persp3d-origin="270.7085 : 180.47233 : 1"
       inkscape:vp_z="541.41699 : 270.7085 : 1"
       inkscape:vp_y="0 : 1000 : 0"
       inkscape:vp_x="0 : 270.7085 : 1"
       sodipodi:type="inkscape:persp3d" /><inkscape:perspective
       id="perspective9337-7-0"
       inkscape:persp3d-origin="0.5 : 0.33333333 : 1"
       inkscape:vp_z="1 : 0.5 : 1"
       inkscape:vp_y="0 : 1000 : 0"
       inkscape:vp_x="0 : 0.5 : 1"
       sodipodi:type="inkscape:persp3d" /><inkscape:perspective
       id="perspective8562-2-5"
       inkscape:persp3d-origin="0.5 : 0.33333333 : 1"
       inkscape:vp_z="1 : 0.5 : 1"
       inkscape:vp_y="0 : 1000 : 0"
       inkscape:vp_x="0 : 0.5 : 1"
       sodipodi:type="inkscape:persp3d" /><inkscape:perspective
       sodipodi:type="inkscape:persp3d"
       inkscape:vp_x="0 : 338.38501 : 1"
       inkscape:vp_y="0 : 1000 : 0"
       inkscape:vp_z="676.77124 : 338.38501 : 1"
       inkscape:persp3d-origin="338.38562 : 225.59001 : 1"
       id="perspective3083-3-7" /><inkscape:perspective
       sodipodi:type="inkscape:persp3d"
       inkscape:vp_x="0 : 270.7085 : 1"
       inkscape:vp_y="0 : 1000 : 0"
       inkscape:vp_z="541.41699 : 270.7085 : 1"
       inkscape:persp3d-origin="270.7085 : 180.47233 : 1"
       id="perspective23419-6-3" /><inkscape:perspective
       sodipodi:type="inkscape:persp3d"
       inkscape:vp_x="0 : 338.38501 : 1"
       inkscape:vp_y="0 : 1000 : 0"
       inkscape:vp_z="676.77124 : 338.38501 : 1"
       inkscape:persp3d-origin="338.38562 : 225.59001 : 1"
       id="perspective27913-5-7" /><inkscape:perspective
       id="perspective27913-9"
       inkscape:persp3d-origin="338.38562 : 225.59001 : 1"
       inkscape:vp_z="676.77124 : 338.38501 : 1"
       inkscape:vp_y="0 : 1000 : 0"
       inkscape:vp_x="0 : 338.38501 : 1"
       sodipodi:type="inkscape:persp3d" /><inkscape:perspective
       id="perspective23419-3"
       inkscape:persp3d-origin="270.7085 : 180.47233 : 1"
       inkscape:vp_z="541.41699 : 270.7085 : 1"
       inkscape:vp_y="0 : 1000 : 0"
       inkscape:vp_x="0 : 270.7085 : 1"
       sodipodi:type="inkscape:persp3d" /><inkscape:perspective
       id="perspective3083-1"
       inkscape:persp3d-origin="338.38562 : 225.59001 : 1"
       inkscape:vp_z="676.77124 : 338.38501 : 1"
       inkscape:vp_y="0 : 1000 : 0"
       inkscape:vp_x="0 : 338.38501 : 1"
       sodipodi:type="inkscape:persp3d" /><inkscape:perspective
       sodipodi:type="inkscape:persp3d"
       inkscape:vp_x="0 : 0.5 : 1"
       inkscape:vp_y="0 : 1000 : 0"
       inkscape:vp_z="1 : 0.5 : 1"
       inkscape:persp3d-origin="0.5 : 0.33333333 : 1"
       id="perspective8562-25" /><inkscape:perspective
       sodipodi:type="inkscape:persp3d"
       inkscape:vp_x="0 : 0.5 : 1"
       inkscape:vp_y="0 : 1000 : 0"
       inkscape:vp_z="1 : 0.5 : 1"
       inkscape:persp3d-origin="0.5 : 0.33333333 : 1"
       id="perspective9337-6" /><inkscape:perspective
       sodipodi:type="inkscape:persp3d"
       inkscape:vp_x="0 : 270.7085 : 1"
       inkscape:vp_y="0 : 1000 : 0"
       inkscape:vp_z="541.41699 : 270.7085 : 1"
       inkscape:persp3d-origin="270.7085 : 180.47233 : 1"
       id="perspective12409-8" /><inkscape:perspective
       sodipodi:type="inkscape:persp3d"
       inkscape:vp_x="0 : 338.38501 : 1"
       inkscape:vp_y="0 : 1000 : 0"
       inkscape:vp_z="676.77124 : 338.38501 : 1"
       inkscape:persp3d-origin="338.38562 : 225.59001 : 1"
       id="perspective16301-5" /><inkscape:perspective
       sodipodi:type="inkscape:persp3d"
       inkscape:vp_x="0 : 338.38501 : 1"
       inkscape:vp_y="0 : 1000 : 0"
       inkscape:vp_z="676.77124 : 338.38501 : 1"
       inkscape:persp3d-origin="338.38562 : 225.59001 : 1"
       id="perspective37556-4" /><inkscape:perspective
       id="perspective37556-9-1"
       inkscape:persp3d-origin="338.38562 : 225.59001 : 1"
       inkscape:vp_z="676.77124 : 338.38501 : 1"
       inkscape:vp_y="0 : 1000 : 0"
       inkscape:vp_x="0 : 338.38501 : 1"
       sodipodi:type="inkscape:persp3d" /><inkscape:perspective
       id="perspective16301-9-3"
       inkscape:persp3d-origin="338.38562 : 225.59001 : 1"
       inkscape:vp_z="676.77124 : 338.38501 : 1"
       inkscape:vp_y="0 : 1000 : 0"
       inkscape:vp_x="0 : 338.38501 : 1"
       sodipodi:type="inkscape:persp3d" /><inkscape:perspective
       id="perspective12409-1-9"
       inkscape:persp3d-origin="270.7085 : 180.47233 : 1"
       inkscape:vp_z="541.41699 : 270.7085 : 1"
       inkscape:vp_y="0 : 1000 : 0"
       inkscape:vp_x="0 : 270.7085 : 1"
       sodipodi:type="inkscape:persp3d" /><inkscape:perspective
       id="perspective9337-7-1"
       inkscape:persp3d-origin="0.5 : 0.33333333 : 1"
       inkscape:vp_z="1 : 0.5 : 1"
       inkscape:vp_y="0 : 1000 : 0"
       inkscape:vp_x="0 : 0.5 : 1"
       sodipodi:type="inkscape:persp3d" /><inkscape:perspective
       id="perspective8562-2-7"
       inkscape:persp3d-origin="0.5 : 0.33333333 : 1"
       inkscape:vp_z="1 : 0.5 : 1"
       inkscape:vp_y="0 : 1000 : 0"
       inkscape:vp_x="0 : 0.5 : 1"
       sodipodi:type="inkscape:persp3d" /><inkscape:perspective
       sodipodi:type="inkscape:persp3d"
       inkscape:vp_x="0 : 338.38501 : 1"
       inkscape:vp_y="0 : 1000 : 0"
       inkscape:vp_z="676.77124 : 338.38501 : 1"
       inkscape:persp3d-origin="338.38562 : 225.59001 : 1"
       id="perspective3083-3-8" /><inkscape:perspective
       sodipodi:type="inkscape:persp3d"
       inkscape:vp_x="0 : 270.7085 : 1"
       inkscape:vp_y="0 : 1000 : 0"
       inkscape:vp_z="541.41699 : 270.7085 : 1"
       inkscape:persp3d-origin="270.7085 : 180.47233 : 1"
       id="perspective23419-6-8" /><inkscape:perspective
       sodipodi:type="inkscape:persp3d"
       inkscape:vp_x="0 : 338.38501 : 1"
       inkscape:vp_y="0 : 1000 : 0"
       inkscape:vp_z="676.77124 : 338.38501 : 1"
       inkscape:persp3d-origin="338.38562 : 225.59001 : 1"
       id="perspective27913-5-4" /><inkscape:perspective
       id="perspective27913-1"
       inkscape:persp3d-origin="338.38562 : 225.59001 : 1"
       inkscape:vp_z="676.77124 : 338.38501 : 1"
       inkscape:vp_y="0 : 1000 : 0"
       inkscape:vp_x="0 : 338.38501 : 1"
       sodipodi:type="inkscape:persp3d" /><inkscape:perspective
       id="perspective23419-9"
       inkscape:persp3d-origin="270.7085 : 180.47233 : 1"
       inkscape:vp_z="541.41699 : 270.7085 : 1"
       inkscape:vp_y="0 : 1000 : 0"
       inkscape:vp_x="0 : 270.7085 : 1"
       sodipodi:type="inkscape:persp3d" /><inkscape:perspective
       id="perspective3083-8"
       inkscape:persp3d-origin="338.38562 : 225.59001 : 1"
       inkscape:vp_z="676.77124 : 338.38501 : 1"
       inkscape:vp_y="0 : 1000 : 0"
       inkscape:vp_x="0 : 338.38501 : 1"
       sodipodi:type="inkscape:persp3d" /><inkscape:perspective
       sodipodi:type="inkscape:persp3d"
       inkscape:vp_x="0 : 0.5 : 1"
       inkscape:vp_y="0 : 1000 : 0"
       inkscape:vp_z="1 : 0.5 : 1"
       inkscape:persp3d-origin="0.5 : 0.33333333 : 1"
       id="perspective8562-6" /><inkscape:perspective
       sodipodi:type="inkscape:persp3d"
       inkscape:vp_x="0 : 0.5 : 1"
       inkscape:vp_y="0 : 1000 : 0"
       inkscape:vp_z="1 : 0.5 : 1"
       inkscape:persp3d-origin="0.5 : 0.33333333 : 1"
       id="perspective9337-2" /><inkscape:perspective
       sodipodi:type="inkscape:persp3d"
       inkscape:vp_x="0 : 270.7085 : 1"
       inkscape:vp_y="0 : 1000 : 0"
       inkscape:vp_z="541.41699 : 270.7085 : 1"
       inkscape:persp3d-origin="270.7085 : 180.47233 : 1"
       id="perspective12409-3" /><inkscape:perspective
       sodipodi:type="inkscape:persp3d"
       inkscape:vp_x="0 : 338.38501 : 1"
       inkscape:vp_y="0 : 1000 : 0"
       inkscape:vp_z="676.77124 : 338.38501 : 1"
       inkscape:persp3d-origin="338.38562 : 225.59001 : 1"
       id="perspective16301-56" /><inkscape:perspective
       sodipodi:type="inkscape:persp3d"
       inkscape:vp_x="0 : 338.38501 : 1"
       inkscape:vp_y="0 : 1000 : 0"
       inkscape:vp_z="676.77124 : 338.38501 : 1"
       inkscape:persp3d-origin="338.38562 : 225.59001 : 1"
       id="perspective37556-5" /><inkscape:perspective
       sodipodi:type="inkscape:persp3d"
       inkscape:vp_x="0 : 0.5 : 1"
       inkscape:vp_y="0 : 1000 : 0"
       inkscape:vp_z="1 : 0.5 : 1"
       inkscape:persp3d-origin="0.5 : 0.33333333 : 1"
       id="perspective10328" /><inkscape:perspective
       sodipodi:type="inkscape:persp3d"
       inkscape:vp_x="0 : 0.5 : 1"
       inkscape:vp_y="0 : 1000 : 0"
       inkscape:vp_z="1 : 0.5 : 1"
       inkscape:persp3d-origin="0.5 : 0.33333333 : 1"
       id="perspective11034" /><inkscape:perspective
       sodipodi:type="inkscape:persp3d"
       inkscape:vp_x="0 : 0.5 : 1"
       inkscape:vp_y="0 : 1000 : 0"
       inkscape:vp_z="1 : 0.5 : 1"
       inkscape:persp3d-origin="0.5 : 0.33333333 : 1"
       id="perspective3083-7" /><inkscape:perspective
       sodipodi:type="inkscape:persp3d"
       inkscape:vp_x="0 : 0.5 : 1"
       inkscape:vp_y="0 : 1000 : 0"
       inkscape:vp_z="1 : 0.5 : 1"
       inkscape:persp3d-origin="0.5 : 0.33333333 : 1"
       id="perspective2997" /></defs><sodipodi:namedview
     showguides="false"
     inkscape:document-rotation="0"
     inkscape:document-units="mm"
     inkscape:window-maximized="1"
     showgrid="false"
     inkscape:current-layer="layer10"
     inkscape:window-y="-8"
     inkscape:window-x="-8"
     inkscape:cy="2494.6727"
     inkscape:cx="2904.7946"
     inkscape:zoom="0.1767767"
     id="base"
     pagecolor="#ffffff"
     bordercolor="#666666"
     borderopacity="1.0"
     objecttolerance="10.0"
     gridtolerance="10.0"
     guidetolerance="10.0"
     inkscape:pageopacity="0.0"
     inkscape:pageshadow="2"
     inkscape:window-width="1920"
     inkscape:window-height="1017"
     inkscape:pagecheckerboard="0" /><g
     inkscape:label="Design Template"
     id="layer10"
     inkscape:groupmode="layer"><path
       d="m 19.350335,1.418108 v 0.0103 c -3.10467,0 -6.02055,0.78507 -8.56206,2.16961 -0.25406,0.13846 -0.50421,0.28338 -0.75076,0.43362 -0.24566,0.14993 -0.48661,0.3046 -0.72435,0.46586 -0.05,0.0337 -0.0971,0.0697 -0.14655,0.10401 -0.1877,0.13006 -0.37499,0.26291 -0.55728,0.39994 -0.01,0.008 -0.02,0.0145 -0.031,0.022 -0.44554,0.33596 -0.87589,0.69256 -1.28751,1.06796 -0.0731,0.0668 -0.14215,0.13729 -0.21402,0.2051 -0.14045,0.13231 -0.28199,0.2632 -0.41803,0.39993 -0.20251,0.20372 -0.39971,0.4123 -0.59231,0.62553 -0.18968,0.2098 -0.37467,0.42449 -0.55427,0.64312 -0.055,0.0668 -0.1058,0.13735 -0.15986,0.2051 -0.12823,0.16081 -0.25846,0.32105 -0.38129,0.48636 -0.6873,0.92513 -1.28802,1.91951 -1.79043,2.97094 -1.13036,2.36584 -1.76251,5.02057 -1.76251,7.83021 v 29.94528 c 0,94.371822 0.01,186.222332 0.013,278.083312 10e-5,0.47521 0,0.96336 0,1.43859 0.40461,8.36204 4.18168,17.10461 11.16183,24.07809 l 22.46288,22.43882 c 3.23481,3.2698 5.00633,7.70936 4.91233,12.30568 -0.0881,4.32841 -1.82507,8.46058 -4.85657,11.55414 l -22.51864,22.4974 c -7.06423,7.05758 -10.83829,15.92613 -11.16472,24.37988 0.01,124.8207 0.01,249.28335 -0.01,377.19818 v 26.9714 8.4455 c 0.15106,5.6167 2.54541,10.2091 6.32278,13.4206 3.5227,2.9946 8.24383,4.786 13.45075,5.1053 h 412.173285 0.037 22.5538 c 79.3662,-0.7079 143.3456,-65.2434 143.3968,-144.536 h 0.011 l -0.011,-0.009 c 0,3e-4 5e-4,0 0.011,0 0.01,0 0.014,0.009 0.014,0.009 v -0.009 -0.0187 -0.18316 c 0,-1.44731 -10e-5,-3.05326 0,-4.26889 2e-4,-3.06474 5e-4,-7.63681 0,-13.52449 0,-11.77549 3e-4,-28.81234 0.011,-49.5611 0,-41.49738 0.011,-97.84969 0.015,-156.69078 0.01,-117.68227 0.019,-245.31844 0.019,-283.97975 v -0.003 -10e-4 -0.003 -0.003 -0.003 -0.002 -0.003 l -0.023,0.0103 v -57.32248 -0.0176 -0.003 c -0.013,-1.81999 -0.1042,-3.63742 -0.2727,-5.44965 -0.1001,-1.03056 -0.2252,-2.05929 -0.3754,-3.08376 -0.1355,-1.08715 -0.2984,-2.17048 -0.4897,-3.24927 -0.2012,-1.00556 -0.4268,-2.00549 -0.676,-3.00025 -0.2441,-1.06883 -0.515,-2.1314 -0.8139,-3.18628 -0.3042,-0.99645 -0.6325,-1.98609 -0.9854,-2.96654 -0.3428,-1.01803 -0.7117,-2.02578 -1.1056,-3.02515 v -0.003 c -0.4049,-0.96695 -0.8337,-1.92256 -1.286,-2.86839 -0.4481,-0.99035 -0.9227,-1.96961 -1.4209,-2.93578 -0.4856,-0.89586 -0.9926,-1.78144 -1.5205,-2.65305 -0.555,-0.95895 -1.1335,-1.90296 -1.7377,-2.83176 -0.5709,-0.83842 -1.1612,-1.66112 -1.7714,-2.47139 -0.6487,-0.90124 -1.3198,-1.78687 -2.0147,-2.65304 -0.6625,-0.79008 -1.3439,-1.56348 -2.0441,-2.32051 -0.7173,-0.81029 -1.4565,-1.60193 -2.2141,-2.3747 v -0.003 c -0.7526,-0.73635 -1.5229,-1.45381 -2.311,-2.15203 -0.7931,-0.73159 -1.6035,-1.44249 -2.4327,-2.13298 -0.8075,-0.6451 -1.6329,-1.27002 -2.4708,-1.87515 -0.8729,-0.65807 -1.7617,-1.29498 -2.6672,-1.90738 -0.8607,-0.55628 -1.7324,-1.09135 -2.6189,-1.60559 -0.9423,-0.57329 -1.902,-1.12141 -2.8727,-1.64516 -0.9221,-0.47278 -1.8538,-0.92185 -2.7976,-1.34922 -0.9759,-0.46654 -1.9653,-0.9094 -2.9636,-1.3258 -0.965,-0.37845 -1.9385,-0.73399 -2.921,-1.06502 -1.035,-0.3739 -2.079,-0.72164 -3.1321,-1.04159 -0.9872,-0.27707 -1.9802,-0.52959 -2.9796,-0.75885 -1.0583,-0.26558 -2.1231,-0.50385 -3.1937,-0.7149 -1.0268,-0.18151 -2.0579,-0.33777 -3.0924,-0.46879 -1.0728,-0.15786 -2.1494,-0.28805 -3.2289,-0.39114 -1.8031,-0.16667 -3.6135,-0.25656 -5.4241,-0.26955 h -0.02 -57.2799 l 0.01,-0.0249 v -0.003 -0.003 -0.002 -0.002 -0.003 -0.003 -0.003 -0.003 -0.003 -0.002 -0.003 -0.003 h -271.9074 v 0.003 0.003 0.002 0.003 0.003 0.003 0.003 0.003 0.002 0.002 0.003 0.003 c -25.833,0.0559 -51.8664,0.0278 -77.772,0.0278 -0.01,0 -0.014,0.004 -0.017,0.006 v 0.001 l -0.1628,-0.007 c -11.7483,2.6e-4 -21.2706,9.51647 -21.2709,21.25365 3e-4,11.73721 9.5226,21.25045 21.2709,21.25072 0.054,-0.002 0.1107,-10e-4 0.1657,-0.005 v 0.002 c 7e-4,5.5e-4 0,7.5e-4 0,0.003 7e-4,3.6e-4 0,0.004 0,0.005 116.321,0.0102 239.8273,0.0512 345.1349,0.0498 v 0.002 c 0,7.5e-4 0.01,0.005 0.015,0.006 l 0.1276,-0.006 c 44.6435,1.9e-4 80.8349,36.15598 80.8351,80.75744 -2e-4,44.60149 -36.1916,80.75726 -80.8351,80.75745 -0.048,3e-5 -0.097,3e-5 -0.1453,0 h -267.3441 v 0.003 0.003 10e-4 0.003 0.003 10e-4 0.002 0.005 0.003 0.003 0.003 l 0.01,0.0264 h -77.7822 c -0.01,7e-5 -0.014,0.001 -0.017,0.005 v 0.003 l -0.1599,-0.007 c -11.7483,2.7e-4 -21.2721,9.51496 -21.2723,21.25218 2e-4,11.73721 9.524,21.25192 21.2723,21.25219 0.054,-7.5e-4 0.1109,-0.003 0.1657,-0.006 0,0.002 0.01,0.006 0.014,0.006 h 77.7104 v 0.0278 0.003 10e-4 0.003 0.003 10e-4 0.003 10e-4 0.003 0.003 0.003 h 267.4114 c 0,0 0.061,0.0179 0.082,0.0439 v 0.003 0.003 c 44.0858,0.75054 79.4362,36.65856 79.4568,80.70909 -0.036,16.95539 -12.1809,32.96086 -15.3761,47.2157 -2.3201,10.35009 -8.9335,17.58272 -16.5154,20.85958 -1.8846,1.02376 -4.0095,1.64335 -6.2642,1.76673 -0.8426,0.11619 -1.6865,0.1906 -2.5265,0.2095 h -0.2024 c -7.3154,0.94568 -12.9663,7.18858 -12.9654,14.75216 0,8.2026 6.6487,14.85315 14.857,14.87378 v 0.0278 h 0.022 c 8.2075,3e-4 14.8609,6.64756 14.8614,14.84736 -5e-4,8.19974 -6.6539,14.84557 -14.8614,14.84594 h -0.022 v 0.0263 c -8.2092,0.0202 -14.8567,6.67172 -14.857,14.87528 0,8.2025 6.6487,14.8559 14.857,14.87661 v 0.0292 h 0.022 c 8.2066,0 14.8596,6.64823 14.8599,14.84737 0,8.20062 -6.6528,14.85006 -14.8614,14.85036 h -0.023 v 0.0233 c -8.2092,0.0203 -14.8567,6.67321 -14.857,14.87669 3e-4,8.20349 6.6478,14.85742 14.857,14.87812 v 0.0277 h 0.023 c 8.2075,0 14.8594,6.64884 14.8585,14.84887 -4e-4,8.1998 -6.6524,14.84706 -14.8599,14.84736 h -0.023 v 0.0263 c -8.2092,0.021 -14.8568,6.67171 -14.8571,14.8752 0,8.20234 6.6491,14.8544 14.8571,14.87518 v 0.0308 h 0.023 c 8.2075,3e-4 14.8595,6.64756 14.8599,14.84737 -0.01,7.83708 -6.1153,14.317 -13.9449,14.80048 -0.9649,-0.066 -1.9303,-0.10156 -2.8975,-0.10254 -23.7079,-1.5e-4 -42.9274,19.20267 -42.9272,42.8882 0.015,0.9778 0.063,1.954 0.1452,2.9285 -0.5174,7.8008 -7.0012,13.8658 -14.8263,13.8658 -8.2077,-3e-4 -14.8611,-6.6461 -14.8614,-14.8459 v -0.022 h -0.025 c -0.021,-8.2013 -6.6809,-14.8425 -14.8922,-14.8428 -8.2102,0 -14.8668,6.6424 -14.8878,14.8428 h -0.031 v 0.022 c -5e-4,8.1998 -6.6538,14.8471 -14.8614,14.8474 -8.2084,0 -14.8625,-6.6467 -14.8628,-14.8474 v -0.023 h -0.023 c -0.021,-8.2024 -6.6815,-14.8429 -14.8936,-14.8429 -8.2104,0 -14.8668,6.6424 -14.8878,14.8429 h -0.029 v 0.023 c -3e-4,8.1998 -6.6539,14.8471 -14.8614,14.8474 -8.2076,-3e-4 -14.8609,-6.6476 -14.8615,-14.8474 v -0.023 h -0.025 c -0.02,-8.2014 -6.6809,-14.8426 -14.8922,-14.8429 -8.2104,0 -14.8668,6.6424 -14.8878,14.8429 h -0.029 v 0.022 c -3e-4,8.1998 -6.6509,14.8471 -14.8584,14.8474 -8.2076,-3e-4 -14.861,-6.6476 -14.8614,-14.8474 v -0.022 h -0.026 c -0.02,-8.2014 -6.6796,-14.8426 -14.8907,-14.8429 -8.2113,3e-4 -14.8712,6.6414 -14.8922,14.8429 h -0.025 v 0.022 c -3e-4,8.2007 -6.6573,14.8469 -14.8658,14.8459 -8.2075,-3e-4 -14.8596,-6.6461 -14.8599,-14.8459 v -0.023 h -0.025 c -0.021,-8.2013 -6.6796,-14.8425 -14.8908,-14.8428 -8.2103,0 -14.8697,6.6424 -14.8907,14.8428 h -0.026 v 0.023 c -3e-4,8.1998 -6.6539,14.8456 -14.8614,14.8459 -8.2075,-3e-4 -14.8596,-6.6461 -14.8599,-14.8459 v -0.023 h -0.028 c -0.021,-8.2015 -6.6781,-14.8425 -14.8893,-14.8428 -8.2103,0 -14.8682,6.6424 -14.8892,14.8428 h -0.031 v 0.022 c -3e-4,8.1998 -6.6539,14.8471 -14.861275,14.8474 l 0.031,0.04 c -8.13963,0 -14.76101,-6.5478 -14.8541,-14.6789 0.044,-0.7308 0.0661,-1.4638 0.0761,-2.1961 1e-4,-23.68541 -19.21776,-42.8853 -42.92573,-42.88515 -1.06318,0.0135 -2.12577,0.066 -3.18496,0.15819 -7.67065,-0.67219 -13.55367,-7.08551 -13.56368,-14.7785 3e-4,-8.19973 6.65391,-14.84715 14.86141,-14.84745 h 0.022 v -0.0247 c 8.20831,-0.0217 14.85381,-6.67404 14.85411,-14.87661 0,-8.20146 -6.64682,-14.85336 -14.85411,-14.87526 v -0.0293 l -0.022,0.008 c -8.2075,-3e-4 -14.85951,-6.64607 -14.85991,-14.84587 0,-8.20063 6.65151,-14.84856 14.85991,-14.84886 h 0.023 v -0.0232 c 8.2092,-0.0217 14.8556,-6.67614 14.8556,-14.87962 0,-8.20146 -6.6484,-14.8533 -14.8556,-14.8752 v -0.0263 h -0.022 c -8.2085,-3e-4 -14.86241,-6.64823 -14.86141,-14.84885 4e-4,-8.19981 6.65381,-14.847 14.86141,-14.84738 h 0.023 v -0.0263 c 8.2083,-0.0217 14.85529,-6.67411 14.8556,-14.87669 0,-8.20146 -6.6485,-14.85186 -14.8556,-14.87376 v -0.0308 h -0.022 c -8.2075,-3e-4 -14.8596,-6.64764 -14.85991,-14.84738 3e-4,-8.1998 6.65251,-14.84563 14.85991,-14.84593 h 0.022 v -0.0263 c 8.2083,-0.0217 14.85529,-6.67554 14.8556,-14.8782 -6.1e-4,-8.20234 -6.6474,-14.85328 -14.8556,-14.87518 v -0.0277 h -0.022 c -8.2077,-3e-4 -14.86141,-6.64908 -14.86141,-14.84885 0.01,-0.0537 0.012,-0.10861 0.012,-0.16262 -0.038,-0.55724 -0.0661,-1.1161 -0.0821,-1.67444 0,-23.66661 19.20446,-42.85215 42.8935,-42.85305 0.9793,6e-4 1.95861,0.034 2.93562,0.10108 v 0.0103 c 7.75273,0.58205 13.74846,7.03475 13.74846,14.80196 v 0.022 h 0.025 c 0.022,8.20146 6.68254,14.8386 14.89375,14.8386 8.209315,-7.5e-4 14.865715,-6.63894 14.887715,-14.8386 h 0.028 v -0.0234 c 3e-4,-8.19974 6.6523,-14.84708 14.8599,-14.84738 8.2075,3e-4 14.8611,6.64764 14.8614,14.84738 v 0.022 h 0.028 c 0.022,8.20056 6.6804,14.83977 14.8908,14.84007 8.2094,-7.5e-4 14.8672,-6.6405 14.8892,-14.84007 h 0.026 v -0.0234 c 3e-4,-8.19974 6.6538,-14.84707 14.8614,-14.84737 8.2075,3e-4 14.8612,6.64763 14.8615,14.84737 v 0.0205 h 0.026 c 0.022,8.20056 6.6803,14.8383 14.8907,14.8386 8.2102,-3e-4 14.8702,-6.63804 14.8922,-14.8386 h 0.025 v -0.022 c 3e-4,-8.20064 6.6543,-14.84691 14.8629,-14.84591 8.2074,3e-4 14.8595,6.64617 14.8598,14.84591 v 0.022 h 0.028 c 0.022,8.20056 6.6805,14.8383 14.8907,14.8386 8.2094,-7.5e-4 14.8672,-6.63904 14.8893,-14.8386 h 0.028 v -0.0234 c 3e-4,-8.19975 6.6525,-14.84707 14.86,-14.84737 8.2076,3e-4 14.8612,6.64762 14.8615,14.84737 v 0.0205 h 0.029 c 0.022,8.20056 6.679,14.8383 14.8893,14.8386 8.2093,-0.002 14.8672,-6.63904 14.8893,-14.8386 h 0.029 v -0.022 c 3e-4,-8.19975 6.6525,-14.84707 14.8599,-14.84737 8.2086,-7.5e-4 14.8626,6.64672 14.8629,14.84737 v 0.0205 h 0.028 c 0.022,8.20146 6.6811,14.8386 14.8923,14.8386 8.2094,-7.5e-4 14.8658,-6.63903 14.8877,-14.8386 h 0.028 v -0.0234 c 3e-4,-8.19974 6.6538,-14.84707 14.8614,-14.84737 8.2074,3e-4 14.8596,6.64763 14.8599,14.84737 v 0.0205 h 0.029 c 0.022,8.20056 6.6803,14.83977 14.8907,14.84007 8.2093,-7.5e-4 14.8658,-6.64052 14.8878,-14.84007 h 0.029 v -0.022 c 10e-5,-3.71018 1.3714,-7.09411 3.6233,-9.69656 0.8412,-1.40406 1.7568,-2.70445 2.6967,-3.83822 6.5467,-7.04455 16.2431,-14.01378 10.9931,-24.18064 -2.7042,-4.74433 -8.0312,-8.54649 -14.5094,-8.82198 -0.055,7.5e-4 -0.1081,0.005 -0.1628,0.008 -6e-4,-1.2e-4 -7e-4,-5.4e-4 0,-0.003 -7e-4,-7.2e-4 0,-0.002 0,-0.003 v -0.002 h -77.7133 l 0.01,-0.0263 v -0.005 -0.003 -10e-4 -0.003 -0.003 -0.002 -0.003 -0.005 -0.002 h -267.4113 c -0.035,0 -0.061,-0.0187 -0.082,-0.0454 v -0.003 -0.003 -0.002 c -44.084135,-0.76498 -79.433105,-36.67119 -79.453725,-80.72083 0.032,-44.03782 35.37199,-79.93188 79.445025,-80.68858 v -0.003 -0.001 -0.003 -0.003 -0.003 c 0.02,-0.0364 0.049,-0.063 0.091,-0.063 h 268.7736 v -0.002 -0.001 -0.003 -0.003 -0.002 -0.003 -0.003 -0.003 -0.003 -0.003 -0.001 l -0.011,-0.0264 h 77.7822 c 0.01,0 0.012,-0.003 0.016,-0.006 v -0.003 l 0.1614,0.006 c 11.7483,-2.6e-4 21.2733,-9.51351 21.2736,-21.25073 -2e-4,-11.73721 -9.5253,-21.25341 -21.2736,-21.25366 -0.054,7.5e-4 -0.1096,0.002 -0.1643,0.005 v -0.002 c 0,-7.5e-4 -0.015,-0.003 -0.015,-0.003 -115.1839,-0.20629 -239.1294,-0.30053 -346.5676,-0.0483 -0.034,0 -0.062,-0.0195 -0.083,-0.0455 v -10e-4 -0.005 -0.003 C 82.959975,204.68339 47.612205,168.7769 47.591585,124.72726 c 0.031,-44.045932 35.3829,-79.943422 79.464045,-80.690062 v -0.002 -0.003 -0.003 c 0.027,-0.0351 3.1134,-0.0601 0.1085,-0.0601 149.5393,2.4e-4 303.4973,6e-5 438.0338,0 v 0.002 0.003 l 0.011,0.003 c 0.057,-0.004 0.1133,-0.005 0.1716,-0.007 50.5015,5.4e-4 91.6519,39.95602 93.5277,89.951542 -0.04,135.79092 0.098,724.33243 0.098,724.33243 0.081,10.2207 9.438,18.3467 19.6725,19.068 h 3.1072 c 5.2131,-0.3167 9.9393,-2.1091 13.4654,-5.1068 3.7774,-3.2114 6.1719,-7.8038 6.3229,-13.4205 v -8.4456 -26.9713 c -0.025,-163.22265 -0.023,-322.41367 -0.014,-481.31456 v -14.57635 -0.0366 c 0.01,-91.08783 0.012,-182.19699 0.014,-275.742312 v -32.24966 c 0,-4.05835 -1.3194,-7.79453 -3.5529,-10.80115 -0.172,-0.23125 -0.3498,-0.45874 -0.5324,-0.68121 -0.1823,-0.22246 -0.3703,-0.44013 -0.563,-0.65337 -0.1927,-0.21324 -0.3898,-0.42181 -0.5925,-0.62553 -0.136,-0.13673 -0.2773,-0.26762 -0.4178,-0.39993 -0.072,-0.0683 -0.141,-0.13841 -0.2141,-0.2051 -0.4207,-0.38358 -0.8608,-0.74754 -1.3169,-1.08993 -0.46,-0.34548 -0.9366,-0.66926 -1.4296,-0.96981 -0.2464,-0.15024 -0.4965,-0.29517 -0.7508,-0.43363 -2.5413,-1.38454 -5.4572,-2.16961 -8.5619,-2.16961 v -0.0103 h -0.017 -332.1386 z"
       style="color:#000000;font-style:normal;font-variant:normal;font-weight:normal;font-stretch:normal;font-size:medium;line-height:normal;font-family:sans-serif;text-indent:0;text-align:start;text-decoration:none;text-decoration-line:none;text-decoration-style:solid;text-decoration-color:#000000;letter-spacing:normal;word-spacing:normal;text-transform:none;writing-mode:lr-tb;direction:ltr;baseline-shift:baseline;text-anchor:start;white-space:normal;clip-rule:nonzero;display:inline;overflow:visible;visibility:visible;opacity:1;isolation:auto;mix-blend-mode:normal;color-interpolation:sRGB;color-interpolation-filters:linearRGB;solid-color:#000000;solid-opacity:1;fill:none;fill-opacity:1;fill-rule:nonzero;stroke:#000002;stroke-width:2.83621;stroke-linecap:butt;stroke-linejoin:miter;stroke-miterlimit:4;stroke-dasharray:none;stroke-dashoffset:0;stroke-opacity:1;color-rendering:auto;image-rendering:auto;shape-rendering:auto;text-rendering:auto;enable-background:accumulate"
       id="path3736" /></g></svg>
