<?xml version="1.0" encoding="UTF-8" standalone="no"?>
<svg
   xmlns:dc="http://purl.org/dc/elements/1.1/"
   xmlns:cc="http://creativecommons.org/ns#"
   xmlns:rdf="http://www.w3.org/1999/02/22-rdf-syntax-ns#"
   xmlns:svg="http://www.w3.org/2000/svg"
   xmlns="http://www.w3.org/2000/svg"
   xmlns:sodipodi="http://sodipodi.sourceforge.net/DTD/sodipodi-0.dtd"
   xmlns:inkscape="http://www.inkscape.org/namespaces/inkscape"
   sodipodi:docname="EvenHalf.svg"
   inkscape:version="1.0 (4035a4fb49, 2020-05-01)"
   id="svg8"
   version="1.1"
   viewBox="0 0 210 297"
   height="297mm"
   width="210mm">
  <defs
     id="defs2">
    <inkscape:perspective
       id="perspective46224"
       inkscape:persp3d-origin="698.03253 : 465.35417 : 1"
       inkscape:vp_z="1396.0651 : 698.03125 : 1"
       inkscape:vp_y="0 : 1000 : 0"
       inkscape:vp_x="0 : 698.03125 : 1"
       sodipodi:type="inkscape:persp3d" />
    <inkscape:perspective
       id="perspective37556-9"
       inkscape:persp3d-origin="338.38562 : 225.59001 : 1"
       inkscape:vp_z="676.77124 : 338.38501 : 1"
       inkscape:vp_y="0 : 1000 : 0"
       inkscape:vp_x="0 : 338.38501 : 1"
       sodipodi:type="inkscape:persp3d" />
    <inkscape:perspective
       id="perspective16301-9"
       inkscape:persp3d-origin="338.38562 : 225.59001 : 1"
       inkscape:vp_z="676.77124 : 338.38501 : 1"
       inkscape:vp_y="0 : 1000 : 0"
       inkscape:vp_x="0 : 338.38501 : 1"
       sodipodi:type="inkscape:persp3d" />
    <inkscape:perspective
       id="perspective12409-1"
       inkscape:persp3d-origin="270.7085 : 180.47233 : 1"
       inkscape:vp_z="541.41699 : 270.7085 : 1"
       inkscape:vp_y="0 : 1000 : 0"
       inkscape:vp_x="0 : 270.7085 : 1"
       sodipodi:type="inkscape:persp3d" />
    <inkscape:perspective
       id="perspective9337-7"
       inkscape:persp3d-origin="0.5 : 0.33333333 : 1"
       inkscape:vp_z="1 : 0.5 : 1"
       inkscape:vp_y="0 : 1000 : 0"
       inkscape:vp_x="0 : 0.5 : 1"
       sodipodi:type="inkscape:persp3d" />
    <inkscape:perspective
       id="perspective8562-2"
       inkscape:persp3d-origin="0.5 : 0.33333333 : 1"
       inkscape:vp_z="1 : 0.5 : 1"
       inkscape:vp_y="0 : 1000 : 0"
       inkscape:vp_x="0 : 0.5 : 1"
       sodipodi:type="inkscape:persp3d" />
    <inkscape:perspective
       sodipodi:type="inkscape:persp3d"
       inkscape:vp_x="0 : 338.38501 : 1"
       inkscape:vp_y="0 : 1000 : 0"
       inkscape:vp_z="676.77124 : 338.38501 : 1"
       inkscape:persp3d-origin="338.38562 : 225.59001 : 1"
       id="perspective3083-3" />
    <inkscape:perspective
       sodipodi:type="inkscape:persp3d"
       inkscape:vp_x="0 : 270.7085 : 1"
       inkscape:vp_y="0 : 1000 : 0"
       inkscape:vp_z="541.41699 : 270.7085 : 1"
       inkscape:persp3d-origin="270.7085 : 180.47233 : 1"
       id="perspective23419-6" />
    <inkscape:perspective
       sodipodi:type="inkscape:persp3d"
       inkscape:vp_x="0 : 338.38501 : 1"
       inkscape:vp_y="0 : 1000 : 0"
       inkscape:vp_z="676.77124 : 338.38501 : 1"
       inkscape:persp3d-origin="338.38562 : 225.59001 : 1"
       id="perspective27913-5" />
    <inkscape:perspective
       id="perspective27913"
       inkscape:persp3d-origin="338.38562 : 225.59001 : 1"
       inkscape:vp_z="676.77124 : 338.38501 : 1"
       inkscape:vp_y="0 : 1000 : 0"
       inkscape:vp_x="0 : 338.38501 : 1"
       sodipodi:type="inkscape:persp3d" />
    <inkscape:perspective
       id="perspective23419"
       inkscape:persp3d-origin="270.7085 : 180.47233 : 1"
       inkscape:vp_z="541.41699 : 270.7085 : 1"
       inkscape:vp_y="0 : 1000 : 0"
       inkscape:vp_x="0 : 270.7085 : 1"
       sodipodi:type="inkscape:persp3d" />
    <inkscape:perspective
       id="perspective3083"
       inkscape:persp3d-origin="338.38562 : 225.59001 : 1"
       inkscape:vp_z="676.77124 : 338.38501 : 1"
       inkscape:vp_y="0 : 1000 : 0"
       inkscape:vp_x="0 : 338.38501 : 1"
       sodipodi:type="inkscape:persp3d" />
    <inkscape:perspective
       sodipodi:type="inkscape:persp3d"
       inkscape:vp_x="0 : 0.5 : 1"
       inkscape:vp_y="0 : 1000 : 0"
       inkscape:vp_z="1 : 0.5 : 1"
       inkscape:persp3d-origin="0.5 : 0.33333333 : 1"
       id="perspective8562" />
    <inkscape:perspective
       sodipodi:type="inkscape:persp3d"
       inkscape:vp_x="0 : 0.5 : 1"
       inkscape:vp_y="0 : 1000 : 0"
       inkscape:vp_z="1 : 0.5 : 1"
       inkscape:persp3d-origin="0.5 : 0.33333333 : 1"
       id="perspective9337" />
    <inkscape:perspective
       sodipodi:type="inkscape:persp3d"
       inkscape:vp_x="0 : 270.7085 : 1"
       inkscape:vp_y="0 : 1000 : 0"
       inkscape:vp_z="541.41699 : 270.7085 : 1"
       inkscape:persp3d-origin="270.7085 : 180.47233 : 1"
       id="perspective12409" />
    <inkscape:perspective
       sodipodi:type="inkscape:persp3d"
       inkscape:vp_x="0 : 338.38501 : 1"
       inkscape:vp_y="0 : 1000 : 0"
       inkscape:vp_z="676.77124 : 338.38501 : 1"
       inkscape:persp3d-origin="338.38562 : 225.59001 : 1"
       id="perspective16301" />
    <inkscape:perspective
       sodipodi:type="inkscape:persp3d"
       inkscape:vp_x="0 : 338.38501 : 1"
       inkscape:vp_y="0 : 1000 : 0"
       inkscape:vp_z="676.77124 : 338.38501 : 1"
       inkscape:persp3d-origin="338.38562 : 225.59001 : 1"
       id="perspective37556" />
    <inkscape:perspective
       sodipodi:type="inkscape:persp3d"
       inkscape:vp_x="0 : 270.70999 : 1"
       inkscape:vp_y="0 : 1000 : 0"
       inkscape:vp_z="541.41998 : 270.70999 : 1"
       inkscape:persp3d-origin="270.70999 : 180.47333 : 1"
       id="perspective51446" />
    <inkscape:perspective
       id="perspective37556-9-8"
       inkscape:persp3d-origin="338.38562 : 225.59001 : 1"
       inkscape:vp_z="676.77124 : 338.38501 : 1"
       inkscape:vp_y="0 : 1000 : 0"
       inkscape:vp_x="0 : 338.38501 : 1"
       sodipodi:type="inkscape:persp3d" />
    <inkscape:perspective
       id="perspective16301-9-1"
       inkscape:persp3d-origin="338.38562 : 225.59001 : 1"
       inkscape:vp_z="676.77124 : 338.38501 : 1"
       inkscape:vp_y="0 : 1000 : 0"
       inkscape:vp_x="0 : 338.38501 : 1"
       sodipodi:type="inkscape:persp3d" />
    <inkscape:perspective
       id="perspective12409-1-2"
       inkscape:persp3d-origin="270.7085 : 180.47233 : 1"
       inkscape:vp_z="541.41699 : 270.7085 : 1"
       inkscape:vp_y="0 : 1000 : 0"
       inkscape:vp_x="0 : 270.7085 : 1"
       sodipodi:type="inkscape:persp3d" />
    <inkscape:perspective
       id="perspective9337-7-0"
       inkscape:persp3d-origin="0.5 : 0.33333333 : 1"
       inkscape:vp_z="1 : 0.5 : 1"
       inkscape:vp_y="0 : 1000 : 0"
       inkscape:vp_x="0 : 0.5 : 1"
       sodipodi:type="inkscape:persp3d" />
    <inkscape:perspective
       id="perspective8562-2-5"
       inkscape:persp3d-origin="0.5 : 0.33333333 : 1"
       inkscape:vp_z="1 : 0.5 : 1"
       inkscape:vp_y="0 : 1000 : 0"
       inkscape:vp_x="0 : 0.5 : 1"
       sodipodi:type="inkscape:persp3d" />
    <inkscape:perspective
       sodipodi:type="inkscape:persp3d"
       inkscape:vp_x="0 : 338.38501 : 1"
       inkscape:vp_y="0 : 1000 : 0"
       inkscape:vp_z="676.77124 : 338.38501 : 1"
       inkscape:persp3d-origin="338.38562 : 225.59001 : 1"
       id="perspective3083-3-7" />
    <inkscape:perspective
       sodipodi:type="inkscape:persp3d"
       inkscape:vp_x="0 : 270.7085 : 1"
       inkscape:vp_y="0 : 1000 : 0"
       inkscape:vp_z="541.41699 : 270.7085 : 1"
       inkscape:persp3d-origin="270.7085 : 180.47233 : 1"
       id="perspective23419-6-3" />
    <inkscape:perspective
       sodipodi:type="inkscape:persp3d"
       inkscape:vp_x="0 : 338.38501 : 1"
       inkscape:vp_y="0 : 1000 : 0"
       inkscape:vp_z="676.77124 : 338.38501 : 1"
       inkscape:persp3d-origin="338.38562 : 225.59001 : 1"
       id="perspective27913-5-7" />
    <inkscape:perspective
       id="perspective27913-9"
       inkscape:persp3d-origin="338.38562 : 225.59001 : 1"
       inkscape:vp_z="676.77124 : 338.38501 : 1"
       inkscape:vp_y="0 : 1000 : 0"
       inkscape:vp_x="0 : 338.38501 : 1"
       sodipodi:type="inkscape:persp3d" />
    <inkscape:perspective
       id="perspective23419-3"
       inkscape:persp3d-origin="270.7085 : 180.47233 : 1"
       inkscape:vp_z="541.41699 : 270.7085 : 1"
       inkscape:vp_y="0 : 1000 : 0"
       inkscape:vp_x="0 : 270.7085 : 1"
       sodipodi:type="inkscape:persp3d" />
    <inkscape:perspective
       id="perspective3083-1"
       inkscape:persp3d-origin="338.38562 : 225.59001 : 1"
       inkscape:vp_z="676.77124 : 338.38501 : 1"
       inkscape:vp_y="0 : 1000 : 0"
       inkscape:vp_x="0 : 338.38501 : 1"
       sodipodi:type="inkscape:persp3d" />
    <inkscape:perspective
       sodipodi:type="inkscape:persp3d"
       inkscape:vp_x="0 : 0.5 : 1"
       inkscape:vp_y="0 : 1000 : 0"
       inkscape:vp_z="1 : 0.5 : 1"
       inkscape:persp3d-origin="0.5 : 0.33333333 : 1"
       id="perspective8562-25" />
    <inkscape:perspective
       sodipodi:type="inkscape:persp3d"
       inkscape:vp_x="0 : 0.5 : 1"
       inkscape:vp_y="0 : 1000 : 0"
       inkscape:vp_z="1 : 0.5 : 1"
       inkscape:persp3d-origin="0.5 : 0.33333333 : 1"
       id="perspective9337-6" />
    <inkscape:perspective
       sodipodi:type="inkscape:persp3d"
       inkscape:vp_x="0 : 270.7085 : 1"
       inkscape:vp_y="0 : 1000 : 0"
       inkscape:vp_z="541.41699 : 270.7085 : 1"
       inkscape:persp3d-origin="270.7085 : 180.47233 : 1"
       id="perspective12409-8" />
    <inkscape:perspective
       sodipodi:type="inkscape:persp3d"
       inkscape:vp_x="0 : 338.38501 : 1"
       inkscape:vp_y="0 : 1000 : 0"
       inkscape:vp_z="676.77124 : 338.38501 : 1"
       inkscape:persp3d-origin="338.38562 : 225.59001 : 1"
       id="perspective16301-5" />
    <inkscape:perspective
       sodipodi:type="inkscape:persp3d"
       inkscape:vp_x="0 : 338.38501 : 1"
       inkscape:vp_y="0 : 1000 : 0"
       inkscape:vp_z="676.77124 : 338.38501 : 1"
       inkscape:persp3d-origin="338.38562 : 225.59001 : 1"
       id="perspective37556-4" />
    <inkscape:perspective
       id="perspective37556-9-1"
       inkscape:persp3d-origin="338.38562 : 225.59001 : 1"
       inkscape:vp_z="676.77124 : 338.38501 : 1"
       inkscape:vp_y="0 : 1000 : 0"
       inkscape:vp_x="0 : 338.38501 : 1"
       sodipodi:type="inkscape:persp3d" />
    <inkscape:perspective
       id="perspective16301-9-3"
       inkscape:persp3d-origin="338.38562 : 225.59001 : 1"
       inkscape:vp_z="676.77124 : 338.38501 : 1"
       inkscape:vp_y="0 : 1000 : 0"
       inkscape:vp_x="0 : 338.38501 : 1"
       sodipodi:type="inkscape:persp3d" />
    <inkscape:perspective
       id="perspective12409-1-9"
       inkscape:persp3d-origin="270.7085 : 180.47233 : 1"
       inkscape:vp_z="541.41699 : 270.7085 : 1"
       inkscape:vp_y="0 : 1000 : 0"
       inkscape:vp_x="0 : 270.7085 : 1"
       sodipodi:type="inkscape:persp3d" />
    <inkscape:perspective
       id="perspective9337-7-1"
       inkscape:persp3d-origin="0.5 : 0.33333333 : 1"
       inkscape:vp_z="1 : 0.5 : 1"
       inkscape:vp_y="0 : 1000 : 0"
       inkscape:vp_x="0 : 0.5 : 1"
       sodipodi:type="inkscape:persp3d" />
    <inkscape:perspective
       id="perspective8562-2-7"
       inkscape:persp3d-origin="0.5 : 0.33333333 : 1"
       inkscape:vp_z="1 : 0.5 : 1"
       inkscape:vp_y="0 : 1000 : 0"
       inkscape:vp_x="0 : 0.5 : 1"
       sodipodi:type="inkscape:persp3d" />
    <inkscape:perspective
       sodipodi:type="inkscape:persp3d"
       inkscape:vp_x="0 : 338.38501 : 1"
       inkscape:vp_y="0 : 1000 : 0"
       inkscape:vp_z="676.77124 : 338.38501 : 1"
       inkscape:persp3d-origin="338.38562 : 225.59001 : 1"
       id="perspective3083-3-8" />
    <inkscape:perspective
       sodipodi:type="inkscape:persp3d"
       inkscape:vp_x="0 : 270.7085 : 1"
       inkscape:vp_y="0 : 1000 : 0"
       inkscape:vp_z="541.41699 : 270.7085 : 1"
       inkscape:persp3d-origin="270.7085 : 180.47233 : 1"
       id="perspective23419-6-8" />
    <inkscape:perspective
       sodipodi:type="inkscape:persp3d"
       inkscape:vp_x="0 : 338.38501 : 1"
       inkscape:vp_y="0 : 1000 : 0"
       inkscape:vp_z="676.77124 : 338.38501 : 1"
       inkscape:persp3d-origin="338.38562 : 225.59001 : 1"
       id="perspective27913-5-4" />
    <inkscape:perspective
       id="perspective27913-1"
       inkscape:persp3d-origin="338.38562 : 225.59001 : 1"
       inkscape:vp_z="676.77124 : 338.38501 : 1"
       inkscape:vp_y="0 : 1000 : 0"
       inkscape:vp_x="0 : 338.38501 : 1"
       sodipodi:type="inkscape:persp3d" />
    <inkscape:perspective
       id="perspective23419-9"
       inkscape:persp3d-origin="270.7085 : 180.47233 : 1"
       inkscape:vp_z="541.41699 : 270.7085 : 1"
       inkscape:vp_y="0 : 1000 : 0"
       inkscape:vp_x="0 : 270.7085 : 1"
       sodipodi:type="inkscape:persp3d" />
    <inkscape:perspective
       id="perspective3083-8"
       inkscape:persp3d-origin="338.38562 : 225.59001 : 1"
       inkscape:vp_z="676.77124 : 338.38501 : 1"
       inkscape:vp_y="0 : 1000 : 0"
       inkscape:vp_x="0 : 338.38501 : 1"
       sodipodi:type="inkscape:persp3d" />
    <inkscape:perspective
       sodipodi:type="inkscape:persp3d"
       inkscape:vp_x="0 : 0.5 : 1"
       inkscape:vp_y="0 : 1000 : 0"
       inkscape:vp_z="1 : 0.5 : 1"
       inkscape:persp3d-origin="0.5 : 0.33333333 : 1"
       id="perspective8562-6" />
    <inkscape:perspective
       sodipodi:type="inkscape:persp3d"
       inkscape:vp_x="0 : 0.5 : 1"
       inkscape:vp_y="0 : 1000 : 0"
       inkscape:vp_z="1 : 0.5 : 1"
       inkscape:persp3d-origin="0.5 : 0.33333333 : 1"
       id="perspective9337-2" />
    <inkscape:perspective
       sodipodi:type="inkscape:persp3d"
       inkscape:vp_x="0 : 270.7085 : 1"
       inkscape:vp_y="0 : 1000 : 0"
       inkscape:vp_z="541.41699 : 270.7085 : 1"
       inkscape:persp3d-origin="270.7085 : 180.47233 : 1"
       id="perspective12409-3" />
    <inkscape:perspective
       sodipodi:type="inkscape:persp3d"
       inkscape:vp_x="0 : 338.38501 : 1"
       inkscape:vp_y="0 : 1000 : 0"
       inkscape:vp_z="676.77124 : 338.38501 : 1"
       inkscape:persp3d-origin="338.38562 : 225.59001 : 1"
       id="perspective16301-56" />
    <inkscape:perspective
       sodipodi:type="inkscape:persp3d"
       inkscape:vp_x="0 : 338.38501 : 1"
       inkscape:vp_y="0 : 1000 : 0"
       inkscape:vp_z="676.77124 : 338.38501 : 1"
       inkscape:persp3d-origin="338.38562 : 225.59001 : 1"
       id="perspective37556-5" />
    <inkscape:perspective
       sodipodi:type="inkscape:persp3d"
       inkscape:vp_x="0 : 0.5 : 1"
       inkscape:vp_y="0 : 1000 : 0"
       inkscape:vp_z="1 : 0.5 : 1"
       inkscape:persp3d-origin="0.5 : 0.33333333 : 1"
       id="perspective10328" />
    <inkscape:perspective
       sodipodi:type="inkscape:persp3d"
       inkscape:vp_x="0 : 0.5 : 1"
       inkscape:vp_y="0 : 1000 : 0"
       inkscape:vp_z="1 : 0.5 : 1"
       inkscape:persp3d-origin="0.5 : 0.33333333 : 1"
       id="perspective11034" />
    <inkscape:perspective
       sodipodi:type="inkscape:persp3d"
       inkscape:vp_x="0 : 0.5 : 1"
       inkscape:vp_y="0 : 1000 : 0"
       inkscape:vp_z="1 : 0.5 : 1"
       inkscape:persp3d-origin="0.5 : 0.33333333 : 1"
       id="perspective3083-7" />
    <inkscape:perspective
       sodipodi:type="inkscape:persp3d"
       inkscape:vp_x="0 : 0.5 : 1"
       inkscape:vp_y="0 : 1000 : 0"
       inkscape:vp_z="1 : 0.5 : 1"
       inkscape:persp3d-origin="0.5 : 0.33333333 : 1"
       id="perspective2997" />
  </defs>
  <sodipodi:namedview
     inkscape:window-maximized="1"
     inkscape:window-y="-8"
     inkscape:window-x="-8"
     inkscape:window-height="1017"
     inkscape:window-width="1920"
     showguides="false"
     showgrid="false"
     inkscape:document-rotation="0"
     inkscape:current-layer="layer1"
     inkscape:document-units="mm"
     inkscape:cy="721.42598"
     inkscape:cx="215.27787"
     inkscape:zoom="0.45254834"
     inkscape:pageshadow="2"
     inkscape:pageopacity="0.0"
     borderopacity="1.0"
     bordercolor="#666666"
     pagecolor="#ffffff"
     id="base" />
  <metadata
     id="metadata5">
    <rdf:RDF>
      <cc:Work
         rdf:about="">
        <dc:format>image/svg+xml</dc:format>
        <dc:type
           rdf:resource="http://purl.org/dc/dcmitype/StillImage" />
        <dc:title></dc:title>
      </cc:Work>
    </rdf:RDF>
  </metadata>
  <g
     id="layer1"
     inkscape:groupmode="layer"
     inkscape:label="Layer 1">
    <g
       transform="matrix(0.35277779,0,0,0.35277779,74.361338,-473.28236)"
       id="g953">
      <g
         inkscape:label="Design Template"
         id="layer10">
        <path
           sodipodi:nodetypes="ccscccccccsscssssscsssssscssssccsccccccccccccsccccccccccccccscccsscccccccccccccccccscscsccscccscccccccscccccsccccccccscsccccccccscsccccscccccccccccccscccccccccccccccscscsccccccccccccsscccscccccccccccccsccccscscccccccccccccccscscccccccccccccccccccsccccccccccccscccccccccccccscscscscccccccccccccsccccscsccccccccccccsccccscsccccsccccccccccccsccccccccccccsccccccccccccccccccccccsccccccccccccccccccccccscccccccccccccccccccccccsccccccccccccccccscscccccccccccccccccccscccccccccccccccccsccccccccccccccccccccccccccccccscscccscccccccccccccccccscscccccccccccccccccscsccccccccccccccccccscsccccccccccccccccsccccccc"
           d="m -190.03289,1344.4228 -0.003,0.012 c -3.10157,0 -6.01437,0.785 -8.55322,2.1694 -0.25388,0.1385 -0.50378,0.2834 -0.75,0.4336 -0.24545,0.1499 -0.48613,0.3046 -0.72364,0.4658 -0.0496,0.034 -0.0973,0.07 -0.14648,0.104 -0.18747,0.1301 -0.37446,0.2614 -0.55664,0.3985 -0.0103,0.01 -0.0205,0.016 -0.0308,0.023 -0.44499,0.336 -0.87485,0.6925 -1.28614,1.0679 h -0.002 c -0.073,0.067 -0.142,0.1373 -0.21387,0.2051 -0.14022,0.1323 -0.28158,0.2631 -0.41748,0.3999 -0.20239,0.2037 -0.39928,0.4122 -0.59179,0.6255 -0.18942,0.2097 -0.37422,0.4244 -0.55371,0.6431 -0.0549,0.067 -0.10575,0.1374 -0.15967,0.205 -0.12815,0.1608 -0.25816,0.3211 -0.38086,0.4864 -0.68657,0.925 -1.28665,1.9195 -1.78858,2.9707 -0.13863,0.2904 -0.26919,0.5844 -0.39258,0.8832 -0.0136,0.033 -0.0262,0.067 -0.0395,0.1 -0.10214,0.2516 -0.19901,0.506 -0.29004,0.7631 -0.0325,0.092 -0.0613,0.1859 -0.0923,0.2784 -0.0686,0.2045 -0.13482,0.4104 -0.19629,0.6181 -0.0346,0.1172 -0.0673,0.2351 -0.0996,0.353 -0.0486,0.1775 -0.0944,0.3552 -0.13769,0.5347 -0.035,0.1455 -0.0681,0.2912 -0.0996,0.438 -0.0329,0.153 -0.0632,0.307 -0.0923,0.4615 -0.0318,0.1695 -0.0623,0.3399 -0.0894,0.5112 -0.0229,0.1442 -0.0421,0.2896 -0.0615,0.4351 -0.0224,0.1677 -0.0451,0.3348 -0.063,0.5038 -0.0152,0.1438 -0.0263,0.2889 -0.0381,0.4337 -0.0155,0.1905 -0.0328,0.3806 -0.0425,0.5727 -1.2e-4,0 1.2e-4,0.011 0,0.011 -0.0152,0.3058 -0.0234,0.6132 -0.0234,0.9228 l 0.012,91.7478 c 0.002,68.8927 -0.007,137.3211 -0.002,205.1681 l -0.004,7e-4 0.006,143.7335 v -8e-4 c 0.004,120.1775 0.002,240.0359 -0.0164,363.2051 h 0.003 0.003 0.003 0.003 0.004 l 5.9e-4,35.4639 c 0.16033,5.5995 2.5497,10.1787 6.31494,13.3827 3.49122,2.9709 8.16246,4.7536 13.31542,5.0934 h 411.89502 0.006 0.001 0.001 0.003 0.003 0.003 0.001 0.0382 22.53077 c 79.28502,-0.7081 143.19893,-65.2397 143.24999,-144.5259 h 0.009 l -0.009,-0.012 c 0.003,3e-4 0.004,0 0.009,0 0.007,0 0.0132,0.012 0.0132,0.012 v -0.012 -0.019 -0.1831 c 9e-5,-1.4472 -9e-5,-3.0531 0,-4.2686 3e-4,-3.0645 0.002,-7.6362 0.003,-13.5234 7.5e-4,-11.7746 0.008,-28.81 0.0103,-49.5571 0.004,-37.6572 0.009,-89.3078 0.0132,-142.1895 h 0.77051 c -0.0896,-0.9314 -0.13452,-1.8666 -0.13477,-2.8023 1.5e-4,-16.2166 13.14623,-29.3626 29.36279,-29.3628 16.21657,10e-5 29.36265,13.1462 29.3628,29.3628 2.4e-4,0.9357 -0.0442,1.8709 -0.1333,2.8023 h 0.20507 c 0.0268,158.3744 0.0586,335.2088 0.0586,335.209 0.0819,10.2934 9.56345,18.464 19.87353,19.0825 h 2.66162 c 0.20001,-0.01 0.40201,-0.02 0.60058,-0.035 0.42989,-0.032 0.85626,-0.073 1.27881,-0.1245 0.22692,-0.028 0.45068,-0.062 0.6753,-0.095 0.34288,-0.052 0.68237,-0.1111 1.01953,-0.1758 0.31178,-0.06 0.62072,-0.1254 0.92725,-0.1963 0.29152,-0.068 0.58073,-0.141 0.86719,-0.2182 0.33417,-0.09 0.66487,-0.1878 0.99169,-0.2916 0.25662,-0.081 0.51136,-0.1653 0.76319,-0.2548 0.30066,-0.107 0.59861,-0.2199 0.89208,-0.3384 0.28176,-0.1136 0.56019,-0.232 0.83496,-0.356 0.24281,-0.1097 0.48217,-0.222 0.71925,-0.3398 0.32943,-0.1635 0.65337,-0.3339 0.97119,-0.5127 1.12659,-0.6342 2.17971,-1.3621 3.14208,-2.1811 1.69851,-1.4454 3.11584,-3.17 4.17774,-5.1417 0.004,-0.01 0.008,-0.013 0.0117,-0.019 0.0129,-0.024 0.0239,-0.05 0.0366,-0.073 0.12663,-0.2385 0.2487,-0.4809 0.36476,-0.7265 0.0421,-0.089 0.081,-0.1807 0.12158,-0.271 0.0842,-0.1865 0.16801,-0.3736 0.24608,-0.564 0.0591,-0.1447 0.11295,-0.2926 0.16846,-0.4394 0.0559,-0.1473 0.11191,-0.2945 0.16406,-0.4439 0.0573,-0.165 0.11133,-0.3319 0.16407,-0.4995 0.043,-0.1361 0.086,-0.2724 0.12597,-0.4102 0.056,-0.1943 0.10829,-0.3912 0.15821,-0.5889 0.029,-0.1141 0.0566,-0.2287 0.0835,-0.3442 0.0535,-0.2302 0.10285,-0.4625 0.14794,-0.6972 0.0143,-0.073 0.0291,-0.147 0.0424,-0.2213 0.0492,-0.2737 0.0927,-0.5507 0.13037,-0.8305 0.007,-0.049 0.0128,-0.097 0.019,-0.1465 0.0351,-0.2768 0.0643,-0.5569 0.0879,-0.8393 0.006,-0.069 0.011,-0.1385 0.0161,-0.2081 0.021,-0.2876 0.0365,-0.5769 0.0454,-0.87 7.5e-4,-0.047 0.004,-0.093 0.006,-0.1392 v -8.3775 l 0.002,-26.9692 h 0.003 0.002 0.003 0.003 c -0.0418,-272.6108 0.002,-529.8083 0.002,-803.8798 0,-0.011 -0.002,-0.023 -0.002,-0.032 -0.002,-0.4408 -0.0208,-0.877 -0.0527,-1.3096 -0.006,-0.081 -0.0121,-0.1623 -0.019,-0.2431 -0.0385,-0.4418 -0.0889,-0.8792 -0.1582,-1.3111 -0.009,-0.054 -0.0202,-0.1073 -0.0293,-0.1611 -0.0749,-0.4414 -0.16211,-0.8784 -0.26807,-1.3081 -0.002,-0.01 -0.002,-0.013 -0.005,-0.019 -6e-4,0 -0.002,-0.01 -0.003,-0.01 -0.11259,-0.4536 -0.24381,-0.8985 -0.38964,-1.3374 -0.009,-0.029 -0.0184,-0.057 -0.0278,-0.085 -0.60795,-1.8 -1.48915,-3.472 -2.5957,-4.9629 -0.17164,-0.2312 -0.34948,-0.4585 -0.53175,-0.6811 -0.18225,-0.2223 -0.36999,-0.4402 -0.5625,-0.6534 -0.19249,-0.2131 -0.3894,-0.4218 -0.59179,-0.6255 -0.1359,-0.1365 -0.27726,-0.2676 -0.41748,-0.3999 -0.0719,-0.068 -0.14083,-0.1385 -0.21387,-0.2051 -0.42029,-0.3837 -0.85997,-0.7474 -1.31543,-1.0898 -0.4596,-0.3454 -0.93577,-0.6692 -1.42822,-0.9697 -0.24622,-0.1502 -0.49611,-0.2951 -0.75,-0.4336 -2.53885,-1.3844 -5.45165,-2.1694 -8.55323,-2.1694 l -0.005,-0.012 h -0.0161 -331.80028 -331.79736 z m 77.93554,439.7227 h 0.002 v 0.022 c 8.19912,4e-4 14.845875,6.6485 14.846205,14.8477 l -0.003,0.016 h 0.003 0.003 c 6e-4,0 0.002,5e-4 0.003,0 h 0.003 0.003 0.003 0.001 0.0323 c 0.0206,8.1999 6.67065,14.8389 14.87256,14.8404 8.20281,-3e-4 14.85484,-6.6396 14.87548,-14.8404 h 0.0264 0.003 0.003 0.003 c 7.2e-4,-6e-4 4.8e-4,0 0.003,0 7.2e-4,-6e-4 0.002,-4e-4 0.003,0 h 0.006 v -0.025 c 3.3e-4,-8.1993 6.64707,-14.8457 14.84619,-14.8463 8.19914,6e-4 14.84588,6.647 14.8462,14.8463 v 0.025 h 0.006 c 6.1e-4,0 0.005,5e-4 0.005,0 h 0.006 0.001 0.003 0.0264 c 0.0206,8.1999 6.67357,14.8389 14.87548,14.8404 8.20281,-3e-4 14.85485,-6.6396 14.87549,-14.8404 h 0.0249 0.003 c 6.7e-4,2e-4 0.002,2e-4 0.003,0 h 0.001 c 7.2e-4,-6e-4 0.002,0 0.003,0 v -0.025 c 3.2e-4,-8.1993 6.64706,-14.8457 14.84619,-14.8463 8.20004,-6e-4 14.84881,6.6461 14.84912,14.8463 l -0.003,0.019 c 6.2e-4,0 0.002,6e-4 0.003,0 h 0.003 c 6.1e-4,0 0.002,6e-4 0.003,0 h 0.003 0.003 0.003 0.0278 c 0.0207,8.2008 6.67414,14.8416 14.87695,14.8419 8.20282,-3e-4 14.85484,-6.6411 14.87548,-14.8419 h 0.0249 0.003 0.005 c 7.2e-4,-3e-4 0.005,0 0.005,0 7.2e-4,-3e-4 0.002,-3e-4 0.003,0 h 0.002 v -0.022 c 3.1e-4,-8.1991 6.64707,-14.8457 14.84619,-14.8462 8.19912,5e-4 14.84442,6.6471 14.84473,14.8462 l -0.003,0.02 h 0.003 c 6.2e-4,7e-4 0.006,0 0.009,0 h 0.003 c 6.2e-4,7e-4 10e-4,0 0.005,0 h 0.003 0.003 0.001 0.003 0.0293 c 0.0207,8.1999 6.67211,14.8388 14.87402,14.8404 8.202805,-3e-4 14.856315,-6.6396 14.876955,-14.8404 h 0.0249 0.003 0.001 0.002 0.003 0.003 0.003 0.003 v -0.022 c 3.3e-4,-8.1993 6.64708,-14.8458 14.84619,-14.8462 8.19913,4e-4 14.84441,6.6469 14.84473,14.8462 v 0.022 c 6.1e-4,7e-4 0.002,4e-4 0.003,0 h 0.001 0.001 0.003 0.003 0.003 0.001 0.0293 c 0.0206,8.1997 6.67065,14.8388 14.87255,14.8404 8.20374,0 14.85925,-6.6387 14.87989,-14.8404 h 0.0234 0.001 0.003 0.003 c 7.2e-4,-5e-4 0.004,0 0.004,0 h 0.003 0.002 c 7.2e-4,-5e-4 0.005,-5e-4 0.006,0 v -0.022 c 3e-4,-8.2002 6.64762,-14.8471 14.84765,-14.8462 8.19914,4e-4 14.8444,6.6469 14.84473,14.8462 l -0.001,0.016 h 0.001 0.002 0.003 0.001 0.004 0.002 0.0308 c 0.0207,8.2 12.19491,12.9604 19.38135,9.0073 43.21709,-23.7723 78.44863,-5.8263 91.93358,39.6592 3.16671,10.6812 1.04337,25.715 -7.15576,25.7153 h -0.0234 c -7e-4,-2e-4 -0.002,-2e-4 -0.003,0 h -0.003 -0.003 -0.003 -0.003 c -7.2e-4,6e-4 -0.002,4e-4 -0.003,0 v 0.032 c -8.19963,0.021 -14.84009,6.6724 -14.8418,14.8741 3.1e-4,8.2027 6.64103,14.8535 14.8418,14.874 v 0.025 h 0.003 0.003 c 6.2e-4,6e-4 0.002,0 0.003,0 h 0.003 0.003 c 6e-4,0 0.002,5e-4 0.003,0 h 0.0234 c 8.19913,3e-4 14.84589,6.6471 14.84619,14.8462 7.5e-4,8.1994 -6.64558,14.8464 -14.84472,14.8477 h -0.022 -0.003 -0.003 -0.003 -0.003 -0.003 -0.006 c -7.2e-4,6e-4 -0.003,5e-4 -0.003,0 v 0.029 c -8.20083,0.021 -14.84153,6.674 -14.84179,14.8769 3e-4,8.2029 6.64099,14.8536 14.84179,14.874 v 0.022 h 0.003 0.006 c 6e-4,0 0.002,4e-4 0.003,0 h 0.003 c 6.6e-4,10e-5 0.002,10e-5 0.003,0 h 0.003 0.0234 c 8.20006,4e-4 14.84715,6.6506 14.84619,14.8506 -3.3e-4,8.1986 -6.6465,14.8432 -14.84472,14.8447 h -0.0234 -0.003 -0.003 -0.003 -0.003 -0.006 c -7.2e-4,6e-4 -0.005,0 -0.006,0 v 0.028 c -8.19985,0.021 -14.84021,6.6736 -14.8418,14.8755 3.2e-4,8.2027 6.64103,14.8536 14.8418,14.874 v 0.022 c 6.2e-4,6e-4 0.005,3e-4 0.006,0 h 0.006 c 6.1e-4,0 0.002,3e-4 0.003,0 h 0.003 0.003 0.003 0.0234 c 8.19915,3e-4 14.84589,6.6472 14.84619,14.8462 -3.1e-4,8.1993 -6.64706,14.8459 -14.84619,14.8462 h -0.0234 -0.003 c -6.7e-4,-2e-4 -0.002,-2e-4 -0.003,0 h -0.003 c -7.2e-4,6e-4 -0.002,0 -0.003,0 h -0.006 c -7.2e-4,6e-4 -0.005,4e-4 -0.006,0 v 0.028 c -8.19987,0.02 -14.84021,6.6709 -14.8418,14.8726 -7.5e-4,8.2038 6.64012,14.8577 14.8418,14.8784 v 0.023 h 0.006 0.006 c 6.7e-4,10e-5 0.002,10e-5 0.003,0 h 0.003 0.003 0.003 0.0234 c 7.749,0 14.1924,5.9651 14.79638,13.6904 h 0.003 0.003 0.003 0.006 0.001 0.0103 c 0.0685,0.9786 0.10427,1.9589 0.10548,2.9399 1.2e-4,23.6661 -19.18622,42.8511 -42.85254,42.8511 -0.40014,-0.015 -0.7987,-0.033 -1.19824,-0.06 h -0.003 c -0.2129,0.012 -0.4255,0.019 -0.63868,0.022 -8.19911,-3e-4 -14.84442,-6.6457 -14.84472,-14.8448 v -0.022 h -0.004 -0.002 -0.004 -0.004 -0.003 -0.003 -0.002 -0.0308 c -0.0219,-8.1987 -6.67158,-14.8356 -14.87256,-14.8374 -8.2019,3e-4 -14.85356,6.6375 -14.87549,14.8374 h -0.0293 -0.001 -0.003 -0.001 -0.003 -0.001 -0.003 -0.003 -10e-4 l 10e-4,0.019 c -3.1e-4,8.1991 -6.64559,14.8459 -14.84472,14.8462 -8.19912,-3e-4 -14.84443,-6.6471 -14.84473,-14.8462 v -0.022 h -0.003 -0.004 -0.003 -0.003 -10e-4 -0.001 -0.003 -0.001 -0.0293 c -0.0219,-8.1989 -6.67156,-14.8386 -14.87256,-14.8403 -8.20282,0 -14.85501,6.6395 -14.87695,14.8403 h -0.0278 -0.003 -0.002 -0.003 -0.003 -0.006 -0.003 -0.001 l 0.001,0.017 c -3.2e-4,8.1999 -6.64761,14.85 -14.84766,14.8491 -8.19914,-3e-4 -14.84441,-6.6501 -14.84472,-14.8491 v -0.022 h -0.001 -0.003 -0.001 -0.003 -0.001 -0.001 -0.003 -0.001 -0.0293 c -0.0219,-8.1989 -6.67158,-14.8359 -14.87256,-14.8374 -8.20191,3e-4 -14.85357,6.6375 -14.8755,14.8374 h -0.0293 -0.003 -0.003 -10e-4 -0.005 -0.003 -10e-4 -0.003 -0.003 l 0.003,0.019 c -3.2e-4,8.199 -6.64561,14.8459 -14.844725,14.8462 -8.19915,-3e-4 -14.84588,-6.6472 -14.8462,-14.8462 v -0.019 h -0.003 -0.003 -0.003 -0.005 -0.006 -0.0278 c -0.0219,-8.1987 -6.67301,-14.8356 -14.87402,-14.8374 -8.20188,3e-4 -14.85358,6.6375 -14.87549,14.8374 h -0.0278 -0.003 -0.003 -0.003 -0.004 -0.003 -0.003 v 0.016 c -3e-4,8.199 -6.64558,14.8459 -14.84473,14.8462 -8.20005,0 -14.84735,-6.6463 -14.84766,-14.8462 v -0.019 h -0.003 -0.003 -0.004 -0.005 -0.003 -0.0249 c -0.0219,-8.1999 -6.67505,-14.8371 -14.87695,-14.8374 -8.20191,3e-4 -14.85356,6.6375 -14.87549,14.8374 h -0.0278 -0.003 -0.006 -0.003 -0.003 -0.001 -0.005 l 0.007,0.019 h -0.003 c -3e-4,8.199 -6.64558,14.8443 -14.84473,14.8447 -8.19912,-4e-4 -14.84589,-6.6457 -14.84619,-14.8447 v -0.022 h -0.005 -0.003 -0.003 -0.003 -0.0278 c -0.0219,-8.1989 -6.67156,-14.8358 -14.87256,-14.8374 -8.20189,4e-4 -14.85501,6.6375 -14.87694,14.8374 h -0.0278 -0.001 -0.002 -0.007 -0.003 -0.003 -0.003 l 0.003,0.019 c -3e-4,8.199 -6.64707,14.8459 -14.84619,14.8462 -8.19914,-3e-4 -14.84443,-6.6472 -14.84472,-14.8462 v -0.019 h -0.003 -0.003 -0.003 -0.003 -0.002 -0.006 -0.003 -0.003 -0.0264 c -0.0219,-8.199 -6.673045,-14.8372 -14.874025,-14.8389 -8.20283,0 -14.85648,6.6381 -14.87841,14.8389 h -0.0249 -0.003 -0.003 -0.003 -0.005 -0.006 -0.003 -0.002 -0.003 l 0.003,0.017 c -0.002,7.7664 -5.98956,14.2188 -13.73438,14.8008 h -0.003 -0.003 -0.003 -0.006 -0.003 -0.003 v 0.01 c -0.97591,0.067 -1.95289,0.1019 -2.93115,0.1025 h -0.002 -0.003 c -23.66475,0 -42.84866,-19.1848 -42.8496,-42.8496 0.0164,-0.5582 0.0438,-1.1173 0.082,-1.6744 -0.002,-0.054 -0.004,-0.1088 -0.006,-0.1625 9e-5,-8.1992 6.64683,-14.8474 14.84619,-14.8477 h 0.022 0.002 0.003 0.0234 0.003 0.003 0.003 c 7.2e-4,-6e-4 0.002,0 0.003,0 v -0.023 c 8.19969,-0.022 14.83979,-6.6738 14.84033,-14.8755 -3e-4,-8.202 -6.64048,-14.855 -14.84033,-14.8769 v -0.025 c -6.8e-4,-3e-4 -0.002,-3e-4 -0.003,0 h -0.003 -0.003 -0.003 c -6.6e-4,-3e-4 -0.002,-3e-4 -0.003,0 h -0.0234 c -8.19912,-6e-4 -14.84588,-6.6469 -14.84619,-14.8462 3.1e-4,-8.199 6.64705,-14.8444 14.84619,-14.8447 h 0.022 0.002 0.003 0.003 0.003 10e-4 0.003 0.003 v -0.031 c 8.19879,-0.022 14.8385,-6.6732 14.84033,-14.874 -3.2e-4,-8.2019 -6.64046,-14.8521 -14.84033,-14.874 v -0.028 h -0.003 -0.003 -10e-4 -0.003 -0.002 -0.0234 c -8.19912,-3e-4 -14.84586,-6.6454 -14.84619,-14.8447 -7.5e-4,-8.1999 6.64614,-14.8473 14.84619,-14.8476 h 0.022 0.002 10e-4 0.003 0.003 0.001 c 7.2e-4,-6e-4 0.002,-3e-4 0.003,0 h 0.003 v -0.029 c 8.19879,-0.022 14.8385,-6.6718 14.84033,-14.8726 7.5e-4,-8.2027 -6.63954,-14.8565 -14.84033,-14.8784 v -0.019 h -0.003 -0.003 -0.001 c -6e-4,-6e-4 -0.002,-6e-4 -0.003,0 h -0.003 -10e-4 -0.0234 c -8.20005,-3e-4 -14.84716,-6.6477 -14.84619,-14.8477 3.4e-4,-8.1992 6.64707,-14.8459 14.84619,-14.8462 h 0.022 0.002 0.006 0.003 c 7.2e-4,-6e-4 0.002,-4e-4 0.003,0 h 0.003 c 7.4e-4,-6e-4 0.002,-4e-4 0.003,0 v -0.029 c 8.19879,-0.022 14.8385,-6.6718 14.84033,-14.8726 -3e-4,-8.202 -6.64046,-14.855 -14.84033,-14.8769 v -0.019 c -6e-4,0 -0.002,-5e-4 -0.003,0 h -0.003 c -6.7e-4,-2e-4 -0.002,-2e-4 -0.003,0 h -0.003 -0.006 -0.0205 c -8.19912,-3e-4 -14.84588,-6.6469 -14.84619,-14.8462 0.006,-7.6923 5.88711,-14.1054 13.5498,-14.7774 1.05819,0.093 2.11947,0.1432 3.18164,0.1568 23.6836,2e-4 42.88198,-19.1984 42.88183,-42.8819 -0.007,-0.732 -0.0331,-1.4649 -0.0776,-2.1957 0.0925,-8.1304 6.7076,-14.6727 14.83886,-14.6763 z"
           style="opacity:1;fill:#ff00ff;fill-opacity:0.875;stroke:#000002;stroke-width:5.66929;stroke-miterlimit:4;stroke-dasharray:none;stroke-opacity:1"
           id="rect3771" />
      </g>
      <g
         inkscape:label="Bird Layer - Delete"
         id="layer1-3" />
      <g
         inkscape:label="Your Design"
         id="layer11" />
    </g>
  </g>
</svg>
