<?xml version="1.0" encoding="UTF-8" standalone="no"?>
<svg
   xmlns:dc="http://purl.org/dc/elements/1.1/"
   xmlns:cc="http://creativecommons.org/ns#"
   xmlns:rdf="http://www.w3.org/1999/02/22-rdf-syntax-ns#"
   xmlns:svg="http://www.w3.org/2000/svg"
   xmlns="http://www.w3.org/2000/svg"
   xmlns:sodipodi="http://sodipodi.sourceforge.net/DTD/sodipodi-0.dtd"
   xmlns:inkscape="http://www.inkscape.org/namespaces/inkscape"
   version="1.1"
   inkscape:output_extension="org.inkscape.output.svg.inkscape"
   sodipodi:docname="EvenFull.svg"
   inkscape:version="1.0 (4035a4fb49, 2020-05-01)"
   sodipodi:version="0.32"
   id="svg2338"
   xml:space="preserve"
   viewBox="0 0 1116.852 1116.85"
   height="1116.85pt"
   width="1116.852pt"><metadata
     id="metadata2382"><rdf:RDF><cc:Work
         rdf:about=""><dc:format>image/svg+xml</dc:format><dc:type
           rdf:resource="http://purl.org/dc/dcmitype/StillImage" /><dc:title></dc:title></cc:Work></rdf:RDF></metadata><defs
     id="defs2380"><inkscape:perspective
       id="perspective46224"
       inkscape:persp3d-origin="698.03253 : 465.35417 : 1"
       inkscape:vp_z="1396.0651 : 698.03125 : 1"
       inkscape:vp_y="0 : 1000 : 0"
       inkscape:vp_x="0 : 698.03125 : 1"
       sodipodi:type="inkscape:persp3d" /><inkscape:perspective
       id="perspective37556-9"
       inkscape:persp3d-origin="338.38562 : 225.59001 : 1"
       inkscape:vp_z="676.77124 : 338.38501 : 1"
       inkscape:vp_y="0 : 1000 : 0"
       inkscape:vp_x="0 : 338.38501 : 1"
       sodipodi:type="inkscape:persp3d" /><inkscape:perspective
       id="perspective16301-9"
       inkscape:persp3d-origin="338.38562 : 225.59001 : 1"
       inkscape:vp_z="676.77124 : 338.38501 : 1"
       inkscape:vp_y="0 : 1000 : 0"
       inkscape:vp_x="0 : 338.38501 : 1"
       sodipodi:type="inkscape:persp3d" /><inkscape:perspective
       id="perspective12409-1"
       inkscape:persp3d-origin="270.7085 : 180.47233 : 1"
       inkscape:vp_z="541.41699 : 270.7085 : 1"
       inkscape:vp_y="0 : 1000 : 0"
       inkscape:vp_x="0 : 270.7085 : 1"
       sodipodi:type="inkscape:persp3d" /><inkscape:perspective
       id="perspective9337-7"
       inkscape:persp3d-origin="0.5 : 0.33333333 : 1"
       inkscape:vp_z="1 : 0.5 : 1"
       inkscape:vp_y="0 : 1000 : 0"
       inkscape:vp_x="0 : 0.5 : 1"
       sodipodi:type="inkscape:persp3d" /><inkscape:perspective
       id="perspective8562-2"
       inkscape:persp3d-origin="0.5 : 0.33333333 : 1"
       inkscape:vp_z="1 : 0.5 : 1"
       inkscape:vp_y="0 : 1000 : 0"
       inkscape:vp_x="0 : 0.5 : 1"
       sodipodi:type="inkscape:persp3d" /><inkscape:perspective
       sodipodi:type="inkscape:persp3d"
       inkscape:vp_x="0 : 338.38501 : 1"
       inkscape:vp_y="0 : 1000 : 0"
       inkscape:vp_z="676.77124 : 338.38501 : 1"
       inkscape:persp3d-origin="338.38562 : 225.59001 : 1"
       id="perspective3083-3" /><inkscape:perspective
       sodipodi:type="inkscape:persp3d"
       inkscape:vp_x="0 : 270.7085 : 1"
       inkscape:vp_y="0 : 1000 : 0"
       inkscape:vp_z="541.41699 : 270.7085 : 1"
       inkscape:persp3d-origin="270.7085 : 180.47233 : 1"
       id="perspective23419-6" /><inkscape:perspective
       sodipodi:type="inkscape:persp3d"
       inkscape:vp_x="0 : 338.38501 : 1"
       inkscape:vp_y="0 : 1000 : 0"
       inkscape:vp_z="676.77124 : 338.38501 : 1"
       inkscape:persp3d-origin="338.38562 : 225.59001 : 1"
       id="perspective27913-5" /><inkscape:perspective
       id="perspective27913"
       inkscape:persp3d-origin="338.38562 : 225.59001 : 1"
       inkscape:vp_z="676.77124 : 338.38501 : 1"
       inkscape:vp_y="0 : 1000 : 0"
       inkscape:vp_x="0 : 338.38501 : 1"
       sodipodi:type="inkscape:persp3d" /><inkscape:perspective
       id="perspective23419"
       inkscape:persp3d-origin="270.7085 : 180.47233 : 1"
       inkscape:vp_z="541.41699 : 270.7085 : 1"
       inkscape:vp_y="0 : 1000 : 0"
       inkscape:vp_x="0 : 270.7085 : 1"
       sodipodi:type="inkscape:persp3d" /><inkscape:perspective
       id="perspective3083"
       inkscape:persp3d-origin="338.38562 : 225.59001 : 1"
       inkscape:vp_z="676.77124 : 338.38501 : 1"
       inkscape:vp_y="0 : 1000 : 0"
       inkscape:vp_x="0 : 338.38501 : 1"
       sodipodi:type="inkscape:persp3d" /><inkscape:perspective
       sodipodi:type="inkscape:persp3d"
       inkscape:vp_x="0 : 0.5 : 1"
       inkscape:vp_y="0 : 1000 : 0"
       inkscape:vp_z="1 : 0.5 : 1"
       inkscape:persp3d-origin="0.5 : 0.33333333 : 1"
       id="perspective8562" /><inkscape:perspective
       sodipodi:type="inkscape:persp3d"
       inkscape:vp_x="0 : 0.5 : 1"
       inkscape:vp_y="0 : 1000 : 0"
       inkscape:vp_z="1 : 0.5 : 1"
       inkscape:persp3d-origin="0.5 : 0.33333333 : 1"
       id="perspective9337" /><inkscape:perspective
       sodipodi:type="inkscape:persp3d"
       inkscape:vp_x="0 : 270.7085 : 1"
       inkscape:vp_y="0 : 1000 : 0"
       inkscape:vp_z="541.41699 : 270.7085 : 1"
       inkscape:persp3d-origin="270.7085 : 180.47233 : 1"
       id="perspective12409" /><inkscape:perspective
       sodipodi:type="inkscape:persp3d"
       inkscape:vp_x="0 : 338.38501 : 1"
       inkscape:vp_y="0 : 1000 : 0"
       inkscape:vp_z="676.77124 : 338.38501 : 1"
       inkscape:persp3d-origin="338.38562 : 225.59001 : 1"
       id="perspective16301" /><inkscape:perspective
       sodipodi:type="inkscape:persp3d"
       inkscape:vp_x="0 : 338.38501 : 1"
       inkscape:vp_y="0 : 1000 : 0"
       inkscape:vp_z="676.77124 : 338.38501 : 1"
       inkscape:persp3d-origin="338.38562 : 225.59001 : 1"
       id="perspective37556" /><inkscape:perspective
       sodipodi:type="inkscape:persp3d"
       inkscape:vp_x="0 : 270.70999 : 1"
       inkscape:vp_y="0 : 1000 : 0"
       inkscape:vp_z="541.41998 : 270.70999 : 1"
       inkscape:persp3d-origin="270.70999 : 180.47333 : 1"
       id="perspective51446" /><inkscape:perspective
       id="perspective37556-9-8"
       inkscape:persp3d-origin="338.38562 : 225.59001 : 1"
       inkscape:vp_z="676.77124 : 338.38501 : 1"
       inkscape:vp_y="0 : 1000 : 0"
       inkscape:vp_x="0 : 338.38501 : 1"
       sodipodi:type="inkscape:persp3d" /><inkscape:perspective
       id="perspective16301-9-1"
       inkscape:persp3d-origin="338.38562 : 225.59001 : 1"
       inkscape:vp_z="676.77124 : 338.38501 : 1"
       inkscape:vp_y="0 : 1000 : 0"
       inkscape:vp_x="0 : 338.38501 : 1"
       sodipodi:type="inkscape:persp3d" /><inkscape:perspective
       id="perspective12409-1-2"
       inkscape:persp3d-origin="270.7085 : 180.47233 : 1"
       inkscape:vp_z="541.41699 : 270.7085 : 1"
       inkscape:vp_y="0 : 1000 : 0"
       inkscape:vp_x="0 : 270.7085 : 1"
       sodipodi:type="inkscape:persp3d" /><inkscape:perspective
       id="perspective9337-7-0"
       inkscape:persp3d-origin="0.5 : 0.33333333 : 1"
       inkscape:vp_z="1 : 0.5 : 1"
       inkscape:vp_y="0 : 1000 : 0"
       inkscape:vp_x="0 : 0.5 : 1"
       sodipodi:type="inkscape:persp3d" /><inkscape:perspective
       id="perspective8562-2-5"
       inkscape:persp3d-origin="0.5 : 0.33333333 : 1"
       inkscape:vp_z="1 : 0.5 : 1"
       inkscape:vp_y="0 : 1000 : 0"
       inkscape:vp_x="0 : 0.5 : 1"
       sodipodi:type="inkscape:persp3d" /><inkscape:perspective
       sodipodi:type="inkscape:persp3d"
       inkscape:vp_x="0 : 338.38501 : 1"
       inkscape:vp_y="0 : 1000 : 0"
       inkscape:vp_z="676.77124 : 338.38501 : 1"
       inkscape:persp3d-origin="338.38562 : 225.59001 : 1"
       id="perspective3083-3-7" /><inkscape:perspective
       sodipodi:type="inkscape:persp3d"
       inkscape:vp_x="0 : 270.7085 : 1"
       inkscape:vp_y="0 : 1000 : 0"
       inkscape:vp_z="541.41699 : 270.7085 : 1"
       inkscape:persp3d-origin="270.7085 : 180.47233 : 1"
       id="perspective23419-6-3" /><inkscape:perspective
       sodipodi:type="inkscape:persp3d"
       inkscape:vp_x="0 : 338.38501 : 1"
       inkscape:vp_y="0 : 1000 : 0"
       inkscape:vp_z="676.77124 : 338.38501 : 1"
       inkscape:persp3d-origin="338.38562 : 225.59001 : 1"
       id="perspective27913-5-7" /><inkscape:perspective
       id="perspective27913-9"
       inkscape:persp3d-origin="338.38562 : 225.59001 : 1"
       inkscape:vp_z="676.77124 : 338.38501 : 1"
       inkscape:vp_y="0 : 1000 : 0"
       inkscape:vp_x="0 : 338.38501 : 1"
       sodipodi:type="inkscape:persp3d" /><inkscape:perspective
       id="perspective23419-3"
       inkscape:persp3d-origin="270.7085 : 180.47233 : 1"
       inkscape:vp_z="541.41699 : 270.7085 : 1"
       inkscape:vp_y="0 : 1000 : 0"
       inkscape:vp_x="0 : 270.7085 : 1"
       sodipodi:type="inkscape:persp3d" /><inkscape:perspective
       id="perspective3083-1"
       inkscape:persp3d-origin="338.38562 : 225.59001 : 1"
       inkscape:vp_z="676.77124 : 338.38501 : 1"
       inkscape:vp_y="0 : 1000 : 0"
       inkscape:vp_x="0 : 338.38501 : 1"
       sodipodi:type="inkscape:persp3d" /><inkscape:perspective
       sodipodi:type="inkscape:persp3d"
       inkscape:vp_x="0 : 0.5 : 1"
       inkscape:vp_y="0 : 1000 : 0"
       inkscape:vp_z="1 : 0.5 : 1"
       inkscape:persp3d-origin="0.5 : 0.33333333 : 1"
       id="perspective8562-25" /><inkscape:perspective
       sodipodi:type="inkscape:persp3d"
       inkscape:vp_x="0 : 0.5 : 1"
       inkscape:vp_y="0 : 1000 : 0"
       inkscape:vp_z="1 : 0.5 : 1"
       inkscape:persp3d-origin="0.5 : 0.33333333 : 1"
       id="perspective9337-6" /><inkscape:perspective
       sodipodi:type="inkscape:persp3d"
       inkscape:vp_x="0 : 270.7085 : 1"
       inkscape:vp_y="0 : 1000 : 0"
       inkscape:vp_z="541.41699 : 270.7085 : 1"
       inkscape:persp3d-origin="270.7085 : 180.47233 : 1"
       id="perspective12409-8" /><inkscape:perspective
       sodipodi:type="inkscape:persp3d"
       inkscape:vp_x="0 : 338.38501 : 1"
       inkscape:vp_y="0 : 1000 : 0"
       inkscape:vp_z="676.77124 : 338.38501 : 1"
       inkscape:persp3d-origin="338.38562 : 225.59001 : 1"
       id="perspective16301-5" /><inkscape:perspective
       sodipodi:type="inkscape:persp3d"
       inkscape:vp_x="0 : 338.38501 : 1"
       inkscape:vp_y="0 : 1000 : 0"
       inkscape:vp_z="676.77124 : 338.38501 : 1"
       inkscape:persp3d-origin="338.38562 : 225.59001 : 1"
       id="perspective37556-4" /><inkscape:perspective
       id="perspective37556-9-1"
       inkscape:persp3d-origin="338.38562 : 225.59001 : 1"
       inkscape:vp_z="676.77124 : 338.38501 : 1"
       inkscape:vp_y="0 : 1000 : 0"
       inkscape:vp_x="0 : 338.38501 : 1"
       sodipodi:type="inkscape:persp3d" /><inkscape:perspective
       id="perspective16301-9-3"
       inkscape:persp3d-origin="338.38562 : 225.59001 : 1"
       inkscape:vp_z="676.77124 : 338.38501 : 1"
       inkscape:vp_y="0 : 1000 : 0"
       inkscape:vp_x="0 : 338.38501 : 1"
       sodipodi:type="inkscape:persp3d" /><inkscape:perspective
       id="perspective12409-1-9"
       inkscape:persp3d-origin="270.7085 : 180.47233 : 1"
       inkscape:vp_z="541.41699 : 270.7085 : 1"
       inkscape:vp_y="0 : 1000 : 0"
       inkscape:vp_x="0 : 270.7085 : 1"
       sodipodi:type="inkscape:persp3d" /><inkscape:perspective
       id="perspective9337-7-1"
       inkscape:persp3d-origin="0.5 : 0.33333333 : 1"
       inkscape:vp_z="1 : 0.5 : 1"
       inkscape:vp_y="0 : 1000 : 0"
       inkscape:vp_x="0 : 0.5 : 1"
       sodipodi:type="inkscape:persp3d" /><inkscape:perspective
       id="perspective8562-2-7"
       inkscape:persp3d-origin="0.5 : 0.33333333 : 1"
       inkscape:vp_z="1 : 0.5 : 1"
       inkscape:vp_y="0 : 1000 : 0"
       inkscape:vp_x="0 : 0.5 : 1"
       sodipodi:type="inkscape:persp3d" /><inkscape:perspective
       sodipodi:type="inkscape:persp3d"
       inkscape:vp_x="0 : 338.38501 : 1"
       inkscape:vp_y="0 : 1000 : 0"
       inkscape:vp_z="676.77124 : 338.38501 : 1"
       inkscape:persp3d-origin="338.38562 : 225.59001 : 1"
       id="perspective3083-3-8" /><inkscape:perspective
       sodipodi:type="inkscape:persp3d"
       inkscape:vp_x="0 : 270.7085 : 1"
       inkscape:vp_y="0 : 1000 : 0"
       inkscape:vp_z="541.41699 : 270.7085 : 1"
       inkscape:persp3d-origin="270.7085 : 180.47233 : 1"
       id="perspective23419-6-8" /><inkscape:perspective
       sodipodi:type="inkscape:persp3d"
       inkscape:vp_x="0 : 338.38501 : 1"
       inkscape:vp_y="0 : 1000 : 0"
       inkscape:vp_z="676.77124 : 338.38501 : 1"
       inkscape:persp3d-origin="338.38562 : 225.59001 : 1"
       id="perspective27913-5-4" /><inkscape:perspective
       id="perspective27913-1"
       inkscape:persp3d-origin="338.38562 : 225.59001 : 1"
       inkscape:vp_z="676.77124 : 338.38501 : 1"
       inkscape:vp_y="0 : 1000 : 0"
       inkscape:vp_x="0 : 338.38501 : 1"
       sodipodi:type="inkscape:persp3d" /><inkscape:perspective
       id="perspective23419-9"
       inkscape:persp3d-origin="270.7085 : 180.47233 : 1"
       inkscape:vp_z="541.41699 : 270.7085 : 1"
       inkscape:vp_y="0 : 1000 : 0"
       inkscape:vp_x="0 : 270.7085 : 1"
       sodipodi:type="inkscape:persp3d" /><inkscape:perspective
       id="perspective3083-8"
       inkscape:persp3d-origin="338.38562 : 225.59001 : 1"
       inkscape:vp_z="676.77124 : 338.38501 : 1"
       inkscape:vp_y="0 : 1000 : 0"
       inkscape:vp_x="0 : 338.38501 : 1"
       sodipodi:type="inkscape:persp3d" /><inkscape:perspective
       sodipodi:type="inkscape:persp3d"
       inkscape:vp_x="0 : 0.5 : 1"
       inkscape:vp_y="0 : 1000 : 0"
       inkscape:vp_z="1 : 0.5 : 1"
       inkscape:persp3d-origin="0.5 : 0.33333333 : 1"
       id="perspective8562-6" /><inkscape:perspective
       sodipodi:type="inkscape:persp3d"
       inkscape:vp_x="0 : 0.5 : 1"
       inkscape:vp_y="0 : 1000 : 0"
       inkscape:vp_z="1 : 0.5 : 1"
       inkscape:persp3d-origin="0.5 : 0.33333333 : 1"
       id="perspective9337-2" /><inkscape:perspective
       sodipodi:type="inkscape:persp3d"
       inkscape:vp_x="0 : 270.7085 : 1"
       inkscape:vp_y="0 : 1000 : 0"
       inkscape:vp_z="541.41699 : 270.7085 : 1"
       inkscape:persp3d-origin="270.7085 : 180.47233 : 1"
       id="perspective12409-3" /><inkscape:perspective
       sodipodi:type="inkscape:persp3d"
       inkscape:vp_x="0 : 338.38501 : 1"
       inkscape:vp_y="0 : 1000 : 0"
       inkscape:vp_z="676.77124 : 338.38501 : 1"
       inkscape:persp3d-origin="338.38562 : 225.59001 : 1"
       id="perspective16301-56" /><inkscape:perspective
       sodipodi:type="inkscape:persp3d"
       inkscape:vp_x="0 : 338.38501 : 1"
       inkscape:vp_y="0 : 1000 : 0"
       inkscape:vp_z="676.77124 : 338.38501 : 1"
       inkscape:persp3d-origin="338.38562 : 225.59001 : 1"
       id="perspective37556-5" /><inkscape:perspective
       sodipodi:type="inkscape:persp3d"
       inkscape:vp_x="0 : 0.5 : 1"
       inkscape:vp_y="0 : 1000 : 0"
       inkscape:vp_z="1 : 0.5 : 1"
       inkscape:persp3d-origin="0.5 : 0.33333333 : 1"
       id="perspective10328" /><inkscape:perspective
       sodipodi:type="inkscape:persp3d"
       inkscape:vp_x="0 : 0.5 : 1"
       inkscape:vp_y="0 : 1000 : 0"
       inkscape:vp_z="1 : 0.5 : 1"
       inkscape:persp3d-origin="0.5 : 0.33333333 : 1"
       id="perspective11034" /><inkscape:perspective
       sodipodi:type="inkscape:persp3d"
       inkscape:vp_x="0 : 0.5 : 1"
       inkscape:vp_y="0 : 1000 : 0"
       inkscape:vp_z="1 : 0.5 : 1"
       inkscape:persp3d-origin="0.5 : 0.33333333 : 1"
       id="perspective3083-7" /><inkscape:perspective
       sodipodi:type="inkscape:persp3d"
       inkscape:vp_x="0 : 0.5 : 1"
       inkscape:vp_y="0 : 1000 : 0"
       inkscape:vp_z="1 : 0.5 : 1"
       inkscape:persp3d-origin="0.5 : 0.33333333 : 1"
       id="perspective2997" /></defs><sodipodi:namedview
     showguides="false"
     inkscape:document-rotation="0"
     inkscape:document-units="mm"
     inkscape:window-maximized="1"
     showgrid="false"
     inkscape:current-layer="layer10"
     inkscape:window-y="-8"
     inkscape:window-x="-8"
     inkscape:cy="2491.8801"
     inkscape:cx="3035.7829"
     inkscape:zoom="0.1767767"
     id="base"
     pagecolor="#ffffff"
     bordercolor="#666666"
     borderopacity="1.0"
     objecttolerance="10.0"
     gridtolerance="10.0"
     guidetolerance="10.0"
     inkscape:pageopacity="0.0"
     inkscape:pageshadow="2"
     inkscape:window-width="1920"
     inkscape:window-height="1017" /><g
     inkscape:label="Design Template"
     id="layer10"
     inkscape:groupmode="layer"><path
       d="m -190.1684,243.04037 -0.003,0.0103 c -3.10158,0 -6.01437,0.78501 -8.55323,2.16943 -0.25388,0.13845 -0.50377,0.28337 -0.75,0.43359 -0.24545,0.14993 -0.48614,0.30458 -0.72363,0.46583 -0.0496,0.0338 -0.0973,0.0697 -0.14648,0.104 -0.18748,0.13005 -0.37446,0.26141 -0.55664,0.39844 -0.0103,0.007 -0.0205,0.016 -0.0308,0.0234 -0.44498,0.33592 -0.87485,0.6925 -1.28614,1.06787 0,0 -0.002,0 -0.002,0 -0.073,0.0668 -0.142,0.13727 -0.21386,0.20507 -0.14022,0.1323 -0.28159,0.26319 -0.41748,0.39991 -0.20239,0.2037 -0.39929,0.41227 -0.5918,0.62549 -0.18942,0.20978 -0.37421,0.42444 -0.55371,0.64306 -0.0549,0.0667 -0.10574,0.13735 -0.15967,0.20508 -0.12815,0.1608 -0.25816,0.32103 -0.38086,0.48633 -0.68657,0.92505 -1.28665,1.91936 -1.78857,2.97071 -0.42114,0.88216 -0.7731,1.8042 -1.04883,2.75976 -0.004,0.0141 -0.008,0.0283 -0.0117,0.0424 -0.0817,0.28581 -0.15474,0.57564 -0.22266,0.86718 -0.0122,0.0527 -0.0249,0.10528 -0.0366,0.15821 -0.0587,0.26282 -0.11094,0.5283 -0.15821,0.79541 -0.0111,0.0631 -0.0233,0.12569 -0.0337,0.18896 -0.0409,0.24609 -0.0746,0.49471 -0.10546,0.74415 -0.0115,0.0937 -0.0251,0.18705 -0.0352,0.28125 -0.0238,0.22017 -0.0397,0.4425 -0.0557,0.66504 -0.008,0.1119 -0.019,0.22296 -0.0249,0.33544 -0.012,0.22557 -0.0152,0.4534 -0.019,0.68116 -0.001,0.096 -0.007,0.19075 -0.007,0.28711 v 60.86132 c 0.002,83.40589 0.007,165.51126 0.0117,247.15575 0,0.004 0,0.007 0,0.0103 0.0148,8.79067 3.80792,18.1458 11.18408,25.52197 l 22.43848,22.43555 c 3.23134,3.26955 5.00118,7.70875 4.90722,12.30469 -0.088,4.32807 -1.82314,8.45991 -4.85156,11.55322 l -22.49414,22.4956 c -7.60947,7.61148 -11.40583,17.32844 -11.17383,26.3584 v 0.005 0.003 h -0.003 v 10e-4 l -0.001,0.003 v 0.001 h -0.002 -0.001 -0.004 l -0.002,0.003 c 0.003,105.92232 0.004,212.10597 -0.009,320.07135 v 55.0942 h 0.003 0.003 0.001 0.003 v 0.01 h 0.001 v 26.9619 l 10e-4,8.4639 c 0.15579,5.6078 2.54571,10.193 6.31494,13.4004 3.52232,2.9973 8.2442,4.7898 13.45166,5.1065 l 86.83008,0.01 h 324.92723 0.005 10e-4 0.002 0.003 0.003 0.003 0.003 0.001 0.0381 22.53077 c 79.28503,-0.7078 143.19895,-65.2383 143.24999,-144.52444 h 0.009 l -0.009,-0.009 c 0.003,3e-4 0.005,0 0.009,0 0.007,0 0.0132,0.009 0.0132,0.009 v -0.009 -0.0187 -0.18307 c 7e-5,-1.4472 -9e-5,-3.05303 0,-4.26855 2.9e-4,-3.0645 0.002,-7.63628 0.003,-13.52348 7.5e-4,-11.77455 0.005,-28.80997 0.008,-49.55714 0.004,-41.49405 0.009,-97.84178 0.0132,-156.6782 0.01,-117.67289 0.0194,-245.29881 0.019,-283.95702 v -0.003 -0.005 l -0.005,-0.002 -10e-4,-0.001 v -0.003 l -0.002,-0.002 -0.003,-0.003 h -0.002 l -0.001,-0.002 h -0.006 -0.001 -0.003 -0.003 v 0.002 l -0.0234,0.009 v -57.31641 -0.0176 -0.003 c -0.0129,-1.81983 -0.1041,-3.63859 -0.27246,-5.45068 -0.10002,-1.03047 -0.22498,-2.05765 -0.375,-3.08203 -0.13538,-1.08708 -0.29806,-2.1718 -0.48926,-3.25049 -0.20088,-1.00548 -0.4247,-2.00533 -0.67383,-3 -0.24371,-1.06876 -0.51596,-2.13126 -0.81445,-3.18603 -0.30393,-0.99639 -0.63202,-1.98447 -0.98438,-2.96485 -0.34251,-1.01795 -0.71101,-2.02563 -1.10449,-3.0249 v -0.005 c -0.40458,-0.96688 -0.83294,-1.92241 -1.28467,-2.86816 -0.44769,-0.99027 -0.92174,-1.968 -1.41943,-2.93409 -0.4851,-0.89579 -0.99011,-1.78128 -1.51758,-2.65283 -0.55436,-0.95888 -1.1323,-1.90282 -1.73584,-2.83154 h -0.003 c -0.57034,-0.83835 -1.16,-1.66246 -1.76954,-2.47265 -0.64806,-0.90116 -1.31847,-1.78672 -2.01269,-2.65283 -0.66177,-0.79002 -1.34264,-1.56334 -2.04199,-2.32032 -0.71661,-0.81022 -1.45356,-1.60034 -2.21046,-2.37305 v -10e-4 c -0.75184,-0.73631 -1.52273,-1.45369 -2.31005,-2.15185 -0.7922,-0.73153 -1.60194,-1.44237 -2.43018,-2.13282 -0.80676,-0.64503 -1.63114,-1.26992 -2.46826,-1.875 -0.872,-0.65801 -1.75987,-1.29486 -2.66455,-1.90722 -0.85982,-0.55623 -1.73059,-1.09129 -2.61621,-1.60547 -0.94131,-0.57324 -1.89989,-1.12133 -2.86963,-1.64502 -0.92114,-0.47274 -1.85189,-0.92325 -2.79492,-1.35058 -0.97477,-0.4665 -1.96323,-0.90786 -2.96045,-1.32423 -0.96408,-0.37841 -1.93659,-0.7354 -2.91797,-1.0664 -1.03404,-0.37387 -2.0769,-0.72012 -3.1289,-1.04004 -0.98619,-0.27706 -1.9782,-0.52956 -2.97657,-0.75879 -1.05723,-0.26556 -2.11952,-0.5038 -3.18896,-0.71485 -1.02594,-0.1815 -2.05721,-0.33774 -3.09082,-0.46875 -1.07173,-0.15786 -2.14718,-0.28949 -3.22559,-0.39257 -1.80124,-0.16666 -3.60958,-0.25508 -5.41846,-0.26807 h -0.0205 -57.22119 l 0.0103,-0.0249 0.002,-0.003 v -0.002 -0.006 -0.003 -0.003 -0.002 h -0.002 v -10e-4 -0.002 l -0.003,-0.003 h -0.003 v -0.003 -0.003 h -0.003 -0.005 v -10e-4 h -0.002 -10e-4 -271.6289014 -0.002 -0.003 -0.001 l -0.003,10e-4 h -0.001 l -10e-4,0.003 -0.003,0.003 -10e-4,0.003 v 0.002 10e-4 l -10e-4,0.002 v 0.003 0.003 0.006 0.002 c -25.8064796,0.0559 -51.8132596,0.0278 -77.6923796,0.0278 -0.008,0 -0.0145,0.004 -0.0175,0.006 l -0.001,0.003 -0.1626,-0.007 c -11.73626,2.5e-4 -21.250209,9.5157 -21.250479,21.25195 2.7e-4,11.73627 9.514219,21.24874 21.250479,21.24903 0.0541,-7.5e-4 0.11057,-0.001 0.16553,-0.006 2e-5,0 4.6e-4,7.5e-4 0.003,0.003 7.5e-4,5.6e-4 10e-4,-2.6e-4 0.004,0.002 7.5e-4,3.6e-4 0.005,0.002 0.006,0.003 7.5e-4,2.7e-4 0.005,0 0.005,0 116.20195,0.0101 239.581891,0.0526 344.781731,0.0513 l 0.002,0.003 c 0.002,7.5e-4 0.006,0.004 0.0132,0.005 h 0.001 l 0.12891,-0.006 c 44.59792,1.8e-4 80.75079,36.15309 80.75097,80.75098 -1.8e-4,44.5979 -36.15305,80.75077 -80.75097,80.75097 -0.0485,3e-5 -0.0965,4e-5 -0.14502,0 h -267.0673814 -0.001 -10e-4 -0.005 v 0.005 h -0.003 l -0.003,0.003 h -0.003 v 0.002 0.003 0.002 l -0.002,0.001 v 10e-4 0.003 0.003 10e-4 0.003 l 0.008,0.0249 H -81.044561 c -0.008,7e-5 -0.0145,0.002 -0.0175,0.005 -0.003,7.5e-4 -0.004,0.003 -0.003,0.003 l -0.15967,-0.008 h -10e-4 c -11.73629,2.8e-4 -21.250239,9.51569 -21.250489,21.25195 2.5e-4,11.73628 9.514199,21.24876 21.250489,21.24903 0.0544,-7.5e-4 0.11069,-0.003 0.16552,-0.006 h 10e-4 c 0.004,0.002 0.006,0.006 0.0132,0.006 h 77.6308596 l -0.005,0.0293 v 0.002 10e-4 0.003 l 10e-4,0.003 v 0.005 h 0.002 v 0.003 h 0.004 v 0.003 l 0.002,0.003 h 0.004 0.002 10e-4 267.1376814 c 0,0 0.0593,0.0179 0.0806,0.0439 h 0.003 v 10e-4 l 0.003,0.002 h 0.003 0.001 l 0.003,0.003 h 0.003 c 44.04067,0.75048 79.35631,36.65564 79.37695,80.70264 -0.0358,16.95404 -12.16977,32.95822 -15.36182,47.21191 l -8.52246,37.58349 c -1.5913,7.66873 -6.64705,14.84443 -14.84619,14.84473 h -0.0234 c -6.7e-4,-8e-5 -0.002,-8e-5 -0.003,0 h -0.002 -0.001 -0.005 -0.003 c -7.2e-4,6e-4 -0.002,4.5e-4 -0.003,0 v 0.0307 c -8.19965,0.021 -14.84008,6.6723 -14.8418,14.874 3.1e-4,8.20282 6.64103,14.85345 14.8418,14.87407 v 0.0263 h 0.003 c 6.2e-4,7.5e-4 0.002,0 0.003,0 6.1e-4,6.8e-4 0.004,0 0.005,0 h 0.001 0.002 c 6.1e-4,7.5e-4 0.002,4.5e-4 0.003,0 h 0.0234 c 8.19914,3.8e-4 14.84588,6.64703 14.84619,14.84625 7.5e-4,8.1993 -6.64558,14.84625 -14.84472,14.8476 h -0.022 -0.003 -10e-4 -0.003 -0.003 -0.003 -0.002 -10e-4 c -7.2e-4,6e-4 -0.002,4.5e-4 -0.003,0 v 0.0277 c -8.20083,0.021 -14.84153,6.6741 -14.84181,14.877 3.1e-4,8.20283 6.64101,14.85338 14.84181,14.874 v 0.0217 c 6e-4,6.8e-4 0.002,0 0.003,0 0,0 10e-4,0 10e-4,0 h 0.002 c 6e-4,6.8e-4 0.002,4.5e-4 0.003,0 h 0.003 c 6.6e-4,8e-5 0.002,8e-5 0.003,0 h 10e-4 0.0234 c 8.20005,3.8e-4 14.84717,6.65055 14.84619,14.8506 -3.2e-4,8.19848 -6.6465,14.84325 -14.84472,14.84475 h -0.0235 -0.003 -0.003 -0.002 -0.001 c -6.7e-4,-1.5e-4 -0.002,-1.5e-4 -0.003,0 h -0.001 c -7.2e-4,6e-4 -0.002,0 -0.003,0 v 0.0293 c -8.19986,0.021 -14.8402,6.67358 -14.84179,14.8755 3e-4,8.20275 6.64102,14.85338 14.84179,14.874 v 0.0263 c 6.1e-4,6.8e-4 0.002,4.5e-4 0.003,0 h 0.001 c 6.1e-4,7.5e-4 0.002,4.5e-4 0.003,0 h 0.001 0.002 0.003 0.003 0.0235 c 8.19913,3e-4 14.84587,6.64703 14.84619,14.84618 -3.3e-4,8.19914 -6.64707,14.84587 -14.84619,14.84617 h -0.0235 -0.003 c -6.8e-4,-8e-5 -0.002,-8e-5 -0.003,0 h -0.002 -0.001 c -7.2e-4,6e-4 -0.002,0 -0.003,0 h -0.001 c -7.2e-4,6e-4 -0.002,4.5e-4 -0.003,0 v 0.0277 c -8.19987,0.0203 -14.8402,6.67072 -14.84179,14.87257 -7.5e-4,8.2038 6.6401,14.8578 14.84179,14.87843 v 0.0232 c 6.1e-4,7.5e-4 0.002,0 0.003,0 h 0.001 c 6.7e-4,0 0.002,0 0.003,0 h 0.001 0.002 0.003 0.003 0.0235 c 7.74898,0 14.19242,5.96497 14.79638,13.69042 6.1e-4,6.8e-4 0.002,0 0.003,0 h 10e-4 0.003 10e-4 10e-4 0.003 10e-4 0.0103 c 0.0685,0.9786 0.10428,1.95893 0.10548,2.93993 1.2e-4,23.66617 -19.18623,42.85117 -42.85254,42.85107 -0.40014,-0.015 -0.79871,-0.033 -1.19825,-0.06 h -0.003 c -0.21289,0.012 -0.42549,0.019 -0.63867,0.022 -8.19913,-3e-4 -14.84442,-6.6456 -14.84473,-14.8447 v -0.023 h -0.003 -0.003 -0.003 -10e-4 -0.002 -0.003 -0.002 -0.0293 c -0.0219,-8.1989 -6.67158,-14.8358 -14.87256,-14.8374 -8.2019,3e-4 -14.85355,6.6375 -14.87548,14.8374 h -0.0293 -0.003 -0.002 -0.001 -0.003 -0.002 -0.002 -0.003 -0.003 l 0.003,0.02 c -3.1e-4,8.1991 -6.64559,14.8459 -14.84473,14.8462 -8.19912,-3e-4 -14.84587,-6.6471 -14.84619,-14.8462 v -0.022 h -0.003 -0.003 -0.002 -0.003 -0.003 -0.003 -0.003 -0.0293 c -0.0219,-8.199 -6.67157,-14.8372 -14.87256,-14.8389 -8.20283,0 -14.85501,6.6381 -14.87696,14.8389 h -0.0278 -10e-4 -0.003 -0.002 -0.002 -0.003 -0.002 -0.003 -0.001 l 0.001,0.02 c -3.1e-4,8.2001 -6.6476,14.8471 -14.84765,14.8462 -8.19914,-3e-4 -14.84442,-6.647 -14.84473,-14.8462 v -0.023 h -0.003 -0.001 -0.002 -0.003 -0.002 -0.002 -0.003 -0.001 -0.0293 c -0.0219,-8.199 -6.67157,-14.8359 -14.87256,-14.8374 -8.2019,3e-4 -14.85356,6.6375 -14.87549,14.8374 h -0.0293 -0.002 -0.003 -0.002 -0.003 -0.002 -0.003 -0.003 v 0.02 c -3.1e-4,8.1992 -6.64561,14.8458 -14.844731,14.8462 -8.19915,-4e-4 -14.84589,-6.647 -14.84619,-14.8462 v -0.022 h -0.002 -0.003 -0.003 -0.003 -0.002 -0.003 -0.002 -0.0278 c -0.0219,-8.1988 -6.67303,-14.8357 -14.87402,-14.8374 -8.20189,3e-4 -14.85357,6.6375 -14.87549,14.8374 h -0.0278 -0.003 -0.003 -0.002 -0.002 -0.005 -10e-4 -0.003 -0.002 l 0.002,0.019 c -3.2e-4,8.1991 -6.64558,14.8459 -14.84473,14.8462 -8.20005,0 -14.84735,-6.6462 -14.84766,-14.8462 v -0.022 h -0.003 -10e-4 -0.003 -0.001 -0.001 -0.003 -0.0249 c -0.0219,-8.1999 -6.67505,-14.8371 -14.8769604,-14.8374 -8.20191,3e-4 -14.85355,6.6375 -14.87548,14.8374 h -0.0278 -0.002 -0.003 -0.003 -0.003 -0.001 -0.002 -0.003 l 0.005,0.022 h -0.003 c -3.2e-4,8.1992 -6.6455796,14.8444 -14.8447196,14.8447 -8.19914,-3e-4 -14.84588,-6.6455 -14.84619,-14.8447 v -0.023 h -0.001 -0.003 -10e-4 -10e-4 -0.003 -10e-4 -0.003 -0.002 -0.0278 c -0.0219,-8.199 -6.67156,-14.8359 -14.87255,-14.8374 -8.20191,3e-4 -14.85505,6.6375 -14.87695,14.8374 h -0.0278 -0.002 -10e-4 -0.003 -0.002 -10e-4 -0.003 -0.002 -0.004 l 0.004,0.02 c -3e-4,8.1991 -6.64707,14.8459 -14.84619,14.8462 -8.19915,-3e-4 -14.84443,-6.6471 -14.84473,-14.8462 v -0.022 h -0.005 -0.003 -0.003 -0.003 -0.003 -0.003 -0.0264 c -0.0219,-8.199 -6.673019,-14.8387 -14.874019,-14.8403 -8.20281,0 -14.85649,6.6395 -14.87842,14.8403 h -0.0249 -0.005 -0.001 -0.003 -0.001 -0.002 -0.003 -0.001 -0.002 l 0.002,0.019 c -0.002,7.7666 -5.98956,14.2188 -13.73438,14.8008 h -0.001 -0.003 -0.001 -0.001 -0.003 -0.001 -0.003 v 0.011 c -0.97592,0.067 -1.95289,0.1004 -2.93114,0.101 h -10e-4 -0.003 c -23.66475,0 -42.84866,-19.1849 -42.84961,-42.84955 0.0164,-0.55822 0.0438,-1.11712 0.082,-1.6743 -0.002,-0.054 -0.005,-0.10882 -0.006,-0.1626 9e-5,-8.19907 6.64681,-14.84737 14.84619,-14.84767 h 0.022 0.001 10e-4 c 6.6e-4,7e-5 0.002,7e-5 0.003,0 h 0.001 0.002 0.003 0.001 c 7.2e-4,-6e-4 0.002,0 0.003,0 h 0.001 v -0.0277 c 8.19968,-0.0217 14.83979,-6.6738 14.84033,-14.8755 -3e-4,-8.20193 -6.64048,-14.85503 -14.84033,-14.87693 v -0.0248 c 0,0 -0.001,0 -0.001,0 -6.7e-4,-7e-5 -0.002,-7e-5 -0.003,0 h -0.001 -0.003 -0.002 -0.001 c -6.7e-4,-7e-5 -0.002,-7e-5 -0.003,0 h -10e-4 -0.0234 c -8.19912,-3.7e-4 -14.84587,-6.64702 -14.84619,-14.84617 3.1e-4,-8.19907 6.64706,-14.84445 14.84619,-14.84475 h 0.022 0.001 0.001 c 6.6e-4,8e-5 0.002,8e-5 0.003,0 h 0.001 0.003 c 0,0 0.001,0 0.001,0 h 10e-4 c 6.6e-4,8e-5 0.002,8e-5 0.003,0 0,0 0.001,0 0.001,0 v -0.0307 c 8.19878,-0.0217 14.83851,-6.6732 14.84033,-14.87407 -3.1e-4,-8.20185 -6.64048,-14.8521 -14.84033,-14.874 v -0.0277 h -0.001 c -6.1e-4,-7.5e-4 -0.002,0 -0.003,0 h -10e-4 -0.001 c -6.7e-4,-8e-5 -0.002,-8e-5 -0.003,0 h -0.001 c -6.7e-4,-8e-5 -0.002,-8e-5 -0.003,0 h -0.001 -0.0234 c -8.19912,-3.8e-4 -14.84587,-6.6456 -14.84619,-14.84475 -9.8e-4,-8.20005 6.64614,-14.84723 14.84619,-14.8476 h 0.022 0.001 0.002 0.003 0.002 c 6.6e-4,7e-5 0.002,7e-5 0.003,0 h 0.001 c 0,0 0.002,0 0.002,0 7.2e-4,-6e-4 0.002,-4.5e-4 0.003,0 h 0.001 v -0.0277 c 8.19878,-0.0217 14.83851,-6.67178 14.84033,-14.87258 9.7e-4,-8.20282 -6.63955,-14.85652 -14.84033,-14.87842 v -0.0232 c 0,0 -0.001,0 -0.001,0 -6.7e-4,-8e-5 -0.002,-8e-5 -0.003,0 h -0.002 -0.001 c -6.1e-4,-6.8e-4 -0.002,-4.5e-4 -0.003,0 h -0.002 c -6.7e-4,-8e-5 -0.002,-8e-5 -0.003,0 h -0.002 -0.0234 c -8.20004,-3e-4 -14.84717,-6.64755 -14.84619,-14.8476 3.2e-4,-8.19915 6.64707,-14.84595 14.84619,-14.84625 h 0.022 0.001 0.001 0.003 0.001 c 7.2e-4,-6e-4 0.002,-4.5e-4 0.003,0 h 0.001 10e-4 c 7.2e-4,-6e-4 0.002,-4.5e-4 0.003,0 h 0.001 v -0.0293 c 8.19877,-0.0217 14.8385,-6.67028 14.84033,-14.87108 -3e-4,-8.202 -6.64048,-14.85502 -14.84033,-14.877 v -0.0248 h -0.001 c -6.1e-4,-7.5e-4 -0.002,-4.5e-4 -0.003,0 h -10e-4 -0.001 c -6.7e-4,-7e-5 -0.002,-7e-5 -0.003,0 h -0.001 -0.003 -0.001 -0.0234 c -8.19912,-3e-4 -14.84587,-6.64702 -14.84619,-14.84617 0.006,-7.69228 5.88713,-14.10524 13.5498,-14.77734 1.05822,0.0925 2.11949,0.14448 3.18164,0.1582 23.68362,1.3e-4 42.88196,-19.1997 42.88184,-42.8833 -0.007,-0.73207 -0.0316,-1.46359 -0.0762,-2.19433 0.0925,-8.13047 6.70763,-14.67408 14.83887,-14.67774 v 0.0249 c 8.19914,3.2e-4 14.845859,6.64707 14.846189,14.84619 l -10e-4,0.0205 c -4e-5,6.6e-4 -4e-5,0.002 0,0.003 v 10e-4 c -4e-5,6.6e-4 -4e-5,0.002 0,0.003 v 10e-4 h 10e-4 v 10e-4 c -4e-5,6.6e-4 -4e-5,0.002 0,0.003 h 0.001 c 6.2e-4,7.2e-4 0.002,7.5e-4 0.003,10e-4 v 0.002 h 0.002 0.001 c -4e-5,6.7e-4 -4e-5,0.002 0,0.003 6.7e-4,3e-5 0.002,3e-5 0.003,0 h 0.003 0.0323 c 0.0206,8.19984 6.67065,14.8402 14.87256,14.8418 8.20281,-3.1e-4 14.85485,-6.64104 14.87549,-14.8418 h 0.0264 c 6.6e-4,3e-5 0.002,3e-5 0.003,0 h 0.003 c 6.6e-4,3e-5 0.002,3e-5 0.003,0 7.2e-4,-6.1e-4 -5.4e-4,-0.002 0,-0.003 l 0.003,-0.002 c 7.2e-4,-6.2e-4 0.002,-7.5e-4 0.003,-10e-4 h 0.002 c 3e-5,-6.8e-4 3e-5,-0.002 0,-0.003 v -10e-4 l 10e-4,-10e-4 c 4e-5,-6.7e-4 4e-5,-0.002 0,-0.003 v -10e-4 -0.0234 c 3.2e-4,-8.19912 6.64707,-14.84588 14.84619,-14.84619 8.19913,3.1e-4 14.84587,6.64706 14.84619,14.84619 v 0.0234 10e-4 c -4e-5,6.6e-4 -4e-5,0.002 0,0.003 v 10e-4 l 0.002,10e-4 c -3e-5,6.6e-4 -3e-5,0.002 0,0.003 h 0.001 v 10e-4 c 6.3e-4,7.2e-4 0.002,7.5e-4 0.003,0.002 h 0.002 c 6.3e-4,7.2e-4 0.002,0.002 0.003,0.003 h 0.001 c 6.9e-4,3e-5 0.002,3e-5 0.003,0 h 0.0264 c 0.0206,8.19984 6.67358,14.8402 14.87549,14.8418 8.20281,-3.1e-4 14.8548397,-6.64106 14.8754797,-14.8418 h 0.0249 0.001 c 6.7e-4,3e-5 0.002,3e-5 0.003,0 h 10e-4 c 7.2e-4,-6.1e-4 -5.4e-4,-0.002 0,-0.003 6.7e-4,4e-5 0.002,4e-5 0.003,0 l 10e-4,-0.002 10e-4,-10e-4 c 7.2e-4,-6.2e-4 0.002,-0.002 0.003,-0.003 v -10e-4 -10e-4 c 4e-5,-6.7e-4 4e-5,-0.002 0,-0.003 v -10e-4 -0.0234 c 3.199e-4,-8.19913 6.64706,-14.84588 14.84619,-14.84619 8.2000403,-7.5e-4 14.8488203,6.64616 14.8491203,14.84619 l -0.003,0.022 v 0.003 c -3e-5,6.6e-4 -3e-5,0.002 0,0.003 v 0.002 c 6.2e-4,7.2e-4 0.002,7.5e-4 0.003,0.001 -3e-5,6.6e-4 -3e-5,0.002 0,0.003 6.1e-4,7.2e-4 0.002,7.5e-4 0.003,0.001 h 0.003 c 6.1e-4,7.2e-4 7.5e-4,0.002 0.002,0.003 6.8e-4,3e-5 0.002,3e-5 0.003,0 h 0.001 0.002 0.0278 c 0.0207,8.20077 6.67412,14.8415 14.87695,14.8418 8.20281,-3.1e-4 14.85485,-6.64106 14.87549,-14.8418 h 0.0249 0.001 c 6.6e-4,3e-5 0.002,3e-5 0.003,0 h 10e-4 c 7.2e-4,-6e-4 0.002,-0.002 0.003,-0.003 h 0.003 v -0.001 c 7.2e-4,-6e-4 0.004,5.4e-4 0.005,0 7.2e-4,-6.1e-4 -5.4e-4,-0.002 0,-0.003 v -0.001 -0.002 c 3e-5,-6.6e-4 3e-5,-0.002 0,-0.003 v -0.003 -0.0234 c 3.1e-4,-8.19912 6.64707,-14.84587 14.84619,-14.84619 8.19913,3.2e-4 14.8444,6.64706 14.84472,14.84619 l -0.002,0.022 v 0.002 10e-4 c 6.2e-4,7.2e-4 -6e-5,0.002 0.002,0.003 v 0.003 c 6.1e-4,7.2e-4 0.002,0.002 0.003,0.003 l 0.003,10e-4 c 6.1e-4,7.2e-4 -5.3e-4,0.002 0,0.003 6.9e-4,3e-5 0.002,3e-5 0.003,0 l 0.003,0.003 c 6.9e-4,3e-5 0.002,3e-5 0.003,0 h 0.002 0.002 0.0307 c 0.0207,8.19984 6.67065,14.8402 14.87256,14.8418 8.202801,-3.1e-4 14.856311,-6.64106 14.876951,-14.8418 h 0.0249 0.003 c 6.8e-4,3e-5 0.002,3e-5 0.003,0 h 0.002 l 0.001,-0.003 c 6.8e-4,3e-5 0.002,3e-5 0.003,0 5e-5,-6.8e-4 5e-5,-0.002 0,-0.003 h 0.001 v -10e-4 c 6.8e-4,3e-5 0.002,3e-5 0.003,0 5e-5,-6.8e-4 5e-5,-0.002 0,-0.003 v -0.003 c 5e-5,-6.8e-4 5e-5,-0.002 0,-0.003 v -10e-4 -0.0234 c 3.3e-4,-8.19914 6.64707,-14.84588 14.84619,-14.8462 8.19914,3.2e-4 14.84442,6.64706 14.84473,14.8462 v 0.0234 10e-4 c -4e-5,6.6e-4 -4e-5,0.002 0,0.003 6.2e-4,7.2e-4 0.002,10e-4 0.003,0.003 6.1e-4,7.2e-4 10e-4,0.002 0.003,0.003 l 0.001,10e-4 c -4e-5,6.6e-4 -4e-5,0.002 0,0.003 6.7e-4,3e-5 0.002,3e-5 0.003,0 h 0.001 v 0.003 h 0.002 c 6.7e-4,3e-5 0.002,3e-5 0.003,0 h 0.003 0.0293 c 0.0206,8.19984 6.67066,14.8402 14.87256,14.8418 8.20373,7.5e-4 14.85924,-6.64013 14.87988,-14.8418 h 0.0234 0.002 c 6.7e-4,3e-5 0.002,3e-5 0.003,0 h 0.002 l 0.002,-0.003 c 7.2e-4,-6.2e-4 0.002,-0.002 0.003,-0.003 h 0.003 v -10e-4 h 0.002 c 4e-5,-6.8e-4 4e-5,-0.002 0,-0.003 7.2e-4,-6.2e-4 0.002,-0.001 0.003,-0.003 4e-5,-6.8e-4 4e-5,-0.002 0,-0.003 v -10e-4 -0.0234 c 3.2e-4,-8.20004 6.64761,-14.84717 14.84765,-14.8462 8.19913,3.2e-4 14.84441,6.64706 14.84473,14.8462 l -0.002,0.022 v 10e-4 0.002 c -4e-5,6.6e-4 -4e-5,0.002 0,0.003 v 0.002 h 0.002 c -3e-5,6.6e-4 -3e-5,0.002 0,0.003 6.1e-4,7.2e-4 0.002,0.002 0.003,0.003 h 0.002 c -3e-5,6.6e-4 -3e-5,0.004 0,0.005 h 0.001 c 6.8e-4,3e-5 0.002,3e-5 0.003,0 v 10e-4 h 0.002 c 6.8e-4,3e-5 0.004,3e-5 0.005,0 h 0.002 0.0307 c 0.0207,8.19984 6.67211,14.8402 14.87402,14.84181 8.20281,-3.2e-4 14.85632,-6.64107 14.87696,-14.84181 h 0.0249 0.003 c 6.7e-4,3e-5 0.002,3e-5 0.003,0 h 0.002 l 0.002,-10e-4 c 7.2e-4,-6.2e-4 0.002,-0.004 0.003,-0.005 h 0.001 0.002 v -0.003 c 4e-5,-6.7e-4 4e-5,-0.002 0,-0.003 7.2e-4,-6.2e-4 0.002,7e-5 0.003,-0.002 4e-5,-6.7e-4 4e-5,-0.002 0,-0.003 v -0.002 -0.0234 c 3.2e-4,-8.19913 6.65407,-15.21854 14.84473,-14.84619 21.03941,0.95646 0.001,1e-5 21.0205,1.32861 9.59284,0.60636 16.22798,-14.01414 10.9834,-24.18017 -2.70145,-4.74395 -8.02454,-8.54436 -14.49609,-8.81982 -0.0548,7.5e-4 -0.10803,0.003 -0.1626,0.006 -5.5e-4,-1.4e-4 -4.5e-4,-3e-5 -0.003,-0.002 -7.5e-4,-7.2e-4 -0.002,-0.002 -0.004,-0.003 -7.5e-4,-5.1e-4 -0.005,9e-5 -0.006,-0.002 -4.9e-4,-1.3e-4 -0.005,0 -0.006,0 h -77.63168 l 0.007,-0.0278 v -0.003 -0.003 -0.001 -0.003 l -0.002,-10e-4 v -0.001 h -0.003 v -0.006 l -0.003,-10e-4 -0.005,-10e-4 h -0.003 -0.005 -267.137681 c -0.0351,0 -0.061,-0.0187 -0.082,-0.0454 l -0.003,-0.003 -0.001,-0.002 h -0.001 l -0.005,-10e-4 h -0.001 -0.002 -0.001 c -44.033949,-0.76171 -79.345929,-36.66497 -79.366539,-80.71109 0.032,-44.03432 35.3359,-79.92549 79.363759,-80.68212 h 0.001 0.003 l 0.003,-0.003 h 0.003 v -10e-4 l 0.003,-0.002 v -0.002 h 0.003 v -0.003 c 0.0196,-0.0364 0.0493,-0.063 0.0908,-0.063 H 185.996 h 0.001 0.002 0.003 l 0.002,-0.002 0.003,-0.001 h 0.003 l 0.003,-0.003 0.001,-0.003 v -10e-4 l 0.002,-0.002 v -0.003 -0.002 -0.002 -0.003 -0.001 -0.002 l -0.009,-0.0278 h 77.7041 c 0.007,0 0.0115,-0.003 0.0146,-0.006 7.5e-4,-7.5e-4 0.003,-0.002 0.003,-0.003 l 0.15967,0.006 c 11.73627,-2.4e-4 21.25168,-9.51274 21.25195,-21.24902 -2.5e-4,-11.73625 -9.51567,-21.2517 -21.25195,-21.25195 -0.0544,7.5e-4 -0.10934,0.003 -0.16406,0.006 v -0.002 c -0.003,-7.5e-4 -0.0132,-0.003 -0.0132,-0.003 -115.066,-0.20628 -238.884601,-0.30053 -346.212891,-0.0483 -0.0339,0 -0.0623,-0.0197 -0.0835,-0.0455 h -0.001 v -10e-4 l -0.001,-0.002 h -0.002 -0.003 v -0.003 h -0.001 -0.002 -0.003 c -44.046789,-0.7004 -79.360049,-36.60371 -79.380669,-80.64982 0.0309,-44.04242 35.34666,-79.93848 79.382809,-80.68506 h 0.001 0.003 l 0.003,-0.003 0.001,-0.003 h 0.003 10e-4 c 0.0271,-0.0351 3.11168,-0.0615 0.10986,-0.0615 149.38625,2.4e-4 303.185201,6e-5 437.583981,0 5.7e-4,4.5e-4 4.5e-4,-7.5e-4 0.003,10e-4 7.5e-4,6.1e-4 0.005,0.005 0.005,0.005 l 0.007,0.002 h 0.002 c 0.0572,-0.004 0.11313,-0.005 0.17139,-0.009 50.44986,5.4e-4 91.55959,39.95429 93.43358,89.9458 -0.0401,135.78004 0.0967,724.27294 0.0967,724.27294 0.0818,10.2881 9.55358,18.4564 19.85742,19.0825 h 2.67773 c 0.20248,-0.01 0.40545,-0.022 0.60645,-0.037 0.42493,-0.032 0.84638,-0.072 1.26415,-0.1231 0.23664,-0.029 0.47047,-0.064 0.7046,-0.1 0.34908,-0.053 0.69543,-0.1109 1.03857,-0.1772 0.30622,-0.059 0.61001,-0.1248 0.91114,-0.1949 0.26285,-0.061 0.52347,-0.1272 0.78222,-0.1962 0.37546,-0.1005 0.7456,-0.2094 1.11182,-0.3267 0.22878,-0.073 0.45619,-0.1488 0.68115,-0.2286 0.34362,-0.1218 0.68239,-0.2528 1.0166,-0.3896 0.24684,-0.1009 0.49247,-0.203 0.73388,-0.312 0.25322,-0.1144 0.50448,-0.2328 0.75147,-0.3559 0.1872,-0.093 0.36877,-0.1933 0.55225,-0.2916 0.11487,-0.062 0.23232,-0.1196 0.3457,-0.183 1.14181,-0.6394 2.20782,-1.376 3.18164,-2.2047 1.94549,-1.6556 3.52503,-3.6777 4.62012,-6.0175 0.002,0 0.003,-0.01 0.005,-0.01 0.004,-0.01 0.007,-0.015 0.0103,-0.022 0.12824,-0.2753 0.24864,-0.5553 0.36327,-0.8393 0.0158,-0.039 0.0299,-0.079 0.0454,-0.1186 0.0973,-0.2464 0.18999,-0.4959 0.27686,-0.7486 0.0299,-0.087 0.0578,-0.1757 0.0864,-0.2636 0.0732,-0.2244 0.14314,-0.4506 0.20801,-0.6798 0.0261,-0.093 0.0499,-0.1863 0.0747,-0.2797 0.0556,-0.2089 0.10821,-0.4187 0.15674,-0.6314 0.0339,-0.1491 0.0649,-0.3001 0.0952,-0.4512 0.0341,-0.1689 0.067,-0.3385 0.0967,-0.5097 0.0275,-0.1597 0.0525,-0.3203 0.0762,-0.482 0.0258,-0.1754 0.0491,-0.3525 0.0703,-0.5302 0.0211,-0.1785 0.0408,-0.3582 0.0571,-0.5391 0.0137,-0.1497 0.0248,-0.3 0.0352,-0.4512 0.0145,-0.2137 0.0259,-0.4291 0.0337,-0.6459 0.005,-0.1212 0.008,-0.2428 0.0103,-0.3648 v -8.2691 l 0.002,-26.9692 h 0.003 0.002 0.003 c -0.0418,-272.61087 0.002,-529.80821 0.002,-803.87986 0,-0.0408 -0.003,-0.0808 -0.003,-0.12158 -0.003,-0.39645 -0.0204,-0.78941 -0.0483,-1.17921 -0.007,-0.10313 -0.0145,-0.20644 -0.0234,-0.30908 -0.0383,-0.43267 -0.0888,-0.86152 -0.15674,-1.28467 -0.009,-0.0584 -0.0209,-0.11614 -0.0308,-0.17431 -0.0711,-0.41714 -0.15453,-0.82969 -0.25342,-1.23633 -0.009,-0.0356 -0.016,-0.0715 -0.0249,-0.10694 -0.10928,-0.43779 -0.23616,-0.86923 -0.37646,-1.29345 -0.0144,-0.0436 -0.0293,-0.0869 -0.0439,-0.13037 -0.14624,-0.43111 -0.30493,-0.85599 -0.48193,-1.27149 -0.18171,-0.42654 -0.38058,-0.8438 -0.59327,-1.25244 -0.005,-0.0101 -0.009,-0.0207 -0.0146,-0.0308 -0.003,-0.006 -0.008,-0.0105 -0.0103,-0.0161 -0.21614,-0.4123 -0.44665,-0.81608 -0.69287,-1.2085 -2.1e-4,-3.4e-4 2.2e-4,-7.5e-4 0,-0.001 -0.2494,-0.39744 -0.5138,-0.78322 -0.79248,-1.15869 -0.17165,-0.23123 -0.34948,-0.4587 -0.53174,-0.68116 -0.18226,-0.22245 -0.36999,-0.44008 -0.5625,-0.65332 -0.19251,-0.21321 -0.3894,-0.42178 -0.5918,-0.62548 -0.1359,-0.13673 -0.27727,-0.26761 -0.41748,-0.39991 -0.0719,-0.0683 -0.14083,-0.1384 -0.21386,-0.20507 0,0 -0.002,0 -0.002,0 -0.42028,-0.38355 -0.85999,-0.74748 -1.31543,-1.08985 -0.45959,-0.34545 -0.93577,-0.6692 -1.42822,-0.96973 -0.24622,-0.15022 -0.49612,-0.29514 -0.75,-0.43359 -2.53885,-1.38442 -5.45165,-2.16943 -8.55323,-2.16943 l -0.003,-0.0103 h -0.0192 -331.79735 -331.79736 z"
       style="color:#000000;font-style:normal;font-variant:normal;font-weight:normal;font-stretch:normal;font-size:medium;line-height:normal;font-family:sans-serif;text-indent:0;text-align:start;text-decoration:none;text-decoration-line:none;text-decoration-style:solid;text-decoration-color:#000000;letter-spacing:normal;word-spacing:normal;text-transform:none;writing-mode:lr-tb;direction:ltr;baseline-shift:baseline;text-anchor:start;white-space:normal;clip-rule:nonzero;display:inline;overflow:visible;visibility:visible;opacity:1;isolation:auto;mix-blend-mode:normal;color-interpolation:sRGB;color-interpolation-filters:linearRGB;solid-color:#000000;solid-opacity:1;fill:#ff00ff;fill-opacity:1;fill-rule:nonzero;stroke:#000002;stroke-width:5.66929;stroke-linecap:butt;stroke-linejoin:miter;stroke-miterlimit:4;stroke-dasharray:none;stroke-dashoffset:0;stroke-opacity:1;color-rendering:auto;image-rendering:auto;shape-rendering:auto;text-rendering:auto;enable-background:accumulate"
       id="path6473" /></g><g
     inkscape:label="Bird Layer - Delete"
     id="layer1"
     inkscape:groupmode="layer" /><g
     inkscape:label="Your Design"
     id="layer11"
     inkscape:groupmode="layer" /></svg>
