<?xml version="1.0" encoding="UTF-8" standalone="no"?>
<svg
   xmlns:dc="http://purl.org/dc/elements/1.1/"
   xmlns:cc="http://creativecommons.org/ns#"
   xmlns:rdf="http://www.w3.org/1999/02/22-rdf-syntax-ns#"
   xmlns:svg="http://www.w3.org/2000/svg"
   xmlns="http://www.w3.org/2000/svg"
   xmlns:sodipodi="http://sodipodi.sourceforge.net/DTD/sodipodi-0.dtd"
   xmlns:inkscape="http://www.inkscape.org/namespaces/inkscape"
   version="1.1"
   inkscape:output_extension="org.inkscape.output.svg.inkscape"
   sodipodi:docname="SpeakerTemplate.svg"
   inkscape:version="1.0 (4035a4fb49, 2020-05-01)"
   sodipodi:version="0.32"
   id="svg2338"
   xml:space="preserve"
   viewBox="0 0 1116.852 1116.85"
   height="1116.85pt"
   width="1116.852pt"><metadata
     id="metadata2382"><rdf:RDF><cc:Work
         rdf:about=""><dc:format>image/svg+xml</dc:format><dc:type
           rdf:resource="http://purl.org/dc/dcmitype/StillImage" /><dc:title></dc:title></cc:Work></rdf:RDF></metadata><defs
     id="defs2380"><inkscape:perspective
       id="perspective46224"
       inkscape:persp3d-origin="698.03253 : 465.35417 : 1"
       inkscape:vp_z="1396.0651 : 698.03125 : 1"
       inkscape:vp_y="0 : 1000 : 0"
       inkscape:vp_x="0 : 698.03125 : 1"
       sodipodi:type="inkscape:persp3d" /><inkscape:perspective
       id="perspective37556-9"
       inkscape:persp3d-origin="338.38562 : 225.59001 : 1"
       inkscape:vp_z="676.77124 : 338.38501 : 1"
       inkscape:vp_y="0 : 1000 : 0"
       inkscape:vp_x="0 : 338.38501 : 1"
       sodipodi:type="inkscape:persp3d" /><inkscape:perspective
       id="perspective16301-9"
       inkscape:persp3d-origin="338.38562 : 225.59001 : 1"
       inkscape:vp_z="676.77124 : 338.38501 : 1"
       inkscape:vp_y="0 : 1000 : 0"
       inkscape:vp_x="0 : 338.38501 : 1"
       sodipodi:type="inkscape:persp3d" /><inkscape:perspective
       id="perspective12409-1"
       inkscape:persp3d-origin="270.7085 : 180.47233 : 1"
       inkscape:vp_z="541.41699 : 270.7085 : 1"
       inkscape:vp_y="0 : 1000 : 0"
       inkscape:vp_x="0 : 270.7085 : 1"
       sodipodi:type="inkscape:persp3d" /><inkscape:perspective
       id="perspective9337-7"
       inkscape:persp3d-origin="0.5 : 0.33333333 : 1"
       inkscape:vp_z="1 : 0.5 : 1"
       inkscape:vp_y="0 : 1000 : 0"
       inkscape:vp_x="0 : 0.5 : 1"
       sodipodi:type="inkscape:persp3d" /><inkscape:perspective
       id="perspective8562-2"
       inkscape:persp3d-origin="0.5 : 0.33333333 : 1"
       inkscape:vp_z="1 : 0.5 : 1"
       inkscape:vp_y="0 : 1000 : 0"
       inkscape:vp_x="0 : 0.5 : 1"
       sodipodi:type="inkscape:persp3d" /><inkscape:perspective
       sodipodi:type="inkscape:persp3d"
       inkscape:vp_x="0 : 338.38501 : 1"
       inkscape:vp_y="0 : 1000 : 0"
       inkscape:vp_z="676.77124 : 338.38501 : 1"
       inkscape:persp3d-origin="338.38562 : 225.59001 : 1"
       id="perspective3083-3" /><inkscape:perspective
       sodipodi:type="inkscape:persp3d"
       inkscape:vp_x="0 : 270.7085 : 1"
       inkscape:vp_y="0 : 1000 : 0"
       inkscape:vp_z="541.41699 : 270.7085 : 1"
       inkscape:persp3d-origin="270.7085 : 180.47233 : 1"
       id="perspective23419-6" /><inkscape:perspective
       sodipodi:type="inkscape:persp3d"
       inkscape:vp_x="0 : 338.38501 : 1"
       inkscape:vp_y="0 : 1000 : 0"
       inkscape:vp_z="676.77124 : 338.38501 : 1"
       inkscape:persp3d-origin="338.38562 : 225.59001 : 1"
       id="perspective27913-5" /><inkscape:perspective
       id="perspective27913"
       inkscape:persp3d-origin="338.38562 : 225.59001 : 1"
       inkscape:vp_z="676.77124 : 338.38501 : 1"
       inkscape:vp_y="0 : 1000 : 0"
       inkscape:vp_x="0 : 338.38501 : 1"
       sodipodi:type="inkscape:persp3d" /><inkscape:perspective
       id="perspective23419"
       inkscape:persp3d-origin="270.7085 : 180.47233 : 1"
       inkscape:vp_z="541.41699 : 270.7085 : 1"
       inkscape:vp_y="0 : 1000 : 0"
       inkscape:vp_x="0 : 270.7085 : 1"
       sodipodi:type="inkscape:persp3d" /><inkscape:perspective
       id="perspective3083"
       inkscape:persp3d-origin="338.38562 : 225.59001 : 1"
       inkscape:vp_z="676.77124 : 338.38501 : 1"
       inkscape:vp_y="0 : 1000 : 0"
       inkscape:vp_x="0 : 338.38501 : 1"
       sodipodi:type="inkscape:persp3d" /><inkscape:perspective
       sodipodi:type="inkscape:persp3d"
       inkscape:vp_x="0 : 0.5 : 1"
       inkscape:vp_y="0 : 1000 : 0"
       inkscape:vp_z="1 : 0.5 : 1"
       inkscape:persp3d-origin="0.5 : 0.33333333 : 1"
       id="perspective8562" /><inkscape:perspective
       sodipodi:type="inkscape:persp3d"
       inkscape:vp_x="0 : 0.5 : 1"
       inkscape:vp_y="0 : 1000 : 0"
       inkscape:vp_z="1 : 0.5 : 1"
       inkscape:persp3d-origin="0.5 : 0.33333333 : 1"
       id="perspective9337" /><inkscape:perspective
       sodipodi:type="inkscape:persp3d"
       inkscape:vp_x="0 : 270.7085 : 1"
       inkscape:vp_y="0 : 1000 : 0"
       inkscape:vp_z="541.41699 : 270.7085 : 1"
       inkscape:persp3d-origin="270.7085 : 180.47233 : 1"
       id="perspective12409" /><inkscape:perspective
       sodipodi:type="inkscape:persp3d"
       inkscape:vp_x="0 : 338.38501 : 1"
       inkscape:vp_y="0 : 1000 : 0"
       inkscape:vp_z="676.77124 : 338.38501 : 1"
       inkscape:persp3d-origin="338.38562 : 225.59001 : 1"
       id="perspective16301" /><inkscape:perspective
       sodipodi:type="inkscape:persp3d"
       inkscape:vp_x="0 : 338.38501 : 1"
       inkscape:vp_y="0 : 1000 : 0"
       inkscape:vp_z="676.77124 : 338.38501 : 1"
       inkscape:persp3d-origin="338.38562 : 225.59001 : 1"
       id="perspective37556" /><inkscape:perspective
       sodipodi:type="inkscape:persp3d"
       inkscape:vp_x="0 : 270.70999 : 1"
       inkscape:vp_y="0 : 1000 : 0"
       inkscape:vp_z="541.41998 : 270.70999 : 1"
       inkscape:persp3d-origin="270.70999 : 180.47333 : 1"
       id="perspective51446" /><inkscape:perspective
       id="perspective37556-9-8"
       inkscape:persp3d-origin="338.38562 : 225.59001 : 1"
       inkscape:vp_z="676.77124 : 338.38501 : 1"
       inkscape:vp_y="0 : 1000 : 0"
       inkscape:vp_x="0 : 338.38501 : 1"
       sodipodi:type="inkscape:persp3d" /><inkscape:perspective
       id="perspective16301-9-1"
       inkscape:persp3d-origin="338.38562 : 225.59001 : 1"
       inkscape:vp_z="676.77124 : 338.38501 : 1"
       inkscape:vp_y="0 : 1000 : 0"
       inkscape:vp_x="0 : 338.38501 : 1"
       sodipodi:type="inkscape:persp3d" /><inkscape:perspective
       id="perspective12409-1-2"
       inkscape:persp3d-origin="270.7085 : 180.47233 : 1"
       inkscape:vp_z="541.41699 : 270.7085 : 1"
       inkscape:vp_y="0 : 1000 : 0"
       inkscape:vp_x="0 : 270.7085 : 1"
       sodipodi:type="inkscape:persp3d" /><inkscape:perspective
       id="perspective9337-7-0"
       inkscape:persp3d-origin="0.5 : 0.33333333 : 1"
       inkscape:vp_z="1 : 0.5 : 1"
       inkscape:vp_y="0 : 1000 : 0"
       inkscape:vp_x="0 : 0.5 : 1"
       sodipodi:type="inkscape:persp3d" /><inkscape:perspective
       id="perspective8562-2-5"
       inkscape:persp3d-origin="0.5 : 0.33333333 : 1"
       inkscape:vp_z="1 : 0.5 : 1"
       inkscape:vp_y="0 : 1000 : 0"
       inkscape:vp_x="0 : 0.5 : 1"
       sodipodi:type="inkscape:persp3d" /><inkscape:perspective
       sodipodi:type="inkscape:persp3d"
       inkscape:vp_x="0 : 338.38501 : 1"
       inkscape:vp_y="0 : 1000 : 0"
       inkscape:vp_z="676.77124 : 338.38501 : 1"
       inkscape:persp3d-origin="338.38562 : 225.59001 : 1"
       id="perspective3083-3-7" /><inkscape:perspective
       sodipodi:type="inkscape:persp3d"
       inkscape:vp_x="0 : 270.7085 : 1"
       inkscape:vp_y="0 : 1000 : 0"
       inkscape:vp_z="541.41699 : 270.7085 : 1"
       inkscape:persp3d-origin="270.7085 : 180.47233 : 1"
       id="perspective23419-6-3" /><inkscape:perspective
       sodipodi:type="inkscape:persp3d"
       inkscape:vp_x="0 : 338.38501 : 1"
       inkscape:vp_y="0 : 1000 : 0"
       inkscape:vp_z="676.77124 : 338.38501 : 1"
       inkscape:persp3d-origin="338.38562 : 225.59001 : 1"
       id="perspective27913-5-7" /><inkscape:perspective
       id="perspective27913-9"
       inkscape:persp3d-origin="338.38562 : 225.59001 : 1"
       inkscape:vp_z="676.77124 : 338.38501 : 1"
       inkscape:vp_y="0 : 1000 : 0"
       inkscape:vp_x="0 : 338.38501 : 1"
       sodipodi:type="inkscape:persp3d" /><inkscape:perspective
       id="perspective23419-3"
       inkscape:persp3d-origin="270.7085 : 180.47233 : 1"
       inkscape:vp_z="541.41699 : 270.7085 : 1"
       inkscape:vp_y="0 : 1000 : 0"
       inkscape:vp_x="0 : 270.7085 : 1"
       sodipodi:type="inkscape:persp3d" /><inkscape:perspective
       id="perspective3083-1"
       inkscape:persp3d-origin="338.38562 : 225.59001 : 1"
       inkscape:vp_z="676.77124 : 338.38501 : 1"
       inkscape:vp_y="0 : 1000 : 0"
       inkscape:vp_x="0 : 338.38501 : 1"
       sodipodi:type="inkscape:persp3d" /><inkscape:perspective
       sodipodi:type="inkscape:persp3d"
       inkscape:vp_x="0 : 0.5 : 1"
       inkscape:vp_y="0 : 1000 : 0"
       inkscape:vp_z="1 : 0.5 : 1"
       inkscape:persp3d-origin="0.5 : 0.33333333 : 1"
       id="perspective8562-25" /><inkscape:perspective
       sodipodi:type="inkscape:persp3d"
       inkscape:vp_x="0 : 0.5 : 1"
       inkscape:vp_y="0 : 1000 : 0"
       inkscape:vp_z="1 : 0.5 : 1"
       inkscape:persp3d-origin="0.5 : 0.33333333 : 1"
       id="perspective9337-6" /><inkscape:perspective
       sodipodi:type="inkscape:persp3d"
       inkscape:vp_x="0 : 270.7085 : 1"
       inkscape:vp_y="0 : 1000 : 0"
       inkscape:vp_z="541.41699 : 270.7085 : 1"
       inkscape:persp3d-origin="270.7085 : 180.47233 : 1"
       id="perspective12409-8" /><inkscape:perspective
       sodipodi:type="inkscape:persp3d"
       inkscape:vp_x="0 : 338.38501 : 1"
       inkscape:vp_y="0 : 1000 : 0"
       inkscape:vp_z="676.77124 : 338.38501 : 1"
       inkscape:persp3d-origin="338.38562 : 225.59001 : 1"
       id="perspective16301-5" /><inkscape:perspective
       sodipodi:type="inkscape:persp3d"
       inkscape:vp_x="0 : 338.38501 : 1"
       inkscape:vp_y="0 : 1000 : 0"
       inkscape:vp_z="676.77124 : 338.38501 : 1"
       inkscape:persp3d-origin="338.38562 : 225.59001 : 1"
       id="perspective37556-4" /><inkscape:perspective
       id="perspective37556-9-1"
       inkscape:persp3d-origin="338.38562 : 225.59001 : 1"
       inkscape:vp_z="676.77124 : 338.38501 : 1"
       inkscape:vp_y="0 : 1000 : 0"
       inkscape:vp_x="0 : 338.38501 : 1"
       sodipodi:type="inkscape:persp3d" /><inkscape:perspective
       id="perspective16301-9-3"
       inkscape:persp3d-origin="338.38562 : 225.59001 : 1"
       inkscape:vp_z="676.77124 : 338.38501 : 1"
       inkscape:vp_y="0 : 1000 : 0"
       inkscape:vp_x="0 : 338.38501 : 1"
       sodipodi:type="inkscape:persp3d" /><inkscape:perspective
       id="perspective12409-1-9"
       inkscape:persp3d-origin="270.7085 : 180.47233 : 1"
       inkscape:vp_z="541.41699 : 270.7085 : 1"
       inkscape:vp_y="0 : 1000 : 0"
       inkscape:vp_x="0 : 270.7085 : 1"
       sodipodi:type="inkscape:persp3d" /><inkscape:perspective
       id="perspective9337-7-1"
       inkscape:persp3d-origin="0.5 : 0.33333333 : 1"
       inkscape:vp_z="1 : 0.5 : 1"
       inkscape:vp_y="0 : 1000 : 0"
       inkscape:vp_x="0 : 0.5 : 1"
       sodipodi:type="inkscape:persp3d" /><inkscape:perspective
       id="perspective8562-2-7"
       inkscape:persp3d-origin="0.5 : 0.33333333 : 1"
       inkscape:vp_z="1 : 0.5 : 1"
       inkscape:vp_y="0 : 1000 : 0"
       inkscape:vp_x="0 : 0.5 : 1"
       sodipodi:type="inkscape:persp3d" /><inkscape:perspective
       sodipodi:type="inkscape:persp3d"
       inkscape:vp_x="0 : 338.38501 : 1"
       inkscape:vp_y="0 : 1000 : 0"
       inkscape:vp_z="676.77124 : 338.38501 : 1"
       inkscape:persp3d-origin="338.38562 : 225.59001 : 1"
       id="perspective3083-3-8" /><inkscape:perspective
       sodipodi:type="inkscape:persp3d"
       inkscape:vp_x="0 : 270.7085 : 1"
       inkscape:vp_y="0 : 1000 : 0"
       inkscape:vp_z="541.41699 : 270.7085 : 1"
       inkscape:persp3d-origin="270.7085 : 180.47233 : 1"
       id="perspective23419-6-8" /><inkscape:perspective
       sodipodi:type="inkscape:persp3d"
       inkscape:vp_x="0 : 338.38501 : 1"
       inkscape:vp_y="0 : 1000 : 0"
       inkscape:vp_z="676.77124 : 338.38501 : 1"
       inkscape:persp3d-origin="338.38562 : 225.59001 : 1"
       id="perspective27913-5-4" /><inkscape:perspective
       id="perspective27913-1"
       inkscape:persp3d-origin="338.38562 : 225.59001 : 1"
       inkscape:vp_z="676.77124 : 338.38501 : 1"
       inkscape:vp_y="0 : 1000 : 0"
       inkscape:vp_x="0 : 338.38501 : 1"
       sodipodi:type="inkscape:persp3d" /><inkscape:perspective
       id="perspective23419-9"
       inkscape:persp3d-origin="270.7085 : 180.47233 : 1"
       inkscape:vp_z="541.41699 : 270.7085 : 1"
       inkscape:vp_y="0 : 1000 : 0"
       inkscape:vp_x="0 : 270.7085 : 1"
       sodipodi:type="inkscape:persp3d" /><inkscape:perspective
       id="perspective3083-8"
       inkscape:persp3d-origin="338.38562 : 225.59001 : 1"
       inkscape:vp_z="676.77124 : 338.38501 : 1"
       inkscape:vp_y="0 : 1000 : 0"
       inkscape:vp_x="0 : 338.38501 : 1"
       sodipodi:type="inkscape:persp3d" /><inkscape:perspective
       sodipodi:type="inkscape:persp3d"
       inkscape:vp_x="0 : 0.5 : 1"
       inkscape:vp_y="0 : 1000 : 0"
       inkscape:vp_z="1 : 0.5 : 1"
       inkscape:persp3d-origin="0.5 : 0.33333333 : 1"
       id="perspective8562-6" /><inkscape:perspective
       sodipodi:type="inkscape:persp3d"
       inkscape:vp_x="0 : 0.5 : 1"
       inkscape:vp_y="0 : 1000 : 0"
       inkscape:vp_z="1 : 0.5 : 1"
       inkscape:persp3d-origin="0.5 : 0.33333333 : 1"
       id="perspective9337-2" /><inkscape:perspective
       sodipodi:type="inkscape:persp3d"
       inkscape:vp_x="0 : 270.7085 : 1"
       inkscape:vp_y="0 : 1000 : 0"
       inkscape:vp_z="541.41699 : 270.7085 : 1"
       inkscape:persp3d-origin="270.7085 : 180.47233 : 1"
       id="perspective12409-3" /><inkscape:perspective
       sodipodi:type="inkscape:persp3d"
       inkscape:vp_x="0 : 338.38501 : 1"
       inkscape:vp_y="0 : 1000 : 0"
       inkscape:vp_z="676.77124 : 338.38501 : 1"
       inkscape:persp3d-origin="338.38562 : 225.59001 : 1"
       id="perspective16301-56" /><inkscape:perspective
       sodipodi:type="inkscape:persp3d"
       inkscape:vp_x="0 : 338.38501 : 1"
       inkscape:vp_y="0 : 1000 : 0"
       inkscape:vp_z="676.77124 : 338.38501 : 1"
       inkscape:persp3d-origin="338.38562 : 225.59001 : 1"
       id="perspective37556-5" /><inkscape:perspective
       sodipodi:type="inkscape:persp3d"
       inkscape:vp_x="0 : 0.5 : 1"
       inkscape:vp_y="0 : 1000 : 0"
       inkscape:vp_z="1 : 0.5 : 1"
       inkscape:persp3d-origin="0.5 : 0.33333333 : 1"
       id="perspective10328" /><inkscape:perspective
       sodipodi:type="inkscape:persp3d"
       inkscape:vp_x="0 : 0.5 : 1"
       inkscape:vp_y="0 : 1000 : 0"
       inkscape:vp_z="1 : 0.5 : 1"
       inkscape:persp3d-origin="0.5 : 0.33333333 : 1"
       id="perspective11034" /><inkscape:perspective
       sodipodi:type="inkscape:persp3d"
       inkscape:vp_x="0 : 0.5 : 1"
       inkscape:vp_y="0 : 1000 : 0"
       inkscape:vp_z="1 : 0.5 : 1"
       inkscape:persp3d-origin="0.5 : 0.33333333 : 1"
       id="perspective3083-7" /><inkscape:perspective
       sodipodi:type="inkscape:persp3d"
       inkscape:vp_x="0 : 0.5 : 1"
       inkscape:vp_y="0 : 1000 : 0"
       inkscape:vp_z="1 : 0.5 : 1"
       inkscape:persp3d-origin="0.5 : 0.33333333 : 1"
       id="perspective2997" /></defs><sodipodi:namedview
     showguides="false"
     inkscape:document-rotation="0"
     inkscape:document-units="mm"
     inkscape:window-maximized="1"
     showgrid="false"
     inkscape:current-layer="layer10"
     inkscape:window-y="-8"
     inkscape:window-x="-8"
     inkscape:cy="2491.8801"
     inkscape:cx="3035.7829"
     inkscape:zoom="0.1767767"
     id="base"
     pagecolor="#ffffff"
     bordercolor="#666666"
     borderopacity="1.0"
     objecttolerance="10.0"
     gridtolerance="10.0"
     guidetolerance="10.0"
     inkscape:pageopacity="0.0"
     inkscape:pageshadow="2"
     inkscape:window-width="1920"
     inkscape:window-height="1017" /><g
     inkscape:label="Design Template"
     id="layer10"
     inkscape:groupmode="layer"><path
       d="m -190.03289,1344.4228 -0.003,0.012 c -3.10157,0 -6.01437,0.785 -8.55322,2.1694 -0.25388,0.1385 -0.50378,0.2834 -0.75,0.4336 -0.24545,0.1499 -0.48613,0.3046 -0.72364,0.4658 -0.0496,0.034 -0.0973,0.07 -0.14648,0.104 -0.18747,0.1301 -0.37446,0.2614 -0.55664,0.3985 -0.0103,0.01 -0.0205,0.016 -0.0308,0.023 -0.44499,0.336 -0.87485,0.6925 -1.28614,1.0679 h -0.002 c -0.073,0.067 -0.142,0.1373 -0.21387,0.2051 -0.14022,0.1323 -0.28158,0.2631 -0.41748,0.3999 -0.20239,0.2037 -0.39928,0.4122 -0.59179,0.6255 -0.18942,0.2097 -0.37422,0.4244 -0.55371,0.6431 -0.0549,0.067 -0.10575,0.1374 -0.15967,0.205 -0.12815,0.1608 -0.25816,0.3211 -0.38086,0.4864 -0.68657,0.925 -1.28665,1.9195 -1.78858,2.9707 -0.13863,0.2904 -0.26919,0.5844 -0.39258,0.8832 -0.0136,0.033 -0.0262,0.067 -0.0395,0.1 -0.10214,0.2516 -0.19901,0.506 -0.29004,0.7631 -0.0325,0.092 -0.0613,0.1859 -0.0923,0.2784 -0.0686,0.2045 -0.13482,0.4104 -0.19629,0.6181 -0.0346,0.1172 -0.0673,0.2351 -0.0996,0.353 -0.0486,0.1775 -0.0944,0.3552 -0.13769,0.5347 -0.035,0.1455 -0.0681,0.2912 -0.0996,0.438 -0.0329,0.153 -0.0632,0.307 -0.0923,0.4615 -0.0318,0.1695 -0.0623,0.3399 -0.0894,0.5112 -0.0229,0.1442 -0.0421,0.2896 -0.0615,0.4351 -0.0224,0.1677 -0.0451,0.3348 -0.063,0.5038 -0.0152,0.1438 -0.0263,0.2889 -0.0381,0.4337 -0.0155,0.1905 -0.0328,0.3806 -0.0425,0.5727 -1.2e-4,0 1.2e-4,0.011 0,0.011 -0.0152,0.3058 -0.0234,0.6132 -0.0234,0.9228 v 91.747 c 0.002,68.8927 0.005,137.3219 0.0103,205.1689 h -0.28711 v 143.7334 h 0.28271 c 0.004,120.1775 0.008,240.0359 -0.0103,363.2051 h 0.003 0.003 0.003 0.003 0.005 v 35.4639 c 0.16033,5.5995 2.5497,10.1787 6.31494,13.3827 3.49122,2.9709 8.16246,4.7536 13.31542,5.0934 h 411.89502 0.006 0.001 0.001 0.003 0.003 0.003 10e-4 0.0382 22.53077 c 79.28502,-0.7081 143.19893,-65.2397 143.24999,-144.5259 h 0.009 l -0.009,-0.012 c 0.003,3e-4 0.004,0 0.009,0 0.007,0 0.0132,0.012 0.0132,0.012 v -0.012 -0.019 -0.1831 c 9e-5,-1.4472 -9e-5,-3.0531 0,-4.2686 3e-4,-3.0645 0.002,-7.6362 0.003,-13.5234 7.5e-4,-11.7746 0.008,-28.81 0.0103,-49.5571 0.004,-37.6572 0.009,-89.3078 0.0132,-142.1895 h 0.77051 a 29.363068,29.363068 0 0 1 -0.13477,-2.8023 29.363068,29.363068 0 0 1 29.36279,-29.3628 29.363068,29.363068 0 0 1 29.3628,29.3628 29.363068,29.363068 0 0 1 -0.1333,2.8023 h 0.20507 c 0.0268,158.3744 0.0586,335.2088 0.0586,335.209 0.0819,10.2934 9.56345,18.464 19.87353,19.0825 h 2.66162 c 0.20001,-0.01 0.40201,-0.02 0.60058,-0.035 0.42989,-0.032 0.85626,-0.073 1.27881,-0.1245 0.22692,-0.028 0.45068,-0.062 0.6753,-0.095 0.34288,-0.052 0.68237,-0.1111 1.01953,-0.1758 0.31178,-0.06 0.62072,-0.1254 0.92725,-0.1963 0.29152,-0.068 0.58073,-0.141 0.86719,-0.2182 0.33417,-0.09 0.66487,-0.1878 0.99169,-0.2916 0.25662,-0.081 0.51136,-0.1653 0.76319,-0.2548 0.30066,-0.107 0.59861,-0.2199 0.89208,-0.3384 0.28176,-0.1136 0.56019,-0.232 0.83496,-0.356 0.24281,-0.1097 0.48217,-0.222 0.71925,-0.3398 0.32943,-0.1635 0.65337,-0.3339 0.97119,-0.5127 1.12659,-0.6342 2.17971,-1.3621 3.14208,-2.1811 1.69851,-1.4454 3.11584,-3.17 4.17774,-5.1417 0.004,-0.01 0.008,-0.013 0.0117,-0.019 0.0129,-0.024 0.0239,-0.05 0.0366,-0.073 0.12663,-0.2385 0.2487,-0.4809 0.36476,-0.7265 0.0421,-0.089 0.081,-0.1807 0.12158,-0.271 0.0842,-0.1865 0.16801,-0.3736 0.24608,-0.564 0.0591,-0.1447 0.11295,-0.2926 0.16846,-0.4394 0.0559,-0.1473 0.11191,-0.2945 0.16406,-0.4439 0.0573,-0.165 0.11133,-0.3319 0.16407,-0.4995 0.043,-0.1361 0.086,-0.2724 0.12597,-0.4102 0.056,-0.1943 0.10829,-0.3912 0.15821,-0.5889 0.029,-0.1141 0.0566,-0.2287 0.0835,-0.3442 0.0535,-0.2302 0.10285,-0.4625 0.14794,-0.6972 0.0143,-0.073 0.0291,-0.147 0.0424,-0.2213 0.0492,-0.2737 0.0927,-0.5507 0.13037,-0.8305 0.007,-0.049 0.0128,-0.097 0.019,-0.1465 0.0351,-0.2768 0.0643,-0.5569 0.0879,-0.8393 0.006,-0.069 0.011,-0.1385 0.0161,-0.2081 0.021,-0.2876 0.0365,-0.5769 0.0454,-0.87 7.5e-4,-0.047 0.004,-0.093 0.006,-0.1392 v -8.3775 l 0.002,-26.9692 h 0.003 0.002 0.003 0.003 c -0.0418,-272.6108 0.002,-529.8083 0.002,-803.8798 0,-0.011 -0.002,-0.023 -0.002,-0.032 -0.002,-0.4408 -0.0208,-0.877 -0.0527,-1.3096 -0.006,-0.081 -0.0121,-0.1623 -0.019,-0.2431 -0.0385,-0.4418 -0.0889,-0.8792 -0.1582,-1.3111 -0.009,-0.054 -0.0202,-0.1073 -0.0293,-0.1611 -0.0749,-0.4414 -0.16211,-0.8784 -0.26807,-1.3081 -0.002,-0.01 -0.002,-0.013 -0.005,-0.019 -6e-4,0 -0.002,-0.01 -0.003,-0.01 -0.11259,-0.4536 -0.24381,-0.8985 -0.38964,-1.3374 -0.009,-0.029 -0.0184,-0.057 -0.0278,-0.085 -0.60795,-1.8 -1.48915,-3.472 -2.5957,-4.9629 -0.17164,-0.2312 -0.34948,-0.4585 -0.53175,-0.6811 -0.18225,-0.2223 -0.36999,-0.4402 -0.5625,-0.6534 -0.19249,-0.2131 -0.3894,-0.4218 -0.59179,-0.6255 -0.1359,-0.1365 -0.27726,-0.2676 -0.41748,-0.3999 -0.0719,-0.068 -0.14083,-0.1385 -0.21387,-0.2051 -0.42029,-0.3837 -0.85997,-0.7474 -1.31543,-1.0898 -0.4596,-0.3454 -0.93577,-0.6692 -1.42822,-0.9697 -0.24622,-0.1502 -0.49611,-0.2951 -0.75,-0.4336 -2.53885,-1.3844 -5.45165,-2.1694 -8.55323,-2.1694 l -0.005,-0.012 h -0.0161 -331.80028 -331.79736 z m 77.93554,439.7227 h 0.002 v 0.022 c 8.19912,4e-4 14.845875,6.6485 14.846205,14.8477 l -0.003,0.016 h 0.003 0.003 c 6e-4,0 0.002,5e-4 0.003,0 h 0.003 0.003 0.003 0.001 0.0323 c 0.0206,8.1999 6.67065,14.8389 14.87256,14.8404 8.20281,-3e-4 14.85484,-6.6396 14.87548,-14.8404 h 0.0264 0.003 0.003 0.003 c 7.2e-4,-6e-4 4.8e-4,0 0.003,0 7.2e-4,-6e-4 0.002,-4e-4 0.003,0 h 0.006 v -0.025 c 3.3e-4,-8.1993 6.64707,-14.8457 14.84619,-14.8463 8.19914,6e-4 14.84588,6.647 14.8462,14.8463 v 0.025 h 0.006 c 6.1e-4,0 0.005,5e-4 0.005,0 h 0.006 0.001 0.003 0.0264 c 0.0206,8.1999 6.67357,14.8389 14.87548,14.8404 8.20281,-3e-4 14.85485,-6.6396 14.87549,-14.8404 h 0.0249 0.003 c 6.7e-4,2e-4 0.002,2e-4 0.003,0 h 0.001 c 7.2e-4,-6e-4 0.002,0 0.003,0 v -0.025 c 3.2e-4,-8.1993 6.64706,-14.8457 14.84619,-14.8463 8.20004,-6e-4 14.84881,6.6461 14.84912,14.8463 l -0.003,0.019 c 6.2e-4,0 0.002,6e-4 0.003,0 h 0.003 c 6.1e-4,0 0.002,6e-4 0.003,0 h 0.003 0.003 0.003 0.0278 c 0.0207,8.2008 6.67414,14.8416 14.87695,14.8419 8.20282,-3e-4 14.85484,-6.6411 14.87548,-14.8419 h 0.0249 0.003 0.005 c 7.2e-4,-3e-4 0.005,0 0.005,0 7.2e-4,-3e-4 0.002,-3e-4 0.003,0 h 0.002 v -0.022 c 3.1e-4,-8.1991 6.64707,-14.8457 14.84619,-14.8462 8.19912,5e-4 14.84442,6.6471 14.84473,14.8462 l -0.003,0.02 h 0.003 c 6.2e-4,7e-4 0.006,0 0.009,0 h 0.003 c 6.2e-4,7e-4 10e-4,0 0.005,0 h 0.003 0.003 0.001 0.003 0.0293 c 0.0207,8.1999 6.67211,14.8388 14.87402,14.8404 8.202805,-3e-4 14.856315,-6.6396 14.876955,-14.8404 h 0.0249 0.003 0.001 0.002 0.003 0.003 0.003 0.003 v -0.022 c 3.3e-4,-8.1993 6.64708,-14.8458 14.84619,-14.8462 8.19913,4e-4 14.84441,6.6469 14.84473,14.8462 v 0.022 c 6.1e-4,7e-4 0.002,4e-4 0.003,0 h 0.001 0.001 0.003 0.003 0.003 0.001 0.0293 c 0.0206,8.1997 6.67065,14.8388 14.87255,14.8404 8.20374,0 14.85925,-6.6387 14.87989,-14.8404 h 0.0234 0.001 0.003 0.003 c 7.2e-4,-5e-4 0.004,0 0.004,0 h 0.003 0.002 c 7.2e-4,-5e-4 0.005,-5e-4 0.006,0 v -0.022 c 3e-4,-8.2002 6.64762,-14.8471 14.84765,-14.8462 8.19914,4e-4 14.8444,6.6469 14.84473,14.8462 l -0.001,0.016 h 0.001 0.002 0.003 0.001 0.004 0.002 0.0308 c 0.0207,8.2 12.19491,12.9604 19.38135,9.0073 43.21709,-23.7723 78.44863,-5.8263 91.93358,39.6592 3.16671,10.6812 1.04337,25.715 -7.15576,25.7153 h -0.0234 c -7e-4,-2e-4 -0.002,-2e-4 -0.003,0 h -0.003 -0.003 -0.003 -0.003 c -7.2e-4,6e-4 -0.002,4e-4 -0.003,0 v 0.032 c -8.19963,0.021 -14.84009,6.6724 -14.8418,14.8741 3.1e-4,8.2027 6.64103,14.8535 14.8418,14.874 v 0.025 h 0.003 0.003 c 6.2e-4,6e-4 0.002,0 0.003,0 h 0.003 0.003 c 6e-4,0 0.002,5e-4 0.003,0 h 0.0234 c 8.19913,3e-4 14.84589,6.6471 14.84619,14.8462 7.5e-4,8.1994 -6.64558,14.8464 -14.84472,14.8477 h -0.022 -0.003 -0.003 -0.003 -0.003 -0.003 -0.006 c -7.2e-4,6e-4 -0.003,5e-4 -0.003,0 v 0.029 c -8.20083,0.021 -14.84153,6.674 -14.84179,14.8769 3e-4,8.2029 6.64099,14.8536 14.84179,14.874 v 0.022 h 0.003 0.006 c 6e-4,0 0.002,4e-4 0.003,0 h 0.003 c 6.6e-4,10e-5 0.002,10e-5 0.003,0 h 0.003 0.0234 c 8.20006,4e-4 14.84715,6.6506 14.84619,14.8506 -3.3e-4,8.1986 -6.6465,14.8432 -14.84472,14.8447 h -0.0234 -0.003 -0.003 -0.003 -0.003 -0.006 c -7.2e-4,6e-4 -0.005,0 -0.006,0 v 0.028 c -8.19985,0.021 -14.84021,6.6736 -14.8418,14.8755 3.2e-4,8.2027 6.64103,14.8536 14.8418,14.874 v 0.022 c 6.2e-4,6e-4 0.005,3e-4 0.006,0 h 0.006 c 6.1e-4,0 0.002,3e-4 0.003,0 h 0.003 0.003 0.003 0.0234 c 8.19915,3e-4 14.84589,6.6472 14.84619,14.8462 -3.1e-4,8.1993 -6.64706,14.8459 -14.84619,14.8462 h -0.0234 -0.003 c -6.7e-4,-2e-4 -0.002,-2e-4 -0.003,0 h -0.003 c -7.2e-4,6e-4 -0.002,0 -0.003,0 h -0.006 c -7.2e-4,6e-4 -0.005,4e-4 -0.006,0 v 0.028 c -8.19987,0.02 -14.84021,6.6709 -14.8418,14.8726 -7.5e-4,8.2038 6.64012,14.8577 14.8418,14.8784 v 0.023 h 0.006 0.006 c 6.7e-4,10e-5 0.002,10e-5 0.003,0 h 0.003 0.003 0.003 0.0234 c 7.749,0 14.1924,5.9651 14.79638,13.6904 h 0.003 0.003 0.003 0.006 0.001 0.0103 c 0.0685,0.9786 0.10427,1.9589 0.10548,2.9399 1.2e-4,23.6661 -19.18622,42.8511 -42.85254,42.8511 -0.40014,-0.015 -0.7987,-0.033 -1.19824,-0.06 h -0.003 c -0.2129,0.012 -0.4255,0.019 -0.63868,0.022 -8.19911,-3e-4 -14.84442,-6.6457 -14.84472,-14.8448 v -0.022 h -0.004 -0.002 -0.004 -0.004 -0.003 -0.003 -0.002 -0.0308 c -0.0219,-8.1987 -6.67158,-14.8356 -14.87256,-14.8374 -8.2019,3e-4 -14.85356,6.6375 -14.87549,14.8374 h -0.0293 -0.001 -0.003 -0.001 -0.003 -0.001 -0.003 -0.003 -10e-4 l 10e-4,0.019 c -3.1e-4,8.1991 -6.64559,14.8459 -14.84472,14.8462 -8.19912,-3e-4 -14.84443,-6.6471 -14.84473,-14.8462 v -0.022 h -0.003 -0.004 -0.003 -0.003 -10e-4 -0.001 -0.003 -0.001 -0.0293 c -0.0219,-8.1989 -6.67156,-14.8386 -14.87256,-14.8403 -8.20282,0 -14.85501,6.6395 -14.87695,14.8403 h -0.0278 -0.003 -0.002 -0.003 -0.003 -0.006 -0.003 -0.001 l 0.001,0.017 c -3.2e-4,8.1999 -6.64761,14.85 -14.84766,14.8491 -8.19914,-3e-4 -14.84441,-6.6501 -14.84472,-14.8491 v -0.022 h -0.001 -0.003 -0.001 -0.003 -0.001 -0.001 -0.003 -0.001 -0.0293 c -0.0219,-8.1989 -6.67158,-14.8359 -14.87256,-14.8374 -8.20191,3e-4 -14.85357,6.6375 -14.8755,14.8374 h -0.0293 -0.003 -0.003 -10e-4 -0.005 -0.003 -10e-4 -0.003 -0.003 l 0.003,0.019 c -3.2e-4,8.199 -6.64561,14.8459 -14.844725,14.8462 -8.19915,-3e-4 -14.84588,-6.6472 -14.8462,-14.8462 v -0.019 h -0.003 -0.003 -0.003 -0.005 -0.006 -0.0278 c -0.0219,-8.1987 -6.67301,-14.8356 -14.87402,-14.8374 -8.20188,3e-4 -14.85358,6.6375 -14.87549,14.8374 h -0.0278 -0.003 -0.003 -0.003 -0.004 -0.003 -0.003 v 0.016 c -3e-4,8.199 -6.64558,14.8459 -14.84473,14.8462 -8.20005,0 -14.84735,-6.6463 -14.84766,-14.8462 v -0.019 h -0.003 -0.003 -0.004 -0.005 -0.003 -0.0249 c -0.0219,-8.1999 -6.67505,-14.8371 -14.87695,-14.8374 -8.20191,3e-4 -14.85356,6.6375 -14.87549,14.8374 h -0.0278 -0.003 -0.006 -0.003 -0.003 -0.001 -0.005 l 0.007,0.019 h -0.003 c -3e-4,8.199 -6.64558,14.8443 -14.84473,14.8447 -8.19912,-4e-4 -14.84589,-6.6457 -14.84619,-14.8447 v -0.022 h -0.005 -0.003 -0.003 -0.003 -0.0278 c -0.0219,-8.1989 -6.67156,-14.8358 -14.87256,-14.8374 -8.20189,4e-4 -14.85501,6.6375 -14.87694,14.8374 h -0.0278 -0.001 -0.002 -0.007 -0.003 -0.003 -0.003 l 0.003,0.019 c -3e-4,8.199 -6.64707,14.8459 -14.84619,14.8462 -8.19914,-3e-4 -14.84443,-6.6472 -14.84472,-14.8462 v -0.019 h -0.003 -0.003 -0.003 -0.003 -0.002 -0.006 -0.003 -0.003 -0.0264 c -0.0219,-8.199 -6.673045,-14.8372 -14.874025,-14.8389 -8.20283,0 -14.85648,6.6381 -14.87841,14.8389 h -0.0249 -0.003 -0.003 -0.003 -0.005 -0.006 -0.003 -0.002 -0.003 l 0.003,0.017 c -0.002,7.7664 -5.98956,14.2188 -13.73438,14.8008 h -0.003 -0.003 -0.003 -0.006 -0.003 -0.003 v 0.01 c -0.97591,0.067 -1.95289,0.1019 -2.93115,0.1025 h -0.002 -0.003 c -23.66475,0 -42.84866,-19.1848 -42.8496,-42.8496 0.0164,-0.5582 0.0438,-1.1173 0.082,-1.6744 -0.002,-0.054 -0.004,-0.1088 -0.006,-0.1625 9e-5,-8.1992 6.64683,-14.8474 14.84619,-14.8477 h 0.022 0.002 0.003 0.0234 0.003 0.003 0.003 c 7.2e-4,-6e-4 0.002,0 0.003,0 v -0.023 c 8.19969,-0.022 14.83979,-6.6738 14.84033,-14.8755 -3e-4,-8.202 -6.64048,-14.855 -14.84033,-14.8769 v -0.025 c -6.8e-4,-3e-4 -0.002,-3e-4 -0.003,0 h -0.003 -0.003 -0.003 c -6.6e-4,-3e-4 -0.002,-3e-4 -0.003,0 h -0.0234 c -8.19912,-6e-4 -14.84588,-6.6469 -14.84619,-14.8462 3.1e-4,-8.199 6.64705,-14.8444 14.84619,-14.8447 h 0.022 0.002 0.003 0.003 0.003 10e-4 0.003 0.003 v -0.031 c 8.19879,-0.022 14.8385,-6.6732 14.84033,-14.874 -3.2e-4,-8.2019 -6.64046,-14.8521 -14.84033,-14.874 v -0.028 h -0.003 -0.003 -10e-4 -0.003 -0.002 -0.0234 c -8.19912,-3e-4 -14.84586,-6.6454 -14.84619,-14.8447 -7.5e-4,-8.1999 6.64614,-14.8473 14.84619,-14.8476 h 0.022 0.002 10e-4 0.003 c 6.6e-4,0 0.002,0 0.003,0 h 0.001 c 7.2e-4,-6e-4 0.002,-3e-4 0.003,0 h 0.003 v -0.029 c 8.19879,-0.022 14.8385,-6.6718 14.84033,-14.8726 7.5e-4,-8.2027 -6.63954,-14.8565 -14.84033,-14.8784 v -0.019 h -0.003 -0.003 -0.001 c -6e-4,-6e-4 -0.002,-6e-4 -0.003,0 h -0.003 -10e-4 -0.0234 c -8.20005,-3e-4 -14.84716,-6.6477 -14.84619,-14.8477 3.4e-4,-8.1992 6.64707,-14.8459 14.84619,-14.8462 h 0.022 0.002 0.006 0.003 c 7.2e-4,-6e-4 0.002,-4e-4 0.003,0 h 0.003 c 7.4e-4,-6e-4 0.002,-4e-4 0.003,0 v -0.029 c 8.19879,-0.022 14.8385,-6.6718 14.84033,-14.8726 -3e-4,-8.202 -6.64046,-14.855 -14.84033,-14.8769 v -0.019 c -6e-4,0 -0.002,-5e-4 -0.003,0 h -0.003 c -6.7e-4,-2e-4 -0.002,-2e-4 -0.003,0 h -0.003 -0.006 -0.0205 c -8.19912,-3e-4 -14.84588,-6.6469 -14.84619,-14.8462 0.006,-7.6923 5.88711,-14.1054 13.5498,-14.7774 1.05819,0.093 2.11947,0.1432 3.18164,0.1568 23.6836,2e-4 42.88198,-19.1984 42.88183,-42.8819 -0.007,-0.732 -0.0331,-1.4649 -0.0776,-2.1957 0.0925,-8.1304 6.7076,-14.6727 14.83886,-14.6763 z"
       style="opacity:1;fill:#ff00ff;fill-opacity:0.875;stroke:#000002;stroke-width:5.66929;stroke-miterlimit:4;stroke-dasharray:none;stroke-opacity:1"
       id="rect3771" /><path
       d="m -190.1684,243.04037 -0.003,0.0103 c -3.10158,0 -6.01437,0.78501 -8.55323,2.16943 -0.25388,0.13845 -0.50377,0.28337 -0.75,0.43359 -0.24545,0.14993 -0.48614,0.30458 -0.72363,0.46583 -0.0496,0.0338 -0.0973,0.0697 -0.14648,0.104 -0.18748,0.13005 -0.37446,0.26141 -0.55664,0.39844 -0.0103,0.007 -0.0205,0.016 -0.0308,0.0234 -0.44498,0.33592 -0.87485,0.6925 -1.28614,1.06787 0,0 -0.002,0 -0.002,0 -0.073,0.0668 -0.142,0.13727 -0.21386,0.20507 -0.14022,0.1323 -0.28159,0.26319 -0.41748,0.39991 -0.20239,0.2037 -0.39929,0.41227 -0.5918,0.62549 -0.18942,0.20978 -0.37421,0.42444 -0.55371,0.64306 -0.0549,0.0667 -0.10574,0.13735 -0.15967,0.20508 -0.12815,0.1608 -0.25816,0.32103 -0.38086,0.48633 -0.68657,0.92505 -1.28665,1.91936 -1.78857,2.97071 -0.42114,0.88216 -0.7731,1.8042 -1.04883,2.75976 -0.004,0.0141 -0.008,0.0283 -0.0117,0.0424 -0.0817,0.28581 -0.15474,0.57564 -0.22266,0.86718 -0.0122,0.0527 -0.0249,0.10528 -0.0366,0.15821 -0.0587,0.26282 -0.11094,0.5283 -0.15821,0.79541 -0.0111,0.0631 -0.0233,0.12569 -0.0337,0.18896 -0.0409,0.24609 -0.0746,0.49471 -0.10546,0.74415 -0.0115,0.0937 -0.0251,0.18705 -0.0352,0.28125 -0.0238,0.22017 -0.0397,0.4425 -0.0557,0.66504 -0.008,0.1119 -0.019,0.22296 -0.0249,0.33544 -0.012,0.22557 -0.0152,0.4534 -0.019,0.68116 -0.001,0.096 -0.007,0.19075 -0.007,0.28711 v 60.86132 c 0.002,83.40589 0.007,165.51126 0.0117,247.15575 0,0.004 0,0.007 0,0.0103 0.0148,8.79067 3.80792,18.1458 11.18408,25.52197 l 22.43848,22.43555 c 3.23134,3.26955 5.00118,7.70875 4.90722,12.30469 -0.088,4.32807 -1.82314,8.45991 -4.85156,11.55322 l -22.49414,22.4956 c -7.60947,7.61148 -11.40583,17.32844 -11.17383,26.3584 v 0.005 0.003 h -0.003 v 10e-4 l -0.001,0.003 v 0.001 h -0.002 -0.001 -0.004 l -0.002,0.003 c 0.003,105.92232 0.004,212.10597 -0.009,320.07135 v 55.0942 h 0.003 0.003 0.001 0.003 v 0.01 h 0.001 v 26.9619 l 10e-4,8.4639 c 0.15579,5.6078 2.54571,10.193 6.31494,13.4004 3.52232,2.9973 8.2442,4.7898 13.45166,5.1065 l 86.83008,0.01 h 324.92723 0.005 10e-4 0.002 0.003 0.003 0.003 0.003 0.001 0.0381 22.53077 c 79.28503,-0.7078 143.19895,-65.2383 143.24999,-144.52444 h 0.009 l -0.009,-0.009 c 0.003,3e-4 0.005,0 0.009,0 0.007,0 0.0132,0.009 0.0132,0.009 v -0.009 -0.0187 -0.18307 c 7e-5,-1.4472 -9e-5,-3.05303 0,-4.26855 2.9e-4,-3.0645 0.002,-7.63628 0.003,-13.52348 7.5e-4,-11.77455 0.005,-28.80997 0.008,-49.55714 0.004,-41.49405 0.009,-97.84178 0.0132,-156.6782 0.01,-117.67289 0.0194,-245.29881 0.019,-283.95702 v -0.003 -0.005 l -0.005,-0.002 -10e-4,-0.001 v -0.003 l -0.002,-0.002 -0.003,-0.003 h -0.002 l -0.001,-0.002 h -0.006 -0.001 -0.003 -0.003 v 0.002 l -0.0234,0.009 v -57.31641 -0.0176 -0.003 c -0.0129,-1.81983 -0.1041,-3.63859 -0.27246,-5.45068 -0.10002,-1.03047 -0.22498,-2.05765 -0.375,-3.08203 -0.13538,-1.08708 -0.29806,-2.1718 -0.48926,-3.25049 -0.20088,-1.00548 -0.4247,-2.00533 -0.67383,-3 -0.24371,-1.06876 -0.51596,-2.13126 -0.81445,-3.18603 -0.30393,-0.99639 -0.63202,-1.98447 -0.98438,-2.96485 -0.34251,-1.01795 -0.71101,-2.02563 -1.10449,-3.0249 v -0.005 c -0.40458,-0.96688 -0.83294,-1.92241 -1.28467,-2.86816 -0.44769,-0.99027 -0.92174,-1.968 -1.41943,-2.93409 -0.4851,-0.89579 -0.99011,-1.78128 -1.51758,-2.65283 -0.55436,-0.95888 -1.1323,-1.90282 -1.73584,-2.83154 h -0.003 c -0.57034,-0.83835 -1.16,-1.66246 -1.76954,-2.47265 -0.64806,-0.90116 -1.31847,-1.78672 -2.01269,-2.65283 -0.66177,-0.79002 -1.34264,-1.56334 -2.04199,-2.32032 -0.71661,-0.81022 -1.45356,-1.60034 -2.21046,-2.37305 v -10e-4 c -0.75184,-0.73631 -1.52273,-1.45369 -2.31005,-2.15185 -0.7922,-0.73153 -1.60194,-1.44237 -2.43018,-2.13282 -0.80676,-0.64503 -1.63114,-1.26992 -2.46826,-1.875 -0.872,-0.65801 -1.75987,-1.29486 -2.66455,-1.90722 -0.85982,-0.55623 -1.73059,-1.09129 -2.61621,-1.60547 -0.94131,-0.57324 -1.89989,-1.12133 -2.86963,-1.64502 -0.92114,-0.47274 -1.85189,-0.92325 -2.79492,-1.35058 -0.97477,-0.4665 -1.96323,-0.90786 -2.96045,-1.32423 -0.96408,-0.37841 -1.93659,-0.7354 -2.91797,-1.0664 -1.03404,-0.37387 -2.0769,-0.72012 -3.1289,-1.04004 -0.98619,-0.27706 -1.9782,-0.52956 -2.97657,-0.75879 -1.05723,-0.26556 -2.11952,-0.5038 -3.18896,-0.71485 -1.02594,-0.1815 -2.05721,-0.33774 -3.09082,-0.46875 -1.07173,-0.15786 -2.14718,-0.28949 -3.22559,-0.39257 -1.80124,-0.16666 -3.60958,-0.25508 -5.41846,-0.26807 h -0.0205 -57.22119 l 0.0103,-0.0249 0.002,-0.003 v -0.002 -0.006 -0.003 -0.003 -0.002 h -0.002 v -10e-4 -0.002 l -0.003,-0.003 h -0.003 v -0.003 -0.003 h -0.003 -0.005 v -10e-4 h -0.002 -10e-4 -271.6289014 -0.002 -0.003 -0.001 l -0.003,10e-4 h -0.001 l -10e-4,0.003 -0.003,0.003 -10e-4,0.003 v 0.002 10e-4 l -10e-4,0.002 v 0.003 0.003 0.006 0.002 c -25.8064796,0.0559 -51.8132596,0.0278 -77.6923796,0.0278 -0.008,0 -0.0145,0.004 -0.0175,0.006 l -0.001,0.003 -0.1626,-0.007 c -11.73626,2.5e-4 -21.250209,9.5157 -21.250479,21.25195 2.7e-4,11.73627 9.514219,21.24874 21.250479,21.24903 0.0541,-7.5e-4 0.11057,-0.001 0.16553,-0.006 2e-5,0 4.6e-4,7.5e-4 0.003,0.003 7.5e-4,5.6e-4 10e-4,-2.6e-4 0.004,0.002 7.5e-4,3.6e-4 0.005,0.002 0.006,0.003 7.5e-4,2.7e-4 0.005,0 0.005,0 116.20195,0.0101 239.581891,0.0526 344.781731,0.0513 l 0.002,0.003 c 0.002,7.5e-4 0.006,0.004 0.0132,0.005 h 0.001 l 0.12891,-0.006 c 44.59792,1.8e-4 80.75079,36.15309 80.75097,80.75098 -1.8e-4,44.5979 -36.15305,80.75077 -80.75097,80.75097 -0.0485,3e-5 -0.0965,4e-5 -0.14502,0 h -267.0673814 -0.001 -10e-4 -0.005 v 0.005 h -0.003 l -0.003,0.003 h -0.003 v 0.002 0.003 0.002 l -0.002,0.001 v 10e-4 0.003 0.003 10e-4 0.003 l 0.008,0.0249 H -81.044561 c -0.008,7e-5 -0.0145,0.002 -0.0175,0.005 -0.003,7.5e-4 -0.004,0.003 -0.003,0.003 l -0.15967,-0.008 h -10e-4 c -11.73629,2.8e-4 -21.250239,9.51569 -21.250489,21.25195 2.5e-4,11.73628 9.514199,21.24876 21.250489,21.24903 0.0544,-7.5e-4 0.11069,-0.003 0.16552,-0.006 h 10e-4 c 0.004,0.002 0.006,0.006 0.0132,0.006 h 77.6308596 l -0.005,0.0293 v 0.002 10e-4 0.003 l 10e-4,0.003 v 0.005 h 0.002 v 0.003 h 0.004 v 0.003 l 0.002,0.003 h 0.004 0.002 10e-4 267.1376814 c 0,0 0.0593,0.0179 0.0806,0.0439 h 0.003 v 10e-4 l 0.003,0.002 h 0.003 0.001 l 0.003,0.003 h 0.003 c 44.04067,0.75048 79.35631,36.65564 79.37695,80.70264 -0.0358,16.95404 -12.16977,32.95822 -15.36182,47.21191 l -8.52246,37.58349 c -1.5913,7.66873 -6.64705,14.84443 -14.84619,14.84473 h -0.0234 c -6.7e-4,-8e-5 -0.002,-8e-5 -0.003,0 h -0.002 -0.001 -0.005 -0.003 c -7.2e-4,6e-4 -0.002,4.5e-4 -0.003,0 v 0.0307 c -8.19965,0.021 -14.84008,6.6723 -14.8418,14.874 3.1e-4,8.20282 6.64103,14.85345 14.8418,14.87407 v 0.0263 h 0.003 c 6.2e-4,7.5e-4 0.002,0 0.003,0 6.1e-4,6.8e-4 0.004,0 0.005,0 h 0.001 0.002 c 6.1e-4,7.5e-4 0.002,4.5e-4 0.003,0 h 0.0234 c 8.19914,3.8e-4 14.84588,6.64703 14.84619,14.84625 7.5e-4,8.1993 -6.64558,14.84625 -14.84472,14.8476 h -0.022 -0.003 -10e-4 -0.003 -0.003 -0.003 -0.002 -10e-4 c -7.2e-4,6e-4 -0.002,4.5e-4 -0.003,0 v 0.0277 c -8.20083,0.021 -14.84153,6.6741 -14.84181,14.877 3.1e-4,8.20283 6.64101,14.85338 14.84181,14.874 v 0.0217 c 6e-4,6.8e-4 0.002,0 0.003,0 0,0 10e-4,0 10e-4,0 h 0.002 c 6e-4,6.8e-4 0.002,4.5e-4 0.003,0 h 0.003 c 6.6e-4,8e-5 0.002,8e-5 0.003,0 h 10e-4 0.0234 c 8.20005,3.8e-4 14.84717,6.65055 14.84619,14.8506 -3.2e-4,8.19848 -6.6465,14.84325 -14.84472,14.84475 h -0.0235 -0.003 -0.003 -0.002 -0.001 c -6.7e-4,-1.5e-4 -0.002,-1.5e-4 -0.003,0 h -0.001 c -7.2e-4,6e-4 -0.002,0 -0.003,0 v 0.0293 c -8.19986,0.021 -14.8402,6.67358 -14.84179,14.8755 3e-4,8.20275 6.64102,14.85338 14.84179,14.874 v 0.0263 c 6.1e-4,6.8e-4 0.002,4.5e-4 0.003,0 h 0.001 c 6.1e-4,7.5e-4 0.002,4.5e-4 0.003,0 h 0.001 0.002 0.003 0.003 0.0235 c 8.19913,3e-4 14.84587,6.64703 14.84619,14.84618 -3.3e-4,8.19914 -6.64707,14.84587 -14.84619,14.84617 h -0.0235 -0.003 c -6.8e-4,-8e-5 -0.002,-8e-5 -0.003,0 h -0.002 -0.001 c -7.2e-4,6e-4 -0.002,0 -0.003,0 h -0.001 c -7.2e-4,6e-4 -0.002,4.5e-4 -0.003,0 v 0.0277 c -8.19987,0.0203 -14.8402,6.67072 -14.84179,14.87257 -7.5e-4,8.2038 6.6401,14.8578 14.84179,14.87843 v 0.0232 c 6.1e-4,7.5e-4 0.002,0 0.003,0 h 0.001 c 6.7e-4,0 0.002,0 0.003,0 h 0.001 0.002 0.003 0.003 0.0235 c 7.74898,0 14.19242,5.96497 14.79638,13.69042 6.1e-4,6.8e-4 0.002,0 0.003,0 h 10e-4 0.003 10e-4 10e-4 0.003 10e-4 0.0103 c 0.0685,0.9786 0.10428,1.95893 0.10548,2.93993 1.2e-4,23.66617 -19.18623,42.85117 -42.85254,42.85107 -0.40014,-0.015 -0.79871,-0.033 -1.19825,-0.06 h -0.003 c -0.21289,0.012 -0.42549,0.019 -0.63867,0.022 -8.19913,-3e-4 -14.84442,-6.6456 -14.84473,-14.8447 v -0.023 h -0.003 -0.003 -0.003 -10e-4 -0.002 -0.003 -0.002 -0.0293 c -0.0219,-8.1989 -6.67158,-14.8358 -14.87256,-14.8374 -8.2019,3e-4 -14.85355,6.6375 -14.87548,14.8374 h -0.0293 -0.003 -0.002 -0.001 -0.003 -0.002 -0.002 -0.003 -0.003 l 0.003,0.02 c -3.1e-4,8.1991 -6.64559,14.8459 -14.84473,14.8462 -8.19912,-3e-4 -14.84587,-6.6471 -14.84619,-14.8462 v -0.022 h -0.003 -0.003 -0.002 -0.003 -0.003 -0.003 -0.003 -0.0293 c -0.0219,-8.199 -6.67157,-14.8372 -14.87256,-14.8389 -8.20283,0 -14.85501,6.6381 -14.87696,14.8389 h -0.0278 -10e-4 -0.003 -0.002 -0.002 -0.003 -0.002 -0.003 -0.001 l 0.001,0.02 c -3.1e-4,8.2001 -6.6476,14.8471 -14.84765,14.8462 -8.19914,-3e-4 -14.84442,-6.647 -14.84473,-14.8462 v -0.023 h -0.003 -0.001 -0.002 -0.003 -0.002 -0.002 -0.003 -0.001 -0.0293 c -0.0219,-8.199 -6.67157,-14.8359 -14.87256,-14.8374 -8.2019,3e-4 -14.85356,6.6375 -14.87549,14.8374 h -0.0293 -0.002 -0.003 -0.002 -0.003 -0.002 -0.003 -0.003 v 0.02 c -3.1e-4,8.1992 -6.64561,14.8458 -14.844731,14.8462 -8.19915,-4e-4 -14.84589,-6.647 -14.84619,-14.8462 v -0.022 h -0.002 -0.003 -0.003 -0.003 -0.002 -0.003 -0.002 -0.0278 c -0.0219,-8.1988 -6.67303,-14.8357 -14.87402,-14.8374 -8.20189,3e-4 -14.85357,6.6375 -14.87549,14.8374 h -0.0278 -0.003 -0.003 -0.002 -0.002 -0.005 -10e-4 -0.003 -0.002 l 0.002,0.019 c -3.2e-4,8.1991 -6.64558,14.8459 -14.84473,14.8462 -8.20005,0 -14.84735,-6.6462 -14.84766,-14.8462 v -0.022 h -0.003 -10e-4 -0.003 -0.001 -0.001 -0.003 -0.0249 c -0.0219,-8.1999 -6.67505,-14.8371 -14.8769604,-14.8374 -8.20191,3e-4 -14.85355,6.6375 -14.87548,14.8374 h -0.0278 -0.002 -0.003 -0.003 -0.003 -0.001 -0.002 -0.003 l 0.005,0.022 h -0.003 c -3.2e-4,8.1992 -6.6455796,14.8444 -14.8447196,14.8447 -8.19914,-3e-4 -14.84588,-6.6455 -14.84619,-14.8447 v -0.023 h -0.001 -0.003 -10e-4 -10e-4 -0.003 -10e-4 -0.003 -0.002 -0.0278 c -0.0219,-8.199 -6.67156,-14.8359 -14.87255,-14.8374 -8.20191,3e-4 -14.85505,6.6375 -14.87695,14.8374 h -0.0278 -0.002 -10e-4 -0.003 -0.002 -10e-4 -0.003 -0.002 -0.004 l 0.004,0.02 c -3e-4,8.1991 -6.64707,14.8459 -14.84619,14.8462 -8.19915,-3e-4 -14.84443,-6.6471 -14.84473,-14.8462 v -0.022 h -0.005 -0.003 -0.003 -0.003 -0.003 -0.003 -0.0264 c -0.0219,-8.199 -6.673019,-14.8387 -14.874019,-14.8403 -8.20281,0 -14.85649,6.6395 -14.87842,14.8403 h -0.0249 -0.005 -0.001 -0.003 -0.001 -0.002 -0.003 -0.001 -0.002 l 0.002,0.019 c -0.002,7.7666 -5.98956,14.2188 -13.73438,14.8008 h -0.001 -0.003 -0.001 -0.001 -0.003 -0.001 -0.003 v 0.011 c -0.97592,0.067 -1.95289,0.1004 -2.93114,0.101 h -10e-4 -0.003 c -23.66475,0 -42.84866,-19.1849 -42.84961,-42.84955 0.0164,-0.55822 0.0438,-1.11712 0.082,-1.6743 -0.002,-0.054 -0.005,-0.10882 -0.006,-0.1626 9e-5,-8.19907 6.64681,-14.84737 14.84619,-14.84767 h 0.022 0.001 10e-4 c 6.6e-4,7e-5 0.002,7e-5 0.003,0 h 0.001 0.002 0.003 0.001 c 7.2e-4,-6e-4 0.002,0 0.003,0 h 0.001 v -0.0277 c 8.19968,-0.0217 14.83979,-6.6738 14.84033,-14.8755 -3e-4,-8.20193 -6.64048,-14.85503 -14.84033,-14.87693 v -0.0248 c 0,0 -0.001,0 -0.001,0 -6.7e-4,-7e-5 -0.002,-7e-5 -0.003,0 h -0.001 -0.003 -0.002 -0.001 c -6.7e-4,-7e-5 -0.002,-7e-5 -0.003,0 h -10e-4 -0.0234 c -8.19912,-3.7e-4 -14.84587,-6.64702 -14.84619,-14.84617 3.1e-4,-8.19907 6.64706,-14.84445 14.84619,-14.84475 h 0.022 0.001 0.001 c 6.6e-4,8e-5 0.002,8e-5 0.003,0 h 0.001 0.003 c 0,0 0.001,0 0.001,0 h 10e-4 c 6.6e-4,8e-5 0.002,8e-5 0.003,0 0,0 0.001,0 0.001,0 v -0.0307 c 8.19878,-0.0217 14.83851,-6.6732 14.84033,-14.87407 -3.1e-4,-8.20185 -6.64048,-14.8521 -14.84033,-14.874 v -0.0277 h -0.001 c -6.1e-4,-7.5e-4 -0.002,0 -0.003,0 h -10e-4 -0.001 c -6.7e-4,-8e-5 -0.002,-8e-5 -0.003,0 h -0.001 c -6.7e-4,-8e-5 -0.002,-8e-5 -0.003,0 h -0.001 -0.0234 c -8.19912,-3.8e-4 -14.84587,-6.6456 -14.84619,-14.84475 -9.8e-4,-8.20005 6.64614,-14.84723 14.84619,-14.8476 h 0.022 0.001 0.002 0.003 0.002 c 6.6e-4,7e-5 0.002,7e-5 0.003,0 h 0.001 c 0,0 0.002,0 0.002,0 7.2e-4,-6e-4 0.002,-4.5e-4 0.003,0 h 0.001 v -0.0277 c 8.19878,-0.0217 14.83851,-6.67178 14.84033,-14.87258 9.7e-4,-8.20282 -6.63955,-14.85652 -14.84033,-14.87842 v -0.0232 c 0,0 -0.001,0 -0.001,0 -6.7e-4,-8e-5 -0.002,-8e-5 -0.003,0 h -0.002 -0.001 c -6.1e-4,-6.8e-4 -0.002,-4.5e-4 -0.003,0 h -0.002 c -6.7e-4,-8e-5 -0.002,-8e-5 -0.003,0 h -0.002 -0.0234 c -8.20004,-3e-4 -14.84717,-6.64755 -14.84619,-14.8476 3.2e-4,-8.19915 6.64707,-14.84595 14.84619,-14.84625 h 0.022 0.001 0.001 0.003 0.001 c 7.2e-4,-6e-4 0.002,-4.5e-4 0.003,0 h 0.001 10e-4 c 7.2e-4,-6e-4 0.002,-4.5e-4 0.003,0 h 0.001 v -0.0293 c 8.19877,-0.0217 14.8385,-6.67028 14.84033,-14.87108 -3e-4,-8.202 -6.64048,-14.85502 -14.84033,-14.877 v -0.0248 h -0.001 c -6.1e-4,-7.5e-4 -0.002,-4.5e-4 -0.003,0 h -10e-4 -0.001 c -6.7e-4,-7e-5 -0.002,-7e-5 -0.003,0 h -0.001 -0.003 -0.001 -0.0234 c -8.19912,-3e-4 -14.84587,-6.64702 -14.84619,-14.84617 0.006,-7.69228 5.88713,-14.10524 13.5498,-14.77734 1.05822,0.0925 2.11949,0.14448 3.18164,0.1582 23.68362,1.3e-4 42.88196,-19.1997 42.88184,-42.8833 -0.007,-0.73207 -0.0316,-1.46359 -0.0762,-2.19433 0.0925,-8.13047 6.70763,-14.67408 14.83887,-14.67774 v 0.0249 c 8.19914,3.2e-4 14.845859,6.64707 14.846189,14.84619 l -10e-4,0.0205 c -4e-5,6.6e-4 -4e-5,0.002 0,0.003 v 10e-4 c -4e-5,6.6e-4 -4e-5,0.002 0,0.003 v 10e-4 h 10e-4 v 10e-4 c -4e-5,6.6e-4 -4e-5,0.002 0,0.003 h 0.001 c 6.2e-4,7.2e-4 0.002,7.5e-4 0.003,10e-4 v 0.002 h 0.002 0.001 c -4e-5,6.7e-4 -4e-5,0.002 0,0.003 6.7e-4,3e-5 0.002,3e-5 0.003,0 h 0.003 0.0323 c 0.0206,8.19984 6.67065,14.8402 14.87256,14.8418 8.20281,-3.1e-4 14.85485,-6.64104 14.87549,-14.8418 h 0.0264 c 6.6e-4,3e-5 0.002,3e-5 0.003,0 h 0.003 c 6.6e-4,3e-5 0.002,3e-5 0.003,0 7.2e-4,-6.1e-4 -5.4e-4,-0.002 0,-0.003 l 0.003,-0.002 c 7.2e-4,-6.2e-4 0.002,-7.5e-4 0.003,-10e-4 h 0.002 c 3e-5,-6.8e-4 3e-5,-0.002 0,-0.003 v -10e-4 l 10e-4,-10e-4 c 4e-5,-6.7e-4 4e-5,-0.002 0,-0.003 v -10e-4 -0.0234 c 3.2e-4,-8.19912 6.64707,-14.84588 14.84619,-14.84619 8.19913,3.1e-4 14.84587,6.64706 14.84619,14.84619 v 0.0234 10e-4 c -4e-5,6.6e-4 -4e-5,0.002 0,0.003 v 10e-4 l 0.002,10e-4 c -3e-5,6.6e-4 -3e-5,0.002 0,0.003 h 0.001 v 10e-4 c 6.3e-4,7.2e-4 0.002,7.5e-4 0.003,0.002 h 0.002 c 6.3e-4,7.2e-4 0.002,0.002 0.003,0.003 h 0.001 c 6.9e-4,3e-5 0.002,3e-5 0.003,0 h 0.0264 c 0.0206,8.19984 6.67358,14.8402 14.87549,14.8418 8.20281,-3.1e-4 14.8548397,-6.64106 14.8754797,-14.8418 h 0.0249 0.001 c 6.7e-4,3e-5 0.002,3e-5 0.003,0 h 10e-4 c 7.2e-4,-6.1e-4 -5.4e-4,-0.002 0,-0.003 6.7e-4,4e-5 0.002,4e-5 0.003,0 l 10e-4,-0.002 10e-4,-10e-4 c 7.2e-4,-6.2e-4 0.002,-0.002 0.003,-0.003 v -10e-4 -10e-4 c 4e-5,-6.7e-4 4e-5,-0.002 0,-0.003 v -10e-4 -0.0234 c 3.199e-4,-8.19913 6.64706,-14.84588 14.84619,-14.84619 8.2000403,-7.5e-4 14.8488203,6.64616 14.8491203,14.84619 l -0.003,0.022 v 0.003 c -3e-5,6.6e-4 -3e-5,0.002 0,0.003 v 0.002 c 6.2e-4,7.2e-4 0.002,7.5e-4 0.003,0.001 -3e-5,6.6e-4 -3e-5,0.002 0,0.003 6.1e-4,7.2e-4 0.002,7.5e-4 0.003,0.001 h 0.003 c 6.1e-4,7.2e-4 7.5e-4,0.002 0.002,0.003 6.8e-4,3e-5 0.002,3e-5 0.003,0 h 0.001 0.002 0.0278 c 0.0207,8.20077 6.67412,14.8415 14.87695,14.8418 8.20281,-3.1e-4 14.85485,-6.64106 14.87549,-14.8418 h 0.0249 0.001 c 6.6e-4,3e-5 0.002,3e-5 0.003,0 h 10e-4 c 7.2e-4,-6e-4 0.002,-0.002 0.003,-0.003 h 0.003 v -0.001 c 7.2e-4,-6e-4 0.004,5.4e-4 0.005,0 7.2e-4,-6.1e-4 -5.4e-4,-0.002 0,-0.003 v -0.001 -0.002 c 3e-5,-6.6e-4 3e-5,-0.002 0,-0.003 v -0.003 -0.0234 c 3.1e-4,-8.19912 6.64707,-14.84587 14.84619,-14.84619 8.19913,3.2e-4 14.8444,6.64706 14.84472,14.84619 l -0.002,0.022 v 0.002 10e-4 c 6.2e-4,7.2e-4 -6e-5,0.002 0.002,0.003 v 0.003 c 6.1e-4,7.2e-4 0.002,0.002 0.003,0.003 l 0.003,10e-4 c 6.1e-4,7.2e-4 -5.3e-4,0.002 0,0.003 6.9e-4,3e-5 0.002,3e-5 0.003,0 l 0.003,0.003 c 6.9e-4,3e-5 0.002,3e-5 0.003,0 h 0.002 0.002 0.0307 c 0.0207,8.19984 6.67065,14.8402 14.87256,14.8418 8.202801,-3.1e-4 14.856311,-6.64106 14.876951,-14.8418 h 0.0249 0.003 c 6.8e-4,3e-5 0.002,3e-5 0.003,0 h 0.002 l 0.001,-0.003 c 6.8e-4,3e-5 0.002,3e-5 0.003,0 5e-5,-6.8e-4 5e-5,-0.002 0,-0.003 h 0.001 v -10e-4 c 6.8e-4,3e-5 0.002,3e-5 0.003,0 5e-5,-6.8e-4 5e-5,-0.002 0,-0.003 v -0.003 c 5e-5,-6.8e-4 5e-5,-0.002 0,-0.003 v -10e-4 -0.0234 c 3.3e-4,-8.19914 6.64707,-14.84588 14.84619,-14.8462 8.19914,3.2e-4 14.84442,6.64706 14.84473,14.8462 v 0.0234 10e-4 c -4e-5,6.6e-4 -4e-5,0.002 0,0.003 6.2e-4,7.2e-4 0.002,10e-4 0.003,0.003 6.1e-4,7.2e-4 10e-4,0.002 0.003,0.003 l 0.001,10e-4 c -4e-5,6.6e-4 -4e-5,0.002 0,0.003 6.7e-4,3e-5 0.002,3e-5 0.003,0 h 0.001 v 0.003 h 0.002 c 6.7e-4,3e-5 0.002,3e-5 0.003,0 h 0.003 0.0293 c 0.0206,8.19984 6.67066,14.8402 14.87256,14.8418 8.20373,7.5e-4 14.85924,-6.64013 14.87988,-14.8418 h 0.0234 0.002 c 6.7e-4,3e-5 0.002,3e-5 0.003,0 h 0.002 l 0.002,-0.003 c 7.2e-4,-6.2e-4 0.002,-0.002 0.003,-0.003 h 0.003 v -10e-4 h 0.002 c 4e-5,-6.8e-4 4e-5,-0.002 0,-0.003 7.2e-4,-6.2e-4 0.002,-0.001 0.003,-0.003 4e-5,-6.8e-4 4e-5,-0.002 0,-0.003 v -10e-4 -0.0234 c 3.2e-4,-8.20004 6.64761,-14.84717 14.84765,-14.8462 8.19913,3.2e-4 14.84441,6.64706 14.84473,14.8462 l -0.002,0.022 v 10e-4 0.002 c -4e-5,6.6e-4 -4e-5,0.002 0,0.003 v 0.002 h 0.002 c -3e-5,6.6e-4 -3e-5,0.002 0,0.003 6.1e-4,7.2e-4 0.002,0.002 0.003,0.003 h 0.002 c -3e-5,6.6e-4 -3e-5,0.004 0,0.005 h 0.001 c 6.8e-4,3e-5 0.002,3e-5 0.003,0 v 10e-4 h 0.002 c 6.8e-4,3e-5 0.004,3e-5 0.005,0 h 0.002 0.0307 c 0.0207,8.19984 6.67211,14.8402 14.87402,14.84181 8.20281,-3.2e-4 14.85632,-6.64107 14.87696,-14.84181 h 0.0249 0.003 c 6.7e-4,3e-5 0.002,3e-5 0.003,0 h 0.002 l 0.002,-10e-4 c 7.2e-4,-6.2e-4 0.002,-0.004 0.003,-0.005 h 0.001 0.002 v -0.003 c 4e-5,-6.7e-4 4e-5,-0.002 0,-0.003 7.2e-4,-6.2e-4 0.002,7e-5 0.003,-0.002 4e-5,-6.7e-4 4e-5,-0.002 0,-0.003 v -0.002 -0.0234 c 3.2e-4,-8.19913 6.65407,-15.21854 14.84473,-14.84619 21.03941,0.95646 0.001,1e-5 21.0205,1.32861 9.59284,0.60636 16.22798,-14.01414 10.9834,-24.18017 -2.70145,-4.74395 -8.02454,-8.54436 -14.49609,-8.81982 -0.0548,7.5e-4 -0.10803,0.003 -0.1626,0.006 -5.5e-4,-1.4e-4 -4.5e-4,-3e-5 -0.003,-0.002 -7.5e-4,-7.2e-4 -0.002,-0.002 -0.004,-0.003 -7.5e-4,-5.1e-4 -0.005,9e-5 -0.006,-0.002 -4.9e-4,-1.3e-4 -0.005,0 -0.006,0 h -77.63168 l 0.007,-0.0278 v -0.003 -0.003 -0.001 -0.003 l -0.002,-10e-4 v -0.001 h -0.003 v -0.006 l -0.003,-10e-4 -0.005,-10e-4 h -0.003 -0.005 -267.137681 c -0.0351,0 -0.061,-0.0187 -0.082,-0.0454 l -0.003,-0.003 -0.001,-0.002 h -0.001 l -0.005,-10e-4 h -0.001 -0.002 -0.001 c -44.033949,-0.76171 -79.345929,-36.66497 -79.366539,-80.71109 0.032,-44.03432 35.3359,-79.92549 79.363759,-80.68212 h 0.001 0.003 l 0.003,-0.003 h 0.003 v -10e-4 l 0.003,-0.002 v -0.002 h 0.003 v -0.003 c 0.0196,-0.0364 0.0493,-0.063 0.0908,-0.063 H 185.996 h 0.001 0.002 0.003 l 0.002,-0.002 0.003,-0.001 h 0.003 l 0.003,-0.003 0.001,-0.003 v -10e-4 l 0.002,-0.002 v -0.003 -0.002 -0.002 -0.003 -0.001 -0.002 l -0.009,-0.0278 h 77.7041 c 0.007,0 0.0115,-0.003 0.0146,-0.006 7.5e-4,-7.5e-4 0.003,-0.002 0.003,-0.003 l 0.15967,0.006 c 11.73627,-2.4e-4 21.25168,-9.51274 21.25195,-21.24902 -2.5e-4,-11.73625 -9.51567,-21.2517 -21.25195,-21.25195 -0.0544,7.5e-4 -0.10934,0.003 -0.16406,0.006 v -0.002 c -0.003,-7.5e-4 -0.0132,-0.003 -0.0132,-0.003 -115.066,-0.20628 -238.884601,-0.30053 -346.212891,-0.0483 -0.0339,0 -0.0623,-0.0197 -0.0835,-0.0455 h -0.001 v -10e-4 l -0.001,-0.002 h -0.002 -0.003 v -0.003 h -0.001 -0.002 -0.003 c -44.046789,-0.7004 -79.360049,-36.60371 -79.380669,-80.64982 0.0309,-44.04242 35.34666,-79.93848 79.382809,-80.68506 h 0.001 0.003 l 0.003,-0.003 0.001,-0.003 h 0.003 10e-4 c 0.0271,-0.0351 3.11168,-0.0615 0.10986,-0.0615 149.38625,2.4e-4 303.185201,6e-5 437.583981,0 5.7e-4,4.5e-4 4.5e-4,-7.5e-4 0.003,10e-4 7.5e-4,6.1e-4 0.005,0.005 0.005,0.005 l 0.007,0.002 h 0.002 c 0.0572,-0.004 0.11313,-0.005 0.17139,-0.009 50.44986,5.4e-4 91.55959,39.95429 93.43358,89.9458 -0.0401,135.78004 0.0967,724.27294 0.0967,724.27294 0.0818,10.2881 9.55358,18.4564 19.85742,19.0825 h 2.67773 c 0.20248,-0.01 0.40545,-0.022 0.60645,-0.037 0.42493,-0.032 0.84638,-0.072 1.26415,-0.1231 0.23664,-0.029 0.47047,-0.064 0.7046,-0.1 0.34908,-0.053 0.69543,-0.1109 1.03857,-0.1772 0.30622,-0.059 0.61001,-0.1248 0.91114,-0.1949 0.26285,-0.061 0.52347,-0.1272 0.78222,-0.1962 0.37546,-0.1005 0.7456,-0.2094 1.11182,-0.3267 0.22878,-0.073 0.45619,-0.1488 0.68115,-0.2286 0.34362,-0.1218 0.68239,-0.2528 1.0166,-0.3896 0.24684,-0.1009 0.49247,-0.203 0.73388,-0.312 0.25322,-0.1144 0.50448,-0.2328 0.75147,-0.3559 0.1872,-0.093 0.36877,-0.1933 0.55225,-0.2916 0.11487,-0.062 0.23232,-0.1196 0.3457,-0.183 1.14181,-0.6394 2.20782,-1.376 3.18164,-2.2047 1.94549,-1.6556 3.52503,-3.6777 4.62012,-6.0175 0.002,0 0.003,-0.01 0.005,-0.01 0.004,-0.01 0.007,-0.015 0.0103,-0.022 0.12824,-0.2753 0.24864,-0.5553 0.36327,-0.8393 0.0158,-0.039 0.0299,-0.079 0.0454,-0.1186 0.0973,-0.2464 0.18999,-0.4959 0.27686,-0.7486 0.0299,-0.087 0.0578,-0.1757 0.0864,-0.2636 0.0732,-0.2244 0.14314,-0.4506 0.20801,-0.6798 0.0261,-0.093 0.0499,-0.1863 0.0747,-0.2797 0.0556,-0.2089 0.10821,-0.4187 0.15674,-0.6314 0.0339,-0.1491 0.0649,-0.3001 0.0952,-0.4512 0.0341,-0.1689 0.067,-0.3385 0.0967,-0.5097 0.0275,-0.1597 0.0525,-0.3203 0.0762,-0.482 0.0258,-0.1754 0.0491,-0.3525 0.0703,-0.5302 0.0211,-0.1785 0.0408,-0.3582 0.0571,-0.5391 0.0137,-0.1497 0.0248,-0.3 0.0352,-0.4512 0.0145,-0.2137 0.0259,-0.4291 0.0337,-0.6459 0.005,-0.1212 0.008,-0.2428 0.0103,-0.3648 v -8.2691 l 0.002,-26.9692 h 0.003 0.002 0.003 c -0.0418,-272.61087 0.002,-529.80821 0.002,-803.87986 0,-0.0408 -0.003,-0.0808 -0.003,-0.12158 -0.003,-0.39645 -0.0204,-0.78941 -0.0483,-1.17921 -0.007,-0.10313 -0.0145,-0.20644 -0.0234,-0.30908 -0.0383,-0.43267 -0.0888,-0.86152 -0.15674,-1.28467 -0.009,-0.0584 -0.0209,-0.11614 -0.0308,-0.17431 -0.0711,-0.41714 -0.15453,-0.82969 -0.25342,-1.23633 -0.009,-0.0356 -0.016,-0.0715 -0.0249,-0.10694 -0.10928,-0.43779 -0.23616,-0.86923 -0.37646,-1.29345 -0.0144,-0.0436 -0.0293,-0.0869 -0.0439,-0.13037 -0.14624,-0.43111 -0.30493,-0.85599 -0.48193,-1.27149 -0.18171,-0.42654 -0.38058,-0.8438 -0.59327,-1.25244 -0.005,-0.0101 -0.009,-0.0207 -0.0146,-0.0308 -0.003,-0.006 -0.008,-0.0105 -0.0103,-0.0161 -0.21614,-0.4123 -0.44665,-0.81608 -0.69287,-1.2085 -2.1e-4,-3.4e-4 2.2e-4,-7.5e-4 0,-0.001 -0.2494,-0.39744 -0.5138,-0.78322 -0.79248,-1.15869 -0.17165,-0.23123 -0.34948,-0.4587 -0.53174,-0.68116 -0.18226,-0.22245 -0.36999,-0.44008 -0.5625,-0.65332 -0.19251,-0.21321 -0.3894,-0.42178 -0.5918,-0.62548 -0.1359,-0.13673 -0.27727,-0.26761 -0.41748,-0.39991 -0.0719,-0.0683 -0.14083,-0.1384 -0.21386,-0.20507 0,0 -0.002,0 -0.002,0 -0.42028,-0.38355 -0.85999,-0.74748 -1.31543,-1.08985 -0.45959,-0.34545 -0.93577,-0.6692 -1.42822,-0.96973 -0.24622,-0.15022 -0.49612,-0.29514 -0.75,-0.43359 -2.53885,-1.38442 -5.45165,-2.16943 -8.55323,-2.16943 l -0.003,-0.0103 h -0.0192 -331.79735 -331.79736 z"
       style="color:#000000;font-style:normal;font-variant:normal;font-weight:normal;font-stretch:normal;font-size:medium;line-height:normal;font-family:sans-serif;text-indent:0;text-align:start;text-decoration:none;text-decoration-line:none;text-decoration-style:solid;text-decoration-color:#000000;letter-spacing:normal;word-spacing:normal;text-transform:none;writing-mode:lr-tb;direction:ltr;baseline-shift:baseline;text-anchor:start;white-space:normal;clip-rule:nonzero;display:inline;overflow:visible;visibility:visible;opacity:1;isolation:auto;mix-blend-mode:normal;color-interpolation:sRGB;color-interpolation-filters:linearRGB;solid-color:#000000;solid-opacity:1;fill:#ff00ff;fill-opacity:1;fill-rule:nonzero;stroke:#000002;stroke-width:5.66929;stroke-linecap:butt;stroke-linejoin:miter;stroke-miterlimit:4;stroke-dasharray:none;stroke-dashoffset:0;stroke-opacity:1;color-rendering:auto;image-rendering:auto;shape-rendering:auto;text-rendering:auto;enable-background:accumulate"
       id="path6473" /><path
       d="m 915.55228,243.04487 v 0.0103 c -3.1015,0 -6.0144,0.78501 -8.5533,2.16943 -0.2538,0.13845 -0.5037,0.28336 -0.75,0.43359 -0.2454,0.14992 -0.48611,0.30457 -0.7236,0.46582 -0.05,0.0337 -0.097,0.0697 -0.14641,0.104 -0.1875,0.13005 -0.3746,0.26289 -0.5567,0.39991 -0.01,0.008 -0.02,0.0145 -0.031,0.022 -0.44509,0.33593 -0.875,0.6925 -1.2862,1.06787 -0.073,0.0668 -0.142,0.13728 -0.2138,0.20508 -0.1403,0.1323 -0.2817,0.26318 -0.4176,0.3999 -0.2023,0.2037 -0.3993,0.41227 -0.5917,0.62549 -0.18949,0.20978 -0.37429,0.42445 -0.5537,0.64307 -0.055,0.0668 -0.1057,0.13734 -0.1597,0.20508 -0.1281,0.1608 -0.2582,0.32102 -0.3809,0.48632 -0.6866,0.92505 -1.2867,1.91935 -1.7886,2.9707 -1.1292,2.36565 -1.7607,5.02017 -1.7607,7.82959 v 29.94287 c 0,94.36426 0.01,186.20741 0.013,278.06103 10e-5,0.47518 0,0.96329 0,1.43848 0.4042,8.36137 4.1774,17.10325 11.15041,24.07617 l 22.4399,22.43701 c 3.2315,3.26954 5.0012,7.70875 4.9073,12.30469 -0.088,4.32807 -1.8232,8.45991 -4.8516,11.55322 l -22.4956,22.4956 c -7.057,7.05701 -10.8272,15.92486 -11.1533,24.37793 0.01,124.8107 0.01,249.26338 -0.01,377.16788 v 26.9693 8.4448 c 0.1509,5.6163 2.5428,10.2083 6.3163,13.4195 3.5191,2.9944 8.2354,4.7857 13.437,5.1049 h 411.75152 0.037 22.5307 c 79.2849,-0.7078 143.1989,-65.2381 143.25,-144.52436 h 0.011 l -0.011,-0.009 c 0,3e-4 5e-4,0 0.011,0 0.01,0 0.014,0.009 0.014,0.009 v -0.009 -0.0187 -0.18315 c 0,-1.4472 -1e-4,-3.05302 0,-4.26855 2e-4,-3.0645 5e-4,-7.6362 0,-13.5234 0,-11.77455 3e-4,-28.81004 0.011,-49.55714 0,-41.49405 0.011,-97.84185 0.015,-156.67823 0.01,-117.67284 0.019,-245.29878 0.019,-283.957 v -0.003 -10e-4 -0.003 -0.003 -0.003 -0.002 -0.003 l -0.023,0.0103 v -57.31788 -0.0176 -0.003 c -0.013,-1.81984 -0.1041,-3.63713 -0.2725,-5.44922 -0.1,-1.03047 -0.2249,-2.05912 -0.375,-3.0835 -0.1353,-1.08708 -0.2981,-2.17032 -0.4892,-3.24902 -0.201,-1.00548 -0.4263,-2.00533 -0.6753,-3 -0.2438,-1.06876 -0.5145,-2.13124 -0.813,-3.18603 -0.3039,-0.99637 -0.6319,-1.98593 -0.9844,-2.96631 -0.3425,-1.01795 -0.711,-2.02562 -1.1045,-3.0249 v -0.003 c -0.4045,-0.96687 -0.8329,-1.92241 -1.2847,-2.86816 -0.4476,-0.99028 -0.9217,-1.96946 -1.4194,-2.93555 -0.4851,-0.89579 -0.9916,-1.78129 -1.519,-2.65283 -0.5544,-0.95888 -1.1323,-1.90282 -1.7359,-2.83154 -0.5703,-0.83835 -1.16,-1.66098 -1.7696,-2.47119 -0.648,-0.90116 -1.3184,-1.78673 -2.0126,-2.65283 -0.6618,-0.79002 -1.3426,-1.56335 -2.042,-2.32032 -0.7166,-0.81023 -1.455,-1.6018 -2.2119,-2.37451 v -0.003 c -0.7518,-0.7363 -1.5213,-1.4537 -2.3086,-2.15186 -0.7923,-0.73153 -1.6019,-1.44237 -2.4302,-2.13281 -0.8067,-0.64504 -1.6312,-1.26991 -2.4683,-1.875 -0.872,-0.65802 -1.7599,-1.29488 -2.6645,-1.90723 -0.8598,-0.55623 -1.7306,-1.09126 -2.6162,-1.60546 -0.9413,-0.57324 -1.9,-1.12131 -2.8697,-1.64502 -0.9212,-0.47274 -1.8519,-0.92179 -2.7948,-1.34912 -0.9749,-0.4665 -1.9633,-0.90933 -2.9605,-1.32569 -0.9641,-0.37842 -1.9366,-0.73393 -2.918,-1.06494 -1.034,-0.37387 -2.0769,-0.72158 -3.1289,-1.0415 -0.9862,-0.27705 -1.9782,-0.52955 -2.9766,-0.75879 -1.0572,-0.26556 -2.1209,-0.50381 -3.1904,-0.71484 -1.0258,-0.1815 -2.0558,-0.33774 -3.0893,-0.46875 -1.0717,-0.15786 -2.1472,-0.28804 -3.2256,-0.39112 -1.8012,-0.16666 -3.6098,-0.25654 -5.4185,-0.26953 h -0.02 -57.2213 l 0.01,-0.0249 v -0.003 -0.003 -0.002 -0.002 -0.003 -0.003 -0.003 -0.003 -0.003 -0.002 -0.003 -0.003 h -271.6291 v 0.003 0.003 0.002 0.003 0.003 0.003 0.003 0.003 0.002 0.002 0.003 0.003 c -25.8065,0.0559 -51.8133,0.0278 -77.6924,0.0278 -0.01,0 -0.014,0.004 -0.017,0.006 v 10e-4 l -0.1626,-0.007 c -11.7363,2.6e-4 -21.2488,9.51571 -21.2491,21.25195 3e-4,11.73627 9.5128,21.24875 21.2491,21.24902 0.054,-0.002 0.1106,-0.001 0.1655,-0.005 v 0.002 c 7e-4,5.5e-4 0,7.5e-4 0,0.003 7e-4,3.6e-4 0,0.004 0,0.005 116.202,0.0102 239.5819,0.0512 344.7817,0.0498 v 0.002 c 0,7.5e-4 0.01,0.005 0.015,0.006 l 0.1274,-0.006 c 44.5979,1.9e-4 80.7522,36.15309 80.7524,80.75098 -2e-4,44.59791 -36.1545,80.75079 -80.7524,80.75098 -0.048,3e-5 -0.097,3e-5 -0.1451,0 h -267.0705 v 0.003 0.003 0.001 0.003 0.003 10e-4 0.002 0.005 0.003 0.003 0.003 l 0.01,0.0264 h -77.7026 c -0.01,7e-5 -0.014,10e-4 -0.017,0.005 v 0.003 l -0.1597,-0.007 c -11.7363,2.7e-4 -21.2503,9.5142 -21.2505,21.25048 2e-4,11.73627 9.5142,21.25022 21.2505,21.25049 0.054,-7.5e-4 0.1108,-0.003 0.1655,-0.006 0,0.002 0.01,0.006 0.014,0.006 h 77.6309 v 0.0278 0.003 10e-4 0.003 0.003 10e-4 0.003 10e-4 0.003 0.003 0.003 h 267.1377 c 0,0 0.061,0.0179 0.082,0.0439 v 0.003 0.003 c 44.0407,0.75048 79.3549,36.65562 79.3755,80.70263 -0.036,16.95402 -12.1684,32.95821 -15.3604,47.21191 -2.3177,10.34926 -8.9243,17.58131 -16.4985,20.85791 -1.8826,1.02368 -4.0054,1.64322 -6.2578,1.76659 -0.8417,0.11618 -1.6847,0.19058 -2.5239,0.20948 h -0.2022 c -7.3079,0.9456 -12.953,7.188 -12.9521,14.75099 0,8.20193 6.6419,14.85195 14.8418,14.87258 v 0.0278 h 0.022 c 8.1991,3e-4 14.8457,6.64702 14.8462,14.84617 -5e-4,8.19908 -6.6471,14.84438 -14.8462,14.84475 h -0.022 v 0.0263 c -8.2008,0.0202 -14.8415,6.67118 -14.8418,14.87408 0,8.20185 6.6419,14.85472 14.8418,14.87542 v 0.0292 h 0.022 c 8.1982,0 14.8444,6.6477 14.8447,14.84618 0,8.19997 -6.646,14.84887 -14.8462,14.84917 h -0.023 v 0.0233 c -8.2008,0.0203 -14.8415,6.67268 -14.8418,14.8755 3e-4,8.20283 6.641,14.85623 14.8418,14.87693 v 0.0277 h 0.023 c 8.1991,0 14.8442,6.6483 14.8433,14.84767 -4e-4,8.19915 -6.6456,14.84588 -14.8447,14.84618 h -0.023 v 0.0263 c -8.2008,0.021 -14.8416,6.67117 -14.8419,14.874 0,8.20169 6.6423,14.85322 14.8419,14.87399 v 0.0308 h 0.023 c 8.1991,3e-4 14.8443,6.64703 14.8447,14.84618 -0.01,7.83645 -6.1091,14.31585 -13.9307,14.7993 -0.9639,-0.066 -1.9283,-0.10155 -2.8945,-0.10253 -23.6836,-1.5e-4 -42.8835,19.20113 -42.8833,42.8848 0.015,0.9777 0.063,1.9538 0.1451,2.9282 -0.5169,7.8002 -6.994,13.8647 -14.8111,13.8647 -8.1993,-3e-4 -14.8459,-6.6456 -14.8462,-14.8447 v -0.022 h -0.025 c -0.021,-8.2006 -6.6741,-14.8414 -14.877,-14.8417 -8.2018,0 -14.8515,6.642 -14.8725,14.8417 h -0.031 v 0.022 c -5e-4,8.1991 -6.647,14.8459 -14.8462,14.8462 -8.2,0 -14.8473,-6.6462 -14.8476,-14.8462 v -0.023 h -0.023 c -0.021,-8.2017 -6.6747,-14.8418 -14.8784,-14.8418 -8.202,0 -14.8516,6.642 -14.8726,14.8418 h -0.029 v 0.023 c -3e-4,8.1991 -6.6471,14.8459 -14.8462,14.8462 -8.1992,-3e-4 -14.8457,-6.6471 -14.8463,-14.8462 v -0.023 h -0.025 c -0.02,-8.2007 -6.6741,-14.8415 -14.8769,-14.8418 -8.202,0 -14.8516,6.642 -14.8726,14.8418 h -0.029 v 0.022 c -3e-4,8.1991 -6.6441,14.8459 -14.8432,14.8462 -8.1992,-3e-4 -14.8458,-6.6471 -14.8462,-14.8462 v -0.022 h -0.026 c -0.02,-8.2007 -6.6728,-14.8415 -14.8755,-14.8418 -8.2029,3e-4 -14.856,6.641 -14.877,14.8418 h -0.025 v 0.022 c -3e-4,8.2 -6.6505,14.8457 -14.8506,14.8447 -8.1991,-3e-4 -14.8444,-6.6456 -14.8447,-14.8447 v -0.023 h -0.025 c -0.021,-8.2006 -6.6727,-14.8414 -14.8755,-14.8417 -8.2019,0 -14.8545,6.642 -14.8755,14.8417 h -0.026 v 0.023 c -3e-4,8.1991 -6.6471,14.8444 -14.8462,14.8447 -8.1991,-3e-4 -14.8444,-6.6456 -14.8447,-14.8447 v -0.023 h -0.028 c -0.021,-8.2008 -6.6713,-14.8414 -14.8741,-14.8417 -8.2019,0 -14.853,6.642 -14.874,14.8417 h -0.031 v 0.022 c -3e-4,8.1991 -6.6471,14.8459 -14.84612,14.8462 l 0.031,0.04 c -8.1313,0 -14.7459,-6.5473 -14.8389,-14.6777 0.044,-0.7308 0.066,-1.4637 0.076,-2.1959 10e-5,-23.68355 -19.1981,-42.8819 -42.8818,-42.88175 -1.0621,0.0135 -2.1236,0.066 -3.1817,0.15818 -7.6628,-0.67215 -13.5398,-7.08495 -13.5498,-14.77733 3e-4,-8.19907 6.6471,-14.84595 14.8462,-14.84625 h 0.022 v -0.0247 c 8.1999,-0.0217 14.8386,-6.6735 14.8389,-14.87542 0,-8.2008 -6.64001,-14.85217 -14.8389,-14.87407 v -0.0293 l -0.022,0.008 c -8.1991,-3e-4 -14.8443,-6.64553 -14.8447,-14.84468 0,-8.19997 6.6447,-14.84737 14.8447,-14.84767 h 0.023 v -0.0232 c 8.2008,-0.0217 14.8404,-6.6756 14.8404,-14.87843 0,-8.2008 -6.6416,-14.8521 -14.8404,-14.874 v -0.0263 h -0.022 c -8.2001,-3e-4 -14.8472,-6.6477 -14.8462,-14.84767 4e-4,-8.19915 6.647,-14.8458 14.8462,-14.84618 h 0.023 v -0.0263 c 8.1999,-0.0217 14.84009,-6.67357 14.8404,-14.8755 0,-8.2008 -6.6417,-14.85067 -14.8404,-14.87257 v -0.0308 h -0.022 c -8.1991,-3e-4 -14.8444,-6.6471 -14.84471,-14.84618 3e-4,-8.19915 6.64571,-14.84445 14.84471,-14.84475 h 0.022 v -0.0263 c 8.1999,-0.0217 14.84009,-6.675 14.8404,-14.877 -6.1e-4,-8.20169 -6.6406,-14.85209 -14.8404,-14.87399 v -0.0277 h -0.022 c -8.1993,-3e-4 -14.8462,-6.64855 -14.8462,-14.84766 0.01,-0.0537 0.012,-0.1086 0.012,-0.1626 -0.038,-0.5572 -0.066,-1.11602 -0.082,-1.67432 0,-23.66471 19.1848,-42.84871 42.8496,-42.84961 0.9783,6e-4 1.9566,0.034 2.93261,0.10107 v 0.0103 c 7.7448,0.582 13.7344,7.03418 13.7344,14.80078 v 0.022 h 0.025 c 0.022,8.2008 6.6757,14.8374 14.8785,14.8374 8.20101,-7.5e-4 14.85061,-6.6384 14.87251,-14.8374 h 0.028 v -0.0234 c 3e-4,-8.19909 6.6455,-14.8459 14.8447,-14.8462 8.1991,3e-4 14.8459,6.64711 14.8462,14.8462 v 0.022 h 0.028 c 0.022,8.1999 6.6735,14.83857 14.8755,14.83887 8.201,-7.5e-4 14.852,-6.63996 14.874,-14.83887 h 0.026 v -0.0234 c 3e-4,-8.19909 6.647,-14.84589 14.8462,-14.84619 8.1991,3e-4 14.8459,6.6471 14.8462,14.84619 v 0.0205 h 0.026 c 0.022,8.1999 6.6735,14.8371 14.8755,14.8374 8.2018,-3e-4 14.855,-6.6375 14.8769,-14.8374 h 0.025 v -0.022 c 3e-4,-8.19999 6.6475,-14.84573 14.8477,-14.84473 8.199,3e-4 14.8443,6.64564 14.8446,14.84473 v 0.022 h 0.028 c 0.022,8.1999 6.6736,14.8371 14.8754,14.8374 8.201,-7.5e-4 14.852,-6.6385 14.8741,-14.8374 h 0.028 v -0.0234 c 3e-4,-8.1991 6.6456,-14.84589 14.8447,-14.84619 8.1992,3e-4 14.846,6.64709 14.8463,14.84619 v 0.0205 h 0.029 c 0.022,8.1999 6.6722,14.8371 14.8741,14.8374 8.2009,-0.002 14.852,-6.6385 14.874,-14.8374 h 0.029 v -0.022 c 3e-4,-8.1991 6.6457,-14.84589 14.8447,-14.84619 8.2002,-7.5e-4 14.8474,6.64619 14.8477,14.84619 v 0.0205 h 0.028 c 0.022,8.2008 6.6742,14.8374 14.877,14.8374 8.201,-7.5e-4 14.8506,-6.63849 14.8725,-14.8374 h 0.028 v -0.0234 c 3e-4,-8.19909 6.647,-14.84589 14.8462,-14.84619 8.199,3e-4 14.8444,6.6471 14.8447,14.84619 v 0.0205 h 0.029 c 0.022,8.1999 6.6735,14.83857 14.8755,14.83887 8.2009,-7.5e-4 14.8505,-6.63998 14.8725,-14.83887 h 0.029 v -0.022 c 10e-5,-3.70989 1.37,-7.09354 3.6196,-9.69579 0.8403,-1.40394 1.755,-2.70423 2.6939,-3.8379 6.54,-7.044 16.2265,-14.01267 10.9819,-24.17871 -2.7015,-4.74395 -8.023,-8.54581 -14.4946,-8.82128 -0.055,7.5e-4 -0.108,0.005 -0.1626,0.008 -6e-4,-1.2e-4 -7e-4,-5.4e-4 0,-0.003 -7e-4,-7.2e-4 0,-0.002 0,-0.003 v -0.002 h -77.6338 l 0.01,-0.0263 v -0.005 -0.003 -10e-4 -0.003 -0.003 -0.002 -0.003 -0.005 -0.002 h -267.1376 c -0.035,0 -0.061,-0.0187 -0.082,-0.0454 v -0.003 -0.003 -0.002 c -44.03911,-0.76491 -79.35191,-36.66825 -79.37251,-80.71436 0.032,-44.0343 35.3358,-79.92548 79.36381,-80.68212 v -0.003 -10e-4 -0.003 -0.003 -0.003 c 0.02,-0.0364 0.049,-0.063 0.091,-0.063 h 268.4985 v -0.002 -10e-4 -0.003 -0.003 -0.002 -0.003 -0.003 -0.003 -0.003 -0.003 -10e-4 l -0.011,-0.0264 h 77.7026 c 0.01,0 0.012,-0.003 0.016,-0.006 v -0.003 l 0.1612,0.006 c 11.7363,-2.6e-4 21.2516,-9.51274 21.2519,-21.24902 -2e-4,-11.73627 -9.5156,-21.25171 -21.2519,-21.25196 -0.054,7.5e-4 -0.1094,0.002 -0.1641,0.005 v -0.002 c 0,-7.5e-4 -0.015,-0.003 -0.015,-0.003 -115.066,-0.20628 -238.8846,-0.30051 -346.2129,-0.0483 -0.034,0 -0.062,-0.0195 -0.083,-0.0455 v -10e-4 -0.005 -0.003 c -44.03451,-0.7075 -79.34611,-36.61111 -79.36671,-80.65722 0.031,-44.0424 35.3467,-79.93701 79.38281,-80.68359 v -0.002 -0.003 -0.003 c 0.027,-0.0351 3.1102,-0.0601 0.1084,-0.0601 149.3862,2.4e-4 303.1867,6e-5 437.5855,0 v 0.002 0.003 l 0.011,0.003 c 0.057,-0.004 0.1131,-0.005 0.1714,-0.007 50.4498,5.4e-4 91.5582,39.95282 93.4321,89.94433 -0.04,135.78005 0.098,724.27442 0.098,724.27442 0.081,10.2198 9.4283,18.3452 19.6523,19.0664 h 3.104 c 5.2078,-0.3166 9.9292,-2.1089 13.4517,-5.1064 3.7735,-3.2111 6.1655,-7.8031 6.3164,-13.4194 v -8.4449 -26.9692 c -0.025,-163.20949 -0.023,-322.38776 -0.014,-481.27592 v -14.57519 -0.0366 c 0.01,-91.08053 0.012,-182.18239 0.014,-275.72021 v -32.24707 c 0,-4.05803 -1.3181,-7.79392 -3.5493,-10.80029 -0.1718,-0.23123 -0.3494,-0.4587 -0.5318,-0.68115 -0.1821,-0.22245 -0.3699,-0.4401 -0.5625,-0.65332 -0.1925,-0.21323 -0.3894,-0.42179 -0.5918,-0.62549 -0.1359,-0.13672 -0.2771,-0.2676 -0.4174,-0.3999 -0.072,-0.0683 -0.1409,-0.1384 -0.2139,-0.20508 -0.4203,-0.38355 -0.8599,-0.74748 -1.3155,-1.08984 -0.4596,-0.34545 -0.9357,-0.66921 -1.4282,-0.96973 -0.2461,-0.15023 -0.496,-0.29515 -0.75,-0.4336 -2.5387,-1.38442 -5.4516,-2.16943 -8.5532,-2.16943 v -0.0103 h -0.017 -331.7988 z"
       style="color:#000000;font-style:normal;font-variant:normal;font-weight:normal;font-stretch:normal;font-size:medium;line-height:normal;font-family:sans-serif;text-indent:0;text-align:start;text-decoration:none;text-decoration-line:none;text-decoration-style:solid;text-decoration-color:#000000;letter-spacing:normal;word-spacing:normal;text-transform:none;writing-mode:lr-tb;direction:ltr;baseline-shift:baseline;text-anchor:start;white-space:normal;clip-rule:nonzero;display:inline;overflow:visible;visibility:visible;opacity:1;isolation:auto;mix-blend-mode:normal;color-interpolation:sRGB;color-interpolation-filters:linearRGB;solid-color:#000000;solid-opacity:1;fill:#00ffff;fill-opacity:1;fill-rule:nonzero;stroke:#000002;stroke-width:5.66929;stroke-linecap:butt;stroke-linejoin:miter;stroke-miterlimit:4;stroke-dasharray:none;stroke-dashoffset:0;stroke-opacity:1;color-rendering:auto;image-rendering:auto;shape-rendering:auto;text-rendering:auto;enable-background:accumulate"
       id="path3736" /><path
       d="m 915.56413,1344.4133 -0.012,0.017 v 0.011 c -3.10155,0 -6.0144,0.785 -8.55323,2.1694 -0.25387,0.1386 -0.50377,0.2835 -0.75,0.4336 -0.24547,0.1499 -0.48615,0.3047 -0.72367,0.4658 -0.0495,0.034 -0.0972,0.071 -0.14648,0.1055 -0.18742,0.13 -0.3744,0.2599 -0.55665,0.397 -0.0105,0.01 -0.0202,0.016 -0.0307,0.023 -0.44497,0.3359 -0.8748,0.6926 -1.2861,1.0679 -0.0728,0.067 -0.14205,0.1373 -0.2139,0.2051 -0.14025,0.1323 -0.28155,0.2632 -0.41745,0.3999 -0.20235,0.2037 -0.3993,0.4124 -0.59182,0.6255 -0.18945,0.2099 -0.37425,0.4244 -0.55373,0.643 -0.0547,0.067 -0.10567,0.1374 -0.1596,0.2052 -0.12817,0.1608 -0.25822,0.321 -0.38092,0.4863 -0.68655,0.9249 -1.28655,1.9194 -1.78853,2.9706 -1.12935,2.3658 -1.76077,5.0202 -1.76077,7.8297 v 29.9428 c 0,94.3643 0.007,186.2074 0.012,278.0611 1.5e-4,0.4548 0,0.9221 0,1.3769 0.072,1.5362 0.26077,3.0844 0.55957,4.6333 v 107.814 c -0.31342,1.6433 -0.50362,3.288 -0.5625,4.916 0.008,124.792 0.0105,249.2257 -0.0105,377.1108 v 26.9692 8.4449 c 0.1509,5.6164 2.5428,10.2082 6.31635,13.4194 3.42945,2.9182 7.9998,4.6829 13.04445,5.0669 h 412.13535 0.038 22.5308 c 79.2849,-0.7079 143.199,-65.2381 143.25,-144.5244 h 0.01 l -0.01,-0.012 c 0,3e-4 0,0 0.01,0 0.01,0 0.016,0.012 0.016,0.012 v -0.012 -0.019 -0.1831 -4.2686 c 3e-4,-3.0645 6e-4,-7.6362 0,-13.5234 0,-11.7744 0,-28.81 0.016,-49.5571 0,-37.6508 0.011,-89.2939 0.015,-142.166 h 0.5771 a 29.363068,29.363068 0 0 1 -0.1347,-2.8023 29.363068,29.363068 0 0 1 29.3628,-29.3628 29.363068,29.363068 0 0 1 29.3628,29.3628 29.363068,29.363068 0 0 1 -0.1333,2.8023 h 0.4423 c 0.03,173.6446 0.067,335.2309 0.067,335.2309 0.081,10.1867 9.3678,18.2937 19.5528,19.0606 h 3.205 c 5.2079,-0.3166 9.9291,-2.1089 13.4517,-5.1065 3.7736,-3.2112 6.1656,-7.8031 6.3164,-13.4194 v -8.4448 -26.9692 c -0.025,-163.2096 -0.023,-322.3878 -0.014,-481.2759 v -14.5752 -0.037 c 0.01,-91.0806 0.011,-182.1824 0.014,-275.7202 v -32.2471 c 0,-4.0579 -1.3179,-7.7938 -3.5493,-10.8003 -0.1716,-0.2311 -0.3495,-0.4587 -0.5317,-0.6811 -0.1823,-0.2225 -0.3701,-0.4401 -0.5625,-0.6534 -0.1925,-0.2131 -0.3894,-0.4217 -0.5918,-0.6254 -0.1359,-0.1367 -0.2774,-0.2676 -0.4176,-0.3999 -0.072,-0.068 -0.1407,-0.1383 -0.2138,-0.2051 -0.4203,-0.3835 -0.8599,-0.7475 -1.3154,-1.0898 -0.4596,-0.3456 -0.9359,-0.6692 -1.4282,-0.9698 -0.2463,-0.1501 -0.4962,-0.295 -0.75,-0.4336 -0.3174,-0.1731 -0.6411,-0.3367 -0.9698,-0.4907 -0.3129,-0.1465 -0.6312,-0.2829 -0.9536,-0.4116 -0.033,-0.013 -0.067,-0.026 -0.1,-0.038 -0.3113,-0.1221 -0.6266,-0.2367 -0.9463,-0.3414 -0.012,-0.01 -0.023,-0.011 -0.035,-0.015 -0.01,0 -0.01,-3e-4 -0.015,-0.01 -0.6819,-0.2213 -1.3822,-0.4017 -2.0977,-0.5405 -0.042,-0.01 -0.084,-0.015 -0.1259,-0.022 -0.3041,-0.057 -0.6108,-0.1053 -0.92,-0.1465 -0.068,-0.01 -0.1356,-0.016 -0.2036,-0.025 -0.3387,-0.041 -0.6809,-0.076 -1.0254,-0.098 0,-2e-4 -0.011,0 -0.011,0 -0.3805,-0.024 -0.7633,-0.037 -1.15,-0.037 v -0.011 l -110.6015,-0.01 h -221.2026 z m 46.35352,439.7607 c 0.9783,6e-4 1.95675,0.031 2.93265,0.098 v 0.016 c 7.7448,0.582 13.73438,7.0342 13.73438,14.8008 v 0.019 h 0.0247 c 0.0218,8.2008 6.67545,14.8374 14.87835,14.8374 8.20097,0 14.85067,-6.6384 14.87257,-14.8374 h 0.028 v -0.019 c 3e-4,-8.1991 6.6455,-14.8459 14.8447,-14.8462 8.1991,3e-4 14.8459,6.6471 14.8462,14.8462 v 0.015 h 0.028 c 0.022,8.1999 6.6735,14.8385 14.8755,14.8388 8.201,0 14.852,-6.6401 14.8741,-14.8388 h 0.023 v -0.016 c 3e-4,-8.1993 6.647,-14.8461 14.8462,-14.8462 8.1991,10e-5 14.8458,6.6469 14.8461,14.8462 v 0.016 h 0.026 c 0.022,8.1999 6.6737,14.8371 14.8755,14.8374 8.202,-3e-4 14.855,-6.6375 14.8769,-14.8374 h 0.019 v -0.018 c 3e-4,-8.2 6.6477,-14.8458 14.8476,-14.8447 8.1991,10e-5 14.8443,6.6456 14.8448,14.8447 v 0.016 h 0.029 c 0.022,8.1999 6.6739,14.8371 14.8756,14.8374 8.2011,0 14.8521,-6.6385 14.874,-14.8374 h 0.028 v -0.017 c 3e-4,-8.1992 6.6428,-14.8462 14.8418,-14.8462 8.1993,0 14.8459,6.647 14.8461,14.8462 v 0.014 h 0.028 c 0.022,8.1999 6.6705,14.8371 14.8725,14.8374 8.201,0 14.8534,-6.6385 14.8756,-14.8374 h 0.028 v -0.016 c 2e-4,-8.199 6.647,-14.8473 14.8461,-14.8476 8.2002,0 14.8472,6.6477 14.8477,14.8476 v 0.015 h 0.026 c 0.022,8.2009 6.674,14.8374 14.8769,14.8374 8.2009,0 14.8507,-6.6385 14.8726,-14.8374 h 0.029 v -0.02 c 2e-4,-8.1991 6.6455,-14.8474 14.8448,-14.8477 8.199,3e-4 14.8458,6.6486 14.8461,14.8477 v 0.017 h 0.029 c 0.022,8.1999 6.6736,14.84 14.8755,14.8403 8.2009,0 14.8507,-6.6414 14.8726,-14.8403 h 0.029 v -0.022 c 2e-4,-2.0858 0.4473,-4.0609 1.2261,-5.8594 2.436,-3.8214 6.5679,-6.4737 11.395,-6.8364 v -0.015 c 0.976,-0.066 1.9543,-0.098 2.9326,-0.098 23.6646,0 42.8496,19.1835 42.8496,42.8481 -0.016,0.5583 -0.044,1.1175 -0.082,1.6744 0,0.054 0,0.1086 0.01,0.1626 0,3.37 -1.1358,6.468 -3.0278,8.9604 -1.1677,0.7398 -2.3716,1.3884 -3.605,1.9219 -1.8825,1.0238 -4.0054,1.6431 -6.2579,1.7666 -0.8415,0.1161 -1.6847,0.1906 -2.5238,0.2095 h -0.2022 c -7.3078,0.9456 -12.9531,7.188 -12.9522,14.751 0,8.2018 6.642,14.852 14.8419,14.8725 v 0.028 h 0.022 c 8.1992,3e-4 14.8458,6.6471 14.8461,14.8463 -5e-4,8.1991 -6.6469,14.8443 -14.8461,14.8447 h -0.022 v 0.026 c -8.2009,0.02 -14.8416,6.6713 -14.8419,14.874 0,8.202 6.642,14.8548 14.8419,14.8755 v 0.028 h 0.022 c 8.1983,0 14.8442,6.6477 14.8447,14.8461 0,8.1999 -6.646,14.8489 -14.8462,14.8492 h -0.022 v 0.019 c -8.2008,0.02 -14.8415,6.6727 -14.8418,14.8754 3e-4,8.2029 6.641,14.8563 14.8418,14.877 v 0.028 h 0.022 c 8.1992,0 14.8439,6.6482 14.8433,14.8477 -3e-4,8.199 -6.6457,14.8459 -14.8447,14.8462 h -0.022 v 0.026 c -8.2008,0.021 -14.8415,6.6712 -14.8418,14.8741 0,8.2017 6.642,14.8532 14.8418,14.874 v 0.031 h 0.022 c 8.199,3e-4 14.8443,6.6471 14.8447,14.8461 -0.01,7.8366 -6.1091,14.3159 -13.9307,14.7994 -0.9639,-0.066 -1.9282,-0.1017 -2.8945,-0.1026 -23.6835,-1e-4 -42.8836,19.2013 -42.8833,42.8848 0.015,0.9777 0.063,1.9538 0.145,2.9282 -0.5169,7.8002 -6.9939,13.8648 -14.811,13.8648 -8.1993,-3e-4 -14.8459,-6.6457 -14.8462,-14.8447 v -0.022 h -0.025 c -0.021,-8.2008 -6.674,-14.8415 -14.8769,-14.8418 -8.2017,0 -14.8516,6.6419 -14.8726,14.8418 h -0.032 v 0.022 c -4e-4,8.199 -6.647,14.8458 -14.8462,14.8461 -8.1999,0 -14.8474,-6.6462 -14.8477,-14.8461 v -0.023 h -0.022 c -0.021,-8.2017 -6.6746,-14.8417 -14.8784,-14.8417 -8.2018,0 -14.8515,6.6418 -14.8726,14.8417 h -0.028 v 0.023 c -3e-4,8.199 -6.6469,14.8458 -14.8461,14.8461 -8.1991,-3e-4 -14.8459,-6.6471 -14.8462,-14.8461 v -0.023 h -0.026 c -0.02,-8.2008 -6.6741,-14.8414 -14.8769,-14.8417 -8.2019,0 -14.8516,6.6418 -14.8726,14.8417 h -0.028 v 0.017 c -3e-4,8.199 -6.6456,14.8488 -14.8448,14.8491 -8.1991,-3e-4 -14.8457,-6.6501 -14.8461,-14.8491 v -0.017 h -0.017 c -0.02,-8.2008 -6.6726,-14.8414 -14.8755,-14.8417 -8.2026,3e-4 -14.8559,6.6409 -14.8769,14.8417 h -0.026 v 0.017 c -3e-4,8.1999 -6.6507,14.847 -14.8506,14.8461 -8.1993,-3e-4 -14.8444,-6.6471 -14.8447,-14.8461 v -0.017 h -0.025 c -0.021,-8.2008 -6.6726,-14.8414 -14.8755,-14.8417 -8.2017,0 -14.8545,6.6418 -14.8755,14.8417 h -0.025 v 0.017 c -3e-4,8.199 -6.6471,14.8458 -14.8461,14.8461 -8.1993,-3e-4 -14.8445,-6.6471 -14.8448,-14.8461 v -0.017 h -0.026 c -0.021,-8.2008 -6.6714,-14.8414 -14.874,-14.8417 -8.202,0 -14.853,6.6418 -14.874,14.8417 h -0.032 v 0.017 c -3e-4,8.199 -6.6486,14.8458 -14.84767,14.8461 l 0.0308,0.044 c -8.1312,0 -14.7444,-6.5474 -14.8374,-14.6777 0.0443,-0.7308 0.066,-1.4639 0.0762,-2.1959 2.2e-4,-23.6835 -19.19828,-42.8819 -42.88185,-42.8818 -1.06223,0.014 -2.1234,0.066 -3.18165,0.1582 -7.66268,-0.6722 -13.53968,-7.085 -13.5498,-14.7773 3e-4,-8.1992 6.6471,-14.846 14.84625,-14.8462 h 0.0217 v -0.025 c 8.1999,-0.022 14.83852,-6.6737 14.83882,-14.8755 0,-8.2008 -6.64005,-14.8536 -14.83882,-14.8755 v -0.028 l -0.0203,0.013 c -8.19923,-3e-4 -14.8443,-6.6456 -14.84475,-14.8446 0,-8.2002 6.64462,-14.8474 14.84475,-14.8477 h 0.0233 v -0.023 c 8.2008,-0.022 14.84032,-6.6755 14.84032,-14.8784 0,-8.2008 -6.64147,-14.8522 -14.84032,-14.8741 v -0.025 h -0.0203 c -8.20005,-3e-4 -14.84708,-6.6476 -14.84618,-14.8476 4.5e-4,-8.1992 6.64703,-14.8457 14.84618,-14.8463 h 0.0217 v -0.026 c 8.1999,-0.022 14.84002,-6.6736 14.84032,-14.8755 0,-8.2008 -6.64162,-14.8507 -14.84032,-14.8726 v -0.031 h -0.0188 c -8.19923,-3e-4 -14.84738,-6.6471 -14.84768,-14.8462 3e-4,-8.1992 6.6486,-14.8445 14.84768,-14.8448 h 0.0188 v -0.026 c 8.1999,-0.022 14.84002,-6.6751 14.84032,-14.877 -6e-4,-8.2017 -6.64065,-14.8521 -14.84032,-14.874 v -0.025 h -0.0188 c -8.1993,-3e-4 -14.84753,-6.6501 -14.84768,-14.8491 0.01,-0.054 0.012,-0.1086 0.012,-0.1626 -0.0383,-0.5573 -0.066,-1.116 -0.0821,-1.6743 0,-23.6648 19.18493,-42.8472 42.8496,-42.8481 z"
       style="color:#000000;font-style:normal;font-variant:normal;font-weight:normal;font-stretch:normal;font-size:medium;line-height:normal;font-family:sans-serif;text-indent:0;text-align:start;text-decoration:none;text-decoration-line:none;text-decoration-style:solid;text-decoration-color:#000000;letter-spacing:normal;word-spacing:normal;text-transform:none;writing-mode:lr-tb;direction:ltr;baseline-shift:baseline;text-anchor:start;white-space:normal;clip-rule:nonzero;display:inline;overflow:visible;visibility:visible;opacity:1;isolation:auto;mix-blend-mode:normal;color-interpolation:sRGB;color-interpolation-filters:linearRGB;solid-color:#000000;solid-opacity:1;fill:#00ffff;fill-opacity:1;fill-rule:nonzero;stroke:#000002;stroke-width:5.66929;stroke-linecap:butt;stroke-linejoin:miter;stroke-miterlimit:4;stroke-dasharray:none;stroke-dashoffset:0;stroke-opacity:1;color-rendering:auto;image-rendering:auto;shape-rendering:auto;text-rendering:auto;enable-background:accumulate"
       id="path3748" /><path
       d="m 362.68709,2529.0322 -0.003,0.01 c -3.10157,0 -6.01436,0.785 -8.55322,2.1694 -0.25388,0.1385 -0.50377,0.2834 -0.75,0.4336 -0.24545,0.1499 -0.48614,0.3046 -0.72363,0.4658 -0.0496,0.034 -0.0973,0.07 -0.14649,0.1041 -0.18747,0.13 -0.37446,0.2614 -0.55664,0.3984 -0.0103,0.01 -0.0205,0.016 -0.0308,0.023 -0.44498,0.3359 -0.87485,0.6925 -1.28613,1.0678 -5.2e-4,6e-4 -9.8e-4,0 -10e-4,0 -0.073,0.067 -0.14201,0.1373 -0.21387,0.2051 -0.14022,0.1323 -0.28158,0.2632 -0.41748,0.3999 -0.20239,0.2037 -0.39929,0.4123 -0.5918,0.6255 -0.18941,0.2098 -0.3742,0.4244 -0.55371,0.643 -0.0549,0.067 -0.10574,0.1374 -0.15967,0.2052 -0.12815,0.1608 -0.25816,0.321 -0.38086,0.4863 -0.68657,0.925 -1.28664,1.9193 -1.78857,2.9706 -1.12934,2.3657 -1.76074,5.0202 -1.76074,7.8297 v 29.9428 c 0.001,94.3643 0.008,186.2075 0.0132,278.0611 0.0101,163.7974 0.0126,327.6989 -0.0132,495.851 h 0.002 0.003 0.003 0.002 0.003 l 0.002,26.9692 v 8.4449 c 0.15084,5.6164 2.54286,10.2083 6.31641,13.4194 3.52231,2.9973 8.24419,4.7898 13.45166,5.1065 l 329.95165,0.028 329.9516,-0.028 c 5.2078,-0.3166 9.9292,-2.109 13.4517,-5.1065 3.7735,-3.2111 6.1655,-7.8031 6.3164,-13.4194 v -8.4449 -26.9692 0 0 0 0 0 c -0.025,-163.2094 -0.023,-322.3877 -0.013,-481.2758 v -14.5752 c 0,-0.012 0,-0.025 0,-0.037 0.01,-91.0805 0.012,-182.1824 0.013,-275.7202 v -32.2471 c 0,-4.058 -1.318,-7.7939 -3.5493,-10.8003 -0.1717,-0.2312 -0.3495,-0.4587 -0.5318,-0.6811 -0.1822,-0.2225 -0.37,-0.4401 -0.5625,-0.6534 -0.1925,-0.2132 -0.3894,-0.4218 -0.5918,-0.6255 -0.1359,-0.1367 -0.2772,-0.2676 -0.4174,-0.3999 -0.072,-0.068 -0.1409,-0.1383 -0.2139,-0.205 -5e-4,-5e-4 -8e-4,0 0,0 -0.4203,-0.3836 -0.86,-0.7475 -1.3154,-1.0898 -0.4596,-0.3455 -0.9358,-0.6693 -1.4283,-0.9698 -0.2462,-0.1502 -0.4961,-0.2951 -0.75,-0.4336 -2.5388,-1.3844 -5.4516,-2.1694 -8.5532,-2.1694 v -0.01 c -0.01,0 -0.012,0 -0.017,0 H 694.50202 362.70466 c -0.006,0 -0.0117,0 -0.0176,0 z"
       style="opacity:1;fill:#ffff00;fill-opacity:0.875;stroke:#000002;stroke-width:5.66929;stroke-miterlimit:4;stroke-dasharray:none;stroke-opacity:1"
       id="path3838" /></g><g
     inkscape:label="Bird Layer - Delete"
     id="layer1"
     inkscape:groupmode="layer" /><g
     inkscape:label="Your Design"
     id="layer11"
     inkscape:groupmode="layer" /></svg>
