<?xml version="1.0" encoding="UTF-8" standalone="no"?>
<svg
   version="1.1"
   inkscape:output_extension="org.inkscape.output.svg.inkscape"
   sodipodi:docname="SpeakerLayerOddFull.svg"
   inkscape:version="1.3 (0e150ed6c4, 2023-07-21)"
   sodipodi:version="0.32"
   id="svg2338"
   xml:space="preserve"
   viewBox="0 0 1116.852 1116.85"
   height="1116.85pt"
   width="1116.852pt"
   xmlns:inkscape="http://www.inkscape.org/namespaces/inkscape"
   xmlns:sodipodi="http://sodipodi.sourceforge.net/DTD/sodipodi-0.dtd"
   xmlns="http://www.w3.org/2000/svg"
   xmlns:svg="http://www.w3.org/2000/svg"
   xmlns:rdf="http://www.w3.org/1999/02/22-rdf-syntax-ns#"
   xmlns:cc="http://creativecommons.org/ns#"
   xmlns:dc="http://purl.org/dc/elements/1.1/"><metadata
     id="metadata2382"><rdf:RDF><cc:Work
         rdf:about=""><dc:format>image/svg+xml</dc:format><dc:type
           rdf:resource="http://purl.org/dc/dcmitype/StillImage" /><dc:title /></cc:Work></rdf:RDF></metadata><defs
     id="defs2380"><inkscape:perspective
       id="perspective46224"
       inkscape:persp3d-origin="698.03253 : 465.35417 : 1"
       inkscape:vp_z="1396.0651 : 698.03125 : 1"
       inkscape:vp_y="0 : 1000 : 0"
       inkscape:vp_x="0 : 698.03125 : 1"
       sodipodi:type="inkscape:persp3d" /><inkscape:perspective
       id="perspective37556-9"
       inkscape:persp3d-origin="338.38562 : 225.59001 : 1"
       inkscape:vp_z="676.77124 : 338.38501 : 1"
       inkscape:vp_y="0 : 1000 : 0"
       inkscape:vp_x="0 : 338.38501 : 1"
       sodipodi:type="inkscape:persp3d" /><inkscape:perspective
       id="perspective16301-9"
       inkscape:persp3d-origin="338.38562 : 225.59001 : 1"
       inkscape:vp_z="676.77124 : 338.38501 : 1"
       inkscape:vp_y="0 : 1000 : 0"
       inkscape:vp_x="0 : 338.38501 : 1"
       sodipodi:type="inkscape:persp3d" /><inkscape:perspective
       id="perspective12409-1"
       inkscape:persp3d-origin="270.7085 : 180.47233 : 1"
       inkscape:vp_z="541.41699 : 270.7085 : 1"
       inkscape:vp_y="0 : 1000 : 0"
       inkscape:vp_x="0 : 270.7085 : 1"
       sodipodi:type="inkscape:persp3d" /><inkscape:perspective
       id="perspective9337-7"
       inkscape:persp3d-origin="0.5 : 0.33333333 : 1"
       inkscape:vp_z="1 : 0.5 : 1"
       inkscape:vp_y="0 : 1000 : 0"
       inkscape:vp_x="0 : 0.5 : 1"
       sodipodi:type="inkscape:persp3d" /><inkscape:perspective
       id="perspective8562-2"
       inkscape:persp3d-origin="0.5 : 0.33333333 : 1"
       inkscape:vp_z="1 : 0.5 : 1"
       inkscape:vp_y="0 : 1000 : 0"
       inkscape:vp_x="0 : 0.5 : 1"
       sodipodi:type="inkscape:persp3d" /><inkscape:perspective
       sodipodi:type="inkscape:persp3d"
       inkscape:vp_x="0 : 338.38501 : 1"
       inkscape:vp_y="0 : 1000 : 0"
       inkscape:vp_z="676.77124 : 338.38501 : 1"
       inkscape:persp3d-origin="338.38562 : 225.59001 : 1"
       id="perspective3083-3" /><inkscape:perspective
       sodipodi:type="inkscape:persp3d"
       inkscape:vp_x="0 : 270.7085 : 1"
       inkscape:vp_y="0 : 1000 : 0"
       inkscape:vp_z="541.41699 : 270.7085 : 1"
       inkscape:persp3d-origin="270.7085 : 180.47233 : 1"
       id="perspective23419-6" /><inkscape:perspective
       sodipodi:type="inkscape:persp3d"
       inkscape:vp_x="0 : 338.38501 : 1"
       inkscape:vp_y="0 : 1000 : 0"
       inkscape:vp_z="676.77124 : 338.38501 : 1"
       inkscape:persp3d-origin="338.38562 : 225.59001 : 1"
       id="perspective27913-5" /><inkscape:perspective
       id="perspective27913"
       inkscape:persp3d-origin="338.38562 : 225.59001 : 1"
       inkscape:vp_z="676.77124 : 338.38501 : 1"
       inkscape:vp_y="0 : 1000 : 0"
       inkscape:vp_x="0 : 338.38501 : 1"
       sodipodi:type="inkscape:persp3d" /><inkscape:perspective
       id="perspective23419"
       inkscape:persp3d-origin="270.7085 : 180.47233 : 1"
       inkscape:vp_z="541.41699 : 270.7085 : 1"
       inkscape:vp_y="0 : 1000 : 0"
       inkscape:vp_x="0 : 270.7085 : 1"
       sodipodi:type="inkscape:persp3d" /><inkscape:perspective
       id="perspective3083"
       inkscape:persp3d-origin="338.38562 : 225.59001 : 1"
       inkscape:vp_z="676.77124 : 338.38501 : 1"
       inkscape:vp_y="0 : 1000 : 0"
       inkscape:vp_x="0 : 338.38501 : 1"
       sodipodi:type="inkscape:persp3d" /><inkscape:perspective
       sodipodi:type="inkscape:persp3d"
       inkscape:vp_x="0 : 0.5 : 1"
       inkscape:vp_y="0 : 1000 : 0"
       inkscape:vp_z="1 : 0.5 : 1"
       inkscape:persp3d-origin="0.5 : 0.33333333 : 1"
       id="perspective8562" /><inkscape:perspective
       sodipodi:type="inkscape:persp3d"
       inkscape:vp_x="0 : 0.5 : 1"
       inkscape:vp_y="0 : 1000 : 0"
       inkscape:vp_z="1 : 0.5 : 1"
       inkscape:persp3d-origin="0.5 : 0.33333333 : 1"
       id="perspective9337" /><inkscape:perspective
       sodipodi:type="inkscape:persp3d"
       inkscape:vp_x="0 : 270.7085 : 1"
       inkscape:vp_y="0 : 1000 : 0"
       inkscape:vp_z="541.41699 : 270.7085 : 1"
       inkscape:persp3d-origin="270.7085 : 180.47233 : 1"
       id="perspective12409" /><inkscape:perspective
       sodipodi:type="inkscape:persp3d"
       inkscape:vp_x="0 : 338.38501 : 1"
       inkscape:vp_y="0 : 1000 : 0"
       inkscape:vp_z="676.77124 : 338.38501 : 1"
       inkscape:persp3d-origin="338.38562 : 225.59001 : 1"
       id="perspective16301" /><inkscape:perspective
       sodipodi:type="inkscape:persp3d"
       inkscape:vp_x="0 : 338.38501 : 1"
       inkscape:vp_y="0 : 1000 : 0"
       inkscape:vp_z="676.77124 : 338.38501 : 1"
       inkscape:persp3d-origin="338.38562 : 225.59001 : 1"
       id="perspective37556" /><inkscape:perspective
       sodipodi:type="inkscape:persp3d"
       inkscape:vp_x="0 : 270.70999 : 1"
       inkscape:vp_y="0 : 1000 : 0"
       inkscape:vp_z="541.41998 : 270.70999 : 1"
       inkscape:persp3d-origin="270.70999 : 180.47333 : 1"
       id="perspective51446" /><inkscape:perspective
       id="perspective37556-9-8"
       inkscape:persp3d-origin="338.38562 : 225.59001 : 1"
       inkscape:vp_z="676.77124 : 338.38501 : 1"
       inkscape:vp_y="0 : 1000 : 0"
       inkscape:vp_x="0 : 338.38501 : 1"
       sodipodi:type="inkscape:persp3d" /><inkscape:perspective
       id="perspective16301-9-1"
       inkscape:persp3d-origin="338.38562 : 225.59001 : 1"
       inkscape:vp_z="676.77124 : 338.38501 : 1"
       inkscape:vp_y="0 : 1000 : 0"
       inkscape:vp_x="0 : 338.38501 : 1"
       sodipodi:type="inkscape:persp3d" /><inkscape:perspective
       id="perspective12409-1-2"
       inkscape:persp3d-origin="270.7085 : 180.47233 : 1"
       inkscape:vp_z="541.41699 : 270.7085 : 1"
       inkscape:vp_y="0 : 1000 : 0"
       inkscape:vp_x="0 : 270.7085 : 1"
       sodipodi:type="inkscape:persp3d" /><inkscape:perspective
       id="perspective9337-7-0"
       inkscape:persp3d-origin="0.5 : 0.33333333 : 1"
       inkscape:vp_z="1 : 0.5 : 1"
       inkscape:vp_y="0 : 1000 : 0"
       inkscape:vp_x="0 : 0.5 : 1"
       sodipodi:type="inkscape:persp3d" /><inkscape:perspective
       id="perspective8562-2-5"
       inkscape:persp3d-origin="0.5 : 0.33333333 : 1"
       inkscape:vp_z="1 : 0.5 : 1"
       inkscape:vp_y="0 : 1000 : 0"
       inkscape:vp_x="0 : 0.5 : 1"
       sodipodi:type="inkscape:persp3d" /><inkscape:perspective
       sodipodi:type="inkscape:persp3d"
       inkscape:vp_x="0 : 338.38501 : 1"
       inkscape:vp_y="0 : 1000 : 0"
       inkscape:vp_z="676.77124 : 338.38501 : 1"
       inkscape:persp3d-origin="338.38562 : 225.59001 : 1"
       id="perspective3083-3-7" /><inkscape:perspective
       sodipodi:type="inkscape:persp3d"
       inkscape:vp_x="0 : 270.7085 : 1"
       inkscape:vp_y="0 : 1000 : 0"
       inkscape:vp_z="541.41699 : 270.7085 : 1"
       inkscape:persp3d-origin="270.7085 : 180.47233 : 1"
       id="perspective23419-6-3" /><inkscape:perspective
       sodipodi:type="inkscape:persp3d"
       inkscape:vp_x="0 : 338.38501 : 1"
       inkscape:vp_y="0 : 1000 : 0"
       inkscape:vp_z="676.77124 : 338.38501 : 1"
       inkscape:persp3d-origin="338.38562 : 225.59001 : 1"
       id="perspective27913-5-7" /><inkscape:perspective
       id="perspective27913-9"
       inkscape:persp3d-origin="338.38562 : 225.59001 : 1"
       inkscape:vp_z="676.77124 : 338.38501 : 1"
       inkscape:vp_y="0 : 1000 : 0"
       inkscape:vp_x="0 : 338.38501 : 1"
       sodipodi:type="inkscape:persp3d" /><inkscape:perspective
       id="perspective23419-3"
       inkscape:persp3d-origin="270.7085 : 180.47233 : 1"
       inkscape:vp_z="541.41699 : 270.7085 : 1"
       inkscape:vp_y="0 : 1000 : 0"
       inkscape:vp_x="0 : 270.7085 : 1"
       sodipodi:type="inkscape:persp3d" /><inkscape:perspective
       id="perspective3083-1"
       inkscape:persp3d-origin="338.38562 : 225.59001 : 1"
       inkscape:vp_z="676.77124 : 338.38501 : 1"
       inkscape:vp_y="0 : 1000 : 0"
       inkscape:vp_x="0 : 338.38501 : 1"
       sodipodi:type="inkscape:persp3d" /><inkscape:perspective
       sodipodi:type="inkscape:persp3d"
       inkscape:vp_x="0 : 0.5 : 1"
       inkscape:vp_y="0 : 1000 : 0"
       inkscape:vp_z="1 : 0.5 : 1"
       inkscape:persp3d-origin="0.5 : 0.33333333 : 1"
       id="perspective8562-25" /><inkscape:perspective
       sodipodi:type="inkscape:persp3d"
       inkscape:vp_x="0 : 0.5 : 1"
       inkscape:vp_y="0 : 1000 : 0"
       inkscape:vp_z="1 : 0.5 : 1"
       inkscape:persp3d-origin="0.5 : 0.33333333 : 1"
       id="perspective9337-6" /><inkscape:perspective
       sodipodi:type="inkscape:persp3d"
       inkscape:vp_x="0 : 270.7085 : 1"
       inkscape:vp_y="0 : 1000 : 0"
       inkscape:vp_z="541.41699 : 270.7085 : 1"
       inkscape:persp3d-origin="270.7085 : 180.47233 : 1"
       id="perspective12409-8" /><inkscape:perspective
       sodipodi:type="inkscape:persp3d"
       inkscape:vp_x="0 : 338.38501 : 1"
       inkscape:vp_y="0 : 1000 : 0"
       inkscape:vp_z="676.77124 : 338.38501 : 1"
       inkscape:persp3d-origin="338.38562 : 225.59001 : 1"
       id="perspective16301-5" /><inkscape:perspective
       sodipodi:type="inkscape:persp3d"
       inkscape:vp_x="0 : 338.38501 : 1"
       inkscape:vp_y="0 : 1000 : 0"
       inkscape:vp_z="676.77124 : 338.38501 : 1"
       inkscape:persp3d-origin="338.38562 : 225.59001 : 1"
       id="perspective37556-4" /><inkscape:perspective
       id="perspective37556-9-1"
       inkscape:persp3d-origin="338.38562 : 225.59001 : 1"
       inkscape:vp_z="676.77124 : 338.38501 : 1"
       inkscape:vp_y="0 : 1000 : 0"
       inkscape:vp_x="0 : 338.38501 : 1"
       sodipodi:type="inkscape:persp3d" /><inkscape:perspective
       id="perspective16301-9-3"
       inkscape:persp3d-origin="338.38562 : 225.59001 : 1"
       inkscape:vp_z="676.77124 : 338.38501 : 1"
       inkscape:vp_y="0 : 1000 : 0"
       inkscape:vp_x="0 : 338.38501 : 1"
       sodipodi:type="inkscape:persp3d" /><inkscape:perspective
       id="perspective12409-1-9"
       inkscape:persp3d-origin="270.7085 : 180.47233 : 1"
       inkscape:vp_z="541.41699 : 270.7085 : 1"
       inkscape:vp_y="0 : 1000 : 0"
       inkscape:vp_x="0 : 270.7085 : 1"
       sodipodi:type="inkscape:persp3d" /><inkscape:perspective
       id="perspective9337-7-1"
       inkscape:persp3d-origin="0.5 : 0.33333333 : 1"
       inkscape:vp_z="1 : 0.5 : 1"
       inkscape:vp_y="0 : 1000 : 0"
       inkscape:vp_x="0 : 0.5 : 1"
       sodipodi:type="inkscape:persp3d" /><inkscape:perspective
       id="perspective8562-2-7"
       inkscape:persp3d-origin="0.5 : 0.33333333 : 1"
       inkscape:vp_z="1 : 0.5 : 1"
       inkscape:vp_y="0 : 1000 : 0"
       inkscape:vp_x="0 : 0.5 : 1"
       sodipodi:type="inkscape:persp3d" /><inkscape:perspective
       sodipodi:type="inkscape:persp3d"
       inkscape:vp_x="0 : 338.38501 : 1"
       inkscape:vp_y="0 : 1000 : 0"
       inkscape:vp_z="676.77124 : 338.38501 : 1"
       inkscape:persp3d-origin="338.38562 : 225.59001 : 1"
       id="perspective3083-3-8" /><inkscape:perspective
       sodipodi:type="inkscape:persp3d"
       inkscape:vp_x="0 : 270.7085 : 1"
       inkscape:vp_y="0 : 1000 : 0"
       inkscape:vp_z="541.41699 : 270.7085 : 1"
       inkscape:persp3d-origin="270.7085 : 180.47233 : 1"
       id="perspective23419-6-8" /><inkscape:perspective
       sodipodi:type="inkscape:persp3d"
       inkscape:vp_x="0 : 338.38501 : 1"
       inkscape:vp_y="0 : 1000 : 0"
       inkscape:vp_z="676.77124 : 338.38501 : 1"
       inkscape:persp3d-origin="338.38562 : 225.59001 : 1"
       id="perspective27913-5-4" /><inkscape:perspective
       id="perspective27913-1"
       inkscape:persp3d-origin="338.38562 : 225.59001 : 1"
       inkscape:vp_z="676.77124 : 338.38501 : 1"
       inkscape:vp_y="0 : 1000 : 0"
       inkscape:vp_x="0 : 338.38501 : 1"
       sodipodi:type="inkscape:persp3d" /><inkscape:perspective
       id="perspective23419-9"
       inkscape:persp3d-origin="270.7085 : 180.47233 : 1"
       inkscape:vp_z="541.41699 : 270.7085 : 1"
       inkscape:vp_y="0 : 1000 : 0"
       inkscape:vp_x="0 : 270.7085 : 1"
       sodipodi:type="inkscape:persp3d" /><inkscape:perspective
       id="perspective3083-8"
       inkscape:persp3d-origin="338.38562 : 225.59001 : 1"
       inkscape:vp_z="676.77124 : 338.38501 : 1"
       inkscape:vp_y="0 : 1000 : 0"
       inkscape:vp_x="0 : 338.38501 : 1"
       sodipodi:type="inkscape:persp3d" /><inkscape:perspective
       sodipodi:type="inkscape:persp3d"
       inkscape:vp_x="0 : 0.5 : 1"
       inkscape:vp_y="0 : 1000 : 0"
       inkscape:vp_z="1 : 0.5 : 1"
       inkscape:persp3d-origin="0.5 : 0.33333333 : 1"
       id="perspective8562-6" /><inkscape:perspective
       sodipodi:type="inkscape:persp3d"
       inkscape:vp_x="0 : 0.5 : 1"
       inkscape:vp_y="0 : 1000 : 0"
       inkscape:vp_z="1 : 0.5 : 1"
       inkscape:persp3d-origin="0.5 : 0.33333333 : 1"
       id="perspective9337-2" /><inkscape:perspective
       sodipodi:type="inkscape:persp3d"
       inkscape:vp_x="0 : 270.7085 : 1"
       inkscape:vp_y="0 : 1000 : 0"
       inkscape:vp_z="541.41699 : 270.7085 : 1"
       inkscape:persp3d-origin="270.7085 : 180.47233 : 1"
       id="perspective12409-3" /><inkscape:perspective
       sodipodi:type="inkscape:persp3d"
       inkscape:vp_x="0 : 338.38501 : 1"
       inkscape:vp_y="0 : 1000 : 0"
       inkscape:vp_z="676.77124 : 338.38501 : 1"
       inkscape:persp3d-origin="338.38562 : 225.59001 : 1"
       id="perspective16301-56" /><inkscape:perspective
       sodipodi:type="inkscape:persp3d"
       inkscape:vp_x="0 : 338.38501 : 1"
       inkscape:vp_y="0 : 1000 : 0"
       inkscape:vp_z="676.77124 : 338.38501 : 1"
       inkscape:persp3d-origin="338.38562 : 225.59001 : 1"
       id="perspective37556-5" /><inkscape:perspective
       sodipodi:type="inkscape:persp3d"
       inkscape:vp_x="0 : 0.5 : 1"
       inkscape:vp_y="0 : 1000 : 0"
       inkscape:vp_z="1 : 0.5 : 1"
       inkscape:persp3d-origin="0.5 : 0.33333333 : 1"
       id="perspective10328" /><inkscape:perspective
       sodipodi:type="inkscape:persp3d"
       inkscape:vp_x="0 : 0.5 : 1"
       inkscape:vp_y="0 : 1000 : 0"
       inkscape:vp_z="1 : 0.5 : 1"
       inkscape:persp3d-origin="0.5 : 0.33333333 : 1"
       id="perspective11034" /><inkscape:perspective
       sodipodi:type="inkscape:persp3d"
       inkscape:vp_x="0 : 0.5 : 1"
       inkscape:vp_y="0 : 1000 : 0"
       inkscape:vp_z="1 : 0.5 : 1"
       inkscape:persp3d-origin="0.5 : 0.33333333 : 1"
       id="perspective3083-7" /><inkscape:perspective
       sodipodi:type="inkscape:persp3d"
       inkscape:vp_x="0 : 0.5 : 1"
       inkscape:vp_y="0 : 1000 : 0"
       inkscape:vp_z="1 : 0.5 : 1"
       inkscape:persp3d-origin="0.5 : 0.33333333 : 1"
       id="perspective2997" /></defs><sodipodi:namedview
     showguides="false"
     inkscape:document-rotation="0"
     inkscape:document-units="mm"
     inkscape:window-maximized="1"
     showgrid="false"
     inkscape:current-layer="layer10"
     inkscape:window-y="968"
     inkscape:window-x="4792"
     inkscape:cy="336.58283"
     inkscape:cx="165.46299"
     inkscape:zoom="0.35355339"
     id="base"
     pagecolor="#ffffff"
     bordercolor="#666666"
     borderopacity="1.0"
     objecttolerance="10.0"
     gridtolerance="10.0"
     guidetolerance="10.0"
     inkscape:pageopacity="0.0"
     inkscape:pageshadow="2"
     inkscape:window-width="1920"
     inkscape:window-height="992"
     inkscape:pagecheckerboard="0"
     inkscape:showpageshadow="2"
     inkscape:deskcolor="#d1d1d1" /><g
     inkscape:label="Design Template"
     id="layer10"
     inkscape:groupmode="layer"><path
       style="color:#000000;font-style:normal;font-variant:normal;font-weight:normal;font-stretch:normal;font-size:medium;line-height:normal;font-family:sans-serif;text-indent:0;text-align:start;text-decoration:none;text-decoration-line:none;text-decoration-style:solid;text-decoration-color:#000000;letter-spacing:normal;word-spacing:normal;text-transform:none;writing-mode:lr-tb;direction:ltr;baseline-shift:baseline;text-anchor:start;white-space:normal;clip-rule:nonzero;display:inline;overflow:visible;visibility:visible;opacity:1;isolation:auto;mix-blend-mode:normal;color-interpolation:sRGB;color-interpolation-filters:linearRGB;solid-color:#000000;solid-opacity:1;fill:#70bbff;fill-opacity:0.46262625;fill-rule:nonzero;stroke:none;stroke-width:2.83621;stroke-linecap:butt;stroke-linejoin:miter;stroke-miterlimit:4;stroke-dasharray:none;stroke-dashoffset:0;stroke-opacity:1;color-rendering:auto;image-rendering:auto;shape-rendering:auto;text-rendering:auto;enable-background:accumulate"
       d="m 19.350585,1.4179687 v 0.010254 c -3.104666,0 -6.020504,0.7848949 -8.562011,2.1694336 C 10.534514,3.736116 10.283659,3.88101 10.037109,4.0312499 9.7914494,4.1811797 9.5512161,4.3358104 9.3134763,4.4970702 c -0.05,0.0337 -0.097034,0.069694 -0.1464843,0.1040039 -0.1876999,0.1300599 -0.3758157,0.2628725 -0.5581055,0.3999023 -0.01,0.008 -0.019762,0.014473 -0.030762,0.021973 C 8.1325852,5.3589088 7.7021467,5.7154205 7.2905272,6.0908202 7.2174272,6.1576201 7.1485299,6.2280883 7.07666,6.2958983 6.9362101,6.4282081 6.7952194,6.5590707 6.6591795,6.6958006 6.4566697,6.8995204 6.2585176,7.1080591 6.0659178,7.3212889 5.876238,7.5310887 5.6918067,7.7471903 5.5122069,7.9658201 5.4572069,8.03262 5.4065989,8.1031483 5.3525389,8.1708982 5.2243091,8.3317081 5.0945094,8.4919165 4.9716796,8.6572263 4.2843802,9.5823554 3.6825852,10.5765 3.1801757,11.627929 c -1.1303589,2.365838 -1.762207,5.019953 -1.762207,7.82959 v 29.9458 c 0,94.371731 0.010184,186.222111 0.013184,278.083001 10e-5,0.47521 0,0.96325 0,1.43848 0.4046096,8.36203 4.1819661,17.10416 11.1621087,24.07763 l 22.461914,22.43994 c 3.234807,3.2698 5.007086,7.70838 4.913086,12.30469 -0.0881,4.32841 -1.82446,8.46113 -4.855957,11.55469 l -22.519043,22.49707 c -7.0642225,7.05757 -10.8386087,15.92565 -11.1650384,24.37939 0.01,124.82058 0.00975,249.28402 -0.010254,377.19872 v 26.97217 8.44482 c 0.1510599,5.6167 2.5463641,10.2094 6.3237303,13.4209 3.522696,2.9946 8.24328,4.78568 13.450195,5.10498 h 412.173326 0.0366 22.5542 c 79.36612,-0.7079 143.34528,-65.24361 143.39648,-144.53613 h 0.0117 l -0.0117,-0.009 c 0,3e-4 0.001,0 0.0117,0 0.01,0 0.0132,0.009 0.0132,0.009 v -0.009 -0.019 -0.1831 c 0,-1.44731 -10e-5,-3.05293 0,-4.26856 2e-4,-3.06474 5e-4,-7.63723 0,-13.5249 0,-11.77548 0.001,-28.81132 0.0117,-49.56006 0,-41.49734 0.0107,-97.85037 0.0146,-156.6914 0.01,-117.68215 0.019,-245.31919 0.019,-283.98046 v -0.003 -0.003 -0.003 -0.003 -0.003 -0.003 l -0.0234,0.0103 v -57.32226 -0.0176 -0.003 c -0.013,-1.81999 -0.10396,-3.63699 -0.27246,-5.44922 -0.1001,-1.03056 -0.2248,-2.06049 -0.375,-3.08496 -0.1355,-1.08715 -0.29942,-2.17023 -0.49072,-3.24902 -0.2012,-1.00556 -0.4261,-2.00524 -0.6753,-3 -0.2441,-1.06883 -0.51555,-2.13116 -0.81445,-3.18604 -0.3042,-0.99645 -0.63148,-1.98586 -0.98438,-2.9663 -0.3428,-1.01803 -0.71205,-2.02554 -1.10595,-3.02491 v -0.003 c -0.4049,-0.96695 -0.83384,-1.9238 -1.28614,-2.86963 -0.4481,-0.99034 -0.92269,-1.96937 -1.42089,-2.93554 -0.4856,-0.89586 -0.99261,-1.78123 -1.52051,-2.65283 -0.555,-0.95895 -1.13311,-1.90275 -1.73731,-2.83155 -0.5709,-0.83842 -1.16226,-1.66092 -1.77246,-2.47119 -0.6487,-0.90124 -1.31926,-1.78666 -2.01416,-2.65283 -0.6625,-0.79008 -1.34326,-1.56328 -2.04345,-2.32031 -0.7173,-0.81029 -1.45725,-1.60321 -2.21485,-2.37598 v -0.003 c -0.7526,-0.73635 -1.52342,-1.45364 -2.31152,-2.15185 -0.7931,-0.73159 -1.60244,-1.44233 -2.43164,-2.13282 -0.8075,-0.6451 -1.63329,-1.26987 -2.47119,-1.875 -0.8729,-0.65807 -1.76198,-1.29482 -2.66748,-1.90722 -0.8607,-0.55628 -1.73265,-1.09123 -2.61914,-1.60547 -0.9423,-0.57329 -1.90186,-1.12127 -2.87256,-1.64502 -0.9221,-0.47278 -1.85406,-0.92175 -2.79785,-1.34912 -0.9759,-0.46654 -1.96508,-0.90929 -2.96338,-1.32569 -0.965,-0.37845 -1.9384,-0.73391 -2.9209,-1.06494 -1.035,-0.3739 -2.07874,-0.72155 -3.13184,-1.0415 -0.9872,-0.27707 -1.98009,-0.531 -2.97949,-0.76026 -1.0583,-0.26558 -2.12276,-0.50379 -3.19336,-0.71484 -1.0268,-0.18151 -2.05778,-0.33773 -3.09228,-0.46875 -1.0728,-0.15786 -2.15049,-0.28802 -3.22998,-0.39111 -1.8031,-0.16667 -3.61226,-0.25654 -5.42286,-0.26953 h -0.0205 -57.27979 l 0.0103,-0.0249 v -0.003 -0.003 -0.001 -0.001 -0.003 -0.004 -0.003 -0.003 -0.003 -0.001 -0.003 -0.003 H 206.36865 v 0.003 0.003 0.001 0.003 0.003 0.003 0.004 0.003 0.001 0.001 0.003 0.003 c -25.83298,0.0559 -51.86738,0.0278 -77.77295,0.0278 -0.01,0 -0.0131,0.004 -0.0161,0.006 v 0.001 l -0.16407,-0.007 c -11.74828,2.6e-4 -21.27069,9.51771 -21.27099,21.25488 3e-4,11.7372 9.52271,21.25022 21.27099,21.25049 0.054,-0.002 0.112,-0.002 0.167,-0.006 v 0.003 c 7e-4,5.5e-4 0,6.8e-4 0,0.003 7e-4,3.6e-4 0,0.003 0,0.004 116.32088,0.0102 239.82726,0.0512 345.13475,0.0498 v 0.001 c 0,7.5e-4 0.01,0.006 0.0147,0.007 l 0.12744,-0.007 c 44.64346,1.9e-4 80.83427,36.15688 80.83447,80.7583 -2e-4,44.60144 -36.19101,80.75664 -80.83447,80.75683 -0.048,3e-5 -0.0967,3e-5 -0.14502,0 H 206.37011 v 0.003 0.003 0.001 0.003 0.003 0.001 0.001 0.006 0.003 0.003 0.003 l 0.0103,0.0264 h -77.78321 c -0.01,7e-5 -0.0131,4e-4 -0.0161,0.004 v 0.003 l -0.15967,-0.007 c -11.74828,2.7e-4 -21.27226,9.51621 -21.27246,21.25342 2e-4,11.7372 9.52418,21.25168 21.27246,21.25195 0.054,-7.5e-4 0.11073,-0.003 0.16553,-0.006 0,0.002 0.009,0.006 0.0132,0.006 h 77.71143 v 0.0278 0.003 0.001 0.003 0.003 0.003 0.001 0.003 0.003 0.003 h 267.41015 c 0,0 0.061,0.0179 0.082,0.0439 v 0.003 0.003 c 44.08575,0.75053 79.43692,36.65947 79.45752,80.70995 -0.036,16.95538 -12.18127,32.96002 -15.37647,47.21485 -2.3201,10.35008 -8.93275,17.58251 -16.51465,20.85937 -1.88459,1.02376 -4.01043,1.64322 -6.26513,1.7666 -0.8426,0.11619 -1.68539,0.19058 -2.52539,0.20948 h -0.20362 c -7.31539,0.94567 -12.96623,7.18886 -12.96533,14.75244 0,8.20259 6.64962,14.85339 14.85791,14.87402 v 0.0278 h 0.022 c 8.2075,3e-4 14.86034,6.64787 14.86084,14.84766 -5e-4,8.19973 -6.65334,14.84582 -14.86084,14.84619 h -0.022 v 0.0264 c -8.20919,0.0202 -14.85761,6.67193 -14.85791,14.87548 0,8.2025 6.64962,14.85478 14.85791,14.87549 v 0.0293 h 0.022 c 8.2066,0 14.85908,6.64852 14.85938,14.84765 0,8.20062 -6.65225,14.85029 -14.86084,14.85059 h -0.0234 v 0.0234 c -8.20919,0.0203 -14.85614,6.67348 -14.85644,14.87695 3e-4,8.20348 6.64725,14.85625 14.85644,14.87695 v 0.0278 h 0.0234 c 8.20749,0 14.85881,6.64909 14.85791,14.84912 -4e-4,8.19979 -6.65188,14.84735 -14.85938,14.84765 h -0.0234 v 0.0264 c -8.20919,0.021 -14.85615,6.672 -14.85645,14.87549 0,8.20233 6.64846,14.85324 14.85645,14.87402 v 0.0322 h 0.0234 c 8.2075,3e-4 14.85898,6.64639 14.85938,14.84619 -0.01,7.83707 -6.11572,14.3173 -13.94531,14.80078 -0.9649,-0.066 -1.93026,-0.10156 -2.89746,-0.10254 -23.70788,-1.5e-4 -42.92745,19.20219 -42.92725,42.88769 0.015,0.9778 0.0643,1.95519 0.14649,2.92969 -0.5174,7.80079 -7.00206,13.86475 -14.82715,13.86475 -8.20769,-3e-4 -14.86054,-6.64494 -14.86084,-14.84473 v -0.022 h -0.0249 c -0.021,-8.20129 -6.68178,-14.84296 -14.89307,-14.84326 -8.21019,0 -14.86621,6.64287 -14.88721,14.84326 h -0.0308 v 0.022 c -5e-4,8.19979 -6.65471,14.84589 -14.8623,14.84619 -8.20839,0 -14.86201,-6.6455 -14.86231,-14.84619 v -0.0234 h -0.0234 c -0.021,-8.20239 -6.68098,-14.84326 -14.89307,-14.84326 -8.21039,0 -14.86767,6.64277 -14.88867,14.84326 h -0.0278 v 0.0234 c -3e-4,8.19979 -6.65482,14.84589 -14.86231,14.84619 -8.20759,-3e-4 -14.86024,-6.6464 -14.86084,-14.84619 v -0.0234 h -0.0249 c -0.02,-8.20139 -6.68177,-14.84296 -14.89307,-14.84326 -8.21039,0 -14.8662,6.64277 -14.8872,14.84326 h -0.0293 v 0.022 c -3e-4,8.19979 -6.65042,14.84735 -14.85791,14.84765 -8.20759,-3e-4 -14.8619,-6.64786 -14.8623,-14.84765 v -0.022 h -0.0249 c -0.02,-8.20139 -6.68051,-14.84296 -14.8916,-14.84326 -8.21129,3e-4 -14.8706,6.64177 -14.8916,14.84326 h -0.0249 v 0.022 c -3e-4,8.20069 -6.65821,14.84719 -14.8667,14.84619 -8.20749,-3e-4 -14.85907,-6.6464 -14.85937,-14.84619 v -0.0234 h -0.0249 c -0.021,-8.20129 -6.67894,-14.8415 -14.89013,-14.8418 -8.2103,0 -14.8706,6.64141 -14.8916,14.8418 h -0.0264 v 0.0234 c -3e-4,8.19979 -6.65335,14.84589 -14.86084,14.84619 -8.20749,-3e-4 -14.85908,-6.6464 -14.85938,-14.84619 v -0.0234 h -0.0278 c -0.021,-8.20149 -6.67894,-14.8415 -14.89013,-14.8418 -8.2103,0 -14.86768,6.64141 -14.88868,14.8418 h -0.0308 v 0.022 c -3e-4,8.19979 -6.65493,14.84736 -14.862302,14.84766 l 0.03223,0.0396 c -8.139622,0 -14.76189,-6.54664 -14.85498,-14.67774 0.044,-0.7308 0.06617,-1.46496 0.07617,-2.19726 10e-5,-23.68539 -19.217834,-42.88492 -42.925781,-42.88477 -1.063178,0.0135 -2.125381,0.066 -3.18457,0.15821 -7.670642,-0.67219 -13.554443,-7.08583 -13.564453,-14.77881 3e-4,-8.19972 6.654813,-14.84736 14.862305,-14.84766 h 0.02197 v -0.0234 c 8.208302,-0.0217 14.853216,-6.67439 14.853516,-14.87695 0,-8.20145 -6.646234,-14.85359 -14.853516,-14.87549 v -0.0293 l -0.02197,0.007 c -8.207492,-3e-4 -14.86044,-6.64493 -14.86084,-14.84472 0,-8.20063 6.652448,-14.84883 14.86084,-14.84913 h 0.02197 v -0.0234 c 8.209192,-0.0217 14.856445,-6.67641 14.856445,-14.87989 0,-8.20145 -6.649253,-14.85358 -14.856445,-14.87548 v -0.0264 h -0.02197 c -8.208492,-3e-4 -14.86184,-6.64704 -14.86084,-14.84766 4e-4,-8.1998 6.653248,-14.84727 14.86084,-14.84765 h 0.02344 v -0.0264 c 8.208292,-0.0217 14.856135,-6.67438 14.856445,-14.87695 0,-8.20145 -6.649353,-14.85213 -14.856445,-14.87403 v -0.0308 h -0.02197 c -8.207492,-3e-4 -14.859065,-6.64792 -14.859375,-14.84765 3e-4,-8.19979 6.651983,-14.84443 14.859375,-14.84473 h 0.02197 v -0.0264 c 8.208292,-0.0217 14.856135,-6.67576 14.856445,-14.87841 -6.1e-4,-8.20234 -6.648253,-14.85359 -14.856445,-14.87549 v -0.0278 h -0.02197 c -8.207692,-3e-4 -14.86084,-6.64936 -14.86084,-14.84912 0.01,-0.0537 0.01172,-0.10859 0.01172,-0.1626 -0.038,-0.55724 -0.06603,-1.11598 -0.08203,-1.67432 0,-23.66658 19.204537,-42.85164 42.893553,-42.85254 0.979299,6e-4 1.958538,0.034 2.935547,0.10108 v 0.0102 c 7.752722,0.58205 13.747558,7.03505 13.747558,14.80225 v 0.022 h 0.02637 c 0.022,8.20145 6.681865,14.8374 14.893067,14.8374 8.209307,-7.5e-4 14.865207,-6.63775 14.887207,-14.8374 h 0.0278 v -0.0234 c 3e-4,-8.19973 6.65325,-14.84735 14.86084,-14.84765 8.20749,3e-4 14.86054,6.64792 14.86084,14.84765 v 0.022 h 0.0278 c 0.022,8.20055 6.68121,14.83856 14.8916,14.83886 8.2094,-7.5e-4 14.86667,-6.6393 14.88867,-14.83886 h 0.0264 v -0.0234 c 3e-4,-8.19973 6.65325,-14.84736 14.86084,-14.84766 8.20749,3e-4 14.86201,6.64793 14.86231,14.84766 v 0.0205 h 0.0249 c 0.022,8.20055 6.68121,14.8371 14.8916,14.8374 8.21019,-3e-4 14.8696,-6.63685 14.8916,-14.8374 h 0.0249 v -0.022 c 3e-4,-8.20063 6.65518,-14.84719 14.86377,-14.84619 8.20739,3e-4 14.85908,6.64646 14.85938,14.84619 v 0.022 h 0.0278 c 0.022,8.20055 6.68141,14.8371 14.8916,14.8374 8.20939,-7.5e-4 14.86657,-6.63785 14.88867,-14.8374 h 0.0278 v -0.0234 c 3e-4,-8.19974 6.65335,-14.84736 14.86084,-14.84766 8.20759,3e-4 14.86054,6.64792 14.86084,14.84766 v 0.0205 h 0.0293 c 0.022,8.20055 6.67838,14.8371 14.88867,14.8374 8.20929,-0.002 14.86804,-6.63785 14.89014,-14.8374 h 0.0278 v -0.022 c 3e-4,-8.19974 6.65345,-14.84735 14.86084,-14.84765 8.20859,-7.5e-4 14.862,6.64701 14.8623,14.84765 v 0.0205 h 0.0278 c 0.022,8.20145 6.68188,14.8374 14.89307,14.8374 8.20939,-7.5e-4 14.86531,-6.63784 14.88721,-14.8374 h 0.0278 v -0.0234 c 3e-4,-8.19973 6.65471,-14.84735 14.8623,-14.84765 8.2074,3e-4 14.85908,6.64792 14.85938,14.84765 v 0.0205 h 0.0293 c 0.022,8.20055 6.67974,14.83857 14.89013,14.83887 8.20929,-7.5e-4 14.86667,-6.63933 14.88867,-14.83887 h 0.0278 v -0.022 c 10e-5,-3.71018 1.37212,-7.09482 3.62402,-9.69727 0.8412,-1.40406 1.75688,-2.70412 2.69678,-3.83789 6.54669,-7.04454 16.24218,-14.01332 10.99218,-24.18017 -2.70419,-4.74433 -8.03108,-8.54727 -14.50927,-8.82276 -0.055,7.5e-4 -0.1079,0.006 -0.1626,0.009 -6e-4,-1.2e-4 -7e-4,-4.7e-4 0,-0.003 -7e-4,-7.2e-4 0,-0.003 0,-0.004 v -0.001 h -77.71289 l 0.0102,-0.0264 v -0.004 -0.003 -0.001 -0.003 -0.003 -0.001 -0.003 -0.006 -0.001 H 127.14697 c -0.035,0 -0.061,-0.0187 -0.082,-0.0454 v -0.003 -0.003 -0.003 c -44.084093,-0.76498 -79.432505,-36.67062 -79.453125,-80.72021 0.032,-44.03778 35.371343,-79.93275 79.444335,-80.68945 v -0.003 -0.003 -0.003 -0.003 c 0.02,-0.0364 0.0488,-0.063 0.0908,-0.063 h 268.77392 v -0.003 -0.004 -0.003 -0.001 -0.003 -0.003 -0.003 -0.003 -0.003 -0.001 l -0.0117,-0.0264 h 77.7832 c 0.01,0 0.0121,-0.003 0.0161,-0.006 v -0.003 l 0.16114,0.006 c 11.74829,-2.6e-4 21.27362,-9.51328 21.27392,-21.25049 -2e-4,-11.7372 -9.52563,-21.25316 -21.27392,-21.25341 -0.054,7.5e-4 -0.10937,0.001 -0.16407,0.004 v -0.001 c 0,-7.5e-4 -0.0161,-0.003 -0.0161,-0.003 -115.18378,-0.20629 -239.12928,-0.30057 -346.56737,-0.0483 -0.034,0 -0.061,-0.0194 -0.082,-0.0454 v -0.001 -0.004 -0.003 C 82.960525,204.68404 47.611927,168.77664 47.591307,124.72705 47.622307,80.68116 82.975048,44.784236 127.05615,44.037597 v -0.0029 -0.0029 -0.0029 c 0.027,-0.0351 3.11329,-0.06006 0.1084,-0.06006 149.53915,2.4e-4 303.49731,6e-5 438.03368,0 v 0.0029 0.0029 l 0.0103,0.0029 c 0.057,-0.004 0.11309,-0.0053 0.17139,-0.0073 50.50145,5.4e-4 91.65301,39.956186 93.5288,89.951656 -0.04,135.79079 0.0981,724.33153 0.0981,724.33153 0.081,10.22069 9.4369,18.34803 19.67139,19.06933 h 3.10839 c 5.2131,-0.3167 9.93875,-2.11021 13.46485,-5.10791 3.77739,-3.2114 6.17126,-7.80274 6.32226,-13.41943 v -8.44629 -26.9707 c -0.025,-163.22249 -0.0222,-322.41469 -0.0132,-481.31542 v -14.57666 -0.0366 c 0.01,-91.08774 0.0112,-182.19695 0.0132,-275.742182 V 19.458984 c 0,-4.058346 -1.31875,-7.795141 -3.55224,-10.8017577 -0.172,-0.2312497 -0.35061,-0.4586825 -0.53321,-0.6811523 -0.1823,-0.2224598 -0.3698,-0.4400805 -0.5625,-0.6533203 -0.1927,-0.2132398 -0.38909,-0.4217684 -0.59179,-0.6254882 -0.136,-0.1367299 -0.27845,-0.2675925 -0.41895,-0.3999024 -0.072,-0.0683 -0.14077,-0.1383882 -0.21387,-0.2050781 -0.4207,-0.3835796 -0.86079,-0.7474541 -1.31689,-1.0898437 -0.46,-0.3454797 -0.93669,-0.6691769 -1.42969,-0.9697266 -0.2464,-0.1502398 -0.4957,-0.2951338 -0.75,-0.4335937 -2.5413,-1.3845386 -5.45731,-2.1694335 -8.56201,-2.1694335 v -0.010254 h -0.0176 -332.13866 z"
       id="path3736" /></g></svg>
