<?xml version="1.0" encoding="UTF-8" standalone="no"?>
<!-- Created with Inkscape (http://www.inkscape.org/) -->

<svg
   xmlns:dc="http://purl.org/dc/elements/1.1/"
   xmlns:cc="http://creativecommons.org/ns#"
   xmlns:rdf="http://www.w3.org/1999/02/22-rdf-syntax-ns#"
   xmlns:svg="http://www.w3.org/2000/svg"
   xmlns="http://www.w3.org/2000/svg"
   xmlns:sodipodi="http://sodipodi.sourceforge.net/DTD/sodipodi-0.dtd"
   xmlns:inkscape="http://www.inkscape.org/namespaces/inkscape"
   width="210mm"
   height="297mm"
   viewBox="0 0 210 297"
   version="1.1"
   id="svg8"
   inkscape:version="0.92.3 (2405546, 2018-03-11)"
   sodipodi:docname="TandemSilhouet.svg">
  <defs
     id="defs2" />
  <sodipodi:namedview
     id="base"
     pagecolor="#ffffff"
     bordercolor="#666666"
     borderopacity="1.0"
     inkscape:pageopacity="0.0"
     inkscape:pageshadow="2"
     inkscape:zoom="0.24748737"
     inkscape:cx="4632.5169"
     inkscape:cy="-294.27546"
     inkscape:document-units="mm"
     inkscape:current-layer="layer1"
     showgrid="false"
     inkscape:measure-start="402.041,-180.565"
     inkscape:measure-end="997.021,-180.565"
     inkscape:window-width="3840"
     inkscape:window-height="2004"
     inkscape:window-x="208"
     inkscape:window-y="3070"
     inkscape:window-maximized="1" />
  <metadata
     id="metadata5">
    <rdf:RDF>
      <cc:Work
         rdf:about="">
        <dc:format>image/svg+xml</dc:format>
        <dc:type
           rdf:resource="http://purl.org/dc/dcmitype/StillImage" />
        <dc:title></dc:title>
      </cc:Work>
    </rdf:RDF>
  </metadata>
  <g
     inkscape:label="Layer 1"
     inkscape:groupmode="layer"
     id="layer1">
    <path
       style="fill:#000000;stroke-width:1.23232436"
       d="m 474.38342,295.38443 c -2.24885,-2.24885 -1.78093,-5.91544 1.60719,-12.59371 3.26372,-6.43311 4.02279,-14.06321 1.63644,-16.44956 -1.66913,-1.66913 -4.67671,-9.83182 -4.70386,-12.76648 -0.01,-1.10312 0.7447,-2.63911 1.67757,-3.41333 2.40105,-1.99269 705.30114,-1.95682 707.70254,0.0361 1.1532,0.95716 1.6526,4.6549 1.6526,12.23884 0,5.97701 0.5545,11.21002 1.2323,11.62892 0.6778,0.41889 1.2323,1.75478 1.2323,2.96864 0,1.21386 1.6636,4.5036 3.697,7.31054 3.9511,5.45426 4.5957,8.66255 2.2182,11.04003 -2.1541,2.15411 -715.79816,2.15411 -717.95228,0 z m -63.71117,-10.87787 c -2.71111,-0.52649 -7.9793,-1.57162 -11.70708,-2.32252 -3.72778,-0.75091 -8.99597,-1.67963 -11.70708,-2.06381 -2.71111,-0.38419 -6.03839,-1.16693 -7.39395,-1.73942 -1.35555,-0.57247 -6.06919,-1.34186 -10.47475,-1.70975 -4.40556,-0.36789 -9.67375,-1.21242 -11.70709,-1.87676 -2.03333,-0.66432 -12.01516,-2.65649 -22.18183,-4.42703 -10.16668,-1.77055 -20.70305,-3.72166 -23.41417,-4.33581 -2.71111,-0.61416 -7.42475,-1.45088 -10.47475,-1.8594 -4.82171,-0.6458 -21.21716,-3.69694 -32.6566,-6.07731 -2.03334,-0.4231 -8.13334,-1.57087 -13.55557,-2.5506 -5.42223,-0.97973 -12.63132,-2.34524 -16.02022,-3.0345 -3.38889,-0.68923 -8.3798,-1.6029 -11.09092,-2.03039 -2.71111,-0.42746 -5.48384,-1.18308 -6.16162,-1.67914 -0.67778,-0.49606 -4.28232,-1.27946 -8.01011,-1.7409 -3.72778,-0.46143 -8.44142,-1.33145 -10.47475,-1.93337 -4.86167,-1.43919 -18.93463,-4.74285 -28.95963,-6.79833 -4.40556,-0.90329 -13.27829,-2.85256 -19.71719,-4.33169 -6.43889,-1.47913 -14.47981,-3.24785 -17.8687,-3.93049 -3.38889,-0.68262 -7.12455,-1.73692 -8.30147,-2.34287 -1.17692,-0.60595 -3.3453,-1.10173 -4.81864,-1.10173 -3.00191,0 -28.650835,-5.88261 -32.475895,-7.44838 -1.35556,-0.55489 -5.23738,-1.34884 -8.62627,-1.76434 -3.3889,-0.41549 -7.54799,-1.22598 -9.24244,-1.80108 -1.69444,-0.5751 -6.40808,-1.70851 -10.47475,-2.51866 -4.06667,-0.81017 -8.35688,-1.97862 -9.53379,-2.59656 -1.17692,-0.61794 -3.79933,-1.12352 -5.82761,-1.12352 -10.02086,0 -29.61844,-9.52954 -29.61844,-14.40229 0,-2.45016 -3.67247,-1.93799 -3.86215,0.53864 -0.0908,1.18611 -0.0393,6.3436 0.11461,11.46107 0.21736,7.22883 -0.15515,9.66547 -1.66981,10.92252 -2.35362,1.95334 -9.6591898,0.87976 -11.83240984,-1.73879 -2.02568996,-2.44082 -0.46173,-26.87601 2.09039004,-32.65996 2.8182,-6.38698 7.6964698,-11.09092 11.5019498,-11.09092 3.60403,0 7.35439,3.34869 7.35439,6.56674 0,1.13274 0.41591,2.05612 0.92424,2.05194 0.50834,-0.004 0.97908,-2.74954 1.04611,-6.10079 l 0.12188,-6.09318 18.92268,-20.08611 c 10.40748,-11.04736 27.54102,-29.23612 38.07454,-40.41946 C 104.73189,83.082778 121.9558,65.093038 151.2543,34.901358 c 21.81505,-22.48012 42.09413,-43.9116705 61.71305,-65.22024 4.99227,-5.42222 11.8095,-12.63132 15.14939,-16.02021 3.33988,-3.38889 8.85054,-9.4889 12.2459,-13.55557 5.55988,-6.65915 14.60507,-16.09802 54.26534,-56.627218 l 12.11745,-12.38294 -0.75589,-6.69662 c -0.41574,-3.68315 -1.27281,-7.31947 -1.90458,-8.08072 -0.63179,-0.76125 -2.06954,-4.67959 -3.19503,-8.70743 -4.42778,-15.84613 -3.83822,-18.26572 4.79761,-19.68958 2.84155,-0.4685 5.72098,-1.24378 6.39876,-1.72285 0.67778,-0.47905 3.72778,-1.57949 6.77779,-2.44542 3.05,-0.86592 6.50838,-2.0749 7.6853,-2.68662 4.64699,-2.41534 10.79956,0.46677 10.79956,5.05894 0,1.7183 2.03557,8.60017 3.8245,12.92987 0.56008,1.35555 1.49663,4.40556 2.08121,6.77778 1.18344,4.80236 0.0111,4.60122 17.2394,2.95859 4.93536,-0.47058 9.26582,-1.32877 9.62325,-1.90708 0.35742,-0.57833 3.18005,-1.05151 6.27252,-1.05151 3.09245,0 11.51656,-0.8263 18.72021,-1.83621 7.20367,-1.00992 16.97939,-2.38472 21.72384,-3.05512 10.96752,-1.54971 14.90401,-2.05225 34.50508,-4.40505 8.81112,-1.05763 19.34749,-2.3964 23.41416,-2.97504 4.06667,-0.57865 9.8894,-1.40564 12.93941,-1.83778 3.05,-0.43213 12.47728,-1.61881 20.94951,-2.63706 8.47223,-1.01825 17.0677,-2.13796 19.10103,-2.48825 4.0919,-0.70493 11.85507,-1.73733 35.73741,-4.75261 8.81112,-1.11245 19.90204,-2.56318 24.64649,-3.22384 4.74444,-0.66067 12.78536,-1.78061 17.8687,-2.48878 5.08334,-0.70817 11.46062,-1.51598 14.17173,-1.79513 5.90615,-0.60814 20.38349,-2.51739 31.42427,-4.14419 4.40556,-0.64913 12.44648,-1.77382 17.8687,-2.49932 5.42223,-0.72549 13.18588,-1.78331 17.25255,-2.35069 4.06667,-0.5674 13.49395,-1.7091 20.94951,-2.53711 7.45552,-0.82801 15.56082,-2.02222 18.01172,-2.65381 2.4508,-0.63158 6.9431,-1.14833 9.9827,-1.14833 3.0397,0 7.1345,-0.5281 9.0995,-1.17356 1.965,-0.64545 9.6728,-1.78831 17.1284,-2.53968 7.45546,-0.75137 16.88276,-1.84799 20.94946,-2.43693 4.0666,-0.58895 11.553,-1.61318 16.6363,-2.27607 5.0834,-0.66291 10.9061,-1.54452 12.9395,-1.95916 2.0333,-0.41463 8.96506,-1.30061 15.40396,-1.96884 6.439,-0.66823 15.589,-1.78101 20.3335,-2.47287 4.7444,-0.69185 15.5581,-2.11214 24.0303,-3.1562 8.4722,-1.04407 19.0086,-2.39353 23.4141,-2.9988 4.4056,-0.60528 12.1693,-1.67024 17.2526,-2.36659 5.0833,-0.69635 12.847,-1.7961 17.2525,-2.4439 4.4056,-0.64781 13.5556,-1.79081 20.3334,-2.54002 6.7778,-0.7492 14.8187,-1.87692 17.8687,-2.50605 3.05,-0.62913 10.5364,-1.50013 16.6364,-1.93559 6.1,-0.43545 12.8086,-1.58064 14.9081,-2.54486 2.09943,-0.96422 5.70393,-1.6673 8.01013,-1.5624 10.8452,0.49334 33.5105,-3.5393 32.6402,-5.80737 -0.3165,-0.82486 -0.9576,-3.61869 -1.4246,-6.2085 -0.467,-2.58979 -1.3306,-5.31921 -1.9191,-6.06537 -0.5885,-0.74616 -1.4046,-3.79764 -1.8135,-6.78109 -0.941,-6.8653 0.6066,-8.29837 13.0635,-12.09585 5.0833,-1.54966 10.2053,-3.31515 11.3822,-3.92332 1.177,-0.60815 4.0756,-1.10574 6.4414,-1.10574 6.0918,0 6.7827,1.23049 13.7278,24.45187 l 2.3375,7.81549 7.3939,-0.689 c 12.3418,-1.15005 48.6205,-5.62785 65.9294,-8.13747 5.0833,-0.73704 12.847,-1.85824 17.2525,-2.49156 4.4056,-0.63333 10.8887,-1.16965 14.4071,-1.19182 3.5183,-0.0222 6.693,-0.51936 7.0549,-1.10484 0.3619,-0.58549 4.415,-1.38679 9.0071,-1.78066 4.592,-0.39387 15.0037,-1.6331 23.137,-2.75383 25.9628,-3.57753 30.4992,-4.17145 46.2122,-6.05027 14.8305,-1.77329 24.031,-3.00144 42.5152,-5.67521 4.7445,-0.6863 15.2808,-2.04546 23.4142,-3.02038 18.3471,-2.19918 29.3658,-3.67209 41.2828,-5.51844 5.0834,-0.78756 15.6197,-2.12051 23.4142,-2.9621 7.7944,-0.84158 15.0035,-1.84487 16.0202,-2.22953 1.0167,-0.38467 8.2258,-1.37203 16.0202,-2.19414 7.7945,-0.8221 18.0536,-2.04306 22.798,-2.71323 15.2078,-2.14818 24.2935,-3.34453 40.0506,-5.27364 8.4722,-1.03724 19.2859,-2.46117 24.0303,-3.16429 20.151,-2.98632 26.6256,-3.8463 40.0505,-5.31964 7.7945,-0.85542 15.0036,-1.9013 16.0203,-2.32417 1.0166,-0.42288 4.8984,-1.07447 8.6262,-1.44799 18.5352,-1.85721 20.8146,-2.29797 21.5305,-4.16342 0.4027,-1.04953 0.1594,-2.48097 -0.5405,-3.18096 -0.7,-0.7 -1.2728,-2.42479 -1.2728,-3.83286 0,-1.40809 -0.7532,-3.65401 -1.6736,-4.99092 -0.9205,-1.33692 -2.4022,-6.14106 -3.2924,-10.67587 -2.0242,-10.31059 -1.4784,-11.08113 10.2919,-14.52939 4.8652,-1.42533 14.8347,-4.50916 22.1543,-6.85296 7.3198,-2.34381 14.6298,-4.26147 16.2445,-4.26147 3.8549,0 8.0329,5.89961 8.0329,11.34277 0,2.30149 0.4582,4.71134 1.0181,5.35523 1.0393,1.19517 2.331,5.32318 5.7649,18.42325 1.066,4.06667 2.4124,8.50303 2.9918,9.85859 0.5796,1.35556 2.5312,7.45556 4.337,13.55557 1.8058,6.1 4.9719,16.08183 7.0358,22.18183 2.0639,6.10001 4.0278,12.20001 4.3644,13.55557 0.3365,1.35556 1.3886,4.2121 2.3378,6.34786 0.9493,2.13577 1.726,4.41864 1.726,5.07305 0,0.6544 1.1651,4.17514 2.5889,7.82387 1.4239,3.64871 3.4312,8.85222 4.4606,11.56333 1.0295,2.71111 2.3567,6.03839 2.9494,7.39394 1.5552,3.5575 9.2807,24.18788 13.4971,36.04317 1.9884,5.59041 3.6152,11.7431 3.6152,13.67267 0,4.03809 -3.3261,7.58724 -7.1102,7.58724 -1.4317,0 -2.9062,0.49057 -3.2767,1.09013 -0.3706,0.59958 -3.1632,1.46343 -6.2056,1.91969 -3.0425,0.45626 -5.8686,1.37429 -6.2801,2.04008 -0.8339,1.34927 2.6697,0.7386 12.5515,-2.18765 3.4733,-1.02857 7.3551,-1.67091 8.6263,-1.4274 3.1683,0.60698 7.0582,8.80221 11.0174,23.21164 1.2105,4.40556 2.5678,8.56465 3.0161,9.24243 0.4485,0.67778 2.0959,4.83688 3.6609,9.24243 1.5651,4.40556 3.5629,9.67375 4.4397,11.70709 0.8768,2.03333 4.1805,10.35152 7.3414,18.48486 3.1611,8.133338 6.4631,16.451528 7.338,18.484858 0.875,2.03334 3.6619,9.24244 6.1931,16.02022 2.5312,6.77778 5.0852,12.85006 5.6755,13.49395 0.5904,0.64389 1.0733,1.94644 1.0733,2.89457 0,0.94813 0.7669,3.47131 1.7041,5.60708 0.9373,2.13576 5.4287,13.58776 9.9812,25.44889 4.5523,11.8611195 8.7764,22.5285995 9.3867,23.7055195 0.6104,1.17691 1.1099,2.74437 1.1099,3.48325 0,0.73886 1.8968,5.8759405 4.215,11.4157205 2.3182,5.53978 5.6834,13.86594 7.4779,18.5026 1.7946,4.63664 4.2446,10.1821 5.4443,12.32324 1.1997,2.14113 3.423,7.22024 4.9405,11.28691 1.5176,4.06667 4.3974,10.93616 6.3997,15.26555 2.0021,4.32938 4.8227,10.70665 6.2678,14.17173 1.445,3.46506 3.0913,6.82694 3.6583,7.47083 0.567,0.64389 1.0332,2.03025 1.036,3.08081 0,1.050562 1.3892,4.638192 3.0808,7.972502 1.6916,3.33431 3.0757,6.50779 3.0757,7.05217 0,0.54439 1.3035,3.91631 2.8968,7.49317 1.5933,3.57687 5.551,12.88068 8.795,20.67513 3.2439,7.79445 7.434,17.499 9.311,21.56567 9.7567,21.13728 11.5716,27.93275 8.3265,31.17781 -1.9154,1.91542 -11.1473,1.91542 -13.0627,0 -1.0652,-1.06519 -1.4787,-1.08552 -1.4787,-0.0727 0,0.77333 0.5545,1.74879 1.2323,2.16768 1.7208,1.0635 1.5431,8.43877 -0.2465,10.22829 -0.8133,0.81334 -4.0297,1.47879 -7.1475,1.47879 -3.1178,0 -6.2636,0.59494 -6.9907,1.32209 -2.2428,2.24273 -9.5063,0.84365 -10.7897,-2.07827 -1.7026,-3.8762 -7.538,-5.40547 -20.6262,-5.40547 -14.1402,0 -15.8156,-1.13239 -15.8156,-10.68887 0,-6.98707 1.8945,-9.4726 8.2491,-10.82242 3.1778,-0.67499 4.543,-2.05385 7.0859,-7.15688 4.3374,-8.70411 4.3581,-20.90402 0.057,-33.71665 -4.5178,-13.45925 -5.9635,-15.25161 -12.3018,-15.25161 -2.8891,0 -5.8135,-0.69318 -6.4988,-1.5404 -0.6852,-0.84722 -1.6274,-4.90316 -2.0937,-9.01319 -0.6841,-6.02943 -0.4726,-7.78425 1.095,-9.08525 1.0686,-0.88685 1.9429,-2.18584 1.9429,-2.88665 0,-1.6341 -10.6523,-22.738302 -19.109,-37.858392 -3.6013,-6.4389 -9.0772,-17.01885 -12.1687,-23.51099 -3.0917,-6.49214 -6.645,-13.14669 -7.8963,-14.78789 -1.2513,-1.6412 -3.051,-4.9249 -3.9994,-7.29712 -0.9482,-2.37223 -3.5237,-7.64041 -5.7231,-11.7070805 -8.2138,-15.18739 -26.7972,-53.8338695 -28.1469,-58.5354095 -0.4866,-1.69444 -1.6072,-3.91263 -2.4904,-4.92929 -1.7758,-2.04395 -9.1935,-17.64382 -9.1935,-19.33434 0,-0.58683 -1.5999,-4.15055 -3.5553,-7.91938 -1.9553,-3.76882 -3.9352,-8.58203 -4.3994,-10.69603 -0.4643,-2.11401 -1.9145,-6.05881 -3.2225,-8.766228 -1.3081,-2.70743 -2.3784,-5.51144 -2.3784,-6.23116 0,-0.71971 -0.508,-2.27151 -1.1287,-3.44842 -0.6208,-1.17692 -2.0341,-4.35803 -3.1406,-7.06915 -1.1065,-2.71111 -2.6174,-6.01723 -3.3578,-7.34693 -0.7404,-1.3297 -2.5539,-4.65698 -4.0301,-7.39394 -1.4761,-2.73697 -4.4893,-8.1443 -6.6959,-12.01626 -2.2068,-3.87198 -3.8323,-8.26398 -3.6124,-9.76001 0.4989,-3.39408 5.6929,-6.29947 14.8585,-8.31151 3.8858,-0.85297 7.4384,-2.1551 7.8948,-2.89362 0.5359,-0.86716 0,-1.08514 -1.5193,-0.61539 -13.2524,4.10322 -16.6188,4.97424 -21.2102,5.48791 -6.1105,0.68362 -10.0988,-1.90773 -10.0988,-6.56148 0,-5.07417 -2.1893,-4.33623 -8.2267,2.7729 -3.2697,3.85014 -7.6086,8.77502 -9.642,10.94421 -2.0333,2.16917 -6.1606,6.92866 -9.1718,10.57661 -3.0112,3.64796 -7.0149,8.29629 -8.897,10.32962 -1.8822,2.03334 -5.2412,5.98269 -7.4645,8.77636 -2.2234,2.79365 -8.686,10.28002 -14.3614,16.63638 -5.6755,6.35634 -13.4391,15.128608 -17.2526,19.493918 -3.8134,4.36532 -9.9835,11.35397 -13.7113,15.53037 -3.7278,4.17638 -13.0143,14.74569 -20.6368,23.48734 -7.6225,8.74164 -22.0407,25.26515 -32.0404,36.7189 -32.9989,37.79698 -45.9558,52.81865 -51.6596,59.89224 -1.913,2.37223 -14.7876,17.34497 -28.6103,33.27276 -13.8229,15.92779 -39.0577,45.015412 -56.0775,64.639142 -17.0199,19.62374 -33.5179,38.4783 -36.6623,41.89902 -3.1443,3.42074 -5.917,7.28373 -6.1616,8.58445 -0.2445,1.30071 -1.9741,3.24162 -3.8435,4.31313 -4.0904,2.34458 -36.3011,39.68385 -37.9307,43.96999 -0.6317,1.66166 -2.0408,3.36352 -3.131,3.78189 -2.9422,1.12904 -13.1809,12.40257 -15.3147,16.86244 -1.3567,2.83585 -3.0804,4.18241 -6.4078,5.00586 -5.6321,1.39381 -8.3726,-0.47918 -8.3726,-5.7224 0,-6.14664 -6.8735,-18.86091 -12.67,-23.4364 -9.8108,-7.74411 -23.2992,-11.57826 -29.9011,-8.49952 -1.6637,0.77584 -4.5499,2.07987 -6.4138,2.89786 -1.8639,0.818 -4.3103,2.24593 -5.4365,3.17319 -3.1284,2.57585 -8.7141,1.40326 -10.4598,-2.19579 -1.9974,-4.11791 -10.2906,-30.29045 -10.2906,-32.47604 0,-0.95 -0.8318,-2.41761 -1.8485,-3.26137 -1.0166,-0.84376 -1.8484,-3.17071 -1.8484,-5.17099 0,-2.00029 -1.3864,-7.76679 -3.0809,-12.81446 -1.6944,-5.04766 -3.0808,-10.00524 -3.0808,-11.01683 0,-1.01161 -0.501,-2.8022 -1.1134,-3.97912 -1.5941,-3.06397 -7.5128,-22.30515 -7.5128,-24.42364 0,-0.97898 -0.5077,-2.7429 -1.1282,-3.91981 -0.6205,-1.17692 -2.3524,-6.29894 -3.8486,-11.38228 -1.4961,-5.08334 -3.416,-11.46062 -4.2662,-14.17173 -0.85,-2.71111 -3.0498,-9.92021 -4.8882,-16.020212 -1.8384,-6.10001 -3.8472,-12.05385 -4.4642,-13.23077 -0.6171,-1.17692 -1.1218,-2.84566 -1.1218,-3.70832 0,-0.86266 -2.2182,-8.42137 -4.9293,-16.79712 -2.7111,-8.37575 -4.9293,-16.51747 -4.9293,-18.0927 0,-1.57524 -0.5546,-3.2068 -1.2323,-3.62569 -0.6778,-0.41889 -1.2324,-2.04736 -1.2324,-3.6188 0,-1.57146 -0.8318,-3.54755 -1.8485,-4.39131 -1.0166,-0.84376 -1.8484,-3.2291 -1.8484,-5.30078 0,-3.62558 -1.7592,-10.51008 -3.6959,-14.4638 -0.5108,-1.04273 -1.3224,-4.2263305 -1.8036,-7.0746705 -0.4813,-2.84835 -1.9363,-7.37524 -3.2333,-10.05976 -1.297,-2.68452 -2.3582,-5.98411 -2.3582,-7.3324095 0,-1.3483 -0.4905,-2.75462 -1.0901,-3.12518 -0.5995,-0.37055 -1.4634,-3.16308 -1.9197,-6.20562 -0.4562,-3.04255 -1.3521,-5.85482 -1.9907,-6.24951 -0.6386,-0.39469 -1.1611,-2.3158 -1.1611,-4.26913 0,-1.95333 -0.4917,-3.85539 -1.0926,-4.2268 -0.601,-0.3714 -1.4553,-2.76095 -1.8986,-5.3101 -0.7367,-4.23703 -1.7945,-7.75648 -4.3564,-14.49342 -0.5153,-1.35556 -1.5048,-4.40556 -2.1987,-6.77779 -2.9849,-10.20528 -8.1261,-26.68892 -9.0323,-28.95962 -0.541,-1.35555 -1.3171,-3.85101 -1.7248,-5.54546 -1.2599,-5.237728 -5.8598,-20.230758 -6.8179,-22.222278 -0.4999,-1.03892 -1.2888,-3.81165 -1.7534,-6.16162 -0.4646,-2.34998 -1.3318,-5.38178 -1.9271,-6.73734 -1.7055,-3.88294 -7.4002,-23.01504 -7.4002,-24.86194 0,-0.91656 -0.5388,-2.6294 -1.1972,-3.80632 -1.4389,-2.57148 -5.8961,-16.99682 -7.8959,-25.55401 l -1.44,-6.16162 -8.4004,0.42603 c -4.6201,0.23431 -10.1488,0.92749 -12.2859,1.5404 -2.1371,0.61291 -5.9427,1.11438 -8.457,1.11438 -2.5142,0 -5.8452,0.54015 -7.4021,1.20035 -1.5569,0.66019 -8.6534,1.78241 -15.7701,2.49383 -12.91793,1.29134 -21.98773,2.41682 -39.43443,4.8934 -5.0833,0.72158 -16.1742,2.1559 -24.6464,3.18737 -8.4723,1.03145 -19.2859,2.37528 -24.0304,2.98628 -4.7444,0.61099 -15.8353,2.02202 -24.6465,3.13562 -8.8111,1.11359 -19.3475,2.49878 -23.4141,3.0782 -4.0667,0.57941 -14.8803,1.95032 -24.0304,3.04646 -15.4808,1.85454 -22.2163,2.76177 -41.28286,5.56053 -4.0667,0.59695 -14.6031,1.9678 -23.4142,3.04636 -17.57386,2.15118 -27.24736,3.43372 -41.28276,5.47336 -5.0834,0.73871 -16.1743,2.21213 -24.6465,3.27426 -8.47227,1.06212 -19.28591,2.41928 -24.03036,3.01591 -4.74445,0.59663 -10.01264,1.36218 -11.70708,1.70123 -1.69445,0.33905 -10.84446,1.49898 -20.33335,2.57762 -9.4889,1.07865 -19.61733,2.49173 -22.50761,3.14018 -2.89028,0.64843 -7.65981,1.17899 -10.59895,1.17899 -2.93913,0 -6.95163,0.5281 -8.91667,1.17355 -1.96503,0.64546 -9.67278,1.78831 -17.12835,2.53969 -7.45556,0.75137 -16.88284,1.84578 -20.94951,2.43205 -26.45582,3.81392 -30.29836,4.30742 -44.36368,5.69763 -3.38889,0.33494 -7.27071,1.10358 -8.62627,1.70807 -1.35556,0.60448 -6.34647,1.37254 -11.09092,1.70677 -10.36947,0.73052 -50.27027,5.63572 -60.38389,7.42329 -2.03334,0.35938 -10.35153,1.48397 -18.48487,2.49909 -8.13334,1.0151 -17.00608,2.1667 -19.71719,2.55909 -2.71111,0.3924 -8.53385,1.16523 -12.9394,1.71738 -4.40556,0.55217 -9.82418,1.76272 -12.04138,2.69011 -2.96323,1.23943 -4.59567,1.33396 -6.16162,0.35679 -1.21039,-0.75529 -3.19468,-0.91363 -4.59501,-0.36668 -1.35555,0.52948 -4.9601,1.00924 -8.0101,1.06614 -9.01968,0.16824 -11.09092,1.11509 -11.09092,5.070068 0,1.9143 0.49168,3.7844 1.09262,4.15581 0.60095,0.3714 1.47133,2.76095 1.93417,5.3101 0.46287,2.54916 1.89272,7.9621 3.17748,12.02877 1.28475,4.06667 3.24256,10.72123 4.3507,14.7879 1.10814,4.06667 2.45115,8.50303 2.98449,9.85859 2.30573,5.86042 7.41005,23.15121 7.41005,25.10142 0,1.17313 0.46688,2.65977 1.03751,3.30366 0.57062,0.64388 2.03118,5.05252 3.24566,9.79697 1.21448,4.7444495 2.68851,9.1530895 3.27562,9.7969795 0.58712,0.64389 1.06748,2.49165 1.06748,4.10614 0,1.61448 1.32871,6.9104 2.95268,11.7687005 5.77347,17.27199 9.37057,29.34892 9.37057,31.46089 0,1.17816 0.50591,2.66891 1.12426,3.3128 1.35676,1.41281 7.50201,19.56746 7.50201,22.16288 0,1.01161 0.48615,2.8022 1.08034,3.97912 1.67653,3.32073 7.59075,22.85963 7.56706,24.99946 -0.0111,1.05055 0.43761,2.436922 0.99829,3.080812 0.56069,0.64389 2.55147,6.71617 4.42398,13.49395 1.87249,6.77778 4.14088,14.54142 5.04085,17.25254 0.89997,2.71111 2.83786,9.08839 4.30644,14.17173 1.46857,5.08333 3.13987,10.14461 3.71401,11.24729 0.57414,1.10267 1.4314,4.15267 1.90503,6.77778 0.47363,2.62511 1.25031,5.32747 1.72595,6.00525 0.47566,0.67778 1.6072,4.44681 2.51458,8.37562 0.90736,3.92881 2.10952,7.42745 2.67146,7.77475 0.56196,0.34731 1.02174,1.91721 1.02174,3.48865 0,1.57146 0.83182,3.54754 1.84848,4.3913 1.01667,0.84376 1.84148,2.99121 1.8329,4.77211 -0.0137,2.83698 4.79079,21.00257 7.3749,27.88449 4.02277,10.71336 4.63483,15.61755 2.1912,17.55746 -0.84722,0.67258 -5.32901,1.51209 -9.95953,1.86558 -9.7996,0.74809 -14.81322,3.96433 -21.46474,13.76966 -3.53062,5.20467 -4.00505,6.88022 -4.00505,14.14458 0,4.76622 -0.62348,8.86403 -1.47879,9.71933 -1.62006,1.62007 -6.3104,1.69182 -13.92527,0.21305 z m 11.11552,-41.55752 c -0.47928,-3.21945 -1.26551,-6.40809 -1.74718,-7.08587 -0.48168,-0.67778 -2.43288,-6.50051 -4.33602,-12.9394 -1.90312,-6.4389 -3.95259,-12.67001 -4.55436,-13.84693 -0.60177,-1.17692 -1.09412,-3.13307 -1.09412,-4.34701 0,-1.21395 -0.74292,-3.30103 -1.65093,-4.63794 -0.908,-1.33692 -2.37738,-6.03532 -3.26528,-10.44088 -0.88789,-4.40556 -2.02185,-8.56465 -2.51991,-9.24243 -0.49805,-0.67778 -1.27915,-3.17324 -1.73579,-5.54546 -0.45662,-2.37223 -1.31736,-5.42223 -1.91276,-6.77778 -1.7055,-3.88295 -7.40019,-23.01504 -7.40019,-24.86195 0,-0.91655 -0.52956,-2.6294 -1.17679,-3.80632 -1.62589,-2.95647 -7.44949,-22.41421 -7.44949,-24.89011 0,-1.1107 -0.44887,-2.54627 -0.9975,-3.19016 -0.54862,-0.64389 -2.55172,-6.43889 -4.45134,-12.877792 -1.8996,-6.43889 -3.94619,-12.67 -4.54796,-13.84692 -0.60176,-1.17692 -1.09411,-2.89492 -1.09411,-3.81778 0,-0.92286 -2.21819,-8.43306 -4.9293,-16.68931 -2.71112,-8.25626 -4.9293,-16.04079 -4.9293,-17.29896 0,-1.25817 -0.82841,-3.87596 -1.8409,-5.81732 -1.01249,-1.94137 -1.8443,-4.6541 -1.84848,-6.02829 -0.004,-1.3742 -0.7876,-3.61216 -1.74097,-4.97326 -0.95335,-1.3611 -2.1324,-5.22768 -2.62009,-8.5924 -0.48771,-3.36471 -1.2924,-6.67219 -1.78823,-7.34997 -0.49581,-0.67778 -1.8999,-5.1141505 -3.12017,-9.8586005 -1.22027,-4.74445 -2.68557,-9.15309 -3.25619,-9.79697 -0.57063,-0.64389 -1.03751,-2.41344 -1.03751,-3.93233 0,-1.5188895 -0.49056,-3.0647995 -1.09013,-3.4353595 -0.59957,-0.37055 -1.47759,-3.25751 -1.95116,-6.41547 -0.47356,-3.15795 -1.34317,-6.63068 -1.93247,-7.71717 -1.50032,-2.76615 -5.74373,-15.91219 -6.79022,-21.03603 -0.47996,-2.34997 -1.30264,-5.1227 -1.82818,-6.16163 -0.52553,-1.03891 -1.664,-4.38438 -2.52992,-7.43439 -0.86593,-3.05 -1.96637,-6.1 -2.44543,-6.77778 -0.47906,-0.67778 -1.27956,-3.70646 -1.77887,-6.73039 -0.49932,-3.02394 -1.37637,-6.35121 -1.94898,-7.39394 -1.46307,-2.66422 -4.81578,-13.35333 -4.81578,-15.35366 0,-0.9155 -0.75488,-3.119588 -1.67751,-4.897968 l -1.67753,-3.23342 -10.33763,10.770268 c -5.68571,5.92366 -14.49675,14.95883 -19.58009,20.07816 -5.08333,5.11933 -14.78073,15.1121 -21.54978,22.20615 -6.76903,7.09404 -26.23288,27.31645 -43.25298,44.9386895 -17.0201,17.62224 -34.36599,35.8496705 -38.54644,40.5054005 -4.18044,4.65572 -8.97799,9.54826 -10.66121,10.87228 -1.68322,1.32402 -3.0604,2.96501 -3.0604,3.64665 0,1.16884 -16.60327,19.15263 -47.53079,51.48286 -7.50303,7.843322 -17.76213,18.681582 -22.798005,24.085032 -5.03587,5.40343 -15.57369,16.49435 -23.41737,24.64648 -27.95475,29.05407 -28.25396,29.41616 -28.25396,34.19169 0,5.15395 -1.57803,6.74152 -7.39888,7.4436 -3.73328,0.45029 -3.53676,0.54594 1.47261,0.71684 3.17945,0.10844 6.12354,-0.35733 6.54244,-1.0351 0.88971,-1.43961 5.94982,-1.65367 7.28212,-0.30809 1.63056,1.64685 27.85558,4.15384 52.452095,5.01417 23.53771,0.82332 24.02424,0.89451 25.43063,3.72112 0.87284,1.75423 1.75818,2.35693 2.26282,1.5404 1.30962,-2.11903 6.2616,-1.56406 8.54356,0.95748 1.61865,1.78858 4.65759,2.48799 13.69188,3.15115 6.38631,0.46879 13.43836,1.41904 15.67121,2.11168 3.69882,1.14738 15.30357,2.77994 42.2618,5.94537 9.26061,1.08738 12.18511,1.58564 28.74556,4.89752 3.61004,0.72195 8.07414,1.31265 9.92021,1.31265 1.84607,0 3.88331,0.50078 4.5272,1.11286 0.64389,0.61205 3.66617,1.40441 6.71617,1.76079 6.01046,0.70229 23.99931,3.74644 33.88892,5.73484 3.38889,0.68137 11.15254,2.12195 17.25254,3.2013 6.10001,1.07934 13.58638,2.43656 16.63638,3.01605 18.07079,3.43333 27.3281,5.10858 33.88892,6.13267 4.06667,0.63479 10.16668,1.75918 13.55557,2.49866 8.90491,1.94313 24.94176,4.81415 31.75805,5.68554 3.23358,0.41337 6.17768,1.23447 6.54243,1.82466 0.36476,0.59018 1.80252,1.07307 3.19504,1.07307 2.32119,0 2.45935,-0.48701 1.66043,-5.85354 z m 822.53513,-44.21279 c 0.018,-2.81132 1.8837,-4.85356 5.0827,-5.56374 3.108,-0.68999 33.1362,-35.03287 33.1362,-37.89748 0,-0.71753 1.3685,-2.20129 3.0411,-3.29722 2.9102,-1.90684 6.1666,-5.50468 28.3832,-31.3595 28.0372,-32.628723 63.017,-72.531982 66.6262,-76.004133 2.2501,-2.164639 6.7087,-7.155549 9.9079,-11.09092 6.2032,-7.630369 10.3491,-12.2888 21.9372,-24.6494395 4.0037,-4.27052 7.8855,-8.8195 8.6263,-10.10886 0.7409,-1.28935 5.506,-7.13313 10.5894,-12.9861805 5.0833,-5.85305 12.2924,-14.18582 16.0202,-18.51725 10.0313,-11.65577 26.7907,-30.84346 34.5051,-39.50473 7.4288,-8.34069 14.5483,-16.68459 21.5337,-25.23735 2.4912,-3.049997 5.187,-6.100007 5.991,-6.777777 1.498,-1.26298 28.1204,-31.95398 34.6347,-39.92777 1.9931,-2.43974 6.1522,-7.25967 9.2424,-10.71093 3.0901,-3.45125 8.1894,-9.27398 11.3317,-12.9394 3.1423,-3.66542 9.754,-11.37803 14.6927,-17.13915 4.9386,-5.76111 12.904,-14.9544 17.7008,-20.42952 4.7969,-5.47512 12.6034,-14.56591 17.3478,-20.20176 4.7445,-5.63585 10.1513,-11.91347 12.0152,-13.95026 2.4503,-2.67762 3.3889,-4.99765 3.3889,-8.37704 0,-2.57058 -0.5225,-4.99672 -1.1611,-5.39141 -0.6386,-0.39469 -1.5237,-3.1349 -1.9667,-6.08936 -0.8462,-5.64256 -4.9046,-9.40045 -8.0519,-7.45541 -1.5321,0.94693 -4.4177,1.36406 -33.8002,4.88602 -14.8375,1.77851 -24.6198,3.10491 -40.6667,5.51406 -4.7444,0.71229 -15.2808,2.01203 -23.4141,2.88828 -8.1334,0.87626 -15.6197,1.9322 -16.6364,2.34653 -1.0167,0.41432 -5.453,1.05465 -9.8586,1.42293 -4.4056,0.36828 -11.8919,1.284 -16.6364,2.03493 -4.7444,0.75091 -15.0035,2.05491 -22.798,2.89777 -7.7944,0.84285 -15.0035,1.87153 -16.0202,2.28595 -1.0167,0.41443 -8.2258,1.32019 -16.0202,2.01282 -7.7945,0.69262 -16.9445,1.83005 -20.3334,2.5276 -3.3889,0.69756 -11.1525,1.85721 -17.2525,2.57703 -29.7852,3.5147 -41.4018,4.94449 -49.6011,6.10497 -18.0344,2.55251 -25.8091,3.59075 -36.5367,4.87909 -6.0313,0.72434 -11.5768,1.80948 -12.3232,2.41143 -0.7465,0.60195 -6.9027,1.41822 -13.6805,1.81393 -6.7778,0.39571 -16.2051,1.31263 -20.9495,2.03762 -11.5686,1.76775 -16.7224,2.36547 -28.064,3.25473 -5.2684,0.41309 -9.8762,1.23187 -10.2394,1.8195 -0.3632,0.58765 -2.7555,1.06844 -5.3161,1.06844 -2.5608,0 -10.1531,0.86286 -16.8718,1.91746 -12.1145,1.90154 -28.0994,3.97295 -56.5796,7.33185 -19.5459,2.30521 -35.6202,4.55558 -36.2252,5.07144 -0.4863,0.41462 5.4298,22.27923 7.2953,26.96211 0.9986,2.50643 3.847,12.02785 6.2673,20.94952 0.7354,2.71111 1.8377,5.89222 2.4494,7.06914 0.6118,1.17692 1.1122,2.95171 1.1122,3.944 0,0.99228 1.901,7.793 4.2243,15.1127 8.407,26.486147 13.0073,41.730597 13.7854,45.682687 0.4364,2.21688 1.2764,4.32916 1.8667,4.69395 0.5902,0.36478 1.0731,1.56819 1.0731,2.67425 0,2.37116 5.8778,22.14702 7.5037,25.24603 0.6175,1.17692 1.1201,2.84055 1.1172,3.69697 -0.012,2.05355 6.0244,21.90399 7.4889,24.64649 0.6285,1.17692 1.1428,2.95981 1.1428,3.96198 0,1.00219 0.7561,4.1983405 1.6804,7.1025905 0.9242,2.90424 3.1652,10.27136 4.9798,16.3713595 1.8147,6.10001 3.8313,12.05385 4.4812,13.23077 0.6501,1.17692 1.1753,3.11783 1.1674,4.31313 -0.012,1.19531 2.0095,8.2733 4.4832,15.72886 7.8184,23.56468 12.4344,37.96811 14.6124,45.596 1.1612,4.06667 3.1779,10.72122 4.4815,14.787893 1.3036,4.06667 2.8497,9.05758 3.4357,11.09092 3.6996,12.83849 7.8678,26.15272 8.6929,27.76774 0.5308,1.03893 1.3451,3.81165 1.8097,6.16162 0.4646,2.34998 1.3042,5.38179 1.8657,6.73734 2.0652,4.98397 7.4616,23.02895 7.4616,24.95006 0,1.08988 1.7331,3.42835 3.8512,5.19661 3.7316,3.11531 3.8621,3.56247 4.207,14.41656 0.1959,6.16083 0.9178,12.24082 1.6045,13.51109 0.6865,1.27027 1.6162,3.41866 2.0657,4.77422 0.7086,2.1368 2.0298,1.15326 9.9317,-7.39394 5.3331,-5.76864 9.1213,-10.9463 9.1312,-12.48044 z m 443.0375,-367.69161 c 0.4188,-0.67778 0.207,-1.23232 -0.4708,-1.23232 -0.6778,0 -1.575,0.55454 -1.9939,1.23232 -0.4188,0.67778 -0.207,1.23232 0.4708,1.23232 0.6777,0 1.575,-0.55454 1.9939,-1.23232 z"
       id="path826"
       inkscape:connector-curvature="0" />
  </g>
</svg>
