<?xml version="1.0" encoding="UTF-8" standalone="no"?>
<!-- Created with Inkscape (http://www.inkscape.org/) -->

<svg
   width="210mm"
   height="297mm"
   viewBox="0 0 210 297"
   version="1.1"
   id="svg1"
   xml:space="preserve"
   inkscape:version="1.3 (0e150ed6c4, 2023-07-21)"
   sodipodi:docname="BlankClipProfile.svg"
   xmlns:inkscape="http://www.inkscape.org/namespaces/inkscape"
   xmlns:sodipodi="http://sodipodi.sourceforge.net/DTD/sodipodi-0.dtd"
   xmlns="http://www.w3.org/2000/svg"
   xmlns:svg="http://www.w3.org/2000/svg"><sodipodi:namedview
     id="namedview1"
     pagecolor="#ffffff"
     bordercolor="#666666"
     borderopacity="1.0"
     inkscape:showpageshadow="2"
     inkscape:pageopacity="0.0"
     inkscape:pagecheckerboard="0"
     inkscape:deskcolor="#d1d1d1"
     inkscape:document-units="mm"
     inkscape:zoom="5.6568543"
     inkscape:cx="131.43347"
     inkscape:cy="1157.799"
     inkscape:window-width="3840"
     inkscape:window-height="2066"
     inkscape:window-x="3829"
     inkscape:window-y="-11"
     inkscape:window-maximized="1"
     inkscape:current-layer="layer1" /><defs
     id="defs1" /><g
     inkscape:label="Layer 1"
     inkscape:groupmode="layer"
     id="layer1"><path
       id="rect6"
       style="fill:#0000ff;fill-rule:evenodd;stroke-width:0.264588"
       d="M -1.3306681 263.06198 C -4.9541685 263.06198 -7.8713542 265.97916 -7.8713542 269.60267 L -7.8713542 274.84369 C -7.8713542 277.01228 -6.824318 278.92423 -5.2079508 280.11158 L -5.2079508 280.11779 C -3.7328764 281.3077 -2.7893537 283.12685 -2.778125 285.17536 L -2.778125 305.46921 C -2.778125 309.09271 0.13906096 312.0099 3.762561 312.0099 L 29.24421 312.0099 C 32.86771 312.0099 35.784896 309.09271 35.784896 305.46921 L 35.784896 274.84369 L 35.784896 269.60267 C 35.784896 265.97916 32.86771 263.06198 29.24421 263.06198 L 3.762561 263.06198 L -1.3306681 263.06198 z " /><path
       id="path2"
       style="fill:#ac9d93;fill-opacity:1;fill-rule:nonzero;stroke:none;stroke-width:0.836593;stroke-miterlimit:4;stroke-dasharray:none;stroke-opacity:1"
       d="m 1.1130733,263 c -0.002,0 -0.003,0.002 -0.004,0.004 a 7.6438545,7.6437695 0 0 0 -7.5893043,7.63992 7.6438545,7.6437695 0 0 0 7.6438648,7.64369 7.6438545,7.6437695 0 0 0 6.3102595,-3.35066 h 20.9514297 0.0142 c 6e-4,0 5.5e-4,-9e-4 10e-4,-0.001 a 5.9684892,5.9684229 0 0 0 5.953246,-5.96737 5.9684892,5.9684229 0 0 0 -5.953946,-5.96796 c -2.1e-4,-2e-5 -1.7e-4,-3.9e-4 -3.9e-4,-3.9e-4 h -0.0142 -27.2616892 z" /></g></svg>
