<?xml version="1.0" encoding="UTF-8" standalone="no"?>
<!-- Created with Inkscape (http://www.inkscape.org/) -->

<svg
   width="210mm"
   height="297mm"
   viewBox="0 0 210 297"
   version="1.1"
   id="svg1"
   xml:space="preserve"
   inkscape:version="1.3 (0e150ed6c4, 2023-07-21)"
   sodipodi:docname="ClipProfile.svg"
   xmlns:inkscape="http://www.inkscape.org/namespaces/inkscape"
   xmlns:sodipodi="http://sodipodi.sourceforge.net/DTD/sodipodi-0.dtd"
   xmlns="http://www.w3.org/2000/svg"
   xmlns:svg="http://www.w3.org/2000/svg"><sodipodi:namedview
     id="namedview1"
     pagecolor="#ffffff"
     bordercolor="#666666"
     borderopacity="1.0"
     inkscape:showpageshadow="2"
     inkscape:pageopacity="0.0"
     inkscape:pagecheckerboard="0"
     inkscape:deskcolor="#d1d1d1"
     inkscape:document-units="mm"
     inkscape:zoom="1.6471871"
     inkscape:cx="454.71459"
     inkscape:cy="580.68692"
     inkscape:window-width="1649"
     inkscape:window-height="1266"
     inkscape:window-x="1141"
     inkscape:window-y="82"
     inkscape:window-maximized="0"
     inkscape:current-layer="layer1" /><defs
     id="defs1" /><g
     inkscape:label="Layer 1"
     inkscape:groupmode="layer"
     id="layer1"><path
       id="path3"
       style="fill:#ffd42a;fill-opacity:1;stroke:none;stroke-width:0.323297px;stroke-linecap:butt;stroke-linejoin:miter;stroke-opacity:1"
       d="M 115.16558 154.71665 L 115.16661 154.71976 L 99.64198 155.20965 C 99.64198 155.20965 97.928968 155.39227 97.13774 155.70109 C 96.552182 155.92965 95.996116 156.26431 95.535254 156.68656 C 95.203026 156.99095 94.918469 157.27684 94.646419 157.63431 C 94.617431 157.6724 94.582665 157.71461 94.551851 157.75316 L 104.93158 157.35732 L 104.93158 157.35422 L 104.97034 157.35629 L 105.00858 157.35422 L 105.00806 157.35732 L 116.56498 157.79812 C 116.56498 157.79812 117.84043 157.96253 118.42946 158.24047 C 118.86538 158.44617 119.27907 158.7472 119.62216 159.12724 C 119.86948 159.40121 120.0816 159.65865 120.28413 159.98042 C 120.52835 160.36837 120.87573 160.78156 120.96523 161.25424 C 121.84977 165.92724 121.71292 177.40142 121.71092 177.58658 L 121.71608 177.59278 C 121.72108 177.59908 121.72108 177.60952 121.71608 177.61552 L 121.71092 177.62172 C 121.71319 177.80849 121.84971 189.28088 120.96523 193.95354 C 120.87576 194.42621 120.52835 194.83994 120.28413 195.22788 C 120.0816 195.54961 119.86948 195.80709 119.62216 196.08105 C 119.27908 196.46109 118.86538 196.7611 118.42946 196.96679 C 117.84044 197.24475 116.56498 197.41069 116.56498 197.41069 L 105.00806 197.85046 L 105.00858 197.85407 L 104.97034 197.85252 L 104.93158 197.85407 L 104.93158 197.85046 L 95.263436 197.48252 C 95.35293 197.57016 95.438587 197.65802 95.535254 197.74659 C 95.996116 198.16886 96.552182 198.50247 97.13774 198.73102 C 97.928968 199.03986 99.64198 199.22402 99.64198 199.22402 L 115.16661 199.71287 L 115.16558 199.71649 L 115.21777 199.71442 L 115.26945 199.71649 L 115.26893 199.71287 L 130.79357 199.22402 C 130.79357 199.22402 132.50658 199.03986 133.29781 198.73102 C 133.88338 198.50247 134.43943 198.16886 134.90029 197.74659 C 135.23251 197.44219 135.51707 197.15632 135.78913 196.79884 C 136.10077 196.38934 136.52842 195.95218 136.67434 195.45939 A 5.9684229 5.9684347 0 0 1 132.0245 197.68923 A 5.9684229 5.9684347 0 0 1 126.05691 191.7361 C 126.05681 191.73565 126.05587 191.73567 126.05587 191.73507 L 126.05587 191.7206 L 126.05587 170.76942 A 7.6437695 7.6437847 0 0 1 122.70517 164.45921 A 7.6437695 7.6437847 0 0 1 130.34915 156.81523 A 7.6437695 7.6437847 0 0 1 137.01231 160.79587 C 136.92058 160.15877 136.82056 159.55943 136.7038 159.04921 C 136.58357 158.524 136.11718 158.06537 135.78913 157.63431 C 135.51707 157.27679 135.23251 156.99097 134.90029 156.68656 C 134.43942 156.26429 133.88338 155.92965 133.29781 155.70109 C 132.50657 155.39227 130.79357 155.20965 130.79357 155.20965 L 115.26893 154.71976 L 115.26945 154.71665 L 115.21777 154.71872 L 115.16558 154.71665 z " /></g></svg>
