<?xml version="1.0" encoding="UTF-8" standalone="no"?>
<!-- Created with Inkscape (http://www.inkscape.org/) -->

<svg
   width="210mm"
   height="297mm"
   viewBox="0 0 210 297"
   version="1.1"
   id="svg1"
   xml:space="preserve"
   inkscape:version="1.3 (0e150ed6c4, 2023-07-21)"
   sodipodi:docname="ClipProfile.svg"
   xmlns:inkscape="http://www.inkscape.org/namespaces/inkscape"
   xmlns:sodipodi="http://sodipodi.sourceforge.net/DTD/sodipodi-0.dtd"
   xmlns="http://www.w3.org/2000/svg"
   xmlns:svg="http://www.w3.org/2000/svg"><sodipodi:namedview
     id="namedview1"
     pagecolor="#ffffff"
     bordercolor="#666666"
     borderopacity="1.0"
     inkscape:showpageshadow="2"
     inkscape:pageopacity="0.0"
     inkscape:pagecheckerboard="0"
     inkscape:deskcolor="#d1d1d1"
     inkscape:document-units="mm"
     inkscape:zoom="1.6471871"
     inkscape:cx="396.73695"
     inkscape:cy="561.25984"
     inkscape:window-width="1649"
     inkscape:window-height="1266"
     inkscape:window-x="1141"
     inkscape:window-y="82"
     inkscape:window-maximized="0"
     inkscape:current-layer="layer1" /><defs
     id="defs1" /><g
     inkscape:label="Layer 1"
     inkscape:groupmode="layer"
     id="layer1"><path
       id="path3"
       style="fill:#ffd42a;fill-opacity:1;stroke:none;stroke-width:0.323297px;stroke-linecap:butt;stroke-linejoin:miter;stroke-opacity:1"
       d="m 115.16581,154.71685 6.3e-4,0.003 -15.524399,0.48977 c 0,0 -1.71306,0.18284 -2.50429,0.49166 -0.58556,0.22856 -1.141576,0.56302 -1.60244,0.98527 -0.332228,0.30439 -0.617059,0.59021 -0.889109,0.94768 -0.328056,0.43106 -0.794397,0.88996 -0.914587,1.41517 -1.188192,5.19223 -1.004872,17.94172 -1.001843,18.14745 l -0.007,0.007 c -0.007,0.007 -0.007,0.0184 0,0.0254 l 0.007,0.007 c -0.003,0.20752 -0.186265,12.95496 1.001843,18.14683 0.120183,0.52519 0.586531,0.98474 0.914587,1.41579 0.27205,0.35748 0.556881,0.64328 0.889109,0.94768 0.460864,0.42227 1.01688,0.75609 1.60244,0.98464 0.79123,0.30884 2.50429,0.49294 2.50429,0.49294 l 15.524399,0.48852 -6.3e-4,0.004 0.0522,-0.002 0.0516,0.002 -6.4e-4,-0.004 15.52442,-0.48852 c 0,0 1.71305,-0.1841 2.50428,-0.49294 0.58557,-0.22855 1.14158,-0.56237 1.60244,-0.98464 0.33222,-0.3044 0.61706,-0.5902 0.88912,-0.94768 0.32805,-0.43105 0.79439,-0.8906 0.91458,-1.41579 1.18811,-5.19187 1.00488,-17.93931 1.00183,-18.14683 l 0.007,-0.007 c 0.007,-0.007 0.007,-0.0184 0,-0.0254 l -0.007,-0.007 c 0.002,-0.20573 0.18636,-12.95522 -1.00183,-18.14745 -0.12023,-0.52521 -0.58653,-0.98411 -0.91458,-1.41517 -0.27206,-0.35752 -0.5569,-0.64331 -0.88912,-0.94772 -0.46087,-0.42227 -1.01687,-0.75671 -1.60244,-0.98527 -0.79124,-0.30882 -2.50429,-0.49168 -2.50429,-0.49168 l -15.52441,-0.48976 6.3e-4,-0.003 -0.0516,0.002 z" /><path
       id="path2"
       style="fill:#ac9d93;fill-opacity:1;fill-rule:nonzero;stroke:none;stroke-width:0.836589;stroke-miterlimit:4;stroke-dasharray:none;stroke-opacity:1"
       d="m 137.99291,164.40872 c 0,-0.002 -0.002,-0.003 -0.004,-0.004 a 7.6437695,7.6437847 0 0 0 -7.63992,-7.58924 7.6437695,7.6437847 0 0 0 -7.64369,7.6438 7.6437695,7.6437847 0 0 0 3.35066,6.3102 v 20.95124 0.0142 c 0,6e-4 9e-4,5.5e-4 0.001,0.001 a 5.9684229,5.9684347 0 0 0 5.96737,5.95319 5.9684229,5.9684347 0 0 0 5.96796,-5.95389 c 2e-5,-2.1e-4 3.9e-4,-1.7e-4 3.9e-4,-3.9e-4 v -0.0142 -27.26144 z" /><path
       id="path1"
       style="fill:#0000ff;fill-opacity:1;stroke:none;stroke-width:0.264628px;stroke-linecap:butt;stroke-linejoin:miter;stroke-opacity:1"
       d="m 104.93134,157.35445 4.7e-4,0.003 -11.55697,0.44079 c 0,0 -1.275263,0.16456 -1.864288,0.4425 -0.435916,0.2057 -0.849832,0.50671 -1.192917,0.88674 -0.247323,0.27395 -0.459362,0.53118 -0.661887,0.85291 -0.244217,0.38795 -0.591379,0.80096 -0.680854,1.27364 -0.884536,4.673 -0.748065,16.1475 -0.74581,16.33266 l -0.0052,0.006 c -0.0052,0.006 -0.0052,0.0166 0,0.0229 l 0.0052,0.006 c -0.0023,0.18677 -0.138663,11.65943 0.74581,16.33209 0.08947,0.47267 0.436637,0.88627 0.680854,1.27421 0.202525,0.32173 0.414564,0.57895 0.661887,0.85291 0.343085,0.38004 0.757001,0.68048 1.192917,0.88617 0.589025,0.27796 1.864288,0.44365 1.864288,0.44365 l 11.55697,0.43966 -4.7e-4,0.004 0.0389,-0.002 0.0384,0.002 -4.8e-4,-0.004 11.55698,-0.43966 c 0,0 1.27526,-0.16569 1.86428,-0.44365 0.43592,-0.20569 0.84984,-0.50613 1.19292,-0.88617 0.24732,-0.27396 0.45936,-0.53118 0.66189,-0.85291 0.24422,-0.38794 0.59138,-0.80154 0.68085,-1.27421 0.88448,-4.67266 0.74808,-16.14532 0.74581,-16.33209 l 0.005,-0.006 c 0.005,-0.006 0.005,-0.0166 0,-0.0229 l -0.005,-0.006 c 0.002,-0.18516 0.13873,-11.65966 -0.74581,-16.33266 -0.0895,-0.47268 -0.43663,-0.88569 -0.68085,-1.27364 -0.20253,-0.32177 -0.41457,-0.57898 -0.66189,-0.85295 -0.34309,-0.38004 -0.757,-0.68104 -1.19292,-0.88674 -0.58903,-0.27794 -1.86429,-0.44251 -1.86429,-0.44251 l -11.55697,-0.44078 4.7e-4,-0.003 -0.0384,0.002 z" /></g></svg>
