<?xml version="1.0" encoding="UTF-8" standalone="no"?>
<!-- Created with Inkscape (http://www.inkscape.org/) -->

<svg
   width="210mm"
   height="297mm"
   viewBox="0 0 210 297"
   version="1.1"
   id="svg1"
   inkscape:version="1.3 (0e150ed6c4, 2023-07-21)"
   sodipodi:docname="HandlebarProfile.svg"
   xmlns:inkscape="http://www.inkscape.org/namespaces/inkscape"
   xmlns:sodipodi="http://sodipodi.sourceforge.net/DTD/sodipodi-0.dtd"
   xmlns="http://www.w3.org/2000/svg"
   xmlns:svg="http://www.w3.org/2000/svg">
  <sodipodi:namedview
     id="namedview1"
     pagecolor="#ffffff"
     bordercolor="#666666"
     borderopacity="1.0"
     inkscape:showpageshadow="2"
     inkscape:pageopacity="0.0"
     inkscape:pagecheckerboard="0"
     inkscape:deskcolor="#d1d1d1"
     inkscape:document-units="mm"
     inkscape:zoom="52.082828"
     inkscape:cx="0.98880959"
     inkscape:cy="1120.5517"
     inkscape:window-width="1649"
     inkscape:window-height="1266"
     inkscape:window-x="623"
     inkscape:window-y="298"
     inkscape:window-maximized="0"
     inkscape:current-layer="layer1" />
  <defs
     id="defs1" />
  <g
     inkscape:label="Layer 1"
     inkscape:groupmode="layer"
     id="layer1">
    <path
       id="path1"
       style="fill:#0000ff;fill-opacity:1;stroke:none;stroke-width:0.264628px;stroke-linecap:butt;stroke-linejoin:miter;stroke-opacity:1"
       d="m 16.711355,276.75003 4.75e-4,0.003 -11.5569735,0.44079 c 0,0 -1.2752636,0.16456 -1.8642884,0.4425 -0.4359156,0.2057 -0.8498321,0.50671 -1.1929165,0.88674 -0.2473233,0.27396 -0.4593625,0.53119 -0.6618878,0.85292 -0.2442163,0.38795 -0.59137875,0.80096 -0.68085385,1.27364 -0.88453612,4.673 -0.74806495,16.1475 -0.74580995,16.33266 l -0.0052,0.006 c -0.0052,0.006 -0.0052,0.0166 0,0.0229 l 0.0052,0.006 c -0.0023,0.18677 -0.13866317,11.65943 0.74580995,16.33209 0.08947,0.47267 0.43663755,0.88627 0.68085385,1.27421 0.2025253,0.32173 0.4145645,0.57895 0.6618878,0.85291 0.3430844,0.38004 0.7570009,0.68048 1.1929165,0.88617 0.5890248,0.27796 1.8642884,0.44365 1.8642884,0.44365 l 11.5569735,0.43966 -4.75e-4,0.004 0.03888,-0.002 0.03841,0.002 -4.74e-4,-0.004 11.556972,-0.43966 c 0,0 1.275264,-0.16569 1.864288,-0.44365 0.435917,-0.20569 0.849833,-0.50613 1.192917,-0.88617 0.247323,-0.27396 0.459362,-0.53118 0.661889,-0.85291 0.244215,-0.38794 0.591378,-0.80154 0.680854,-1.27421 0.884473,-4.67266 0.748073,-16.14532 0.745809,-16.33209 l 0.0052,-0.006 c 0.0052,-0.006 0.0052,-0.0166 0,-0.0229 l -0.0052,-0.006 c 0.0023,-0.18516 0.138727,-11.65966 -0.745809,-16.33266 -0.08948,-0.47268 -0.436639,-0.88569 -0.680854,-1.27364 -0.202533,-0.32177 -0.414572,-0.57899 -0.661895,-0.85295 -0.343084,-0.38004 -0.757,-0.68104 -1.192917,-0.88674 -0.589025,-0.27794 -1.864288,-0.44251 -1.864288,-0.44251 l -11.556972,-0.44078 4.74e-4,-0.003 -0.03841,0.002 z" />
  </g>
</svg>
