<?xml version="1.0" encoding="UTF-8" standalone="no"?>
<!-- Created with Inkscape (http://www.inkscape.org/) -->

<svg
   width="210mm"
   height="297mm"
   viewBox="0 0 210 297"
   version="1.1"
   id="svg1"
   xml:space="preserve"
   inkscape:version="1.3 (0e150ed6c4, 2023-07-21)"
   sodipodi:docname="HolderShape.svg"
   xmlns:inkscape="http://www.inkscape.org/namespaces/inkscape"
   xmlns:sodipodi="http://sodipodi.sourceforge.net/DTD/sodipodi-0.dtd"
   xmlns="http://www.w3.org/2000/svg"
   xmlns:svg="http://www.w3.org/2000/svg"><sodipodi:namedview
     id="namedview1"
     pagecolor="#ffffff"
     bordercolor="#666666"
     borderopacity="1.0"
     inkscape:showpageshadow="2"
     inkscape:pageopacity="0.0"
     inkscape:pagecheckerboard="0"
     inkscape:deskcolor="#d1d1d1"
     inkscape:document-units="mm"
     inkscape:zoom="256"
     inkscape:cx="2.1601562"
     inkscape:cy="1123.457"
     inkscape:window-width="3291"
     inkscape:window-height="1757"
     inkscape:window-x="-11"
     inkscape:window-y="-11"
     inkscape:window-maximized="1"
     inkscape:current-layer="layer1" /><defs
     id="defs1" /><g
     inkscape:label="Layer 1"
     inkscape:groupmode="layer"
     id="layer1"><path
       id="path2"
       style="opacity:1;fill:#ac9d93;fill-opacity:1;fill-rule:nonzero;stroke:none;stroke-width:0.836589;stroke-miterlimit:4;stroke-dasharray:none;stroke-opacity:1"
       d="m 7.5932349,289.35627 c -0.002,0 -0.003,0.002 -0.004,0.004 A 7.6437847,7.6437695 0 0 0 0,297.00019 a 7.6437847,7.6437695 0 0 0 7.643795,7.64369 7.6437847,7.6437695 0 0 0 6.310202,-3.35066 h 20.951238 0.0142 c 6e-4,0 5.5e-4,-9e-4 10e-4,-0.001 a 5.9684347,5.9684229 0 0 0 5.953192,-5.96737 5.9684347,5.9684229 0 0 0 -5.953892,-5.96796 c -2.1e-4,-2e-5 -1.7e-4,-3.9e-4 -3.9e-4,-3.9e-4 h -0.0142 -27.26144 z" /></g></svg>
