<?xml version="1.0" encoding="UTF-8" standalone="no"?>
<!-- Created with Inkscape (http://www.inkscape.org/) -->

<svg
   width="210mm"
   height="297mm"
   viewBox="0 0 210 297"
   version="1.1"
   id="svg1"
   xml:space="preserve"
   inkscape:version="1.3 (0e150ed6c4, 2023-07-21)"
   sodipodi:docname="HolderShapeWithHoles.svg"
   xmlns:inkscape="http://www.inkscape.org/namespaces/inkscape"
   xmlns:sodipodi="http://sodipodi.sourceforge.net/DTD/sodipodi-0.dtd"
   xmlns="http://www.w3.org/2000/svg"
   xmlns:svg="http://www.w3.org/2000/svg"><sodipodi:namedview
     id="namedview1"
     pagecolor="#ffffff"
     bordercolor="#666666"
     borderopacity="1.0"
     inkscape:showpageshadow="2"
     inkscape:pageopacity="0.0"
     inkscape:pagecheckerboard="0"
     inkscape:deskcolor="#d1d1d1"
     inkscape:document-units="mm"
     inkscape:zoom="5.6568543"
     inkscape:cx="-38.714096"
     inkscape:cy="1112.8977"
     inkscape:window-width="3840"
     inkscape:window-height="2066"
     inkscape:window-x="-11"
     inkscape:window-y="-11"
     inkscape:window-maximized="1"
     inkscape:current-layer="layer1" /><defs
     id="defs1" /><g
     inkscape:label="Layer 1"
     inkscape:groupmode="layer"
     id="layer1"><path
       id="path2"
       style="opacity:1;fill:#ac9d93;fill-opacity:1;fill-rule:nonzero;stroke:none;stroke-width:0.836589;stroke-miterlimit:4;stroke-dasharray:none;stroke-opacity:1"
       d="M 7.593335 289.3565 C 7.591335 289.3565 7.5902008 289.35812 7.5892008 289.36012 A 7.6437847 7.6437695 0 0 0 0 296.99996 A 7.6437847 7.6437695 0 0 0 7.6439779 304.64394 A 7.6437847 7.6437695 0 0 0 13.954187 301.29324 L 34.905363 301.29324 L 34.919316 301.29324 C 34.919916 301.29324 34.919899 301.2923 34.920349 301.2922 A 5.9684347 5.9684229 0 0 0 40.873474 295.32461 A 5.9684347 5.9684229 0 0 0 34.919832 289.35701 L 34.919316 289.3565 L 34.905363 289.3565 L 7.6434611 289.3565 L 7.593335 289.3565 z M 17.059941 291.8349 L 18.647957 292.75577 L 20.240108 293.67045 L 20.235974 295.50651 L 20.240108 297.34257 L 18.647957 298.25725 L 17.059941 299.17864 L 15.471924 298.25725 L 13.879773 297.34257 L 13.883907 295.50651 L 13.879773 293.67045 L 15.471924 292.75577 L 17.059941 291.8349 z M 25.923482 291.8349 L 27.511499 292.75577 L 29.10365 293.67045 L 29.099516 295.50651 L 29.10365 297.34257 L 27.511499 298.25725 L 25.923482 299.17864 L 24.335465 298.25725 L 22.743315 297.34257 L 22.747449 295.50651 L 22.743315 293.67045 L 24.335465 292.75577 L 25.923482 291.8349 z M 34.787024 291.8349 L 36.375041 292.75577 L 37.967192 293.67045 L 37.963057 295.50651 L 37.967192 297.34257 L 36.375041 298.25725 L 34.787024 299.17864 L 33.199007 298.25725 L 31.606856 297.34257 L 31.61099 295.50651 L 31.606856 293.67045 L 33.199007 292.75577 L 34.787024 291.8349 z M 7.4104004 292.49998 A 4.5 4.5 0 0 1 11.910384 296.99996 A 4.5 4.5 0 0 1 7.4104004 301.49994 A 4.5 4.5 0 0 1 2.9104167 296.99996 A 4.5 4.5 0 0 1 7.4104004 292.49998 z " /></g></svg>
