<?xml version="1.0" encoding="UTF-8" standalone="no"?>
<!-- Created with Inkscape (http://www.inkscape.org/) -->

<svg
   width="210mm"
   height="297mm"
   viewBox="0 0 210 297"
   version="1.1"
   id="svg1"
   xml:space="preserve"
   inkscape:version="1.3 (0e150ed6c4, 2023-07-21)"
   sodipodi:docname="HolderHollow.svg"
   xmlns:inkscape="http://www.inkscape.org/namespaces/inkscape"
   xmlns:sodipodi="http://sodipodi.sourceforge.net/DTD/sodipodi-0.dtd"
   xmlns="http://www.w3.org/2000/svg"
   xmlns:svg="http://www.w3.org/2000/svg"><sodipodi:namedview
     id="namedview1"
     pagecolor="#ffffff"
     bordercolor="#666666"
     borderopacity="1.0"
     inkscape:showpageshadow="2"
     inkscape:pageopacity="0.0"
     inkscape:pagecheckerboard="0"
     inkscape:deskcolor="#d1d1d1"
     inkscape:document-units="mm"
     inkscape:zoom="2.8284271"
     inkscape:cx="92.630988"
     inkscape:cy="1166.903"
     inkscape:window-width="1920"
     inkscape:window-height="1001"
     inkscape:window-x="-9"
     inkscape:window-y="-9"
     inkscape:window-maximized="1"
     inkscape:current-layer="layer1" /><defs
     id="defs1" /><g
     inkscape:label="Layer 1"
     inkscape:groupmode="layer"
     id="layer1"><path
       id="path1"
       style="opacity:1;fill:#800080;fill-opacity:1;fill-rule:nonzero;stroke:none;stroke-width:0.836589;stroke-miterlimit:4;stroke-dasharray:none;stroke-opacity:1"
       d="M 37.645247 289.58749 C 37.098254 289.57703 36.550086 289.58993 36.004004 289.59989 L 36.004004 289.59938 C 27.334968 289.60338 18.664202 289.58641 9.9962891 289.60351 C 7.0944112 289.91636 4.3256249 291.47492 2.7161133 293.934 C 0.45584273 297.15197 0.50655421 301.74797 2.8158488 304.92557 C 4.6768882 307.66251 7.9963726 309.31703 11.306803 309.07467 C 13.908072 308.93504 16.462571 307.73194 18.154447 305.73844 C 24.824057 305.77904 31.49487 305.80156 38.164079 305.72656 C 42.385367 305.81906 46.16571 301.98904 46.130001 297.78647 C 46.211071 293.91017 43.163129 290.19605 39.279773 289.71358 C 38.737971 289.63163 38.192241 289.59796 37.645247 289.58749 z M 10.743014 291.71243 L 10.793656 291.71294 L 38.055042 291.71294 L 38.068994 291.71294 L 38.069511 291.71294 A 5.9684347 5.9684229 0 0 1 44.023669 297.68105 A 5.9684347 5.9684229 0 0 1 38.070028 303.64865 C 38.069578 303.64875 38.069594 303.64917 38.068994 303.64917 L 38.055042 303.64917 L 17.103866 303.64917 A 7.6437847 7.6437695 0 0 1 10.793656 306.99987 A 7.6437847 7.6437695 0 0 1 3.1496785 299.3564 A 7.6437847 7.6437695 0 0 1 10.738879 291.71656 C 10.739879 291.71456 10.741014 291.71243 10.743014 291.71243 z " /></g></svg>
