<?xml version="1.0" encoding="UTF-8" standalone="no"?>
<!-- Created with Inkscape (http://www.inkscape.org/) -->

<svg
   width="210mm"
   height="297mm"
   viewBox="0 0 210 297"
   version="1.1"
   id="svg1"
   xml:space="preserve"
   inkscape:version="1.3 (0e150ed6c4, 2023-07-21)"
   sodipodi:docname="RibblePanel.svg"
   xmlns:inkscape="http://www.inkscape.org/namespaces/inkscape"
   xmlns:sodipodi="http://sodipodi.sourceforge.net/DTD/sodipodi-0.dtd"
   xmlns="http://www.w3.org/2000/svg"
   xmlns:svg="http://www.w3.org/2000/svg"><sodipodi:namedview
     id="namedview1"
     pagecolor="#ffffff"
     bordercolor="#666666"
     borderopacity="1.0"
     inkscape:showpageshadow="2"
     inkscape:pageopacity="0.0"
     inkscape:pagecheckerboard="0"
     inkscape:deskcolor="#d1d1d1"
     inkscape:document-units="mm"
     inkscape:zoom="256"
     inkscape:cx="-0.328125"
     inkscape:cy="1122.9082"
     inkscape:window-width="1920"
     inkscape:window-height="1001"
     inkscape:window-x="-9"
     inkscape:window-y="-9"
     inkscape:window-maximized="1"
     inkscape:current-layer="layer1" /><defs
     id="defs1" /><g
     inkscape:label="Layer 1"
     inkscape:groupmode="layer"
     id="layer1"><path
       id="rect1"
       style="fill:#ff00ff;fill-opacity:0.66581;fill-rule:evenodd;stroke-width:0.15718"
       d="m 7.4998162,278.875 c -2.0535762,0 -3.9073528,0.81943 -5.2591003,2.14768 -0.0157,0.0155 -0.0335,0.0288 -0.0491,0.0444 -0.0154,0.0154 -0.0286,0.033 -0.0439,0.0486 -0.1524998,0.1552 -0.3006895,0.31516 -0.4392492,0.48318 -0.1526898,0.18516 -0.2963995,0.37767 -0.4309892,0.57723 -0.1345198,0.19943 -0.2594496,0.40548 -0.37464936,0.61805 v 5.1e-4 c -0.11510979,0.21244 -0.22064959,0.43094 -0.31522942,0.65526 v 5.2e-4 c -0.0945998,0.22432 -0.17886967,0.45439 -0.25165954,0.68936 v 5.2e-4 c -0.0727999,0.23497 -0.13420975,0.47495 -0.18396966,0.71933 v 5.2e-4 c -0.0496999,0.24439 -0.08769984,0.49312 -0.11316979,0.74569 v 5.2e-4 C 0.01329998,285.85894 0,286.11528 0,286.3748 v 5.1e-4 21.24935 5.2e-4 c 1.9999963e-5,0.25951 0.01329998,0.51585 0.03879993,0.76843 v 5.1e-4 c 0.02549995,0.25257 0.06339988,0.5013 0.11316979,0.74569 v 5.2e-4 c 0.0497999,0.24439 0.1111798,0.48436 0.18396966,0.71934 v 5.1e-4 c 0.0727999,0.23498 0.15708972,0.46504 0.25165954,0.68937 v 5.1e-4 c 0.0945998,0.22433 0.20009963,0.44281 0.31522942,0.65526 0.11524976,0.21271 0.24005956,0.41901 0.37464936,0.61857 0.1345297,0.19945 0.2783694,0.39163 0.4309892,0.57671 v 5.1e-4 c 0.3051894,0.37012 0.6453188,0.71025 1.0154381,1.01545 h 5.1e-4 c 0.3700293,0.30508 0.7697486,0.57532 1.1947578,0.80563 h 5.2e-4 c 0.2124396,0.1151 0.4309292,0.22066 0.6552588,0.31523 h 5.1e-4 c 0.2243296,0.0945 0.4543892,0.17889 0.6893687,0.25166 h 5.1e-4 c 0.2349796,0.0728 0.4749492,0.13422 0.7193387,0.18397 h 5.2e-4 c 0.2443896,0.0497 0.4931191,0.0877 0.7456886,0.11317 h 5.1e-4 c 0.2525796,0.0255 0.5089191,0.0388 0.7684286,0.0388 h 5.2e-4 12.2493578 c 2.053836,0 3.907703,-0.81928 5.25962,-2.14767 0.0156,-0.0153 0.0331,-0.0285 0.0486,-0.0439 0.0156,-0.0156 0.029,-0.0334 0.0444,-0.0491 0.488489,-0.49713 0.909858,-1.06022 1.244888,-1.67845 v -5.2e-4 c 0.115109,-0.21245 0.220649,-0.43093 0.315229,-0.65526 v -5.1e-4 c 0.0946,-0.22433 0.17887,-0.45439 0.25166,-0.68937 v -5.1e-4 c 0.0728,-0.23498 0.134199,-0.47495 0.183969,-0.71934 v -5.2e-4 c 0.0996,-0.48911 0.15193,-0.99578 0.15193,-1.51515 v -21.24935 c 0,-0.51954 -0.0523,-1.0264 -0.15193,-1.51567 -0.0498,-0.24438 -0.11121,-0.48436 -0.183969,-0.71933 v -5.2e-4 c -0.0728,-0.23497 -0.15712,-0.46504 -0.25166,-0.68936 v -5.2e-4 c -0.0946,-0.22432 -0.20013,-0.44282 -0.315229,-0.65526 v -5.1e-4 c -0.11519,-0.21257 -0.24014,-0.41862 -0.37465,-0.61805 -0.134599,-0.19956 -0.278279,-0.39207 -0.430989,-0.57723 -0.305189,-0.37012 -0.645319,-0.71025 -1.015438,-1.01544 h -5.1e-4 c -0.370039,-0.30514 -0.769739,-0.57528 -1.194758,-0.80564 h -5.2e-4 c -0.212449,-0.11512 -0.430929,-0.22063 -0.655259,-0.31522 h -5.1e-4 c -0.224339,-0.0946 -0.454389,-0.17887 -0.689368,-0.25167 h -5.1e-4 c -0.23498,-0.0728 -0.474949,-0.13419 -0.719339,-0.18397 h -5.2e-4 c -0.24439,-0.0498 -0.493119,-0.0877 -0.745689,-0.11317 h -5.1e-4 c -0.252579,-0.0255 -0.508919,-0.0387 -0.768428,-0.0388 h -5.2e-4 z m -1.0283581,3.46181 a 1.4999972,1.5 0 0 1 1.4996473,1.50017 1.4999972,1.5 0 0 1 -1.4996473,1.50016 1.4999972,1.5 0 0 1 -1.5001572,-1.50016 1.4999972,1.5 0 0 1 1.5001572,-1.50017 z m 14.2895439,26.38133 a 1.4999972,1.5 0 0 1 1.499647,1.50017 1.4999972,1.5 0 0 1 -0.0465,0.35037 1.4999972,1.5 0 0 1 -1.422647,1.02836 1.4999972,1.5 0 0 1 -1.500167,-1.50017 1.4999972,1.5 0 0 1 0.0925,-0.46612 1.4999972,1.5 0 0 1 1.377178,-0.91261 z" /></g></svg>
