<?xml version="1.0" encoding="UTF-8" standalone="no"?>
<!-- Created with Inkscape (http://www.inkscape.org/) -->

<svg
   width="210mm"
   height="297mm"
   viewBox="0 0 210 297"
   version="1.1"
   id="svg5"
   inkscape:version="1.1.2 (b8e25be833, 2022-02-05)"
   sodipodi:docname="VengeLowerDowntubeProfile.svg"
   xmlns:inkscape="http://www.inkscape.org/namespaces/inkscape"
   xmlns:sodipodi="http://sodipodi.sourceforge.net/DTD/sodipodi-0.dtd"
   xmlns="http://www.w3.org/2000/svg"
   xmlns:svg="http://www.w3.org/2000/svg">
  <sodipodi:namedview
     id="namedview7"
     pagecolor="#ffffff"
     bordercolor="#666666"
     borderopacity="1.0"
     inkscape:pageshadow="2"
     inkscape:pageopacity="0.0"
     inkscape:pagecheckerboard="0"
     inkscape:document-units="mm"
     showgrid="false"
     inkscape:zoom="1.8101934"
     inkscape:cx="260.74563"
     inkscape:cy="1229.7029"
     inkscape:window-width="1920"
     inkscape:window-height="1017"
     inkscape:window-x="-8"
     inkscape:window-y="-8"
     inkscape:window-maximized="1"
     inkscape:current-layer="layer1" />
  <defs
     id="defs2" />
  <g
     inkscape:label="Layer 1"
     inkscape:groupmode="layer"
     id="layer1">
    <path
       id="path2819"
       style="fill:#550000;fill-opacity:0.620968;stroke:#000000;stroke-width:0.00628914"
       d="m 13.341163,272.75407 c -1.930615,0.006 -4.2053199,0.0418 -6.4554549,0.0755 -1.1250681,0.0169 -2.2440061,0.0332 -3.3107006,0.045 -1.0666935,0.0118 -2.0811524,0.019 -2.99730315,0.0177 -0.0551696,0.0172 -0.10486316,0.0379 -0.1495968,0.0619 -0.0447297,0.024 -0.0844893,0.0512 -0.11979505,0.0813 -0.0352997,0.0301 -0.0661395,0.063 -0.0930093,0.0986 -0.0268698,0.0355 -0.0497996,0.0736 -0.0692594,0.11387 -0.0389097,0.0806 -0.06396949,0.16994 -0.07922937,0.26543 -0.01526988,0.0955 -0.02072984,0.1971 -0.02040984,0.30209 6.4e-4,0.20998 0.02438981,0.43351 0.03905969,0.64887 0.0072999,0.10768 0.0124099,0.21334 0.01117991,0.31421 -0.0012,0.10087 -0.0087999,0.19696 -0.02661979,0.28558 -0.01425988,6.32251 -0.03316973,12.67415 -0.06687946,18.95097 0.00189998,0.99895 0.00139999,1.99016 0.00149999,2.98501 0,2e-5 0,4e-5 0,7e-5 -3.4e-5,0.99482 4.5699e-4,1.98598 -0.00149999,2.98491 0,3e-5 0,6e-5 0,1e-4 10e-7,1.5e-4 -1e-6,3e-4 0,4.5e-4 0.03371973,6.27665 0.05262958,12.62816 0.06687946,18.95052 0.01785986,0.0886 0.0253798,0.18471 0.02661979,0.28558 0.0012,0.10087 -0.0038,0.20653 -0.01117991,0.31421 -0.01466988,0.21536 -0.03842969,0.43888 -0.03905969,0.64886 -3.21e-4,0.10499 0.0051,0.2066 0.02040984,0.30209 0.01526988,0.0955 0.04032968,0.18488 0.07922937,0.26543 0.0194498,0.0403 0.0423797,0.0784 0.0692594,0.11388 0.0268698,0.0355 0.0577195,0.0685 0.0930093,0.0986 0.0352997,0.0301 0.0750594,0.0573 0.11979505,0.0813 0.0447296,0.024 0.0944292,0.0447 0.1495968,0.0619 0.91615075,-10e-4 1.93060965,0.006 2.99730315,0.0177 1.0666945,0.0118 2.1856325,0.0281 3.3107006,0.045 2.250135,0.0338 4.5248399,0.0697 6.4554549,0.0755 1.158369,0.004 2.192872,-0.004 3.023855,-0.0289 0.415492,-0.0126 0.780091,-0.0296 1.083873,-0.0519 0.30378,-0.0223 0.546735,-0.0499 0.718897,-0.0838 0.246206,-0.0484 0.481465,-0.10365 0.708237,-0.16774 0.226774,-0.0641 0.445063,-0.13698 0.657279,-0.22057 0.212215,-0.0836 0.418374,-0.17789 0.62091,-0.28477 0.202538,-0.10688 0.401434,-0.22636 0.599168,-0.3603 0.197735,-0.13393 0.394306,-0.28234 0.592117,-0.4471 0.197809,-0.16477 0.396861,-0.34589 0.599622,-0.54526 0.202762,-0.19937 0.409232,-0.41696 0.621822,-0.65471 0.21259,-0.23775 0.431312,-0.49565 0.658609,-0.77556 0.247939,-0.30532 0.4866,-0.6516 0.718801,-1.02105 0.790189,-1.23673 1.400415,-2.61375 1.894581,-4.06405 0.567728,-1.57602 1.03416,-3.24016 1.363827,-4.78386 0.288292,-1.29374 0.51564,-2.61507 0.690492,-3.93405 0.05644,-0.28 0.11313,-0.55865 0.170949,-0.83382 0.208618,-1.98898 0.282253,-3.98892 0.271668,-5.98864 0,-2e-5 0,-5e-5 0,-7e-5 0,-2e-5 0,-4e-5 0,-6e-5 9.7e-4,-0.26566 -0.0011,-0.5348 -0.0046,-0.80542 -0.01121,-1.73108 -0.08642,-3.46126 -0.26702,-5.18316 -0.05997,-0.2854 -0.11807,-0.5928 -0.176571,-0.88339 -0.174012,-1.30252 -0.400185,-2.60694 -0.68487,-3.88448 -0.377537,-1.76786 -0.926578,-3.70017 -1.612028,-5.46861 -0.38361,-1.02705 -0.83104,-2.01145 -1.369643,-2.92625 -0.31594,-0.54853 -0.648189,-1.04636 -0.995538,-1.47411 -0.227297,-0.2799 -0.446019,-0.5378 -0.658609,-0.77555 -0.21259,-0.23775 -0.41906,-0.45534 -0.621822,-0.65471 -0.202761,-0.19937 -0.401813,-0.38049 -0.599622,-0.54526 -0.197811,-0.16476 -0.394382,-0.31317 -0.592117,-0.4471 -0.197734,-0.13394 -0.39663,-0.25342 -0.599168,-0.3603 -0.202536,-0.10688 -0.408695,-0.20117 -0.62091,-0.28477 -0.212216,-0.0836 -0.430505,-0.15649 -0.657279,-0.22058 -0.226772,-0.0641 -0.462031,-0.11937 -0.708237,-0.16773 -0.172162,-0.0338 -0.415117,-0.0614 -0.718897,-0.0838 -0.303782,-0.0223 -0.668381,-0.0393 -1.083873,-0.0519 -0.830983,-0.0251 -1.865486,-0.0324 -3.023855,-0.0289 z" />
    <path
       id="path3"
       style="fill:#ffd42a;fill-opacity:0.74386919;stroke:none;stroke-width:0.323297px;stroke-linecap:butt;stroke-linejoin:miter;stroke-opacity:1"
       d="m 21.352882,274.50339 6.3e-4,0.003 -15.5243989,0.48977 c 0,0 -1.71306,0.18284 -2.50429,0.49166 -0.58556,0.22856 -1.141576,0.56302 -1.60244,0.98527 -0.332228,0.30439 -0.617059,0.59021 -0.88910905,0.94768 -0.328056,0.43106 -0.794397,0.88996 -0.914587,1.41517 -1.18819195,5.19223 -1.00487195,17.94172 -1.00184295,18.14745 l -0.007,0.007 c -0.007,0.007 -0.007,0.0184 0,0.0254 l 0.007,0.007 c -0.003,0.20752 -0.186265,12.95496 1.00184295,18.14683 0.120183,0.52519 0.586531,0.98474 0.914587,1.41579 0.27205005,0.35748 0.55688105,0.64328 0.88910905,0.94768 0.460864,0.42227 1.01688,0.75609 1.60244,0.98464 0.79123,0.30884 2.50429,0.49294 2.50429,0.49294 l 15.5243989,0.48852 -6.3e-4,0.004 0.0522,-0.002 0.0516,0.002 -6.4e-4,-0.004 15.52442,-0.48852 c 0,0 1.71305,-0.1841 2.50428,-0.49294 0.58557,-0.22855 1.14158,-0.56237 1.60244,-0.98464 0.33222,-0.3044 0.61706,-0.5902 0.88912,-0.94768 0.32805,-0.43105 0.79439,-0.8906 0.91458,-1.41579 1.18811,-5.19187 1.00488,-17.93931 1.00183,-18.14683 l 0.007,-0.007 c 0.007,-0.007 0.007,-0.0184 0,-0.0254 l -0.007,-0.007 c 0.002,-0.20573 0.18636,-12.95522 -1.00183,-18.14745 -0.12023,-0.52521 -0.58653,-0.98411 -0.91458,-1.41517 -0.27206,-0.35752 -0.5569,-0.64331 -0.88912,-0.94772 -0.46087,-0.42227 -1.01687,-0.75671 -1.60244,-0.98527 -0.79124,-0.30882 -2.50429,-0.49168 -2.50429,-0.49168 l -15.52441,-0.48976 6.3e-4,-0.003 -0.0516,0.002 z" />
    <path
       id="path2"
       style="fill:#ac9d93;fill-opacity:1;fill-rule:nonzero;stroke:none;stroke-width:0.836589;stroke-miterlimit:4;stroke-dasharray:none;stroke-opacity:1"
       d="m 44.179982,284.19526 c 0,-0.002 -0.002,-0.003 -0.004,-0.004 a 7.6437695,7.6437847 0 0 0 -7.63992,-7.58924 7.6437695,7.6437847 0 0 0 -7.64369,7.6438 7.6437695,7.6437847 0 0 0 3.35066,6.3102 v 20.95124 0.0142 c 0,6e-4 9e-4,5.5e-4 10e-4,0.001 a 5.9684229,5.9684347 0 0 0 5.96737,5.95319 5.9684229,5.9684347 0 0 0 5.96796,-5.95389 c 2e-5,-2.1e-4 3.9e-4,-1.7e-4 3.9e-4,-3.9e-4 v -0.0142 -27.26144 z" />
  </g>
</svg>
