<?xml version="1.0" encoding="UTF-8" standalone="no"?>
<!-- Created with Inkscape (http://www.inkscape.org/) -->

<svg
   width="210mm"
   height="297mm"
   viewBox="0 0 210 297"
   version="1.1"
   id="svg1"
   xml:space="preserve"
   inkscape:version="1.3 (0e150ed6c4, 2023-07-21)"
   sodipodi:docname="VengeStemProfile.svg"
   xmlns:inkscape="http://www.inkscape.org/namespaces/inkscape"
   xmlns:sodipodi="http://sodipodi.sourceforge.net/DTD/sodipodi-0.dtd"
   xmlns="http://www.w3.org/2000/svg"
   xmlns:svg="http://www.w3.org/2000/svg"><sodipodi:namedview
     id="namedview1"
     pagecolor="#ffffff"
     bordercolor="#666666"
     borderopacity="1.0"
     inkscape:showpageshadow="2"
     inkscape:pageopacity="0.0"
     inkscape:pagecheckerboard="0"
     inkscape:deskcolor="#d1d1d1"
     inkscape:document-units="mm"
     inkscape:zoom="4"
     inkscape:cx="260.25"
     inkscape:cy="1187.625"
     inkscape:window-width="3840"
     inkscape:window-height="2066"
     inkscape:window-x="3829"
     inkscape:window-y="-11"
     inkscape:window-maximized="1"
     inkscape:current-layer="layer1" /><defs
     id="defs1" /><g
     inkscape:label="Layer 1"
     inkscape:groupmode="layer"
     id="layer1"><path
       id="path1"
       style="fill:#00ffff;fill-opacity:0.616225;stroke-width:1.43308"
       d="m 16.759487,276.74331 c -0.352669,0 -0.705345,0.008 -1.057816,0.0202 -0.23337,0.008 -0.466541,0.021 -0.699699,0.0336 -0.407014,0.022 -0.814174,0.0428 -1.220598,0.0739 -0.0014,10e-5 -0.0028,-1.1e-4 -0.0041,0 -0.556459,0.0426 -1.111507,0.10208 -1.667081,0.15502 -0.522564,0.0498 -1.047559,0.0797 -1.567347,0.15297 -0.274761,0.0387 -0.5470473,0.0941 -0.8185538,0.15141 -0.2563672,0.0541 -0.5131137,0.1086 -0.7648112,0.18138 -0.270075,0.0781 -0.535644,0.17203 -0.7978841,0.27337 -0.2927738,0.11313 -0.5851006,0.23019 -0.8645467,0.37311 -0.2830814,0.14478 -0.5592751,0.30554 -0.8190715,0.48885 -0.3035089,0.21415 -0.5805242,0.46406 -0.8588623,0.71004 -0.305329,0.26983 -0.6134439,0.5389 -0.8888346,0.83922 -0.3156526,0.34423 -0.5756641,0.73569 -0.8702312,1.09813 -0.2928913,0.36038 -0.621857,0.69244 -0.8919352,1.07022 -0.3533086,0.4942 -0.6797652,1.01156 -0.947229,1.55701 -0.3904637,0.7963 -0.6636236,1.64586 -0.9503296,2.48512 -0.17537313,0.51336 -0.35145853,1.02872 -0.47025554,1.55804 -0.26988321,1.20251 -0.50748971,2.42483 -0.54673665,3.65663 -0.0010259,0.0322 -5.7097e-4,0.0876 -0.0015503,0.12092 -0.0674315,0.97888 -0.05667424,1.70819 -0.03307292,2.63911 -0.0071722,1.38668 -0.0067179,2.61173 -0.0067179,2.61173 -0.01479747,1.92295 -0.01395682,2.88644 -0.00878499,3.87005 3.2947e-4,0.12612 -1.0771e-4,0.26195 0.00258382,0.39067 0.002309,0.3558 0.0028823,0.65714 0.00620117,1.11105 0.0090265,1.23452 0.31108557,2.45354 0.5880778,3.65662 0.12171598,0.52866 0.29488241,1.04469 0.47025554,1.55805 0.286706,0.83925 0.5598659,1.68882 0.9503296,2.48511 0.2674638,0.54545 0.5939204,1.06282 0.947229,1.55702 0.2700782,0.37778 0.5990439,0.70984 0.8919352,1.07021 0.2945671,0.36244 0.5546319,0.75385 0.8702312,1.09813 0.2754247,0.30046 0.5834096,0.56984 0.8888346,0.83974 0.2782616,0.2459 0.5554052,0.49549 0.8588623,0.70952 0.2598293,0.18326 0.5359901,0.34408 0.8190715,0.48886 0.2794461,0.14292 0.5718053,0.25988 0.8645467,0.3731 0.2622625,0.10143 0.5277538,0.19579 0.7978841,0.27389 0.251662,0.0728 0.5084653,0.12687 0.7648112,0.18086 0.2715246,0.0572 0.5437928,0.11267 0.8185538,0.15142 0.519788,0.0733 1.044791,0.10308 1.567347,0.15296 0.555581,0.053 1.110605,0.11292 1.667081,0.15554 0.0014,1.1e-4 0.0028,-10e-5 0.0041,0 0.406416,0.031 0.81359,0.0515 1.220598,0.0734 0.0012,7e-5 0.0024,-6e-5 0.0036,0 0.231959,0.0126 0.463916,0.0258 0.696082,0.0336 0.0012,5e-5 0.0024,-4e-5 0.0036,0 0.352644,0.0122 0.705492,0.0202 1.058333,0.0202 0.351464,-6e-5 0.702933,-0.008 1.0542,-0.0202 0.233369,-0.008 0.466537,-0.021 0.699698,-0.0336 0.40821,-0.022 0.816605,-0.0422 1.224215,-0.0734 0.0014,-10e-5 0.0028,1.1e-4 0.0041,0 0.556477,-0.0426 1.1115,-0.10254 1.667082,-0.15554 0.522555,-0.0499 1.047559,-0.0797 1.567346,-0.15296 0.274762,-0.0387 0.54703,-0.0942 0.818555,-0.15142 0.256346,-0.054 0.513149,-0.10806 0.764811,-0.18086 0.270131,-0.0781 0.535622,-0.17246 0.797884,-0.27389 0.292742,-0.11322 0.585101,-0.23018 0.864547,-0.3731 0.283082,-0.14478 0.559242,-0.3056 0.819071,-0.48886 0.303457,-0.21403 0.580601,-0.46362 0.858863,-0.70952 0.305424,-0.2699 0.613409,-0.53928 0.888834,-0.83974 0.3156,-0.34428 0.575664,-0.73569 0.870231,-1.09813 0.292891,-0.36037 0.621857,-0.69243 0.891936,-1.07021 0.353308,-0.4942 0.679765,-1.01157 0.947229,-1.55702 0.390463,-0.79629 0.663623,-1.64586 0.950329,-2.48511 0.175374,-0.51336 0.34854,-1.02939 0.470256,-1.55805 0.276991,-1.20308 0.579077,-2.4221 0.588077,-3.65662 0.0033,-0.45391 0.0039,-0.75525 0.0062,-1.11105 0.0027,-0.12872 0.0023,-0.26455 0.0026,-0.39067 0.0052,-0.98361 0.006,-1.9471 -0.0088,-3.87005 0,0 4.54e-4,-1.22505 -0.0067,-2.61173 0.0236,-0.93092 0.03436,-1.66023 -0.03307,-2.63911 -9.8e-4,-0.0333 -5.25e-4,-0.0887 -0.0016,-0.12092 -0.03925,-1.2318 -0.276854,-2.45412 -0.546736,-3.65663 -0.118797,-0.52932 -0.294882,-1.04468 -0.470256,-1.55804 -0.286706,-0.83926 -0.559866,-1.68882 -0.950329,-2.48512 -0.267464,-0.54545 -0.593921,-1.06281 -0.947229,-1.55701 -0.270079,-0.37778 -0.599045,-0.70984 -0.891936,-1.07022 -0.294567,-0.36244 -0.554578,-0.7539 -0.870231,-1.09813 -0.275391,-0.30032 -0.583506,-0.56939 -0.888834,-0.83922 -0.278339,-0.24598 -0.555354,-0.49589 -0.858863,-0.71004 -0.259796,-0.18331 -0.535989,-0.34407 -0.819071,-0.48885 -0.279446,-0.14292 -0.571773,-0.25998 -0.864547,-0.37311 -0.26224,-0.10134 -0.527808,-0.19527 -0.797884,-0.27337 -0.251698,-0.0728 -0.508444,-0.12728 -0.764811,-0.18138 -0.271507,-0.0573 -0.543793,-0.11271 -0.818555,-0.15141 -0.519787,-0.0733 -1.044783,-0.10317 -1.567346,-0.15297 -0.555575,-0.0529 -1.110622,-0.11242 -1.667082,-0.15502 -0.0014,-1.1e-4 -0.0028,10e-5 -0.0041,0 -0.406418,-0.0311 -0.813583,-0.0519 -1.220597,-0.0739 -0.0012,-7e-5 -0.0024,6e-5 -0.0036,0 -0.231957,-0.0125 -0.463917,-0.0258 -0.696081,-0.0336 -0.0012,-4e-5 -0.0024,4e-5 -0.0036,0 -0.352644,-0.0118 -0.705492,-0.0202 -1.058334,-0.0202 z" /></g></svg>
