<?xml version="1.0" encoding="UTF-8" standalone="no"?>
<!-- Created with Inkscape (http://www.inkscape.org/) -->

<svg
   width="210mm"
   height="297mm"
   viewBox="0 0 210 297"
   version="1.1"
   id="svg1"
   xml:space="preserve"
   inkscape:version="1.3 (0e150ed6c4, 2023-07-21)"
   sodipodi:docname="VengeClipProfile.svg"
   xmlns:inkscape="http://www.inkscape.org/namespaces/inkscape"
   xmlns:sodipodi="http://sodipodi.sourceforge.net/DTD/sodipodi-0.dtd"
   xmlns="http://www.w3.org/2000/svg"
   xmlns:svg="http://www.w3.org/2000/svg"><sodipodi:namedview
     id="namedview1"
     pagecolor="#ffffff"
     bordercolor="#666666"
     borderopacity="1.0"
     inkscape:showpageshadow="2"
     inkscape:pageopacity="0.0"
     inkscape:pagecheckerboard="0"
     inkscape:deskcolor="#d1d1d1"
     inkscape:document-units="mm"
     inkscape:zoom="5.6568543"
     inkscape:cx="131.43347"
     inkscape:cy="1157.799"
     inkscape:window-width="3840"
     inkscape:window-height="2066"
     inkscape:window-x="3829"
     inkscape:window-y="-11"
     inkscape:window-maximized="1"
     inkscape:current-layer="layer1" /><defs
     id="defs1" /><g
     inkscape:label="Layer 1"
     inkscape:groupmode="layer"
     id="layer1"><path
       id="rect6"
       style="fill:#0000ff;fill-rule:evenodd;stroke-width:0.264588"
       d="M -1.3306681 263.06198 C -4.9541613 263.06198 -7.8713542 265.97916 -7.8713542 269.60267 L -7.8713542 274.84369 C -7.8713542 277.01228 -6.8243148 278.92425 -5.2079508 280.11158 L -5.2079508 280.11779 C -3.7328794 281.30768 -2.7893537 283.12685 -2.778125 285.17536 L -2.778125 305.46921 C -2.778125 308.82846 -0.2695607 311.57622 2.9832804 311.95977 C 2.8903965 311.84851 2.7942098 311.73972 2.7099121 311.62181 C 2.3566043 311.12761 2.0301463 310.61024 1.7626831 310.06479 C 1.3722202 309.26852 1.099059 308.41891 0.81235352 307.57968 C 0.63698073 307.06632 0.46381372 306.55029 0.34209798 306.02163 C 0.065106308 304.81855 -0.23695384 303.59953 -0.24597982 302.36501 C -0.2492988 301.9111 -0.24987199 301.60976 -0.25218099 301.25396 C -0.2548727 301.12524 -0.25443534 300.98941 -0.25476481 300.86329 C -0.25993661 299.87968 -0.26077728 298.91619 -0.24597982 296.99324 C -0.24597982 296.99324 -0.24643386 295.76819 -0.23926188 294.38151 C -0.26286314 293.45061 -0.27362034 292.72128 -0.20618896 291.7424 C -0.20520995 291.70908 -0.20566467 291.65368 -0.20463867 291.62148 C -0.16539181 290.38968 0.072215314 289.16736 0.34209798 287.96485 C 0.46089475 287.43553 0.63698073 286.92017 0.81235352 286.40681 C 1.0990589 285.56755 1.3722202 284.71799 1.7626831 283.92169 C 2.0301463 283.37624 2.3566043 282.85888 2.7099121 282.36468 C 2.9799897 281.9869 3.3089566 281.65484 3.6018473 281.29446 C 3.8964138 280.93202 4.1564265 280.54056 4.4720785 280.19633 C 4.7474686 279.89601 5.0555847 279.62694 5.3609131 279.35711 C 5.6392506 279.11113 5.9162671 278.86122 6.2197754 278.64707 C 6.4795712 278.46376 6.755766 278.303 7.0388468 278.15822 C 7.3182925 278.0153 7.6106202 277.89824 7.9033936 277.78511 C 8.1656331 277.68377 8.4312031 277.58984 8.7012777 277.51174 C 8.9529746 277.43896 9.2097221 277.38446 9.4660889 277.33036 C 9.7375948 277.27305 10.009883 277.21765 10.284644 277.17895 C 10.80443 277.10568 11.329426 277.07578 11.85199 277.02598 C 12.407562 276.97304 12.962614 276.91356 13.519071 276.87096 C 13.520371 276.87085 13.521806 276.87106 13.523206 276.87096 C 13.929628 276.83986 14.336789 276.81906 14.743803 276.79706 C 14.976961 276.78446 15.210132 276.77147 15.443502 276.76347 C 15.795971 276.75127 16.148651 276.74331 16.501318 276.74331 C 16.85416 276.74331 17.207008 276.75167 17.559652 276.76347 C 17.560852 276.76351 17.562069 276.76343 17.563269 276.76347 C 17.795433 276.77127 18.027394 276.78456 18.259351 276.79706 C 18.260551 276.79712 18.261768 276.79699 18.262968 276.79706 C 18.669982 276.81906 19.077149 276.83986 19.483565 276.87096 C 19.484865 276.87106 19.486299 276.87085 19.487699 276.87096 C 20.044159 276.91356 20.599208 276.97308 21.154781 277.02598 C 21.677344 277.07578 22.202342 277.10565 22.722127 277.17895 C 22.996889 277.21765 23.269175 277.27306 23.540682 277.33036 C 23.797049 277.38446 24.053795 277.43894 24.305493 277.51174 C 24.575569 277.58984 24.841139 277.68377 25.103377 277.78511 C 25.396151 277.89824 25.688478 278.0153 25.967924 278.15822 C 26.251006 278.303 26.527201 278.46376 26.786995 278.64707 C 27.090504 278.86122 27.367519 279.11113 27.645858 279.35711 C 27.951184 279.62694 28.259303 279.89601 28.534692 280.19633 C 28.850345 280.54056 29.110357 280.93202 29.404924 281.29446 C 29.697813 281.65484 30.02678 281.9869 30.296859 282.36468 C 30.650165 282.85888 30.976624 283.37624 31.244088 283.92169 C 31.634549 284.71799 31.907713 285.56755 32.194417 286.40681 C 32.369791 286.92017 32.545876 287.43553 32.664673 287.96485 C 32.934555 289.16736 33.17216 290.38968 33.21141 291.62148 C 33.212485 291.6537 33.21198 291.7091 33.21296 291.7424 C 33.28039 292.72128 33.269633 293.45061 33.246033 294.38151 C 33.253187 295.76819 33.252751 296.99324 33.252751 296.99324 C 33.267551 298.91619 33.266736 299.87968 33.261536 300.86329 C 33.261236 300.98941 33.261652 301.12524 33.258952 301.25396 C 33.256652 301.60976 33.256051 301.9111 33.252751 302.36501 C 33.243751 303.59953 32.941664 304.81855 32.664673 306.02163 C 32.542957 306.55029 32.369791 307.06632 32.194417 307.57968 C 31.907713 308.41891 31.634549 309.26852 31.244088 310.06479 C 30.976624 310.61024 30.650165 311.12761 30.296859 311.62181 C 30.212561 311.73972 30.116375 311.84851 30.02349 311.95977 C 33.276332 311.57622 35.784896 308.82846 35.784896 305.46921 L 35.784896 274.84369 L 35.784896 269.60267 C 35.784896 265.97916 32.867702 263.06198 29.24421 263.06198 L 28.974459 263.06198 A 5.9684892 5.9684229 0 0 1 34.393766 268.9686 A 5.9684892 5.9684229 0 0 1 28.440641 274.93619 C 28.440191 274.93629 28.440208 274.93671 28.439608 274.93671 L 28.425138 274.93671 L 7.4739624 274.93671 A 7.6438545 7.6437695 0 0 1 1.1637533 278.28741 A 7.6438545 7.6437695 0 0 1 -6.4802246 270.64395 A 7.6438545 7.6437695 0 0 1 0.559139 263.06198 L -1.3306681 263.06198 z " /></g></svg>
