<?xml version="1.0" encoding="UTF-8" standalone="no"?>
<svg
   xmlns:dc="http://purl.org/dc/elements/1.1/"
   xmlns:cc="http://creativecommons.org/ns#"
   xmlns:rdf="http://www.w3.org/1999/02/22-rdf-syntax-ns#"
   xmlns:svg="http://www.w3.org/2000/svg"
   xmlns="http://www.w3.org/2000/svg"
   xmlns:sodipodi="http://sodipodi.sourceforge.net/DTD/sodipodi-0.dtd"
   xmlns:inkscape="http://www.inkscape.org/namespaces/inkscape"
   inkscape:version="1.0 (4035a4fb49, 2020-05-01)"
   sodipodi:docname="ImpellerMold.svg"
   id="svg837"
   version="1.1"
   viewBox="0 0 210 297"
   height="297mm"
   width="210mm">
  <defs
     id="defs831" />
  <sodipodi:namedview
     inkscape:window-maximized="1"
     inkscape:window-y="-8"
     inkscape:window-x="-8"
     inkscape:window-height="1017"
     inkscape:window-width="1920"
     showgrid="false"
     inkscape:document-rotation="0"
     inkscape:current-layer="layer1"
     inkscape:document-units="mm"
     inkscape:cy="1088.6521"
     inkscape:cx="146.04653"
     inkscape:zoom="1.4142136"
     inkscape:pageshadow="2"
     inkscape:pageopacity="0.0"
     borderopacity="1.0"
     bordercolor="#666666"
     pagecolor="#ffffff"
     id="base" />
  <metadata
     id="metadata834">
    <rdf:RDF>
      <cc:Work
         rdf:about="">
        <dc:format>image/svg+xml</dc:format>
        <dc:type
           rdf:resource="http://purl.org/dc/dcmitype/StillImage" />
      </cc:Work>
    </rdf:RDF>
  </metadata>
  <g
     id="layer1"
     inkscape:groupmode="layer"
     inkscape:label="Layer 1">
    <path
       d="M 9.8612218e-4,238.53 C -3.0932448,238.52996 -1.4153282,288.39003 -4.0950145,289.9371 c -2.6796958,1.54708 -45.0200075,-24.83706 -46.5671495,-22.15742 -1.547144,2.67964 42.4724564,26.1561 42.4724206,29.25032 -3.9e-5,3.09421 -44.0201436,26.56999 -42.4730546,29.24968 1.547075,2.67968 43.8881364,-23.70394 46.5677835,-22.15679 2.6796602,1.54712 1.0005149,51.40707 4.09472951733,51.40711 C 3.0939448,355.53004 1.4153844,305.66995 4.0950806,304.12289 6.7747638,302.57581 49.115736,328.9606 50.662876,326.28095 52.210018,323.60131 8.1904072,300.12421 8.1904462,297.03 8.1904822,293.93578 52.210587,270.46062 50.663514,267.78095 49.116425,265.10127 6.7747408,291.48487 4.0950806,289.93774 1.4154204,288.3906 3.0952028,238.53004 9.8612218e-4,238.53 Z m 0,1.00447 C 0.46991461,241.09288 0.5970543,242.72862 0.75910391,244.34158 c 0.71360669,9.29695 0.72148669,18.60353 1.01018979,27.92965 0.2127708,5.30441 0.2031638,10.64393 0.9987618,15.90328 0.1905448,0.95673 0.3858355,2.49076 1.6514803,2.47626 2.0234708,-0.22766 3.8425707,-1.29041 5.6814452,-2.09973 10.278712,-5.06682 20.155596,-10.90484 30.344439,-16.14902 3.050697,-1.49738 6.050209,-3.21296 9.343144,-4.11948 -1.108445,1.19014 -2.466526,2.11454 -3.781069,3.06105 -7.755726,5.31356 -15.906809,10.01354 -23.892803,14.96674 -4.414652,2.79472 -8.96629,5.42383 -13.0607265,8.6866 -0.7316108,0.64544 -1.9685405,1.58427 -1.316232,2.67308 1.1510544,1.58001 2.9064555,2.58352 4.4541055,3.73027 9.518071,6.38195 19.509894,12.0164 29.15202,18.20683 2.891264,1.93946 5.953184,3.7166 8.447881,6.1697 -1.625786,-0.37605 -3.138373,-1.11705 -4.653479,-1.79815 -8.399017,-4.03572 -16.479186,-8.69104 -24.688383,-13.09305 -4.663373,-2.45186 -9.250294,-5.10238 -14.16362,-7.03257 -0.9255066,-0.31148 -2.351242,-0.90734 -2.9734234,0.19556 -0.8127891,1.86791 -0.797786,3.97354 -1.0222539,5.96969 -0.7717619,11.8474 -0.6239214,23.74573 -1.2470227,35.58001 -0.21920785,3.01603 -0.26445401,6.03342 -1.04320578023,8.92214 C -0.49710618,352.8857 -0.60829321,351.16559 -0.77998926,349.47332 -1.4705739,340.2166 -1.4862758,330.9507 -1.7730372,321.66558 c -0.2086554,-5.2636 -0.2061002,-10.56148 -0.9949525,-15.7801 -0.1884185,-0.95767 -0.3890832,-2.49524 -1.6565581,-2.47626 -2.0234477,0.22909 -3.8371899,1.2972 -5.6776382,2.10037 -10.201453,5.03648 -20.012883,10.81855 -30.122829,16.03472 -3.122998,1.5375 -6.191846,3.30087 -9.564105,4.2325 1.107967,-1.19073 2.469714,-2.11051 3.781703,-3.0604 7.674214,-5.25415 15.763213,-9.93203 23.682638,-14.83913 4.483764,-2.83485 9.113011,-5.499 13.2702457,-8.81422 0.7310807,-0.64593 1.9647105,-1.57659 1.3213098,-2.66864 -1.1511775,-1.58134 -2.9077985,-2.58513 -4.4553745,-3.7347 -9.862499,-6.60611 -20.229411,-12.41774 -30.188229,-18.87671 -2.590375,-1.75132 -5.190235,-3.28796 -7.41547,-5.49983 1.54657,0.35545 2.99072,1.04778 4.432519,1.69528 8.481425,4.05263 16.627652,8.75919 24.90934,13.19846 4.662271,2.45376 9.252593,5.10074 14.1661479,7.0294 0.9243884,0.31339 2.3504518,0.90872 2.9708881,-0.19493 0.8252071,-1.90673 0.8054091,-4.05547 1.0311416,-6.09223 0.7170008,-11.06817 0.6324256,-22.1959 1.1308305,-33.2517 0.22616468,-3.69411 0.24519866,-7.44889 1.12574892,-11.06061 z M 0.17559489,288.01261 c -1.32889079,-10e-6 -1.38763469,4.00553 -2.53849379,4.66996 -1.1508556,0.66444 -4.6493543,-1.28671 -5.3138143,-0.13588 -0.6644568,1.15085 2.7747065,3.20459 2.7746903,4.53346 -1.62e-5,1.32888 -3.4391212,3.38261 -2.7746903,4.53346 0.6644307,1.15086 4.162975,-0.80033 5.3138143,-0.13588 1.1508461,0.66446 1.209603,4.66996 2.53849379,4.66997 1.32889081,1e-5 1.38826501,-4.00553 2.53912641,-4.66997 1.1508594,-0.66443 4.6493578,1.28735 5.3138143,0.13651 0.6644576,-1.15083 -2.7747026,-3.20521 -2.7746896,-4.53409 1.6e-5,-1.32887 3.4391202,-3.3826 2.7746896,-4.53346 -0.6644335,-1.15085 -4.1629719,0.80034 -5.3138143,0.13588 -1.1508454,-0.66445 -1.2102396,-4.66995 -2.53912641,-4.66996 z m 0,5.52079 1.53401561,0.89018 1.5378259,0.8832 -0.0038,1.77337 0.0038,1.77338 -1.5378259,0.88384 -1.53401561,0.88955 -1.53401609,-0.88955 -1.537826,-0.88384 0.00381,-1.77338 -0.00381,-1.77337 1.537826,-0.88384 z"
       inkscape:transform-center-x="6.5397058e-06"
       style="fill:#ff00ff;fill-opacity:0.620968;stroke:none;stroke-width:0.0380891;stroke-miterlimit:4;stroke-dasharray:none;stroke-opacity:1"
       id="path1447" />
  </g>
</svg>
