<?xml version="1.0" encoding="UTF-8" standalone="no"?>
<!-- Created with Inkscape (http://www.inkscape.org/) -->

<svg
   xmlns:dc="http://purl.org/dc/elements/1.1/"
   xmlns:cc="http://creativecommons.org/ns#"
   xmlns:rdf="http://www.w3.org/1999/02/22-rdf-syntax-ns#"
   xmlns:svg="http://www.w3.org/2000/svg"
   xmlns="http://www.w3.org/2000/svg"
   xmlns:sodipodi="http://sodipodi.sourceforge.net/DTD/sodipodi-0.dtd"
   xmlns:inkscape="http://www.inkscape.org/namespaces/inkscape"
   width="210mm"
   height="297mm"
   viewBox="0 0 210 297"
   version="1.1"
   id="svg8"
   inkscape:version="0.92.3 (2405546, 2018-03-11)"
   sodipodi:docname="ImpellerMold_10_rounded.svg">
  <defs
     id="defs2" />
  <sodipodi:namedview
     id="base"
     pagecolor="#ffffff"
     bordercolor="#666666"
     borderopacity="1.0"
     inkscape:pageopacity="0.0"
     inkscape:pageshadow="2"
     inkscape:zoom="2.8"
     inkscape:cx="-1261.5679"
     inkscape:cy="929.14784"
     inkscape:document-units="mm"
     inkscape:current-layer="layer1"
     showgrid="false"
     inkscape:measure-start="-959.397,961.585"
     inkscape:measure-end="-961.306,954.04"
     inkscape:window-width="3840"
     inkscape:window-height="2004"
     inkscape:window-x="-16"
     inkscape:window-y="2684"
     inkscape:window-maximized="1" />
  <metadata
     id="metadata5">
    <rdf:RDF>
      <cc:Work
         rdf:about="">
        <dc:format>image/svg+xml</dc:format>
        <dc:type
           rdf:resource="http://purl.org/dc/dcmitype/StillImage" />
        <dc:title></dc:title>
      </cc:Work>
    </rdf:RDF>
  </metadata>
  <g
     inkscape:label="Layer 1"
     inkscape:groupmode="layer"
     id="layer1">
    <path
       style="opacity:0.53500001;fill:#ff6600;fill-opacity:1;fill-rule:nonzero;stroke:none;stroke-width:0.46321639;stroke-miterlimit:4;stroke-dasharray:none;stroke-opacity:1"
       d="M -1290.9531 -90.041016 C -1309.866 -88.50703 -1306.8183 -62.199853 -1308.1973 -48.824219 C -1310.0288 -2.3484241 -1300.8452 44.838714 -1309.0957 90.826172 C -1350.7234 51.787243 -1370.9003 -5.6271719 -1413.2539 -44.025391 C -1424.7184 -54.667112 -1440.7623 -39.308798 -1432.6055 -26.742188 C -1408.1482 23.617107 -1360.3318 61.33578 -1337.5859 111.27344 C -1394.0359 103.78181 -1444.0206 69.574395 -1500.7227 63.361328 C -1516.227 61.546116 -1520.1252 83.361431 -1506.166 88.712891 C -1456.4317 114.96541 -1397.3053 117.60748 -1347.8203 144.23828 C -1397.8231 171.77695 -1458.6678 173.21254 -1508.2852 201.63477 C -1521.928 209.25802 -1512.2753 229.23714 -1497.8203 225.36719 C -1442.1532 217.35064 -1392.7733 184.77614 -1337.084 177.20898 C -1361.3444 228.88371 -1409.7349 265.81558 -1433.168 317.98438 C -1439.6849 332.17934 -1420.1492 342.62361 -1410.7305 331.00977 C -1370.3894 291.82782 -1349.6521 236.37561 -1309.002 197.57422 C -1298.2346 253.69584 -1315.7137 311.84615 -1303.9941 367.92188 C -1300.9575 383.2491 -1278.9707 380.24221 -1278.1914 365.29297 C -1268.5845 309.75923 -1284.4167 252.04874 -1274.3184 197.54688 C -1232.7022 236.61994 -1212.4938 294.01042 -1170.1328 332.42383 C -1158.6607 343.03217 -1142.6643 327.66382 -1150.8105 315.12109 C -1175.6124 264.541 -1222.0632 227.76999 -1246.2754 177.12695 C -1189.6498 184.31847 -1139.5669 218.80452 -1082.7285 225.01367 C -1067.2059 226.86846 -1063.2653 205.02334 -1077.248 199.66016 C -1126.9778 173.40265 -1186.1147 170.78226 -1235.5859 144.13477 C -1185.5892 116.58135 -1124.7276 115.16773 -1075.1133 86.732422 C -1061.4874 79.097353 -1071.1481 59.136879 -1085.5938 63.011719 C -1141.2626 70.992486 -1190.6396 103.63791 -1246.3301 111.16211 C -1222.077 59.481091 -1173.6695 22.561939 -1150.2461 -29.613281 C -1143.7309 -43.799038 -1163.2506 -54.250621 -1172.668 -42.644531 C -1213.0465 -3.4921684 -1233.7282 52.02374 -1274.4062 90.806641 C -1285.1588 34.685296 -1267.7259 -23.444845 -1279.4082 -79.525391 C -1281.1206 -84.675424 -1285.1786 -89.679602 -1290.9531 -90.041016 z M -1291.9043 -82.583984 C -1270.0552 -82.602882 -1297.8169 92.14918 -1277.0312 98.882812 C -1256.2456 105.61643 -1176.2617 -52.217805 -1158.5742 -39.390625 C -1140.8867 -26.563447 -1266.0631 98.496998 -1253.2051 116.16211 C -1240.3471 133.82723 -1082.8656 53.149957 -1076.0957 73.923828 C -1069.3258 94.697699 -1244.103 122.29736 -1244.084 144.14648 C -1244.0651 165.99562 -1069.239 193.29052 -1075.9727 214.07617 C -1082.7063 234.86181 -1240.3291 154.45701 -1253.1562 172.14453 C -1265.9834 189.83204 -1140.5888 314.6752 -1158.2539 327.5332 C -1175.919 340.39123 -1256.1773 182.69691 -1276.9512 189.4668 C -1297.725 196.23668 -1269.6607 370.93994 -1291.5098 370.95898 C -1313.3589 370.97788 -1285.5971 196.22582 -1306.3828 189.49219 C -1327.1685 182.75855 -1407.1523 340.59277 -1424.8398 327.76562 C -1442.5274 314.93842 -1317.351 189.87801 -1330.209 172.21289 C -1343.067 154.54778 -1500.5486 235.22503 -1507.3184 214.45117 C -1514.0883 193.6773 -1339.3091 166.07765 -1339.3281 144.22852 C -1339.347 122.37938 -1514.175 95.084476 -1507.4414 74.298828 C -1500.7078 53.513188 -1343.085 133.91799 -1330.2578 116.23047 C -1317.4306 98.542956 -1442.8253 -26.30019 -1425.1602 -39.158203 C -1407.4951 -52.016213 -1327.2368 105.67808 -1306.4629 98.908203 C -1285.689 92.138321 -1313.7534 -82.564928 -1291.9043 -82.583984 z M -1291.7754 96.765625 C -1295.3572 96.770866 -1294.1674 124.93311 -1297.5723 126.04492 C -1300.9771 127.15674 -1316.6367 103.71858 -1319.5312 105.82812 C -1322.4259 107.93768 -1304.9106 130.02302 -1307.0117 132.92383 C -1309.1128 135.82463 -1335.5583 126.06846 -1336.6602 129.47656 C -1337.762 132.88466 -1310.6088 140.45533 -1310.6035 144.03711 C -1310.5983 147.61889 -1337.729 155.26897 -1336.6172 158.67383 C -1335.5054 162.07869 -1309.0881 152.24599 -1306.9785 155.14062 C -1304.869 158.03527 -1322.3207 180.1704 -1319.4199 182.27148 C -1316.5191 184.37256 -1300.9276 160.88839 -1297.5195 161.99023 C -1294.1114 163.09208 -1295.2185 191.25915 -1291.6367 191.25391 C -1288.0549 191.24867 -1289.2447 163.08643 -1285.8398 161.97461 C -1282.435 160.86279 -1266.7755 184.29901 -1263.8809 182.18945 C -1260.9862 180.07989 -1278.5034 157.99651 -1276.4023 155.0957 C -1274.3013 152.1949 -1247.8558 161.95107 -1246.7539 158.54297 C -1245.6521 155.13487 -1272.8034 147.56421 -1272.8086 143.98242 C -1272.8138 140.40064 -1245.6851 132.74861 -1246.7969 129.34375 C -1247.9087 125.93889 -1274.324 135.77355 -1276.4336 132.87891 C -1278.5432 129.98426 -1261.0933 107.84913 -1263.9941 105.74805 C -1266.8949 103.64697 -1282.4845 127.12919 -1285.8926 126.02734 C -1289.3007 124.9255 -1288.1936 96.760384 -1291.7754 96.765625 z M -1297.1582 134.56055 L -1291.7031 134.62891 L -1286.25 134.56445 L -1283.5801 139.32031 L -1280.7988 144.01172 L -1283.584 148.70312 L -1286.2559 153.45898 L -1291.709 153.39062 L -1297.1641 153.45508 L -1299.832 148.69727 L -1302.6152 144.00586 L -1299.8301 139.31641 L -1297.1582 134.56055 z "
       transform="scale(0.26458333)"
       id="path817" />
  </g>
</svg>
