<?xml version="1.0" encoding="UTF-8" standalone="no"?>
<!-- Created with Inkscape (http://www.inkscape.org/) -->

<svg
   width="210mm"
   height="297mm"
   viewBox="0 0 210 297"
   version="1.1"
   id="svg1"
   inkscape:version="1.3.2 (091e20e, 2023-11-25, custom)"
   sodipodi:docname="eye_carat.svg"
   xml:space="preserve"
   xmlns:inkscape="http://www.inkscape.org/namespaces/inkscape"
   xmlns:sodipodi="http://sodipodi.sourceforge.net/DTD/sodipodi-0.dtd"
   xmlns="http://www.w3.org/2000/svg"
   xmlns:svg="http://www.w3.org/2000/svg"><sodipodi:namedview
     id="namedview1"
     pagecolor="#ffffff"
     bordercolor="#000000"
     borderopacity="0.25"
     inkscape:showpageshadow="2"
     inkscape:pageopacity="0.0"
     inkscape:pagecheckerboard="0"
     inkscape:deskcolor="#d1d1d1"
     inkscape:document-units="mm"
     inkscape:zoom="11.075084"
     inkscape:cx="16.929894"
     inkscape:cy="1105.4995"
     inkscape:window-width="1920"
     inkscape:window-height="991"
     inkscape:window-x="-9"
     inkscape:window-y="-9"
     inkscape:window-maximized="1"
     inkscape:current-layer="layer1" /><defs
     id="defs1" /><g
     inkscape:label="Layer 1"
     inkscape:groupmode="layer"
     id="layer1"><path
       style="fill:#000000"
       d="m -9.8989523,303.36159 c -0.3214067,-0.52851 -0.6842727,-3.12986 -0.6843807,-4.90624 -2.4e-5,-0.39582 0.02795,-0.76226 0.06216,-0.81431 0.07377,-0.11225 4.0332107,-2.75356 6.9625377,-4.64465 1.140883,-0.73653 2.456921,-1.59856 2.92452798,-1.91563 0.981056,-0.66522 1.180428,-0.75413 1.491205,-0.665 0.29939502,0.0859 1.10636502,0.57234 2.65393302,1.59988 0.6985,0.46378 1.7272,1.13414 2.286,1.48968 0.5588,0.35553 1.6256,1.04307 2.370667,1.52785 0.745067,0.48478 1.534956,0.97714 1.75531,1.09412 0.6946733,0.3688 0.7006973,0.39151 0.6953153,2.62111 -0.0042,1.74308 -0.02561,2.03619 -0.201181,2.75495 -0.210371,0.86123 -0.4356893,1.39125 -0.6217963,1.46267 -0.191787,0.0736 -0.758094,-0.0649 -1.292161,-0.31609 -1.726826,-0.81205 -5.621133,-2.80961 -7.278154,-3.73327 -1.61369002,-0.89951 -1.60663002,-0.89972 -3.386666,0.10323 -0.325967,0.18367 -1.049867,0.63654 -1.608667,1.00639 -0.5588,0.36985 -1.0541,0.69171 -1.100667,0.71526 -0.04657,0.0235 -0.313267,0.19089 -0.592667,0.37188 -0.2794,0.18099 -0.7747,0.50018 -1.100667,0.7093 -0.325967,0.20913 -0.897467,0.58057 -1.27,0.82543 -1.103137,0.72506 -1.345003,0.86232 -1.629566,0.92482 -0.24167,0.0531 -0.287914,0.0306 -0.435083,-0.21138 z"
       id="path1" /></g></svg>
