<?xml version="1.0" encoding="UTF-8" standalone="no"?>
<svg
   xmlns:dc="http://purl.org/dc/elements/1.1/"
   xmlns:cc="http://creativecommons.org/ns#"
   xmlns:rdf="http://www.w3.org/1999/02/22-rdf-syntax-ns#"
   xmlns:svg="http://www.w3.org/2000/svg"
   xmlns="http://www.w3.org/2000/svg"
   xmlns:sodipodi="http://sodipodi.sourceforge.net/DTD/sodipodi-0.dtd"
   xmlns:inkscape="http://www.inkscape.org/namespaces/inkscape"
   sodipodi:docname="pully.svg"
   inkscape:version="0.92.3 (2405546, 2018-03-11)"
   id="svg8"
   version="1.1"
   viewBox="0 0 210 297"
   height="297mm"
   width="210mm">
  <defs
     id="defs2" />
  <sodipodi:namedview
     inkscape:document-rotation="0"
     inkscape:window-maximized="1"
     inkscape:window-y="-16"
     inkscape:window-x="2609"
     inkscape:window-height="2930"
     inkscape:window-width="5486"
     showgrid="false"
     inkscape:current-layer="layer1"
     inkscape:document-units="mm"
     inkscape:cy="-6.0123392"
     inkscape:cx="-0.096269205"
     inkscape:zoom="64"
     inkscape:pageshadow="2"
     inkscape:pageopacity="0.0"
     borderopacity="1.0"
     bordercolor="#666666"
     pagecolor="#ffffff"
     id="base" />
  <metadata
     id="metadata5">
    <rdf:RDF>
      <cc:Work
         rdf:about="">
        <dc:format>image/svg+xml</dc:format>
        <dc:type
           rdf:resource="http://purl.org/dc/dcmitype/StillImage" />
        <dc:title />
      </cc:Work>
    </rdf:RDF>
  </metadata>
  <g
     id="layer1"
     inkscape:groupmode="layer"
     inkscape:label="Layer 1">
    <path
       style="opacity:0.53500001;fill:#5f8bd3;fill-opacity:1;fill-rule:nonzero;stroke:none;stroke-width:0.28805906;stroke-miterlimit:4;stroke-dasharray:none;stroke-opacity:1"
       d="m 0,295.50032 v 1.49963 c -9.7439784e-4,-0.35329 0.20018546,-0.5027 0.51299736,-0.66995 0.37744626,-0.071 0.76297264,-0.0675 1.14451724,-0.099 0.1753242,0.0362 0.3161265,-0.33981 0.3312548,-0.49978 0.061416,-0.11982 -0.02419,-0.29972 -0.1736913,-0.23087 -0.605026,-2e-5 -1.21005206,-2e-4 -1.8150781,-3e-5 z m 0,1.49963 v 1.49966 c 0.66033334,0 1.3206667,-8e-5 1.981,-1.4e-4 C 2.035617,298.31601 1.969657,297.90341 1.822,297.782 1.3956649,297.7393 0.96517861,297.7412 0.54130614,297.674 0.20593232,297.52969 0.00459665,297.35558 0,296.99995 Z"
       id="rect827"
       inkscape:connector-curvature="0"
       sodipodi:nodetypes="ccccccccccccc" />
  </g>
</svg>
