<?xml version="1.0" encoding="UTF-8" standalone="no"?>
<svg
   xmlns:dc="http://purl.org/dc/elements/1.1/"
   xmlns:cc="http://creativecommons.org/ns#"
   xmlns:rdf="http://www.w3.org/1999/02/22-rdf-syntax-ns#"
   xmlns:svg="http://www.w3.org/2000/svg"
   xmlns="http://www.w3.org/2000/svg"
   xmlns:sodipodi="http://sodipodi.sourceforge.net/DTD/sodipodi-0.dtd"
   xmlns:inkscape="http://www.inkscape.org/namespaces/inkscape"
   sodipodi:docname="pully.svg"
   inkscape:version="0.92.3 (2405546, 2018-03-11)"
   id="svg8"
   version="1.1"
   viewBox="0 0 210 297"
   height="297mm"
   width="210mm">
  <defs
     id="defs2" />
  <sodipodi:namedview
     inkscape:document-rotation="0"
     inkscape:window-maximized="1"
     inkscape:window-y="-16"
     inkscape:window-x="5470"
     inkscape:window-height="2004"
     inkscape:window-width="3840"
     showgrid="false"
     inkscape:current-layer="layer1"
     inkscape:document-units="mm"
     inkscape:cy="0.52673252"
     inkscape:cx="7.1583519"
     inkscape:zoom="128"
     inkscape:pageshadow="2"
     inkscape:pageopacity="0.0"
     borderopacity="1.0"
     bordercolor="#666666"
     pagecolor="#ffffff"
     id="base" />
  <metadata
     id="metadata5">
    <rdf:RDF>
      <cc:Work
         rdf:about="">
        <dc:format>image/svg+xml</dc:format>
        <dc:type
           rdf:resource="http://purl.org/dc/dcmitype/StillImage" />
        <dc:title />
      </cc:Work>
    </rdf:RDF>
  </metadata>
  <g
     id="layer1"
     inkscape:groupmode="layer"
     inkscape:label="Layer 1">
    <path
       style="opacity:0.53500001;fill:#5f8bd3;fill-opacity:1;fill-rule:nonzero;stroke:none;stroke-width:1.08872712;stroke-miterlimit:4;stroke-dasharray:none;stroke-opacity:1"
       d="M 0 1116.8516 L 0 1122.5195 A 3.7797577 3.7795276 0 0 1 0.015625 1122.2285 A 3.7797577 3.7795276 0 0 1 0.03125 1122.0664 A 3.7797577 3.7795276 0 0 1 0.03125 1122.0645 A 3.7797577 3.7795276 0 0 1 0.041015625 1122.0039 A 3.7797577 3.7795276 0 0 1 0.0625 1121.8594 A 3.7797577 3.7795276 0 0 1 0.095703125 1121.6914 A 3.7797577 3.7795276 0 0 1 1.0761719 1119.8848 A 3.7797577 3.7795276 0 0 1 1.8320312 1119.2852 A 3.7797577 3.7795276 0 0 1 1.890625 1119.25 A 3.7797577 3.7795276 0 0 1 1.8925781 1119.25 A 3.7797577 3.7795276 0 0 1 3.1113281 1118.8008 A 1.8897638 1.8897638 0 0 0 3.7792969 1117.3613 A 1.8897638 1.8897638 0 0 0 3.7089844 1116.8516 L 0 1116.8516 z M 0 1122.5195 L 0 1128.1875 L 0 1128.1895 L 1.3457031 1128.1895 L 3.7089844 1128.1895 A 1.8897638 1.8897638 0 0 0 3.7792969 1127.6777 A 1.8897638 1.8897638 0 0 0 3.1074219 1126.2363 A 3.7797577 3.7795276 0 0 1 1.8417969 1125.7617 A 3.7797577 3.7795276 0 0 1 1.8320312 1125.7559 A 3.7797577 3.7795276 0 0 1 1.8222656 1125.75 A 3.7797577 3.7795276 0 0 1 0.7109375 1124.7168 A 3.7797577 3.7795276 0 0 1 0.50585938 1124.3984 A 3.7797577 3.7795276 0 0 1 0.32226562 1124.0371 A 3.7797577 3.7795276 0 0 1 0.099609375 1123.3672 A 3.7797577 3.7795276 0 0 1 0.095703125 1123.3496 A 3.7797577 3.7795276 0 0 1 0.091796875 1123.3262 A 3.7797577 3.7795276 0 0 1 0.03515625 1123.0039 A 3.7797577 3.7795276 0 0 1 0.03125 1122.9746 A 3.7797577 3.7795276 0 0 1 0.02734375 1122.9355 A 3.7797577 3.7795276 0 0 1 0 1122.5195 z "
       transform="scale(0.26458333)"
       id="rect827" />
  </g>
</svg>
